<svg id="Camada_1" data-name="Camada 1" xmlns="http://www.w3.org/2000/svg" viewBox="0 0 407.36 123.43"><defs><style>.cls-1{fill:#f28c5e;}.cls-1,.cls-8{opacity:0.8;}.cls-2,.cls-3,.cls-4,.cls-6,.cls-7{fill:none;stroke:#000;stroke-miterlimit:10;}.cls-2{stroke-width:1.2px;}.cls-3{stroke-width:0.4px;}.cls-4{stroke-width:0.4px;}.cls-5{font-size:14.35px;font-family:CMR12;}.cls-6{stroke-width:0.57px;}.cls-7{stroke-width:0.2px;}.cls-8{fill:#95d4e9;}</style></defs><path class="cls-1" d="M45.79,72.68,70.33,58.51A28.34,28.34,0,0,0,45.79,44.33Z"/><line class="cls-2" x1="70.33" y1="58.51" x2="21.24" y2="86.85"/><line class="cls-2" x1="45.79" y1="44.33" x2="45.79" y2="101.03"/><line class="cls-2" x1="21.24" y1="58.51" x2="70.33" y2="86.85"/><path class="cls-3" d="M76.32,54.7A35.2,35.2,0,0,0,46.08,37.25"/><line class="cls-4" x1="78.36" y1="53.65" x2="74.39" y2="55.94"/><line class="cls-3" x1="45.98" y1="39.54" x2="45.98" y2="34.96"/><text class="cls-5" transform="translate(70.19 27.32)">1</text><line class="cls-6" x1="70.19" y1="33.44" x2="77.22" y2="33.44"/><text class="cls-5" transform="translate(70.19 46.87)">6</text><text class="cls-5" transform="translate(82.4 37.03)">=</text><text class="cls-5" transform="translate(102.02 27.32)">6</text><line class="cls-6" x1="98.5" y1="33.44" x2="112.55" y2="33.44"/><text class="cls-5" transform="translate(98.5 46.87)">36</text><circle class="cls-3" cx="45.79" cy="72.68" r="28.35" transform="translate(-31.37 34.93) rotate(-31.72)"/><line class="cls-3" x1="45.79" y1="72.68" x2="70.33" y2="58.51"/><line class="cls-3" x1="45.79" y1="72.68" x2="59.96" y2="48.13"/><line class="cls-3" x1="45.79" y1="72.68" x2="45.79" y2="44.33"/><line class="cls-3" x1="45.79" y1="72.68" x2="31.61" y2="48.13"/><line class="cls-3" x1="45.79" y1="72.68" x2="21.24" y2="58.51"/><line class="cls-3" x1="45.79" y1="72.68" x2="17.44" y2="72.68"/><line class="cls-3" x1="45.79" y1="72.68" x2="21.24" y2="86.85"/><line class="cls-3" x1="45.79" y1="72.68" x2="31.61" y2="97.23"/><line class="cls-3" x1="45.79" y1="72.68" x2="45.79" y2="101.03"/><line class="cls-3" x1="45.79" y1="72.68" x2="59.96" y2="97.23"/><line class="cls-3" x1="45.79" y1="72.68" x2="70.33" y2="86.85"/><line class="cls-7" x1="45.79" y1="72.68" x2="74.13" y2="72.68"/><line class="cls-7" x1="45.79" y1="72.68" x2="73.7" y2="67.76"/><line class="cls-7" x1="45.79" y1="72.68" x2="72.42" y2="62.98"/><line class="cls-7" x1="45.79" y1="72.68" x2="70.33" y2="58.51"/><line class="cls-7" x1="45.79" y1="72.68" x2="67.5" y2="54.46"/><line class="cls-7" x1="45.79" y1="72.68" x2="64.01" y2="50.97"/><line class="cls-7" x1="45.79" y1="72.68" x2="59.96" y2="48.13"/><line class="cls-7" x1="45.79" y1="72.68" x2="55.48" y2="46.04"/><line class="cls-7" x1="45.79" y1="72.68" x2="50.71" y2="44.76"/><line class="cls-7" x1="45.79" y1="72.68" x2="45.79" y2="44.33"/><line class="cls-7" x1="45.79" y1="72.68" x2="40.86" y2="44.76"/><line class="cls-7" x1="45.79" y1="72.68" x2="36.09" y2="46.04"/><line class="cls-7" x1="45.79" y1="72.68" x2="31.61" y2="48.13"/><line class="cls-7" x1="45.79" y1="72.68" x2="27.56" y2="50.97"/><line class="cls-7" x1="45.79" y1="72.68" x2="24.07" y2="54.46"/><line class="cls-7" x1="45.79" y1="72.68" x2="21.24" y2="58.51"/><line class="cls-7" x1="45.79" y1="72.68" x2="19.15" y2="62.98"/><line class="cls-7" x1="45.79" y1="72.68" x2="17.87" y2="67.76"/><line class="cls-7" x1="45.79" y1="72.68" x2="17.44" y2="72.68"/><line class="cls-7" x1="45.79" y1="72.68" x2="17.87" y2="77.6"/><line class="cls-7" x1="45.79" y1="72.68" x2="19.15" y2="82.38"/><line class="cls-7" x1="45.79" y1="72.68" x2="21.24" y2="86.85"/><line class="cls-7" x1="45.79" y1="72.68" x2="24.07" y2="90.9"/><line class="cls-7" x1="45.79" y1="72.68" x2="27.56" y2="94.39"/><line class="cls-7" x1="45.79" y1="72.68" x2="31.61" y2="97.23"/><line class="cls-7" x1="45.79" y1="72.68" x2="36.09" y2="99.32"/><line class="cls-7" x1="45.79" y1="72.68" x2="40.86" y2="100.6"/><line class="cls-7" x1="45.79" y1="72.68" x2="45.79" y2="101.03"/><line class="cls-7" x1="45.79" y1="72.68" x2="50.71" y2="100.6"/><line class="cls-7" x1="45.79" y1="72.68" x2="55.48" y2="99.32"/><line class="cls-7" x1="45.79" y1="72.68" x2="59.96" y2="97.23"/><line class="cls-7" x1="45.79" y1="72.68" x2="64.01" y2="94.39"/><line class="cls-7" x1="45.79" y1="72.68" x2="67.5" y2="90.9"/><line class="cls-7" x1="45.79" y1="72.68" x2="70.33" y2="86.85"/><line class="cls-7" x1="45.79" y1="72.68" x2="72.42" y2="82.38"/><line class="cls-7" x1="45.79" y1="72.68" x2="73.7" y2="77.6"/><path class="cls-8" d="M163.11,72.68H134.77a28.35,28.35,0,1,0,28.34-28.35Z"/><line class="cls-2" x1="191.46" y1="72.68" x2="134.77" y2="72.68"/><line class="cls-2" x1="163.11" y1="44.33" x2="163.11" y2="101.03"/><path class="cls-3" d="M163.41,37.25A35.43,35.43,0,1,1,127.68,73"/><line class="cls-3" x1="163.31" y1="39.54" x2="163.31" y2="34.96"/><line class="cls-3" x1="125.39" y1="72.88" x2="129.97" y2="72.88"/><text class="cls-5" transform="translate(187.52 27.32)">3</text><line class="cls-6" x1="187.52" y1="33.44" x2="194.54" y2="33.44"/><text class="cls-5" transform="translate(187.52 46.87)">4</text><text class="cls-5" transform="translate(199.72 37.03)">=</text><text class="cls-5" transform="translate(215.83 27.32)">27</text><line class="cls-6" x1="215.83" y1="33.44" x2="229.88" y2="33.44"/><text class="cls-5" transform="translate(215.83 46.87)">36</text><circle class="cls-3" cx="163.11" cy="72.68" r="28.35" transform="translate(-13.85 96.61) rotate(-31.72)"/><line class="cls-3" x1="163.11" y1="72.68" x2="191.46" y2="72.68"/><line class="cls-3" x1="163.11" y1="72.68" x2="187.66" y2="58.51"/><line class="cls-3" x1="163.11" y1="72.68" x2="177.29" y2="48.13"/><line class="cls-3" x1="163.11" y1="72.68" x2="163.11" y2="44.33"/><line class="cls-3" x1="163.11" y1="72.68" x2="148.94" y2="48.13"/><line class="cls-3" x1="163.11" y1="72.68" x2="138.56" y2="58.51"/><line class="cls-3" x1="163.11" y1="72.68" x2="134.77" y2="72.68"/><line class="cls-3" x1="163.11" y1="72.68" x2="138.56" y2="86.85"/><line class="cls-3" x1="163.11" y1="72.68" x2="148.94" y2="97.23"/><line class="cls-3" x1="163.11" y1="72.68" x2="163.11" y2="101.03"/><line class="cls-3" x1="163.11" y1="72.68" x2="177.29" y2="97.23"/><line class="cls-3" x1="163.11" y1="72.68" x2="187.66" y2="86.85"/><line class="cls-7" x1="163.11" y1="72.68" x2="191.46" y2="72.68"/><line class="cls-7" x1="163.11" y1="72.68" x2="191.03" y2="67.76"/><line class="cls-7" x1="163.11" y1="72.68" x2="189.75" y2="62.98"/><line class="cls-7" x1="163.11" y1="72.68" x2="187.66" y2="58.51"/><line class="cls-7" x1="163.11" y1="72.68" x2="184.83" y2="54.46"/><line class="cls-7" x1="163.11" y1="72.68" x2="181.33" y2="50.97"/><line class="cls-7" x1="163.11" y1="72.68" x2="177.29" y2="48.13"/><line class="cls-7" x1="163.11" y1="72.68" x2="172.81" y2="46.04"/><line class="cls-7" x1="163.11" y1="72.68" x2="168.03" y2="44.76"/><line class="cls-7" x1="163.11" y1="72.68" x2="163.11" y2="44.33"/><line class="cls-7" x1="163.11" y1="72.68" x2="158.19" y2="44.76"/><line class="cls-7" x1="163.11" y1="72.68" x2="153.42" y2="46.04"/><line class="cls-7" x1="163.11" y1="72.68" x2="148.94" y2="48.13"/><line class="cls-7" x1="163.11" y1="72.68" x2="144.89" y2="50.97"/><line class="cls-7" x1="163.11" y1="72.68" x2="141.4" y2="54.46"/><line class="cls-7" x1="163.11" y1="72.68" x2="138.56" y2="58.51"/><line class="cls-7" x1="163.11" y1="72.68" x2="136.48" y2="62.98"/><line class="cls-7" x1="163.11" y1="72.68" x2="135.2" y2="67.76"/><line class="cls-7" x1="163.11" y1="72.68" x2="134.77" y2="72.68"/><line class="cls-7" x1="163.11" y1="72.68" x2="135.2" y2="77.6"/><line class="cls-7" x1="163.11" y1="72.68" x2="136.48" y2="82.38"/><line class="cls-7" x1="163.11" y1="72.68" x2="138.56" y2="86.85"/><line class="cls-7" x1="163.11" y1="72.68" x2="141.4" y2="90.9"/><line class="cls-7" x1="163.11" y1="72.68" x2="144.89" y2="94.39"/><line class="cls-7" x1="163.11" y1="72.68" x2="148.94" y2="97.23"/><line class="cls-7" x1="163.11" y1="72.68" x2="153.42" y2="99.32"/><line class="cls-7" x1="163.11" y1="72.68" x2="158.19" y2="100.6"/><line class="cls-7" x1="163.11" y1="72.68" x2="163.11" y2="101.03"/><line class="cls-7" x1="163.11" y1="72.68" x2="168.03" y2="100.6"/><line class="cls-7" x1="163.11" y1="72.68" x2="172.81" y2="99.32"/><line class="cls-7" x1="163.11" y1="72.68" x2="177.29" y2="97.23"/><line class="cls-7" x1="163.11" y1="72.68" x2="181.33" y2="94.39"/><line class="cls-7" x1="163.11" y1="72.68" x2="184.83" y2="90.9"/><line class="cls-7" x1="163.11" y1="72.68" x2="187.66" y2="86.85"/><line class="cls-7" x1="163.11" y1="72.68" x2="189.75" y2="82.38"/><line class="cls-7" x1="163.11" y1="72.68" x2="191.03" y2="77.6"/><path class="cls-8" d="M280.84,72.68H252.49a28.35,28.35,0,1,0,28.35-28.35Z"/><path class="cls-1" d="M280.84,72.68,266.67,48.13a28.35,28.35,0,0,0-14.18,24.55Z"/><line class="cls-2" x1="309.19" y1="72.68" x2="252.49" y2="72.68"/><line class="cls-2" x1="280.84" y1="44.33" x2="280.84" y2="101.03"/><path class="cls-3" d="M281.14,37.25A35.43,35.43,0,1,1,245.41,73"/><line class="cls-3" x1="281.04" y1="39.54" x2="281.04" y2="34.96"/><line class="cls-3" x1="243.11" y1="72.88" x2="247.7" y2="72.88"/><path class="cls-3" d="M262.86,42.14a35.2,35.2,0,0,0-17.45,30.24"/><line class="cls-4" x1="261.8" y1="40.11" x2="264.1" y2="44.08"/><line class="cls-3" x1="247.7" y1="72.48" x2="243.11" y2="72.48"/><text class="cls-5" transform="translate(309.64 27.32)">6</text><line class="cls-6" x1="306.13" y1="33.44" x2="320.17" y2="33.44"/><text class="cls-5" transform="translate(306.13 46.87)">36</text><text class="cls-5" transform="translate(324.56 37.03)">+</text><text class="cls-5" transform="translate(339.87 27.32)">27</text><line class="cls-6" x1="339.87" y1="33.44" x2="353.91" y2="33.44"/><text class="cls-5" transform="translate(339.87 46.87)">36</text><text class="cls-5" transform="translate(359.09 37.03)">=</text><text class="cls-5" transform="translate(375.2 27.32)">33</text><line class="cls-6" x1="375.2" y1="33.44" x2="389.25" y2="33.44"/><text class="cls-5" transform="translate(375.2 46.87)">36</text><circle class="cls-3" cx="280.84" cy="72.68" r="28.35" transform="translate(-9.19 66.47) rotate(-13.28)"/><line class="cls-2" x1="280.84" y1="72.68" x2="266.67" y2="48.13"/><line class="cls-3" x1="280.84" y1="72.68" x2="309.19" y2="72.68"/><line class="cls-3" x1="280.84" y1="72.68" x2="305.39" y2="58.51"/><line class="cls-3" x1="280.84" y1="72.68" x2="295.01" y2="48.13"/><line class="cls-3" x1="280.84" y1="72.68" x2="280.84" y2="44.33"/><line class="cls-3" x1="280.84" y1="72.68" x2="266.67" y2="48.13"/><line class="cls-3" x1="280.84" y1="72.68" x2="256.29" y2="58.51"/><line class="cls-3" x1="280.84" y1="72.68" x2="252.49" y2="72.68"/><line class="cls-3" x1="280.84" y1="72.68" x2="256.29" y2="86.85"/><line class="cls-3" x1="280.84" y1="72.68" x2="266.67" y2="97.23"/><line class="cls-3" x1="280.84" y1="72.68" x2="280.84" y2="101.03"/><line class="cls-3" x1="280.84" y1="72.68" x2="295.01" y2="97.23"/><line class="cls-3" x1="280.84" y1="72.68" x2="305.39" y2="86.85"/><line class="cls-7" x1="280.84" y1="72.68" x2="309.19" y2="72.68"/><line class="cls-7" x1="280.84" y1="72.68" x2="308.75" y2="67.76"/><line class="cls-7" x1="280.84" y1="72.68" x2="307.48" y2="62.98"/><line class="cls-7" x1="280.84" y1="72.68" x2="305.39" y2="58.51"/><line class="cls-7" x1="280.84" y1="72.68" x2="302.55" y2="54.46"/><line class="cls-7" x1="280.84" y1="72.68" x2="299.06" y2="50.97"/><line class="cls-7" x1="280.84" y1="72.68" x2="295.01" y2="48.13"/><line class="cls-7" x1="280.84" y1="72.68" x2="290.53" y2="46.04"/><line class="cls-7" x1="280.84" y1="72.68" x2="285.76" y2="44.76"/><line class="cls-7" x1="280.84" y1="72.68" x2="280.84" y2="44.33"/><line class="cls-7" x1="280.84" y1="72.68" x2="275.92" y2="44.76"/><line class="cls-7" x1="280.84" y1="72.68" x2="271.14" y2="46.04"/><line class="cls-7" x1="280.84" y1="72.68" x2="266.67" y2="48.13"/><line class="cls-7" x1="280.84" y1="72.68" x2="262.62" y2="50.97"/><line class="cls-7" x1="280.84" y1="72.68" x2="259.12" y2="54.46"/><line class="cls-7" x1="280.84" y1="72.68" x2="256.29" y2="58.51"/><line class="cls-7" x1="280.84" y1="72.68" x2="254.2" y2="62.98"/><line class="cls-7" x1="280.84" y1="72.68" x2="252.92" y2="67.76"/><line class="cls-7" x1="280.84" y1="72.68" x2="252.49" y2="72.68"/><line class="cls-7" x1="280.84" y1="72.68" x2="252.92" y2="77.6"/><line class="cls-7" x1="280.84" y1="72.68" x2="254.2" y2="82.38"/><line class="cls-7" x1="280.84" y1="72.68" x2="256.29" y2="86.85"/><line class="cls-7" x1="280.84" y1="72.68" x2="259.12" y2="90.9"/><line class="cls-7" x1="280.84" y1="72.68" x2="262.62" y2="94.39"/><line class="cls-7" x1="280.84" y1="72.68" x2="266.67" y2="97.23"/><line class="cls-7" x1="280.84" y1="72.68" x2="271.14" y2="99.32"/><line class="cls-7" x1="280.84" y1="72.68" x2="275.92" y2="100.6"/><line class="cls-7" x1="280.84" y1="72.68" x2="280.84" y2="101.03"/><line class="cls-7" x1="280.84" y1="72.68" x2="285.76" y2="100.6"/><line class="cls-7" x1="280.84" y1="72.68" x2="290.53" y2="99.32"/><line class="cls-7" x1="280.84" y1="72.68" x2="295.01" y2="97.23"/><line class="cls-7" x1="280.84" y1="72.68" x2="299.06" y2="94.39"/><line class="cls-7" x1="280.84" y1="72.68" x2="302.55" y2="90.9"/><line class="cls-7" x1="280.84" y1="72.68" x2="305.39" y2="86.85"/><line class="cls-7" x1="280.84" y1="72.68" x2="307.48" y2="82.38"/><line class="cls-7" x1="280.84" y1="72.68" x2="308.75" y2="77.6"/></svg>