<svg id="Camada_1" data-name="Camada 1" xmlns="http://www.w3.org/2000/svg" viewBox="0 0 148.6 74.94"><defs><style>.cls-1,.cls-3{font-size:14.35px;}.cls-1{font-family:CMR12;}.cls-2{fill:none;stroke:#000;stroke-miterlimit:10;stroke-width:0.57px;}.cls-3{font-family:CMMI12;}</style></defs><text class="cls-1" transform="translate(15.27 33)">5</text><line class="cls-2" x1="15.27" y1="39.12" x2="22.3" y2="39.12"/><text class="cls-1" transform="translate(15.27 52.55)">4</text><text class="cls-1" transform="translate(26.68 42.7)">+</text><path d="M56.89,32.28c0,.66-.07.72-.75.72H43.89c-.68,0-.74-.08-.74-.74V19.53c0-.66.08-.72.72-.72H56.16c.66,0,.73.08.73.72ZM44,32.17H56.06V19.63H44Z"/><line class="cls-2" x1="41.99" y1="39.12" x2="58.06" y2="39.12"/><path d="M56.89,54.35c0,.66-.07.72-.75.72H43.89c-.68,0-.74-.08-.74-.74V41.6c0-.66.08-.72.72-.72H56.16c.66,0,.73.08.73.72ZM44,54.25H56.06V41.71H44Z"/><text class="cls-1" transform="translate(62.45 42.7)">+</text><path d="M92.65,32.28c0,.66-.06.72-.74.72H79.66c-.69,0-.75-.08-.75-.74V19.53c0-.66.08-.72.72-.72h12.3c.66,0,.72.08.72.72Zm-12.91-.11H91.82V19.63H79.74Z"/><line class="cls-2" x1="77.75" y1="39.12" x2="93.83" y2="39.12"/><path d="M92.65,54.35c0,.66-.06.72-.74.72H79.66c-.69,0-.75-.08-.75-.74V41.6c0-.66.08-.72.72-.72h12.3c.66,0,.72.08.72.72Zm-12.91-.1H91.82V41.71H79.74Z"/><text class="cls-1" transform="translate(99 42.7)">=</text><text class="cls-1" transform="translate(115.11 33)">11</text><line class="cls-2" x1="115.11" y1="39.12" x2="129.16" y2="39.12"/><text class="cls-1" transform="translate(118.62 52.55)">6</text><text class="cls-3" transform="translate(130.35 42.7)">.</text></svg>