<svg id="Camada_1" data-name="Camada 1" xmlns="http://www.w3.org/2000/svg" viewBox="0 0 75.13 89.14"><defs><style>.cls-1{fill:#95d4e9;opacity:0.3;}.cls-2,.cls-5{fill:none;stroke:#000;stroke-miterlimit:10;}.cls-2{stroke-width:0.4px;}.cls-3{fill:#e6164d;}.cls-4{font-size:9.96px;font-family:CMR10;}.cls-5{stroke-width:0.57px;}</style></defs><circle class="cls-1" cx="35.79" cy="33.4" r="28.35" transform="translate(-7.37 10.3) rotate(-14.87)"/><circle class="cls-2" cx="35.79" cy="33.4" r="28.35" transform="translate(-7.37 10.3) rotate(-14.87)"/><path class="cls-3" d="M35.79,33.4V61.75A28.34,28.34,0,0,0,60.34,19.23Z"/><path class="cls-2" d="M35.79,33.4V61.75A28.34,28.34,0,0,0,60.34,19.23Z"/><line class="cls-2" x1="35.79" y1="33.4" x2="35.79" y2="61.75"/><line class="cls-2" x1="35.79" y1="33.4" x2="60.34" y2="19.23"/><line class="cls-2" x1="35.79" y1="33.4" x2="11.24" y2="19.23"/><text class="cls-4" transform="translate(8.21 71)">1</text><line class="cls-5" x1="8.21" y1="73.06" x2="13.19" y2="73.06"/><text class="cls-4" transform="translate(8.21 81.6)">3</text><path d="M20.49,76.81a2.87,2.87,0,0,1-1.62-.46,3.07,3.07,0,0,1-1.13-1.26,4.45,4.45,0,0,1,0-3.73,3,3,0,0,1,2.78-1.71A2.93,2.93,0,0,1,22,70a2.5,2.5,0,0,1,1,1V67s0-.06.11-.08a.93.93,0,0,1,.25,0c.45,0,.68.31.68.92V76.2c0,.33-.16.49-.46.49h-.1a.4.4,0,0,1-.45-.46c0-.19,0-.49,0-.89a3,3,0,0,1-1,1.08,2.79,2.79,0,0,1-1.5.39ZM23,72.16A2.55,2.55,0,0,0,22.11,71a2.35,2.35,0,0,0-1.42-.43,2.11,2.11,0,0,0-1.68.75,2.89,2.89,0,0,0-.65,2,3.21,3.21,0,0,0,.3,1.41,2.27,2.27,0,0,0,.82,1,2.15,2.15,0,0,0,1.19.34,2.47,2.47,0,0,0,1.17-.29,2.23,2.23,0,0,0,.83-.81A2.12,2.12,0,0,0,23,73.69Zm2.44,2.72a1.77,1.77,0,0,1,1.13-1.68,9,9,0,0,1,3.56-.57h.16v-.29A1.79,1.79,0,0,0,29.79,71a1.89,1.89,0,0,0-1.37-.46,2.39,2.39,0,0,0-1.3.33,2.07,2.07,0,0,0-.79.89.57.57,0,0,1-.2,0,.73.73,0,0,1-.3-.16.45.45,0,0,1-.14-.35.85.85,0,0,1,.11-.37,1.4,1.4,0,0,1,.31-.39,2.75,2.75,0,0,1,1-.59,3.72,3.72,0,0,1,1.39-.23,2.84,2.84,0,0,1,2.08.72,2.64,2.64,0,0,1,.73,2v4.23s0,0-.12.07a.74.74,0,0,1-.25,0c-.36,0-.56-.22-.61-.66,0-.27,0-.48,0-.64a2.48,2.48,0,0,1-1,1,3.08,3.08,0,0,1-1.52.37,2.59,2.59,0,0,1-1.7-.51,1.72,1.72,0,0,1-.63-1.4Zm4.85-1.57H30a8,8,0,0,0-2.74.4,1.2,1.2,0,0,0-.84,1.14,1,1,0,0,0,.41.84A1.7,1.7,0,0,0,28,76a2.41,2.41,0,0,0,1.17-.28A2.07,2.07,0,0,0,30,75a1.82,1.82,0,0,0,.31-1Zm7.58,3.5a1.8,1.8,0,0,1-1.42-.53A2.44,2.44,0,0,1,36,74.65v-4h-.68c-.29,0-.44-.13-.44-.39v-.1c0-.26.15-.38.44-.38H36V68.6c0-.33.15-.5.46-.5h.11c.3,0,.44.17.44.5v1.21h1.74c.3,0,.45.12.45.38v.09c0,.27-.16.4-.46.4H37V74.5a1.91,1.91,0,0,0,.24,1.09.9.9,0,0,0,.78.34,1.17,1.17,0,0,0,1-.53s.05,0,.1,0a.43.43,0,0,1,.13.16.59.59,0,0,1,0,.27.7.7,0,0,1-.25.53,1.69,1.69,0,0,1-1.19.41ZM40,73.22a3.72,3.72,0,0,1,.45-1.84,3.13,3.13,0,0,1,1.23-1.27,3.51,3.51,0,0,1,1.81-.46,3.4,3.4,0,0,1,1.78.46,3.16,3.16,0,0,1,1.23,1.28A3.82,3.82,0,0,1,47,73.25a3.7,3.7,0,0,1-.45,1.83,3.34,3.34,0,0,1-1.23,1.27,3.75,3.75,0,0,1-3.6,0,3.16,3.16,0,0,1-1.23-1.28A3.86,3.86,0,0,1,40,73.22Zm5.94,0a3.06,3.06,0,0,0-.31-1.4,2.46,2.46,0,0,0-.88-1,2.34,2.34,0,0,0-1.26-.35,2.4,2.4,0,0,0-1.27.35,2.36,2.36,0,0,0-.89,1,3.18,3.18,0,0,0,0,2.78,2.38,2.38,0,0,0,2.16,1.32,2.33,2.33,0,0,0,1.26-.34,2.4,2.4,0,0,0,.88-1A2.92,2.92,0,0,0,46,73.25Zm5.21-3.6a1.22,1.22,0,0,1,.74.21.68.68,0,0,1,.21.85.42.42,0,0,1-.15.19c-.06,0-.09.06-.1,0a1.1,1.1,0,0,0-.82-.28,1.32,1.32,0,0,0-1.22.74,4.29,4.29,0,0,0-.41,2.08V76.2c0,.33-.15.49-.45.49h-.11c-.32,0-.47-.16-.47-.49V69.86s0,0,.11-.07a.71.71,0,0,1,.26,0q.53,0,.6.69c0,.32,0,.57,0,.74A2.1,2.1,0,0,1,50,70a1.68,1.68,0,0,1,1.12-.39Zm4.5,7.16a1.79,1.79,0,0,1-1.41-.53,2.44,2.44,0,0,1-.47-1.63v-4h-.67c-.3,0-.44-.13-.44-.39v-.1c0-.26.14-.38.44-.38h.67V68.6c0-.33.16-.5.46-.5h.12c.29,0,.44.17.44.5v1.21h1.74c.3,0,.44.12.44.38v.09c0,.27-.15.4-.46.4H54.79V74.5A1.91,1.91,0,0,0,55,75.59a.89.89,0,0,0,.78.34,1.17,1.17,0,0,0,1-.53s.05,0,.1,0a.56.56,0,0,1,.13.16.76.76,0,0,1,0,.27.68.68,0,0,1-.26.53,1.65,1.65,0,0,1-1.19.41Zm2.17-1.93A1.77,1.77,0,0,1,59,73.2a9,9,0,0,1,3.56-.57h.16v-.29A1.79,1.79,0,0,0,62.2,71a1.89,1.89,0,0,0-1.37-.46,2.39,2.39,0,0,0-1.3.33,2.15,2.15,0,0,0-.8.89.52.52,0,0,1-.19,0,.73.73,0,0,1-.3-.16.45.45,0,0,1-.14-.35.85.85,0,0,1,.11-.37,1.24,1.24,0,0,1,.31-.39,2.8,2.8,0,0,1,1-.59,3.81,3.81,0,0,1,1.4-.23,2.86,2.86,0,0,1,2.08.72,2.67,2.67,0,0,1,.73,2v4.23s0,0-.12.07a.8.8,0,0,1-.26,0q-.52,0-.6-.66c0-.27,0-.48,0-.64a2.48,2.48,0,0,1-1,1,3,3,0,0,1-1.52.37,2.63,2.63,0,0,1-1.7-.51,1.74,1.74,0,0,1-.62-1.4Zm4.85-1.57h-.24a8,8,0,0,0-2.74.4,1.2,1.2,0,0,0-.84,1.14,1,1,0,0,0,.4.84,1.74,1.74,0,0,0,1.09.32,2.42,2.42,0,0,0,1.18-.28,2.14,2.14,0,0,0,.84-.73,1.82,1.82,0,0,0,.31-1Z"/></svg>