<svg id="Camada_1" data-name="Camada 1" xmlns="http://www.w3.org/2000/svg" viewBox="0 0 94.04 33.06"><defs><style>.cls-1{fill:#95d4e9;opacity:0.3;}.cls-2{fill:none;stroke:#000;stroke-miterlimit:10;stroke-width:0.4px;}</style></defs><polygon class="cls-1" points="32.98 9.16 20.21 1.79 7.45 9.16 7.45 23.9 20.21 31.27 32.98 23.9 45.74 31.27 58.51 23.9 71.28 31.27 84.04 23.9 84.04 9.16 71.28 1.79 58.51 9.16 45.74 1.79 32.98 9.16"/><polygon class="cls-2" points="32.98 9.16 20.21 1.79 7.45 9.16 7.45 23.9 20.21 31.27 32.98 23.9 45.74 31.27 58.51 23.9 71.28 31.27 84.04 23.9 84.04 9.16 71.28 1.79 58.51 9.16 45.74 1.79 32.98 9.16"/></svg>