<svg id="Camada_1" data-name="Camada 1" xmlns="http://www.w3.org/2000/svg" viewBox="0 0 290.2 112.49"><defs><style>.cls-1{fill:#95d4e9;opacity:0.3;}.cls-2{fill:none;stroke:#000;stroke-miterlimit:10;stroke-width:0.4px;}</style></defs><rect class="cls-1" x="49.43" y="32.33" width="191.34" height="47.83"/><rect class="cls-2" x="49.43" y="32.33" width="191.34" height="47.83"/><line class="cls-2" x1="49.43" y1="56.24" x2="240.77" y2="56.24"/><line class="cls-2" x1="208.88" y1="53.25" x2="208.88" y2="59.23"/><path d="M209.23,73.61c-.29,0-.44-.17-.44-.5V65.85a1.19,1.19,0,0,1-.45.38,1.32,1.32,0,0,1-.6.13,1.18,1.18,0,0,1-.82-.28.76.76,0,0,1-.23-.55.64.64,0,0,1,.07-.28.54.54,0,0,1,.14-.2C207,65,207,65,207,65a1,1,0,0,0,.82.34,1.12,1.12,0,0,0,.79-.32,1.16,1.16,0,0,0,.37-.8h.39c.31,0,.47.17.47.51v8.39c0,.33-.16.5-.47.5Z"/><path d="M54.19,69a3.55,3.55,0,0,1-1.94-.53A3.42,3.42,0,0,1,51,67a5.41,5.41,0,0,1-.44-2.29v-1a5.46,5.46,0,0,1,.44-2.3,3.35,3.35,0,0,1,1.28-1.51,3.94,3.94,0,0,1,3.91,0,3.37,3.37,0,0,1,1.28,1.5,5.46,5.46,0,0,1,.44,2.3v.93a5.46,5.46,0,0,1-.45,2.3,3.41,3.41,0,0,1-1.28,1.51,3.55,3.55,0,0,1-2,.54Zm0-.92a2.27,2.27,0,0,0,1.91-.89,4,4,0,0,0,.68-2.5v-1a4.09,4.09,0,0,0-.68-2.51,2.26,2.26,0,0,0-1.91-.91,2.23,2.23,0,0,0-1.9.9,4,4,0,0,0-.68,2.49v1a4,4,0,0,0,.68,2.49,2.24,2.24,0,0,0,1.9.91Z"/></svg>