<svg id="Camada_1" data-name="Camada 1" xmlns="http://www.w3.org/2000/svg" viewBox="0 0 273.99 102.94"><defs><style>.cls-1,.cls-2,.cls-5{fill:none;stroke:#000;}.cls-1,.cls-5{stroke-miterlimit:10;}.cls-1{stroke-width:0.4px;}.cls-2{stroke-linecap:round;stroke-linejoin:round;stroke-width:0.4px;}.cls-3{fill:#e6164d;}.cls-4{font-size:9.96px;font-family:CMR10;}.cls-5{stroke-width:0.57px;}.cls-6{font-size:14.35px;font-family:CMR12;}</style></defs><line class="cls-1" x1="41.2" y1="82.78" x2="232.61" y2="13.11"/><path class="cls-2" d="M230,11.5A3.16,3.16,0,0,0,232.8,13a3.13,3.13,0,0,0-1.13,3"/><line class="cls-1" x1="64.15" y1="71.24" x2="66.19" y2="76.86"/><path d="M66.17,91.44a3.52,3.52,0,0,1-1.94-.53A3.35,3.35,0,0,1,63,89.41a5.41,5.41,0,0,1-.45-2.29v-1a5.46,5.46,0,0,1,.45-2.3,3.33,3.33,0,0,1,1.27-1.51,4,4,0,0,1,3.92,0,3.44,3.44,0,0,1,1.28,1.5,5.62,5.62,0,0,1,.44,2.3v.93a5.46,5.46,0,0,1-.45,2.3,3.49,3.49,0,0,1-1.28,1.52,3.63,3.63,0,0,1-2,.53Zm0-.92a2.29,2.29,0,0,0,1.92-.89,4.06,4.06,0,0,0,.68-2.5v-1a4,4,0,0,0-.69-2.51,2.46,2.46,0,0,0-3.81,0,4.07,4.07,0,0,0-.68,2.49v1a4,4,0,0,0,.69,2.49,2.23,2.23,0,0,0,1.89.91Z"/><line class="cls-1" x1="112.09" y1="53.79" x2="114.14" y2="59.41"/><path d="M114.49,73.78c-.3,0-.44-.16-.44-.5V66a1.18,1.18,0,0,1-.45.38,1.33,1.33,0,0,1-.6.14,1.17,1.17,0,0,1-.82-.29.74.74,0,0,1-.23-.54.57.57,0,0,1,.07-.29.64.64,0,0,1,.14-.2s.09-.07.11-.06a1,1,0,0,0,.81.35,1.09,1.09,0,0,0,.8-.33,1.13,1.13,0,0,0,.37-.79h.38c.32,0,.48.16.48.5v8.39c0,.34-.16.5-.48.5Z"/><line class="cls-1" x1="160.04" y1="36.34" x2="162.09" y2="41.96"/><path d="M159.68,56.39a.85.85,0,0,1-.54-.14.62.62,0,0,1-.17-.48v-.35a3,3,0,0,1,.39-1.58,3.47,3.47,0,0,1,1-1.07,11.38,11.38,0,0,1,1.47-.88c.62-.32,1.06-.56,1.33-.74a2.85,2.85,0,0,0,.71-.63,1.44,1.44,0,0,0,.3-.91,1.57,1.57,0,0,0-.54-1.25,2.6,2.6,0,0,0-3.09.06,2.75,2.75,0,0,0-.8,1.37s-.07,0-.19,0a.75.75,0,0,1-.36-.17.48.48,0,0,1-.17-.39,1.67,1.67,0,0,1,.2-.69,2.39,2.39,0,0,1,.53-.72,3.46,3.46,0,0,1,1.05-.65,3.62,3.62,0,0,1,1.39-.25,3.23,3.23,0,0,1,2.23.72,2.48,2.48,0,0,1,.81,2,2.27,2.27,0,0,1-.34,1.27,2.84,2.84,0,0,1-.88.88,14,14,0,0,1-1.44.8,12.8,12.8,0,0,0-1.3.72,3,3,0,0,0-.84.79,2,2,0,0,0-.38,1.07l0,.29h4.86c.34,0,.52.14.52.43V56c0,.29-.18.44-.52.44Z"/><path class="cls-3" d="M139.9,46.85a3,3,0,1,0-1.79,3.83A3,3,0,0,0,139.9,46.85Z"/><path class="cls-3" d="M179.85,32.31a3,3,0,1,0-1.78,3.83A3,3,0,0,0,179.85,32.31Z"/><path class="cls-3" d="M211.82,20.67A3,3,0,1,0,210,24.5,3,3,0,0,0,211.82,20.67Z"/><text class="cls-4" transform="translate(135.62 62.08)">3</text><line class="cls-5" x1="135.62" y1="64.14" x2="140.6" y2="64.14"/><text class="cls-4" transform="translate(135.62 72.68)">2</text><text class="cls-4" transform="translate(175.58 47.54)">7</text><line class="cls-5" x1="175.58" y1="49.6" x2="180.56" y2="49.6"/><text class="cls-4" transform="translate(175.58 58.13)">3</text><text class="cls-6" transform="translate(206.52 38.73)">3</text></svg>