<?xml version="1.0" encoding="utf-8"?>
<!-- Generator: Adobe Illustrator 16.0.0, SVG Export Plug-In . SVG Version: 6.00 Build 0)  -->
<!DOCTYPE svg PUBLIC "-//W3C//DTD SVG 1.1//EN" "http://www.w3.org/Graphics/SVG/1.1/DTD/svg11.dtd">
<svg version="1.1" id="Layer_1" xmlns="http://www.w3.org/2000/svg" xmlns:xlink="http://www.w3.org/1999/xlink" x="0px" y="0px"
	 width="566.93px" height="170.079px" viewBox="0 0 566.93 170.079" enable-background="new 0 0 566.93 170.079"
	 xml:space="preserve">
<g>
	<path fill="#A87C4F" stroke="#231F20" stroke-width="1.5" stroke-miterlimit="10" d="M74.985,81.056c0,0,12.956,19.5,12.796,20.556
		c-0.158,1.03,0.354,4.418,0.75,6.893c0.63,3.977,2.795,5.271,3.762,4.33c1.113-1.086-0.688-7.256-0.688-7.256
		s1.791,4.727,2.746,5.774c0.998,1.103,3.007,0.726,3.354-0.929c0.64-3.014-2.502-4.381-4.124-6.424c0,0,4.563,5.002,5.746,4.869
		c1.717-0.193,1.871-1.182,0.982-2.668c-0.808-1.367-3.254-2.428-4.353-3.391c-1.098-0.959-1.063-1.631-0.016-1.766
		c1.053-0.135,3.26-0.338,3.865-0.58c0.607-0.24,0.709-1.66-0.621-2.393c-0.958-0.521-8.651,0.979-8.651,0.979L80.93,78.75
		L74.985,81.056z"/>
	
		<polygon fill="#D1313D" stroke="#231F20" stroke-width="1.5" stroke-linecap="round" stroke-linejoin="round" stroke-miterlimit="10" points="
		85.865,82.513 73.464,86.584 70.619,77.625 76.287,67.703 	"/>
	<path fill="#603813" d="M53.447,48.003c0,0.104-5.223,4.445-5.223,4.445l-9.944,4.697c0,0,7.037,14.123,14.896,9.645
		c2.548-1.449,3.396-17.535,3.396-17.535"/>
	<path fill="#A87C4F" d="M62.856,57.855c5.245,8.223,26.854,15.537,34.649-0.967c0.733-1.551,4.445-2.478,4.851-3.979
		c0.782-2.934-2.867-3.252-2.867-6.068c0-5.637-1.983-13.254-3.844-16.771c-3.667-6.949-16.107-6.828-21.298-5.087
		c-3.729,1.257-10.006,12.171-10.006,12.171s-5.104-5.033-9.408-0.772c-4.272,4.229-1.41,9.178,2.689,10.221
		c2.548,0.646,4.382-1.172,4.382-1.172S59.698,52.908,62.856,57.855z"/>
	<path fill="#603813" d="M57.687,33.57c0,0,2.626-8.83,8.172-14.039c2.677-2.514,10.414-4.469,14.071-4.178
		c2.132,0.17,6.402,1.334,8.155,2.559c3.075,2.146,11.431,7.711,10.001,11.18c-1.578,3.832-16.008,2.959-16.008,2.959
		s-4.313-6.465-6.865-6.309c-3.939,0.238-10.74,6.816-10.74,10.756"/>
	<path fill="none" stroke="#231F20" stroke-width="1.5" stroke-linecap="round" stroke-linejoin="round" stroke-miterlimit="10" d="
		M100.026,47.212c0.422-6.943-2.021-13.014-4.38-17.147"/>
	<path fill="none" stroke="#231F20" stroke-width="1.5" stroke-linecap="round" stroke-linejoin="round" stroke-miterlimit="10" d="
		M62.856,57.855c4.25,8.775,27.183,15.064,34.981-1.439"/>
	<path fill="none" stroke="#231F20" stroke-width="2" stroke-linecap="round" stroke-linejoin="round" stroke-miterlimit="10" d="
		M63.99,127.014"/>
	
		<path fill="#8EB2C5" stroke="#231F20" stroke-width="1.5" stroke-linecap="round" stroke-linejoin="round" stroke-miterlimit="10" d="
		M87.964,100.489l2.018,31.73c0,0-7.191,1.494-14.323,1.494c-3.438,0-13.738-0.176-13.738-0.176l2.085-34.043"/>
	<path fill="#231F20" d="M86.476,37.917c0.87,0.082,1.441,1.498,1.278,3.156c-0.162,1.662-0.999,2.938-1.867,2.854
		c-0.869-0.088-1.438-1.504-1.274-3.164C84.772,39.107,85.61,37.83,86.476,37.917z"/>
	<path fill="#231F20" d="M95.728,36.376c0.868,0.08,1.439,1.496,1.277,3.154c-0.163,1.664-1,2.938-1.868,2.856
		c-0.87-0.088-1.438-1.502-1.275-3.164C94.023,37.564,94.86,36.289,95.728,36.376z"/>
	<path fill="none" stroke="#231F20" stroke-width="2" stroke-linecap="round" stroke-linejoin="round" stroke-miterlimit="10" d="
		M86.011,17.912C94.597,20.531,99.4,31.433,99.489,32.05"/>
	<path fill="none" stroke="#231F20" stroke-width="2" stroke-linecap="round" stroke-linejoin="round" stroke-miterlimit="10" d="
		M86.011,17.912C94.597,20.531,99.4,31.433,99.489,32.05"/>
	<path fill="none" stroke="#231F20" stroke-width="2" stroke-linecap="round" stroke-linejoin="round" stroke-miterlimit="10" d="
		M79.93,17.912c8.587,2.619,13.392,13.521,13.479,14.139"/>
	<path fill="none" stroke="#231F20" stroke-width="2" stroke-linecap="round" stroke-linejoin="round" stroke-miterlimit="10" d="
		M77.651,20.765c6.674,3.853,10.357,12.269,10.438,12.806"/>
	<path fill="none" stroke="#231F20" stroke-width="2" stroke-linecap="round" stroke-linejoin="round" stroke-miterlimit="10" d="
		M74.347,23.087c5.877,4.105,9.104,11.5,9.178,12.004"/>
	<path fill="none" stroke="#231F20" stroke-width="2" stroke-linecap="round" stroke-linejoin="round" stroke-miterlimit="10" d="
		M72.534,25.916c-7.612,5.674-8.192,11.232-8.192,11.232s-2.51-3-5.354-2.688c-2.843,0.309-4.824,1.688-5.697,5.438
		c-0.88,3.776,3.483,7.059,6.563,6.655c1.964-0.254,2.151-1.137,2.151-1.137s-2.104,3.102-0.606,9.865"/>
	<path fill="none" stroke="#231F20" stroke-width="1.5" stroke-linecap="round" stroke-linejoin="round" stroke-miterlimit="10" d="
		M56.573,40.648c0,0,3.16-4.438,6.098-0.834"/>
	<path fill="none" stroke="#231F20" stroke-width="1.5" stroke-linecap="round" stroke-linejoin="round" stroke-miterlimit="10" d="
		M59.698,41.757c-1.083-1.531-0.777-3.08-0.777-3.08"/>
	<path fill="none" stroke="#231F20" stroke-width="2" stroke-linecap="round" stroke-linejoin="round" stroke-miterlimit="10" d="
		M77.651,17.429C65.904,20.765,61.212,32.05,61.212,32.05"/>
	<path fill="none" stroke="#231F20" stroke-width="2" stroke-linecap="round" stroke-linejoin="round" stroke-miterlimit="10" d="
		M82.867,15.707c-12.592-2.063-22.236,5.059-25.184,16.932"/>
	<path fill="none" stroke="#231F20" stroke-width="2" stroke-linecap="round" stroke-linejoin="round" stroke-miterlimit="10" d="
		M54.412,46.839c-5.495,6.473-11.991,9.205-17.2,10.31"/>
	<path fill="none" stroke="#231F20" stroke-width="2" stroke-linecap="round" stroke-linejoin="round" stroke-miterlimit="10" d="
		M53.232,48.525c-3.31,7.789-8.627,12.297-13.203,14.869"/>
	<path fill="none" stroke="#231F20" stroke-width="2" stroke-linecap="round" stroke-linejoin="round" stroke-miterlimit="10" d="
		M55.504,48.126c-1.104,9.764-5.489,16.504-9.69,20.842"/>
	<path fill="#231F20" d="M58.789,49.027c-0.416,0.783-1.609,0.961-2.671,0.396l-2.674-1.42c-1.063-0.564-1.583-1.652-1.167-2.438
		l0,0c0.415-0.779,1.607-0.96,2.671-0.396l2.673,1.422C58.684,47.156,59.205,48.248,58.789,49.027L58.789,49.027z"/>
	<path fill="none" stroke="#231F20" stroke-width="1.5" stroke-linecap="round" stroke-linejoin="round" stroke-miterlimit="10" d="
		M94.083,44.001c15.317,8.219,6.665,13.148-1.581,10.619"/>
	<polyline fill="#FFFFFF" points="62.005,100.523 61.066,114.133 64.735,113.545 64.425,101.456 61.917,100.245 	"/>
	<path fill="#A87C4F" stroke="#231F20" stroke-width="1.5" stroke-miterlimit="10" d="M53.546,83.634c0,0,4.165,22.105,3.35,22.978
		c-0.797,0.854-2.375,4.209-3.509,6.676c-1.824,3.959-0.45,6.324,1.103,6.01c1.792-0.373,3.8-6.977,3.8-6.977
		s-1.124,5.282-0.813,6.77c0.322,1.547,2.573,2.314,3.943,1.004c0.804-0.768-0.171-8.107-0.171-8.107s1.491,7.063,2.761,7.594
		c1.847,0.77,2.609-0.043,2.646-1.883c0.03-1.689-1.771-3.996-2.28-5.48c-0.506-1.479-0.063-2.063,1.079-1.605
		c1.141,0.457,3.48,1.487,4.241,1.604c0.762,0.117,1.742-1.117,0.854-2.512c-0.64-1.008-9.299-3.886-9.299-3.886l0.542-19.756
		L53.546,83.634z"/>
	<path fill="none" stroke="#231F20" stroke-width="2" stroke-linecap="round" stroke-linejoin="round" stroke-miterlimit="10" d="
		M56.573,49.255c1.201,8.406-2.477,15.082-5.104,19.713"/>
	<path fill="#231F20" d="M75.429,55.199c1.241-0.816,4.168,3.313,7.002,2.639c2.833-0.674,5.865-2.211,7.523-0.688
		c1.528,1.399,0.971,3.584-1.139,4.741C78.93,67.314,72.605,57.052,75.429,55.199z"/>
	
		<path fill="#D1313D" stroke="#231F20" stroke-width="1.5" stroke-linecap="round" stroke-linejoin="round" stroke-miterlimit="10" d="
		M61.401,106.801c0,0,6.235,4.548,13.937,4.867c8.02,0.332,15.296-2.701,15.296-2.701s-6.05-37.914-13.771-40.937L65.455,63.2
		l-14.57,22.496l10.503,2.895l5.826-18.241L62.15,87.833L61.401,106.801z"/>
	<path fill="none" stroke="#231F20" stroke-width="2" stroke-linecap="round" stroke-linejoin="round" stroke-miterlimit="10" d="
		M114.364,92.461"/>
	<path fill="none" stroke="#231F20" stroke-width="1.4" stroke-linecap="round" stroke-linejoin="round" stroke-miterlimit="10" d="
		M86.704,34.212c-2.166-0.063-5.271,1.486-5.745,3.912"/>
	<path fill="none" stroke="#231F20" stroke-width="1.4" stroke-linecap="round" stroke-linejoin="round" stroke-miterlimit="10" d="
		M97.495,31.898c-1.271-0.035-2.87,0.486-4.067,1.414"/>
	<g>
		<path fill="#DD9F5B" d="M109.777,72.398c0.974,1.596,2.237,3.248,5.443,5.115c5.146,2.998,19.494-0.176,22.24-9.705
			c1.78-6.178-0.061-15.236-6.163-20.891c-8.647-8.019-20.691-0.839-23.203,4.514C107.656,52.365,102.091,59.808,109.777,72.398z"/>
		
			<path fill="none" stroke="#231F20" stroke-width="1.5" stroke-linecap="round" stroke-linejoin="round" stroke-miterlimit="10" d="
			M108.095,51.431c0.918-5.84,14.556-12.528,23.203-4.515c6.104,5.652,7.943,14.714,6.163,20.892
			c-2.746,9.529-17.098,12.703-22.24,9.705c-3.206-1.867-5.443-5.115-5.443-5.115"/>
		
			<ellipse transform="matrix(-0.0166 -0.9999 0.9999 -0.0166 52.4875 166.3245)" fill="#231F20" cx="108.034" cy="57.352" rx="2.436" ry="1.226"/>
		
			<ellipse transform="matrix(-0.0175 -0.9998 0.9998 -0.0175 59.7564 173.4048)" fill="#231F20" cx="115.073" cy="57.344" rx="2.436" ry="1.226"/>
		
			<ellipse transform="matrix(-0.1553 0.9879 -0.9879 -0.1553 221.1468 -73.0435)" fill="#DD9F5B" stroke="#231F20" stroke-width="1.5" stroke-miterlimit="10" cx="141.801" cy="58.022" rx="4.174" ry="4.079"/>
		
			<path fill="none" stroke="#231F20" stroke-width="1.5" stroke-linecap="round" stroke-linejoin="round" stroke-miterlimit="10" d="
			M118.531,74.595c7.229-2.322,9.323-7.82,9.62-10.082"/>
		<path fill="none" stroke="#231F20" stroke-width="2" stroke-linecap="round" stroke-linejoin="round" stroke-miterlimit="10" d="
			M133.971,48.128c-4.421-3.203-4.138-3.012-7.529-4.957c-8.308-4.762-17.034,0.117-17.034,0.117s15.521-0.924,14.508,5.531"/>
		<path fill="none" stroke="#231F20" stroke-width="2" stroke-linecap="round" stroke-linejoin="round" stroke-miterlimit="10" d="
			M136.49,54.605c-1.229-5.186-2.988-8.461-5.998-10.818c-7.605-5.961-15.819-5.693-15.819-5.693s4.729,2.146,7.965,4.972"/>
		
			<ellipse transform="matrix(-0.1552 0.9879 -0.9879 -0.1552 193.6062 -28.26)" fill="#DD9F5B" cx="108.887" cy="68.654" rx="3.694" ry="5.545"/>
		
			<path fill="none" stroke="#231F20" stroke-width="1.5" stroke-linecap="round" stroke-linejoin="round" stroke-miterlimit="10" d="
			M110.606,63.355c0,0-7.681,0.994-7.46,4.566c0.318,5.229,8.474,4.459,9.753,3.795"/>
		
			<path fill="none" stroke="#231F20" stroke-width="1.5" stroke-linecap="round" stroke-linejoin="round" stroke-miterlimit="10" d="
			M109.678,102.211c0,0-10.313-2.979-8.572,5.176"/>
		<path fill="#DD9F5B" stroke="#231F20" stroke-width="1.5" stroke-miterlimit="10" d="M128.547,89.542c0,0-6.892,7.918-9.313,9.758
			c-2.614,1.98-4.155,4.158-5.067,3.941c-0.915-0.22-3.214-1.382-5.908-0.931c-3.527,0.59-6.24,1.136-7.151,5.073
			c-0.396,1.707,0.679,3.17,1.95,2.496s3.266-2.592,4.688-3.856c1.188-1.056,4.72-0.789,5.043,0.864
			c0.324,1.654-2.893,4.414-1.847,6.109c1.047,1.693,2.563,0.934,3.156-0.066c0.595-1,1.381-3.215,1.412-4.813
			c0.033-1.604-0.145-1.844,0.431-2.271c3.884-2.891,16.589-12.489,17.241-13.405L128.547,89.542z"/>
		
			<polygon fill="#8EB2C5" stroke="#231F20" stroke-width="1.5" stroke-linecap="round" stroke-linejoin="round" stroke-miterlimit="10" points="
			131.34,78.037 125.996,89.709 131.739,95.734 134.865,90.506 		"/>
		<path fill="#DD9F5B" stroke="#231F20" stroke-width="1.5" stroke-miterlimit="10" d="M123.383,88.56c0,0,2.848-6.164,2.396-7.697
			c-0.592-2.025-1.913-1.92-2.534-1.051c-0.619,0.871-0.811,2.381-1.313,3.839c-0.504,1.459-2.475,1.832-2.975,0.72
			c-0.5-1.115-2.049-4.059-2.354-4.729c-0.313-0.672-1.98-2.805-2.892-1.426s-0.301,5.412-0.301,5.412
			c0.316,0.188-1.495,0.725-0.054,2.96c1.443,2.242,4.568,4.246,7.645,3.275c1.381-0.438,1.965,7.625,6.352,9.545
			c4.607,2.016,8.041,0.154,9.685-1.938c1.645-2.094,2.037-5.9,2.037-5.9l-5.104-0.803c0,0,1.506,4.109-1.536,4.848
			C126.584,97.028,123.383,88.56,123.383,88.56z"/>
		
			<path fill="#8EB2C5" stroke="#231F20" stroke-width="1.5" stroke-linecap="round" stroke-linejoin="round" stroke-miterlimit="10" d="
			M130.891,77.16c0.853,5.061,1.583,15.852,1.583,15.852l6.124-0.486l-0.56-6.85c0,0,0.781,7.16,0.354,8.707
			c-4.063,14.623,7.063,13.365,7.063,13.365s10.813-2.396,11.09-4.146c1.229-7.828-18.113-28.412-19.905-29.764
			C134.847,72.485,130.651,75.726,130.891,77.16z"/>
		
			<path fill="none" stroke="#231F20" stroke-width="1.5" stroke-linecap="round" stroke-linejoin="round" stroke-miterlimit="10" d="
			M113.258,79.48c0,0-1.022,3.951,3.911,7.991"/>
	</g>
	<g>
		<path fill="#8B5E3C" d="M462.85,73.037c-0.889,1.613-2.062,3.299-5.131,5.283c-4.933,3.184-19.201,0.711-22.342-8.547
			c-2.031-6.002-0.634-15.004,5.12-20.85c8.151-8.283,20.337-1.765,23.054,3.391C464.025,53.214,469.843,60.291,462.85,73.037z"/>
		
			<path fill="none" stroke="#231F20" stroke-width="1.5" stroke-linecap="round" stroke-linejoin="round" stroke-miterlimit="10" d="
			M463.552,52.314c-1.172-5.707-14.897-11.674-23.054-3.389c-5.754,5.844-7.151,14.846-5.12,20.85
			c3.142,9.256,17.409,11.729,22.342,8.545c3.069-1.984,5.132-5.281,5.132-5.281"/>
		<path fill="#231F20" d="M453.941,59.13c0.229,1.439,0.992,2.207,1.718,1.726c0.72-0.479,1.123-2.035,0.896-3.476
			c-0.228-1.434-0.988-2.201-1.713-1.719C454.12,56.144,453.718,57.697,453.941,59.13z"/>
		<path fill="#231F20" d="M461.941,59.13c0.229,1.439,0.992,2.207,1.718,1.726c0.72-0.479,1.123-2.035,0.896-3.476
			c-0.228-1.434-0.988-2.201-1.713-1.719C462.12,56.144,461.718,57.697,461.941,59.13z"/>
		
			<ellipse transform="matrix(-0.2009 -0.9796 0.9796 -0.2009 458.0662 494.2931)" fill="#8B5E3C" stroke="#231F20" stroke-width="1.5" stroke-miterlimit="10" cx="430.638" cy="60.317" rx="4.11" ry="4.02"/>
		
			<path fill="none" stroke="#231F20" stroke-width="1.5" stroke-linecap="round" stroke-linejoin="round" stroke-miterlimit="10" d="
			M456.584,74.566c-7.148,2.215-11.949-1.037-13.472-2.693"/>
		<path fill="#8B5E3C" stroke="#231F20" stroke-width="1.5" stroke-miterlimit="10" d="M441.194,85.474
			c0,0,4.926,9.097,6.858,11.385c2.092,2.474,3.104,4.896,4.026,4.888c0.929-0.017,3.39-0.644,5.884,0.375
			c3.271,1.322,5.764,2.432,5.791,6.42c0.016,1.727-1.332,2.897-2.412,1.979c-1.078-0.922-2.582-3.188-3.685-4.719
			c-0.918-1.271-4.371-1.773-5.037-0.25c-0.668,1.52,1.832,4.867,0.462,6.271c-1.371,1.403-2.664,0.348-3.021-0.742
			c-0.356-1.092-0.637-3.392-0.323-4.935c0.313-1.547,0.532-1.739,0.073-2.271c-3.112-3.615-12.332-16.104-12.768-17.121
			L441.194,85.474z"/>
		<path fill="#8B5E3C" stroke="#231F20" stroke-width="1.5" stroke-miterlimit="10" d="M451.838,95.215c0,0,0.43-6.68,1.534-7.799
			c1.466-1.479,2.563-0.768,2.688,0.279c0.127,1.049-0.416,2.441-0.662,3.943c-0.245,1.502,1.283,2.75,2.24,2.021
			c0.955-0.732,3.681-2.558,4.262-2.99c0.585-0.439,3.035-1.498,3.175,0.123c0.144,1.621-2.282,4.83-2.282,4.83
			c-0.359,0.014,0.959,1.33-1.347,2.592c-2.306,1.264-5.953,1.533-8.16-0.75c-0.991-1.025-5.519,5.582-9.604,4.736
			c-4.854-1.013-6.746-2.314-7.188-4.898c-0.438-2.584-0.512-7.182-0.512-7.182l3.271,0.92c0,0-1.418,4.188,0.396,6.688
			c1.809,2.498,5.838,2.625,7.021,1.689C447.857,98.482,451.838,95.215,451.838,95.215z"/>
		
			<ellipse transform="matrix(-0.2003 -0.9797 0.9797 -0.2003 488.3681 537.3848)" fill="#8B5E3C" cx="463.506" cy="69.375" rx="3.64" ry="5.465"/>
		
			<path fill="none" stroke="#231F20" stroke-width="1.5" stroke-linecap="round" stroke-linejoin="round" stroke-miterlimit="10" d="
			M461.622,64.169c0,0,7.604,0.631,7.552,4.158c-0.076,5.166-8.14,4.773-9.431,4.18"/>
		<path fill="#5D5D5D" stroke="#231F20" stroke-width="1.5" stroke-miterlimit="10" d="M441.465,77.81
			c-0.607,5.021,5.426,12.938,5.426,12.938s-4.492,3.93-5.912,3.537c-0.371-0.105-2.143-3.363-2.143-3.363s-3.636,1.297-4.857,2.472
			c-2.752,2.64-4.112,14.692-4.112,14.692s-10.22-1.141-10.071-2.883c0.414-4.9,14.977-28.124,16.678-29.535
			C438.168,74.259,441.637,76.388,441.465,77.81z"/>
		
			<path fill="none" stroke="#231F20" stroke-width="1.5" stroke-linecap="round" stroke-linejoin="round" stroke-miterlimit="10" d="
			M463.521,94.288c0,0-1.135,2.731-5.782,2.901"/>
		
			<path fill="none" stroke="#231F20" stroke-width="1.5" stroke-linecap="round" stroke-linejoin="round" stroke-miterlimit="10" d="
			M464.782,91.323c0,0-0.563,2.905-5.086,4"/>
		
			<line fill="none" stroke="#231F20" stroke-width="2" stroke-linecap="round" stroke-linejoin="round" stroke-miterlimit="10" x1="439.795" y1="42.076" x2="442.514" y2="46.394"/>
		
			<line fill="none" stroke="#231F20" stroke-width="2" stroke-linecap="round" stroke-linejoin="round" stroke-miterlimit="10" x1="445.521" y1="39.763" x2="446.786" y2="44.707"/>
		
			<line fill="none" stroke="#231F20" stroke-width="2" stroke-linecap="round" stroke-linejoin="round" stroke-miterlimit="10" x1="457.557" y1="39.947" x2="455.299" y2="44.523"/>
		
			<line fill="none" stroke="#231F20" stroke-width="2" stroke-linecap="round" stroke-linejoin="round" stroke-miterlimit="10" x1="451.881" y1="38.724" x2="450.973" y2="43.746"/>
	</g>
	<g>
		<path fill="#DD9F5B" d="M405.743,59.998c4.886,7.654,25.007,14.471,32.271-0.9c0.683-1.441,7.172-2.547,6.828-3.955
			c-1.229-5.057-4.984-2.78-4.984-5.403c0-5.25-1.848-12.345-3.577-15.621c-3.414-6.476-15.002-6.356-19.834-4.731
			c-3.478,1.168-9.315,11.332-9.315,11.332s-4.757-4.688-8.765-0.728c-3.979,3.938-1.313,8.552,2.504,9.521
			c2.373,0.604,4.084-1.09,4.084-1.09S402.805,55.388,405.743,59.998z"/>
		
			<path fill="none" stroke="#231F20" stroke-width="1.55" stroke-linecap="round" stroke-linejoin="round" stroke-miterlimit="10" d="
			M440.359,50.085c0.082-1.336,0.05-2.639-0.073-3.896"/>
		
			<path fill="none" stroke="#231F20" stroke-width="1.5" stroke-linecap="round" stroke-linejoin="round" stroke-miterlimit="10" d="
			M405.743,59.998c3.959,8.174,25.313,14.029,32.58-1.344"/>
		<path fill="#231F20" d="M427.594,42.912c0.019,1.229-0.488,2.236-1.131,2.244c-0.642,0.012-1.175-0.98-1.188-2.213
			c-0.021-1.23,0.483-2.234,1.127-2.246C427.043,40.689,427.577,41.681,427.594,42.912z"/>
		<path fill="#231F20" d="M436.594,41.912c0.019,1.229-0.488,2.236-1.131,2.244c-0.642,0.012-1.175-0.98-1.188-2.213
			c-0.021-1.23,0.483-2.234,1.127-2.246C436.043,39.689,436.577,40.681,436.594,41.912z"/>
		<path fill="none" stroke="#231F20" stroke-width="2" stroke-linecap="round" stroke-linejoin="round" stroke-miterlimit="10" d="
			M414.76,30.251c-7.092,5.285-7.631,10.463-7.631,10.463s-2.339-2.795-4.982-2.506c-2.646,0.289-4.491,1.576-5.309,5.07
			c-0.816,3.518,3.243,6.567,6.108,6.197c1.827-0.236,2.006-1.059,2.006-1.059s-1.961,2.889-0.563,9.188"/>
		
			<path fill="none" stroke="#231F20" stroke-width="1.5" stroke-linecap="round" stroke-linejoin="round" stroke-miterlimit="10" d="
			M399.893,43.974c0,0,2.939-4.137,5.679-0.779"/>
		
			<path fill="none" stroke="#231F20" stroke-width="1.5" stroke-linecap="round" stroke-linejoin="round" stroke-miterlimit="10" d="
			M402.805,45.005c-1.012-1.426-0.729-2.869-0.729-2.869"/>
		
			<path fill="none" stroke="#231F20" stroke-width="1.5" stroke-linecap="round" stroke-linejoin="round" stroke-miterlimit="10" d="
			M437.071,48.466c14.267,6.655,6.207,10.646-1.472,8.603"/>
		<path fill="#DD9F5B" stroke="#231F20" stroke-width="1.5" stroke-miterlimit="10" d="M399.946,86.877
			c0,0,1.008,19.961,0.245,20.859c-0.741,0.877-2.211,4.35-3.271,6.895c-1.694,4.09-0.418,6.535,1.024,6.205
			c1.67-0.385,3.541-7.199,3.541-7.199s-1.047,5.455-0.76,6.986c0.303,1.598,2.395,2.389,3.674,1.037
			c0.746-0.791-0.16-8.379-0.16-8.379s1.392,7.297,2.572,7.846c1.717,0.795,2.43-0.043,2.461-1.94
			c0.026-1.743-1.65-4.132-2.125-5.657c-0.474-1.523-0.06-2.134,1.004-1.66c1.063,0.473,3.244,1.537,3.951,1.653
			c0.709,0.116,1.623-1.149,0.797-2.599c-0.597-1.039-8.66-4.01-8.66-4.01l-0.93-19.688L399.946,86.877z"/>
		<path fill="#DD9F5B" stroke="#231F20" stroke-width="1.5" stroke-miterlimit="10" d="M419.006,80.251
			c0,0,20.657,6.605,21.159,7.47c0.483,0.839,2.824,2.996,4.546,4.564c2.77,2.52,5.075,2.192,5.227,0.951
			c0.172-1.438-4.713-4.859-4.713-4.859s4.037,2.389,5.338,2.594c1.354,0.215,2.582-1.225,1.869-2.623
			c-0.416-0.82-6.703-2.26-6.703-2.26s6.189,0.975,6.968,0.188c1.12-1.139,0.657-1.939-0.845-2.51
			c-1.375-0.52-3.752,0.136-5.102,0.076c-1.352-0.063-1.716-0.563-1.035-1.271c0.68-0.709,2.146-2.141,2.44-2.666
			c0.294-0.526-0.455-1.619-1.836-1.375c-0.996,0.18-5.656,5.739-5.656,5.739l-20.965-6.448L419.006,80.251z"/>
		<path fill="#231F20" d="M427.989,60.744c2.866,0.926,3.377,1.432,4.582,0.92c2.394-1.02,0.638-1.975,0.002-2.529
			c-0.636-0.561-2.985-1.479-5.019-1.031c-1.371,0.302-2.639,0.771-4.08,1.789c-1.444,1.025-2.389,3.273-2.194,3.578
			c0.668,1.066,1.308-0.225,1.935-0.742C424.077,62.011,426.682,60.322,427.989,60.744z"/>
		<path fill="#231F20" d="M403.571,27.46c-17.351,24.721-9.858,35.984,2.041,35.604c2.78-0.089,4.045-0.354,5.097-1.457
			c0.605-0.64,2.694-2.509-0.146-2.188c-0.521,0.059-1.11,0.063-1.76-0.096c-2.144-0.521-3.097-2.445-0.313-4.742
			c2.785-2.297,6.937-10.816,7.029-14.557c0.092-3.623-0.662-10.021-5.14-12.039C405.907,25.968,403.571,27.46,403.571,27.46z"/>
		
			<line fill="none" stroke="#231F20" stroke-width="1.5" stroke-linecap="round" stroke-linejoin="round" stroke-miterlimit="10" x1="414.243" y1="43.453" x2="420.588" y2="43.691"/>
		
			<path fill="none" stroke="#231F20" stroke-width="1.5" stroke-linecap="round" stroke-linejoin="round" stroke-miterlimit="10" d="
			M430.811,40.755c0,3.531,2.418,6.637,5.377,6.938c2.959,0.303,5.336-2.305,5.336-5.809s-2.377-6.605-5.336-6.934
			C433.229,34.626,430.811,37.224,430.811,40.755z"/>
		
			<path fill="none" stroke="#231F20" stroke-width="1.5" stroke-linecap="round" stroke-linejoin="round" stroke-miterlimit="10" d="
			M420.153,41.878c0,3.529,2.416,6.637,5.377,6.937c2.959,0.301,5.336-2.302,5.336-5.808c0-3.504-2.377-6.604-5.336-6.934
			C422.569,35.75,420.153,38.347,420.153,41.878z"/>
		<path fill="#231F20" d="M443.575,35.958c-11.297,3.82-26.086,1.574-31.065-0.566c-5.728-2.463-6.767-7.2-6.767-9.063
			c0-4.449,4.903-4.471,10.646-5.652c8.815-1.814,18.521,2.686,20.912,7.186c1.533,2.89,4.819,4.955,6.979,6.063
			C445.484,34.544,444.523,35.638,443.575,35.958z"/>
		
			<polygon fill="#E5625C" stroke="#231F20" stroke-width="1.5" stroke-linecap="round" stroke-linejoin="round" stroke-miterlimit="10" points="
			426.479,78.361 423.456,84.57 416.469,79.935 412.284,71.062 		"/>
		
			<path fill="#E5625C" stroke="#231F20" stroke-width="1.5" stroke-linecap="round" stroke-linejoin="round" stroke-miterlimit="10" d="
			M404.954,105.853l12.3,1.047c0,0-2.129-14.327,1.784-24.475c1.142-2.953-0.838-6.961-1.881-10.183
			c-0.435-1.338-0.703-2.535-0.526-3.472l-8.47-5.219l-9.265,23.106l5.476,0.545l5.429-16.991l-4.72,16.284L404.954,105.853z"/>
	</g>
	<g>
		<path fill="#DD9F5B" stroke="#231F20" stroke-width="1.5" stroke-miterlimit="10" d="M509.448,74.236
			c0,0-0.91,18.045-0.224,18.858c0.67,0.793,1.998,3.931,2.953,6.23c1.533,3.693,0.379,5.906-0.928,5.604
			c-1.511-0.348-3.199-6.508-3.199-6.508s0.942,4.937,0.688,6.316c-0.271,1.441-2.168,2.156-3.319,0.939
			c-0.677-0.717,0.146-7.574,0.146-7.574s-1.256,6.6-2.326,7.09c-1.553,0.725-2.196-0.035-2.226-1.758
			c-0.024-1.57,1.49-3.729,1.923-5.107c0.426-1.383,0.051-1.934-0.908-1.508c-0.961,0.432-2.935,1.396-3.571,1.498
			c-0.642,0.107-1.468-1.043-0.72-2.348c0.535-0.939,7.828-3.625,7.828-3.625l0.842-17.799L509.448,74.236z"/>
		<path fill="#DD9F5B" d="M472.071,51.855c0.993,1.811,2.31,3.699,5.756,5.926c5.528,3.572,21.539,0.801,25.062-9.586
			c2.281-6.732,0.713-16.832-5.742-23.39c-9.146-9.293-22.813-1.979-25.855,3.803C470.752,29.619,464.229,37.556,472.071,51.855z"/>
		
			<path fill="none" stroke="#231F20" stroke-width="1.5" stroke-linecap="round" stroke-linejoin="round" stroke-miterlimit="10" d="
			M471.284,27.707c1.313-6.402,16.713-13.098,25.858-3.805c6.453,6.559,8.021,16.653,5.742,23.391
			c-3.521,10.383-19.529,13.156-25.063,9.586c-3.444-2.229-5.754-5.928-5.754-5.928"/>
		
			<ellipse transform="matrix(0.022 -0.9998 0.9998 0.022 424.0397 504.0808)" fill="#231F20" cx="469.668" cy="35.303" rx="2.574" ry="1.362"/>
		
			<ellipse transform="matrix(0.0218 -0.9998 0.9998 0.0218 431.9632 512.0728)" fill="#231F20" cx="477.666" cy="35.291" rx="2.574" ry="1.364"/>
		
			<ellipse transform="matrix(-0.2009 0.9796 -0.9796 -0.2009 642.049 -452.2055)" fill="#DD9F5B" stroke="#231F20" stroke-width="1.5" stroke-miterlimit="10" cx="505.456" cy="35.756" rx="4.612" ry="4.509"/>
		
			<path fill="none" stroke="#231F20" stroke-width="1.5" stroke-linecap="round" stroke-linejoin="round" stroke-miterlimit="10" d="
			M479.1,52.666c3.543-4.033,10.875-4.979,15.109-3.021"/>
		<path fill="#DD9F5B" stroke="#231F20" stroke-width="1.5" stroke-miterlimit="10" d="M496.364,64.904
			c0,0-5.524,10.205-7.694,12.772c-2.347,2.771-3.48,5.489-4.521,5.479c-1.038-0.017-3.801-0.717-6.602,0.419
			c-3.666,1.487-6.461,2.728-6.492,7.2c-0.019,1.938,1.492,3.261,2.705,2.226c1.211-1.035,2.896-3.582,4.133-5.293
			c1.025-1.426,4.9-1.99,5.647-0.281c0.748,1.707-2.058,5.461-0.519,7.039c1.535,1.576,2.986,0.389,3.392-0.836
			c0.397-1.225,0.714-3.801,0.36-5.531c-0.35-1.732-0.598-1.951-0.082-2.549c3.492-4.055,13.834-18.063,14.318-19.208
			L496.364,64.904z"/>
		
			<ellipse transform="matrix(-0.2007 0.9796 -0.9796 -0.2007 611.6147 -405.624)" fill="#DD9F5B" cx="471.276" cy="46.688" rx="4.084" ry="6.132"/>
		
			<path fill="none" stroke="#231F20" stroke-width="1.5" stroke-linecap="round" stroke-linejoin="round" stroke-miterlimit="10" d="
			M473.448,41.005c0,0-8.53,0.707-8.474,4.662c0.088,5.797,9.131,5.355,10.578,4.689"/>
		
			<path fill="#D1313D" stroke="#231F20" stroke-width="1.5" stroke-linecap="round" stroke-linejoin="round" stroke-miterlimit="10" d="
			M496.063,56.306c0.683,5.633-6.088,14.515-6.088,14.515s5.502,4.951,7.097,4.512c0.416-0.115,1.801-4.92,1.801-4.92
			s4.218,2.061,5.591,3.377c3.092,2.961,4.612,16.479,4.612,16.479s11.467-1.271,11.302-3.229
			c-0.464-5.499-16.798-31.549-18.707-33.133C499.76,52.322,495.866,54.712,496.063,56.306z"/>
		
			<path fill="#3C2415" stroke="#231F20" stroke-width="1.5" stroke-linecap="round" stroke-linejoin="round" stroke-miterlimit="10" d="
			M491.811,17.4c-0.58-0.172-1.016-0.146-1.344,0.006c-0.517-1.354-1.779-2.467-4.039-2.861
			c-13.226-2.316-21.625,13.791-21.933,15.527c-0.306,1.733,11.216-3.996,14.938-3.424c3.721,0.574,5.592-1.391,7.284-2.104
			c1.056-0.443,1.935-1.146,2.606-1.974c0.313,1.146,2.229,2.438,4.785,3.121c3.015,0.813,9.797,8.293,10.155,7.043
			C504.635,31.488,502.489,20.542,491.811,17.4z"/>
		
			<polygon fill="#231F20" stroke="#231F20" stroke-width="1.5" stroke-linecap="round" stroke-linejoin="round" stroke-miterlimit="10" points="
			520.377,89.06 523.068,98.76 509.975,99.887 509.073,90.267 		"/>
	</g>
	<path fill="#A87C4F" stroke="#231F20" stroke-linecap="round" stroke-linejoin="round" stroke-miterlimit="10" d="M136.232,115.495
		"/>
	
		<polyline fill="#8EB2C5" stroke="#231F20" stroke-width="1.5" stroke-linecap="round" stroke-linejoin="round" stroke-miterlimit="10" points="
		188.656,103.219 196.748,130.125 177.302,131.245 178.746,102.377 	"/>
	<polyline fill="#FFFFFF" points="177.393,103.454 176.41,117.667 180.241,117.051 179.921,104.42 177.302,103.161 	"/>
	<path fill="none" stroke="#231F20" stroke-width="1.5" stroke-linecap="round" stroke-linejoin="round" stroke-miterlimit="10" d="
		M237.517,102.385c0,0-10.02-3.403-8.677,4.707"/>
	<path fill="none" stroke="#231F20" stroke-width="2" stroke-linecap="round" stroke-linejoin="round" stroke-miterlimit="10" d="
		M127.73,89.083"/>
	<g>
		<path fill="none" stroke="#231F20" stroke-width="2" stroke-linecap="round" stroke-linejoin="round" stroke-miterlimit="10" d="
			M177.581,70.376"/>
		<g>
			
				<ellipse transform="matrix(-0.2006 0.9797 -0.9797 -0.2006 256.8012 -125.3275)" fill="#F9BF76" stroke="#231F20" stroke-width="1.5" stroke-linecap="round" stroke-linejoin="round" stroke-miterlimit="10" cx="179.531" cy="42.104" rx="5.093" ry="4.979"/>
			<path fill="#F9BF76" d="M145.044,56.037c1.1,1.996,2.55,4.084,6.354,6.543c6.104,3.941,23.778,0.881,27.665-10.584
				c2.521-7.434,0.782-18.58-6.343-25.818c-10.096-10.258-25.186-2.184-28.544,4.199C143.588,31.49,136.385,40.253,145.044,56.037z"
				/>
			<path fill="#231F20" d="M154.98,39.593c0.07,1.918-0.618,3.494-1.54,3.526c-0.919,0.035-1.726-1.485-1.795-3.405
				c-0.069-1.912,0.618-3.486,1.541-3.521C154.105,36.16,154.907,37.681,154.98,39.593z"/>
			<path fill="#231F20" d="M145.98,39.593c0.07,1.918-0.618,3.494-1.54,3.526c-0.919,0.035-1.726-1.485-1.795-3.405
				c-0.069-1.912,0.618-3.486,1.541-3.521C145.105,36.16,145.907,37.681,145.98,39.593z"/>
			
				<path fill="none" stroke="#231F20" stroke-width="1.5" stroke-linecap="round" stroke-linejoin="round" stroke-miterlimit="10" d="
				M152.804,57.929c8.854,2.744,14.799-1.283,16.684-3.336"/>
			
				<path fill="#F9BF76" stroke="#231F20" stroke-width="1.5" stroke-linecap="round" stroke-linejoin="round" stroke-miterlimit="10" d="
				M173.429,70.58c0,0-9.177,8.939-12.307,10.936c-3.382,2.15-5.476,4.646-6.563,4.289c-1.09-0.354-3.77-2-7.094-1.719
				c-4.353,0.359-7.705,0.754-9.211,5.456c-0.648,2.037,0.508,3.924,2.124,3.229c1.614-0.691,4.229-2.824,6.093-4.221
				c1.551-1.164,5.818-0.488,6.048,1.557c0.229,2.045-3.959,5.08-2.854,7.248c1.104,2.166,3.021,1.391,3.849,0.234
				c0.822-1.158,1.999-3.771,2.197-5.713c0.2-1.941,0.014-2.258,0.75-2.717c5.014-3.129,20.51-14.492,21.396-15.544L173.429,70.58z"
				/>
			<path fill="none" stroke="#231F20" stroke-width="2" stroke-linecap="round" stroke-linejoin="round" stroke-miterlimit="10" d="
				M145.201,24.554c12.764-12.117,24.281-0.961,24.281-0.961s2.14-5.097,5.089-6.121"/>
			
				<path fill="#F9BF76" stroke="#231F20" stroke-width="1.5" stroke-linecap="round" stroke-linejoin="round" stroke-miterlimit="10" d="
				M160.729,76.509c0,0,3.816-7.356,3.356-9.252c-0.605-2.504-2.227-2.451-3.03-1.425c-0.806,1.025-1.119,2.854-1.818,4.604
				c-0.697,1.75-3.118,2.099-3.665,0.707c-0.546-1.387-2.271-5.061-2.605-5.895c-0.341-0.836-2.26-3.529-3.442-1.9
				c-1.186,1.632-0.67,6.584-0.67,6.584c0.377,0.246-1.865,0.795-0.229,3.609c1.638,2.813,5.335,5.432,9.134,4.424
				c1.709-0.455,2.281,9.448,7.155,11.163c5.793,2.037,8.637,1.857,10.755-0.6c2.12-2.457,5.138-7.288,5.138-7.288l-4.061-1.117
				c0,0-1.179,5.354-4.691,6.842c-3.517,1.494-7.868-0.949-8.526-2.699C162.863,82.519,160.729,76.509,160.729,76.509z"/>
			
				<ellipse transform="matrix(-0.2005 0.9797 -0.9797 -0.2005 224.8418 -80.2763)" fill="#F9BF76" cx="145.175" cy="51.601" rx="4.509" ry="5.771"/>
			
				<path fill="none" stroke="#231F20" stroke-width="1.5" stroke-linecap="round" stroke-linejoin="round" stroke-miterlimit="10" d="
				M147.398,45.228c0,0-8.104,1.049-8.175,5.389c-0.104,6.354,8.479,5.584,9.869,4.807"/>
			
				<path fill="#FFFFFF" stroke="#231F20" stroke-width="1.5" stroke-linecap="round" stroke-linejoin="round" stroke-miterlimit="10" d="
				M171.529,61.949c0.752,6.219-6.722,16.021-6.722,16.021s2.72,5.074,4.479,4.586c0.458-0.125,3.332-3.229,3.332-3.229
				s6.188,1.223,7.702,2.676c3.409,3.27-1.573,20.385-1.573,20.385s19.622,2.059,19.622-0.107
				c0.001-24.563-18.545-41.229-20.652-42.979C175.612,57.55,171.315,60.187,171.529,61.949z"/>
			
				<path fill="none" stroke="#231F20" stroke-width="1.5" stroke-linecap="round" stroke-linejoin="round" stroke-miterlimit="10" d="
				M148.895,64.865c0,0-1.475,4.762,4.317,9.969"/>
			<path fill="none" stroke="#231F20" stroke-width="2" stroke-linecap="round" stroke-linejoin="round" stroke-miterlimit="10" d="
				M140.699,22.9c14.448-9.795,28.783,0.693,28.783,0.693c2.771-2.279,5.08-1.535,6.871,0.092"/>
			<path fill="none" stroke="#231F20" stroke-width="2" stroke-linecap="round" stroke-linejoin="round" stroke-miterlimit="10" d="
				M151.369,27.345c10.896-10.521,24.41-1.039,24.41-1.039"/>
			
				<path fill="none" stroke="#231F20" stroke-width="1.5" stroke-linecap="round" stroke-linejoin="round" stroke-miterlimit="10" d="
				M168.365,52.548c0,0,2.063,3.127,4.116,3.648"/>
		</g>
		
			<path fill="none" stroke="#231F20" stroke-width="1.5" stroke-linecap="round" stroke-linejoin="round" stroke-miterlimit="10" d="
			M144.983,30.376c1.446-7.068,18.448-14.457,28.544-4.199c7.125,7.238,8.858,18.388,6.343,25.818
			c-3.887,11.465-21.562,14.525-27.665,10.584c-3.805-2.459-6.354-6.543-6.354-6.543"/>
	</g>
	<g>
		<path fill="#684D3A" stroke="#231F20" stroke-width="1.5" stroke-miterlimit="10" d="M333.359,92.131
			c0,0-2.834,9.396-10.627,9.845c-4.271,0.245-17.01,0-18.36-1.851c0,0-1.28-4.697-4.129-6.69c-2.847-1.991-4.784-1.563-5.336,0.356
			c-0.345,1.191-0.782-0.213-1.923,0.924c-1.141,1.14-0.838,2.388-0.711,2.849c0.134,0.491-1.698-0.349-1.495,1.854
			c0.284,3.059,5.125,5.123,9.606,2.563c1.387-0.791,11.603,2.813,14.521,2.979c7.043,0.412,15.478-1.938,17.741-6.217
			C334.461,95.321,333.359,92.131,333.359,92.131z"/>
		
			<ellipse fill="#F9BF76" stroke="#231F20" stroke-width="1.5" stroke-miterlimit="10" cx="337.049" cy="57.748" rx="5.547" ry="5.033"/>
		
			<ellipse fill="#684D3A" stroke="#231F20" stroke-width="1.5" stroke-miterlimit="10" cx="315.956" cy="55.445" rx="18.685" ry="20.643"/>
		
			<path fill="#615375" stroke="#231F20" stroke-width="1.5" stroke-linecap="round" stroke-linejoin="round" stroke-miterlimit="10" d="
			M325.514,75.222l4.385,17.154l2.886-0.52l1.854,18.824c0,0,9.26,0.922,11.272-0.977c1.91-1.799-3.317-19.599-3.317-19.599
			l2.277-1.136l-14.5-18.025L325.514,75.222z"/>
		<path fill="none" stroke="#231F20" stroke-width="2" stroke-linecap="round" stroke-linejoin="round" stroke-miterlimit="10" d="
			M300.813,93.433"/>
		<path fill="#684D3A" stroke="#231F20" stroke-width="1.5" stroke-miterlimit="10" d="M339.241,91.51c0,0,1.64,12.17-9.396,12.914
			c-7.231,0.486-12.748-2.551-13.147-3.086c-0.401-0.537,0.136-13.285-3.086-14.358c-3.222-1.067-4.16-0.134-3.758,1.61
			c0.399,1.744,4.965,7.111,4.022,9.394c-0.938,2.28-2.854,3.087-4.108,2.146c-1.257-0.938-5.199-0.063-3,2.416
			c2.146,2.418,7.479,0.621,7.479,0.621s8.986,5.021,14.938,4.67c6.793-0.406,11.596-6.52,12.2-8.244
			c0.938-2.67,1.013-9.108,1.013-9.108L339.241,91.51z"/>
		<path fill="none" stroke="#231F20" stroke-width="2" stroke-linecap="round" stroke-linejoin="round" stroke-miterlimit="10" d="
			M298.963,95.215c0,0,0.711,3.336-1.688,2.957c-0.604-0.094-2.654-1.893-2.654-3.895"/>
		<path fill="#684D3A" stroke="#231F20" stroke-width="1.5" stroke-miterlimit="10" d="M296.547,98.433c0,0,0.297,2.606-1.429,2.331
			c-0.604-0.098-2.435-1.52-2.914-3.266"/>
		
			<ellipse fill="#684D3A" stroke="#231F20" stroke-width="1.5" stroke-miterlimit="10" cx="302.521" cy="96.293" rx="2.705" ry="2.854"/>
		<path fill="#231F20" d="M304.093,49.941c0,1.41-0.679,2.559-1.513,2.559c-0.836,0-1.512-1.148-1.512-2.559
			c0-1.412,0.676-2.553,1.512-2.553C303.415,47.388,304.093,48.529,304.093,49.941z"/>
		<path fill="#231F20" d="M316.093,49.941c0,1.41-0.679,2.559-1.513,2.559c-0.836,0-1.512-1.148-1.512-2.559
			c0-1.412,0.676-2.553,1.512-2.553C315.415,47.388,316.093,48.529,316.093,49.941z"/>
		
			<line fill="none" stroke="#231F20" stroke-width="1.5" stroke-linecap="round" stroke-linejoin="round" stroke-miterlimit="10" x1="312.646" y1="44.695" x2="318.85" y2="44.474"/>
		
			<line fill="none" stroke="#231F20" stroke-width="1.5" stroke-linecap="round" stroke-linejoin="round" stroke-miterlimit="10" x1="298.534" y1="44.259" x2="304.706" y2="44.91"/>
		
			<path fill="none" stroke="#231F20" stroke-width="1.5" stroke-linecap="round" stroke-linejoin="round" stroke-miterlimit="10" d="
			M309.047,70.953c7.95,3.354,17.271-2.393,17.521-6.83"/>
		
			<polyline fill="none" stroke="#231F20" stroke-width="2" stroke-linecap="round" stroke-linejoin="round" stroke-miterlimit="10" points="
			305.093,34.082 306.968,36.312 314.549,31.029 317.499,34.804 322.79,32.103 		"/>
		
			<polyline fill="none" stroke="#231F20" stroke-width="2" stroke-linecap="round" stroke-linejoin="round" stroke-miterlimit="10" points="
			325.885,33.263 325.885,37.203 332.424,38.005 331.596,41.226 337.278,48.382 		"/>
		
			<path fill="#D1313D" stroke="#231F20" stroke-width="1.5" stroke-linecap="round" stroke-linejoin="round" stroke-miterlimit="10" d="
			M299.816,90.928c0,0,2.521-10.438,6.296-9.708c2.271,0.438,1.821,5.486,1.28,6.369c-1.28,2.088-3.334,2.572-4.871,3.342
			c-1.536,0.77-5.262,13.021-5.246,13.24c0.018,0.222-3.17,3.187-3.17,0C294.105,100.982,299.816,90.928,299.816,90.928z"/>
		
			<path fill="none" stroke="#231F20" stroke-width="1.4" stroke-linecap="round" stroke-linejoin="round" stroke-miterlimit="10" d="
			M306.112,82.32c0,0-0.888,7.333-5.041,6.479"/>
		<ellipse fill="#684D3A" cx="298.403" cy="60.456" rx="5.493" ry="4.306"/>
		
			<path fill="none" stroke="#231F20" stroke-width="1.5" stroke-linecap="round" stroke-linejoin="round" stroke-miterlimit="10" d="
			M303.898,55.824c0,0-10.961-2.295-10.989,4.799c-0.022,6.348,10.017,4.123,10.989,4.123"/>
		
			<polyline fill="none" stroke="#231F20" stroke-width="1.5" stroke-linecap="round" stroke-linejoin="round" stroke-miterlimit="10" points="
			330.262,76.792 338.502,92.131 342.76,90.03 		"/>
	</g>
	<g>
		
			<path fill="#F9BF76" stroke="#231F20" stroke-width="1.5" stroke-linecap="round" stroke-linejoin="round" stroke-miterlimit="10" d="
			M360.778,87.301c0,0-19.248,10.423-19.462,11.504c-0.202,1.059-1.87,4.166-3.105,6.432c-1.982,3.645-4.521,4.145-5.127,2.895
			c-0.697-1.442,3.172-6.809,3.172-6.809s-3.361,3.967-4.646,4.652c-1.345,0.717-3.147-0.348-2.912-2.066
			c0.138-1.014,6.2-4.807,6.2-4.807s-6.135,3.271-7.229,2.73c-1.589-0.787-1.396-1.801-0.021-2.939
			c1.25-1.043,3.979-1.219,5.367-1.77c1.394-0.553,1.592-1.211,0.623-1.709s-3.024-1.463-3.524-1.91
			c-0.502-0.447-0.108-1.859,1.426-2.105c1.106-0.176,8.011,3.963,8.011,3.963l19.625-14.361L360.778,87.301z"/>
		
			<path fill="#F9BF76" stroke="#231F20" stroke-width="1.5" stroke-linecap="round" stroke-linejoin="round" stroke-miterlimit="10" d="
			M373.403,86.086c0,0-1.914,29.023-1.14,29.813c0.76,0.769,2.392,3.896,3.563,6.188c1.894,3.689,0.88,6.064-0.493,5.867
			c-1.586-0.236-3.841-6.453-3.841-6.453s1.386,5.012,1.229,6.463c-0.159,1.513-2.062,2.406-3.353,1.242
			c-0.756-0.688-0.479-7.83-0.479-7.83s-0.75,6.91-1.813,7.512c-1.543,0.869-2.271,0.143-2.438-1.633
			c-0.16-1.621,1.229-3.979,1.56-5.438c0.325-1.459-0.104-1.989-1.063-1.478c-0.957,0.519-2.914,1.679-3.563,1.84
			c-0.651,0.164-1.599-0.954-0.938-2.362c0.479-1.015,7.779-4.392,7.779-4.392l-0.824-24.305L373.403,86.086z"/>
		
			<polygon fill="#E5625C" stroke="#231F20" stroke-width="1.5" stroke-linecap="round" stroke-linejoin="round" stroke-miterlimit="10" points="
			348.104,88.437 355.028,91.704 357.843,82.839 355.286,72.267 		"/>
		
			<path fill="#F9BF76" stroke="#231F20" stroke-width="1.5" stroke-linecap="round" stroke-linejoin="round" stroke-miterlimit="10" d="
			M365.521,63.289c-5.188,8.131-26.555,15.367-34.271-0.955c-0.726-1.533-5.474-2.17-5.521-3.711
			c-0.146-4.355,3.563-3.24,3.563-6.23c0-5.573,1.961-13.104,3.801-16.588c3.627-6.875,15.935-6.754,21.063-5.027
			c3.688,1.239,9.896,12.034,9.896,12.034s5.051-4.979,9.307-0.77c4.229,4.184,1.396,9.078-2.659,10.107
			c-2.521,0.643-4.334-1.156-4.334-1.156S368.645,58.396,365.521,63.289z"/>
		<path fill="none" stroke="#231F20" stroke-width="2" stroke-linecap="round" stroke-linejoin="round" stroke-miterlimit="10" d="
			M333.094,35.806"/>
		<path fill="none" stroke="#231F20" stroke-width="2" stroke-linecap="round" stroke-linejoin="round" stroke-miterlimit="10" d="
			M328.762,52.763"/>
		
			<path fill="none" stroke="#231F20" stroke-width="1.5" stroke-linecap="round" stroke-linejoin="round" stroke-miterlimit="10" d="
			M365.521,63.289c-4.202,8.68-26.883,14.896-34.598-1.426"/>
		<path fill="#231F20" d="M332.788,43.203c-0.698,0.727-1.032,2.289-0.745,3.492c0.288,1.203,1.088,1.586,1.786,0.86
			c0.696-0.728,1.031-2.289,0.742-3.49C334.286,42.861,333.487,42.476,332.788,43.203z"/>
		<path fill="#231F20" d="M339.788,44.203c-0.698,0.727-1.032,2.289-0.745,3.492c0.288,1.203,1.088,1.586,1.786,0.86
			c0.696-0.728,1.031-2.289,0.742-3.49C341.286,43.861,340.487,43.476,339.788,44.203z"/>
		<path fill="none" stroke="#231F20" stroke-width="2" stroke-linecap="round" stroke-linejoin="round" stroke-miterlimit="10" d="
			M355.948,31.703c7.528,5.609,8.104,11.109,8.104,11.109s1.396-1.67,3.278-2.375c0.63-0.234,1.313-0.363,2.017-0.287
			c2.812,0.309,4.771,1.674,5.636,5.387c0.869,3.732-3.445,6.975-6.488,6.58c-1.938-0.25-2.129-1.123-2.129-1.123
			s2.082,3.066,0.603,9.756"/>
		
			<path fill="none" stroke="#231F20" stroke-width="1.5" stroke-linecap="round" stroke-linejoin="round" stroke-miterlimit="10" d="
			M371.734,46.271c0,0-3.125-4.389-6.028-0.826"/>
		
			<path fill="none" stroke="#231F20" stroke-width="1.5" stroke-linecap="round" stroke-linejoin="round" stroke-miterlimit="10" d="
			M368.645,47.369c1.066-1.514,0.771-3.049,0.771-3.049"/>
		
			<path fill="none" stroke="#231F20" stroke-width="1.5" stroke-linecap="round" stroke-linejoin="round" stroke-miterlimit="10" d="
			M331.571,52.472c-10.937,4.951-5.052,10.119,3.104,7.619"/>
		<path fill="#231F20" d="M338.069,62.927c0.772-1.233,5.073,1.258,7.329-0.502c2.255-1.763,4.334-4.373,6.438-3.693
			c1.938,0.627,2.327,2.809,0.918,4.699C346.146,72.318,336.303,65.742,338.069,62.927z"/>
		
			<path fill="#E5625C" stroke="#231F20" stroke-width="1.5" stroke-linecap="round" stroke-linejoin="round" stroke-miterlimit="10" d="
			M366.362,111.984l-18.063,1.11c0,0,8.041-27.887,5.66-40.483l8.993-5.541l13.836,18.536l-9.813,6.574L361.21,74.14l5.015,17.291
			L366.362,111.984z"/>
		<path fill="#F7B24C" d="M340.247,23.896c1.731-1.209,5.959-2.361,8.065-2.527c3.617-0.287,11.271,1.645,13.916,4.131
			c5.47,5.137,15.289,15.988,15.347,22.895c0.203,1.105,0.323,2.261,0.323,3.453c0,7.639-4.438,13.828-9.909,13.828
			c-5.474,0-9.91-6.189-9.91-13.828c0-5.082-1.916-20.014-5.103-20.207c-2.524-0.151-6.791,6.24-6.791,6.24
			s-14.271,0.861-15.832-2.928C328.944,31.523,337.206,26.019,340.247,23.896z"/>
		<g>
			<path fill="none" stroke="#231F20" stroke-width="2" stroke-linecap="round" stroke-linejoin="round" stroke-miterlimit="10" d="
				M342.62,23.787c-8.491,2.59-13.239,13.375-13.325,13.979"/>
			<path fill="none" stroke="#231F20" stroke-width="2" stroke-linecap="round" stroke-linejoin="round" stroke-miterlimit="10" d="
				M342.62,23.787c-8.491,2.59-13.239,13.375-13.325,13.979"/>
			<path fill="none" stroke="#231F20" stroke-width="2" stroke-linecap="round" stroke-linejoin="round" stroke-miterlimit="10" d="
				M348.635,23.787c-8.492,2.59-13.24,13.375-13.326,13.979"/>
			<path fill="none" stroke="#231F20" stroke-width="2" stroke-linecap="round" stroke-linejoin="round" stroke-miterlimit="10" d="
				M350.891,26.609c-6.603,3.809-10.244,12.131-10.319,12.662"/>
			<path fill="none" stroke="#231F20" stroke-width="2" stroke-linecap="round" stroke-linejoin="round" stroke-miterlimit="10" d="
				M354.155,28.904c-5.813,4.063-9.007,11.375-9.074,11.871"/>
			<path fill="none" stroke="#231F20" stroke-width="2" stroke-linecap="round" stroke-linejoin="round" stroke-miterlimit="10" d="
				M345.73,21.605c12.451-2.039,16.675,2.98,24.798,12.861"/>
		</g>
		<path fill="none" stroke="#231F20" stroke-width="2" stroke-linecap="round" stroke-linejoin="round" stroke-miterlimit="10" d="
			M374.012,39.271c0,0,12.668,19.352-4.563,26.402"/>
	</g>
	<g>
		
			<path fill="#DD9F5B" stroke="#231F20" stroke-width="1.5" stroke-linecap="round" stroke-linejoin="round" stroke-miterlimit="10" d="
			M287.786,47.89c0,0,5.854,2.869,4.481,4.826c-4.28,6.103-12.582,5.508-18.705,0.432c-2.115-1.756-3.619-2.5-6.552-2.242
			c-2.932,0.26-6.81,2.588-6.979,5.432s1.379,8.016,7.412,9.566c6.032,1.55,8.722,0.885,9.65,2.873
			c0.717,1.524,0.523,3.641-1.857,3.727c-2.384,0.086-3.143-1.342-5.121-2.635c-1.98-1.291-5.431-3.533-8.964-2.586
			c-3.534,0.947-7.672,4.481-7.672,4.481l-3.793-1.551c0,0,6.751-8.714,3.966-19.396c-0.229-0.881-1.896,1.641-3.619-0.347
			c-1.726-1.979-1.981-9.396,1.552-9.396s6.206,1.812,6.206,2.414c0,0.602,3.896-15.371,3.896-15.371l16.41-3.907
			c0,0,6.993,11.399,7.358,14.444c0.167,1.388,6.045-3.006,9.151,0.607c3.107,3.615-2.336,7.754-6.479,8.619"/>
		<path fill="#FFFFFF" stroke="#231F20" stroke-width="1.5" stroke-miterlimit="10" d="M263.427,82.552
			c-3.813-2.17-8.229-7.095-10.118-9.315c0.104-0.896,0.176-1.472,0.176-1.472s-2.797-1.789-3.793-1.551
			c-5.158,1.229-14.68,17.178-14.68,17.178l4.202,2.147c0,0-5.438,11.445-4.395,14.918c0.112,0.387,9.687-0.17,9.687-0.17
			s1.044-7.514,5.631-11.242c5.604-4.559,2.153-7.944,2.422-11.972l6.438,6.316C258.997,87.392,263.945,82.847,263.427,82.552z"/>
		
			<ellipse transform="matrix(-0.0585 -0.9983 0.9983 -0.0585 251.7639 315.4626)" fill="#231F20" cx="274.636" cy="39.014" rx="2.857" ry="1.669"/>
		
			<ellipse transform="matrix(-0.0576 -0.9983 0.9983 -0.0576 264.9763 318.171)" fill="#231F20" cx="282.66" cy="34.021" rx="2.857" ry="1.669"/>
		<path fill="#754C29" d="M281.59,24.216c1.88-5.054-13.995-9.386-23.194-1.763c-1.385,1.146-2.979,1.947-4.044,3.17
			c-10.496,12.041-5.974,27.498-6.823,34.99c-0.697,6.121-6.646,9.058-11.069,8.051c-4.429-1.006,2.416,3.623,5.837,2.816
			c3.423-0.806-1.407,2.215-3.021,2.616c-1.609,0.402,10.978,2.748,14.327-7.227c1.826-5.439,3.114-22.996,7.208-28.213
			C264.031,34.556,280.68,26.666,281.59,24.216z"/>
		<path fill="#DD9F5B" stroke="#231F20" stroke-width="1.5" stroke-miterlimit="10" d="M235.732,88.165
			c0,0-3.775,10.957-3.771,14.074c0.002,1.604-0.005,4.5-0.005,4.5l3.643-0.513c0,0-1.544-8.421,3.619-16.688
			C239.558,88.995,235.732,88.165,235.732,88.165z"/>
		<path fill="#DD9F5B" stroke="#231F20" stroke-width="1.5" stroke-miterlimit="10" d="M259.895,86.553c0,0,9.36,3.939,19.087,1.607
			c3.427-0.82,1.669,0.506,1.888,1.668c0.219,1.164-0.65,3.629,1.888,3.988c2.539,0.361,2.299-0.521,3.051-0.359
			c2.104,0.441,3.407-1.231,3.116-2.178c-0.285-0.936-0.578-0.898-0.578-0.898s3.408-0.551,3.269-2.584
			c-0.146-2.03-2.033-3.553-2.979-3.553c-0.94,0,3.052-1.601,2.25-2.979c-0.799-1.379-4.136-1.307-5.516,0
			c-1.379,1.309-1.959,2.322-4.281,3.41c-2.32,1.087-8.084,1.908-10.521,1.596c-5.142-0.651-8.415-1.848-8.415-1.848L259.895,86.553
			z"/>
		<polyline fill="none" stroke="#231F20" stroke-width="1.5" stroke-miterlimit="10" points="247.994,78.353 241.747,90.609 
			238.702,89.28 		"/>
		
			<ellipse fill="#DD9F5B" stroke="#231F20" stroke-width="1.5" stroke-miterlimit="10" cx="286.127" cy="90.637" rx="3.067" ry="2.464"/>
		
			<ellipse fill="#DD9F5B" stroke="#231F20" stroke-width="1.5" stroke-miterlimit="10" cx="288.309" cy="87.475" rx="3.304" ry="3.019"/>
		
			<path fill="none" stroke="#231F20" stroke-width="1.5" stroke-linecap="round" stroke-linejoin="round" stroke-miterlimit="10" d="
			M283.063,24.216c0,0-4.448-10.354-19.48-4.679c-12.394,4.679-13.604,14.117-15.25,19.406c-1.646,5.289,5.153,32.816-12.733,29.582
			"/>
		
			<path fill="none" stroke="#231F20" stroke-width="1.5" stroke-linecap="round" stroke-linejoin="round" stroke-miterlimit="10" d="
			M258.376,24.216c14.212-7.453,22.218,1.905,21.961,3.78"/>
		<path fill="none" stroke="#231F20" stroke-miterlimit="10" d="M232.029,21.468"/>
		
			<path fill="none" stroke="#231F20" stroke-width="1.5" stroke-linecap="round" stroke-linejoin="round" stroke-miterlimit="10" d="
			M259.084,26.142c7.448-2.101,15.874,3.201,15.617,5.074"/>
		
			<path fill="none" stroke="#231F20" stroke-width="1.5" stroke-linecap="round" stroke-linejoin="round" stroke-miterlimit="10" d="
			M255.49,27.195c7.461-2.508,14.896,5.914,14.139,7.649"/>
	</g>
	<g>
		<path fill="#A87C4F" stroke="#231F20" stroke-width="1.5" stroke-miterlimit="10" d="M217.423,81.718
			c0,0,0.813,16.083,0.199,16.812c-0.6,0.707-1.782,3.506-2.634,5.557c-1.37,3.297-0.339,5.27,0.824,5
			c1.346-0.313,2.854-5.805,2.854-5.805s-0.844,4.395-0.611,5.635c0.242,1.285,1.936,1.924,2.961,0.836
			c0.604-0.644-0.129-6.75-0.129-6.75s1.118,5.877,2.072,6.313c1.385,0.646,1.958-0.034,1.98-1.563
			c0.021-1.401-1.33-3.324-1.713-4.563c-0.38-1.229-0.046-1.719,0.813-1.34c0.854,0.381,2.612,1.24,3.185,1.336
			c0.571,0.098,1.31-0.93,0.644-2.092c-0.479-0.838-6.979-3.232-6.979-3.232l-0.75-15.861L217.423,81.718z"/>
		<path fill="#A87C4F" d="M250.742,61.765c-0.887,1.613-2.06,3.299-5.13,5.283c-4.933,3.186-19.202,0.713-22.34-8.545
			c-2.034-6.005-0.635-15.007,5.118-20.854c8.152-8.281,20.338-1.763,23.055,3.396C251.919,41.943,257.738,49.019,250.742,61.765z"
			/>
		
			<path fill="none" stroke="#231F20" stroke-width="1.5" stroke-linecap="round" stroke-linejoin="round" stroke-miterlimit="10" d="
			M251.447,40.238c-1.17-5.707-14.897-11.674-23.053-3.389c-5.754,5.844-7.153,14.846-5.119,20.85
			c3.138,9.258,17.408,11.729,22.34,8.547c3.071-1.986,5.13-5.283,5.13-5.283"/>
		<path fill="#231F20" d="M241.733,46.619c0.157,1.313,0.889,2.057,1.631,1.668c0.74-0.389,1.215-1.762,1.058-3.072
			c-0.156-1.31-0.89-2.053-1.631-1.664C242.045,43.935,241.573,45.308,241.733,46.619z"/>
		<path fill="#231F20" d="M249.733,46.619c0.157,1.313,0.889,2.057,1.631,1.668c0.74-0.389,1.215-1.762,1.058-3.072
			c-0.156-1.31-0.89-2.053-1.631-1.664C250.045,43.935,249.573,45.308,249.733,46.619z"/>
		
			<ellipse transform="matrix(-0.2005 -0.9797 0.9797 -0.2005 218.7639 273.4528)" fill="#A87C4F" stroke="#231F20" stroke-width="1.5" stroke-miterlimit="10" cx="220.96" cy="47.463" rx="4.111" ry="4.022"/>
		
			<path fill="none" stroke="#231F20" stroke-width="1.5" stroke-linecap="round" stroke-linejoin="round" stroke-miterlimit="10" d="
			M233.456,58.318c0.724,3.467,5.777,5.903,10.563,4.408"/>
		<path fill="#A87C4F" stroke="#231F20" stroke-width="1.5" stroke-miterlimit="10" d="M229.087,73.398
			c0,0,4.926,9.098,6.859,11.386c2.09,2.472,3.104,4.896,4.029,4.886c0.927-0.016,3.388-0.643,5.882,0.375
			c3.271,1.326,5.762,2.432,5.79,6.42c0.015,1.727-1.332,2.898-2.411,1.979c-1.079-0.922-2.583-3.189-3.688-4.721
			c-0.916-1.268-4.369-1.77-5.036-0.25c-0.667,1.521,1.833,4.867,0.463,6.273c-1.37,1.401-2.664,0.346-3.021-0.744
			c-0.354-1.09-0.637-3.391-0.323-4.934c0.313-1.548-0.468-1.738-0.927-2.271c-3.113-3.614-13.332-9.102-13.767-10.121
			L229.087,73.398z"/>
		
			<ellipse transform="matrix(-0.2006 -0.9797 0.9797 -0.2006 245.7268 315.0092)" fill="#A87C4F" cx="251.386" cy="57.249" rx="3.639" ry="5.467"/>
		
			<path fill="none" stroke="#231F20" stroke-width="1.5" stroke-linecap="round" stroke-linejoin="round" stroke-miterlimit="10" d="
			M249.517,52.093c0,0,7.604,0.631,7.554,4.157c-0.078,5.166-8.143,4.773-9.434,4.181"/>
		
			<path fill="#8EB2C5" stroke="#231F20" stroke-width="1.5" stroke-linecap="round" stroke-linejoin="round" stroke-miterlimit="10" d="
			M229.36,65.734c-0.606,5.021,5.427,12.939,5.427,12.939s-5.903,7.412-7.324,7.019c-0.37-0.104-0.604-7.386-0.604-7.386
			l0.09,18.896c0,0-19.405-2.33-19.259-4.074c0.412-4.899,14.975-28.121,16.678-29.535C226.064,62.183,229.531,64.314,229.36,65.734
			z"/>
		<path fill="none" stroke="#231F20" stroke-width="2" stroke-linecap="round" stroke-linejoin="round" stroke-miterlimit="10" d="
			M211.493,58.3"/>
		
			<ellipse transform="matrix(-0.3527 -0.9357 0.9357 -0.3527 284.8163 263.0673)" fill="#231F20" stroke="#231F20" stroke-width="2" stroke-linecap="round" stroke-linejoin="round" stroke-miterlimit="10" cx="233.392" cy="33.027" rx="3.824" ry="8.54"/>
		
			<ellipse transform="matrix(-0.1626 -0.9867 0.9867 -0.1626 251.3664 277.2792)" fill="#231F20" stroke="#231F20" stroke-width="2" stroke-linecap="round" stroke-linejoin="round" stroke-miterlimit="10" cx="243.349" cy="31.97" rx="2.58" ry="5.256"/>
		
			<ellipse transform="matrix(0.1236 -0.9923 0.9923 0.1236 182.686 276.5042)" fill="#231F20" stroke="#231F20" stroke-width="2" stroke-linecap="round" stroke-linejoin="round" stroke-miterlimit="10" cx="247.888" cy="34.823" rx="1.491" ry="3.975"/>
		
			<polygon fill="#231F20" stroke="#231F20" stroke-width="1.5" stroke-linecap="round" stroke-linejoin="round" stroke-miterlimit="10" points="
			207.683,94.93 205.282,103.581 226.954,104.586 225.279,97.5 		"/>
		
			<ellipse transform="matrix(0.1236 -0.9923 0.9923 0.1236 160.4535 259.2628)" fill="#231F20" stroke="#231F20" stroke-width="2" stroke-linecap="round" stroke-linejoin="round" stroke-miterlimit="10" cx="227.011" cy="38.789" rx="1.495" ry="3.248"/>
	</g>
	<g>
		
			<path fill="#D1313D" stroke="#231F20" stroke-width="1.5" stroke-linecap="round" stroke-linejoin="round" stroke-miterlimit="10" d="
			M31.234,72.792c-6.779,0.986-13.06,7.414-13.437,10.217c-0.366,2.732-3.636,36.24-0.944,39.443
			c2.309,2.75,2.887,3.568,7.352,4.066s11.537-6.746,13.435-8.732c1.896-1.992,1.521-24.477,1.146-30.656
			C38.4,80.949,36.303,72.052,31.234,72.792z"/>
		<path fill="none" stroke="#231F20" stroke-linecap="round" stroke-linejoin="round" stroke-miterlimit="10" d="M35.562,75.203
			c-4.646,1.48-11.536,5.709-13.044,9.664c-1.014,2.658-1.632,22.086-1.381,26.042s0.252,12.045,1.76,13.188"/>
		
			<path fill="#615375" stroke="#231F20" stroke-width="1.5" stroke-linecap="round" stroke-linejoin="round" stroke-miterlimit="10" d="
			M42.985,74.277c0,0-7.53,8.719-8.854,11.348c-1.325,2.631-4.199,9.945-3.832,10.521c0.368,0.571,0.877,1.015,0.877,1.015
			s-4.892,14.078-4.787,15.451c0.104,1.37,13.167,6.465,13.543,6.094c0.184-0.185-0.499-9.123,1.602-17.756
			c2.276-9.367,6.799-19.952,6.189-20.521C44.365,77.292,42.985,74.277,42.985,74.277z"/>
		
			<path fill="none" stroke="#231F20" stroke-width="1.5" stroke-linecap="round" stroke-linejoin="round" stroke-miterlimit="10" d="
			M43.703,81.623c-5.773,5.602-7.176,16.689-7.203,17.264c-0.027,0.574-6.203-2.742-6.203-2.742"/>
		<g>
			<path fill="#684D3A" d="M37.323,53.125c1.462,0,2.737,0.98,3.436,2.441c0.766-6.248,2.465-12.23,4.827-14.443
				c1.637-1.531,4.864-4.793,9.2-5.342c3.642-0.457,8.492,0,12.853,4.358c1.478,1.478,7.19,9.451,4.569,21.002
				c0,0-0.904,1.695-0.498,1.764c3.046,0.522,3.834,4.17,3.344,5.809c-1.369,4.568-5.854,4.129-5.854,4.129
				c-2.827,7.467-18.521,17.413-27.475-0.9c-1.071-2.19-1.5-6.146-1.396-10.524c-0.731,1.043-1.806,1.7-3.003,1.7
				c-2.21,0-4.001-2.233-4.001-4.994C33.323,55.359,35.114,53.125,37.323,53.125z"/>
			<ellipse fill="#3B2314" cx="36.871" cy="40.937" rx="4.819" ry="6.301"/>
			<ellipse fill="#3B2314" cx="64.115" cy="33.402" rx="6.784" ry="6.104"/>
			<ellipse fill="#3B2314" cx="68.199" cy="39.55" rx="5.422" ry="5.389"/>
			<ellipse fill="#3B2314" cx="36.382" cy="65.271" rx="4.746" ry="6.104"/>
			<ellipse fill="#3C2415" cx="34.344" cy="59.927" rx="6.784" ry="6.104"/>
			<ellipse fill="#3B2314" cx="53.041" cy="33.011" rx="8.4" ry="9.342"/>
			<ellipse fill="#3B2314" cx="43.759" cy="34.8" rx="7.923" ry="8.301"/>
			<ellipse fill="#3B2314" cx="44.325" cy="40.938" rx="6.571" ry="6.2"/>
			<ellipse fill="#3B2314" cx="37.529" cy="51.068" rx="8.782" ry="7.037"/>
			<path fill="#231F20" d="M62.168,52.48c0.644,0.992,0.774,2.883,0.302,4.229c-0.478,1.342-1.38,1.625-2.021,0.635
				c-0.646-0.994-0.775-2.887-0.303-4.227C60.621,51.769,61.531,51.488,62.168,52.48z"/>
			<path fill="#231F20" d="M70.168,52.48c0.644,0.992,0.774,2.883,0.302,4.229c-0.478,1.342-1.38,1.625-2.021,0.635
				c-0.646-0.994-0.775-2.887-0.303-4.227C68.621,51.769,69.531,51.488,70.168,52.48z"/>
			
				<path fill="none" stroke="#231F20" stroke-width="1.5" stroke-linecap="round" stroke-linejoin="round" stroke-miterlimit="10" d="
				M67.637,62.119c13.521,0.607,6.368,15.172-1.415,8.805"/>
			
				<path fill="none" stroke="#231F20" stroke-width="1.5" stroke-linecap="round" stroke-linejoin="round" stroke-miterlimit="10" d="
				M68.673,73.744c-2.826,7.463-18,16.512-26.951-1.805c-3.021-6.182-0.946-26.313,3.862-30.816c1.637-1.531,4.864-4.793,9.2-5.342
				c3.641-0.457,8.491,0,12.853,4.358c1.478,1.478,7.19,9.451,4.569,21.002"/>
			
				<path fill="none" stroke="#231F20" stroke-width="1.5" stroke-linecap="round" stroke-linejoin="round" stroke-miterlimit="10" d="
				M48.632,73.029c6.438,7.412,18.093,0.869,12.24,3.233"/>
			
				<path fill="none" stroke="#231F20" stroke-width="1.5" stroke-linecap="round" stroke-linejoin="round" stroke-miterlimit="10" d="
				M44.958,24.994c10.427-2.467,13.918,11.232,9.021,10.135c-4.493-1.008,0.864-6.533,4.019-5.84
				c6.385,1.402,7.239,9.434,7.239,9.434"/>
			
				<path fill="none" stroke="#231F20" stroke-width="1.5" stroke-linecap="round" stroke-linejoin="round" stroke-miterlimit="10" d="
				M32.464,49.345c1.813-7.123,10.612-1.715,7.153,0.576c-2.585,1.713-3.699-5.138-1.112-7.271c1.313-1.082,2.66-1.596,3.944-1.762"
				/>
			
				<path fill="none" stroke="#231F20" stroke-width="1.5" stroke-linecap="round" stroke-linejoin="round" stroke-miterlimit="10" d="
				M69.358,36.91c6.317-2.133,7.019,9.104,3.432,7.07c-2.68-1.516,1.854-6.268,4.854-4.979c1.52,0.653,2.636,1.647,3.448,2.772"/>
			<ellipse fill="#3B2314" cx="46.953" cy="34.02" rx="4.818" ry="6.3"/>
			
				<path fill="none" stroke="#231F20" stroke-width="1.5" stroke-linecap="round" stroke-linejoin="round" stroke-miterlimit="10" d="
				M36.869,39.375c-1.638,7.176-10.564,2.041-7.165-0.355c2.541-1.793,3.824,5.021,1.29,7.234c-1.282,1.121-2.617,1.68-3.898,1.883"
				/>
			
				<path fill="none" stroke="#231F20" stroke-width="1.5" stroke-linecap="round" stroke-linejoin="round" stroke-miterlimit="10" d="
				M39.654,30.058c5.581-3.639,12.297,1.016,9.051,3.672c-3.704,3.029-3.699-5.137-1.11-7.271c1.313-1.08,2.657-1.596,3.942-1.762"
				/>
			
				<path fill="none" stroke="#231F20" stroke-width="1.5" stroke-linecap="round" stroke-linejoin="round" stroke-miterlimit="10" d="
				M66.391,39.636c-0.199-6.791,6.206-10.949,6.722-6.761c0.585,4.777-5.424,1.146-5.849-2.196
				c-0.213-1.697,0.007-3.174,0.456-4.438"/>
			
				<path fill="none" stroke="#231F20" stroke-width="1.5" stroke-linecap="round" stroke-linejoin="round" stroke-miterlimit="10" d="
				M64.65,31.101c-2.35-2.949-1.979-7.281,0.313-6.25c3.163,1.422-1.42,4.643-3.641,3.656c-1.124-0.5-1.946-1.25-2.544-2.095"/>
			
				<path fill="none" stroke="#231F20" stroke-width="1.5" stroke-linecap="round" stroke-linejoin="round" stroke-miterlimit="10" d="
				M39.633,19.556c2.853,2.326,3.306,6.647,0.868,6.183c-3.358-0.642,0.52-4.873,2.871-4.435c1.191,0.224,2.139,0.76,2.881,1.442"/>
			
				<path fill="none" stroke="#231F20" stroke-width="1.5" stroke-linecap="round" stroke-linejoin="round" stroke-miterlimit="10" d="
				M38.173,32.847c-3.291,1.408-6.765-0.526-5.086-2.563c2.313-2.808,3.354,3.146,1.737,5.121c-0.816,1-1.734,1.597-2.65,1.922"/>
			
				<path fill="none" stroke="#231F20" stroke-width="1.5" stroke-linecap="round" stroke-linejoin="round" stroke-miterlimit="10" d="
				M38.209,74.759c-4.387-4.275,2.73-10.142,3.072-6.19c0.255,2.949-5.025,1.397-5.581-1.711c-0.277-1.576-0.146-2.977,0.218-4.186"
				/>
			
				<path fill="none" stroke="#231F20" stroke-width="1.5" stroke-linecap="round" stroke-linejoin="round" stroke-miterlimit="10" d="
				M35.946,52.837c4.487,4.141-2.482,10.221-2.922,6.283c-0.325-2.941,4.991-1.555,5.622,1.537c0.315,1.565,0.218,2.971-0.115,4.193
				"/>
			
				<path fill="none" stroke="#231F20" stroke-width="1.5" stroke-linecap="round" stroke-linejoin="round" stroke-miterlimit="10" d="
				M27.183,61.142c-0.508-6.351,5.301-10.627,5.979-6.729c0.772,4.438-5.025,1.396-5.58-1.715c-0.278-1.571-0.146-2.977,0.218-4.188
				"/>
			
				<path fill="none" stroke="#231F20" stroke-width="1.5" stroke-linecap="round" stroke-linejoin="round" stroke-miterlimit="10" d="
				M32.091,69.158c-4.385-4.271,2.732-10.137,3.074-6.188c0.255,2.951-5.026,1.399-5.58-1.711c-0.28-1.576-0.146-2.979,0.218-4.188"
				/>
			
				<path fill="none" stroke="#231F20" stroke-width="1.5" stroke-linecap="round" stroke-linejoin="round" stroke-miterlimit="10" d="
				M62.862,23.384c-5.018,4.813-9.692-5.146-5.683-4.914c2.995,0.174,0.56,6.576-2.647,6.752c-1.625,0.088-3.005-0.313-4.153-0.976"
				/>
			<ellipse fill="#3B2314" cx="42.45" cy="38.722" rx="4.818" ry="6.303"/>
			
				<path fill="none" stroke="#231F20" stroke-width="1.5" stroke-linecap="round" stroke-linejoin="round" stroke-miterlimit="10" d="
				M51.483,36.193c-1.641,7.176-10.567,2.041-7.166-0.355c2.542-1.793,3.824,5.021,1.29,7.234c-1.283,1.121-2.618,1.68-3.897,1.883"
				/>
			
				<path fill="none" stroke="#231F20" stroke-width="1.5" stroke-linecap="round" stroke-linejoin="round" stroke-miterlimit="10" d="
				M34.659,39.585c1.813-7.123,10.612-1.715,7.152,0.576c-2.584,1.713-3.699-5.137-1.111-7.271c1.313-1.082,2.66-1.6,3.942-1.762"/>
			<ellipse fill="#684D3A" cx="64.864" cy="46.332" rx="5.271" ry="5.246"/>
			<ellipse fill="#684D3A" cx="57.073" cy="44.067" rx="6.823" ry="6.204"/>
			<ellipse fill="#684D3A" cx="50.62" cy="46.02" rx="4.791" ry="4.354"/>
			<ellipse fill="#684D3A" cx="48.425" cy="53.077" rx="4.103" ry="4.354"/>
			
				<path fill="none" stroke="#231F20" stroke-width="1.5" stroke-linecap="round" stroke-linejoin="round" stroke-miterlimit="10" d="
				M53.49,39.636c8.325-5.998,11.102,3.854,8.342,3.517c-2.063-0.252-0.151-4.562,2.064-4.539c1.121,0.014,2.061,0.354,2.83,0.856"
				/>
			
				<path fill="none" stroke="#231F20" stroke-width="1.5" stroke-linecap="round" stroke-linejoin="round" stroke-miterlimit="10" d="
				M44.832,57.521c-2.736-10.467,4.921-9.494,4.563-7.535c-0.58,3.207-3.739,0.174-3.729-2.117c0.021-4.646,4.388-6.203,4.388-6.203
				"/>
			<ellipse fill="#684D3A" cx="37.338" cy="58.618" rx="4.435" ry="5.489"/>
			
				<path fill="none" stroke="#231F20" stroke-width="1.5" stroke-linecap="round" stroke-linejoin="round" stroke-miterlimit="10" d="
				M40.646,54.796c0,0-1.78-2.231-4.04-1.611c-5.838,1.605-2.906,11.189,0.992,10.916c1.612-0.11,2.063-1.131,2.063-1.131"/>
		</g>
		<g>
			<path fill="#F9BF76" d="M65.493,123.004c-4.861,0-7.667-3.604-7.693-3.641c-0.144-0.188-0.362-0.297-0.599-0.297
				c-0.004,0-0.393,0.002-0.393,0.002c-1.722,0-10.557-0.107-15.604-2.277c-11.071-4.754-9.984-12.455-9.401-16.592
				c0.128-0.904,0.229-1.615,0.188-2.174c0.763,0.289,1.917,0.844,2.974,1.406c-0.213,1.764-0.586,7.404,2.609,11.564
				c2.022,2.637,5.083,4.146,9.088,4.49c4.191,0.357,9.271,0.766,9.271,0.766c0.021,0,0.039,0.002,0.061,0.002
				c0.309,0,0.585-0.189,0.697-0.48c0.014-0.029,1.287-3.236,3.524-4.74c1.225-0.82,2.903-1.314,4.499-1.314
				c0.994,0,1.521,0.205,1.619,0.306c0.236,0.28,0.335,0.621,0.296,1.037c-0.084,0.896-0.742,1.761-1.004,1.974
				c-0.28,0.229-0.357,0.621-0.188,0.938c0.136,0.246,0.392,0.396,0.658,0.396c0.076,0,0.155-0.017,0.23-0.037
				c0.333-0.109,1.103-0.293,1.869-0.293c0.545,0,1.241,0.094,1.462,0.528c0.272,0.556-0.656,2.271-1.031,2.558
				c-0.279,0.215-0.382,0.602-0.23,0.92c0.127,0.271,0.391,0.438,0.676,0.438c0.055,0,0.105-0.006,0.162-0.02
				c0.173-0.039,0.582-0.105,1.029-0.105c0.563,0,1.229,0.098,1.229,0.525c0,2.564-4.745,4.119-5.984,4.121h-0.016H65.493
				L65.493,123.004z"/>
			<g>
				<path fill="#231F20" d="M32.699,99.142c0.448,0.207,0.955,0.452,1.47,0.72c-0.204,2.27-0.273,7.573,2.813,11.596
					c2.158,2.811,5.396,4.42,9.619,4.781c4.191,0.357,9.272,0.764,9.272,0.764c0.038,0.004,0.078,0.006,0.117,0.006
					c0.611,0,1.17-0.377,1.396-0.953c0.013-0.029,1.209-3.023,3.245-4.395c1.302-0.873,2.962-1.189,4.081-1.189
					c0.582,0,0.946,0.08,1.107,0.134c0.24,0.485-0.277,1.396-0.569,1.741c-0.96,0.49-0.914,1.339-0.87,1.609
					c0.115,0.729,0.771,1.271,1.508,1.271c0.291,0,0.575-0.078,0.853-0.231c0.333-0.092,0.897-0.203,1.46-0.203
					c0.426,0,0.664,0.065,0.753,0.102c-0.033,0.383-0.42,1.182-0.715,1.555c-0.905,0.459-0.833,1.393-0.819,1.512
					c0.086,0.758,0.755,1.338,1.521,1.338c0.217,0,0.426-0.043,0.626-0.127c0.174-0.026,0.431-0.059,0.703-0.059
					c0.193,0,0.346,0.018,0.452,0.031c-0.345,1.801-4.168,3.111-5.229,3.113c-4.47,0-6.993-3.209-7.097-3.34
					c-0.282-0.375-0.729-0.599-1.195-0.599c-0.009,0-0.017,0-0.021,0c-0.004,0-0.138,0.003-0.368,0.003
					c-1.692,0-10.396-0.105-15.309-2.22c-10.545-4.524-9.551-11.584-8.955-15.8C32.61,99.881,32.661,99.499,32.699,99.142
					 M31.247,97.069c-0.273,0-0.358,0.146-0.129,0.521c1.076,1.742-5.154,13.47,9.792,19.89c5.149,2.214,13.946,2.341,15.896,2.341
					c0.255,0,0.395-0.002,0.395-0.002s2.974,3.938,8.292,3.938c0.007,0,0.013,0,0.02,0c1.419-0.002,6.731-1.646,6.731-4.871
					c0-1.031-1.055-1.273-1.979-1.273c-0.501,0-0.963,0.07-1.195,0.125c-0.054,0.037-0.099,0.061-0.132,0.061
					c-0.065,0-0.01-0.024,0.132-0.061c0.521-0.373,1.776-2.465,1.267-3.496c-0.365-0.729-1.248-0.943-2.134-0.943
					c-0.854,0-1.701,0.197-2.104,0.328c-0.088,0.068-0.16,0.107-0.208,0.107c-0.072,0,0.017-0.049,0.208-0.107
					c0.624-0.506,2.028-2.635,0.81-4.076c-0.301-0.354-1.133-0.567-2.188-0.567c-1.479,0-3.396,0.416-4.917,1.438
					c-2.472,1.658-3.809,5.092-3.809,5.092s-5.074-0.398-9.266-0.76C33.212,113.588,35.78,99.03,35.78,99.03
					S32.249,97.069,31.247,97.069L31.247,97.069z"/>
			</g>
		</g>
	</g>
	<g>
		<g>
			
				<path fill="#F9BF76" stroke="#231F20" stroke-width="1.5" stroke-linecap="round" stroke-linejoin="round" stroke-miterlimit="10" d="
				M538.872,76.824c0,0-17.312,12.969-17.5,13.938c-0.187,0.951-1.685,3.748-2.797,5.783c-1.785,3.271-4.063,3.726-4.608,2.603
				c-0.629-1.297,2.854-6.12,2.854-6.12s-3.024,3.566-4.183,4.188c-1.207,0.646-2.832-0.313-2.619-1.86
				c0.125-0.907,5.578-4.313,5.578-4.313s-5.519,2.938-6.502,2.449c-1.429-0.703-1.256-1.611-0.021-2.64
				c1.123-0.938,3.575-1.099,4.828-1.593c1.25-0.498,1.43-1.092,0.562-1.537c-0.867-0.448-2.722-1.313-3.173-1.717
				c-0.448-0.403-0.098-1.673,1.283-1.896c0.994-0.155,7.2,3.563,7.2,3.563l17.648-12.917L538.872,76.824z"/>
			
				<polygon fill="#615375" stroke="#231F20" stroke-width="1.5" stroke-linecap="round" stroke-linejoin="round" stroke-miterlimit="10" points="
				527.475,81.443 533.702,84.376 536.234,76.408 533.936,66.898 			"/>
			<path fill="#F7B24C" d="M548.801,36.398c2.946,11.336,13.342,17.232,14.188,20.84c0.903,3.842-8.813,12.563-15.806,8.578
				c-2.271-1.291-3.021-15.598-3.021-15.598"/>
			<path fill="#F9BF76" d="M543.139,58.828c-4.664,7.311-23.881,13.816-30.815-0.861c-0.651-1.379-3.955-2.203-4.313-3.541
				c-0.695-2.605,2.553-2.891,2.553-5.396c0-5.018,1.765-11.789,3.418-14.92c3.261-6.184,14.324-6.067,18.938-4.521
				c3.317,1.115,8.897,10.824,8.897,10.824s4.541-4.48,8.369-0.691c3.801,3.764,1.254,8.164-2.396,9.09
				c-2.268,0.576-3.896-1.04-3.896-1.04S545.946,54.423,543.139,58.828z"/>
			<path fill="#F7B24C" d="M547.737,37.226c0,0-2.337-7.854-7.271-12.486c-2.381-2.234-9.265-3.976-12.519-3.715
				c-1.896,0.15-5.692,1.188-7.255,2.275c-2.732,1.907-10.163,6.854-8.896,9.938c1.403,3.408,14.235,2.637,14.235,2.637
				s3.836-5.75,6.106-5.611c3.507,0.211,9.556,6.063,9.556,9.566"/>
			
				<path fill="none" stroke="#231F20" stroke-width="1.5" stroke-linecap="round" stroke-linejoin="round" stroke-miterlimit="10" d="
				M510.081,49.359c-0.375-6.176,1.8-11.572,3.896-15.25"/>
			
				<path fill="none" stroke="#231F20" stroke-width="1.5" stroke-linecap="round" stroke-linejoin="round" stroke-miterlimit="10" d="
				M543.139,58.828c-3.779,7.805-24.174,13.395-31.111-1.283"/>
			<path fill="#231F20" d="M513.609,39.697c-0.773,0.647-1.232,2.154-1.032,3.358c0.205,1.207,0.998,1.658,1.771,1.006
				c0.771-0.645,1.231-2.148,1.027-3.354C515.176,39.5,514.381,39.048,513.609,39.697z"/>
			<path fill="#231F20" d="M520.609,40.697c-0.773,0.647-1.232,2.154-1.032,3.358c0.205,1.207,0.998,1.658,1.771,1.006
				c0.771-0.645,1.231-2.148,1.027-3.354C522.176,40.5,521.381,40.048,520.609,40.697z"/>
			<path fill="none" stroke="#231F20" stroke-width="2" stroke-linecap="round" stroke-linejoin="round" stroke-miterlimit="10" d="
				M522.545,23.3c-7.638,2.328-11.904,12.028-11.982,12.573"/>
			<path fill="none" stroke="#231F20" stroke-width="2" stroke-linecap="round" stroke-linejoin="round" stroke-miterlimit="10" d="
				M522.545,23.3c-7.638,2.328-11.904,12.028-11.982,12.573"/>
			<path fill="none" stroke="#231F20" stroke-width="2" stroke-linecap="round" stroke-linejoin="round" stroke-miterlimit="10" d="
				M527.954,23.3c-7.64,2.328-11.907,12.028-11.983,12.573"/>
			<path fill="none" stroke="#231F20" stroke-width="2" stroke-linecap="round" stroke-linejoin="round" stroke-miterlimit="10" d="
				M529.982,25.837c-5.938,3.426-9.213,10.91-9.28,11.389"/>
			<path fill="none" stroke="#231F20" stroke-width="2" stroke-linecap="round" stroke-linejoin="round" stroke-miterlimit="10" d="
				M532.918,27.902c-5.229,3.653-8.099,10.229-8.162,10.678"/>
			
				<path fill="none" stroke="#231F20" stroke-width="1.5" stroke-linecap="round" stroke-linejoin="round" stroke-miterlimit="10" d="
				M534.53,30.419c6.771,5.045,7.284,9.99,7.284,9.99s2.232-2.67,4.763-2.393c2.526,0.274,4.291,1.502,5.067,4.842
				c0.781,3.357-3.102,6.273-5.836,5.92c-1.746-0.228-1.914-1.015-1.914-1.015s1.873,2.76,0.541,8.774"/>
			
				<path fill="none" stroke="#231F20" stroke-width="1.5" stroke-linecap="round" stroke-linejoin="round" stroke-miterlimit="10" d="
				M548.729,43.521c0,0-2.813-3.947-5.422-0.742"/>
			
				<path fill="none" stroke="#231F20" stroke-width="1.5" stroke-linecap="round" stroke-linejoin="round" stroke-miterlimit="10" d="
				M545.946,44.509c0.963-1.361,0.69-2.742,0.69-2.742"/>
			<path fill="none" stroke="#231F20" stroke-width="2" stroke-linecap="round" stroke-linejoin="round" stroke-miterlimit="10" d="
				M529.982,22.871c10.447,2.967,14.619,13.004,14.619,13.004"/>
			<path fill="none" stroke="#231F20" stroke-width="2" stroke-linecap="round" stroke-linejoin="round" stroke-miterlimit="10" d="
				M525.34,21.339c11.198-1.834,19.776,4.498,22.396,15.06"/>
			<path fill="none" stroke="#231F20" stroke-width="2" stroke-linecap="round" stroke-linejoin="round" stroke-miterlimit="10" d="
				M551.747,45.406c3.951,8.877,10.619,10.1,10.132,15.358"/>
			<path fill="none" stroke="#231F20" stroke-width="2" stroke-linecap="round" stroke-linejoin="round" stroke-miterlimit="10" d="
				M549.439,50.425c0.979,8.684,1.347,12.489,5.082,16.348"/>
			
				<path fill="none" stroke="#231F20" stroke-width="1.5" stroke-linecap="round" stroke-linejoin="round" stroke-miterlimit="10" d="
				M515.366,46.503c-13.625,7.309-5.931,11.695,1.403,9.445"/>
			
				<path fill="#F9BF76" stroke="#231F20" stroke-width="1.5" stroke-linecap="round" stroke-linejoin="round" stroke-miterlimit="10" d="
				M548.677,84.496c0,0-0.961,19.063-0.233,19.924c0.709,0.838,2.11,4.148,3.121,6.582c1.621,3.902,0.396,6.24-0.98,5.926
				c-1.594-0.367-3.379-6.875-3.379-6.875s0.998,5.211,0.729,6.672c-0.287,1.525-2.291,2.281-3.511,0.99
				c-0.716-0.754,0.149-8,0.149-8s-1.326,6.965-2.455,7.49c-1.641,0.76-2.319-0.041-2.353-1.855
				c-0.024-1.664,1.576-3.943,2.026-5.402c0.451-1.453,0.058-2.033-0.959-1.588c-1.014,0.449-3.098,1.475-3.77,1.582
				c-0.681,0.113-1.552-1.102-0.765-2.479c0.565-0.992,8.271-3.832,8.271-3.832l0.89-18.8L548.677,84.496z"/>
			
				<path fill="#615375" stroke="#231F20" stroke-width="1.5" stroke-linecap="round" stroke-linejoin="round" stroke-miterlimit="10" d="
				M543.896,102.62l-11.748,1c0,0,2.736-25.081,0.597-36.411l8.089-4.982l8.848,22.066l-5.229,0.52l-5.182-16.227l4.506,15.551
				L543.896,102.62z"/>
			<path fill="none" stroke="#231F20" stroke-width="2" stroke-linecap="round" stroke-linejoin="round" stroke-miterlimit="10" d="
				M545.704,52.001c-0.821,8.701-0.83,11.652,2.033,16.197"/>
		</g>
		
			<path fill="none" stroke="#231F20" stroke-width="1.5" stroke-linecap="round" stroke-linejoin="round" stroke-miterlimit="10" d="
			M518.885,59.791c7.537,2.338,12.603-1.094,14.203-2.842"/>
		
			<path fill="none" stroke="#231F20" stroke-width="1.5" stroke-linecap="round" stroke-linejoin="round" stroke-miterlimit="10" d="
			M532.135,55.21c0,0,1.758,2.662,3.508,3.105"/>
	</g>
	<rect x="3.882" y="100.26" fill="#FFFFFF" width="557.001" height="55.5"/>
	
		<line fill="none" stroke="#231F20" stroke-width="2" stroke-linecap="round" stroke-linejoin="round" stroke-miterlimit="10" x1="38.882" y1="100.26" x2="527.885" y2="100.26"/>
	<path fill="none" stroke="#231F20" stroke-width="2" stroke-linecap="round" stroke-linejoin="round" stroke-miterlimit="10" d="
		M64.368,137.458c0,0,12.65,10.649,38.839,13.807c20.764,2.5,42.192,1,62.343-9.275c11.053-5.641,10.86-20.123-20.673-27.438"/>
	<path fill="none" stroke="#231F20" stroke-width="2" stroke-linecap="round" stroke-linejoin="round" stroke-miterlimit="10" d="
		M242.368,137.458c0,0,12.65,10.649,38.839,13.807c20.764,2.5,42.193,1,62.342-9.275c11.053-5.641,10.86-20.123-20.674-27.438"/>
	<path fill="none" stroke="#231F20" stroke-width="2" stroke-linecap="round" stroke-linejoin="round" stroke-miterlimit="10" d="
		M414.368,137.458c0,0,12.651,10.649,38.838,13.807c20.767,2.5,42.195,1,62.345-9.275c11.053-5.641,10.86-20.123-20.674-27.438"/>
	<g>
		<ellipse fill="#F7C434" stroke="#000000" stroke-miterlimit="10" cx="117.562" cy="130.902" rx="45.343" ry="16.661"/>
		<g>
			<path fill="#F9BF76" d="M117.615,150.939c-30.104,0-54.591-8.983-54.591-20.036c0-11.05,24.488-20.039,54.591-20.039
				c30.103,0,54.592,8.989,54.592,20.039C172.207,141.954,147.716,150.939,117.615,150.939z M117.615,114.241
				c-25.029,0-45.396,7.477-45.396,16.662c0,9.188,20.362,16.661,45.396,16.661c25.031,0,45.396-7.476,45.396-16.661
				C163.011,121.715,142.648,114.241,117.615,114.241z"/>
		</g>
		<g>
			<path fill="#D1313D" d="M113.36,119.866c-0.323-0.658,0.868-1.289,2.664-1.408c1.797-0.119,3.516,0.315,3.841,0.979
				c0.323,0.658-0.869,1.289-2.666,1.408S113.683,120.523,113.36,119.866z"/>
			<path fill="#D1313D" d="M101.753,121.87c0.427,0.862-1.143,1.69-3.5,1.852c-2.356,0.156-4.616-0.42-5.043-1.283
				c-0.427-0.865,1.143-1.691,3.5-1.854C99.071,120.426,101.325,121,101.753,121.87z"/>
			<path fill="#D1313D" d="M112.26,126.254c0.428,0.865-1.143,1.691-3.499,1.854c-2.355,0.153-4.614-0.418-5.044-1.284
				c-0.425-0.863,1.145-1.691,3.5-1.855C109.576,124.812,111.833,125.387,112.26,126.254z"/>
			<path fill="#D1313D" d="M146.109,136.174c0.427,0.863-1.143,1.693-3.499,1.851c-2.357,0.158-4.616-0.418-5.044-1.282
				c-0.427-0.863,1.143-1.691,3.5-1.854C143.423,134.729,145.68,135.305,146.109,136.174z"/>
			<path fill="#D1313D" d="M79.98,130.012c-0.527-1.071,1.411-2.1,4.332-2.293c2.921-0.191,5.718,0.521,6.245,1.593
				c0.526,1.071-1.414,2.103-4.336,2.291C83.299,131.799,80.504,131.086,79.98,130.012z"/>
			<path fill="#D1313D" d="M131.525,140.965c-1.69,0.113-3.313-0.299-3.618-0.922c-0.308-0.621,0.817-1.215,2.514-1.328
				c1.69-0.11,3.313,0.302,3.618,0.922C134.342,140.258,133.216,140.853,131.525,140.965z"/>
			<path fill="#D1313D" d="M148.142,130.801c0.271,0.556-0.73,1.086-2.245,1.189c-1.516,0.102-2.963-0.271-3.233-0.824
				c-0.272-0.559,0.73-1.086,2.245-1.188C146.418,129.879,147.866,130.25,148.142,130.801z"/>
			<path fill="#D1313D" d="M102.622,132.594c1.788-0.118,3.5,0.318,3.82,0.975c0.321,0.657-0.863,1.284-2.65,1.402
				c-1.789,0.119-3.5-0.316-3.823-0.973C99.649,133.34,100.833,132.713,102.622,132.594z"/>
			<path fill="#D1313D" d="M125.826,126.004c2.438-0.16,4.768,0.437,5.205,1.328c0.438,0.894-1.178,1.748-3.611,1.91
				c-2.437,0.158-4.765-0.436-5.204-1.326C121.777,127.021,123.393,126.168,125.826,126.004z"/>
			<path fill="#D1313D" d="M133.29,119.674c2.435-0.16,4.764,0.435,5.202,1.326c0.438,0.892-1.178,1.75-3.61,1.91
				c-2.437,0.158-4.766-0.436-5.204-1.324C129.238,120.691,130.856,119.836,133.29,119.674z"/>
			<path fill="#D1313D" d="M144.197,124.875c2.08-0.142,4.073,0.369,4.449,1.133c0.375,0.766-1.008,1.496-3.089,1.633
				c-2.08,0.141-4.072-0.367-4.448-1.131C140.733,125.745,142.114,125.01,144.197,124.875z"/>
			<path fill="#D1313D" d="M88.027,137.441c-0.405-0.825,1.094-1.62,3.352-1.771c2.259-0.149,4.419,0.398,4.825,1.229
				c0.406,0.832-1.093,1.621-3.351,1.771C90.594,138.821,88.434,138.271,88.027,137.441z"/>
			<path fill="#D1313D" d="M106.893,142.599c-0.581-1.183,1.557-2.312,4.771-2.521c3.216-0.215,6.293,0.567,6.873,1.752
				c0.58,1.18-1.557,2.309-4.771,2.521C110.549,144.562,107.473,143.78,106.893,142.599z"/>
			<path fill="#D1313D" d="M116.553,134.974c-0.581-1.181,1.556-2.31,4.771-2.521c3.215-0.217,6.293,0.568,6.873,1.75
				c0.582,1.18-1.554,2.311-4.771,2.521C120.209,136.939,117.132,136.155,116.553,134.974z"/>
		</g>
		<line fill="none" stroke="#FFFFFF" stroke-width="3" stroke-miterlimit="10" x1="116.382" y1="110.26" x2="116.382" y2="151.26"/>
		<line fill="none" stroke="#FFFFFF" stroke-width="3" stroke-miterlimit="10" x1="59.882" y1="131.76" x2="173.882" y2="131.76"/>
	</g>
	<g>
		<ellipse fill="#F7C434" stroke="#000000" stroke-miterlimit="10" cx="296.469" cy="131.023" rx="45.207" ry="16.661"/>
		<g>
			<path fill="#F9BF76" d="M296.655,151.062c-30.101,0-54.589-8.989-54.589-20.039c0-11.049,24.489-20.039,54.589-20.039
				c30.103,0,54.592,8.989,54.592,20.039S326.756,151.062,296.655,151.062z M296.655,114.362c-25.029,0-45.395,7.477-45.395,16.661
				c0,9.188,20.362,16.662,45.395,16.662s45.396-7.476,45.396-16.662C342.049,121.836,321.688,114.362,296.655,114.362z"/>
		</g>
		<g>
			<path fill="#D1313D" d="M292.398,119.984c-0.323-0.655,0.869-1.288,2.664-1.405c1.795-0.119,3.517,0.315,3.841,0.979
				c0.323,0.66-0.869,1.289-2.666,1.41C294.441,121.083,292.723,120.644,292.398,119.984z"/>
			<path fill="#D1313D" d="M280.793,121.987c0.427,0.866-1.144,1.693-3.5,1.854c-2.356,0.156-4.616-0.42-5.043-1.285
				c-0.427-0.864,1.142-1.693,3.499-1.85C278.112,120.547,280.366,121.124,280.793,121.987z"/>
			<path fill="#D1313D" d="M291.302,126.375c0.429,0.867-1.146,1.691-3.5,1.854c-2.357,0.153-4.616-0.418-5.044-1.284
				c-0.425-0.863,1.143-1.691,3.5-1.855C288.616,124.933,290.874,125.51,291.302,126.375z"/>
			<path fill="#D1313D" d="M325.146,136.293c0.429,0.867-1.143,1.693-3.498,1.854c-2.358,0.155-4.614-0.418-5.043-1.282
				c-0.428-0.863,1.142-1.693,3.5-1.855C322.463,134.853,324.721,135.426,325.146,136.293z"/>
			<path fill="#D1313D" d="M259.019,130.135c-0.526-1.071,1.411-2.098,4.333-2.293c2.921-0.192,5.718,0.521,6.244,1.593
				c0.527,1.071-1.413,2.101-4.334,2.291C262.339,131.92,259.544,131.208,259.019,130.135z"/>
			<path fill="#D1313D" d="M310.564,141.086c-1.692,0.113-3.313-0.299-3.618-0.922c-0.308-0.621,0.817-1.219,2.513-1.328
				c1.689-0.11,3.313,0.301,3.618,0.922C313.385,140.379,312.26,140.974,310.564,141.086z"/>
			<path fill="#D1313D" d="M327.182,130.924c0.271,0.558-0.731,1.086-2.244,1.189c-1.518,0.104-2.965-0.271-3.235-0.818
				c-0.271-0.562,0.731-1.088,2.246-1.189C325.459,130,326.907,130.372,327.182,130.924z"/>
			<path fill="#D1313D" d="M281.661,132.715c1.79-0.116,3.5,0.318,3.824,0.976c0.319,0.655-0.865,1.285-2.653,1.401
				c-1.787,0.119-3.499-0.314-3.822-0.973C278.688,133.463,279.873,132.834,281.661,132.715z"/>
			<path fill="#D1313D" d="M304.866,126.127c2.438-0.162,4.769,0.435,5.205,1.326c0.438,0.896-1.177,1.748-3.61,1.906
				c-2.438,0.162-4.765-0.432-5.205-1.322C300.816,127.144,302.434,126.29,304.866,126.127z"/>
			<path fill="#D1313D" d="M312.329,119.795c2.438-0.16,4.767,0.435,5.205,1.326c0.438,0.896-1.179,1.75-3.61,1.912
				c-2.437,0.156-4.767-0.436-5.203-1.326C308.278,120.812,309.895,119.958,312.329,119.795z"/>
			<path fill="#D1313D" d="M323.237,124.997c2.079-0.142,4.071,0.367,4.448,1.135c0.375,0.762-1.008,1.494-3.09,1.633
				c-2.08,0.139-4.072-0.371-4.447-1.135C319.771,125.864,321.153,125.131,323.237,124.997z"/>
			<path fill="#D1313D" d="M267.067,137.564c-0.406-0.827,1.094-1.623,3.352-1.771c2.257-0.149,4.419,0.396,4.824,1.229
				c0.407,0.828-1.093,1.621-3.349,1.771C269.633,138.943,267.474,138.392,267.067,137.564z"/>
			<path fill="#D1313D" d="M285.934,142.719c-0.582-1.182,1.554-2.309,4.769-2.52c3.218-0.217,6.293,0.568,6.875,1.75
				c0.58,1.18-1.558,2.311-4.771,2.52C289.59,144.683,286.513,143.9,285.934,142.719z"/>
			<path fill="#D1313D" d="M295.593,135.094c-0.58-1.182,1.558-2.309,4.771-2.521c3.215-0.214,6.293,0.569,6.873,1.756
				c0.579,1.18-1.556,2.309-4.771,2.52C299.249,137.06,296.172,136.278,295.593,135.094z"/>
		</g>
		
			<line fill="none" stroke="#FFFFFF" stroke-width="3" stroke-miterlimit="10" x1="269.257" y1="112.484" x2="328.762" y2="155.76"/>
		<line fill="none" stroke="#FFFFFF" stroke-width="3" stroke-miterlimit="10" x1="264.307" y1="155.76" x2="320.814" y2="112.34"/>
	</g>
	<g>
		<ellipse fill="#F7C434" stroke="#000000" stroke-miterlimit="10" cx="467.051" cy="131.084" rx="45.479" ry="16.662"/>
		<g>
			<path fill="#F9BF76" d="M466.968,151.124c-30.103,0-54.592-8.988-54.592-20.037s24.489-20.039,54.592-20.039
				s54.593,8.99,54.593,20.039S497.069,151.124,466.968,151.124z M466.968,114.422c-25.028,0-45.396,7.478-45.396,16.662
				c0,9.186,20.363,16.662,45.396,16.662c25.028,0,45.396-7.479,45.396-16.662C512.362,121.896,491.997,114.422,466.968,114.422z"/>
		</g>
		<g>
			<path fill="#D1313D" d="M462.709,120.047c-0.322-0.66,0.868-1.291,2.663-1.412c1.798-0.118,3.519,0.32,3.841,0.98
				c0.323,0.658-0.867,1.289-2.666,1.408C464.752,121.142,463.032,120.708,462.709,120.047z"/>
			<path fill="#D1313D" d="M451.105,122.047c0.427,0.867-1.145,1.695-3.5,1.855c-2.356,0.155-4.616-0.419-5.043-1.285
				c-0.426-0.861,1.142-1.691,3.5-1.854C448.42,120.607,450.678,121.18,451.105,122.047z"/>
			<path fill="#D1313D" d="M461.612,126.435c0.426,0.864-1.144,1.694-3.5,1.854c-2.358,0.156-4.615-0.418-5.043-1.283
				c-0.427-0.867,1.142-1.695,3.5-1.854C458.928,124.997,461.186,125.571,461.612,126.435z"/>
			<path fill="#D1313D" d="M495.459,136.355c0.428,0.862-1.145,1.692-3.5,1.854c-2.355,0.152-4.615-0.418-5.044-1.285
				c-0.426-0.865,1.144-1.693,3.5-1.854C492.775,134.917,495.032,135.489,495.459,136.355z"/>
			<path fill="#D1313D" d="M429.329,130.196c-0.526-1.068,1.412-2.102,4.332-2.293c2.923-0.189,5.718,0.52,6.246,1.594
				c0.526,1.069-1.414,2.1-4.336,2.293C432.653,131.98,429.857,131.267,429.329,130.196z"/>
			<path fill="#D1313D" d="M480.874,141.146c-1.688,0.112-3.313-0.3-3.618-0.922c-0.308-0.619,0.817-1.216,2.516-1.328
				c1.689-0.108,3.313,0.306,3.617,0.922C483.694,140.439,482.569,141.038,480.874,141.146z"/>
			<path fill="#D1313D" d="M497.491,130.984c0.272,0.56-0.729,1.087-2.244,1.188c-1.515,0.101-2.963-0.27-3.231-0.824
				c-0.272-0.557,0.729-1.088,2.244-1.188C495.771,130.06,497.219,130.428,497.491,130.984z"/>
			<path fill="#D1313D" d="M451.975,132.775c1.787-0.118,3.5,0.317,3.82,0.978c0.321,0.658-0.861,1.287-2.65,1.4
				c-1.789,0.118-3.5-0.314-3.823-0.975C448.997,133.523,450.186,132.894,451.975,132.775z"/>
			<path fill="#D1313D" d="M475.178,126.185c2.438-0.16,4.769,0.438,5.205,1.327c0.438,0.895-1.179,1.748-3.611,1.91
				c-2.438,0.162-4.766-0.436-5.202-1.326C471.127,127.208,472.743,126.349,475.178,126.185z"/>
			<path fill="#D1313D" d="M482.643,119.857c2.435-0.161,4.765,0.435,5.203,1.323c0.438,0.896-1.18,1.75-3.61,1.91
				c-2.437,0.162-4.767-0.434-5.205-1.323C478.59,120.875,480.206,120.017,482.643,119.857z"/>
			<path fill="#D1313D" d="M493.547,125.053c2.082-0.139,4.073,0.369,4.448,1.134c0.377,0.769-1.006,1.496-3.088,1.634
				c-2.08,0.141-4.074-0.365-4.449-1.132C490.081,125.924,491.465,125.191,493.547,125.053z"/>
			<path fill="#D1313D" d="M437.377,137.625c-0.404-0.826,1.094-1.619,3.352-1.771c2.259-0.145,4.42,0.402,4.824,1.23
				c0.406,0.83-1.092,1.621-3.351,1.77C439.946,139.004,437.784,138.456,437.377,137.625z"/>
			<path fill="#D1313D" d="M456.243,142.782c-0.582-1.183,1.556-2.313,4.771-2.521c3.215-0.213,6.293,0.572,6.873,1.752
				c0.578,1.184-1.56,2.313-4.771,2.523C459.903,144.749,456.823,143.961,456.243,142.782z"/>
			<path fill="#D1313D" d="M465.903,135.161c-0.582-1.185,1.556-2.314,4.771-2.523c3.217-0.215,6.295,0.57,6.873,1.752
				c0.582,1.18-1.554,2.311-4.771,2.521C469.563,137.124,466.484,136.336,465.903,135.161z"/>
		</g>
		<polyline fill="none" stroke="#FFFFFF" stroke-width="3" stroke-miterlimit="10" points="466.385,108.26 466.385,131.76 
			416.362,149.144 		"/>
		<line fill="none" stroke="#FFFFFF" stroke-width="3" stroke-miterlimit="10" x1="408.885" y1="131.76" x2="523.885" y2="131.76"/>
	</g>
	<path fill="none" stroke="#231F20" stroke-width="1.4" stroke-linecap="round" stroke-linejoin="round" stroke-miterlimit="10" d="
		M63,46.693c-2.812-0.082-6.842,1.932-7.455,5.076"/>
	<path fill="none" stroke="#231F20" stroke-width="1.4" stroke-linecap="round" stroke-linejoin="round" stroke-miterlimit="10" d="
		M73.282,48.136c-1.216-0.771-3.03-1.213-4.666-1.054"/>
	<path fill="none" stroke="#231F20" stroke-width="1.4" stroke-linecap="round" stroke-linejoin="round" stroke-miterlimit="10" d="
		M340.309,40.156c3.004-0.928,6.601,2.098,7.42,4.43"/>
	<path fill="none" stroke="#231F20" stroke-width="1.4" stroke-linecap="round" stroke-linejoin="round" stroke-miterlimit="10" d="
		M330.843,39.384c1.547-0.58,2.729-0.611,4.588,0.022"/>
	<path fill="none" stroke="#231F20" stroke-width="1.4" stroke-linecap="round" stroke-linejoin="round" stroke-miterlimit="10" d="
		M152.047,33.601c2.654-0.82,7.074-0.547,8.563,1.426"/>
	<path fill="none" stroke="#231F20" stroke-width="1.4" stroke-linecap="round" stroke-linejoin="round" stroke-miterlimit="10" d="
		M140.842,33.384c1.548-0.58,3.729-0.611,5.588,0.022"/>
	<path fill="none" stroke="#231F20" stroke-width="1.4" stroke-linecap="round" stroke-linejoin="round" stroke-miterlimit="10" d="
		M113.841,51.16c2.512-0.191,6.422,0.658,7.433,2.291"/>
	<path fill="none" stroke="#231F20" stroke-width="1.4" stroke-linecap="round" stroke-linejoin="round" stroke-miterlimit="10" d="
		M105.638,51.849c1.102-0.418,2.647-0.437,3.976,0.033"/>
	<path fill="none" stroke="#231F20" stroke-width="1.4" stroke-linecap="round" stroke-linejoin="round" stroke-miterlimit="10" d="
		M245.07,40.16c-2.512-0.191-6.422,0.658-7.434,2.291"/>
	<path fill="none" stroke="#231F20" stroke-width="1.4" stroke-linecap="round" stroke-linejoin="round" stroke-miterlimit="10" d="
		M253.275,40.849c-1.101-0.418-2.647-0.437-3.975,0.033"/>
	<path fill="none" stroke="#231F20" stroke-width="1.4" stroke-linecap="round" stroke-linejoin="round" stroke-miterlimit="10" d="
		M274.603,31.455c-2.329,0.953-5.441,3.471-5.611,5.383"/>
	<path fill="none" stroke="#231F20" stroke-width="1.4" stroke-linecap="round" stroke-linejoin="round" stroke-miterlimit="10" d="
		M283.242,27.388c-1.169,0.119-2.563,0.799-3.534,1.812"/>
	<path fill="none" stroke="#231F20" stroke-width="1.4" stroke-linecap="round" stroke-linejoin="round" stroke-miterlimit="10" d="
		M426.602,37.455c-2.328,0.953-5.44,3.471-5.61,5.383"/>
	<path fill="none" stroke="#231F20" stroke-width="1.4" stroke-linecap="round" stroke-linejoin="round" stroke-miterlimit="10" d="
		M455.602,51.455c-2.328,0.955-5.44,3.471-5.61,5.383"/>
	<path fill="none" stroke="#231F20" stroke-width="1.4" stroke-linecap="round" stroke-linejoin="round" stroke-miterlimit="10" d="
		M465.219,53.144c-0.812-0.85-2.199-1.537-3.599-1.688"/>
	<path fill="none" stroke="#231F20" stroke-width="1.4" stroke-linecap="round" stroke-linejoin="round" stroke-miterlimit="10" d="
		M519.309,37.156c3.004-0.928,6.601,2.098,7.42,4.43"/>
	<path fill="none" stroke="#231F20" stroke-width="1.4" stroke-linecap="round" stroke-linejoin="round" stroke-miterlimit="10" d="
		M509.843,36.384c1.547-0.58,2.729-0.611,4.588,0.022"/>
	<path fill="none" stroke="#231F20" stroke-width="1.4" stroke-linecap="round" stroke-linejoin="round" stroke-miterlimit="10" d="
		M477.309,29.156c1.502-0.465,3.15,0.061,4.527,0.992"/>
	<path fill="none" stroke="#231F20" stroke-width="1.4" stroke-linecap="round" stroke-linejoin="round" stroke-miterlimit="10" d="
		M467.843,29.384c1.547-0.58,2.729-0.611,4.588,0.022"/>
</g>
</svg>
