<svg id="Camada_1" data-name="Camada 1" xmlns="http://www.w3.org/2000/svg" viewBox="0 0 401.14 89.63"><defs><style>.cls-1{fill:#91b5c9;}.cls-2,.cls-3,.cls-6{fill:none;stroke:#000;stroke-miterlimit:10;}.cls-2,.cls-3{stroke-width:0.4px;}.cls-3{stroke-dasharray:2.99 2.99;}.cls-4{fill:#f8c175;}.cls-5{font-size:9.96px;font-family:CMR10;}.cls-6{stroke-width:0.57px;}</style></defs><rect class="cls-1" x="23.84" y="9.38" width="170.08" height="28.35"/><rect class="cls-2" x="23.84" y="9.38" width="170.08" height="28.35"/><line class="cls-3" x1="108.88" y1="37.73" x2="108.88" y2="9.38"/><rect class="cls-4" x="23.84" y="51.9" width="170.08" height="28.35"/><rect class="cls-2" x="23.84" y="51.9" width="170.08" height="28.35"/><line class="cls-3" x1="66.36" y1="80.25" x2="66.36" y2="51.9"/><line class="cls-3" x1="108.88" y1="80.25" x2="108.88" y2="51.9"/><line class="cls-3" x1="151.4" y1="80.25" x2="151.4" y2="51.9"/><rect class="cls-1" x="249.74" y="30.64" width="85.04" height="28.35"/><rect class="cls-2" x="249.74" y="30.64" width="85.04" height="28.35"/><rect class="cls-4" x="334.78" y="30.64" width="42.52" height="28.35"/><rect class="cls-2" x="334.78" y="30.64" width="42.52" height="28.35"/><text class="cls-5" transform="translate(289.77 42.73)">1</text><line class="cls-6" x1="289.77" y1="44.79" x2="294.75" y2="44.79"/><text class="cls-5" transform="translate(289.77 53.32)">2</text><text class="cls-5" transform="translate(353.55 42.73)">1</text><line class="cls-6" x1="353.55" y1="44.79" x2="358.53" y2="44.79"/><text class="cls-5" transform="translate(353.55 53.32)">4</text></svg>