<svg id="Camada_1" data-name="Camada 1" xmlns="http://www.w3.org/2000/svg" viewBox="0 0 385.53 76.72"><defs><style>.cls-1{fill:gray;}.cls-2{fill:none;stroke:#000;stroke-miterlimit:10;stroke-width:0.4px;}.cls-3{fill:#95d4e9;}.cls-4{fill:#7c2a79;}</style></defs><path class="cls-1" d="M95.89,38.36A28.35,28.35,0,1,0,53.37,62.91L67.55,38.36Z"/><path class="cls-2" d="M95.89,38.36A28.35,28.35,0,1,0,53.37,62.91L67.55,38.36Z"/><circle class="cls-2" cx="67.55" cy="38.36" r="28.35" transform="translate(-7.58 18.62) rotate(-14.87)"/><path class="cls-3" d="M223.13,38.36a28.36,28.36,0,0,0-42.52-24.55l14.17,24.55Z"/><path class="cls-2" d="M223.13,38.36a28.36,28.36,0,0,0-42.52-24.55l14.17,24.55Z"/><path class="cls-3" d="M180.61,13.81a28.34,28.34,0,0,0,0,49.1l14.17-24.55Z"/><path class="cls-2" d="M180.61,13.81a28.34,28.34,0,0,0,0,49.1l14.17-24.55Z"/><circle class="cls-2" cx="194.78" cy="38.36" r="28.35" transform="translate(-3.74 37.53) rotate(-10.9)"/><path class="cls-4" d="M346.33,38.36a28.35,28.35,0,1,0-42.52,24.55L318,38.36Z"/><path class="cls-2" d="M346.33,38.36a28.35,28.35,0,1,0-42.52,24.55L318,38.36Z"/><line class="cls-2" x1="317.99" y1="38.36" x2="346.33" y2="38.36"/><line class="cls-2" x1="317.99" y1="38.36" x2="332.16" y2="13.81"/><line class="cls-2" x1="317.99" y1="38.36" x2="303.81" y2="13.81"/><line class="cls-2" x1="317.99" y1="38.36" x2="289.64" y2="38.36"/><line class="cls-2" x1="317.99" y1="38.36" x2="303.81" y2="62.91"/><line class="cls-2" x1="317.99" y1="38.36" x2="332.16" y2="62.91"/><line class="cls-2" x1="317.99" y1="38.36" x2="346.33" y2="38.36"/><circle class="cls-2" cx="317.99" cy="38.36" r="28.35" transform="translate(-1.52 60.83) rotate(-10.9)"/></svg>