<svg id="Camada_1" data-name="Camada 1" xmlns="http://www.w3.org/2000/svg" xmlns:xlink="http://www.w3.org/1999/xlink" viewBox="0 0 464.52 224.16"><defs><style>.cls-1,.cls-3,.cls-4,.cls-5,.cls-6{fill:none;}.cls-2{clip-path:url(#clip-path);}.cls-3{stroke:#95d4e9;stroke-width:0.33px;}.cls-3,.cls-4,.cls-6{stroke-miterlimit:10;}.cls-4,.cls-5{stroke:#000;stroke-width:0.4px;}.cls-5{stroke-linecap:round;stroke-linejoin:round;}.cls-6{stroke:#e6164d;stroke-width:1.59px;}.cls-7{fill:#e6164d;}</style><clipPath id="clip-path"><rect class="cls-1" x="17.12" y="-193.52" width="140.47" height="140.47"/></clipPath></defs><g class="cls-2"><line class="cls-3" x1="-60.18" y1="24.25" x2="73.6" y2="24.25"/><line class="cls-3" x1="-50.72" y1="14.79" x2="83.06" y2="14.79"/><line class="cls-3" x1="-41.26" y1="5.33" x2="92.52" y2="5.33"/></g><path d="M61,35.55c.31,0,.46.17.46.49V42.4s0,0-.12.07a.73.73,0,0,1-.25,0c-.36,0-.56-.22-.61-.67,0-.25,0-.44,0-.56a3,3,0,0,1-1,1,2.64,2.64,0,0,1-1.39.36,2.4,2.4,0,0,1-2-.81,3.33,3.33,0,0,1-.66-2.17V36c0-.32.15-.49.46-.49H56c.31,0,.46.17.46.49v3.52a2.41,2.41,0,0,0,.47,1.57,1.64,1.64,0,0,0,1.34.56,2.23,2.23,0,0,0,1.27-.37,2.49,2.49,0,0,0,.84-1V36c0-.32.14-.49.44-.49Zm5.65-.1a2.39,2.39,0,0,1,2,.81,3.3,3.3,0,0,1,.67,2.16V42c0,.33-.15.49-.45.49h-.13c-.3,0-.46-.16-.46-.49v-3.5a2.41,2.41,0,0,0-.46-1.57,1.63,1.63,0,0,0-1.33-.57,2.29,2.29,0,0,0-1.28.37,2.37,2.37,0,0,0-.84,1V42c0,.33-.15.49-.45.49h-.13c-.3,0-.46-.16-.46-.49V35.67s0,0,.13-.07a.7.7,0,0,1,.25-.05q.6,0,.63.87v.4a2.71,2.71,0,0,1,1-1,2.67,2.67,0,0,1,1.39-.37Zm4.35-2a.66.66,0,1,1,1.32,0,.62.62,0,0,1-.18.48.72.72,0,0,1-.5.17.66.66,0,0,1-.47-.17.65.65,0,0,1-.17-.48Zm.13,2.6c0-.34.15-.51.46-.51h.11c.31,0,.46.17.46.51V42c0,.33-.15.49-.46.49h-.11c-.31,0-.46-.16-.46-.49Zm5.66,6.55a3,3,0,0,1-1.62-.45A3.12,3.12,0,0,1,74,40.9,4,4,0,0,1,73.6,39,4,4,0,0,1,74,37.17a3.07,3.07,0,0,1,1.13-1.26,3.17,3.17,0,0,1,3.15-.08,2.48,2.48,0,0,1,1,.94v-4s0-.06.11-.08a.62.62,0,0,1,.25,0c.45,0,.67.31.67.92V42c0,.33-.15.49-.46.49h-.1a.4.4,0,0,1-.44-.46c0-.19,0-.49,0-.89a3,3,0,0,1-1,1.08,2.83,2.83,0,0,1-1.5.38ZM79.25,38a2.57,2.57,0,0,0-.87-1.2A2.28,2.28,0,0,0,77,36.33a2.11,2.11,0,0,0-1.68.75,2.85,2.85,0,0,0-.65,2,3.16,3.16,0,0,0,.3,1.4,2.27,2.27,0,0,0,.82,1,2.13,2.13,0,0,0,1.19.35,2.31,2.31,0,0,0,1.16-.3,2.09,2.09,0,0,0,.84-.8,2.12,2.12,0,0,0,.31-1.14Zm2.44,2.73A1.77,1.77,0,0,1,82.82,39a9.18,9.18,0,0,1,3.56-.56h.16v-.29a1.79,1.79,0,0,0-.48-1.34,1.9,1.9,0,0,0-1.37-.47,2.39,2.39,0,0,0-1.3.33,2.22,2.22,0,0,0-.8.89.35.35,0,0,1-.19,0,.63.63,0,0,1-.3-.16A.44.44,0,0,1,82,37a.82.82,0,0,1,.11-.36,1.4,1.4,0,0,1,.31-.4,3,3,0,0,1,1-.59,4,4,0,0,1,1.4-.23,2.86,2.86,0,0,1,2.08.72,2.7,2.7,0,0,1,.73,2V42.4s0,0-.12.07a.78.78,0,0,1-.26,0q-.53,0-.6-.66,0-.41,0-.63a2.54,2.54,0,0,1-1,1A3.17,3.17,0,0,1,84,42.6a2.58,2.58,0,0,1-1.7-.52,1.72,1.72,0,0,1-.62-1.39Zm4.85-1.58-.25,0a8,8,0,0,0-2.73.4,1.19,1.19,0,0,0-.84,1.13,1,1,0,0,0,.4.85,1.74,1.74,0,0,0,1.09.31,2.53,2.53,0,0,0,1.18-.27,2.23,2.23,0,0,0,.84-.74,1.82,1.82,0,0,0,.31-1Zm5.52,3.5a3,3,0,0,1-1.62-.45,3.15,3.15,0,0,1-1.13-1.26,4.15,4.15,0,0,1-.4-1.87,4.1,4.1,0,0,1,.4-1.86,3.17,3.17,0,0,1,1.14-1.26,3.17,3.17,0,0,1,3.15-.08,2.48,2.48,0,0,1,1,.94v-4s0-.06.11-.08a.62.62,0,0,1,.25,0c.45,0,.67.31.67.92V42c0,.33-.15.49-.46.49H95a.4.4,0,0,1-.44-.46c0-.19,0-.49,0-.89a2.92,2.92,0,0,1-1,1.08,2.83,2.83,0,0,1-1.5.38ZM94.56,38a2.57,2.57,0,0,0-.87-1.2,2.31,2.31,0,0,0-1.43-.43,2.11,2.11,0,0,0-1.68.75,2.85,2.85,0,0,0-.64,2,3.3,3.3,0,0,0,.29,1.4,2.29,2.29,0,0,0,.83,1,2.13,2.13,0,0,0,1.19.35,2.31,2.31,0,0,0,1.16-.3,2.22,2.22,0,0,0,.84-.8,2.12,2.12,0,0,0,.31-1.14ZM97,39.07a3.92,3.92,0,0,1,.43-1.86,3.34,3.34,0,0,1,1.21-1.29,3.29,3.29,0,0,1,1.74-.47,3.2,3.2,0,0,1,1.66.43,2.85,2.85,0,0,1,1.1,1.18,3.84,3.84,0,0,1,.38,1.77v.1a.33.33,0,0,1-.07.25.43.43,0,0,1-.28.08H98a1.15,1.15,0,0,0,0,.2,2.53,2.53,0,0,0,.78,1.66,2.45,2.45,0,0,0,1.72.63,2.52,2.52,0,0,0,1.4-.34,2.43,2.43,0,0,0,.82-.92.34.34,0,0,1,.19,0,.62.62,0,0,1,.28.17.48.48,0,0,1,.12.33.87.87,0,0,1-.14.41,1.51,1.51,0,0,1-.41.44,2.62,2.62,0,0,1-.94.52,4,4,0,0,1-1.34.21,3.71,3.71,0,0,1-1.82-.44,3.24,3.24,0,0,1-1.23-1.26A3.82,3.82,0,0,1,97,39.07Zm5.51-.56a2.41,2.41,0,0,0-.62-1.61,2,2,0,0,0-1.51-.61,2.22,2.22,0,0,0-1.58.61A2.65,2.65,0,0,0,98,38.51Z"/><line class="cls-4" x1="28.26" y1="50.58" x2="436.06" y2="50.58"/><path class="cls-5" d="M434.19,48.19a3.13,3.13,0,0,0,2.07,2.39A3.15,3.15,0,0,0,434.19,53"/><path d="M53.75,68.15a3.54,3.54,0,0,1-1.94-.52,3.42,3.42,0,0,1-1.27-1.5,5.46,5.46,0,0,1-.44-2.3v-.95a5.49,5.49,0,0,1,.44-2.3,3.32,3.32,0,0,1,1.28-1.5,3.87,3.87,0,0,1,3.91,0A3.29,3.29,0,0,1,57,60.57a5.49,5.49,0,0,1,.45,2.3v.93A5.53,5.53,0,0,1,57,66.11a3.47,3.47,0,0,1-1.28,1.51,3.63,3.63,0,0,1-2,.53Zm0-.92a2.24,2.24,0,0,0,1.91-.89,4,4,0,0,0,.69-2.49v-1a4,4,0,0,0-.69-2.51,2.28,2.28,0,0,0-1.91-.9,2.24,2.24,0,0,0-1.9.89,4,4,0,0,0-.68,2.49v1a4.1,4.1,0,0,0,.68,2.5,2.26,2.26,0,0,0,1.9.9Z"/><path d="M105.15,68c-.29,0-.44-.17-.44-.5V60.19a1.27,1.27,0,0,1-.45.38,1.32,1.32,0,0,1-.6.13,1.17,1.17,0,0,1-.82-.28.78.78,0,0,1-.23-.55.59.59,0,0,1,.07-.29.78.78,0,0,1,.14-.2c.05,0,.09-.06.11-.05a1,1,0,0,0,.82.34,1.12,1.12,0,0,0,.79-.32,1.16,1.16,0,0,0,.37-.8h.39c.31,0,.47.17.47.5v8.4c0,.33-.16.5-.47.5Z"/><line class="cls-6" x1="53.78" y1="50.58" x2="104.8" y2="50.58"/><path class="cls-7" d="M56.76,50.58a3,3,0,1,0-3,3A3,3,0,0,0,56.76,50.58Z"/><path class="cls-7" d="M107.79,50.58a3,3,0,1,0-3,3A3,3,0,0,0,107.79,50.58Z"/><line class="cls-4" x1="28.26" y1="112.25" x2="436.06" y2="112.25"/><path class="cls-5" d="M434.19,109.86a3.13,3.13,0,0,0,2.07,2.39,3.15,3.15,0,0,0-2.07,2.39"/><line class="cls-6" x1="53.78" y1="112.25" x2="155.82" y2="112.25"/><path d="M73.26,104.12a.79.79,0,0,1-.54-.14.58.58,0,0,1-.16-.47v-.36a3.09,3.09,0,0,1,.38-1.57,3.52,3.52,0,0,1,1-1.08,12,12,0,0,1,1.48-.88c.61-.32,1-.56,1.32-.73a2.72,2.72,0,0,0,.71-.64,1.43,1.43,0,0,0,.31-.91,1.59,1.59,0,0,0-.55-1.25,2.26,2.26,0,0,0-1.51-.47,2.23,2.23,0,0,0-1.58.54,2.74,2.74,0,0,0-.8,1.37s-.06,0-.19,0a.67.67,0,0,1-.36-.17.48.48,0,0,1-.17-.39,1.6,1.6,0,0,1,.2-.68,2.66,2.66,0,0,1,.54-.73,3.47,3.47,0,0,1,1-.65,3.64,3.64,0,0,1,1.4-.25A3.21,3.21,0,0,1,78,95.4a2.47,2.47,0,0,1,.81,1.94,2.31,2.31,0,0,1-.35,1.28,3.07,3.07,0,0,1-.88.88,14.15,14.15,0,0,1-1.44.79,12.8,12.8,0,0,0-1.3.72,3,3,0,0,0-.84.79,2.09,2.09,0,0,0-.37,1.08l0,.28h4.86c.35,0,.52.15.52.43v.09c0,.3-.17.44-.52.44Zm14.92-6.9c.31,0,.46.17.46.49v6.36s0,0-.12.07a.73.73,0,0,1-.25,0c-.36,0-.56-.22-.61-.67,0-.25,0-.44,0-.56a3,3,0,0,1-1,1,2.64,2.64,0,0,1-1.39.36,2.4,2.4,0,0,1-2-.81,3.33,3.33,0,0,1-.66-2.17V97.71c0-.32.15-.49.46-.49h.11c.31,0,.46.17.46.49v3.52a2.41,2.41,0,0,0,.47,1.57,1.64,1.64,0,0,0,1.34.56,2.23,2.23,0,0,0,1.27-.37,2.49,2.49,0,0,0,.84-1V97.71c0-.32.14-.49.44-.49Zm5.65-.1a2.39,2.39,0,0,1,2,.81,3.28,3.28,0,0,1,.67,2.16v3.59c0,.33-.15.49-.45.49h-.13c-.3,0-.46-.16-.46-.49v-3.5A2.41,2.41,0,0,0,95,98.61,1.63,1.63,0,0,0,93.63,98a2.2,2.2,0,0,0-1.28.38,2.29,2.29,0,0,0-.84,1v4.26c0,.33-.15.49-.45.49h-.13c-.3,0-.46-.16-.46-.49V97.34s0,0,.13-.07a.7.7,0,0,1,.25,0q.6,0,.63.87v.4a2.71,2.71,0,0,1,1-1,2.67,2.67,0,0,1,1.39-.37Zm4.35-2a.66.66,0,1,1,1.32,0,.62.62,0,0,1-.18.48.72.72,0,0,1-.5.17.66.66,0,0,1-.47-.17.65.65,0,0,1-.17-.48Zm.13,2.6c0-.34.15-.51.46-.51h.11c.31,0,.46.17.46.51v6c0,.33-.15.49-.46.49h-.11c-.31,0-.46-.16-.46-.49Zm5.66,6.55a3,3,0,0,1-1.62-.45,3.12,3.12,0,0,1-1.12-1.26,4,4,0,0,1-.41-1.87,4,4,0,0,1,.41-1.86,3.07,3.07,0,0,1,1.13-1.26,3.17,3.17,0,0,1,3.15-.08,2.48,2.48,0,0,1,1,.94v-4s0-.06.11-.08a.62.62,0,0,1,.25,0c.45,0,.67.31.67.92v8.42c0,.33-.15.49-.46.49h-.1c-.29,0-.44-.15-.44-.46s0-.49,0-.89a3,3,0,0,1-1,1.08,2.83,2.83,0,0,1-1.5.38Zm2.5-4.65a2.57,2.57,0,0,0-.87-1.2,2.28,2.28,0,0,0-1.42-.43,2.13,2.13,0,0,0-1.68.74,2.9,2.9,0,0,0-.65,2,3.16,3.16,0,0,0,.3,1.4,2.27,2.27,0,0,0,.82,1,2.13,2.13,0,0,0,1.19.35,2.31,2.31,0,0,0,1.16-.3,2.09,2.09,0,0,0,.84-.8,2.12,2.12,0,0,0,.31-1.14Zm2.44,2.73a1.77,1.77,0,0,1,1.13-1.69,9.18,9.18,0,0,1,3.56-.56h.16v-.29a1.79,1.79,0,0,0-.48-1.34,1.9,1.9,0,0,0-1.37-.47,2.39,2.39,0,0,0-1.3.33,2.22,2.22,0,0,0-.8.89.35.35,0,0,1-.19,0,.63.63,0,0,1-.3-.16.44.44,0,0,1-.14-.35.82.82,0,0,1,.11-.36,1.4,1.4,0,0,1,.31-.4,3,3,0,0,1,1-.59,4,4,0,0,1,1.4-.23,2.86,2.86,0,0,1,2.08.72,2.7,2.7,0,0,1,.73,2v4.23s0,0-.12.07a.78.78,0,0,1-.26,0q-.53,0-.6-.66,0-.4,0-.63a2.54,2.54,0,0,1-1,1,3.17,3.17,0,0,1-1.52.37,2.58,2.58,0,0,1-1.7-.52,1.72,1.72,0,0,1-.62-1.39Zm4.85-1.58-.25,0a8,8,0,0,0-2.73.4,1.19,1.19,0,0,0-.84,1.13,1,1,0,0,0,.4.85,1.74,1.74,0,0,0,1.09.31,2.56,2.56,0,0,0,1.18-.27,2.23,2.23,0,0,0,.84-.74,1.82,1.82,0,0,0,.31-1Zm5.52,3.5a3,3,0,0,1-1.62-.45,3.15,3.15,0,0,1-1.13-1.26,4.15,4.15,0,0,1-.4-1.87,4.1,4.1,0,0,1,.4-1.86,3.1,3.1,0,0,1,1.14-1.26,3.17,3.17,0,0,1,3.15-.08,2.48,2.48,0,0,1,1,.94v-4s0-.06.11-.08a.62.62,0,0,1,.25,0c.45,0,.67.31.67.92v8.42c0,.33-.15.49-.46.49h-.1c-.29,0-.44-.15-.44-.46s0-.49,0-.89a2.92,2.92,0,0,1-1,1.08,2.83,2.83,0,0,1-1.5.38Zm2.5-4.65a2.57,2.57,0,0,0-.87-1.2,2.31,2.31,0,0,0-1.43-.43,2.13,2.13,0,0,0-1.68.74,2.89,2.89,0,0,0-.64,2,3.3,3.3,0,0,0,.29,1.4,2.29,2.29,0,0,0,.83,1,2.13,2.13,0,0,0,1.19.35,2.31,2.31,0,0,0,1.16-.3,2.22,2.22,0,0,0,.84-.8,2.12,2.12,0,0,0,.31-1.14Zm2.44,1.11a3.92,3.92,0,0,1,.43-1.86,3.34,3.34,0,0,1,1.21-1.29,3.29,3.29,0,0,1,1.74-.47,3.2,3.2,0,0,1,1.66.43,2.85,2.85,0,0,1,1.1,1.18,3.84,3.84,0,0,1,.38,1.77v.1a.33.33,0,0,1-.07.25.43.43,0,0,1-.28.08h-5.18a1.15,1.15,0,0,0,0,.2,2.53,2.53,0,0,0,.78,1.66,2.45,2.45,0,0,0,1.72.63,2.52,2.52,0,0,0,1.4-.34,2.43,2.43,0,0,0,.82-.92.34.34,0,0,1,.19,0,.62.62,0,0,1,.28.17.48.48,0,0,1,.12.33.87.87,0,0,1-.14.41,1.51,1.51,0,0,1-.41.44,2.62,2.62,0,0,1-.94.52,4,4,0,0,1-1.34.21,3.71,3.71,0,0,1-1.82-.44,3.24,3.24,0,0,1-1.23-1.26,3.82,3.82,0,0,1-.43-1.84Zm5.51-.56a2.41,2.41,0,0,0-.62-1.61A2,2,0,0,0,127.6,98a2.22,2.22,0,0,0-1.58.61,2.65,2.65,0,0,0-.78,1.61Zm2.31,3.39a1,1,0,0,1-.42-.69.45.45,0,0,1,.09-.28,1.18,1.18,0,0,1,.21-.18.44.44,0,0,1,.14,0,2.44,2.44,0,0,0,.94.79,3.13,3.13,0,0,0,1.39.29,2.16,2.16,0,0,0,1.25-.31.93.93,0,0,0,.46-.82.82.82,0,0,0-.23-.61,1.55,1.55,0,0,0-.58-.33,10.53,10.53,0,0,0-1.1-.28,8.51,8.51,0,0,1-1.19-.33,2,2,0,0,1-.84-.55,1.54,1.54,0,0,1-.34-1,1.83,1.83,0,0,1,.71-1.49,2.92,2.92,0,0,1,1.89-.58,4,4,0,0,1,1.35.22,2.31,2.31,0,0,1,.89.56,1.2,1.2,0,0,1,.18.26.64.64,0,0,1,.07.28.45.45,0,0,1-.09.28.63.63,0,0,1-.21.19c-.09,0-.13.06-.14,0a2.12,2.12,0,0,0-.83-.73,2.6,2.6,0,0,0-1.21-.29,2,2,0,0,0-1.21.32,1,1,0,0,0-.44.81.74.74,0,0,0,.22.57,1.43,1.43,0,0,0,.57.33,9.93,9.93,0,0,0,1.06.28,11.72,11.72,0,0,1,1.26.35,2.13,2.13,0,0,1,.85.57,1.45,1.45,0,0,1,.36,1,1.84,1.84,0,0,1-.74,1.52,3.22,3.22,0,0,1-2,.56,4.08,4.08,0,0,1-1.37-.2,2.72,2.72,0,0,1-1-.51Z"/><line class="cls-4" x1="104.8" y1="115.24" x2="104.8" y2="109.26"/><path d="M53.75,129.82a3.54,3.54,0,0,1-1.94-.52,3.42,3.42,0,0,1-1.27-1.5,5.46,5.46,0,0,1-.44-2.3v-1a5.49,5.49,0,0,1,.44-2.3,3.32,3.32,0,0,1,1.28-1.5,3.87,3.87,0,0,1,3.91,0A3.29,3.29,0,0,1,57,122.24a5.49,5.49,0,0,1,.45,2.3v.93a5.53,5.53,0,0,1-.46,2.31,3.47,3.47,0,0,1-1.28,1.51,3.63,3.63,0,0,1-2,.53Zm0-.92a2.24,2.24,0,0,0,1.91-.89,4,4,0,0,0,.69-2.49v-1a4,4,0,0,0-.69-2.51,2.28,2.28,0,0,0-1.91-.9,2.24,2.24,0,0,0-1.9.89,4,4,0,0,0-.68,2.49v1a4.1,4.1,0,0,0,.68,2.5,2.26,2.26,0,0,0,1.9.9Z"/><path d="M105.15,129.62c-.29,0-.44-.17-.44-.5v-7.26a1.27,1.27,0,0,1-.45.38,1.32,1.32,0,0,1-.6.13,1.17,1.17,0,0,1-.82-.28.78.78,0,0,1-.23-.55.59.59,0,0,1,.07-.29.78.78,0,0,1,.14-.2c.05,0,.09-.06.11,0a1,1,0,0,0,.82.34,1.12,1.12,0,0,0,.79-.32,1.16,1.16,0,0,0,.37-.8h.39c.31,0,.47.17.47.5v8.4c0,.33-.16.5-.47.5Z"/><path d="M153.41,129.68a.78.78,0,0,1-.53-.15.58.58,0,0,1-.17-.47v-.36a3,3,0,0,1,.39-1.57,3.6,3.6,0,0,1,1-1.08,13.79,13.79,0,0,1,1.48-.88c.61-.31,1.06-.56,1.33-.73a2.89,2.89,0,0,0,.71-.64,1.42,1.42,0,0,0,.3-.91,1.58,1.58,0,0,0-.54-1.25,2.63,2.63,0,0,0-3.1.07,2.76,2.76,0,0,0-.79,1.37s-.07,0-.2,0a.73.73,0,0,1-.36-.16.49.49,0,0,1-.16-.4,1.56,1.56,0,0,1,.19-.68,2.61,2.61,0,0,1,.54-.72,3.48,3.48,0,0,1,1.05-.66,3.78,3.78,0,0,1,1.39-.25,3.19,3.19,0,0,1,2.23.73,2.47,2.47,0,0,1,.81,1.94,2.31,2.31,0,0,1-.34,1.28,3.2,3.2,0,0,1-.88.88,15.18,15.18,0,0,1-1.45.8,11,11,0,0,0-1.29.71,3.18,3.18,0,0,0-.84.79,2.1,2.1,0,0,0-.38,1.08l0,.28h4.87c.34,0,.51.15.51.44v.08q0,.45-.51.45Z"/><path class="cls-7" d="M56.76,112.25a3,3,0,1,0-3,3A3,3,0,0,0,56.76,112.25Z"/><path class="cls-7" d="M158.81,112.25a3,3,0,1,0-3,3A3,3,0,0,0,158.81,112.25Z"/><line class="cls-4" x1="28.26" y1="173.92" x2="436.06" y2="173.92"/><path class="cls-5" d="M434.19,171.53a3.13,3.13,0,0,0,2.07,2.39,3.15,3.15,0,0,0-2.07,2.39"/><line class="cls-6" x1="53.78" y1="173.92" x2="410.95" y2="173.92"/><path d="M201.81,165.85a.58.58,0,0,1-.31-.08.62.62,0,0,1-.23-.18c-.05-.06-.07-.11-.05-.14l4.13-7.93h-4.9a.49.49,0,0,1-.36-.12.45.45,0,0,1-.13-.34V157a.45.45,0,0,1,.13-.34.49.49,0,0,1,.36-.12h5.42a.78.78,0,0,1,.53.14.45.45,0,0,1,.14.36v.11a.76.76,0,0,1-.07.31,4.78,4.78,0,0,1-.23.47l-3.87,7.56a.6.6,0,0,1-.56.39Zm13.86-7c.3,0,.46.17.46.49v6.36s0,0-.13.07a.69.69,0,0,1-.25,0c-.35,0-.55-.22-.6-.67,0-.25,0-.44,0-.56a3,3,0,0,1-1,1,2.58,2.58,0,0,1-1.38.36,2.4,2.4,0,0,1-2-.81,3.33,3.33,0,0,1-.67-2.17v-3.59c0-.32.16-.49.46-.49h.12c.3,0,.46.17.46.49v3.52a2.41,2.41,0,0,0,.47,1.57A1.63,1.63,0,0,0,213,165a2.18,2.18,0,0,0,1.27-.37,2.34,2.34,0,0,0,.84-1v-4.26c0-.32.15-.49.45-.49Zm5.65-.1a2.4,2.4,0,0,1,2,.81,3.3,3.3,0,0,1,.67,2.16v3.59c0,.33-.15.49-.45.49h-.13c-.3,0-.46-.16-.46-.49v-3.5a2.41,2.41,0,0,0-.46-1.57,1.63,1.63,0,0,0-1.33-.57,2.2,2.2,0,0,0-1.28.38,2.29,2.29,0,0,0-.84,1v4.26c0,.33-.15.49-.45.49h-.13c-.3,0-.46-.16-.46-.49V159s0,0,.13-.07a.7.7,0,0,1,.25-.05q.6,0,.63.87v.4a2.71,2.71,0,0,1,1-1,2.65,2.65,0,0,1,1.39-.37Zm4.35-2a.65.65,0,0,1,.17-.49.68.68,0,0,1,.49-.17.61.61,0,0,1,.66.66.62.62,0,0,1-.18.48.72.72,0,0,1-.5.17.64.64,0,0,1-.47-.17.61.61,0,0,1-.17-.48Zm.13,2.6c0-.34.15-.51.46-.51h.11c.31,0,.46.17.46.51v5.95c0,.33-.15.49-.46.49h-.11c-.31,0-.46-.16-.46-.49Zm5.66,6.55a3,3,0,0,1-1.62-.45,3.05,3.05,0,0,1-1.12-1.26,4,4,0,0,1-.41-1.87,4,4,0,0,1,.41-1.86,3.07,3.07,0,0,1,1.13-1.26,3.17,3.17,0,0,1,3.15-.08,2.48,2.48,0,0,1,1,.94v-4s0-.06.11-.08a.62.62,0,0,1,.25,0c.45,0,.67.31.67.92v8.42c0,.33-.15.49-.46.49h-.1a.4.4,0,0,1-.44-.46c0-.19,0-.49,0-.89a2.69,2.69,0,0,1-2.51,1.46Zm2.5-4.65a2.57,2.57,0,0,0-.87-1.2,2.31,2.31,0,0,0-1.43-.43,2.13,2.13,0,0,0-1.67.74,2.85,2.85,0,0,0-.65,2,3.3,3.3,0,0,0,.29,1.4,2.29,2.29,0,0,0,.83,1,2.13,2.13,0,0,0,1.19.35,2.31,2.31,0,0,0,1.16-.3,2.15,2.15,0,0,0,.84-.8,2.12,2.12,0,0,0,.31-1.14ZM236.4,164a1.78,1.78,0,0,1,1.12-1.69,9.23,9.23,0,0,1,3.57-.56h.16v-.29a1.79,1.79,0,0,0-.48-1.34,1.9,1.9,0,0,0-1.37-.47,2.39,2.39,0,0,0-1.3.33,2.15,2.15,0,0,0-.8.89.35.35,0,0,1-.19,0,.63.63,0,0,1-.3-.16.44.44,0,0,1-.14-.35.82.82,0,0,1,.11-.36,1.4,1.4,0,0,1,.31-.4,3,3,0,0,1,1-.59,4,4,0,0,1,1.39-.23,2.83,2.83,0,0,1,2.08.72,2.66,2.66,0,0,1,.74,2v4.23s-.05,0-.13.07a.69.69,0,0,1-.25,0q-.52,0-.6-.66,0-.41,0-.63a2.54,2.54,0,0,1-1,1,3.17,3.17,0,0,1-1.52.37,2.56,2.56,0,0,1-1.7-.52,1.72,1.72,0,0,1-.62-1.39Zm4.85-1.58-.25,0a8,8,0,0,0-2.73.4,1.19,1.19,0,0,0-.84,1.13,1,1,0,0,0,.4.85,1.72,1.72,0,0,0,1.09.31,2.56,2.56,0,0,0,1.18-.27,2.23,2.23,0,0,0,.84-.74,1.89,1.89,0,0,0,.31-1Zm5.52,3.5a3,3,0,0,1-1.62-.45,3.15,3.15,0,0,1-1.13-1.26,4.15,4.15,0,0,1-.41-1.87,4.11,4.11,0,0,1,.41-1.86,3.1,3.1,0,0,1,1.14-1.26,3.17,3.17,0,0,1,3.15-.08,2.48,2.48,0,0,1,1,.94v-4s0-.06.1-.08a.71.71,0,0,1,.26,0c.44,0,.67.31.67.92v8.42c0,.33-.15.49-.46.49h-.1c-.3,0-.44-.16-.44-.46s0-.49,0-.89a2.92,2.92,0,0,1-1,1.08,2.88,2.88,0,0,1-1.5.38Zm2.5-4.65a2.57,2.57,0,0,0-.87-1.2,2.31,2.31,0,0,0-1.43-.43,2.13,2.13,0,0,0-1.68.74,2.89,2.89,0,0,0-.64,2,3.3,3.3,0,0,0,.29,1.4,2.29,2.29,0,0,0,.83,1,2.13,2.13,0,0,0,1.19.35,2.31,2.31,0,0,0,1.16-.3,2.18,2.18,0,0,0,1.15-1.94Zm2.44,1.11a3.92,3.92,0,0,1,.43-1.86,3.27,3.27,0,0,1,3-1.76,3.23,3.23,0,0,1,1.66.43,2.85,2.85,0,0,1,1.1,1.18,4,4,0,0,1,.38,1.77v.1c0,.12,0,.21-.08.25a.39.39,0,0,1-.28.08H252.7a1.15,1.15,0,0,0,0,.2,2.53,2.53,0,0,0,.78,1.66,2.49,2.49,0,0,0,3.94-.63.34.34,0,0,1,.19,0,.75.75,0,0,1,.28.17.48.48,0,0,1,.12.33.87.87,0,0,1-.14.41,1.67,1.67,0,0,1-.41.44,2.71,2.71,0,0,1-.94.52,4,4,0,0,1-1.34.21,3.71,3.71,0,0,1-1.82-.44,3.11,3.11,0,0,1-1.23-1.26,3.82,3.82,0,0,1-.43-1.84Zm5.5-.56a2.36,2.36,0,0,0-.61-1.61,2,2,0,0,0-1.51-.61,2.2,2.2,0,0,0-1.58.61,2.71,2.71,0,0,0-.79,1.61Zm2.31,3.39a1,1,0,0,1-.41-.69.45.45,0,0,1,.09-.28.91.91,0,0,1,.21-.18.37.37,0,0,1,.14-.05,2.44,2.44,0,0,0,.94.79,3.13,3.13,0,0,0,1.39.29,2.16,2.16,0,0,0,1.25-.31.94.94,0,0,0,.45-.82.82.82,0,0,0-.22-.61,1.52,1.52,0,0,0-.59-.33,10.21,10.21,0,0,0-1.09-.28,8.51,8.51,0,0,1-1.19-.33,2,2,0,0,1-.84-.55,1.49,1.49,0,0,1-.34-1,1.83,1.83,0,0,1,.71-1.49,2.92,2.92,0,0,1,1.89-.58,3.88,3.88,0,0,1,1.34.22,2.16,2.16,0,0,1,.89.56,1,1,0,0,1,.19.26.64.64,0,0,1,.07.28.45.45,0,0,1-.09.28.66.66,0,0,1-.22.19c-.08,0-.12.06-.13,0a2.12,2.12,0,0,0-.83-.73,2.6,2.6,0,0,0-1.21-.29,2,2,0,0,0-1.21.32,1,1,0,0,0-.44.81.74.74,0,0,0,.22.57,1.43,1.43,0,0,0,.57.33,9.93,9.93,0,0,0,1.06.28,11.72,11.72,0,0,1,1.26.35,2.13,2.13,0,0,1,.85.57,1.45,1.45,0,0,1,.36,1,1.84,1.84,0,0,1-.74,1.52,3.24,3.24,0,0,1-2,.56,4.08,4.08,0,0,1-1.37-.2,2.86,2.86,0,0,1-1-.51Z"/><line class="cls-4" x1="104.8" y1="170.93" x2="104.8" y2="176.91"/><path d="M105.15,191.29c-.29,0-.44-.17-.44-.5v-7.26a1.27,1.27,0,0,1-.45.38,1.32,1.32,0,0,1-.6.13,1.17,1.17,0,0,1-.82-.28.78.78,0,0,1-.23-.55.59.59,0,0,1,.07-.29.78.78,0,0,1,.14-.2c.05,0,.09-.06.11-.05a1,1,0,0,0,.82.34,1.12,1.12,0,0,0,.79-.32,1.16,1.16,0,0,0,.37-.8h.39c.31,0,.47.17.47.5v8.4c0,.33-.16.5-.47.5Z"/><line class="cls-4" x1="155.82" y1="170.93" x2="155.82" y2="176.91"/><path d="M153.41,191.35a.78.78,0,0,1-.53-.15.58.58,0,0,1-.17-.47v-.36a3,3,0,0,1,.39-1.57,3.6,3.6,0,0,1,1-1.08,13.79,13.79,0,0,1,1.48-.88c.61-.31,1.06-.56,1.33-.73a2.89,2.89,0,0,0,.71-.64,1.42,1.42,0,0,0,.3-.91,1.58,1.58,0,0,0-.54-1.25,2.63,2.63,0,0,0-3.1.07,2.76,2.76,0,0,0-.79,1.37s-.07,0-.2,0a.73.73,0,0,1-.36-.16.49.49,0,0,1-.16-.4,1.56,1.56,0,0,1,.19-.68,2.61,2.61,0,0,1,.54-.72,3.48,3.48,0,0,1,1.05-.66,3.78,3.78,0,0,1,1.39-.25,3.19,3.19,0,0,1,2.23.73,2.47,2.47,0,0,1,.81,1.94,2.31,2.31,0,0,1-.34,1.28,3.2,3.2,0,0,1-.88.88,15.18,15.18,0,0,1-1.45.8,11,11,0,0,0-1.29.71,3.18,3.18,0,0,0-.84.79,2.1,2.1,0,0,0-.38,1.08l0,.28h4.87c.34,0,.51.15.51.44v.08q0,.45-.51.45Z"/><line class="cls-4" x1="206.85" y1="170.93" x2="206.85" y2="176.91"/><path d="M206.6,191.49a4.49,4.49,0,0,1-1.52-.24,3.32,3.32,0,0,1-1.08-.64,2.1,2.1,0,0,1-.5-.6,1.12,1.12,0,0,1-.17-.56.48.48,0,0,1,.14-.38.55.55,0,0,1,.31-.18c.11,0,.17,0,.18,0a2.3,2.3,0,0,0,.94,1.25,3.11,3.11,0,0,0,1.7.46,2.62,2.62,0,0,0,1.69-.51,1.62,1.62,0,0,0,.63-1.34,1.64,1.64,0,0,0-.6-1.37,2.65,2.65,0,0,0-1.72-.49h-.81c-.33,0-.5-.12-.5-.38v-.09c0-.27.16-.4.47-.4h1a2.24,2.24,0,0,0,1.45-.42,1.48,1.48,0,0,0,.52-1.19,1.46,1.46,0,0,0-.56-1.19,2.47,2.47,0,0,0-1.54-.44,2.52,2.52,0,0,0-1.45.41,2.4,2.4,0,0,0-.9,1s-.07,0-.19,0a1,1,0,0,1-.31-.2.48.48,0,0,1-.13-.35.92.92,0,0,1,.15-.44,2.74,2.74,0,0,1,.39-.48,3.38,3.38,0,0,1,1.07-.62,4,4,0,0,1,1.4-.24,3.64,3.64,0,0,1,2.3.65,2.19,2.19,0,0,1,.83,1.81,2,2,0,0,1-.43,1.29,2.31,2.31,0,0,1-1.22.73,2.67,2.67,0,0,1,1.4.87,2.31,2.31,0,0,1,.51,1.52,2.44,2.44,0,0,1-.91,2,3.87,3.87,0,0,1-2.49.73Z"/><line class="cls-4" x1="257.87" y1="170.93" x2="257.87" y2="176.91"/><path d="M259.4,191.3a.39.39,0,0,1-.32-.14.56.56,0,0,1-.12-.36v-2.19h-4a.76.76,0,0,1-.5-.15.43.43,0,0,1-.19-.37v-.26a.84.84,0,0,1,.08-.34,2.23,2.23,0,0,1,.25-.4l3.61-4.67a1.63,1.63,0,0,1,.41-.42,1,1,0,0,1,.54-.11.93.93,0,0,1,.63.17.67.67,0,0,1,.19.54v5.1h1.18q.48,0,.48.42v.07q0,.42-.48.42H260v2.19c0,.34-.15.5-.46.5Zm-.4-3.6v-4.88l-3.76,4.88Z"/><line class="cls-4" x1="308.9" y1="170.93" x2="308.9" y2="176.91"/><path d="M308.75,191.33a4.45,4.45,0,0,1-1.45-.23,3.47,3.47,0,0,1-1.11-.61,2.47,2.47,0,0,1-.44-.49.88.88,0,0,1-.16-.48.47.47,0,0,1,.12-.32A.7.7,0,0,1,306,189c.09,0,.15,0,.17,0a2.57,2.57,0,0,0,1,1.05,3.18,3.18,0,0,0,1.58.38,2.52,2.52,0,0,0,1.73-.56,2.1,2.1,0,0,0,0-3,2.4,2.4,0,0,0-1.64-.54,3.66,3.66,0,0,0-2.24.67.64.64,0,0,1-.68-.7v-3.76a.69.69,0,0,1,.16-.46.58.58,0,0,1,.43-.17h4.66q.51,0,.51.45v.07c0,.29-.17.43-.51.43H307v3.08a4.26,4.26,0,0,1,2.05-.5,3.32,3.32,0,0,1,2.3.78,2.68,2.68,0,0,1,.87,2.1,2.78,2.78,0,0,1-.92,2.22,3.67,3.67,0,0,1-2.5.81Z"/><line class="cls-4" x1="359.92" y1="170.93" x2="359.92" y2="176.91"/><path d="M360.18,191.49a3.26,3.26,0,0,1-2.64-1.13,4.71,4.71,0,0,1-1-3.12v-1a5.68,5.68,0,0,1,.45-2.36,3.25,3.25,0,0,1,1.27-1.5,3.62,3.62,0,0,1,2-.52,4.2,4.2,0,0,1,1.34.2,2.93,2.93,0,0,1,1,.53,1.46,1.46,0,0,1,.36.44,1,1,0,0,1,.12.42.48.48,0,0,1-.1.31,1.16,1.16,0,0,1-.25.2c-.09,0-.14.06-.16,0a2.7,2.7,0,0,0-.9-.91,2.59,2.59,0,0,0-1.34-.33,2.4,2.4,0,0,0-1.84.73,3.4,3.4,0,0,0-.79,2.12c0,.18,0,.57,0,1.18a3.29,3.29,0,0,1,1.16-.91,3.43,3.43,0,0,1,1.58-.36,3.21,3.21,0,0,1,2.22.76,2.56,2.56,0,0,1,.84,2v.06A3,3,0,0,1,363,190a2.89,2.89,0,0,1-1.16,1.11,3.49,3.49,0,0,1-1.69.4Zm0-.88a2.29,2.29,0,0,0,1.63-.58,2,2,0,0,0,.63-1.55v-.07a1.89,1.89,0,0,0-.58-1.49,2.35,2.35,0,0,0-1.63-.52,3,3,0,0,0-1.47.37,2.74,2.74,0,0,0-1,.95l0,.24a3.31,3.31,0,0,0,.76,2,2.22,2.22,0,0,0,1.68.68Z"/><circle class="cls-7" cx="53.78" cy="173.92" r="2.99" transform="translate(-31.92 13.31) rotate(-10.9)"/><path d="M53.75,191.49a3.54,3.54,0,0,1-1.94-.52,3.42,3.42,0,0,1-1.27-1.5,5.46,5.46,0,0,1-.44-2.3v-.95a5.49,5.49,0,0,1,.44-2.3,3.32,3.32,0,0,1,1.28-1.5,3.87,3.87,0,0,1,3.91,0A3.29,3.29,0,0,1,57,183.91a5.49,5.49,0,0,1,.45,2.3v.93a5.53,5.53,0,0,1-.46,2.31A3.47,3.47,0,0,1,55.72,191a3.63,3.63,0,0,1-2,.53Zm0-.92a2.24,2.24,0,0,0,1.91-.89,4,4,0,0,0,.69-2.49v-1a4,4,0,0,0-.69-2.51,2.28,2.28,0,0,0-1.91-.9,2.24,2.24,0,0,0-1.9.89,4,4,0,0,0-.68,2.49v1a4.1,4.1,0,0,0,.68,2.5,2.26,2.26,0,0,0,1.9.9Z"/><circle class="cls-7" cx="410.95" cy="173.92" r="2.99" transform="translate(-28.97 99.07) rotate(-13.28)"/><path d="M409.53,191.23a.68.68,0,0,1-.31-.08A.62.62,0,0,1,409,191c-.06-.06-.07-.11-.05-.14l4.13-7.93h-4.91a.48.48,0,0,1-.36-.13.45.45,0,0,1-.13-.33v-.09a.49.49,0,0,1,.13-.34.52.52,0,0,1,.36-.12h5.43a.8.8,0,0,1,.53.14.49.49,0,0,1,.14.36v.1a.77.77,0,0,1-.07.32l-.23.47-3.88,7.56a.59.59,0,0,1-.55.39Z"/></svg>