<svg id="Camada_1" data-name="Camada 1" xmlns="http://www.w3.org/2000/svg" viewBox="0 0 129.64 87.18"><defs><style>.cls-1{fill:#e6164d;}.cls-2,.cls-4{fill:none;stroke:#000;stroke-miterlimit:10;}.cls-2{stroke-width:0.4px;}.cls-3{font-size:9.96px;font-family:CMR10;}.cls-4{stroke-width:0.57px;}</style></defs><circle class="cls-1" cx="31.28" cy="32.42" r="28.35" transform="matrix(0.98, -0.21, 0.21, 0.98, -6.05, 7.2)"/><circle class="cls-2" cx="31.28" cy="32.42" r="28.35" transform="matrix(0.98, -0.21, 0.21, 0.98, -6.05, 7.2)"/><line class="cls-2" x1="31.28" y1="32.42" x2="31.28" y2="60.77"/><line class="cls-2" x1="31.28" y1="32.42" x2="55.82" y2="18.25"/><line class="cls-2" x1="31.28" y1="32.42" x2="6.73" y2="18.25"/><circle class="cls-1" cx="99.31" cy="32.42" r="28.35" transform="translate(-4.34 19.36) rotate(-10.9)"/><circle class="cls-2" cx="99.31" cy="32.42" r="28.35" transform="translate(-4.34 19.36) rotate(-10.9)"/><line class="cls-2" x1="99.31" y1="32.42" x2="99.31" y2="60.77"/><line class="cls-2" x1="99.31" y1="32.42" x2="123.86" y2="18.25"/><line class="cls-2" x1="99.31" y1="32.42" x2="74.76" y2="18.25"/><text class="cls-3" transform="translate(8.44 70.02)">6</text><line class="cls-4" x1="8.43" y1="72.08" x2="13.42" y2="72.08"/><text class="cls-3" transform="translate(8.44 80.61)">3</text><path d="M20.71,75.82a3,3,0,0,1-1.62-.45A3.07,3.07,0,0,1,18,74.11a4.45,4.45,0,0,1,0-3.73,3,3,0,0,1,2.78-1.71,2.93,2.93,0,0,1,1.5.37,2.44,2.44,0,0,1,1,.95V66s0-.06.11-.08a.66.66,0,0,1,.25,0c.45,0,.68.31.68.92v8.42c0,.33-.16.49-.46.49h-.1a.4.4,0,0,1-.45-.46c0-.19,0-.49,0-.89a3,3,0,0,1-1,1.08,2.79,2.79,0,0,1-1.5.38Zm2.49-4.64A2.6,2.6,0,0,0,22.34,70a2.33,2.33,0,0,0-1.43-.43,2.11,2.11,0,0,0-1.68.75,2.85,2.85,0,0,0-.64,1.95,3.16,3.16,0,0,0,.29,1.4,2.28,2.28,0,0,0,.82,1,2.15,2.15,0,0,0,1.19.35,2.34,2.34,0,0,0,1.17-.3,2.14,2.14,0,0,0,1.14-1.94Zm2.44,2.72a1.76,1.76,0,0,1,1.13-1.68,9,9,0,0,1,3.56-.57h.16v-.29A1.79,1.79,0,0,0,30,70a1.9,1.9,0,0,0-1.37-.47,2.41,2.41,0,0,0-1.3.33,2.12,2.12,0,0,0-.79.89.39.39,0,0,1-.2,0,.55.55,0,0,1-.3-.16.43.43,0,0,1-.13-.35.82.82,0,0,1,.1-.36,1.88,1.88,0,0,1,.31-.4,3,3,0,0,1,1-.59,3.94,3.94,0,0,1,1.39-.22,2.84,2.84,0,0,1,2.08.71,2.67,2.67,0,0,1,.73,2v4.23s0,0-.12.07a.73.73,0,0,1-.25,0q-.54,0-.6-.66,0-.39,0-.63a2.54,2.54,0,0,1-1,1,3.08,3.08,0,0,1-1.52.37,2.54,2.54,0,0,1-1.7-.52,1.69,1.69,0,0,1-.63-1.39Zm4.85-1.58-.24,0a8,8,0,0,0-2.73.4,1.19,1.19,0,0,0-.84,1.13,1,1,0,0,0,.4.85,1.72,1.72,0,0,0,1.09.32,2.53,2.53,0,0,0,1.17-.28,2.09,2.09,0,0,0,.84-.74,1.79,1.79,0,0,0,.31-1Zm7.58,3.5a1.78,1.78,0,0,1-1.42-.53,2.39,2.39,0,0,1-.46-1.62v-4h-.68c-.29,0-.44-.13-.44-.39v-.1c0-.26.15-.39.44-.39h.68v-1.2c0-.34.15-.5.46-.5h.11c.3,0,.45.16.45.5v1.2h1.73q.45,0,.45.39v.09c0,.26-.16.4-.46.4H37.19v3.81a1.84,1.84,0,0,0,.25,1.1.87.87,0,0,0,.77.34,1.17,1.17,0,0,0,1-.53s.05,0,.1,0a.48.48,0,0,1,.13.17.6.6,0,0,1,.06.27.73.73,0,0,1-.26.53,1.68,1.68,0,0,1-1.19.4Zm2.16-3.58a3.75,3.75,0,0,1,.45-1.85,3.26,3.26,0,0,1,1.23-1.27,3.6,3.6,0,0,1,1.81-.45,3.55,3.55,0,0,1,1.79.45,3.23,3.23,0,0,1,1.22,1.29,3.82,3.82,0,0,1,.45,1.86,3.7,3.7,0,0,1-.45,1.83,3.26,3.26,0,0,1-1.23,1.27,3.58,3.58,0,0,1-1.79.45,3.65,3.65,0,0,1-1.81-.45,3.22,3.22,0,0,1-1.23-1.28,3.89,3.89,0,0,1-.44-1.85Zm5.94,0a3,3,0,0,0-.31-1.4,2.39,2.39,0,0,0-.88-1,2.34,2.34,0,0,0-1.26-.35,2.49,2.49,0,0,0-1.27.34,2.39,2.39,0,0,0-.89,1,3.18,3.18,0,0,0,0,2.78,2.52,2.52,0,0,0,.89,1,2.4,2.4,0,0,0,1.27.35A2.34,2.34,0,0,0,45,74.6a2.25,2.25,0,0,0,.88-.95,3,3,0,0,0,.31-1.38Zm5.21-3.6a1.2,1.2,0,0,1,.74.2.64.64,0,0,1,.28.54.63.63,0,0,1-.07.32.49.49,0,0,1-.15.19s-.09.06-.1,0a1.1,1.1,0,0,0-.81-.29,1.32,1.32,0,0,0-1.23.75,4.41,4.41,0,0,0-.41,2.08v2.71c0,.33-.15.49-.44.49h-.12c-.31,0-.47-.16-.47-.49V68.88s0,0,.11-.07a.71.71,0,0,1,.26,0c.35,0,.55.23.6.68s0,.58,0,.75a2.26,2.26,0,0,1,.66-1.15,1.67,1.67,0,0,1,1.12-.38Zm4.51,7.15a1.76,1.76,0,0,1-1.42-.53A2.39,2.39,0,0,1,54,73.67v-4h-.68c-.29,0-.44-.13-.44-.39v-.1c0-.26.15-.39.44-.39H54v-1.2c0-.34.15-.5.46-.5h.11c.3,0,.44.16.44.5v1.2h1.74q.45,0,.45.39v.09c0,.26-.16.4-.46.4H55v3.81a1.93,1.93,0,0,0,.24,1.1A.89.89,0,0,0,56,75a1.17,1.17,0,0,0,1-.53s.05,0,.1,0a.48.48,0,0,1,.13.17.59.59,0,0,1,0,.27.72.72,0,0,1-.25.53,1.68,1.68,0,0,1-1.19.4Zm2.16-1.92a1.76,1.76,0,0,1,1.13-1.68,9,9,0,0,1,3.56-.57h.16v-.29A1.79,1.79,0,0,0,62.42,70a1.9,1.9,0,0,0-1.37-.47,2.39,2.39,0,0,0-1.3.33,2.12,2.12,0,0,0-.79.89.39.39,0,0,1-.2,0,.55.55,0,0,1-.3-.16.44.44,0,0,1-.14-.35.85.85,0,0,1,.11-.36,1.6,1.6,0,0,1,.31-.4,2.9,2.9,0,0,1,1-.59,3.94,3.94,0,0,1,1.39-.22,2.84,2.84,0,0,1,2.08.71,2.67,2.67,0,0,1,.73,2v4.23s0,0-.12.07a.73.73,0,0,1-.25,0c-.36,0-.56-.22-.61-.66,0-.26,0-.47,0-.63a2.54,2.54,0,0,1-1,1,3.08,3.08,0,0,1-1.52.37,2.54,2.54,0,0,1-1.7-.52,1.69,1.69,0,0,1-.63-1.39Zm4.85-1.58-.24,0a8,8,0,0,0-2.74.4,1.19,1.19,0,0,0-.84,1.13,1,1,0,0,0,.41.85,1.7,1.7,0,0,0,1.09.32,2.53,2.53,0,0,0,1.17-.28,2.09,2.09,0,0,0,.84-.74,1.79,1.79,0,0,0,.31-1Zm5.54-1.53c-.31,0-.46-.14-.46-.42v-.1c0-.28.15-.41.46-.41h5.08a.5.5,0,0,1,.36.1.45.45,0,0,1,.11.31v.1c0,.28-.16.42-.47.42Zm0,3.23c-.31,0-.46-.14-.46-.42v-.1c0-.28.15-.42.46-.42h5.08a.5.5,0,0,1,.36.11.43.43,0,0,1,.11.31v.1c0,.28-.16.42-.47.42Zm10,1.65a.79.79,0,0,1-.54-.15.58.58,0,0,1-.16-.47v-.36a3,3,0,0,1,.39-1.57,3.47,3.47,0,0,1,1-1.08,12.86,12.86,0,0,1,1.48-.88c.61-.31,1-.56,1.33-.73a2.7,2.7,0,0,0,.71-.64,1.42,1.42,0,0,0,.3-.91,1.56,1.56,0,0,0-.55-1.25,2.23,2.23,0,0,0-1.5-.47,2.25,2.25,0,0,0-1.59.54,2.69,2.69,0,0,0-.79,1.37s-.07,0-.2,0a.73.73,0,0,1-.36-.16.49.49,0,0,1-.16-.4,1.56,1.56,0,0,1,.19-.68,2.61,2.61,0,0,1,.54-.72,3.48,3.48,0,0,1,1-.66A3.78,3.78,0,0,1,81,66.21a3.19,3.19,0,0,1,2.23.73A2.47,2.47,0,0,1,84,68.88a2.31,2.31,0,0,1-.34,1.28,3,3,0,0,1-.89.88,16.15,16.15,0,0,1-1.44.8,12.12,12.12,0,0,0-1.3.71,3.18,3.18,0,0,0-.84.79,2.09,2.09,0,0,0-.37,1.08l0,.29h4.87c.34,0,.51.14.51.43v.08q0,.45-.51.45Zm11.79.15a1.76,1.76,0,0,1-1.41-.53,2.39,2.39,0,0,1-.46-1.62v-4h-.68c-.3,0-.44-.13-.44-.39v-.1c0-.26.14-.39.44-.39h.68v-1.2c0-.34.15-.5.45-.5h.12c.3,0,.44.16.44.5v1.2h1.74c.3,0,.44.13.44.39v.09c0,.26-.15.4-.45.4H89.37v3.81a1.93,1.93,0,0,0,.24,1.1.89.89,0,0,0,.78.34,1.17,1.17,0,0,0,1-.53s0,0,.1,0a.48.48,0,0,1,.13.17.76.76,0,0,1,0,.27.72.72,0,0,1-.25.53,1.69,1.69,0,0,1-1.2.4Zm2.17-3.58a3.75,3.75,0,0,1,.45-1.85,3.2,3.2,0,0,1,1.23-1.27,3.6,3.6,0,0,1,1.81-.45,3.49,3.49,0,0,1,1.78.45,3.32,3.32,0,0,1,1.23,1.29,3.81,3.81,0,0,1,.44,1.86,3.7,3.7,0,0,1-.44,1.83,3.34,3.34,0,0,1-1.23,1.27,3.83,3.83,0,0,1-3.6,0,3.22,3.22,0,0,1-1.23-1.28,3.89,3.89,0,0,1-.44-1.85Zm5.94,0a3,3,0,0,0-.31-1.4,2.54,2.54,0,0,0-.88-1,2.34,2.34,0,0,0-1.26-.35,2.49,2.49,0,0,0-1.27.34,2.32,2.32,0,0,0-.89,1,3.18,3.18,0,0,0,0,2.78,2.45,2.45,0,0,0,.89,1A2.4,2.4,0,0,0,95.9,75a2.34,2.34,0,0,0,1.26-.35,2.38,2.38,0,0,0,.88-.95,3,3,0,0,0,.31-1.38Zm5.21-3.6a1.22,1.22,0,0,1,.74.2.66.66,0,0,1,.28.54.63.63,0,0,1-.07.32.49.49,0,0,1-.15.19c-.06,0-.09.06-.1,0a1.11,1.11,0,0,0-.82-.29,1.31,1.31,0,0,0-1.22.75,4.29,4.29,0,0,0-.41,2.08v2.71c0,.33-.15.49-.45.49h-.11c-.32,0-.47-.16-.47-.49V68.88s0,0,.11-.07a.71.71,0,0,1,.26,0c.35,0,.55.23.6.68s0,.58,0,.75a2.13,2.13,0,0,1,.66-1.15,1.67,1.67,0,0,1,1.12-.38Zm4.5,7.15a1.76,1.76,0,0,1-1.41-.53,2.39,2.39,0,0,1-.47-1.62v-4h-.67q-.45,0-.45-.39v-.1q0-.39.45-.39h.67v-1.2c0-.34.16-.5.46-.5h.12c.29,0,.44.16.44.5v1.2h1.74c.29,0,.44.13.44.39v.09c0,.26-.15.4-.46.4h-1.73v3.81a1.93,1.93,0,0,0,.24,1.1.88.88,0,0,0,.78.34,1.17,1.17,0,0,0,1-.53s0,0,.1,0a.46.46,0,0,1,.12.17.6.6,0,0,1,.06.27.69.69,0,0,1-.26.53,1.65,1.65,0,0,1-1.19.4Zm2.17-1.92a1.75,1.75,0,0,1,1.13-1.68,9,9,0,0,1,3.56-.57h.16v-.29A1.79,1.79,0,0,0,114.6,70a1.9,1.9,0,0,0-1.37-.47,2.39,2.39,0,0,0-1.3.33,2.15,2.15,0,0,0-.8.89.35.35,0,0,1-.19,0,.55.55,0,0,1-.3-.16.44.44,0,0,1-.14-.35.85.85,0,0,1,.11-.36,1.4,1.4,0,0,1,.31-.4,3,3,0,0,1,1-.59,4,4,0,0,1,1.4-.22,2.85,2.85,0,0,1,2.08.71,2.71,2.71,0,0,1,.73,2v4.23s0,0-.12.07a.78.78,0,0,1-.26,0q-.52,0-.6-.66,0-.39,0-.63a2.54,2.54,0,0,1-1,1,3.06,3.06,0,0,1-1.52.37,2.58,2.58,0,0,1-1.7-.52,1.71,1.71,0,0,1-.62-1.39Zm4.85-1.58-.25,0a8,8,0,0,0-2.73.4,1.19,1.19,0,0,0-.84,1.13,1,1,0,0,0,.4.85,1.74,1.74,0,0,0,1.09.32,2.57,2.57,0,0,0,1.18-.28,2.23,2.23,0,0,0,.84-.74,1.79,1.79,0,0,0,.31-1Zm2.7,2.79a1,1,0,0,1-.42-.69.4.4,0,0,1,.09-.27.6.6,0,0,1,.21-.18c.08,0,.12-.06.14,0a2.51,2.51,0,0,0,.94.78,3.13,3.13,0,0,0,1.39.29,2.16,2.16,0,0,0,1.25-.31,1,1,0,0,0,.46-.82.78.78,0,0,0-.23-.6,1.41,1.41,0,0,0-.59-.34,9.6,9.6,0,0,0-1.09-.28,8.64,8.64,0,0,1-1.19-.32,2.11,2.11,0,0,1-.84-.56,1.54,1.54,0,0,1-.34-1,1.83,1.83,0,0,1,.71-1.49,2.92,2.92,0,0,1,1.89-.57,4,4,0,0,1,1.35.21,2.19,2.19,0,0,1,.88.56,1,1,0,0,1,.19.27.61.61,0,0,1,.07.28.44.44,0,0,1-.09.27.5.5,0,0,1-.22.19c-.08,0-.12.06-.13,0a2.21,2.21,0,0,0-.83-.73,2.6,2.6,0,0,0-1.21-.29,2,2,0,0,0-1.21.32,1,1,0,0,0-.44.82.72.72,0,0,0,.22.56,1.43,1.43,0,0,0,.57.33,9.93,9.93,0,0,0,1.06.28,11.72,11.72,0,0,1,1.26.35,2.13,2.13,0,0,1,.85.57,1.45,1.45,0,0,1,.36,1,1.82,1.82,0,0,1-.74,1.52,3.16,3.16,0,0,1-2,.56,4.08,4.08,0,0,1-1.37-.2,2.72,2.72,0,0,1-1-.51Z"/></svg>