<svg id="Camada_1" data-name="Camada 1" xmlns="http://www.w3.org/2000/svg" viewBox="0 0 279.78 86.69"><defs><style>.cls-1{fill:#95d4e9;}.cls-2{fill:none;stroke:#000;stroke-miterlimit:10;stroke-width:0.4px;}.cls-3{fill:#feede0;}</style></defs><path class="cls-1" d="M106.64,43.35A28.34,28.34,0,0,0,64.12,18.8L78.29,43.35Z"/><path class="cls-2" d="M106.64,43.35A28.34,28.34,0,0,0,64.12,18.8L78.29,43.35Z"/><path class="cls-1" d="M64.12,18.8a28.35,28.35,0,0,0,0,49.1L78.29,43.35Z"/><path class="cls-2" d="M64.12,18.8a28.35,28.35,0,0,0,0,49.1L78.29,43.35Z"/><circle class="cls-2" cx="78.29" cy="43.35" r="28.35" transform="translate(-11.1 47.63) rotate(-31.72)"/><path class="cls-3" d="M229.84,43.35A28.35,28.35,0,1,0,187.32,67.9L201.5,43.35Z"/><path class="cls-2" d="M229.84,43.35A28.35,28.35,0,1,0,187.32,67.9L201.5,43.35Z"/><line class="cls-2" x1="201.5" y1="43.35" x2="229.84" y2="43.35"/><line class="cls-2" x1="201.5" y1="43.35" x2="226.04" y2="29.17"/><line class="cls-2" x1="201.5" y1="43.35" x2="215.67" y2="18.8"/><line class="cls-2" x1="201.5" y1="43.35" x2="201.5" y2="15"/><line class="cls-2" x1="201.5" y1="43.35" x2="187.32" y2="18.8"/><line class="cls-2" x1="201.5" y1="43.35" x2="176.95" y2="29.17"/><line class="cls-2" x1="201.5" y1="43.35" x2="173.15" y2="43.35"/><line class="cls-2" x1="201.5" y1="43.35" x2="176.95" y2="57.52"/><line class="cls-2" x1="201.5" y1="43.35" x2="187.32" y2="67.9"/><line class="cls-2" x1="201.5" y1="43.35" x2="201.5" y2="71.69"/><line class="cls-2" x1="201.5" y1="43.35" x2="215.67" y2="67.9"/><line class="cls-2" x1="201.5" y1="43.35" x2="226.04" y2="57.52"/><line class="cls-2" x1="201.5" y1="43.35" x2="229.84" y2="43.35"/><circle class="cls-2" cx="201.5" cy="43.35" r="28.35" transform="translate(-4.57 47.45) rotate(-13.28)"/></svg>