<svg id="Camada_1" data-name="Camada 1" xmlns="http://www.w3.org/2000/svg" viewBox="0 0 185.51 109.79"><defs><style>.cls-1{fill:#f28c5e;}.cls-2{fill:#95d4e9;}.cls-3{fill:none;stroke:#000;stroke-miterlimit:10;stroke-width:0.4px;}</style></defs><rect class="cls-1" x="13.38" y="15.21" width="79.37" height="79.37"/><rect class="cls-2" x="92.75" y="15.21" width="39.69" height="39.69"/><polygon class="cls-2" points="132.44 15.21 172.13 15.21 172.13 35.05 132.44 34.65 132.44 15.21"/><line class="cls-3" x1="13.38" y1="15.21" x2="13.38" y2="94.58"/><line class="cls-3" x1="13.38" y1="94.58" x2="92.75" y2="94.58"/><line class="cls-3" x1="92.75" y1="94.58" x2="172.12" y2="94.58"/><line class="cls-3" x1="172.12" y1="94.58" x2="172.12" y2="15.21"/><line class="cls-3" x1="172.12" y1="15.21" x2="13.38" y2="15.21"/><line class="cls-3" x1="92.75" y1="15.21" x2="92.75" y2="54.89"/><line class="cls-3" x1="132.44" y1="15.21" x2="132.44" y2="94.58"/><line class="cls-3" x1="13.38" y1="54.89" x2="172.12" y2="54.89"/><line class="cls-3" x1="13.38" y1="74.74" x2="172.12" y2="74.74"/><line class="cls-3" x1="53.07" y1="15.21" x2="53.07" y2="94.58"/><line class="cls-3" x1="13.38" y1="35.05" x2="172.12" y2="35.05"/><line class="cls-3" x1="92.75" y1="54.89" x2="92.75" y2="94.58"/></svg>