<svg id="Camada_1" data-name="Camada 1" xmlns="http://www.w3.org/2000/svg" viewBox="0 0 476.08 73.47"><defs><style>.cls-1{font-size:14.35px;font-family:CMR12;}.cls-2{fill:none;stroke:#000;stroke-miterlimit:10;stroke-width:0.57px;}</style></defs><text class="cls-1" transform="translate(38.5 31.17)">5</text><line class="cls-2" x1="38.5" y1="37.29" x2="45.52" y2="37.29"/><text class="cls-1" transform="translate(38.5 50.72)">3</text><text class="cls-1" transform="translate(50.7 40.88)">=</text><path d="M77.15,30.67c0,.46,0,.5-.52.5h-8.5c-.48,0-.52-.06-.52-.51V21.82c0-.46.06-.5.5-.5h8.54c.46,0,.5.06.5.5Zm-9-.07h8.4V21.89h-8.4Z"/><line class="cls-2" x1="66.81" y1="37.29" x2="77.97" y2="37.29"/><text class="cls-1" transform="translate(68.87 50.72)">6</text><path d="M18.05,39.07a1.84,1.84,0,0,1,1.13-1.74,8.78,8.78,0,0,1,3.5-.6h.19v-.14a1.6,1.6,0,0,0-.44-1.21A1.75,1.75,0,0,0,21.16,35a2.08,2.08,0,0,0-2,1.17s-.08,0-.24,0a1,1,0,0,1-.44-.21.55.55,0,0,1-.19-.46,1.23,1.23,0,0,1,.47-.86,2.91,2.91,0,0,1,1-.56,4.34,4.34,0,0,1,1.46-.23,3.16,3.16,0,0,1,2.24.72,2.64,2.64,0,0,1,.78,2v4.23s-.06.07-.17.11a1.34,1.34,0,0,1-.35.05.77.77,0,0,1-.82-.63,2.1,2.1,0,0,1-.06-.48,2.59,2.59,0,0,1-1.05.88A3.22,3.22,0,0,1,20.4,41a2.57,2.57,0,0,1-1.72-.53,1.79,1.79,0,0,1-.63-1.43Zm4.82-1.45h-.39a6.88,6.88,0,0,0-2.29.38,1,1,0,0,0-.75,1,.88.88,0,0,0,.35.73,1.46,1.46,0,0,0,1,.28,2.24,2.24,0,0,0,1.53-.53,1.71,1.71,0,0,0,.59-1.34Zm2.61,6.1c-.44,0-.66-.19-.66-.58a.61.61,0,0,1,.09-.31c.05-.11.1-.16.13-.17a3.18,3.18,0,0,0,1.62-.94,4.7,4.7,0,0,0,1.05-1.78,7.59,7.59,0,0,0,.35-2.33,7.37,7.37,0,0,0-.35-2.29,4.74,4.74,0,0,0-1.05-1.79A3.18,3.18,0,0,0,25,32.6a.48.48,0,0,1-.13-.19.67.67,0,0,1-.09-.31c0-.39.22-.58.66-.58a2.53,2.53,0,0,1,1.23.36,4.41,4.41,0,0,1,1.18,1A6.76,6.76,0,0,1,29.07,35a7.88,7.88,0,0,1,.44,2.65,7.79,7.79,0,0,1-.43,2.65,6.46,6.46,0,0,1-1.15,2.07,4.35,4.35,0,0,1-1.2,1,2.57,2.57,0,0,1-1.25.36Z"/><text class="cls-1" transform="translate(113.8 31.17)">2</text><line class="cls-2" x1="113.8" y1="37.29" x2="120.82" y2="37.29"/><text class="cls-1" transform="translate(113.8 50.72)">3</text><text class="cls-1" transform="translate(126 40.88)">=</text><text class="cls-1" transform="translate(144.18 31.17)">6</text><line class="cls-2" x1="142.11" y1="37.29" x2="153.27" y2="37.29"/><path d="M152.45,50.22c0,.45,0,.5-.52.5h-8.5c-.48,0-.52-.06-.52-.52V41.37c0-.46.06-.51.5-.51H152c.46,0,.5.06.5.51Zm-9-.08h8.39v-8.7h-8.39Z"/><path d="M95.16,40.26c0,.45-.21.67-.62.67h-.16c-.42,0-.63-.22-.63-.67V31.18s.06-.06.16-.1a1,1,0,0,1,.36-.06.84.84,0,0,1,.64.27,1.35,1.35,0,0,1,.26,1v2.81a2.8,2.8,0,0,1,2.41-1.25,3.08,3.08,0,0,1,2.82,1.72,4.58,4.58,0,0,1,0,3.79,3.06,3.06,0,0,1-1.17,1.29,3.11,3.11,0,0,1-1.69.46,3,3,0,0,1-1.46-.34,2.3,2.3,0,0,1-.92-.88Zm4.27-2.83a2.87,2.87,0,0,0-.27-1.26,2.13,2.13,0,0,0-.75-.87,2,2,0,0,0-1.1-.32,2.18,2.18,0,0,0-2.15,1.44V38a1.84,1.84,0,0,0,.31,1,2,2,0,0,0,.77.7,2.31,2.31,0,0,0,1,.25,2,2,0,0,0,1.56-.68,2.57,2.57,0,0,0,.59-1.78ZM102,43.72c-.44,0-.66-.19-.66-.58a.61.61,0,0,1,.09-.31c.06-.11.1-.16.13-.17a3.25,3.25,0,0,0,1.63-.94,4.81,4.81,0,0,0,1-1.78,7.59,7.59,0,0,0,.35-2.33,7.37,7.37,0,0,0-.35-2.29,4.74,4.74,0,0,0-1-1.79,3.18,3.18,0,0,0-1.62-.93.62.62,0,0,1-.13-.19.67.67,0,0,1-.09-.31c0-.39.22-.58.66-.58a2.53,2.53,0,0,1,1.23.36,4.41,4.41,0,0,1,1.18,1A6.76,6.76,0,0,1,105.59,35a7.88,7.88,0,0,1,.44,2.65,7.79,7.79,0,0,1-.43,2.65,6.64,6.64,0,0,1-1.14,2.07,4.54,4.54,0,0,1-1.21,1,2.57,2.57,0,0,1-1.25.36Z"/><text class="cls-1" transform="translate(192.61 31.17)">8</text><line class="cls-2" x1="189.1" y1="37.29" x2="203.15" y2="37.29"/><text class="cls-1" transform="translate(189.1 50.72)">12</text><text class="cls-1" transform="translate(208.33 40.88)">=</text><path d="M234.77,30.67c0,.46,0,.5-.51.5h-8.51c-.47,0-.51-.06-.51-.51V21.82c0-.46,0-.5.5-.5h8.53c.46,0,.5.06.5.5Zm-9-.07h8.39V21.89h-8.39Z"/><line class="cls-2" x1="224.43" y1="37.29" x2="235.59" y2="37.29"/><text class="cls-1" transform="translate(226.5 50.72)">3</text><path d="M168.64,37.42a3.72,3.72,0,0,1,.46-1.86,3.33,3.33,0,0,1,1.29-1.29,3.64,3.64,0,0,1,1.83-.47,3.46,3.46,0,0,1,2.26.72,1.94,1.94,0,0,1,.52.6,1.27,1.27,0,0,1,.18.59.52.52,0,0,1-.19.42,1.07,1.07,0,0,1-.41.21c-.14,0-.23,0-.25,0A2.06,2.06,0,0,0,172.25,35a2.2,2.2,0,0,0-1.16.32,2.27,2.27,0,0,0-.81.87,2.55,2.55,0,0,0-.29,1.24,2.6,2.6,0,0,0,.29,1.26,2.3,2.3,0,0,0,.81.88,2.19,2.19,0,0,0,1.16.31,2.06,2.06,0,0,0,2.08-1.35s.11,0,.25,0a.85.85,0,0,1,.41.21.55.55,0,0,1,.19.44,1.13,1.13,0,0,1-.19.58,2.1,2.1,0,0,1-.53.6,2.88,2.88,0,0,1-1,.52,4,4,0,0,1-1.29.19,3.71,3.71,0,0,1-1.85-.46,3.31,3.31,0,0,1-1.27-1.3,3.79,3.79,0,0,1-.46-1.88Zm7.34,6.3c-.44,0-.66-.19-.66-.58a.61.61,0,0,1,.09-.31c.06-.11.1-.16.13-.17a3.25,3.25,0,0,0,1.63-.94,4.81,4.81,0,0,0,1-1.78,7.29,7.29,0,0,0,.36-2.33,7.09,7.09,0,0,0-.36-2.29,4.74,4.74,0,0,0-1.05-1.79,3.18,3.18,0,0,0-1.62-.93.62.62,0,0,1-.13-.19.67.67,0,0,1-.09-.31c0-.39.22-.58.66-.58a2.5,2.5,0,0,1,1.23.36,4.27,4.27,0,0,1,1.18,1A6.76,6.76,0,0,1,179.57,35a7.64,7.64,0,0,1,.44,2.65,7.79,7.79,0,0,1-.43,2.65,6.64,6.64,0,0,1-1.14,2.07,4.54,4.54,0,0,1-1.21,1,2.57,2.57,0,0,1-1.25.36Z"/><text class="cls-1" transform="translate(267.91 31.17)">9</text><line class="cls-2" x1="264.4" y1="37.29" x2="278.45" y2="37.29"/><text class="cls-1" transform="translate(264.4 50.72)">12</text><text class="cls-1" transform="translate(283.63 40.88)">=</text><text class="cls-1" transform="translate(301.8 31.17)">3</text><line class="cls-2" x1="299.73" y1="37.29" x2="310.89" y2="37.29"/><path d="M310.08,50.22c0,.45-.05.5-.52.5h-8.51c-.47,0-.51-.06-.51-.52V41.37c0-.46,0-.51.5-.51h8.53c.46,0,.51.06.51.51Zm-9-.08h8.39v-8.7h-8.39Z"/><path d="M247.17,41.06a3.07,3.07,0,0,1-2.82-1.73,4.61,4.61,0,0,1,0-3.8,3.06,3.06,0,0,1,1.17-1.27,3.11,3.11,0,0,1,1.69-.46,3,3,0,0,1,1.43.33,2.35,2.35,0,0,1,.94.81V31.18s0-.06.16-.1a1,1,0,0,1,.35-.06c.61,0,.91.41.91,1.22v8c0,.45-.21.67-.63.67h-.15c-.42,0-.63-.22-.63-.67v-.53a2.74,2.74,0,0,1-2.42,1.33Zm2.42-4.66A2.14,2.14,0,0,0,247.47,35a2,2,0,0,0-1.57.67,2.63,2.63,0,0,0-.58,1.78,2.92,2.92,0,0,0,.27,1.27,2.13,2.13,0,0,0,.75.87,2,2,0,0,0,1.1.32,2.23,2.23,0,0,0,1.86-1,1.94,1.94,0,0,0,.29-1Zm3,7.32c-.44,0-.66-.19-.66-.58a.61.61,0,0,1,.09-.31c.06-.11.1-.16.13-.17a3.25,3.25,0,0,0,1.63-.94,4.81,4.81,0,0,0,1-1.78,7.29,7.29,0,0,0,.36-2.33,7.09,7.09,0,0,0-.36-2.29,4.74,4.74,0,0,0-1.05-1.79,3.18,3.18,0,0,0-1.62-.93.62.62,0,0,1-.13-.19.67.67,0,0,1-.09-.31c0-.39.22-.58.66-.58a2.5,2.5,0,0,1,1.23.36,4.27,4.27,0,0,1,1.18,1A6.76,6.76,0,0,1,256.19,35a7.64,7.64,0,0,1,.45,2.65,7.8,7.8,0,0,1-.44,2.65,6.44,6.44,0,0,1-1.14,2.07,4.54,4.54,0,0,1-1.21,1,2.54,2.54,0,0,1-1.25.36Z"/><text class="cls-1" transform="translate(343.21 31.17)">9</text><line class="cls-2" x1="339.7" y1="37.29" x2="353.75" y2="37.29"/><text class="cls-1" transform="translate(339.7 50.72)">12</text><text class="cls-1" transform="translate(358.93 40.88)">=</text><text class="cls-1" transform="translate(377.1 31.17)">6</text><line class="cls-2" x1="375.03" y1="37.29" x2="386.19" y2="37.29"/><path d="M385.38,50.22c0,.45-.05.5-.52.5h-8.51c-.47,0-.51-.06-.51-.52V41.37c0-.46.06-.51.5-.51h8.53c.46,0,.51.06.51.51Zm-9-.08h8.39v-8.7h-8.39Z"/><path d="M319.24,37.46a3.78,3.78,0,0,1,.46-1.87A3.31,3.31,0,0,1,321,34.28a3.47,3.47,0,0,1,1.81-.48,3.34,3.34,0,0,1,1.73.44,3,3,0,0,1,1.17,1.23,3.89,3.89,0,0,1,.41,1.81v.11a.45.45,0,0,1-.09.32.45.45,0,0,1-.34.1h-5.09a1.61,1.61,0,0,0,0,.25,2.21,2.21,0,0,0,.78,1.37,2.36,2.36,0,0,0,1.54.51,2.65,2.65,0,0,0,1.35-.3,2.28,2.28,0,0,0,.82-.84s.09,0,.22,0a1,1,0,0,1,.36.23.6.6,0,0,1,.16.44.83.83,0,0,1-.2.5,2,2,0,0,1-.56.5,4.39,4.39,0,0,1-4.08.11,3.13,3.13,0,0,1-1.28-1.27,3.72,3.72,0,0,1-.46-1.88Zm5.47-.61a2.15,2.15,0,0,0-.58-1.44,1.84,1.84,0,0,0-1.38-.53,2,2,0,0,0-1.44.55,2.31,2.31,0,0,0-.74,1.42Zm2.55,6.87c-.44,0-.66-.19-.66-.58a.61.61,0,0,1,.09-.31.39.39,0,0,1,.12-.17,3.17,3.17,0,0,0,1.63-.94,4.68,4.68,0,0,0,1-1.78,7.29,7.29,0,0,0,.36-2.33,7.09,7.09,0,0,0-.36-2.29,4.86,4.86,0,0,0-1-1.79,3.16,3.16,0,0,0-1.63-.93,1,1,0,0,1-.21-.5c0-.39.22-.58.66-.58a2.53,2.53,0,0,1,1.23.36,4.41,4.41,0,0,1,1.18,1A6.76,6.76,0,0,1,330.85,35a7.88,7.88,0,0,1,.44,2.65,7.79,7.79,0,0,1-.43,2.65,6.66,6.66,0,0,1-1.15,2.07,4.35,4.35,0,0,1-1.2,1,2.57,2.57,0,0,1-1.25.36Z"/><text class="cls-1" transform="translate(415 31.17)">6</text><line class="cls-2" x1="415" y1="37.29" x2="422.03" y2="37.29"/><text class="cls-1" transform="translate(415 50.72)">8</text><text class="cls-1" transform="translate(427.21 40.88)">=</text><path d="M455.1,30.67c0,.46,0,.5-.52.5h-8.5c-.48,0-.52-.06-.52-.51V21.82c0-.46.06-.5.5-.5h8.54c.46,0,.5.06.5.5Zm-9-.07h8.39V21.89h-8.39Z"/><line class="cls-2" x1="443.31" y1="37.29" x2="457.36" y2="37.29"/><text class="cls-1" transform="translate(443.31 50.72)">12</text><path d="M395.63,35.14h-.8a.71.71,0,0,1-.48-.14.53.53,0,0,1-.15-.41v-.1a.46.46,0,0,1,.15-.38.71.71,0,0,1,.48-.13h.8v-.52a2.78,2.78,0,0,1,.57-1.91,2.46,2.46,0,0,1,2.8-.34.74.74,0,0,1,.38.64.84.84,0,0,1-.24.56c-.06.05-.1.07-.11.06a1.24,1.24,0,0,0-.44-.28,1.56,1.56,0,0,0-.59-.12.82.82,0,0,0-.75.34,1.84,1.84,0,0,0-.24,1.06V34h1.16a.71.71,0,0,1,.48.13.49.49,0,0,1,.15.4v.1a.51.51,0,0,1-.15.4.71.71,0,0,1-.48.13H397v5.12a.72.72,0,0,1-.16.52.65.65,0,0,1-.46.15h-.14a.58.58,0,0,1-.65-.67Zm5.27,8.58c-.44,0-.66-.19-.66-.58a.6.6,0,0,1,.08-.31c.06-.11.1-.16.13-.17a3.21,3.21,0,0,0,1.63-.94,4.81,4.81,0,0,0,1-1.78,7.29,7.29,0,0,0,.36-2.33,7.09,7.09,0,0,0-.36-2.29,4.74,4.74,0,0,0-1.05-1.79,3.18,3.18,0,0,0-1.62-.93.62.62,0,0,1-.13-.19.65.65,0,0,1-.08-.31c0-.39.22-.58.66-.58a2.47,2.47,0,0,1,1.22.36,4.45,4.45,0,0,1,1.19,1A6.75,6.75,0,0,1,404.48,35a7.64,7.64,0,0,1,.45,2.65,8,8,0,0,1-.43,2.65,6.66,6.66,0,0,1-1.15,2.07,4.39,4.39,0,0,1-1.21,1,2.54,2.54,0,0,1-1.24.36Z"/></svg>