<svg id="Camada_1" data-name="Camada 1" xmlns="http://www.w3.org/2000/svg" viewBox="0 0 442.29 365.31"><defs><style>.cls-1{font-size:14.35px;font-family:CMR12;}.cls-2{fill:none;stroke:#000;stroke-miterlimit:10;stroke-width:0.57px;}</style></defs><text class="cls-1" transform="translate(58.2 23.35)">3</text><line class="cls-2" x1="54.69" y1="29.46" x2="68.74" y2="29.46"/><text class="cls-1" transform="translate(54.69 42.89)">12</text><path d="M92,32.18c0,.8-.08.87-.9.87H76.45c-.82,0-.89-.1-.89-.89V16.89c0-.79.1-.86.86-.86H91.17c.79,0,.87.1.87.86Zm-15.49-.12H91V17H76.55Z"/><text class="cls-1" transform="translate(100.61 23.35)">9</text><line class="cls-2" x1="97.1" y1="29.46" x2="111.14" y2="29.46"/><text class="cls-1" transform="translate(97.1 42.89)">12</text><path d="M34.47,33.24a3.11,3.11,0,0,1-1.66-.45,3.2,3.2,0,0,1-1.16-1.28,4.61,4.61,0,0,1,0-3.8,3.09,3.09,0,0,1,1.17-1.28,3.38,3.38,0,0,1,3.12-.13,2.6,2.6,0,0,1,.94.81V23.35s0-.06.16-.1a1,1,0,0,1,.35-.06c.6,0,.91.41.91,1.22v8c0,.45-.21.68-.64.68h-.14c-.42,0-.63-.23-.63-.68V31.9a2.75,2.75,0,0,1-2.42,1.34Zm2.42-4.67a2.29,2.29,0,0,0-.81-1,2.25,2.25,0,0,0-1.31-.38,2,2,0,0,0-1.57.68,2.62,2.62,0,0,0-.59,1.78,2.85,2.85,0,0,0,.28,1.26,2.16,2.16,0,0,0,.75.88,2,2,0,0,0,1.1.31,2.32,2.32,0,0,0,1.07-.26,2.13,2.13,0,0,0,.79-.73,1.9,1.9,0,0,0,.29-1Zm3,7.32q-.66,0-.66-.57a.65.65,0,0,1,.09-.32c.06-.1.1-.16.13-.17a3.16,3.16,0,0,0,1.63-.93,4.86,4.86,0,0,0,1-1.79,7.25,7.25,0,0,0,.35-2.33,7.13,7.13,0,0,0-.35-2.29,4.62,4.62,0,0,0-1.05-1.78,3.27,3.27,0,0,0-1.62-.94.62.62,0,0,1-.13-.19.64.64,0,0,1-.09-.31q0-.57.66-.57a2.53,2.53,0,0,1,1.23.36,4.2,4.2,0,0,1,1.18,1,6.7,6.7,0,0,1,1.18,2.09,7.62,7.62,0,0,1,.44,2.64,7.79,7.79,0,0,1-.43,2.65,6.64,6.64,0,0,1-1.14,2.07,4.54,4.54,0,0,1-1.21,1,2.57,2.57,0,0,1-1.25.36Z"/><text class="cls-1" transform="translate(205.29 23.35)">139</text><line class="cls-2" x1="205.29" y1="29.46" x2="226.36" y2="29.46"/><text class="cls-1" transform="translate(205.29 42.89)">100</text><path d="M249.66,32.18c0,.8-.07.87-.89.87h-14.7c-.81,0-.89-.1-.89-.89V16.89c0-.79.1-.86.87-.86h14.74c.8,0,.87.1.87.86Zm-15.49-.12h14.5V17h-14.5Z"/><text class="cls-1" transform="translate(254.72 23.35)">125</text><line class="cls-2" x1="254.72" y1="29.46" x2="275.79" y2="29.46"/><text class="cls-1" transform="translate(254.72 42.89)">100</text><path d="M181.84,29.64a3.82,3.82,0,0,1,.46-1.88,3.38,3.38,0,0,1,1.26-1.31,3.56,3.56,0,0,1,1.81-.47,3.25,3.25,0,0,1,1.73.44,3.05,3.05,0,0,1,1.17,1.22,3.92,3.92,0,0,1,.41,1.81v.11a.47.47,0,0,1-.09.33.5.5,0,0,1-.34.09h-5.09a1.7,1.7,0,0,0,0,.26A2.19,2.19,0,0,0,184,31.6a2.32,2.32,0,0,0,1.54.52,2.55,2.55,0,0,0,1.35-.31,2.36,2.36,0,0,0,.82-.84s.09,0,.22,0a.88.88,0,0,1,.36.23.57.57,0,0,1,.16.43.85.85,0,0,1-.2.51,2.14,2.14,0,0,1-.56.5,4,4,0,0,1-2.18.56,3.92,3.92,0,0,1-1.9-.45,3.26,3.26,0,0,1-1.28-1.27,3.77,3.77,0,0,1-.46-1.88Zm5.47-.62a2.2,2.2,0,0,0-.58-1.44,1.84,1.84,0,0,0-1.38-.53,2.05,2.05,0,0,0-1.44.56,2.29,2.29,0,0,0-.74,1.41Zm2.55,6.87q-.66,0-.66-.57a.76.76,0,0,1,.08-.32.6.6,0,0,1,.13-.17A3.09,3.09,0,0,0,191,33.9a4.72,4.72,0,0,0,1-1.79,7.25,7.25,0,0,0,.36-2.33,7.14,7.14,0,0,0-.36-2.29,4.74,4.74,0,0,0-1-1.78,3.25,3.25,0,0,0-1.63-.94.9.9,0,0,1-.13-.19.75.75,0,0,1-.08-.31q0-.57.66-.57a2.53,2.53,0,0,1,1.23.36,4.2,4.2,0,0,1,1.18,1,6.7,6.7,0,0,1,1.18,2.09,8.26,8.26,0,0,1,0,5.29,6.66,6.66,0,0,1-1.15,2.07,4.35,4.35,0,0,1-1.2,1,2.57,2.57,0,0,1-1.25.36Z"/><text class="cls-1" transform="translate(355.89 23.35)">1</text><line class="cls-2" x1="355.89" y1="29.46" x2="362.92" y2="29.46"/><text class="cls-1" transform="translate(355.89 42.89)">2</text><path d="M386.22,32.18c0,.8-.08.87-.9.87H370.63c-.82,0-.89-.1-.89-.89V16.89c0-.79.1-.86.86-.86h14.75c.79,0,.87.1.87.86Zm-15.49-.12h14.49V17H370.73Z"/><text class="cls-1" transform="translate(391.28 23.35)">1</text><line class="cls-2" x1="391.28" y1="29.46" x2="398.3" y2="29.46"/><text class="cls-1" transform="translate(391.28 42.89)">3</text><path d="M333.53,27.31h-.8a.71.71,0,0,1-.48-.13.53.53,0,0,1-.15-.41v-.1a.48.48,0,0,1,.15-.39.71.71,0,0,1,.48-.13h.8v-.52a2.75,2.75,0,0,1,.57-1.9,2.44,2.44,0,0,1,2.8-.35.75.75,0,0,1,.38.65.73.73,0,0,1-.08.33.63.63,0,0,1-.16.22c-.06.05-.1.07-.11.06a1.59,1.59,0,0,0-.44-.28,1.52,1.52,0,0,0-.59-.12.82.82,0,0,0-.75.34,1.86,1.86,0,0,0-.24,1.07v.5h1.16a.71.71,0,0,1,.48.13.51.51,0,0,1,.15.4v.1a.49.49,0,0,1-.15.4.71.71,0,0,1-.48.13h-1.13v5.12a.74.74,0,0,1-.16.53.65.65,0,0,1-.46.15h-.14c-.43,0-.65-.23-.65-.68Zm5.27,8.58q-.66,0-.66-.57a.76.76,0,0,1,.08-.32c.06-.1.1-.16.13-.17A3.13,3.13,0,0,0,340,33.9a4.86,4.86,0,0,0,1-1.79,7.25,7.25,0,0,0,.36-2.33,7.14,7.14,0,0,0-.36-2.29,4.62,4.62,0,0,0-1-1.78,3.27,3.27,0,0,0-1.62-.94.62.62,0,0,1-.13-.19.75.75,0,0,1-.08-.31q0-.57.66-.57a2.47,2.47,0,0,1,1.22.36,4.23,4.23,0,0,1,1.19,1,6.69,6.69,0,0,1,1.17,2.09,7.62,7.62,0,0,1,.45,2.64,8,8,0,0,1-.43,2.65,6.66,6.66,0,0,1-1.15,2.07,4.25,4.25,0,0,1-1.21,1,2.54,2.54,0,0,1-1.24.36Z"/><text class="cls-1" transform="translate(54.69 90.22)">1</text><line class="cls-2" x1="54.69" y1="96.34" x2="61.71" y2="96.34"/><text class="cls-1" transform="translate(54.69 109.77)">7</text><path d="M85,99.06c0,.79-.07.86-.89.86H69.43c-.82,0-.9-.1-.9-.89V83.77c0-.8.1-.87.87-.87H84.14c.8,0,.87.1.87.87Zm-15.49-.13H84v-15H69.52Z"/><text class="cls-1" transform="translate(90.07 90.22)">1</text><line class="cls-2" x1="90.07" y1="96.34" x2="97.1" y2="96.34"/><text class="cls-1" transform="translate(90.07 109.77)">6</text><path d="M34.15,103a5.34,5.34,0,0,1-2.57-.47,1.55,1.55,0,0,1-.83-1.44,1.51,1.51,0,0,1,.61-1.22,3.36,3.36,0,0,1,1.58-.67.8.8,0,0,1-.27-.65,1,1,0,0,1,.39-.74,2.58,2.58,0,0,1-1.32-.88,2.19,2.19,0,0,1-.49-1.42,2.41,2.41,0,0,1,.38-1.31,2.79,2.79,0,0,1,1.06-1,3.33,3.33,0,0,1,1.52-.35,3.37,3.37,0,0,1,1.65.42l.37-.66a1.29,1.29,0,0,1,.37-.42.82.82,0,0,1,.45-.13.69.69,0,0,1,.41.13.91.91,0,0,1,.26.3c.06.11.08.17.06.17L36.6,93.88a2.3,2.3,0,0,1,.23,2.83,2.64,2.64,0,0,1-1.07.9,3.59,3.59,0,0,1-1.54.32H34a.48.48,0,0,0-.07.24.37.37,0,0,0,.27.36,5.17,5.17,0,0,0,1,.27l.65.16a4.15,4.15,0,0,1,1.45.67,1.46,1.46,0,0,1,.55,1.21,1.71,1.71,0,0,1-.95,1.55,5.32,5.32,0,0,1-2.66.56Zm0-1a3.79,3.79,0,0,0,1.63-.28.88.88,0,0,0,.58-.79.62.62,0,0,0-.35-.57A4.85,4.85,0,0,0,35,100l-.72-.17a3.92,3.92,0,0,0-1.54.37,1,1,0,0,0-.61.85.78.78,0,0,0,.53.71,3.64,3.64,0,0,0,1.54.25Zm0-5a1.61,1.61,0,0,0,1.16-.43,1.51,1.51,0,0,0,.45-1.14,1.48,1.48,0,0,0-.45-1.12,1.66,1.66,0,0,0-1.19-.44A1.58,1.58,0,0,0,33,94.3a1.67,1.67,0,0,0,0,2.27,1.65,1.65,0,0,0,1.17.43Zm4.31,5.76q-.66,0-.66-.57a.66.66,0,0,1,.08-.32c.06-.1.1-.16.13-.17a3.16,3.16,0,0,0,1.63-.93,4.78,4.78,0,0,0,1-1.79,7.59,7.59,0,0,0,0-4.62,4.7,4.7,0,0,0-1-1.78,3.18,3.18,0,0,0-1.62-.93.73.73,0,0,1-.13-.2.62.62,0,0,1-.08-.31q0-.57.66-.57a2.47,2.47,0,0,1,1.22.36,4.4,4.4,0,0,1,1.19,1A6.8,6.8,0,0,1,42.11,94a7.64,7.64,0,0,1,.45,2.65,8,8,0,0,1-.43,2.64A6.83,6.83,0,0,1,41,101.39a4.39,4.39,0,0,1-1.21,1,2.63,2.63,0,0,1-1.24.35Z"/><text class="cls-1" transform="translate(205.29 90.22)">2</text><line class="cls-2" x1="205.29" y1="96.34" x2="212.31" y2="96.34"/><text class="cls-1" transform="translate(205.29 109.77)">5</text><path d="M235.61,99.06c0,.79-.07.86-.89.86H220c-.82,0-.9-.1-.9-.89V83.77c0-.8.1-.87.87-.87h14.75c.79,0,.86.1.86.87Zm-15.48-.13h14.49v-15H220.13Z"/><text class="cls-1" transform="translate(240.68 90.22)">2</text><line class="cls-2" x1="240.68" y1="96.34" x2="247.7" y2="96.34"/><text class="cls-1" transform="translate(240.68 109.77)">7</text><path d="M186,92.85a2.41,2.41,0,0,1,2,.82,3.3,3.3,0,0,1,.68,2.17v3.47c0,.45-.22.67-.64.67h-.15c-.42,0-.64-.22-.64-.67V96a2.12,2.12,0,0,0-.42-1.39,1.45,1.45,0,0,0-1.17-.5,1.88,1.88,0,0,0-1.41.54,2.06,2.06,0,0,0-.52,1.48v3.19c0,.45-.21.67-.64.67h-.15c-.42,0-.63-.22-.63-.67V90.23s.05-.07.15-.1a1,1,0,0,1,.36-.06.86.86,0,0,1,.65.27,1.38,1.38,0,0,1,.26,1v2.82A2.59,2.59,0,0,1,186,92.85Zm4.2,9.91q-.66,0-.66-.57a.68.68,0,0,1,.09-.32.37.37,0,0,1,.13-.17,3.1,3.1,0,0,0,1.62-.93,4.65,4.65,0,0,0,1-1.79,7.59,7.59,0,0,0,0-4.62,4.68,4.68,0,0,0-1-1.78,3.18,3.18,0,0,0-1.62-.93.55.55,0,0,1-.13-.2.64.64,0,0,1-.09-.31q0-.57.66-.57a2.53,2.53,0,0,1,1.23.36,4.37,4.37,0,0,1,1.18,1A6.82,6.82,0,0,1,193.75,94a7.88,7.88,0,0,1,.44,2.65,7.74,7.74,0,0,1-.43,2.64,6.83,6.83,0,0,1-1.15,2.08,4.35,4.35,0,0,1-1.2,1,2.67,2.67,0,0,1-1.25.35Z"/><text class="cls-1" transform="translate(355.89 90.22)">4</text><line class="cls-2" x1="355.89" y1="96.34" x2="362.92" y2="96.34"/><text class="cls-1" transform="translate(355.89 109.77)">5</text><path d="M386.22,99.06c0,.79-.08.86-.9.86H370.63c-.82,0-.89-.1-.89-.89V83.77c0-.8.1-.87.86-.87h14.75c.79,0,.87.1.87.87Zm-15.49-.13h14.49v-15H370.73Z"/><text class="cls-1" transform="translate(391.28 90.22)">4</text><line class="cls-2" x1="391.28" y1="96.34" x2="398.3" y2="96.34"/><text class="cls-1" transform="translate(391.28 109.77)">3</text><path d="M332.8,90.81a.84.84,0,0,1,.23-.61.89.89,0,0,1,.63-.22.75.75,0,0,1,.83.83.82.82,0,0,1-.22.61.88.88,0,0,1-.62.21.85.85,0,0,1-.63-.22.81.81,0,0,1-.22-.6Zm.11,2.83c0-.46.22-.69.65-.69h.14a.64.64,0,0,1,.47.16.7.7,0,0,1,.17.53v5.67c0,.45-.22.67-.64.67h-.14a.58.58,0,0,1-.65-.67Zm3.1,9.12q-.66,0-.66-.57a.68.68,0,0,1,.09-.32c.06-.1.1-.16.13-.17a3.16,3.16,0,0,0,1.63-.93,4.78,4.78,0,0,0,1-1.79,7.59,7.59,0,0,0,0-4.62,4.7,4.7,0,0,0-1.05-1.78,3.18,3.18,0,0,0-1.62-.93.73.73,0,0,1-.13-.2.64.64,0,0,1-.09-.31q0-.57.66-.57a2.5,2.5,0,0,1,1.23.36,4.22,4.22,0,0,1,1.18,1A6.82,6.82,0,0,1,339.6,94a7.64,7.64,0,0,1,.44,2.65,7.74,7.74,0,0,1-.43,2.64,6.81,6.81,0,0,1-1.14,2.08,4.54,4.54,0,0,1-1.21,1,2.63,2.63,0,0,1-1.25.35Z"/><text class="cls-1" transform="translate(54.69 157.09)">12</text><line class="cls-2" x1="54.69" y1="163.21" x2="68.74" y2="163.21"/><text class="cls-1" transform="translate(54.69 176.64)">15</text><path d="M92,165.93c0,.79-.08.87-.9.87H76.45c-.82,0-.89-.1-.89-.9V150.64c0-.79.1-.87.86-.87H91.17c.79,0,.87.1.87.87Zm-15.49-.12H91V150.76H76.55Z"/><text class="cls-1" transform="translate(97.1 157.09)">12</text><line class="cls-2" x1="97.1" y1="163.21" x2="111.14" y2="163.21"/><text class="cls-1" transform="translate(100.61 176.64)">7</text><path d="M29.82,169.26a.67.67,0,0,1-.22-.51.88.88,0,0,1,.07-.33.83.83,0,0,1,.16-.25c.06-.07.09-.09.1-.08a1.27,1.27,0,0,0,.92.4.78.78,0,0,0,.66-.26,1.4,1.4,0,0,0,.2-.84v-6.88c0-.46.22-.69.65-.69h.14A.68.68,0,0,1,33,160a.72.72,0,0,1,.16.53v7a2.32,2.32,0,0,1-.53,1.63,2,2,0,0,1-1.53.57,1.68,1.68,0,0,1-1.25-.41Zm1.78-11.57a.78.78,0,0,1,.23-.61.85.85,0,0,1,.63-.23.81.81,0,0,1,.61.23.94.94,0,0,1,0,1.21.89.89,0,0,1-.63.21.83.83,0,0,1-.62-.22.78.78,0,0,1-.22-.59Zm3.21,11.95c-.44,0-.66-.19-.66-.58a.61.61,0,0,1,.09-.31.39.39,0,0,1,.12-.17,3.17,3.17,0,0,0,1.63-.94,4.68,4.68,0,0,0,1-1.78,7.29,7.29,0,0,0,.36-2.33,7.09,7.09,0,0,0-.36-2.29,4.86,4.86,0,0,0-1-1.79,3.16,3.16,0,0,0-1.63-.93,1,1,0,0,1-.21-.5c0-.39.22-.58.66-.58a2.53,2.53,0,0,1,1.23.36,4.41,4.41,0,0,1,1.18,1,6.76,6.76,0,0,1,1.18,2.08,7.88,7.88,0,0,1,.44,2.65,7.79,7.79,0,0,1-.43,2.65,6.66,6.66,0,0,1-1.15,2.07,4.35,4.35,0,0,1-1.2,1,2.57,2.57,0,0,1-1.25.36Z"/><text class="cls-1" transform="translate(205.29 157.09)">22</text><line class="cls-2" x1="205.29" y1="163.21" x2="219.34" y2="163.21"/><text class="cls-1" transform="translate(205.29 176.64)">80</text><path d="M242.64,165.93c0,.79-.08.87-.89.87h-14.7c-.82,0-.89-.1-.89-.9V150.64c0-.79.1-.87.87-.87h14.74c.79,0,.87.1.87.87Zm-15.49-.12h14.5V150.76h-14.5Z"/><text class="cls-1" transform="translate(247.7 157.09)">22</text><line class="cls-2" x1="247.7" y1="163.21" x2="261.75" y2="163.21"/><text class="cls-1" transform="translate(247.7 176.64)">90</text><path d="M183,166.85a.58.58,0,0,1-.65-.67V157.1s.06-.06.17-.1a1,1,0,0,1,.35-.06c.6,0,.9.41.9,1.22v8c0,.45-.21.67-.63.67Zm2.45,2.79c-.44,0-.66-.19-.66-.58a.61.61,0,0,1,.09-.31c.06-.11.1-.16.13-.17a3.25,3.25,0,0,0,1.63-.94,4.81,4.81,0,0,0,1-1.78,7.59,7.59,0,0,0,.35-2.33,7.37,7.37,0,0,0-.35-2.29,4.74,4.74,0,0,0-1-1.79,3.18,3.18,0,0,0-1.62-.93.62.62,0,0,1-.13-.19.67.67,0,0,1-.09-.31c0-.39.22-.58.66-.58a2.53,2.53,0,0,1,1.23.36,4.41,4.41,0,0,1,1.18,1,6.76,6.76,0,0,1,1.18,2.08,7.88,7.88,0,0,1,.44,2.65,7.79,7.79,0,0,1-.43,2.65,6.46,6.46,0,0,1-1.15,2.07,4.35,4.35,0,0,1-1.2,1,2.57,2.57,0,0,1-1.25.36Z"/><text class="cls-1" transform="translate(355.89 157.09)">3</text><line class="cls-2" x1="355.89" y1="163.21" x2="362.92" y2="163.21"/><text class="cls-1" transform="translate(355.89 176.64)">2</text><path d="M386.22,165.93c0,.79-.08.87-.9.87H370.63c-.82,0-.89-.1-.89-.9V150.64c0-.79.1-.87.86-.87h14.75c.79,0,.87.1.87.87Zm-15.49-.12h14.49V150.76H370.73Z"/><text class="cls-1" transform="translate(391.28 157.09)">2</text><line class="cls-2" x1="391.28" y1="163.21" x2="398.3" y2="163.21"/><text class="cls-1" transform="translate(391.28 176.64)">5</text><path d="M341.05,159.72a2.45,2.45,0,0,1,1.94.74,3.07,3.07,0,0,1,.66,2.1v3.62c0,.45-.21.67-.64.67h-.14a.69.69,0,0,1-.48-.15.67.67,0,0,1-.16-.52v-3.44q0-1.77-1.53-1.77a1.85,1.85,0,0,0-1,.31,2.32,2.32,0,0,0-.74.84v4.06c0,.45-.21.67-.63.67h-.14a.58.58,0,0,1-.65-.67v-3.39c0-1.21-.5-1.82-1.52-1.82a1.77,1.77,0,0,0-1,.32,2.09,2.09,0,0,0-.73.83v4.06c0,.45-.21.67-.63.67h-.16c-.42,0-.63-.22-.63-.67V160s.05-.06.16-.1a1,1,0,0,1,.35-.06c.55,0,.85.36.89,1.07a2.86,2.86,0,0,1,.92-.85,2.39,2.39,0,0,1,1.22-.32,2.54,2.54,0,0,1,1.41.38,2.16,2.16,0,0,1,.84,1.07,3.12,3.12,0,0,1,1-1,2.53,2.53,0,0,1,1.41-.4Zm4.13,9.92c-.44,0-.66-.19-.66-.58a.61.61,0,0,1,.09-.31c.05-.11.1-.16.13-.17a3.18,3.18,0,0,0,1.62-.94,4.56,4.56,0,0,0,1-1.78,7.29,7.29,0,0,0,.36-2.33,7.09,7.09,0,0,0-.36-2.29,4.6,4.6,0,0,0-1-1.79,3.18,3.18,0,0,0-1.62-.93.48.48,0,0,1-.13-.19.67.67,0,0,1-.09-.31c0-.39.22-.58.66-.58a2.53,2.53,0,0,1,1.23.36,4.41,4.41,0,0,1,1.18,1,6.76,6.76,0,0,1,1.18,2.08,7.88,7.88,0,0,1,.44,2.65,7.79,7.79,0,0,1-.43,2.65,6.66,6.66,0,0,1-1.15,2.07,4.35,4.35,0,0,1-1.2,1,2.57,2.57,0,0,1-1.25.36Z"/><text class="cls-1" transform="translate(54.69 223.97)">3</text><line class="cls-2" x1="54.69" y1="230.08" x2="61.71" y2="230.08"/><text class="cls-1" transform="translate(54.69 243.51)">4</text><path d="M85,232.8c0,.8-.07.87-.89.87H69.43c-.82,0-.9-.1-.9-.89V217.51c0-.79.1-.86.87-.86H84.14c.8,0,.87.1.87.86Zm-15.49-.12H84v-15H69.52Z"/><text class="cls-1" transform="translate(90.07 223.96)">6</text><line class="cls-2" x1="90.07" y1="230.08" x2="97.1" y2="230.08"/><text class="cls-1" transform="translate(90.07 243.51)">5</text><path d="M35.35,226.6a2.46,2.46,0,0,1,2,.81,3.23,3.23,0,0,1,.67,2.14v3.5c0,.45-.21.68-.63.68h-.16c-.42,0-.63-.23-.63-.68v-3.32a2.07,2.07,0,0,0-.42-1.38,1.42,1.42,0,0,0-1.17-.5,2,2,0,0,0-1.16.32,2.15,2.15,0,0,0-.78.88v4c0,.45-.21.68-.63.68h-.16c-.42,0-.63-.23-.63-.68v-6.19s.06-.07.16-.1a1,1,0,0,1,.36-.06.86.86,0,0,1,.62.25,1.25,1.25,0,0,1,.27.87,2.88,2.88,0,0,1,1-.9,2.74,2.74,0,0,1,1.32-.32Zm4.21,9.91q-.66,0-.66-.57a.76.76,0,0,1,.08-.32c.06-.1.1-.16.13-.17a3.13,3.13,0,0,0,1.63-.93,4.72,4.72,0,0,0,1-1.79,7.25,7.25,0,0,0,.36-2.33,7.14,7.14,0,0,0-.36-2.29,4.62,4.62,0,0,0-1.05-1.78,3.18,3.18,0,0,0-1.62-.94.62.62,0,0,1-.13-.19.75.75,0,0,1-.08-.31q0-.57.66-.57a2.47,2.47,0,0,1,1.22.36,4.23,4.23,0,0,1,1.19,1,6.49,6.49,0,0,1,1.17,2.09,7.62,7.62,0,0,1,.45,2.64,7.79,7.79,0,0,1-.43,2.65A6.66,6.66,0,0,1,42,235.13a4.35,4.35,0,0,1-1.2,1,2.57,2.57,0,0,1-1.25.36Z"/><text class="cls-1" transform="translate(205.29 223.97)">7</text><line class="cls-2" x1="205.29" y1="230.08" x2="212.31" y2="230.08"/><text class="cls-1" transform="translate(205.29 243.51)">8</text><path d="M235.61,232.8c0,.8-.07.87-.89.87H220c-.82,0-.9-.1-.9-.89V217.51c0-.79.1-.86.87-.86h14.75c.79,0,.86.1.86.86Zm-15.48-.12h14.49v-15H220.13Z"/><text class="cls-1" transform="translate(240.68 223.96)">10</text><line class="cls-2" x1="240.68" y1="230.08" x2="254.72" y2="230.08"/><text class="cls-1" transform="translate(244.19 243.51)">9</text><path d="M181.84,230.21a3.69,3.69,0,0,1,.46-1.86,3.31,3.31,0,0,1,1.28-1.29,3.78,3.78,0,0,1,1.89-.46,3.67,3.67,0,0,1,1.86.46,3.4,3.4,0,0,1,1.28,1.3,3.79,3.79,0,0,1,.46,1.88,3.73,3.73,0,0,1-.46,1.87,3.35,3.35,0,0,1-1.28,1.28,3.77,3.77,0,0,1-1.88.47,3.71,3.71,0,0,1-1.87-.47,3.24,3.24,0,0,1-1.28-1.29,3.78,3.78,0,0,1-.46-1.89Zm5.91,0a2.79,2.79,0,0,0-.29-1.27,2.2,2.2,0,0,0-2-1.21,2.23,2.23,0,0,0-1.17.32,2.17,2.17,0,0,0-.83.87,2.61,2.61,0,0,0-.31,1.26,2.65,2.65,0,0,0,.31,1.27,2.25,2.25,0,0,0,3.17.89,2.27,2.27,0,0,0,.83-.88,2.6,2.6,0,0,0,.3-1.25Zm2.51,6.27q-.66,0-.66-.57a.65.65,0,0,1,.09-.32.37.37,0,0,1,.13-.17,3.1,3.1,0,0,0,1.62-.93,4.72,4.72,0,0,0,1-1.79,7.25,7.25,0,0,0,.36-2.33,7.14,7.14,0,0,0-.36-2.29,4.61,4.61,0,0,0-1-1.78,3.27,3.27,0,0,0-1.62-.94.48.48,0,0,1-.13-.19.64.64,0,0,1-.09-.31q0-.57.66-.57a2.53,2.53,0,0,1,1.23.36,4.2,4.2,0,0,1,1.18,1,6.7,6.7,0,0,1,1.18,2.09,8.26,8.26,0,0,1,0,5.29,6.66,6.66,0,0,1-1.15,2.07,4.35,4.35,0,0,1-1.2,1,2.57,2.57,0,0,1-1.25.36Z"/><text class="cls-1" transform="translate(355.89 223.97)">6</text><line class="cls-2" x1="355.89" y1="230.08" x2="362.92" y2="230.08"/><text class="cls-1" transform="translate(355.89 243.51)">5</text><path d="M386.22,232.8c0,.8-.08.87-.9.87H370.63c-.82,0-.89-.1-.89-.89V217.51c0-.79.1-.86.86-.86h14.75c.79,0,.87.1.87.86Zm-15.49-.12h14.49v-15H370.73Z"/><text class="cls-1" transform="translate(391.28 223.96)">12</text><line class="cls-2" x1="391.28" y1="230.08" x2="405.32" y2="230.08"/><text class="cls-1" transform="translate(394.79 243.51)">9</text><path d="M336.69,226.6a3.18,3.18,0,0,1,1.65.44,3,3,0,0,1,1.16,1.27,4.51,4.51,0,0,1,0,3.8,3.09,3.09,0,0,1-2.86,1.75,2.7,2.7,0,0,1-1.43-.37,2.49,2.49,0,0,1-.93-.92v3.24c0,.45-.21.67-.63.67h-.16c-.42,0-.63-.22-.63-.67v-8.95s.05-.07.16-.1a1,1,0,0,1,.35-.06c.47,0,.75.26.85.79a1.94,1.94,0,0,1,0,.4,2.75,2.75,0,0,1,2.43-1.29Zm-.3,6.08a2,2,0,0,0,1.55-.67,2.59,2.59,0,0,0,.6-1.78,2.84,2.84,0,0,0-.27-1.26,2.19,2.19,0,0,0-.76-.88,1.94,1.94,0,0,0-1.09-.32,2.21,2.21,0,0,0-2.16,1.44v1.45a1.9,1.9,0,0,0,.29,1,2.08,2.08,0,0,0,.77.73,2.29,2.29,0,0,0,1.07.26Zm4.2,3.83q-.66,0-.66-.57a.65.65,0,0,1,.09-.32.37.37,0,0,1,.13-.17,3.1,3.1,0,0,0,1.62-.93,4.72,4.72,0,0,0,1-1.79,7.25,7.25,0,0,0,.36-2.33,7.14,7.14,0,0,0-.36-2.29,4.61,4.61,0,0,0-1-1.78,3.27,3.27,0,0,0-1.62-.94.48.48,0,0,1-.13-.19.64.64,0,0,1-.09-.31q0-.57.66-.57a2.53,2.53,0,0,1,1.23.36,4.2,4.2,0,0,1,1.18,1,6.7,6.7,0,0,1,1.18,2.09,8.26,8.26,0,0,1,0,5.29,6.66,6.66,0,0,1-1.15,2.07,4.35,4.35,0,0,1-1.2,1,2.57,2.57,0,0,1-1.25.36Z"/><text class="cls-1" transform="translate(54.69 290.84)">4</text><line class="cls-2" x1="54.69" y1="296.96" x2="61.71" y2="296.96"/><text class="cls-1" transform="translate(54.69 310.38)">5</text><path d="M85,299.68c0,.79-.07.86-.89.86H69.43c-.82,0-.9-.1-.9-.89V284.39c0-.8.1-.87.87-.87H84.14c.8,0,.87.1.87.87Zm-15.49-.13H84v-15H69.52Z"/><text class="cls-1" transform="translate(90.07 290.84)">5</text><line class="cls-2" x1="90.07" y1="296.96" x2="97.1" y2="296.96"/><text class="cls-1" transform="translate(90.07 310.38)">4</text><path d="M37.78,293.57a1,1,0,0,1,.36.06c.1,0,.16.07.16.1v8.95c0,.45-.21.68-.64.68h-.15c-.42,0-.63-.23-.63-.68v-3.26a2.79,2.79,0,0,1-1,1,2.89,2.89,0,0,1-1.41.35A3.07,3.07,0,0,1,31.65,299a4.61,4.61,0,0,1,0-3.8,3.09,3.09,0,0,1,1.17-1.28,3.19,3.19,0,0,1,1.69-.45,3,3,0,0,1,1.43.33,2.44,2.44,0,0,1,1,.83h0c0-.7.34-1.05.89-1.05Zm-.89,2.51a2.35,2.35,0,0,0-.82-1.05,2.13,2.13,0,0,0-1.3-.38,2,2,0,0,0-1.57.67,2.62,2.62,0,0,0-.59,1.78,2.85,2.85,0,0,0,.28,1.26,2.09,2.09,0,0,0,.75.88,2,2,0,0,0,1.1.31,2.2,2.2,0,0,0,1.07-.26,2.13,2.13,0,0,0,.79-.73,2,2,0,0,0,.29-1Zm2.74,7.3q-.66,0-.66-.57a.68.68,0,0,1,.09-.32.37.37,0,0,1,.13-.17,3.1,3.1,0,0,0,1.62-.93,4.65,4.65,0,0,0,1-1.79,7.59,7.59,0,0,0,0-4.62,4.68,4.68,0,0,0-1-1.78,3.18,3.18,0,0,0-1.62-.93.55.55,0,0,1-.13-.2.64.64,0,0,1-.09-.31q0-.57.66-.57a2.53,2.53,0,0,1,1.23.36,4.37,4.37,0,0,1,1.18,1,6.82,6.82,0,0,1,1.18,2.09,7.88,7.88,0,0,1,.44,2.65,7.74,7.74,0,0,1-.43,2.64A6.83,6.83,0,0,1,42.08,302a4.35,4.35,0,0,1-1.2,1,2.67,2.67,0,0,1-1.25.35Z"/><text class="cls-1" transform="translate(205.29 290.84)">35</text><line class="cls-2" x1="205.29" y1="296.96" x2="219.34" y2="296.96"/><text class="cls-1" transform="translate(205.29 310.38)">40</text><path d="M242.64,299.68c0,.79-.08.86-.89.86h-14.7c-.82,0-.89-.1-.89-.89V284.39c0-.8.1-.87.87-.87h14.74c.79,0,.87.1.87.87Zm-15.49-.13h14.5v-15h-14.5Z"/><text class="cls-1" transform="translate(247.7 290.84)">30</text><line class="cls-2" x1="247.7" y1="296.96" x2="261.75" y2="296.96"/><text class="cls-1" transform="translate(247.7 310.38)">25</text><path d="M185.41,293.47a1.23,1.23,0,0,1,.83.25.81.81,0,0,1,.3.67.93.93,0,0,1-.09.42.75.75,0,0,1-.21.25c-.07.05-.12.07-.13.06a1.33,1.33,0,0,0-.87-.3,1.25,1.25,0,0,0-1.18.71,4.13,4.13,0,0,0-.38,2v2.43c0,.45-.21.67-.64.67h-.15c-.42,0-.63-.22-.63-.67v-6.2s.05-.06.15-.1a1,1,0,0,1,.36-.06.81.81,0,0,1,.83.69,2.52,2.52,0,0,1,.06.52,1.74,1.74,0,0,1,1.75-1.31Zm1.79,9.91q-.66,0-.66-.57a.68.68,0,0,1,.09-.32c.06-.1.1-.16.13-.17a3.16,3.16,0,0,0,1.63-.93,4.78,4.78,0,0,0,1-1.79,7.59,7.59,0,0,0,0-4.62,4.7,4.7,0,0,0-1.05-1.78,3.18,3.18,0,0,0-1.62-.93.73.73,0,0,1-.13-.2.64.64,0,0,1-.09-.31q0-.57.66-.57a2.47,2.47,0,0,1,1.23.36,4.22,4.22,0,0,1,1.18,1,6.82,6.82,0,0,1,1.18,2.09,7.64,7.64,0,0,1,.45,2.65,8,8,0,0,1-.43,2.64,6.83,6.83,0,0,1-1.15,2.08,4.54,4.54,0,0,1-1.21,1,2.63,2.63,0,0,1-1.25.35Z"/><text class="cls-1" transform="translate(359.4 290.84)">99</text><line class="cls-2" x1="355.89" y1="296.96" x2="376.96" y2="296.96"/><text class="cls-1" transform="translate(355.89 310.38)">100</text><path d="M400.26,299.68c0,.79-.07.86-.89.86H384.68c-.82,0-.9-.1-.9-.89V284.39c0-.8.1-.87.87-.87H399.4c.79,0,.86.1.86.87Zm-15.48-.13h14.49v-15H384.78Z"/><text class="cls-1" transform="translate(405.32 290.84)">3</text><line class="cls-2" x1="405.32" y1="296.96" x2="412.35" y2="296.96"/><text class="cls-1" transform="translate(405.32 310.38)">2</text><path d="M332.9,300.11a1.41,1.41,0,0,1-.4-.41.81.81,0,0,1-.14-.45.55.55,0,0,1,.12-.35.92.92,0,0,1,.26-.23c.1-.05.16-.07.17-.06a2.72,2.72,0,0,0,1,.75,3.06,3.06,0,0,0,1.36.28,2.1,2.1,0,0,0,1.13-.25.78.78,0,0,0,.39-.68.72.72,0,0,0-.2-.53,1.35,1.35,0,0,0-.53-.29c-.22-.07-.57-.15-1-.26a6.8,6.8,0,0,1-1.2-.33,2.18,2.18,0,0,1-.86-.59,1.52,1.52,0,0,1-.36-1.07,1.9,1.9,0,0,1,.75-1.57,3.12,3.12,0,0,1,2-.6,4.24,4.24,0,0,1,1.57.25,1.93,1.93,0,0,1,.91.65.79.79,0,0,1,.17.49.56.56,0,0,1-.12.36,1.07,1.07,0,0,1-.28.25c-.1,0-.16.07-.17,0a2.5,2.5,0,0,0-.86-.71,2.63,2.63,0,0,0-1.16-.26,2,2,0,0,0-1.11.25.8.8,0,0,0-.38.69.63.63,0,0,0,.18.48,1.33,1.33,0,0,0,.53.29,9.8,9.8,0,0,0,1,.25,9.31,9.31,0,0,1,1.27.35,2.28,2.28,0,0,1,.89.59,1.56,1.56,0,0,1,.38,1.1,1.89,1.89,0,0,1-.77,1.58,3.38,3.38,0,0,1-2.1.59,5.21,5.21,0,0,1-1.38-.17,3,3,0,0,1-1-.44Zm6.15,3.27c-.44,0-.65-.19-.65-.57a.66.66,0,0,1,.08-.32c.06-.1.1-.16.13-.17a3.16,3.16,0,0,0,1.63-.93,4.78,4.78,0,0,0,1-1.79,7.59,7.59,0,0,0,0-4.62,4.7,4.7,0,0,0-1-1.78,3.18,3.18,0,0,0-1.62-.93.73.73,0,0,1-.13-.2.62.62,0,0,1-.08-.31c0-.38.21-.57.65-.57a2.47,2.47,0,0,1,1.23.36,4.4,4.4,0,0,1,1.19,1,7,7,0,0,1,1.17,2.09,7.64,7.64,0,0,1,.45,2.65,8,8,0,0,1-.43,2.64,6.83,6.83,0,0,1-1.15,2.08,4.39,4.39,0,0,1-1.21,1,2.63,2.63,0,0,1-1.25.35Z"/></svg>