<svg id="Camada_1" data-name="Camada 1" xmlns="http://www.w3.org/2000/svg" viewBox="0 0 442.29 80.58"><defs><style>.cls-1{font-size:14.35px;font-family:CMR12;}.cls-2{fill:none;stroke:#000;stroke-miterlimit:10;stroke-width:0.57px;}</style></defs><text class="cls-1" transform="translate(53.7 43.43)">3</text><line class="cls-2" x1="53.7" y1="49.55" x2="60.72" y2="49.55"/><text class="cls-1" transform="translate(53.7 62.98)">6</text><path d="M84,52.27c0,.79-.07.87-.89.87H68.43c-.81,0-.89-.1-.89-.9V37c0-.79.1-.87.87-.87H83.15c.8,0,.87.1.87.87Zm-15.49-.12H83v-15H68.53Z"/><text class="cls-1" transform="translate(89.08 43.43)">5</text><line class="cls-2" x1="89.08" y1="49.55" x2="96.1" y2="49.55"/><text class="cls-1" transform="translate(89.08 62.98)">6</text><path d="M30.26,51.33a1.85,1.85,0,0,1,1.13-1.74,8.74,8.74,0,0,1,3.5-.6h.19v-.14a1.6,1.6,0,0,0-.44-1.21,1.79,1.79,0,0,0-1.27-.41,2.13,2.13,0,0,0-1.22.32,2.08,2.08,0,0,0-.76.85s-.08,0-.24,0a1,1,0,0,1-.44-.21.54.54,0,0,1-.19-.46,1.2,1.2,0,0,1,.47-.86,3.08,3.08,0,0,1,1-.56,4.34,4.34,0,0,1,1.46-.23,3.17,3.17,0,0,1,2.24.72,2.63,2.63,0,0,1,.77,2v4.23s0,.08-.16.11a1.34,1.34,0,0,1-.35.05.77.77,0,0,1-.82-.63,2.1,2.1,0,0,1-.06-.48A2.66,2.66,0,0,1,34,53a3.25,3.25,0,0,1-1.43.31,2.55,2.55,0,0,1-1.72-.53,1.79,1.79,0,0,1-.63-1.43Zm4.82-1.45h-.39a6.88,6.88,0,0,0-2.29.38,1,1,0,0,0-.75,1A.87.87,0,0,0,32,52a1.48,1.48,0,0,0,1,.28,2.2,2.2,0,0,0,1.52-.53,1.69,1.69,0,0,0,.6-1.34ZM37.7,56c-.44,0-.66-.19-.66-.58a.61.61,0,0,1,.09-.31c.06-.11.1-.16.13-.17A3.25,3.25,0,0,0,38.89,54a4.74,4.74,0,0,0,1-1.78,7.25,7.25,0,0,0,.36-2.33,7.09,7.09,0,0,0-.36-2.29,4.74,4.74,0,0,0-1-1.79,3.18,3.18,0,0,0-1.62-.93.62.62,0,0,1-.13-.19.67.67,0,0,1-.09-.31c0-.39.22-.58.66-.58a2.47,2.47,0,0,1,1.23.36,4.27,4.27,0,0,1,1.18,1,6.76,6.76,0,0,1,1.18,2.08,7.64,7.64,0,0,1,.45,2.65,8,8,0,0,1-.43,2.65,6.66,6.66,0,0,1-1.15,2.07,4.54,4.54,0,0,1-1.21,1A2.54,2.54,0,0,1,37.7,56Z"/><text class="cls-1" transform="translate(204.3 43.43)">5</text><line class="cls-2" x1="204.3" y1="49.55" x2="211.32" y2="49.55"/><text class="cls-1" transform="translate(204.3 62.98)">9</text><path d="M234.62,52.27c0,.79-.07.87-.89.87H219c-.81,0-.89-.1-.89-.9V37c0-.79.1-.87.87-.87h14.74c.8,0,.87.1.87.87Zm-15.49-.12h14.5v-15h-14.5Z"/><text class="cls-1" transform="translate(239.68 43.43)">4</text><line class="cls-2" x1="239.68" y1="49.55" x2="246.71" y2="49.55"/><text class="cls-1" transform="translate(239.68 62.98)">9</text><path d="M182.67,52.52c0,.45-.21.67-.62.67h-.16c-.42,0-.63-.22-.63-.67V43.44s.05-.06.16-.1a1,1,0,0,1,.36-.06.84.84,0,0,1,.64.27,1.35,1.35,0,0,1,.26,1v2.81a2.8,2.8,0,0,1,2.41-1.25,3.13,3.13,0,0,1,1.66.45,3,3,0,0,1,1.15,1.27,4.49,4.49,0,0,1,0,3.79,3,3,0,0,1-1.16,1.29,3.11,3.11,0,0,1-1.69.46,3,3,0,0,1-1.46-.34,2.3,2.3,0,0,1-.92-.88Zm4.27-2.83a2.87,2.87,0,0,0-.27-1.26,2.13,2.13,0,0,0-.75-.87,2,2,0,0,0-1.1-.32,2.31,2.31,0,0,0-1.33.38,2.25,2.25,0,0,0-.82,1.06v1.53a1.84,1.84,0,0,0,.31,1,2,2,0,0,0,.77.7,2.31,2.31,0,0,0,1,.25,2,2,0,0,0,1.56-.68,2.62,2.62,0,0,0,.59-1.78ZM189.51,56c-.44,0-.66-.19-.66-.58a.61.61,0,0,1,.09-.31c.06-.11.1-.16.13-.17A3.25,3.25,0,0,0,190.7,54a4.74,4.74,0,0,0,1-1.78,7.54,7.54,0,0,0,.35-2.33,7.37,7.37,0,0,0-.35-2.29,4.74,4.74,0,0,0-1.05-1.79,3.18,3.18,0,0,0-1.62-.93.62.62,0,0,1-.13-.19.67.67,0,0,1-.09-.31c0-.39.22-.58.66-.58a2.53,2.53,0,0,1,1.23.36,4.41,4.41,0,0,1,1.18,1,6.76,6.76,0,0,1,1.18,2.08,7.88,7.88,0,0,1,.44,2.65,7.79,7.79,0,0,1-.43,2.65A6.46,6.46,0,0,1,192,54.6a4.35,4.35,0,0,1-1.2,1,2.57,2.57,0,0,1-1.25.36Z"/><text class="cls-1" transform="translate(354.9 43.43)">27</text><line class="cls-2" x1="354.9" y1="49.55" x2="368.95" y2="49.55"/><text class="cls-1" transform="translate(354.9 62.98)">10</text><path d="M392.25,52.27c0,.79-.08.87-.9.87H376.66c-.82,0-.89-.1-.89-.9V37c0-.79.1-.87.87-.87h14.74c.79,0,.87.1.87.87Zm-15.49-.12h14.5v-15h-14.5Z"/><text class="cls-1" transform="translate(397.31 43.43)">29</text><line class="cls-2" x1="397.31" y1="49.55" x2="411.36" y2="49.55"/><text class="cls-1" transform="translate(397.31 62.98)">10</text><path d="M331.45,49.68a3.72,3.72,0,0,1,.46-1.86,3.4,3.4,0,0,1,1.29-1.29,3.64,3.64,0,0,1,1.83-.47,3.46,3.46,0,0,1,2.26.72,1.94,1.94,0,0,1,.52.6A1.27,1.27,0,0,1,338,48a.52.52,0,0,1-.19.42,1.07,1.07,0,0,1-.41.21c-.14,0-.23,0-.25,0a2,2,0,0,0-2.08-1.34,2.19,2.19,0,0,0-1.16.31,2.27,2.27,0,0,0-.81.87,2.55,2.55,0,0,0-.29,1.24,2.6,2.6,0,0,0,.29,1.26,2.23,2.23,0,0,0,.81.88,2.19,2.19,0,0,0,1.16.31,2.06,2.06,0,0,0,2.08-1.35s.11,0,.25,0a.85.85,0,0,1,.41.21.55.55,0,0,1,.19.44,1.13,1.13,0,0,1-.19.58,2.1,2.1,0,0,1-.53.6,2.88,2.88,0,0,1-.95.52,4,4,0,0,1-1.29.19,3.71,3.71,0,0,1-1.85-.46,3.31,3.31,0,0,1-1.27-1.3,3.79,3.79,0,0,1-.46-1.88Zm7.36,6.3c-.44,0-.66-.19-.66-.58a.71.71,0,0,1,.08-.31c.06-.11.1-.16.13-.17A3.21,3.21,0,0,0,340,54a4.61,4.61,0,0,0,1-1.78,7.25,7.25,0,0,0,.36-2.33,7.09,7.09,0,0,0-.36-2.29,4.74,4.74,0,0,0-1-1.79,3.14,3.14,0,0,0-1.62-.93.62.62,0,0,1-.13-.19.79.79,0,0,1-.08-.31c0-.39.22-.58.66-.58a2.47,2.47,0,0,1,1.22.36,4.45,4.45,0,0,1,1.19,1,6.55,6.55,0,0,1,1.17,2.08,7.64,7.64,0,0,1,.45,2.65,7.79,7.79,0,0,1-.43,2.65,6.66,6.66,0,0,1-1.15,2.07,4.35,4.35,0,0,1-1.2,1,2.57,2.57,0,0,1-1.25.36Z"/></svg>