<svg id="Camada_1" data-name="Camada 1" xmlns="http://www.w3.org/2000/svg" viewBox="0 0 294.54 99.25"><defs><style>.cls-1,.cls-2,.cls-5{fill:none;stroke:#000;}.cls-1,.cls-5{stroke-miterlimit:10;}.cls-1,.cls-2{stroke-width:0.4px;}.cls-2{stroke-linecap:round;stroke-linejoin:round;}.cls-3{font-size:14.35px;font-family:CMR12;}.cls-4{font-size:9.96px;font-family:CMR10;}.cls-5{stroke-width:0.57px;}</style></defs><line class="cls-1" x1="12.72" y1="37.38" x2="227.94" y2="37.38"/><path class="cls-2" d="M226.07,35a3.17,3.17,0,0,0,2.07,2.39,3.17,3.17,0,0,0-2.07,2.39"/><line class="cls-1" x1="41.47" y1="34.39" x2="41.47" y2="40.37"/><line class="cls-1" x1="53.4" y1="34.39" x2="53.4" y2="40.37"/><line class="cls-1" x1="65.33" y1="34.39" x2="65.33" y2="40.37"/><line class="cls-1" x1="77.26" y1="34.39" x2="77.26" y2="40.37"/><line class="cls-1" x1="89.19" y1="34.39" x2="89.19" y2="40.37"/><line class="cls-1" x1="101.12" y1="34.39" x2="101.12" y2="40.37"/><line class="cls-1" x1="113.05" y1="34.39" x2="113.05" y2="40.37"/><line class="cls-1" x1="124.98" y1="34.39" x2="124.98" y2="40.37"/><line class="cls-1" x1="136.91" y1="34.39" x2="136.91" y2="40.37"/><line class="cls-1" x1="148.84" y1="34.39" x2="148.84" y2="40.37"/><line class="cls-1" x1="160.77" y1="34.39" x2="160.77" y2="40.37"/><line class="cls-1" x1="172.7" y1="34.39" x2="172.7" y2="40.37"/><line class="cls-1" x1="184.63" y1="34.39" x2="184.63" y2="40.37"/><text class="cls-3" transform="translate(37.96 54.59)">0</text><text class="cls-3" transform="translate(181.71 54.59)">1</text><text class="cls-4" transform="translate(74.92 51.77)">3</text><line class="cls-5" x1="72.43" y1="53.83" x2="82.39" y2="53.83"/><text class="cls-4" transform="translate(72.43 62.37)">12</text><text class="cls-4" transform="translate(146.79 51.77)">9</text><line class="cls-5" x1="144.3" y1="53.83" x2="154.26" y2="53.83"/><text class="cls-4" transform="translate(144.3 62.37)">12</text><text class="cls-4" transform="translate(110.85 51.77)">1</text><line class="cls-5" x1="110.85" y1="53.83" x2="115.83" y2="53.83"/><text class="cls-4" transform="translate(110.85 62.37)">2</text></svg>