<svg id="Camada_1" data-name="Camada 1" xmlns="http://www.w3.org/2000/svg" viewBox="0 0 294.54 99.25"><defs><style>.cls-1,.cls-2,.cls-5{fill:none;stroke:#000;}.cls-1,.cls-5{stroke-miterlimit:10;}.cls-1,.cls-2{stroke-width:0.4px;}.cls-2{stroke-linecap:round;stroke-linejoin:round;}.cls-3{font-size:14.35px;font-family:CMR12;}.cls-4{font-size:9.96px;font-family:CMR10;}.cls-5{stroke-width:0.57px;}</style></defs><line class="cls-1" x1="12.72" y1="37.38" x2="267.4" y2="37.38"/><path class="cls-2" d="M265.53,35a3.17,3.17,0,0,0,2.07,2.39,3.17,3.17,0,0,0-2.07,2.39"/><line class="cls-1" x1="49.16" y1="34.39" x2="49.16" y2="40.37"/><line class="cls-1" x1="85.6" y1="34.39" x2="85.6" y2="40.37"/><line class="cls-1" x1="122.04" y1="34.39" x2="122.04" y2="40.37"/><line class="cls-1" x1="158.48" y1="34.39" x2="158.48" y2="40.37"/><line class="cls-1" x1="194.92" y1="34.39" x2="194.92" y2="40.37"/><line class="cls-1" x1="231.36" y1="34.39" x2="231.36" y2="40.37"/><line class="cls-1" x1="49.16" y1="34.39" x2="49.16" y2="40.37"/><text class="cls-3" transform="translate(45.65 54.6)">0</text><line class="cls-1" x1="122.04" y1="34.39" x2="122.04" y2="40.37"/><text class="cls-3" transform="translate(118.53 54.6)">1</text><line class="cls-1" x1="194.92" y1="34.39" x2="194.92" y2="40.37"/><text class="cls-3" transform="translate(191.41 54.6)">2</text><line class="cls-1" x1="85.6" y1="34.39" x2="85.6" y2="40.37"/><text class="cls-4" transform="translate(83.11 51.77)">1</text><line class="cls-5" x1="83.11" y1="53.83" x2="88.09" y2="53.83"/><text class="cls-4" transform="translate(83.11 62.37)">2</text><line class="cls-1" x1="158.48" y1="34.39" x2="158.48" y2="40.37"/><text class="cls-4" transform="translate(155.99 51.77)">3</text><line class="cls-5" x1="155.99" y1="53.83" x2="160.97" y2="53.83"/><text class="cls-4" transform="translate(155.99 62.37)">2</text><line class="cls-1" x1="231.36" y1="34.39" x2="231.36" y2="40.37"/><text class="cls-4" transform="translate(228.87 51.77)">5</text><line class="cls-5" x1="228.87" y1="53.83" x2="233.85" y2="53.83"/><text class="cls-4" transform="translate(228.87 62.37)">2</text></svg>