<svg id="Camada_1" data-name="Camada 1" xmlns="http://www.w3.org/2000/svg" viewBox="0 0 432 705.31"><defs><style>.cls-1,.cls-3{fill:none;stroke:#000;stroke-miterlimit:10;}.cls-1{stroke-width:0.4px;}.cls-2{font-size:14.35px;font-family:CMR12;}.cls-3{stroke-width:0.57px;}.cls-4{fill:#95d4e9;opacity:0.3;}</style></defs><line class="cls-1" x1="10.18" y1="18.07" x2="417.41" y2="18.07"/><line class="cls-1" x1="10.38" y1="70.58" x2="10.38" y2="18.27"/><path d="M33,30.54a.69.69,0,0,1,.15-.46.58.58,0,0,1,.43-.17h5c.33,0,.5.15.5.43v.09c0,.29-.17.44-.5.44H34.05V34.3h3.36c.33,0,.5.14.5.43v.07a.39.39,0,0,1-.12.33.58.58,0,0,1-.38.1H34.07v3.52a.53.53,0,0,1-.13.36.48.48,0,0,1-.35.13h-.16c-.3,0-.45-.18-.45-.55ZM43.1,32.19a1.18,1.18,0,0,1,.74.21.64.64,0,0,1,.28.54.71.71,0,0,1-.06.31.86.86,0,0,1-.15.2c-.06,0-.09.06-.1,0a1.14,1.14,0,0,0-.82-.29,1.32,1.32,0,0,0-1.23.75A4.38,4.38,0,0,0,41.35,36v2.71c0,.32-.15.49-.44.49h-.12a.43.43,0,0,1-.47-.49V32.41s0,0,.12-.07a.66.66,0,0,1,.25-.05c.36,0,.56.23.61.69s0,.58,0,.75A2.26,2.26,0,0,1,42,32.58a1.68,1.68,0,0,1,1.12-.39Zm1.6,5.24a1.77,1.77,0,0,1,1.12-1.69,9,9,0,0,1,3.57-.56h.15v-.29a1.79,1.79,0,0,0-.48-1.34,1.88,1.88,0,0,0-1.37-.47,2.38,2.38,0,0,0-1.29.33,2.15,2.15,0,0,0-.8.89.52.52,0,0,1-.19,0,.71.71,0,0,1-.31-.16.45.45,0,0,1-.13-.35.76.76,0,0,1,.11-.37,1.51,1.51,0,0,1,.3-.39,3,3,0,0,1,1-.59,4,4,0,0,1,1.39-.23,2.84,2.84,0,0,1,2.08.72,2.65,2.65,0,0,1,.73,2v4.24s0,0-.12.07a.69.69,0,0,1-.25,0q-.52,0-.6-.66,0-.41,0-.63a2.46,2.46,0,0,1-1,1,3.09,3.09,0,0,1-1.52.38,2.61,2.61,0,0,1-1.7-.52,1.69,1.69,0,0,1-.62-1.39Zm4.84-1.58-.24,0a7.76,7.76,0,0,0-2.73.4,1.18,1.18,0,0,0-.84,1.13,1,1,0,0,0,.4.85,1.72,1.72,0,0,0,1.09.31,2.59,2.59,0,0,0,1.18-.27,2.23,2.23,0,0,0,.84-.74,1.89,1.89,0,0,0,.3-1ZM55,42.35a1.67,1.67,0,0,1-.73-.15,1.37,1.37,0,0,1-.49-.37.7.7,0,0,1-.17-.44c0-.27.12-.42.35-.45a1.16,1.16,0,0,0,.94.56,1,1,0,0,0,.61-.18.7.7,0,0,0,.23-.59,1.25,1.25,0,0,0-.41-.86,2.64,2.64,0,0,0-.91-.65A3.1,3.1,0,0,1,52.59,38a3.77,3.77,0,0,1-.68-2.25,3.7,3.7,0,0,1,.45-1.83,3.2,3.2,0,0,1,1.23-1.27,3.77,3.77,0,0,1,3.1-.23,3.27,3.27,0,0,1,1,.6,2.48,2.48,0,0,1,.42.54,1.19,1.19,0,0,1,.14.5.42.42,0,0,1-.14.32.83.83,0,0,1-.32.17c-.11,0-.18,0-.2,0a2.12,2.12,0,0,0-2.17-1.47,2.35,2.35,0,0,0-2.13,1.3,2.94,2.94,0,0,0-.32,1.37,3.06,3.06,0,0,0,.31,1.4,2.22,2.22,0,0,0,.87,1,2.37,2.37,0,0,0,1.27.34,2.21,2.21,0,0,0,1.39-.4A2.39,2.39,0,0,0,57.55,37s.07,0,.19,0a.75.75,0,0,1,.33.17.44.44,0,0,1,.14.34,1.08,1.08,0,0,1-.14.46,2.06,2.06,0,0,1-.39.53,2.88,2.88,0,0,1-1.59.8,3.17,3.17,0,0,1-.53.05,2.66,2.66,0,0,1,.71.71,1.68,1.68,0,0,1,.29.94,1.19,1.19,0,0,1-.47,1,1.93,1.93,0,0,1-1.12.34Zm4.16-4.92a1.77,1.77,0,0,1,1.12-1.69,9.08,9.08,0,0,1,3.57-.56H64v-.29a1.79,1.79,0,0,0-.48-1.34,1.9,1.9,0,0,0-1.37-.47,2.39,2.39,0,0,0-1.3.33,2.15,2.15,0,0,0-.8.89.52.52,0,0,1-.19,0,.63.63,0,0,1-.3-.16.45.45,0,0,1-.14-.35.89.89,0,0,1,.11-.37,1.36,1.36,0,0,1,.31-.39,3,3,0,0,1,1-.59,4,4,0,0,1,1.39-.23,2.83,2.83,0,0,1,2.08.72,2.66,2.66,0,0,1,.74,2v4.24s0,0-.13.07a.69.69,0,0,1-.25,0q-.53,0-.6-.66,0-.41,0-.63a2.46,2.46,0,0,1-1,1,3.06,3.06,0,0,1-1.52.38,2.63,2.63,0,0,1-1.7-.52,1.72,1.72,0,0,1-.62-1.39ZM64,35.85l-.25,0a7.76,7.76,0,0,0-2.73.4,1.18,1.18,0,0,0-.84,1.13,1.05,1.05,0,0,0,.4.85,1.72,1.72,0,0,0,1.09.31,2.56,2.56,0,0,0,1.18-.27,2.23,2.23,0,0,0,.84-.74,1.89,1.89,0,0,0,.31-1Zm-3.42-4.78a.51.51,0,0,1-.33-.13.87.87,0,0,1,0-.35,1.66,1.66,0,0,1,.35-.9.93.93,0,0,1,.75-.35,1,1,0,0,1,.53.13,2.41,2.41,0,0,1,.51.36,4.69,4.69,0,0,0,.77.6.47.47,0,0,0,.22-.2,2.9,2.9,0,0,0,.17-.35,2.15,2.15,0,0,1,.18-.35.27.27,0,0,1,.22-.11.42.42,0,0,1,.32.12,1.09,1.09,0,0,1,.05.39,1.48,1.48,0,0,1-.35.87.93.93,0,0,1-.75.35,1.11,1.11,0,0,1-.52-.13,2.33,2.33,0,0,1-.51-.35l-.35-.3a2.79,2.79,0,0,0-.41-.3.57.57,0,0,0-.2.18,3.56,3.56,0,0,0-.18.35,1.85,1.85,0,0,1-.2.36.25.25,0,0,1-.23.11Zm5.78,4.69a3.74,3.74,0,0,1,.45-1.84A3.34,3.34,0,0,1,68,32.65a3.61,3.61,0,0,1,1.81-.46,3.53,3.53,0,0,1,1.79.46,3.23,3.23,0,0,1,1.22,1.29,3.78,3.78,0,0,1,.45,1.85,3.7,3.7,0,0,1-.45,1.83,3.13,3.13,0,0,1-1.23,1.27,3.46,3.46,0,0,1-1.79.46,3.5,3.5,0,0,1-1.8-.46,3.16,3.16,0,0,1-1.24-1.27,3.93,3.93,0,0,1-.44-1.86Zm5.94,0a3.09,3.09,0,0,0-.31-1.4,2.36,2.36,0,0,0-.88-1,2.26,2.26,0,0,0-1.26-.35,2.39,2.39,0,0,0-1.27.34,2.43,2.43,0,0,0-.89,1,3.2,3.2,0,0,0,0,2.79,2.43,2.43,0,0,0,.89,1,2.43,2.43,0,0,0,2.53,0,2.37,2.37,0,0,0,.88-1,3,3,0,0,0,.31-1.39Zm7.59,3.56a3,3,0,0,1-1.62-.45,3.05,3.05,0,0,1-1.12-1.26,4,4,0,0,1-.41-1.88,4,4,0,0,1,.41-1.85,3.17,3.17,0,0,1,1.13-1.27,3,3,0,0,1,1.64-.45,2.94,2.94,0,0,1,1.51.38,2.41,2.41,0,0,1,1,.94v-4s0-.05.11-.07a.62.62,0,0,1,.25,0c.45,0,.67.31.67.92v8.42c0,.32-.15.49-.46.49h-.1a.4.4,0,0,1-.44-.46c0-.19,0-.49,0-.89a2.73,2.73,0,0,1-2.51,1.46Zm2.5-4.65a2.57,2.57,0,0,0-.87-1.2,2.31,2.31,0,0,0-1.43-.43,2.13,2.13,0,0,0-1.67.74,2.84,2.84,0,0,0-.65,1.95A3.32,3.32,0,0,0,78,37.17a2.29,2.29,0,0,0,.83,1,2.13,2.13,0,0,0,1.19.35,2.31,2.31,0,0,0,1.16-.3,2.09,2.09,0,0,0,.84-.8,2.12,2.12,0,0,0,.31-1.14Zm2.44,2.73a1.77,1.77,0,0,1,1.12-1.69,9,9,0,0,1,3.57-.56h.16v-.29a1.79,1.79,0,0,0-.48-1.34,1.9,1.9,0,0,0-1.37-.47,2.39,2.39,0,0,0-1.3.33,2.15,2.15,0,0,0-.8.89.52.52,0,0,1-.19,0,.63.63,0,0,1-.3-.16.45.45,0,0,1-.14-.35.89.89,0,0,1,.11-.37A1.36,1.36,0,0,1,85.5,33a3,3,0,0,1,1-.59,4,4,0,0,1,1.39-.23,2.83,2.83,0,0,1,2.08.72,2.66,2.66,0,0,1,.74,2v4.24s-.05,0-.13.07a.69.69,0,0,1-.25,0q-.52,0-.6-.66,0-.41,0-.63a2.46,2.46,0,0,1-1,1,3.06,3.06,0,0,1-1.52.38,2.61,2.61,0,0,1-1.7-.52,1.72,1.72,0,0,1-.62-1.39Zm4.85-1.58-.25,0a7.76,7.76,0,0,0-2.73.4,1.18,1.18,0,0,0-.84,1.13,1,1,0,0,0,.4.85,1.72,1.72,0,0,0,1.09.31,2.56,2.56,0,0,0,1.18-.27,2.23,2.23,0,0,0,.84-.74,1.89,1.89,0,0,0,.31-1Z"/><path d="M43.41,49.73c.31,0,.46.16.46.48v6.36s0,0-.12.07a.73.73,0,0,1-.25,0c-.36,0-.56-.22-.6-.67,0-.25,0-.43,0-.56a2.9,2.9,0,0,1-1,1,2.65,2.65,0,0,1-1.39.37A2.34,2.34,0,0,1,38.56,56a3.27,3.27,0,0,1-.67-2.17V50.21c0-.32.15-.48.46-.48h.11c.31,0,.46.16.46.48v3.52a2.41,2.41,0,0,0,.47,1.57,1.66,1.66,0,0,0,1.34.57A2.21,2.21,0,0,0,42,55.49a2.26,2.26,0,0,0,.84-1V50.21c0-.32.15-.48.44-.48Zm5.65-.1a2.37,2.37,0,0,1,2,.8,3.27,3.27,0,0,1,.67,2.17v3.58c0,.33-.15.49-.45.49h-.12c-.31,0-.46-.16-.46-.49v-3.5a2.41,2.41,0,0,0-.47-1.57,1.61,1.61,0,0,0-1.33-.57,2.24,2.24,0,0,0-1.28.38,2.35,2.35,0,0,0-.84,1v4.26c0,.33-.15.49-.44.49h-.13c-.31,0-.46-.16-.46-.49V49.84s0,0,.12-.07a.69.69,0,0,1,.25,0c.4,0,.61.28.63.86V51a2.79,2.79,0,0,1,1-1,2.67,2.67,0,0,1,1.39-.36Zm4.35-2a.66.66,0,1,1,1.32,0,.62.62,0,0,1-.18.48.69.69,0,0,1-.49.17.69.69,0,0,1-.48-.17.65.65,0,0,1-.17-.48Zm.13,2.6c0-.34.15-.5.46-.5h.11c.31,0,.46.16.46.5v6c0,.33-.15.49-.46.49H54c-.31,0-.46-.16-.46-.49Zm5.67,6.56a3,3,0,0,1-1.62-.46,3.07,3.07,0,0,1-1.13-1.26,4.45,4.45,0,0,1,0-3.73,3,3,0,0,1,2.78-1.71,2.93,2.93,0,0,1,1.5.37,2.44,2.44,0,0,1,1,1V47s0-.06.11-.08a.93.93,0,0,1,.25,0c.45,0,.68.31.68.92v8.42c0,.33-.16.49-.46.49h-.1a.4.4,0,0,1-.45-.46c0-.19,0-.49,0-.89a3,3,0,0,1-1,1.08,2.79,2.79,0,0,1-1.5.39Zm2.49-4.65a2.6,2.6,0,0,0-.86-1.21,2.4,2.4,0,0,0-1.43-.43,2.11,2.11,0,0,0-1.68.75,2.89,2.89,0,0,0-.65,2,3.16,3.16,0,0,0,.3,1.4,2.24,2.24,0,0,0,.82,1,2.15,2.15,0,0,0,1.19.34,2.47,2.47,0,0,0,1.17-.29,2.23,2.23,0,0,0,.83-.81,2.12,2.12,0,0,0,.31-1.14Zm2.44,2.72a1.77,1.77,0,0,1,1.13-1.68,9,9,0,0,1,3.56-.57H69v-.29A1.79,1.79,0,0,0,68.51,51a1.89,1.89,0,0,0-1.37-.46,2.39,2.39,0,0,0-1.3.33,2.07,2.07,0,0,0-.79.89.46.46,0,0,1-.2,0,.61.61,0,0,1-.3-.15.46.46,0,0,1-.14-.36.85.85,0,0,1,.11-.36,1.6,1.6,0,0,1,.31-.4,2.89,2.89,0,0,1,1-.58,3.72,3.72,0,0,1,1.39-.23,2.88,2.88,0,0,1,2.08.71,2.67,2.67,0,0,1,.73,2v4.23s0,0-.12.07a.73.73,0,0,1-.25,0c-.36,0-.56-.21-.61-.65,0-.27,0-.48,0-.64a2.54,2.54,0,0,1-1,1,3.08,3.08,0,0,1-1.52.37,2.54,2.54,0,0,1-1.7-.52,1.69,1.69,0,0,1-.63-1.39ZM69,53.28l-.24,0a8,8,0,0,0-2.74.4,1.18,1.18,0,0,0-.83,1.13,1,1,0,0,0,.4.85,1.7,1.7,0,0,0,1.09.32,2.41,2.41,0,0,0,1.17-.28,2,2,0,0,0,.84-.74,1.79,1.79,0,0,0,.31-1Zm5.52,3.51a3,3,0,0,1-1.62-.46,3.12,3.12,0,0,1-1.12-1.26,4.45,4.45,0,0,1,0-3.73,3.07,3.07,0,0,1,1.13-1.26,3,3,0,0,1,1.64-.45,2.94,2.94,0,0,1,1.51.37,2.44,2.44,0,0,1,1,1V47s0-.06.11-.08a.87.87,0,0,1,.25,0c.45,0,.67.31.67.92v8.42c0,.33-.15.49-.46.49h-.1c-.29,0-.44-.15-.44-.46s0-.49,0-.89a3,3,0,0,1-1,1.08,2.75,2.75,0,0,1-1.5.39ZM77,52.14a2.55,2.55,0,0,0-.87-1.21,2.35,2.35,0,0,0-1.42-.43,2.11,2.11,0,0,0-1.68.75,2.89,2.89,0,0,0-.65,2,3.16,3.16,0,0,0,.3,1.4,2.24,2.24,0,0,0,.82,1,2.12,2.12,0,0,0,1.19.34,2.4,2.4,0,0,0,1.16-.29,2.18,2.18,0,0,0,.84-.81A2.12,2.12,0,0,0,77,53.67Zm2.44,1.1a3.93,3.93,0,0,1,.44-1.86,3.25,3.25,0,0,1,1.2-1.29,3.29,3.29,0,0,1,1.75-.46,3.16,3.16,0,0,1,1.65.42,2.85,2.85,0,0,1,1.1,1.18A3.85,3.85,0,0,1,86,53v.1a.37.37,0,0,1-.08.26.47.47,0,0,1-.28.07H80.44a1.15,1.15,0,0,0,0,.2,2.49,2.49,0,0,0,.79,1.66,2.41,2.41,0,0,0,1.71.63,2.52,2.52,0,0,0,1.4-.34,2.43,2.43,0,0,0,.82-.92.37.37,0,0,1,.2,0,.59.59,0,0,1,.27.18.45.45,0,0,1,.12.33.81.81,0,0,1-.13.4,1.85,1.85,0,0,1-.41.44,3,3,0,0,1-1,.53,4,4,0,0,1-1.33.21,3.65,3.65,0,0,1-1.83-.45,3.12,3.12,0,0,1-1.22-1.25,3.86,3.86,0,0,1-.44-1.85ZM85,52.68a2.44,2.44,0,0,0-.62-1.61,2,2,0,0,0-1.5-.61,2.16,2.16,0,0,0-1.58.62,2.63,2.63,0,0,0-.79,1.6Z"/><line class="cls-1" x1="113.1" y1="70.58" x2="113.1" y2="18.27"/><path d="M169.65,21.82a.61.61,0,0,1,.16-.45.54.54,0,0,1,.43-.18h5c.34,0,.5.15.5.43v.09c0,.3-.16.44-.5.44h-4.54v3.43h3.35c.34,0,.5.15.5.43v.08a.42.42,0,0,1-.12.33.64.64,0,0,1-.38.1h-3.34V30a.52.52,0,0,1-.12.36.45.45,0,0,1-.35.13h-.16c-.31,0-.46-.18-.46-.55Zm7.3-.34a.66.66,0,1,1,1.32,0,.62.62,0,0,1-.18.48.69.69,0,0,1-.49.17.69.69,0,0,1-.48-.17.65.65,0,0,1-.17-.48Zm.13,2.6c0-.34.15-.5.46-.5h.11c.31,0,.46.16.46.5v6c0,.33-.15.49-.46.49h-.11c-.31,0-.46-.16-.46-.49Zm5.21,9.41c-2.13,0-3.2-.62-3.2-1.87a1.55,1.55,0,0,1,.63-1.24,3.54,3.54,0,0,1,1.61-.69.79.79,0,0,1-.43-.69.86.86,0,0,1,.41-.73,2.55,2.55,0,0,1-1.26-.86,2.17,2.17,0,0,1-.47-1.4,2.4,2.4,0,0,1,.36-1.28,2.52,2.52,0,0,1,1-.92,3.07,3.07,0,0,1,1.42-.34A2.81,2.81,0,0,1,184,24l.51-.78a.75.75,0,0,1,.61-.41.53.53,0,0,1,.3.09,1.34,1.34,0,0,1,.21.2.23.23,0,0,1,.06.17l-1.13,1.2a2.31,2.31,0,0,1,.25,2.8,2.42,2.42,0,0,1-1,.88,3.07,3.07,0,0,1-1.43.32H182a.41.41,0,0,0-.18.37.45.45,0,0,0,.31.39,5.44,5.44,0,0,0,1,.3l.53.13c1.37.34,2,.95,2,1.84a1.67,1.67,0,0,1-.9,1.5,4.89,4.89,0,0,1-2.54.55Zm0-.75a4.12,4.12,0,0,0,1.78-.31,1,1,0,0,0,.63-.92.8.8,0,0,0-.4-.69,3.67,3.67,0,0,0-1.11-.43l-.85-.2a4,4,0,0,0-1.62.46,1.12,1.12,0,0,0-.66,1,.92.92,0,0,0,.57.84,3.8,3.8,0,0,0,1.66.29Zm0-5a1.76,1.76,0,0,0,1.27-.48,1.63,1.63,0,0,0,.49-1.24,1.67,1.67,0,0,0-.49-1.26,1.74,1.74,0,0,0-1.29-.48,1.7,1.7,0,0,0-1.26.48,1.67,1.67,0,0,0-.49,1.26,1.63,1.63,0,0,0,.5,1.24,1.74,1.74,0,0,0,1.27.48Zm9.74-4.13a.42.42,0,0,1,.46.48v6.36s0,0-.13.07a.69.69,0,0,1-.25,0c-.35,0-.55-.22-.6-.67,0-.25,0-.44,0-.56a3,3,0,0,1-1,1,2.6,2.6,0,0,1-1.38.36,2.4,2.4,0,0,1-2-.81,3.33,3.33,0,0,1-.67-2.17V24.06a.42.42,0,0,1,.46-.48h.12a.42.42,0,0,1,.46.48v3.52a2.35,2.35,0,0,0,.47,1.57,1.64,1.64,0,0,0,1.33.57,2.19,2.19,0,0,0,1.27-.38,2.34,2.34,0,0,0,.84-1V24.06q0-.48.45-.48Zm5.08-.11a1.17,1.17,0,0,1,.73.21.64.64,0,0,1,.28.54.76.76,0,0,1-.06.32.49.49,0,0,1-.15.19c-.06,0-.09.06-.1.05a1.12,1.12,0,0,0-.82-.29,1.34,1.34,0,0,0-1.23.75,4.42,4.42,0,0,0-.4,2.08V30c0,.33-.15.49-.45.49h-.11a.43.43,0,0,1-.48-.49V23.69s0,0,.12-.07a.68.68,0,0,1,.26,0c.35,0,.55.22.6.68s0,.58,0,.75a2.13,2.13,0,0,1,.66-1.15,1.66,1.66,0,0,1,1.12-.39Zm1.6,5.24A1.76,1.76,0,0,1,199.9,27a9,9,0,0,1,3.56-.57h.16v-.29a1.79,1.79,0,0,0-.48-1.34,1.9,1.9,0,0,0-1.37-.47,2.39,2.39,0,0,0-1.3.33,2.12,2.12,0,0,0-.79.89.39.39,0,0,1-.2,0,.55.55,0,0,1-.3-.16.44.44,0,0,1-.14-.35.85.85,0,0,1,.11-.36,1.6,1.6,0,0,1,.31-.4,2.9,2.9,0,0,1,1-.59,3.93,3.93,0,0,1,1.39-.23,2.84,2.84,0,0,1,2.08.72,2.66,2.66,0,0,1,.73,2v4.23s0,0-.12.07a.73.73,0,0,1-.25,0c-.36,0-.56-.22-.61-.66,0-.26,0-.48,0-.63a2.54,2.54,0,0,1-1,1,3.19,3.19,0,0,1-1.52.37,2.54,2.54,0,0,1-1.7-.52,1.7,1.7,0,0,1-.63-1.39Zm4.85-1.58-.24,0a8,8,0,0,0-2.74.4,1.18,1.18,0,0,0-.83,1.13,1,1,0,0,0,.4.85,1.7,1.7,0,0,0,1.09.31,2.52,2.52,0,0,0,1.17-.27,2.09,2.09,0,0,0,.84-.74,1.79,1.79,0,0,0,.31-1Z"/><path d="M133.65,44.47a3.7,3.7,0,0,1,.45-1.83,3.27,3.27,0,0,1,1.23-1.27,3.45,3.45,0,0,1,1.78-.46,3.58,3.58,0,0,1,1.32.23,2.9,2.9,0,0,1,1,.6,2.08,2.08,0,0,1,.42.54,1.19,1.19,0,0,1,.14.49.42.42,0,0,1-.14.33.81.81,0,0,1-.32.16c-.11,0-.18,0-.2,0a2.12,2.12,0,0,0-2.16-1.46A2.31,2.31,0,0,0,135,43.1a2.91,2.91,0,0,0-.32,1.37,3.23,3.23,0,0,0,.31,1.4,2.32,2.32,0,0,0,.87,1,2.39,2.39,0,0,0,1.28.35,2.2,2.2,0,0,0,1.38-.4,2.39,2.39,0,0,0,.78-1.06s.08,0,.2,0a.69.69,0,0,1,.32.16.47.47,0,0,1,.14.35,1.12,1.12,0,0,1-.14.46,2.08,2.08,0,0,1-.42.54,2.45,2.45,0,0,1-.94.62,3.7,3.7,0,0,1-1.35.23,3.39,3.39,0,0,1-1.77-.46,3.22,3.22,0,0,1-1.23-1.28,3.82,3.82,0,0,1-.45-1.86Zm7.24,0a3.71,3.71,0,0,1,.44-1.84,3.27,3.27,0,0,1,1.23-1.27,3.51,3.51,0,0,1,1.81-.46,3.43,3.43,0,0,1,1.79.46,3.14,3.14,0,0,1,1.22,1.28,3.82,3.82,0,0,1,.45,1.86,3.7,3.7,0,0,1-.45,1.83,3.2,3.2,0,0,1-1.23,1.27,3.46,3.46,0,0,1-1.79.46,3.5,3.5,0,0,1-1.8-.46,3.18,3.18,0,0,1-1.24-1.28,3.86,3.86,0,0,1-.43-1.85Zm5.93,0a3.06,3.06,0,0,0-.31-1.4,2.36,2.36,0,0,0-.88-1,2.26,2.26,0,0,0-1.26-.36,2.4,2.4,0,0,0-1.27.35,2.43,2.43,0,0,0-.89,1,3.18,3.18,0,0,0,0,2.78,2.46,2.46,0,0,0,.89,1,2.39,2.39,0,0,0,3.41-1,2.92,2.92,0,0,0,.31-1.38Zm5.21-3.6a1.2,1.2,0,0,1,.74.21.64.64,0,0,1,.28.54A.71.71,0,0,1,153,42a.63.63,0,0,1-.15.19.22.22,0,0,1-.11.06,1.06,1.06,0,0,0-.81-.29,1.32,1.32,0,0,0-1.23.74,4.41,4.41,0,0,0-.41,2.08v2.72c0,.32-.15.48-.44.48h-.12a.42.42,0,0,1-.47-.48V41.12s0,0,.11-.07a.75.75,0,0,1,.26,0q.54,0,.6.69c0,.32,0,.57,0,.74a2.27,2.27,0,0,1,.66-1.14,1.68,1.68,0,0,1,1.12-.39Zm4.92,0a1.18,1.18,0,0,1,.74.21.64.64,0,0,1,.28.54.71.71,0,0,1-.06.31.63.63,0,0,1-.15.19c-.06.05-.09.06-.1.06a1.1,1.1,0,0,0-.82-.29,1.32,1.32,0,0,0-1.23.74,4.41,4.41,0,0,0-.41,2.08v2.72c0,.32-.15.48-.44.48h-.12a.42.42,0,0,1-.47-.48V41.12s0,0,.11-.07a.75.75,0,0,1,.26,0c.36,0,.56.23.61.69s0,.57,0,.74a2.27,2.27,0,0,1,.66-1.14,1.68,1.68,0,0,1,1.12-.39Zm1.39,3.61a3.92,3.92,0,0,1,.44-1.85,3.27,3.27,0,0,1,2.95-1.76,3.23,3.23,0,0,1,1.66.42,2.85,2.85,0,0,1,1.09,1.19,3.77,3.77,0,0,1,.39,1.76v.1a.31.31,0,0,1-.08.26.39.39,0,0,1-.28.07h-5.18a1,1,0,0,0,0,.2,2.55,2.55,0,0,0,.78,1.67,2.42,2.42,0,0,0,1.71.63,2.5,2.5,0,0,0,1.4-.35,2.43,2.43,0,0,0,.83-.91.4.4,0,0,1,.19,0,.59.59,0,0,1,.27.18.44.44,0,0,1,.13.33.8.8,0,0,1-.14.4,1.69,1.69,0,0,1-.41.45,2.84,2.84,0,0,1-1,.52,3.91,3.91,0,0,1-1.33.21,3.59,3.59,0,0,1-1.82-.45,3,3,0,0,1-1.23-1.25,3.86,3.86,0,0,1-.44-1.85Zm5.51-.55a2.46,2.46,0,0,0-.61-1.62,2,2,0,0,0-1.51-.61,2.21,2.21,0,0,0-1.58.62,2.71,2.71,0,0,0-.79,1.61Zm2.31,3.38a1,1,0,0,1-.41-.69.44.44,0,0,1,.09-.27.6.6,0,0,1,.21-.18c.07,0,.12-.06.14-.05a2.38,2.38,0,0,0,.93.78,3.07,3.07,0,0,0,1.4.3,2.24,2.24,0,0,0,1.25-.31,1,1,0,0,0,.45-.83.78.78,0,0,0-.22-.6,1.53,1.53,0,0,0-.59-.34c-.24-.08-.61-.17-1.1-.28a8,8,0,0,1-1.19-.32,2.14,2.14,0,0,1-.83-.56,1.45,1.45,0,0,1-.34-1,1.82,1.82,0,0,1,.71-1.5,2.91,2.91,0,0,1,1.88-.57,3.91,3.91,0,0,1,1.35.21,2.27,2.27,0,0,1,.89.56A1,1,0,0,1,171,42a.61.61,0,0,1,.07.28.47.47,0,0,1-.09.28.79.79,0,0,1-.22.19c-.08,0-.12.06-.13,0a2.26,2.26,0,0,0-.84-.74,2.53,2.53,0,0,0-1.2-.28,2,2,0,0,0-1.21.31,1,1,0,0,0-.44.82.77.77,0,0,0,.21.57,1.55,1.55,0,0,0,.58.33c.24.08.59.17,1.06.28a9.57,9.57,0,0,1,1.25.35,2.16,2.16,0,0,1,.86.57,1.44,1.44,0,0,1,.36,1,1.82,1.82,0,0,1-.74,1.51,3.18,3.18,0,0,1-2,.57,4.46,4.46,0,0,1-1.38-.2,3.11,3.11,0,0,1-1-.52Zm10-6.44a3,3,0,0,1,2.74,1.7,4,4,0,0,1,.41,1.86,4.05,4.05,0,0,1-.41,1.87,3.07,3.07,0,0,1-1.13,1.28,3,3,0,0,1-1.64.45,2.84,2.84,0,0,1-1.53-.41,2.32,2.32,0,0,1-.94-1v3.56c0,.33-.15.49-.44.49h-.12c-.31,0-.46-.16-.46-.49V41.12s0,0,.12-.07a.61.61,0,0,1,.24,0c.38,0,.59.26.63.77l0,.59a2.73,2.73,0,0,1,2.51-1.46ZM176,47.19a2.17,2.17,0,0,0,1.71-.74,2.92,2.92,0,0,0,.64-2,3.16,3.16,0,0,0-.3-1.4,2.4,2.4,0,0,0-.83-.95,2.13,2.13,0,0,0-1.19-.35,2.38,2.38,0,0,0-1.43.44,2.7,2.7,0,0,0-.89,1.21V45a2.22,2.22,0,0,0,.3,1.13,2.29,2.29,0,0,0,2,1.1Zm4.35-2.71a3.82,3.82,0,0,1,.44-1.84A3.22,3.22,0,0,1,182,41.37a3.47,3.47,0,0,1,1.8-.46,3.43,3.43,0,0,1,1.79.46,3.23,3.23,0,0,1,1.23,1.28,3.93,3.93,0,0,1,.44,1.86,3.81,3.81,0,0,1-.44,1.83,3.29,3.29,0,0,1-1.24,1.27,3.43,3.43,0,0,1-1.79.46,3.5,3.5,0,0,1-1.8-.46,3.16,3.16,0,0,1-1.23-1.28,3.75,3.75,0,0,1-.44-1.85Zm5.94,0a3.07,3.07,0,0,0-.32-1.4,2.41,2.41,0,0,0-.87-1,2.32,2.32,0,0,0-1.27-.36,2.37,2.37,0,0,0-2.15,1.31,3.09,3.09,0,0,0,0,2.78,2.43,2.43,0,0,0,.88,1,2.34,2.34,0,0,0,1.27.35,2.31,2.31,0,0,0,2.14-1.3,2.93,2.93,0,0,0,.32-1.38Zm5.78-3.6a2.43,2.43,0,0,1,2,.8,3.33,3.33,0,0,1,.66,2.17v3.59c0,.32-.14.48-.44.48h-.13c-.31,0-.46-.16-.46-.48V44a2.44,2.44,0,0,0-.46-1.58,1.66,1.66,0,0,0-1.33-.56,2.25,2.25,0,0,0-1.29.37,2.4,2.4,0,0,0-.83,1v4.27q0,.48-.45.48h-.13a.42.42,0,0,1-.46-.48V41.12s0,0,.12-.07a.78.78,0,0,1,.26,0c.4,0,.61.29.63.86v.4a2.68,2.68,0,0,1,1-1,2.56,2.56,0,0,1,1.39-.37Zm7.13,7.16a3,3,0,0,1-1.62-.45,3.1,3.1,0,0,1-1.13-1.27,4.45,4.45,0,0,1,0-3.73,3,3,0,0,1,2.78-1.71,2.93,2.93,0,0,1,1.5.37,2.53,2.53,0,0,1,1,.95v-4s0-.05.1-.08a1,1,0,0,1,.25,0c.45,0,.68.3.68.91v8.43c0,.32-.15.48-.46.48h-.1a.4.4,0,0,1-.45-.46c0-.19,0-.48,0-.88a3.06,3.06,0,0,1-1,1.07,2.79,2.79,0,0,1-1.5.39Zm2.5-4.65a2.6,2.6,0,0,0-.87-1.2,2.34,2.34,0,0,0-1.43-.44,2.11,2.11,0,0,0-1.68.75,2.88,2.88,0,0,0-.64,1.95,3.17,3.17,0,0,0,.29,1.41,2.34,2.34,0,0,0,.82,1,2.18,2.18,0,0,0,1.2.34,2.31,2.31,0,0,0,2-1.09,2.21,2.21,0,0,0,.31-1.14Zm2.43,1.1a3.92,3.92,0,0,1,.44-1.85,3.27,3.27,0,0,1,2.95-1.76,3.23,3.23,0,0,1,1.66.42,2.85,2.85,0,0,1,1.09,1.19,3.77,3.77,0,0,1,.39,1.76v.1a.31.31,0,0,1-.08.26.39.39,0,0,1-.28.07h-5.18a1,1,0,0,0,0,.2,2.55,2.55,0,0,0,.78,1.67,2.42,2.42,0,0,0,1.71.63,2.5,2.5,0,0,0,1.4-.35,2.43,2.43,0,0,0,.83-.91.4.4,0,0,1,.19,0,.59.59,0,0,1,.27.18.44.44,0,0,1,.13.33.8.8,0,0,1-.14.4,1.69,1.69,0,0,1-.41.45,2.84,2.84,0,0,1-1,.52,3.91,3.91,0,0,1-1.33.21,3.59,3.59,0,0,1-1.82-.45,3,3,0,0,1-1.23-1.25,3.86,3.86,0,0,1-.44-1.85ZM209.6,44a2.46,2.46,0,0,0-.61-1.62,2,2,0,0,0-1.51-.61,2.21,2.21,0,0,0-1.58.62,2.71,2.71,0,0,0-.79,1.61Zm5.77-3.06a2.43,2.43,0,0,1,2,.8,3.33,3.33,0,0,1,.67,2.17v3.59q0,.48-.45.48h-.13a.42.42,0,0,1-.46-.48V44a2.44,2.44,0,0,0-.46-1.58,1.65,1.65,0,0,0-1.33-.56,2.19,2.19,0,0,0-1.28.37,2.35,2.35,0,0,0-.84,1v4.27q0,.48-.45.48h-.13a.42.42,0,0,1-.46-.48V41.12s0,0,.13-.07a.69.69,0,0,1,.25,0c.4,0,.61.29.63.86v.4a2.68,2.68,0,0,1,1-1,2.56,2.56,0,0,1,1.39-.37Zm6.73,7.16a1.79,1.79,0,0,1-1.41-.53,2.37,2.37,0,0,1-.47-1.62v-4h-.67c-.3,0-.45-.13-.45-.38v-.11c0-.25.15-.38.45-.38h.67V39.86c0-.33.15-.5.46-.5h.11c.3,0,.45.17.45.5v1.21H223c.3,0,.45.13.45.38v.09c0,.27-.15.4-.46.4h-1.74v3.82a1.86,1.86,0,0,0,.25,1.1.89.89,0,0,0,.77.33,1.15,1.15,0,0,0,1-.53s.05,0,.1,0a.43.43,0,0,1,.13.16.61.61,0,0,1,.06.28.75.75,0,0,1-.26.53,1.71,1.71,0,0,1-1.19.4Zm2.17-3.55a3.91,3.91,0,0,1,.43-1.85,3.27,3.27,0,0,1,3-1.76,3.23,3.23,0,0,1,1.66.42,2.94,2.94,0,0,1,1.1,1.19,3.9,3.9,0,0,1,.38,1.76v.1a.31.31,0,0,1-.08.26.39.39,0,0,1-.28.07h-5.17a1.09,1.09,0,0,0,0,.2,2.55,2.55,0,0,0,.78,1.67A2.51,2.51,0,0,0,230,46a.4.4,0,0,1,.19,0,.67.67,0,0,1,.28.18.48.48,0,0,1,.12.33.8.8,0,0,1-.14.4,1.69,1.69,0,0,1-.41.45,2.89,2.89,0,0,1-.94.52,4,4,0,0,1-1.34.21,3.61,3.61,0,0,1-1.82-.45,3,3,0,0,1-1.23-1.25,3.86,3.86,0,0,1-.43-1.85Zm5.5-.55a2.41,2.41,0,0,0-.61-1.62,2,2,0,0,0-1.51-.61,2.21,2.21,0,0,0-1.58.62,2.71,2.71,0,0,0-.79,1.61Zm4.42,2.18a1.78,1.78,0,0,1,1.13-1.69,9,9,0,0,1,3.56-.57H239v-.28a1.77,1.77,0,0,0-.48-1.34,1.85,1.85,0,0,0-1.37-.47,2.39,2.39,0,0,0-1.3.33,2.12,2.12,0,0,0-.79.89.57.57,0,0,1-.2,0,.73.73,0,0,1-.3-.16.45.45,0,0,1-.13-.35.82.82,0,0,1,.1-.37,1.4,1.4,0,0,1,.31-.39,2.84,2.84,0,0,1,1-.59,3.93,3.93,0,0,1,1.39-.23,2.84,2.84,0,0,1,2.08.72,2.65,2.65,0,0,1,.73,2v4.23s0,0-.12.07a.74.74,0,0,1-.25,0c-.36,0-.56-.22-.61-.66,0-.27,0-.48,0-.63a2.52,2.52,0,0,1-1,1,3.08,3.08,0,0,1-1.52.37,2.59,2.59,0,0,1-1.7-.51,1.71,1.71,0,0,1-.63-1.39ZM239,44.57h-.24a8.07,8.07,0,0,0-2.74.4,1.2,1.2,0,0,0-.83,1.14,1,1,0,0,0,.4.84,1.7,1.7,0,0,0,1.09.32,2.52,2.52,0,0,0,1.17-.27,2.09,2.09,0,0,0,.84-.74,1.82,1.82,0,0,0,.31-1Zm-.8-4.54a3.59,3.59,0,0,1-.76-.33,7.25,7.25,0,0,1-1.2-.77c-.36-.29-.54-.55-.54-.8a.45.45,0,0,1,.13-.33.42.42,0,0,1,.32-.13,1.31,1.31,0,0,1,.86.5,7.49,7.49,0,0,1,.91,1.1,3,3,0,0,1,.41.71s-.05.05-.13.05Z"/><path d="M134.25,59.38h-1a.54.54,0,0,1-.35-.1.45.45,0,0,1-.1-.3v-.09a.4.4,0,0,1,.1-.29.49.49,0,0,1,.35-.1h1v-.69a2.66,2.66,0,0,1,.52-1.78,1.82,1.82,0,0,1,1.47-.6,1.72,1.72,0,0,1,1.17.35.59.59,0,0,1,.23.48.55.55,0,0,1-.06.26.74.74,0,0,1-.12.16c-.05,0-.07,0-.08,0a1.4,1.4,0,0,0-.45-.29,1.48,1.48,0,0,0-.59-.12.94.94,0,0,0-.83.38,2.12,2.12,0,0,0-.27,1.21v.6h1.32c.31,0,.46.13.46.39V59c0,.26-.15.4-.46.4h-1.29V64.9c0,.33-.15.49-.45.49h-.11c-.31,0-.46-.16-.46-.49Zm6.8-1a1.2,1.2,0,0,1,.74.21.64.64,0,0,1,.28.54.63.63,0,0,1-.07.32.49.49,0,0,1-.15.19s-.09.06-.1,0a1.1,1.1,0,0,0-.81-.29,1.32,1.32,0,0,0-1.23.75,4.41,4.41,0,0,0-.41,2.08V64.9c0,.33-.15.49-.45.49h-.11c-.32,0-.47-.16-.47-.49V58.56s0,0,.11-.07a.71.71,0,0,1,.26,0c.35,0,.55.22.6.68s0,.58,0,.75a2.13,2.13,0,0,1,.66-1.15,1.68,1.68,0,0,1,1.12-.39Zm1.61,5.24a1.75,1.75,0,0,1,1.12-1.68,9,9,0,0,1,3.57-.57h.16V61A1.79,1.79,0,0,0,147,59.7a1.91,1.91,0,0,0-1.37-.47,2.39,2.39,0,0,0-1.3.33,2.15,2.15,0,0,0-.8.89.35.35,0,0,1-.19,0,.55.55,0,0,1-.3-.16.41.41,0,0,1-.14-.35.85.85,0,0,1,.11-.36,1.4,1.4,0,0,1,.31-.4,2.85,2.85,0,0,1,1-.59,4,4,0,0,1,1.39-.23,2.84,2.84,0,0,1,2.08.72,2.66,2.66,0,0,1,.73,2v4.23s0,0-.12.07a.69.69,0,0,1-.25,0q-.53,0-.6-.66c0-.26,0-.48,0-.63a2.54,2.54,0,0,1-1,1,3.19,3.19,0,0,1-1.52.37,2.56,2.56,0,0,1-1.7-.52,1.69,1.69,0,0,1-.62-1.39ZM147.51,62l-.25,0a8,8,0,0,0-2.73.4,1.19,1.19,0,0,0-.84,1.13,1,1,0,0,0,.4.85,1.72,1.72,0,0,0,1.09.31,2.59,2.59,0,0,0,1.18-.27,2.23,2.23,0,0,0,.84-.74,1.87,1.87,0,0,0,.31-1Zm5.42,6.5a1.67,1.67,0,0,1-.73-.15,1.27,1.27,0,0,1-.49-.37.7.7,0,0,1-.17-.44c0-.27.12-.42.36-.44a1.16,1.16,0,0,0,.93.56,1,1,0,0,0,.61-.19.7.7,0,0,0,.23-.59,1.27,1.27,0,0,0-.41-.86,2.64,2.64,0,0,0-.91-.65,3.1,3.1,0,0,1-1.8-1.22,3.77,3.77,0,0,1-.68-2.25,3.7,3.7,0,0,1,.45-1.83,3.26,3.26,0,0,1,1.23-1.27,3.77,3.77,0,0,1,3.1-.23,3.1,3.1,0,0,1,1,.61,2.22,2.22,0,0,1,.42.53,1.23,1.23,0,0,1,.14.5.42.42,0,0,1-.14.32.83.83,0,0,1-.32.17c-.11,0-.18,0-.2,0a2.12,2.12,0,0,0-2.17-1.47,2.39,2.39,0,0,0-1.26.35,2.42,2.42,0,0,0-.87,1,3,3,0,0,0-.32,1.37,3,3,0,0,0,.31,1.4,2.28,2.28,0,0,0,.87,1,2.37,2.37,0,0,0,1.27.34,2.21,2.21,0,0,0,1.39-.4,2.39,2.39,0,0,0,.78-1.06s.07,0,.19,0a.75.75,0,0,1,.33.17.44.44,0,0,1,.14.34,1,1,0,0,1-.14.46,2.06,2.06,0,0,1-.39.53,3,3,0,0,1-1.59.81,4.55,4.55,0,0,1-.53,0,2.56,2.56,0,0,1,.71.72,1.55,1.55,0,0,1,.29.93,1.19,1.19,0,0,1-.47,1,1.86,1.86,0,0,1-1.12.34Zm4.16-4.92a1.75,1.75,0,0,1,1.13-1.68,9,9,0,0,1,3.56-.57h.16V61a1.79,1.79,0,0,0-.48-1.34,1.9,1.9,0,0,0-1.37-.47,2.39,2.39,0,0,0-1.3.33,2.15,2.15,0,0,0-.8.89.35.35,0,0,1-.19,0,.55.55,0,0,1-.3-.16.44.44,0,0,1-.14-.35.85.85,0,0,1,.11-.36,1.4,1.4,0,0,1,.31-.4,3,3,0,0,1,1-.59,4,4,0,0,1,1.39-.23,2.87,2.87,0,0,1,2.09.72,2.7,2.7,0,0,1,.73,2v4.23s0,0-.13.07a.69.69,0,0,1-.25,0q-.53,0-.6-.66c0-.26,0-.48,0-.63a2.54,2.54,0,0,1-1,1,3.17,3.17,0,0,1-1.52.37,2.58,2.58,0,0,1-1.7-.52,1.72,1.72,0,0,1-.62-1.39ZM161.94,62l-.25,0a8,8,0,0,0-2.73.4,1.19,1.19,0,0,0-.84,1.13,1,1,0,0,0,.4.85,1.72,1.72,0,0,0,1.09.31,2.56,2.56,0,0,0,1.18-.27,2.23,2.23,0,0,0,.84-.74,1.79,1.79,0,0,0,.31-1Zm-3.42-4.77a.58.58,0,0,1-.33-.13,1.25,1.25,0,0,1,0-.36,1.69,1.69,0,0,1,.35-.9,1,1,0,0,1,.76-.35,1,1,0,0,1,.52.13,2.41,2.41,0,0,1,.51.36,4.69,4.69,0,0,0,.77.6.5.5,0,0,0,.22-.19,2,2,0,0,0,.17-.36,2.69,2.69,0,0,1,.18-.35.26.26,0,0,1,.22-.1.42.42,0,0,1,.32.11,1.14,1.14,0,0,1,.06.39,1.56,1.56,0,0,1-.36.87.93.93,0,0,1-.75.35,1.11,1.11,0,0,1-.52-.12,2.84,2.84,0,0,1-.51-.36l-.35-.3a2.79,2.79,0,0,0-.41-.3.57.57,0,0,0-.2.18,3.56,3.56,0,0,0-.18.35,1.85,1.85,0,0,1-.2.36.26.26,0,0,1-.23.12Zm5.79,4.69a3.75,3.75,0,0,1,.44-1.85A3.34,3.34,0,0,1,166,58.8a3.61,3.61,0,0,1,1.81-.46,3.53,3.53,0,0,1,1.79.46,3.23,3.23,0,0,1,1.22,1.29,3.82,3.82,0,0,1,.45,1.86,3.69,3.69,0,0,1-.45,1.82A3.07,3.07,0,0,1,169.57,65a3.46,3.46,0,0,1-1.79.46A3.5,3.5,0,0,1,166,65a3.16,3.16,0,0,1-1.24-1.27,3.88,3.88,0,0,1-.43-1.85Zm5.93,0a3,3,0,0,0-.31-1.4,2.39,2.39,0,0,0-.88-1,2.34,2.34,0,0,0-1.26-.35,2.35,2.35,0,0,0-2.16,1.31,3.18,3.18,0,0,0,0,2.78,2.52,2.52,0,0,0,.89,1,2.4,2.4,0,0,0,1.27.35,2.34,2.34,0,0,0,1.26-.35,2.31,2.31,0,0,0,.88-1,3,3,0,0,0,.31-1.38Zm7.59,3.55a3,3,0,0,1-1.62-.45,3.05,3.05,0,0,1-1.12-1.26,4,4,0,0,1-.41-1.87,4,4,0,0,1,.41-1.86,3,3,0,0,1,2.77-1.72,2.94,2.94,0,0,1,1.51.38,2.48,2.48,0,0,1,1,.94v-4s0-.06.11-.08a.62.62,0,0,1,.25,0c.45,0,.67.31.67.92V64.9c0,.33-.15.49-.46.49h-.1c-.29,0-.44-.15-.44-.46s0-.49,0-.89a2.69,2.69,0,0,1-2.51,1.46Zm2.5-4.64a2.55,2.55,0,0,0-.87-1.21,2.31,2.31,0,0,0-1.43-.43,2.1,2.1,0,0,0-1.67.75,2.85,2.85,0,0,0-.65,2,3.3,3.3,0,0,0,.29,1.4,2.36,2.36,0,0,0,.83,1,2.13,2.13,0,0,0,1.19.35,2.31,2.31,0,0,0,1.16-.3,2.09,2.09,0,0,0,.84-.8,2.12,2.12,0,0,0,.31-1.14Zm2.44,2.72a1.75,1.75,0,0,1,1.12-1.68,9,9,0,0,1,3.57-.57h.16V61a1.79,1.79,0,0,0-.48-1.34,1.9,1.9,0,0,0-1.37-.47,2.39,2.39,0,0,0-1.3.33,2.15,2.15,0,0,0-.8.89.35.35,0,0,1-.19,0,.55.55,0,0,1-.3-.16.44.44,0,0,1-.14-.35.85.85,0,0,1,.11-.36,1.4,1.4,0,0,1,.31-.4,3,3,0,0,1,1-.59,4,4,0,0,1,1.39-.23,2.83,2.83,0,0,1,2.08.72,2.66,2.66,0,0,1,.74,2v4.23s0,0-.13.07a.69.69,0,0,1-.25,0q-.52,0-.6-.66c0-.26,0-.48,0-.63a2.54,2.54,0,0,1-1,1,3.17,3.17,0,0,1-1.52.37,2.58,2.58,0,0,1-1.7-.52,1.72,1.72,0,0,1-.62-1.39ZM187.62,62l-.25,0a8,8,0,0,0-2.73.4,1.19,1.19,0,0,0-.84,1.13,1,1,0,0,0,.4.85,1.72,1.72,0,0,0,1.09.31,2.56,2.56,0,0,0,1.18-.27,2.23,2.23,0,0,0,.84-.74,1.87,1.87,0,0,0,.31-1Zm10.71-3.55c.31,0,.46.16.46.48v6.36s0,0-.12.07a.69.69,0,0,1-.25,0c-.35,0-.55-.22-.6-.67,0-.25,0-.44,0-.56a3,3,0,0,1-1,1,2.63,2.63,0,0,1-1.38.36,2.39,2.39,0,0,1-2-.81,3.27,3.27,0,0,1-.67-2.17V58.93c0-.32.15-.48.46-.48h.12q.45,0,.45.48v3.52a2.36,2.36,0,0,0,.48,1.57,1.63,1.63,0,0,0,1.33.57,2.21,2.21,0,0,0,1.27-.38,2.34,2.34,0,0,0,.84-1V58.93q0-.48.45-.48Zm5.66-.11a2.4,2.4,0,0,1,2,.81,3.3,3.3,0,0,1,.66,2.16V64.9c0,.33-.15.49-.44.49H206c-.31,0-.46-.16-.46-.49V61.4a2.41,2.41,0,0,0-.47-1.57,1.61,1.61,0,0,0-1.32-.57,2.25,2.25,0,0,0-1.29.38,2.29,2.29,0,0,0-.84,1V64.9c0,.33-.15.49-.44.49h-.13c-.31,0-.46-.16-.46-.49V58.56s0,0,.12-.07a.73.73,0,0,1,.25,0c.4,0,.61.28.63.86v.4A2.65,2.65,0,0,1,204,58.34Zm4.34-2a.61.61,0,0,1,.66-.66.68.68,0,0,1,.49.17.65.65,0,0,1,.17.49.62.62,0,0,1-.18.48A.69.69,0,0,1,209,57a.64.64,0,0,1-.47-.17.62.62,0,0,1-.18-.48Zm.13,2.6c0-.34.16-.5.46-.5H209c.3,0,.46.16.46.5v6c0,.33-.16.49-.46.49h-.12c-.3,0-.46-.16-.46-.49Zm5.67,6.55a3,3,0,0,1-1.62-.45,3.15,3.15,0,0,1-1.13-1.26,4.15,4.15,0,0,1-.41-1.87,4.11,4.11,0,0,1,.41-1.86,3.1,3.1,0,0,1,1.14-1.26,3,3,0,0,1,1.64-.46,2.93,2.93,0,0,1,1.5.38,2.44,2.44,0,0,1,1,.94v-4s0-.06.1-.08a.69.69,0,0,1,.25,0c.45,0,.68.31.68.92V64.9c0,.33-.15.49-.46.49h-.1a.4.4,0,0,1-.45-.46c0-.19,0-.49,0-.89a2.92,2.92,0,0,1-1,1.08,2.88,2.88,0,0,1-1.5.38Zm2.5-4.64a2.62,2.62,0,0,0-.87-1.21,2.33,2.33,0,0,0-1.43-.43,2.11,2.11,0,0,0-1.68.75,2.85,2.85,0,0,0-.64,2,3.16,3.16,0,0,0,.29,1.4,2.29,2.29,0,0,0,.83,1,2.13,2.13,0,0,0,1.19.35,2.33,2.33,0,0,0,1.16-.3,2.18,2.18,0,0,0,1.15-1.94Zm2.43,2.72a1.76,1.76,0,0,1,1.13-1.68,9,9,0,0,1,3.57-.57h.15V61a1.79,1.79,0,0,0-.48-1.34,1.88,1.88,0,0,0-1.37-.47,2.41,2.41,0,0,0-1.3.33,2.19,2.19,0,0,0-.79.89.39.39,0,0,1-.2,0,.55.55,0,0,1-.3-.16.43.43,0,0,1-.13-.35.73.73,0,0,1,.11-.36,1.55,1.55,0,0,1,.3-.4,3,3,0,0,1,1-.59,3.93,3.93,0,0,1,1.39-.23,2.84,2.84,0,0,1,2.08.72,2.66,2.66,0,0,1,.73,2v4.23s0,0-.12.07a.69.69,0,0,1-.25,0c-.35,0-.56-.22-.6-.66,0-.26,0-.48,0-.63a2.54,2.54,0,0,1-1,1,3.19,3.19,0,0,1-1.52.37,2.54,2.54,0,0,1-1.7-.52,1.7,1.7,0,0,1-.63-1.39ZM223.91,62l-.24,0a8,8,0,0,0-2.73.4,1.19,1.19,0,0,0-.84,1.13,1,1,0,0,0,.4.85,1.72,1.72,0,0,0,1.09.31,2.59,2.59,0,0,0,1.18-.27,2.23,2.23,0,0,0,.84-.74,1.86,1.86,0,0,0,.3-1Zm5.53,3.5a3,3,0,0,1-1.62-.45,3.07,3.07,0,0,1-1.13-1.26,4.15,4.15,0,0,1-.41-1.87,4.11,4.11,0,0,1,.41-1.86,3,3,0,0,1,2.78-1.72,2.93,2.93,0,0,1,1.5.38,2.48,2.48,0,0,1,1,.94v-4s0-.06.11-.08a.66.66,0,0,1,.25,0c.45,0,.68.31.68.92V64.9c0,.33-.16.49-.46.49h-.1a.4.4,0,0,1-.45-.46c0-.19,0-.49,0-.89a3,3,0,0,1-1,1.08,2.88,2.88,0,0,1-1.5.38Zm2.49-4.64a2.6,2.6,0,0,0-.86-1.21,2.33,2.33,0,0,0-1.43-.43A2.11,2.11,0,0,0,228,60a2.85,2.85,0,0,0-.65,2,3.16,3.16,0,0,0,.3,1.4,2.27,2.27,0,0,0,.82,1,2.15,2.15,0,0,0,1.19.35,2.37,2.37,0,0,0,1.17-.3,2.19,2.19,0,0,0,1.14-1.94Zm2.44,1.1a3.93,3.93,0,0,1,.44-1.86,3.25,3.25,0,0,1,1.2-1.29,3.35,3.35,0,0,1,1.75-.47,3.17,3.17,0,0,1,1.65.43,2.79,2.79,0,0,1,1.1,1.18,3.85,3.85,0,0,1,.39,1.77v.1a.32.32,0,0,1-.08.25.41.41,0,0,1-.28.08h-5.18a1,1,0,0,0,0,.2,2.44,2.44,0,0,0,.78,1.66,2.41,2.41,0,0,0,1.71.63,2.5,2.5,0,0,0,1.4-.34,2.46,2.46,0,0,0,.83-.92.34.34,0,0,1,.19,0,.59.59,0,0,1,.27.18.45.45,0,0,1,.12.33.84.84,0,0,1-.13.4,1.67,1.67,0,0,1-.41.44,3,3,0,0,1-.95.53,4.18,4.18,0,0,1-1.33.2,3.58,3.58,0,0,1-1.82-.44,3.11,3.11,0,0,1-1.23-1.26,3.82,3.82,0,0,1-.44-1.84Zm5.51-.56a2.37,2.37,0,0,0-.62-1.61,2,2,0,0,0-1.5-.61,2.2,2.2,0,0,0-1.58.61,2.71,2.71,0,0,0-.79,1.61Z"/><line class="cls-1" x1="260.99" y1="70.58" x2="260.99" y2="18.27"/><path d="M268.22,39.26a.6.6,0,0,1,.17-.45.54.54,0,0,1,.42-.18H271a5.89,5.89,0,0,1,2.65.55,4,4,0,0,1,1.7,1.59,5.45,5.45,0,0,1,0,5,4,4,0,0,1-1.73,1.61,6.06,6.06,0,0,1-2.69.56h-2.08a.57.57,0,0,1-.44-.18.58.58,0,0,1-.17-.44ZM271,47a3.91,3.91,0,0,0,2.84-1,3.61,3.61,0,0,0,1-2.75,3.59,3.59,0,0,0-1-2.72,3.89,3.89,0,0,0-2.83-1h-1.68V47Zm6.11-2.46a3.8,3.8,0,0,1,.44-1.85,3.25,3.25,0,0,1,1.2-1.29,3.29,3.29,0,0,1,1.74-.47,3.17,3.17,0,0,1,1.66.42,2.94,2.94,0,0,1,1.1,1.19,3.77,3.77,0,0,1,.39,1.76v.1a.35.35,0,0,1-.08.26.43.43,0,0,1-.28.07h-5.18a1.09,1.09,0,0,0,0,.2,2.55,2.55,0,0,0,.78,1.67,2.45,2.45,0,0,0,1.72.63,2.52,2.52,0,0,0,1.4-.35,2.4,2.4,0,0,0,.82-.91.44.44,0,0,1,.2,0,.59.59,0,0,1,.27.18.48.48,0,0,1,.12.33.72.72,0,0,1-.14.4,1.64,1.64,0,0,1-.4.45,2.94,2.94,0,0,1-.95.52,4,4,0,0,1-1.34.21,3.64,3.64,0,0,1-1.82-.45,3.06,3.06,0,0,1-1.22-1.25,3.75,3.75,0,0,1-.44-1.85Zm5.51-.55a2.46,2.46,0,0,0-.62-1.62,2,2,0,0,0-1.51-.61,2.19,2.19,0,0,0-1.57.62,2.66,2.66,0,0,0-.79,1.61Zm2.31,3.38a1,1,0,0,1-.42-.69.44.44,0,0,1,.09-.27.84.84,0,0,1,.21-.18c.08,0,.13-.06.15-.05a2.38,2.38,0,0,0,.93.78,3,3,0,0,0,1.39.3,2.28,2.28,0,0,0,1.26-.31,1,1,0,0,0,.45-.83.82.82,0,0,0-.22-.6,1.61,1.61,0,0,0-.59-.34c-.25-.08-.61-.17-1.1-.28a7.41,7.41,0,0,1-1.19-.32A2.07,2.07,0,0,1,285,44a1.45,1.45,0,0,1-.35-1,1.85,1.85,0,0,1,.71-1.5,2.94,2.94,0,0,1,1.89-.57,4,4,0,0,1,1.35.21,2.35,2.35,0,0,1,.89.56,1,1,0,0,1,.18.27.63.63,0,0,1,.08.28.48.48,0,0,1-.1.28.76.76,0,0,1-.21.19c-.08,0-.13.06-.14,0a2.23,2.23,0,0,0-.83-.74,2.6,2.6,0,0,0-1.21-.28,2,2,0,0,0-1.21.31,1,1,0,0,0-.44.82.78.78,0,0,0,.22.57,1.43,1.43,0,0,0,.57.33c.24.08.6.17,1.06.28a9.78,9.78,0,0,1,1.26.35,2.13,2.13,0,0,1,.85.57,1.44,1.44,0,0,1,.36,1,1.79,1.79,0,0,1-.74,1.51,3.15,3.15,0,0,1-2,.57,4.37,4.37,0,0,1-1.38-.2,3.11,3.11,0,0,1-1-.52Zm6.05-2.83a3.92,3.92,0,0,1,.44-1.85,3.25,3.25,0,0,1,1.2-1.29,3.35,3.35,0,0,1,1.75-.47,3.16,3.16,0,0,1,1.65.42,2.87,2.87,0,0,1,1.1,1.19,3.77,3.77,0,0,1,.39,1.76v.1a.35.35,0,0,1-.08.26.41.41,0,0,1-.28.07h-5.18a1,1,0,0,0,0,.2,2.46,2.46,0,0,0,.78,1.67,2.41,2.41,0,0,0,1.71.63A2.31,2.31,0,0,0,296.67,46a.41.41,0,0,1,.19,0,.59.59,0,0,1,.27.18.48.48,0,0,1,.12.33.78.78,0,0,1-.13.4,1.69,1.69,0,0,1-.41.45,2.94,2.94,0,0,1-.95.52,3.91,3.91,0,0,1-1.33.21,3.59,3.59,0,0,1-1.82-.45,3,3,0,0,1-1.23-1.25,3.86,3.86,0,0,1-.44-1.85Zm5.51-.55a2.41,2.41,0,0,0-.62-1.62,2,2,0,0,0-1.5-.61,2.21,2.21,0,0,0-1.58.62A2.71,2.71,0,0,0,292,44Zm5.77-3.06a2.43,2.43,0,0,1,2,.8,3.33,3.33,0,0,1,.66,2.17v3.59c0,.32-.15.48-.44.48h-.13c-.31,0-.46-.16-.46-.48V44a2.44,2.44,0,0,0-.47-1.58,1.63,1.63,0,0,0-1.32-.56,2.25,2.25,0,0,0-1.29.37,2.42,2.42,0,0,0-.84,1v4.27c0,.32-.14.48-.44.48h-.13c-.31,0-.46-.16-.46-.48V41.12s0,0,.12-.07a.73.73,0,0,1,.25,0c.41,0,.62.29.64.86v.4a2.64,2.64,0,0,1,2.35-1.36Zm7.74,0a2.41,2.41,0,0,1,2,.81,3.29,3.29,0,0,1,.67,2.17v3.58c0,.32-.14.48-.44.48H312c-.31,0-.46-.16-.46-.48V44a2.39,2.39,0,0,0-.47-1.57,1.67,1.67,0,0,0-1.34-.56,2,2,0,0,0-2.1,2.11v3.52q0,.48-.45.48h-.13a.42.42,0,0,1-.46-.48V38.24s0,0,.12-.07a.68.68,0,0,1,.26,0c.43,0,.66.3.66.91v3.28a2.45,2.45,0,0,1,.92-1,2.55,2.55,0,0,1,1.38-.37Zm4,3.61a3.92,3.92,0,0,1,.44-1.85,3.2,3.2,0,0,1,1.21-1.29,3.29,3.29,0,0,1,1.74-.47,3.23,3.23,0,0,1,1.66.42,2.85,2.85,0,0,1,1.09,1.19,3.77,3.77,0,0,1,.39,1.76v.1a.35.35,0,0,1-.08.26.39.39,0,0,1-.28.07h-5.18a1,1,0,0,0,0,.2,2.46,2.46,0,0,0,.78,1.67,2.41,2.41,0,0,0,1.71.63,2.5,2.5,0,0,0,1.4-.35,2.43,2.43,0,0,0,.83-.91.4.4,0,0,1,.19,0,.59.59,0,0,1,.27.18.49.49,0,0,1,.13.33.8.8,0,0,1-.14.4,1.69,1.69,0,0,1-.41.45,2.84,2.84,0,0,1-1,.52,3.91,3.91,0,0,1-1.33.21,3.59,3.59,0,0,1-1.82-.45,3,3,0,0,1-1.23-1.25,3.86,3.86,0,0,1-.44-1.85Zm5.51-.55a2.46,2.46,0,0,0-.61-1.62,2,2,0,0,0-1.51-.61,2.21,2.21,0,0,0-1.58.62A2.71,2.71,0,0,0,315,44Zm4.42,2.18A1.78,1.78,0,0,1,325,44.46a9,9,0,0,1,3.56-.57h.16v-.28a1.77,1.77,0,0,0-.48-1.34,1.85,1.85,0,0,0-1.37-.47,2.39,2.39,0,0,0-1.3.33,2.22,2.22,0,0,0-.8.89.53.53,0,0,1-.19,0,.73.73,0,0,1-.3-.16.45.45,0,0,1-.14-.35.85.85,0,0,1,.11-.37,1.4,1.4,0,0,1,.31-.39,2.8,2.8,0,0,1,1-.59,4,4,0,0,1,1.4-.23,2.84,2.84,0,0,1,2.08.72,2.69,2.69,0,0,1,.73,2v4.23s0,0-.12.07a.79.79,0,0,1-.25,0c-.36,0-.56-.22-.61-.66q0-.41,0-.63a2.56,2.56,0,0,1-1,1,3.09,3.09,0,0,1-1.53.37,2.63,2.63,0,0,1-1.7-.51,1.74,1.74,0,0,1-.62-1.39Zm4.85-1.58h-.24a8,8,0,0,0-2.74.4,1.2,1.2,0,0,0-.84,1.14,1,1,0,0,0,.41.84,1.7,1.7,0,0,0,1.09.32,2.52,2.52,0,0,0,1.17-.27,2.09,2.09,0,0,0,.84-.74,1.82,1.82,0,0,0,.31-1ZM337.41,41a.69.69,0,0,1,.25,0c.08,0,.12.06.12.07v9.07c0,.33-.16.49-.47.49h-.1c-.31,0-.46-.16-.46-.49V46.63a2.88,2.88,0,0,1-1,1,2.82,2.82,0,0,1-1.5.39,3,3,0,0,1-1.62-.45,3.08,3.08,0,0,1-1.12-1.27,4.45,4.45,0,0,1,0-3.73,3,3,0,0,1,2.79-1.71,2.9,2.9,0,0,1,1.51.39,2.43,2.43,0,0,1,.95,1v-.43c0-.57.26-.85.65-.85Zm-.66,2.42a2.6,2.6,0,0,0-.87-1.21,2.32,2.32,0,0,0-1.43-.44,2.1,2.1,0,0,0-1.67.75,2.89,2.89,0,0,0-.65,1.95,3.32,3.32,0,0,0,.29,1.41,2.29,2.29,0,0,0,.83,1,2.12,2.12,0,0,0,1.19.34,2.3,2.3,0,0,0,1.16-.29,2.21,2.21,0,0,0,1.15-2ZM345.08,41c.31,0,.46.16.46.49v6.35s0,0-.12.07a.7.7,0,0,1-.25,0c-.35,0-.55-.23-.6-.68,0-.24,0-.43,0-.56a2.81,2.81,0,0,1-1,1,2.55,2.55,0,0,1-1.38.37,2.39,2.39,0,0,1-2-.81,3.3,3.3,0,0,1-.67-2.18V41.5c0-.33.15-.49.46-.49h.11c.31,0,.46.16.46.49V45a2.34,2.34,0,0,0,.48,1.57,1.63,1.63,0,0,0,1.33.57,2.2,2.2,0,0,0,1.27-.37,2.34,2.34,0,0,0,.84-1V41.5c0-.33.15-.49.45-.49Zm2.24-2.09a.68.68,0,0,1,.17-.49.65.65,0,0,1,.49-.17.64.64,0,0,1,.49.17.68.68,0,0,1,.17.49.62.62,0,0,1-.18.48.69.69,0,0,1-.49.16.68.68,0,0,1-.48-.16.65.65,0,0,1-.17-.48Zm.13,2.59c0-.33.15-.5.46-.5H348c.3,0,.45.17.45.5v6q0,.48-.45.48h-.12c-.31,0-.46-.16-.46-.48Zm5,4.64a1.77,1.77,0,0,1,1.12-1.69,9,9,0,0,1,3.57-.57h.15v-.28a1.77,1.77,0,0,0-.48-1.34,1.84,1.84,0,0,0-1.37-.47,2.35,2.35,0,0,0-1.29.33,2.15,2.15,0,0,0-.8.89.52.52,0,0,1-.19,0,.84.84,0,0,1-.31-.16.45.45,0,0,1-.13-.35.73.73,0,0,1,.11-.37,1.36,1.36,0,0,1,.3-.39,2.84,2.84,0,0,1,1-.59,4,4,0,0,1,1.39-.23,2.84,2.84,0,0,1,2.08.72,2.65,2.65,0,0,1,.73,2v4.23s0,0-.12.07a.7.7,0,0,1-.25,0q-.53,0-.6-.66,0-.41,0-.63a2.52,2.52,0,0,1-1,1,3.08,3.08,0,0,1-1.52.37,2.61,2.61,0,0,1-1.7-.51,1.71,1.71,0,0,1-.62-1.39Zm4.84-1.58H357a8,8,0,0,0-2.73.4,1.2,1.2,0,0,0-.84,1.14,1,1,0,0,0,.4.84,1.72,1.72,0,0,0,1.09.32,2.59,2.59,0,0,0,1.18-.27,2.23,2.23,0,0,0,.84-.74,1.89,1.89,0,0,0,.3-1ZM368,41c.31,0,.46.16.46.49v6.35s0,0-.12.07a.74.74,0,0,1-.25,0c-.36,0-.56-.23-.61-.68,0-.24,0-.43,0-.56a2.9,2.9,0,0,1-1,1,2.56,2.56,0,0,1-1.39.37,2.37,2.37,0,0,1-1.95-.81,3.3,3.3,0,0,1-.67-2.18V41.5c0-.33.15-.49.46-.49H363c.31,0,.46.16.46.49V45a2.39,2.39,0,0,0,.47,1.57,1.65,1.65,0,0,0,1.34.57,2.2,2.2,0,0,0,1.27-.37,2.34,2.34,0,0,0,.84-1V41.5c0-.33.15-.49.44-.49Zm5.65-.1a2.41,2.41,0,0,1,2,.8,3.27,3.27,0,0,1,.67,2.17v3.59q0,.48-.45.48h-.12c-.31,0-.46-.16-.46-.48V44a2.44,2.44,0,0,0-.47-1.58,1.64,1.64,0,0,0-1.33-.56,2.24,2.24,0,0,0-1.28.37,2.35,2.35,0,0,0-.84,1v4.27q0,.48-.45.48h-.12c-.31,0-.46-.16-.46-.48V41.12s0,0,.12-.07a.69.69,0,0,1,.25,0c.4,0,.61.29.63.86v.4a2.68,2.68,0,0,1,1-1,2.58,2.58,0,0,1,1.39-.37Zm4.35-2a.68.68,0,0,1,.17-.49.79.79,0,0,1,1,0,.68.68,0,0,1,.17.49.62.62,0,0,1-.18.48.69.69,0,0,1-.49.16.68.68,0,0,1-.48-.16.65.65,0,0,1-.17-.48Zm.13,2.59c0-.33.15-.5.46-.5h.11c.31,0,.46.17.46.5v6c0,.32-.15.48-.46.48h-.11c-.31,0-.46-.16-.46-.48Zm5.67,6.56a3,3,0,0,1-1.62-.45A3.1,3.1,0,0,1,381,46.35a4.45,4.45,0,0,1,0-3.73,3,3,0,0,1,2.78-1.71,2.93,2.93,0,0,1,1.5.37,2.5,2.5,0,0,1,1,.95v-4s0-.05.11-.08a1,1,0,0,1,.25,0c.45,0,.68.3.68.91v8.43a.42.42,0,0,1-.46.48h-.1a.4.4,0,0,1-.45-.46c0-.19,0-.48,0-.88a3.06,3.06,0,0,1-1,1.07,2.79,2.79,0,0,1-1.5.39Zm2.49-4.65a2.47,2.47,0,0,0-.87-1.2,2.29,2.29,0,0,0-1.42-.44,2.11,2.11,0,0,0-1.68.75,2.89,2.89,0,0,0-.65,1.95,3.18,3.18,0,0,0,.3,1.41,2.27,2.27,0,0,0,.82,1,2.15,2.15,0,0,0,1.19.34,2.36,2.36,0,0,0,1.17-.29,2.2,2.2,0,0,0,.83-.8,2.12,2.12,0,0,0,.31-1.14Zm2.44,2.73a1.78,1.78,0,0,1,1.13-1.69,9,9,0,0,1,3.56-.57h.16v-.28a1.77,1.77,0,0,0-.48-1.34,1.85,1.85,0,0,0-1.37-.47,2.39,2.39,0,0,0-1.3.33,2.12,2.12,0,0,0-.79.89.57.57,0,0,1-.2,0,.73.73,0,0,1-.3-.16.45.45,0,0,1-.14-.35.85.85,0,0,1,.11-.37,1.4,1.4,0,0,1,.31-.39,2.75,2.75,0,0,1,1-.59,3.93,3.93,0,0,1,1.39-.23,2.84,2.84,0,0,1,2.08.72,2.65,2.65,0,0,1,.73,2v4.23s0,0-.12.07a.74.74,0,0,1-.25,0c-.36,0-.56-.22-.61-.66q0-.41,0-.63a2.43,2.43,0,0,1-1,1,3.08,3.08,0,0,1-1.52.37,2.59,2.59,0,0,1-1.7-.51,1.71,1.71,0,0,1-.63-1.39Zm4.85-1.58h-.24a8,8,0,0,0-2.74.4,1.2,1.2,0,0,0-.84,1.14,1,1,0,0,0,.41.84,1.7,1.7,0,0,0,1.09.32,2.52,2.52,0,0,0,1.17-.27,2.09,2.09,0,0,0,.84-.74,1.82,1.82,0,0,0,.31-1Zm5.52,3.5a3,3,0,0,1-1.62-.45,3.08,3.08,0,0,1-1.12-1.27,4.45,4.45,0,0,1,0-3.73,3.07,3.07,0,0,1,1.13-1.26,3,3,0,0,1,1.64-.45,2.94,2.94,0,0,1,1.51.37,2.5,2.5,0,0,1,1,.95v-4s0-.05.11-.08a.9.9,0,0,1,.25,0c.45,0,.67.3.67.91v8.43c0,.32-.15.48-.46.48h-.1c-.29,0-.44-.15-.44-.46s0-.48,0-.88a2.89,2.89,0,0,1-1,1.07,2.75,2.75,0,0,1-1.5.39Zm2.5-4.65a2.47,2.47,0,0,0-.87-1.2,2.32,2.32,0,0,0-1.43-.44,2.1,2.1,0,0,0-1.67.75,2.89,2.89,0,0,0-.65,1.95,3.32,3.32,0,0,0,.29,1.41,2.36,2.36,0,0,0,.83,1,2.12,2.12,0,0,0,1.19.34,2.3,2.3,0,0,0,1.16-.29,2.16,2.16,0,0,0,.84-.8,2.12,2.12,0,0,0,.31-1.14Zm2.44,1.1a3.8,3.8,0,0,1,.44-1.85,3.25,3.25,0,0,1,1.2-1.29,3.29,3.29,0,0,1,1.74-.47,3.17,3.17,0,0,1,1.66.42,2.87,2.87,0,0,1,1.1,1.19,3.77,3.77,0,0,1,.39,1.76v.1a.35.35,0,0,1-.08.26.43.43,0,0,1-.28.07H405a1.09,1.09,0,0,0,0,.2,2.52,2.52,0,0,0,.79,1.67,2.41,2.41,0,0,0,1.71.63,2.52,2.52,0,0,0,1.4-.35,2.4,2.4,0,0,0,.82-.91.44.44,0,0,1,.2,0,.59.59,0,0,1,.27.18.48.48,0,0,1,.12.33.78.78,0,0,1-.13.4,1.88,1.88,0,0,1-.41.45,2.94,2.94,0,0,1-1,.52,4,4,0,0,1-1.33.21,3.65,3.65,0,0,1-1.83-.45,3.06,3.06,0,0,1-1.22-1.25,3.75,3.75,0,0,1-.44-1.85Zm5.51-.55a2.46,2.46,0,0,0-.62-1.62,2,2,0,0,0-1.51-.61,2.19,2.19,0,0,0-1.57.62A2.66,2.66,0,0,0,405,44Z"/><line class="cls-1" x1="417.21" y1="70.58" x2="417.21" y2="18.27"/><line class="cls-1" x1="10.18" y1="70.77" x2="417.41" y2="70.77"/><line class="cls-1" x1="10.38" y1="109.24" x2="10.38" y2="70.97"/><text class="cls-2" transform="translate(58.23 84.96)">1</text><line class="cls-3" x1="58.23" y1="91.08" x2="65.25" y2="91.08"/><text class="cls-2" transform="translate(58.23 104.5)">2</text><line class="cls-1" x1="113.1" y1="109.24" x2="113.1" y2="70.97"/><rect class="cls-4" x="170.04" y="81.6" width="34.02" height="17.01"/><rect class="cls-1" x="170.04" y="81.6" width="34.02" height="17.01"/><line class="cls-1" x1="260.99" y1="109.24" x2="260.99" y2="70.97"/><line class="cls-1" x1="417.21" y1="109.24" x2="417.21" y2="70.97"/><line class="cls-1" x1="10.18" y1="109.44" x2="417.41" y2="109.44"/><line class="cls-1" x1="10.38" y1="147.91" x2="10.38" y2="109.64"/><text class="cls-2" transform="translate(58.23 123.62)">4</text><line class="cls-3" x1="58.23" y1="129.74" x2="65.25" y2="129.74"/><text class="cls-2" transform="translate(58.23 143.17)">2</text><line class="cls-1" x1="113.1" y1="147.91" x2="113.1" y2="109.64"/><rect class="cls-4" x="170.04" y="120.27" width="34.02" height="17.01"/><rect class="cls-1" x="170.04" y="120.27" width="34.02" height="17.01"/><line class="cls-1" x1="260.99" y1="147.91" x2="260.99" y2="109.64"/><line class="cls-1" x1="417.21" y1="147.91" x2="417.21" y2="109.64"/><line class="cls-1" x1="10.18" y1="148.11" x2="417.41" y2="148.11"/><line class="cls-1" x1="10.38" y1="186.57" x2="10.38" y2="148.31"/><text class="cls-2" transform="translate(58.23 162.29)">3</text><line class="cls-3" x1="58.23" y1="168.41" x2="65.25" y2="168.41"/><text class="cls-2" transform="translate(58.23 181.84)">2</text><line class="cls-1" x1="113.1" y1="186.57" x2="113.1" y2="148.31"/><rect class="cls-4" x="170.04" y="158.94" width="34.02" height="17.01"/><rect class="cls-1" x="170.04" y="158.94" width="34.02" height="17.01"/><line class="cls-1" x1="260.99" y1="186.57" x2="260.99" y2="148.31"/><line class="cls-1" x1="417.21" y1="186.57" x2="417.21" y2="148.31"/><line class="cls-1" x1="10.18" y1="186.77" x2="417.41" y2="186.77"/><line class="cls-1" x1="10.38" y1="225.24" x2="10.38" y2="186.97"/><text class="cls-2" transform="translate(58.23 200.96)">2</text><line class="cls-3" x1="58.23" y1="207.08" x2="65.25" y2="207.08"/><text class="cls-2" transform="translate(58.23 220.5)">3</text><line class="cls-1" x1="113.1" y1="225.24" x2="113.1" y2="186.97"/><rect class="cls-4" x="170.04" y="197.6" width="34.02" height="17.01"/><rect class="cls-1" x="170.04" y="197.6" width="34.02" height="17.01"/><line class="cls-1" x1="260.99" y1="225.24" x2="260.99" y2="186.97"/><line class="cls-1" x1="417.21" y1="225.24" x2="417.21" y2="186.97"/><line class="cls-1" x1="10.18" y1="225.44" x2="417.41" y2="225.44"/><line class="cls-1" x1="10.38" y1="263.91" x2="10.38" y2="225.64"/><text class="cls-2" transform="translate(58.23 239.62)">1</text><line class="cls-3" x1="58.23" y1="245.74" x2="65.25" y2="245.74"/><text class="cls-2" transform="translate(58.23 259.17)">2</text><line class="cls-1" x1="113.1" y1="263.91" x2="113.1" y2="225.64"/><path class="cls-4" d="M204.05,253.28a17,17,0,1,0-34,0Z"/><path class="cls-1" d="M204.05,253.28a17,17,0,1,0-34,0Z"/><line class="cls-1" x1="260.99" y1="263.91" x2="260.99" y2="225.64"/><line class="cls-1" x1="417.21" y1="263.91" x2="417.21" y2="225.64"/><line class="cls-1" x1="10.18" y1="264.11" x2="417.41" y2="264.11"/><line class="cls-1" x1="10.38" y1="302.57" x2="10.38" y2="264.31"/><text class="cls-2" transform="translate(58.23 278.29)">4</text><line class="cls-3" x1="58.23" y1="284.41" x2="65.25" y2="284.41"/><text class="cls-2" transform="translate(58.23 297.84)">2</text><line class="cls-1" x1="113.1" y1="302.57" x2="113.1" y2="264.31"/><path class="cls-4" d="M204.05,291.94a17,17,0,0,0-34,0Z"/><path class="cls-1" d="M204.05,291.94a17,17,0,0,0-34,0Z"/><line class="cls-1" x1="260.99" y1="302.57" x2="260.99" y2="264.31"/><line class="cls-1" x1="417.21" y1="302.57" x2="417.21" y2="264.31"/><line class="cls-1" x1="10.18" y1="302.77" x2="417.41" y2="302.77"/><line class="cls-1" x1="10.38" y1="341.24" x2="10.38" y2="302.97"/><text class="cls-2" transform="translate(58.23 316.96)">3</text><line class="cls-3" x1="58.23" y1="323.07" x2="65.25" y2="323.07"/><text class="cls-2" transform="translate(58.23 336.5)">2</text><line class="cls-1" x1="113.1" y1="341.24" x2="113.1" y2="302.97"/><path class="cls-4" d="M204.05,330.61a17,17,0,1,0-34,0Z"/><path class="cls-1" d="M204.05,330.61a17,17,0,1,0-34,0Z"/><line class="cls-1" x1="260.99" y1="341.24" x2="260.99" y2="302.97"/><line class="cls-1" x1="417.21" y1="341.24" x2="417.21" y2="302.97"/><line class="cls-1" x1="10.18" y1="341.44" x2="417.41" y2="341.44"/><line class="cls-1" x1="10.38" y1="379.91" x2="10.38" y2="341.64"/><text class="cls-2" transform="translate(58.23 355.62)">2</text><line class="cls-3" x1="58.23" y1="361.74" x2="65.25" y2="361.74"/><text class="cls-2" transform="translate(58.23 375.17)">3</text><line class="cls-1" x1="113.1" y1="379.91" x2="113.1" y2="341.64"/><path class="cls-4" d="M204.05,369.28a17,17,0,1,0-34,0Z"/><path class="cls-1" d="M204.05,369.28a17,17,0,1,0-34,0Z"/><line class="cls-1" x1="260.99" y1="379.91" x2="260.99" y2="341.64"/><line class="cls-1" x1="417.21" y1="379.91" x2="417.21" y2="341.64"/><line class="cls-1" x1="10.18" y1="380.11" x2="417.41" y2="380.11"/><line class="cls-1" x1="10.38" y1="418.57" x2="10.38" y2="380.31"/><text class="cls-2" transform="translate(58.23 394.29)">1</text><line class="cls-3" x1="58.23" y1="400.41" x2="65.25" y2="400.41"/><text class="cls-2" transform="translate(58.23 413.83)">2</text><line class="cls-1" x1="113.1" y1="418.57" x2="113.1" y2="380.31"/><rect class="cls-4" x="170.04" y="398.02" width="34.02" height="2.83"/><rect class="cls-1" x="170.04" y="398.02" width="34.02" height="2.83"/><line class="cls-1" x1="260.99" y1="418.57" x2="260.99" y2="380.31"/><line class="cls-1" x1="417.21" y1="418.57" x2="417.21" y2="380.31"/><line class="cls-1" x1="10.18" y1="418.77" x2="417.41" y2="418.77"/><line class="cls-1" x1="10.38" y1="457.24" x2="10.38" y2="418.97"/><text class="cls-2" transform="translate(58.23 432.96)">4</text><line class="cls-3" x1="58.23" y1="439.07" x2="65.25" y2="439.07"/><text class="cls-2" transform="translate(58.23 452.5)">2</text><line class="cls-1" x1="113.1" y1="457.24" x2="113.1" y2="418.97"/><rect class="cls-4" x="170.04" y="436.69" width="34.02" height="2.83"/><rect class="cls-1" x="170.04" y="436.69" width="34.02" height="2.83"/><line class="cls-1" x1="260.99" y1="457.24" x2="260.99" y2="418.97"/><line class="cls-1" x1="417.21" y1="457.24" x2="417.21" y2="418.97"/><line class="cls-1" x1="10.18" y1="457.44" x2="417.41" y2="457.44"/><line class="cls-1" x1="10.38" y1="495.91" x2="10.38" y2="457.64"/><text class="cls-2" transform="translate(58.23 471.62)">3</text><line class="cls-3" x1="58.23" y1="477.74" x2="65.25" y2="477.74"/><text class="cls-2" transform="translate(58.23 491.17)">2</text><line class="cls-1" x1="113.1" y1="495.91" x2="113.1" y2="457.64"/><rect class="cls-4" x="170.04" y="475.35" width="34.02" height="2.83"/><rect class="cls-1" x="170.04" y="475.35" width="34.02" height="2.83"/><line class="cls-1" x1="260.99" y1="495.91" x2="260.99" y2="457.64"/><line class="cls-1" x1="417.21" y1="495.91" x2="417.21" y2="457.64"/><line class="cls-1" x1="10.18" y1="496.11" x2="417.41" y2="496.11"/><line class="cls-1" x1="10.38" y1="534.57" x2="10.38" y2="496.3"/><text class="cls-2" transform="translate(58.23 510.29)">2</text><line class="cls-3" x1="58.23" y1="516.41" x2="65.25" y2="516.41"/><text class="cls-2" transform="translate(58.23 529.83)">3</text><line class="cls-1" x1="113.1" y1="534.57" x2="113.1" y2="496.3"/><rect class="cls-4" x="170.04" y="514.02" width="34.02" height="2.83"/><rect class="cls-1" x="170.04" y="514.02" width="34.02" height="2.83"/><line class="cls-1" x1="260.99" y1="534.57" x2="260.99" y2="496.3"/><line class="cls-1" x1="417.21" y1="534.57" x2="417.21" y2="496.3"/><line class="cls-1" x1="10.18" y1="534.77" x2="417.41" y2="534.77"/><line class="cls-1" x1="10.38" y1="573.24" x2="10.38" y2="534.97"/><text class="cls-2" transform="translate(58.23 548.95)">1</text><line class="cls-3" x1="58.23" y1="555.07" x2="65.25" y2="555.07"/><text class="cls-2" transform="translate(58.23 568.5)">2</text><line class="cls-1" x1="113.1" y1="573.24" x2="113.1" y2="534.97"/><polygon class="cls-4" points="198.38 554.11 192.71 544.28 181.37 544.28 175.71 554.11 181.37 563.92 192.71 563.92 198.38 554.11"/><polygon class="cls-1" points="198.38 554.11 192.71 544.28 181.37 544.28 175.71 554.11 181.37 563.92 192.71 563.92 198.38 554.11"/><line class="cls-1" x1="260.99" y1="573.24" x2="260.99" y2="534.97"/><line class="cls-1" x1="417.21" y1="573.24" x2="417.21" y2="534.97"/><line class="cls-1" x1="10.18" y1="573.44" x2="417.41" y2="573.44"/><line class="cls-1" x1="10.38" y1="611.91" x2="10.38" y2="573.64"/><text class="cls-2" transform="translate(58.23 587.62)">4</text><line class="cls-3" x1="58.23" y1="593.74" x2="65.25" y2="593.74"/><text class="cls-2" transform="translate(58.23 607.17)">2</text><line class="cls-1" x1="113.1" y1="611.91" x2="113.1" y2="573.64"/><polygon class="cls-4" points="198.38 592.77 192.71 582.95 181.37 582.95 175.71 592.77 181.37 602.59 192.71 602.59 198.38 592.77"/><polygon class="cls-1" points="198.38 592.77 192.71 582.95 181.37 582.95 175.71 592.77 181.37 602.59 192.71 602.59 198.38 592.77"/><line class="cls-1" x1="260.99" y1="611.91" x2="260.99" y2="573.64"/><line class="cls-1" x1="417.21" y1="611.91" x2="417.21" y2="573.64"/><line class="cls-1" x1="10.18" y1="612.1" x2="417.41" y2="612.1"/><line class="cls-1" x1="10.38" y1="650.57" x2="10.38" y2="612.3"/><text class="cls-2" transform="translate(58.23 626.29)">3</text><line class="cls-3" x1="58.23" y1="632.41" x2="65.25" y2="632.41"/><text class="cls-2" transform="translate(58.23 645.83)">2</text><line class="cls-1" x1="113.1" y1="650.57" x2="113.1" y2="612.3"/><polygon class="cls-4" points="198.38 631.44 192.71 621.62 181.37 621.62 175.71 631.44 181.37 641.26 192.71 641.26 198.38 631.44"/><polygon class="cls-1" points="198.38 631.44 192.71 621.62 181.37 621.62 175.71 631.44 181.37 641.26 192.71 641.26 198.38 631.44"/><line class="cls-1" x1="260.99" y1="650.57" x2="260.99" y2="612.3"/><line class="cls-1" x1="417.21" y1="650.57" x2="417.21" y2="612.3"/><line class="cls-1" x1="10.18" y1="650.77" x2="417.41" y2="650.77"/><line class="cls-1" x1="10.38" y1="689.24" x2="10.38" y2="650.97"/><text class="cls-2" transform="translate(58.23 664.95)">2</text><line class="cls-3" x1="58.23" y1="671.07" x2="65.25" y2="671.07"/><text class="cls-2" transform="translate(58.23 684.5)">3</text><line class="cls-1" x1="113.1" y1="689.24" x2="113.1" y2="650.97"/><polygon class="cls-4" points="198.38 670.1 192.71 660.28 181.37 660.28 175.71 670.1 181.37 679.92 192.71 679.92 198.38 670.1"/><polygon class="cls-1" points="198.38 670.1 192.71 660.28 181.37 660.28 175.71 670.1 181.37 679.92 192.71 679.92 198.38 670.1"/><line class="cls-1" x1="260.99" y1="689.24" x2="260.99" y2="650.97"/><line class="cls-1" x1="417.21" y1="689.24" x2="417.21" y2="650.97"/><line class="cls-1" x1="10.18" y1="689.44" x2="417.41" y2="689.44"/></svg>