<svg id="Camada_1" data-name="Camada 1" xmlns="http://www.w3.org/2000/svg" xmlns:xlink="http://www.w3.org/1999/xlink" viewBox="0 0 484.9 623.76"><defs><style>.cls-1,.cls-3,.cls-4,.cls-7{fill:none;}.cls-2{clip-path:url(#clip-path);}.cls-3{stroke:#1496ca;}.cls-3,.cls-4,.cls-7{stroke-miterlimit:10;}.cls-3,.cls-4{stroke-width:0.4px;}.cls-4,.cls-7{stroke:#000;}.cls-5{fill:#f28c5e;}.cls-6{font-size:14.35px;font-family:CMR12;}.cls-7{stroke-width:0.57px;}.cls-8{fill:#feede0;}.cls-9{fill:#e6164d;}.cls-10{fill:#933c4c;}.cls-11{fill:#95d4e9;}.cls-12{fill:url(#Unnamed_Pattern_2);}.cls-13{fill:#056d97;}.cls-14{fill:#557333;}.cls-15{fill:#7c2a79;}.cls-16{fill:#542f12;}</style><clipPath id="clip-path"><rect class="cls-1" width="4.98" height="4.98"/></clipPath><pattern id="Unnamed_Pattern_2" data-name="Unnamed Pattern 2" width="4.98" height="4.98" patternTransform="matrix(1, 0, 0, -1, 1.07, 17222.8)" patternUnits="userSpaceOnUse" viewBox="0 0 4.98 4.98"><rect class="cls-1" width="4.98" height="4.98"/><g class="cls-2"><line class="cls-3" x1="1" y1="3.99" x2="4.08" y2="0.9"/></g></pattern></defs><line class="cls-4" x1="20.41" y1="22.85" x2="464.49" y2="22.85"/><line class="cls-4" x1="20.41" y1="22.85" x2="464.49" y2="22.85"/><line class="cls-4" x1="20.61" y1="62.9" x2="20.61" y2="23.05"/><path d="M93.08,44c-.26,0-.38-.14-.38-.44v-6.8a.52.52,0,0,1,.13-.38.43.43,0,0,1,.36-.15h2.1a3.23,3.23,0,0,1,2.07.58,2,2,0,0,1,.72,1.68,2,2,0,0,1-.6,1.56,2.52,2.52,0,0,1-1.68.64l-.32,0,2.57,2.9s0,.07,0,.13a.58.58,0,0,1-.2.17.54.54,0,0,1-.29.07.68.68,0,0,1-.55-.33l-2.53-2.89h-.87V43.6a.39.39,0,0,1-.1.29.36.36,0,0,1-.29.11Zm2.21-3.92a2.09,2.09,0,0,0,1.4-.4,1.41,1.41,0,0,0,.48-1.14,1.37,1.37,0,0,0-.49-1.15A2.24,2.24,0,0,0,95.25,37H93.58v3.08ZM99,41.15a3.17,3.17,0,0,1,.37-1.55,2.67,2.67,0,0,1,1-1.08,2.74,2.74,0,0,1,1.45-.39,2.58,2.58,0,0,1,1.38.36,2.35,2.35,0,0,1,.92,1,3.31,3.31,0,0,1,.32,1.47V41a.29.29,0,0,1-.06.21.38.38,0,0,1-.24.06H99.8a.81.81,0,0,0,0,.17,2.07,2.07,0,0,0,.65,1.39,2,2,0,0,0,1.43.52,2.08,2.08,0,0,0,1.16-.28,2,2,0,0,0,.69-.77.28.28,0,0,1,.16,0,.57.57,0,0,1,.23.15.37.37,0,0,1,.1.28.75.75,0,0,1-.11.33,1.45,1.45,0,0,1-.34.37,2.37,2.37,0,0,1-.79.44,3.5,3.5,0,0,1-1.11.17,3,3,0,0,1-1.52-.37,2.58,2.58,0,0,1-1-1A3.09,3.09,0,0,1,99,41.15Zm4.59-.47a2,2,0,0,0-.51-1.34,1.65,1.65,0,0,0-1.26-.51,1.84,1.84,0,0,0-1.31.51,2.25,2.25,0,0,0-.66,1.34Zm3.94,3.42a1.5,1.5,0,0,1-1.18-.44,2,2,0,0,1-.39-1.35V39h-.56c-.25,0-.37-.11-.37-.33v-.08c0-.22.12-.32.37-.32h.56v-1c0-.28.13-.42.38-.42h.1c.25,0,.37.14.37.42v1h1.45c.24,0,.37.1.37.32v.07c0,.22-.13.34-.39.34h-1.44v3.18a1.55,1.55,0,0,0,.2.91.74.74,0,0,0,.65.28,1,1,0,0,0,.84-.44s.05,0,.09,0a.42.42,0,0,1,.11.14.51.51,0,0,1,0,.22.63.63,0,0,1-.21.45,1.41,1.41,0,0,1-1,.33Zm1.8-1.6a1.48,1.48,0,0,1,.94-1.41,7.61,7.61,0,0,1,3-.47h.13v-.24a1.49,1.49,0,0,0-.4-1.12,1.62,1.62,0,0,0-1.14-.38,2,2,0,0,0-1.08.27,1.84,1.84,0,0,0-.67.74.38.38,0,0,1-.16,0,.55.55,0,0,1-.25-.13.37.37,0,0,1-.11-.29.64.64,0,0,1,.09-.3,1,1,0,0,1,.26-.33,2.14,2.14,0,0,1,.81-.49,3.16,3.16,0,0,1,1.16-.2,2.36,2.36,0,0,1,1.73.6,2.22,2.22,0,0,1,.61,1.66v3.53s0,0-.1.06a.78.78,0,0,1-.21,0c-.29,0-.46-.19-.5-.55s0-.4,0-.53a2.12,2.12,0,0,1-.84.84,2.68,2.68,0,0,1-1.27.31,2.15,2.15,0,0,1-1.42-.43,1.43,1.43,0,0,1-.52-1.16Zm4-1.32-.2,0a6.61,6.61,0,0,0-2.28.33,1,1,0,0,0-.7.94.85.85,0,0,0,.34.71,1.39,1.39,0,0,0,.91.26,2.17,2.17,0,0,0,1-.22,2,2,0,0,0,.7-.62,1.55,1.55,0,0,0,.25-.87Zm-2.75-3.77a.29.29,0,0,1-.22-.09.26.26,0,0,1-.1-.21,1.08,1.08,0,0,1,.31-.61,6,6,0,0,1,.7-.73,2.3,2.3,0,0,1,.57-.4,2.3,2.3,0,0,1,.57.4,6.88,6.88,0,0,1,.7.73,1.15,1.15,0,0,1,.31.61.27.27,0,0,1-.09.21.31.31,0,0,1-.22.09.73.73,0,0,1-.46-.27,9.57,9.57,0,0,1-.81-1.07,9.82,9.82,0,0,1-.82,1.07.7.7,0,0,1-.44.27Zm7.88.72a2,2,0,0,1,1.63.67,2.76,2.76,0,0,1,.56,1.81v3c0,.27-.12.4-.37.4h-.11c-.25,0-.38-.13-.38-.4V40.68a2,2,0,0,0-.39-1.31,1.37,1.37,0,0,0-1.11-.47,1.87,1.87,0,0,0-1.07.31,2.06,2.06,0,0,0-.7.84V43.6c0,.27-.12.4-.37.4h-.1a.35.35,0,0,1-.39-.4V38.31s0,0,.11-.06a.64.64,0,0,1,.2,0c.34,0,.51.24.53.72v.33a2.28,2.28,0,0,1,.8-.83,2.23,2.23,0,0,1,1.16-.31ZM124,46.48c-1.78,0-2.67-.52-2.67-1.55a1.29,1.29,0,0,1,.53-1,3.1,3.1,0,0,1,1.34-.58.64.64,0,0,1-.36-.57.72.72,0,0,1,.35-.61,2.06,2.06,0,0,1-1-.71,1.82,1.82,0,0,1-.4-1.17,2,2,0,0,1,.3-1.07,2.1,2.1,0,0,1,.83-.76,2.48,2.48,0,0,1,1.18-.29,2.38,2.38,0,0,1,1.35.4l.43-.65a.59.59,0,0,1,.5-.34.41.41,0,0,1,.25.07,1.49,1.49,0,0,1,.18.17c0,.06.06.11,0,.14l-.94,1a1.93,1.93,0,0,1,.21,2.34,2.11,2.11,0,0,1-.83.73,2.6,2.6,0,0,1-1.19.27h-.31a.32.32,0,0,0-.14.31.35.35,0,0,0,.25.32,4.79,4.79,0,0,0,.86.25l.44.11q1.71.42,1.71,1.53a1.42,1.42,0,0,1-.75,1.26,4.18,4.18,0,0,1-2.12.45Zm0-.62a3.33,3.33,0,0,0,1.49-.27.81.81,0,0,0,.52-.76.65.65,0,0,0-.33-.57,2.84,2.84,0,0,0-.92-.36l-.71-.17a3.35,3.35,0,0,0-1.35.39.91.91,0,0,0-.55.79.76.76,0,0,0,.47.7,3,3,0,0,0,1.38.25Zm0-4.2a1.49,1.49,0,0,0,1.06-.39,1.4,1.4,0,0,0,.41-1,1.42,1.42,0,0,0-.41-1,1.62,1.62,0,0,0-2.13,0,1.42,1.42,0,0,0-.4,1,1.4,1.4,0,0,0,.41,1,1.49,1.49,0,0,0,1.06.39Zm8.12-3.44c.25,0,.38.13.38.41v5.29s0,0-.1.06a.78.78,0,0,1-.21,0c-.3,0-.46-.19-.5-.57,0-.2,0-.36,0-.46a2.51,2.51,0,0,1-.81.81,2.17,2.17,0,0,1-1.15.3,2,2,0,0,1-1.63-.67,2.81,2.81,0,0,1-.56-1.82v-3c0-.28.13-.41.39-.41h.09c.26,0,.38.13.38.41v2.92a2,2,0,0,0,.4,1.31,1.35,1.35,0,0,0,1.11.48A1.84,1.84,0,0,0,131,43a2,2,0,0,0,.7-.84V38.63c0-.28.12-.41.37-.41ZM134.55,44c-.25,0-.38-.13-.38-.4V35.91l.09-.06a.78.78,0,0,1,.22,0c.37,0,.55.25.55.76v7c0,.27-.13.4-.38.4Zm1.71-2.89a3.09,3.09,0,0,1,.37-1.53,2.69,2.69,0,0,1,1-1.06,2.9,2.9,0,0,1,1.51-.39,2.82,2.82,0,0,1,1.48.39,2.66,2.66,0,0,1,1,1.07,3.29,3.29,0,0,1,.37,1.55,3.19,3.19,0,0,1-.37,1.52,2.76,2.76,0,0,1-1,1.06,3,3,0,0,1-1.5.38,3,3,0,0,1-1.5-.38,2.63,2.63,0,0,1-1-1.07,3.11,3.11,0,0,1-.37-1.54Zm5,0A2.64,2.64,0,0,0,141,40a2,2,0,0,0-.73-.81,1.89,1.89,0,0,0-1.05-.3,2,2,0,0,0-1.06.29,2,2,0,0,0-.74.8,2.63,2.63,0,0,0,0,2.32,2.07,2.07,0,0,0,.74.81,2,2,0,0,0,1.06.29,1.89,1.89,0,0,0,1.05-.29,2,2,0,0,0,.73-.79,2.53,2.53,0,0,0,.26-1.15Z"/><line class="cls-4" x1="213.68" y1="62.9" x2="213.68" y2="23.05"/><path d="M222.93,35.29c-.24,0-.36-.14-.36-.41V28a.68.68,0,0,1,.11-.4.42.42,0,0,1,.33-.14h.17a.55.55,0,0,1,.32.09,1.07,1.07,0,0,1,.25.29l4.19,6V27.89a.46.46,0,0,1,.09-.31.38.38,0,0,1,.28-.1h.11c.24,0,.37.14.37.41v6.87a.56.56,0,0,1-.12.38.36.36,0,0,1-.31.15h-.07a.56.56,0,0,1-.3-.06.75.75,0,0,1-.22-.24l-4.36-6.21v6.1c0,.27-.13.41-.37.41Zm12-5.79c.26,0,.38.14.38.41V35.2s0,0-.1.06a.52.52,0,0,1-.21,0c-.29,0-.46-.19-.5-.56a4.57,4.57,0,0,1,0-.47,2.41,2.41,0,0,1-.81.81,2.19,2.19,0,0,1-1.15.3,2,2,0,0,1-1.64-.67,2.77,2.77,0,0,1-.55-1.81v-3c0-.27.12-.41.38-.41h.1c.25,0,.38.14.38.41v2.93a2,2,0,0,0,.39,1.31,1.4,1.4,0,0,0,1.11.47,1.89,1.89,0,0,0,1.06-.31,2,2,0,0,0,.7-.85V29.91c0-.27.13-.41.37-.41ZM232,28.69c-.07,0-.11,0-.11-.05a2.85,2.85,0,0,1,.34-.59,6.76,6.76,0,0,1,.76-.92,1.13,1.13,0,0,1,.72-.41.35.35,0,0,1,.26.1.41.41,0,0,1,.11.28c0,.21-.15.43-.45.67a5.9,5.9,0,0,1-1,.64,2.82,2.82,0,0,1-.63.28Zm11.38.73a2,2,0,0,1,1.58.63,2.62,2.62,0,0,1,.54,1.77v3.06c0,.27-.13.41-.39.41h-.09c-.26,0-.38-.14-.38-.41v-3a1.93,1.93,0,0,0-.37-1.26,1.29,1.29,0,0,0-1.07-.45,1.59,1.59,0,0,0-1,.31,1.78,1.78,0,0,0-.64.83v3.56c0,.27-.13.41-.38.41h-.1c-.25,0-.38-.14-.38-.41V31.82a1.8,1.8,0,0,0-.36-1.21,1.32,1.32,0,0,0-1.07-.43,1.56,1.56,0,0,0-.94.31,2,2,0,0,0-.67.83v3.56c0,.27-.12.41-.37.41h-.1c-.26,0-.39-.14-.39-.41V29.6s0,0,.1-.06a.52.52,0,0,1,.21,0c.34,0,.51.24.53.71v.28a2.36,2.36,0,0,1,.76-.78,2,2,0,0,1,1.05-.29,2.08,2.08,0,0,1,1.19.33,2,2,0,0,1,.7.94,2.23,2.23,0,0,1,.79-.93,2.08,2.08,0,0,1,1.19-.34Zm3.24,3a3.2,3.2,0,0,1,.37-1.55,2.65,2.65,0,0,1,1-1.07,2.74,2.74,0,0,1,1.45-.39,2.67,2.67,0,0,1,1.38.35,2.38,2.38,0,0,1,.92,1,3.25,3.25,0,0,1,.32,1.47v.08a.28.28,0,0,1-.07.22.33.33,0,0,1-.23.06h-4.31a.71.71,0,0,0,0,.16,2.05,2.05,0,0,0,.65,1.39,2,2,0,0,0,1.43.53,2.1,2.1,0,0,0,1.16-.29,2.06,2.06,0,0,0,.69-.77l.16,0a.57.57,0,0,1,.23.15.4.4,0,0,1,.1.28.71.71,0,0,1-.11.33,1.45,1.45,0,0,1-.34.37,2.47,2.47,0,0,1-.79.44,3.23,3.23,0,0,1-1.11.17,3,3,0,0,1-1.52-.37,2.49,2.49,0,0,1-1-1,3.13,3.13,0,0,1-.37-1.54Zm4.59-.47a2,2,0,0,0-.51-1.34,1.65,1.65,0,0,0-1.26-.51,1.79,1.79,0,0,0-1.31.52,2.2,2.2,0,0,0-.66,1.33Zm4.33-2.54a1,1,0,0,1,.61.17.54.54,0,0,1,.24.45.53.53,0,0,1-.06.26.34.34,0,0,1-.12.16.2.2,0,0,1-.09.05.89.89,0,0,0-.68-.24,1.09,1.09,0,0,0-1,.62,3.59,3.59,0,0,0-.34,1.73v2.26c0,.27-.12.41-.37.41h-.1c-.26,0-.39-.14-.39-.41V29.6s0,0,.1-.06a.46.46,0,0,1,.21,0c.3,0,.46.19.5.58s0,.47,0,.62a1.77,1.77,0,0,1,.55-1,1.4,1.4,0,0,1,.93-.32Zm1.15,3a3.09,3.09,0,0,1,.37-1.53,2.69,2.69,0,0,1,1-1.06,3,3,0,0,1,1.5-.38,2.92,2.92,0,0,1,1.49.38,2.7,2.7,0,0,1,1,1.07,3.17,3.17,0,0,1,.37,1.55,3.08,3.08,0,0,1-.37,1.52,2.63,2.63,0,0,1-1,1.06,2.83,2.83,0,0,1-1.49.38,2.89,2.89,0,0,1-1.5-.38,2.63,2.63,0,0,1-1-1.06,3.28,3.28,0,0,1-.36-1.55Zm4.95,0a2.52,2.52,0,0,0-.27-1.17,2,2,0,0,0-.73-.81,1.89,1.89,0,0,0-1.05-.29,2,2,0,0,0-1.06.28,2.07,2.07,0,0,0-.74.81,2.61,2.61,0,0,0,0,2.31,2,2,0,0,0,.74.81,1.94,1.94,0,0,0,1.06.29,1.93,1.93,0,0,0,1.78-1.08,2.41,2.41,0,0,0,.27-1.15Zm6.32,3a2.49,2.49,0,0,1-1.35-.37,2.56,2.56,0,0,1-.94-1.06,3.38,3.38,0,0,1-.34-1.56,3.32,3.32,0,0,1,.34-1.54,2.64,2.64,0,0,1,1-1.06,2.5,2.5,0,0,1,1.36-.37,2.45,2.45,0,0,1,1.26.31,2,2,0,0,1,.8.79V27.19s0,0,.09-.06a.66.66,0,0,1,.21,0c.37,0,.56.25.56.76v7c0,.27-.13.41-.38.41h-.08a.34.34,0,0,1-.38-.38c0-.16,0-.41,0-.75A2.24,2.24,0,0,1,268,35.38Zm2.08-3.87a2.09,2.09,0,0,0-.72-1,2,2,0,0,0-1.19-.36,1.74,1.74,0,0,0-1.4.62,2.38,2.38,0,0,0-.54,1.62,2.65,2.65,0,0,0,.25,1.18,1.91,1.91,0,0,0,.68.8,1.82,1.82,0,0,0,1,.28,2,2,0,0,0,1-.24,1.83,1.83,0,0,0,1-1.62Zm2,.92a3.2,3.2,0,0,1,.37-1.55,2.83,2.83,0,0,1,3.84-1.11,2.42,2.42,0,0,1,.91,1,3.12,3.12,0,0,1,.32,1.47v.08a.32.32,0,0,1-.06.22.37.37,0,0,1-.24.06h-4.31a.71.71,0,0,0,0,.16,2.1,2.1,0,0,0,.65,1.39,2,2,0,0,0,1.43.53,2.13,2.13,0,0,0,1.17-.29,2,2,0,0,0,.68-.77l.16,0a.57.57,0,0,1,.23.15.4.4,0,0,1,.1.28.61.61,0,0,1-.11.33,1.45,1.45,0,0,1-.34.37,2.37,2.37,0,0,1-.79.44,3.23,3.23,0,0,1-1.11.17A3,3,0,0,1,273.5,35a2.49,2.49,0,0,1-1-1,3.13,3.13,0,0,1-.37-1.54ZM276.7,32a2,2,0,0,0-.51-1.34,1.65,1.65,0,0,0-1.26-.51,1.81,1.81,0,0,0-1.31.52A2.2,2.2,0,0,0,273,32Zm7-2.54a2.48,2.48,0,0,1,1.34.37,2.52,2.52,0,0,1,.95,1,3.5,3.5,0,0,1,.34,1.55,3.57,3.57,0,0,1-.34,1.56,2.49,2.49,0,0,1-2.32,1.44A2.32,2.32,0,0,1,282.4,35a2,2,0,0,1-.78-.85v3c0,.27-.13.41-.37.41h-.1c-.25,0-.38-.14-.38-.41V29.6s0,0,.09-.06a.52.52,0,0,1,.21,0c.32,0,.49.22.52.65l0,.49a2.35,2.35,0,0,1,.84-.9,2.42,2.42,0,0,1,1.25-.32Zm-.18,5.23a1.77,1.77,0,0,0,1.42-.62,2.4,2.4,0,0,0,.54-1.64,2.57,2.57,0,0,0-.25-1.16,2,2,0,0,0-.7-.8,1.76,1.76,0,0,0-1-.28,2,2,0,0,0-1.19.36,2.14,2.14,0,0,0-.74,1v1.27a1.79,1.79,0,0,0,.25.94,1.83,1.83,0,0,0,.7.68,2,2,0,0,0,1,.24Zm3.62-.87a1.46,1.46,0,0,1,.94-1.4,7.54,7.54,0,0,1,3-.48h.13v-.23a1.48,1.48,0,0,0-.4-1.12,1.58,1.58,0,0,0-1.14-.39,2,2,0,0,0-1.08.27,1.87,1.87,0,0,0-.67.75l-.16,0a.67.67,0,0,1-.25-.13.41.41,0,0,1-.11-.3.67.67,0,0,1,.09-.3,1.11,1.11,0,0,1,.25-.33,2.41,2.41,0,0,1,.82-.49,3.17,3.17,0,0,1,1.16-.19,2.36,2.36,0,0,1,1.73.6,2.19,2.19,0,0,1,.61,1.66V35.2s0,0-.1.06a.52.52,0,0,1-.21,0c-.3,0-.46-.18-.5-.55s0-.4,0-.53a2.08,2.08,0,0,1-.85.84,2.5,2.5,0,0,1-1.26.31,2.15,2.15,0,0,1-1.42-.43,1.42,1.42,0,0,1-.52-1.16Zm4-1.31H291a6.61,6.61,0,0,0-2.28.33,1,1,0,0,0-.7.95.83.83,0,0,0,.34.7,1.38,1.38,0,0,0,.9.27,2.19,2.19,0,0,0,1-.23,1.8,1.8,0,0,0,.69-.62,1.45,1.45,0,0,0,.26-.86Zm4.65-3a1.06,1.06,0,0,1,.62.17.56.56,0,0,1,.23.45.67.67,0,0,1-.05.26.43.43,0,0,1-.13.16l-.08.05a.92.92,0,0,0-.68-.24,1.1,1.1,0,0,0-1,.62,3.71,3.71,0,0,0-.34,1.73v2.26c0,.27-.12.41-.37.41h-.09a.36.36,0,0,1-.4-.41V29.6s0,0,.1-.06a.46.46,0,0,1,.21,0c.3,0,.47.19.51.58s0,.47,0,.62a1.77,1.77,0,0,1,.55-1,1.42,1.42,0,0,1,.93-.32Zm3.76,6a1.47,1.47,0,0,1-1.18-.44,2,2,0,0,1-.39-1.35V30.28h-.56c-.25,0-.37-.11-.37-.32v-.09c0-.21.12-.32.37-.32H298v-1c0-.28.13-.42.38-.42h.1c.25,0,.37.14.37.42v1h1.45c.24,0,.37.11.37.32v.07c0,.23-.13.34-.39.34h-1.44v3.18a1.53,1.53,0,0,0,.2.91.74.74,0,0,0,.65.28.93.93,0,0,0,.84-.44s.05,0,.09,0a.57.57,0,0,1,.11.14.53.53,0,0,1,0,.23.61.61,0,0,1-.21.44,1.41,1.41,0,0,1-1,.33Zm1.8-3a3.2,3.2,0,0,1,.37-1.55,2.65,2.65,0,0,1,1-1.07,2.74,2.74,0,0,1,1.45-.39,2.67,2.67,0,0,1,1.38.35,2.38,2.38,0,0,1,.92,1,3.25,3.25,0,0,1,.32,1.47v.08a.32.32,0,0,1-.06.22.38.38,0,0,1-.24.06h-4.31a.71.71,0,0,0,0,.16,2.05,2.05,0,0,0,.65,1.39,2,2,0,0,0,1.43.53,2.1,2.1,0,0,0,1.16-.29,2,2,0,0,0,.69-.77l.16,0a.57.57,0,0,1,.23.15.4.4,0,0,1,.1.28.71.71,0,0,1-.11.33,1.45,1.45,0,0,1-.34.37,2.37,2.37,0,0,1-.79.44,3.23,3.23,0,0,1-1.11.17,3,3,0,0,1-1.52-.37,2.49,2.49,0,0,1-1-1,3.13,3.13,0,0,1-.37-1.54ZM306,32a2,2,0,0,0-.51-1.34,1.65,1.65,0,0,0-1.26-.51,1.79,1.79,0,0,0-1.31.52,2.2,2.2,0,0,0-.66,1.33Zm1.93,2.83a.82.82,0,0,1-.35-.58.38.38,0,0,1,.08-.23.55.55,0,0,1,.17-.14.34.34,0,0,1,.12-.05,2.12,2.12,0,0,0,.78.66,2.58,2.58,0,0,0,1.16.24,1.84,1.84,0,0,0,1-.26.79.79,0,0,0,.38-.68.69.69,0,0,0-.18-.51,1.37,1.37,0,0,0-.49-.28c-.21-.06-.51-.14-.92-.23a6.86,6.86,0,0,1-1-.27A1.74,1.74,0,0,1,308,32a1.21,1.21,0,0,1-.28-.85,1.52,1.52,0,0,1,.59-1.24,2.41,2.41,0,0,1,1.57-.48,3.23,3.23,0,0,1,1.13.18,2,2,0,0,1,.74.46,1.07,1.07,0,0,1,.15.22.6.6,0,0,1,.06.24.32.32,0,0,1-.08.23.55.55,0,0,1-.18.16c-.06,0-.1.05-.11,0a1.79,1.79,0,0,0-.69-.61,2.15,2.15,0,0,0-1-.24,1.75,1.75,0,0,0-1,.26.81.81,0,0,0-.36.68.65.65,0,0,0,.18.48,1.37,1.37,0,0,0,.48.27,7,7,0,0,0,.88.23,10.25,10.25,0,0,1,1.05.3,1.77,1.77,0,0,1,.71.47,1.2,1.2,0,0,1,.3.86,1.5,1.5,0,0,1-.62,1.26,2.61,2.61,0,0,1-1.65.47,3.59,3.59,0,0,1-1.15-.16,2.61,2.61,0,0,1-.8-.43ZM315,32.43a3.31,3.31,0,0,1,.36-1.55,2.67,2.67,0,0,1,1-1.07,2.89,2.89,0,0,1,2.83,0,2.36,2.36,0,0,1,.91,1,3.12,3.12,0,0,1,.33,1.47v.08a.32.32,0,0,1-.07.22.33.33,0,0,1-.23.06h-4.32c0,.07,0,.12,0,.16a2.11,2.11,0,0,0,.66,1.39,2,2,0,0,0,1.42.53,2.11,2.11,0,0,0,1.17-.29,2.06,2.06,0,0,0,.69-.77l.16,0a.65.65,0,0,1,.23.15.45.45,0,0,1,.1.28.64.64,0,0,1-.12.33,1.29,1.29,0,0,1-.34.37,2.37,2.37,0,0,1-.79.44,3.16,3.16,0,0,1-1.11.17,3,3,0,0,1-1.52-.37,2.55,2.55,0,0,1-1-1,3.24,3.24,0,0,1-.36-1.54Zm4.59-.47a2,2,0,0,0-.52-1.34,1.63,1.63,0,0,0-1.25-.51,1.82,1.82,0,0,0-1.32.52,2.19,2.19,0,0,0-.65,1.33Zm8.53-2.54a2,2,0,0,1,1.58.63,2.62,2.62,0,0,1,.54,1.77v3.06c0,.27-.13.41-.38.41h-.1c-.25,0-.38-.14-.38-.41v-3a1.88,1.88,0,0,0-.37-1.26,1.29,1.29,0,0,0-1.07-.45,1.59,1.59,0,0,0-.95.31,1.78,1.78,0,0,0-.64.83v3.56c0,.27-.12.41-.38.41h-.09c-.26,0-.39-.14-.39-.41V31.82a1.8,1.8,0,0,0-.36-1.21,1.31,1.31,0,0,0-1.07-.43,1.56,1.56,0,0,0-.94.31,1.88,1.88,0,0,0-.66.83v3.56c0,.27-.13.41-.37.41H322c-.26,0-.38-.14-.38-.41V29.6s0,0,.1-.06a.52.52,0,0,1,.21,0c.33,0,.51.24.52.71v.28a2.46,2.46,0,0,1,.76-.78,2,2,0,0,1,1.05-.29,2.06,2.06,0,0,1,1.19.33,1.91,1.91,0,0,1,.7.94,2.31,2.31,0,0,1,.79-.93,2.08,2.08,0,0,1,1.19-.34Z"/><path d="M239.45,49.43a.76.76,0,0,1,.21,0c.07,0,.1,0,.1.06v7.56a.35.35,0,0,1-.39.4h-.09c-.25,0-.38-.13-.38-.4v-3a2.45,2.45,0,0,1-.84.88,2.36,2.36,0,0,1-1.24.32,2.5,2.5,0,0,1-1.35-.38,2.59,2.59,0,0,1-.94-1,3.73,3.73,0,0,1,0-3.11,2.55,2.55,0,0,1,2.33-1.43,2.42,2.42,0,0,1,1.26.33,1.94,1.94,0,0,1,.79.82v-.36c0-.47.21-.7.54-.7Zm-.55,2a2.17,2.17,0,0,0-.72-1,1.9,1.9,0,0,0-1.19-.37,1.77,1.77,0,0,0-1.4.62,2.41,2.41,0,0,0-.54,1.63,2.58,2.58,0,0,0,.25,1.17,1.91,1.91,0,0,0,.68.8,1.83,1.83,0,0,0,1,.29,1.86,1.86,0,0,0,1-.25,1.74,1.74,0,0,0,.7-.67,1.78,1.78,0,0,0,.26-1Zm6.95-2c.25,0,.38.13.38.4v5.3s0,0-.1.06a.76.76,0,0,1-.21,0c-.3,0-.46-.18-.5-.56,0-.2,0-.36,0-.46a2.36,2.36,0,0,1-.8.8,2.14,2.14,0,0,1-1.16.31,2,2,0,0,1-1.63-.68,2.76,2.76,0,0,1-.56-1.81v-3a.35.35,0,0,1,.39-.4h.09c.26,0,.38.13.38.4v2.93a2,2,0,0,0,.4,1.31,1.34,1.34,0,0,0,1.11.47,1.83,1.83,0,0,0,1.06-.31,1.9,1.9,0,0,0,.7-.85V49.83c0-.27.12-.4.37-.4Zm1.44,2.93a3.17,3.17,0,0,1,.37-1.55,2.68,2.68,0,0,1,2.45-1.47,2.64,2.64,0,0,1,1.39.36,2.4,2.4,0,0,1,.91,1,3.12,3.12,0,0,1,.32,1.47v.09a.29.29,0,0,1-.06.21.37.37,0,0,1-.24.06h-4.31a.81.81,0,0,0,0,.17,2.14,2.14,0,0,0,.65,1.39,2.34,2.34,0,0,0,2.6.23,1.92,1.92,0,0,0,.68-.76.28.28,0,0,1,.16,0,.57.57,0,0,1,.23.15.36.36,0,0,1,.1.27.64.64,0,0,1-.11.34,1.45,1.45,0,0,1-.34.37,2.56,2.56,0,0,1-.79.44,3.5,3.5,0,0,1-1.11.17,3.11,3.11,0,0,1-1.52-.37,2.58,2.58,0,0,1-1-1,3.09,3.09,0,0,1-.37-1.53Zm4.59-.47a2,2,0,0,0-.51-1.35,1.68,1.68,0,0,0-1.26-.5,1.84,1.84,0,0,0-1.31.51,2.22,2.22,0,0,0-.66,1.34Zm3.69.47a3.28,3.28,0,0,1,.36-1.55,2.71,2.71,0,0,1,2.46-1.47,2.63,2.63,0,0,1,1.38.36,2.33,2.33,0,0,1,.91,1,3.12,3.12,0,0,1,.33,1.47v.09a.29.29,0,0,1-.07.21.33.33,0,0,1-.23.06h-4.32c0,.07,0,.13,0,.17a2.19,2.19,0,0,0,.65,1.39,2.09,2.09,0,0,0,3.29-.53s.07,0,.16,0a.54.54,0,0,1,.22.15.37.37,0,0,1,.11.27.67.67,0,0,1-.12.34,1.29,1.29,0,0,1-.34.37,2.56,2.56,0,0,1-.79.44,3.41,3.41,0,0,1-1.11.17,3.14,3.14,0,0,1-1.52-.37,2.58,2.58,0,0,1-1-1,3.2,3.2,0,0,1-.36-1.53Zm4.59-.47a2.06,2.06,0,0,0-.52-1.35,1.66,1.66,0,0,0-1.25-.5,1.85,1.85,0,0,0-1.32.51,2.16,2.16,0,0,0-.65,1.34Zm1.92,2.82a.8.8,0,0,1-.34-.57.35.35,0,0,1,.07-.23.65.65,0,0,1,.18-.15c.06,0,.1,0,.12,0a2,2,0,0,0,.77.65,2.64,2.64,0,0,0,1.16.25,1.85,1.85,0,0,0,1-.26.8.8,0,0,0,.38-.69.69.69,0,0,0-.19-.5,1.29,1.29,0,0,0-.49-.28,9.1,9.1,0,0,0-.91-.24,6.79,6.79,0,0,1-1-.26,1.73,1.73,0,0,1-.69-.47,1.24,1.24,0,0,1-.29-.86,1.53,1.53,0,0,1,.59-1.24,2.44,2.44,0,0,1,1.58-.48,3.17,3.17,0,0,1,1.12.18,1.85,1.85,0,0,1,.74.47.69.69,0,0,1,.16.22.53.53,0,0,1,.06.23.41.41,0,0,1-.08.24.52.52,0,0,1-.18.15c-.07,0-.11.05-.11,0a1.83,1.83,0,0,0-.7-.61,2.11,2.11,0,0,0-1-.24,1.66,1.66,0,0,0-1,.27.81.81,0,0,0-.37.68.61.61,0,0,0,.18.47,1.24,1.24,0,0,0,.48.28c.2.06.5.14.89.23a7.72,7.72,0,0,1,1,.29,1.8,1.8,0,0,1,.71.47,1.24,1.24,0,0,1,.3.87,1.52,1.52,0,0,1-.61,1.26,2.7,2.7,0,0,1-1.66.47,3.62,3.62,0,0,1-1.15-.17,2.43,2.43,0,0,1-.8-.43Zm7.33.6a1.5,1.5,0,0,1-1.18-.44,2,2,0,0,1-.39-1.35V50.2h-.56c-.24,0-.37-.1-.37-.32V49.8c0-.22.13-.33.37-.33h.56v-1q0-.42.39-.42h.09c.25,0,.37.14.37.42v1h1.45c.25,0,.37.11.37.33v.07c0,.22-.13.33-.38.33h-1.45v3.18a1.65,1.65,0,0,0,.2.92.76.76,0,0,0,.65.28,1,1,0,0,0,.85-.44s0,0,.08,0a.29.29,0,0,1,.11.13.56.56,0,0,1,.05.23.57.57,0,0,1-.22.44,1.37,1.37,0,0,1-1,.34Zm1.81-1.6a1.48,1.48,0,0,1,.93-1.41,7.63,7.63,0,0,1,3-.47h.13v-.24a1.51,1.51,0,0,0-.4-1.12,1.59,1.59,0,0,0-1.15-.39,2,2,0,0,0-1.08.28,1.75,1.75,0,0,0-.66.74.37.37,0,0,1-.16,0,.5.5,0,0,1-.25-.13.36.36,0,0,1-.12-.29.71.71,0,0,1,.09-.31,1.5,1.5,0,0,1,.26-.33,2.65,2.65,0,0,1,.81-.49,3.44,3.44,0,0,1,1.16-.19,2.39,2.39,0,0,1,1.74.6,2.24,2.24,0,0,1,.61,1.66v3.53s0,0-.11.06a.66.66,0,0,1-.21,0c-.29,0-.46-.18-.5-.55s0-.39,0-.52a2.15,2.15,0,0,1-.85.84,2.68,2.68,0,0,1-1.27.31,2.16,2.16,0,0,1-1.41-.43,1.43,1.43,0,0,1-.52-1.16Zm4-1.32h-.21a6.7,6.7,0,0,0-2.27.34,1,1,0,0,0-.7.94.86.86,0,0,0,.33.71,1.47,1.47,0,0,0,.91.26,2,2,0,0,0,1-.23,1.81,1.81,0,0,0,.7-.61,1.56,1.56,0,0,0,.26-.87Zm-2.32-3.78c-.07,0-.11,0-.11,0a2.06,2.06,0,0,1,.34-.59,7.51,7.51,0,0,1,.75-.92,1.14,1.14,0,0,1,.73-.42.36.36,0,0,1,.26.11A.37.37,0,0,1,275,47c0,.21-.15.43-.45.67a5.34,5.34,0,0,1-1,.64,3.05,3.05,0,0,1-.63.28Zm8.95,6.7a2.5,2.5,0,0,1-1.35-.38,2.59,2.59,0,0,1-.94-1,3.73,3.73,0,0,1,0-3.11,2.62,2.62,0,0,1,3.57-1.12,2,2,0,0,1,.8.79V47.12s0,0,.09-.07a.66.66,0,0,1,.21,0c.38,0,.56.26.56.77v7c0,.27-.12.4-.38.4h-.08c-.25,0-.37-.12-.37-.38s0-.41,0-.74a2.43,2.43,0,0,1-.84.9,2.37,2.37,0,0,1-1.25.32ZM284,51.44a2.12,2.12,0,0,0-.72-1,1.93,1.93,0,0,0-1.19-.36,1.79,1.79,0,0,0-1.4.62,2.41,2.41,0,0,0-.54,1.63,2.58,2.58,0,0,0,.25,1.17,1.91,1.91,0,0,0,.68.8,1.83,1.83,0,0,0,1,.29,1.92,1.92,0,0,0,1-.25,1.78,1.78,0,0,0,.69-.67,1.7,1.7,0,0,0,.26-.95Zm2.36-3.76a.55.55,0,0,1,.14-.41.58.58,0,0,1,.41-.14.5.5,0,0,1,.55.55.51.51,0,0,1-.15.4.6.6,0,0,1-.41.14.57.57,0,0,1-.4-.14.5.5,0,0,1-.14-.4Zm.1,2.17q0-.42.39-.42h.09q.39,0,.39.42v5a.35.35,0,0,1-.39.4h-.09a.35.35,0,0,1-.39-.4Zm1.86-.17s0-.11.14-.17a.6.6,0,0,1,.31-.1.55.55,0,0,1,.32.14.8.8,0,0,1,.24.4l1.64,4.46L292.59,50c.12-.35.3-.52.54-.52a.59.59,0,0,1,.32.09c.09.06.13.11.13.16l-2.09,5.26a.38.38,0,0,1-.18.23,1,1,0,0,1-.38.07.84.84,0,0,1-.36-.06.35.35,0,0,1-.19-.22Zm6.18-2a.6.6,0,0,1,.14-.41.58.58,0,0,1,.41-.14.49.49,0,0,1,.55.55.51.51,0,0,1-.15.4.6.6,0,0,1-.41.14.57.57,0,0,1-.4-.14.54.54,0,0,1-.14-.4Zm.11,2.17c0-.28.12-.42.38-.42h.09q.39,0,.39.42v5a.35.35,0,0,1-.39.4H295c-.26,0-.38-.13-.38-.4Zm4.72,5.46a2.5,2.5,0,0,1-1.35-.38,2.59,2.59,0,0,1-.94-1,3.73,3.73,0,0,1,0-3.11,2.59,2.59,0,0,1,.94-1.05,2.69,2.69,0,0,1,2.63-.07,2.09,2.09,0,0,1,.8.79V47.12s0,0,.09-.07a.66.66,0,0,1,.21,0c.37,0,.56.26.56.77v7c0,.27-.13.4-.38.4h-.09a.33.33,0,0,1-.37-.38c0-.16,0-.41,0-.74a2.51,2.51,0,0,1-.84.9,2.39,2.39,0,0,1-1.25.32Zm2.08-3.87a2.12,2.12,0,0,0-.72-1,2,2,0,0,0-1.19-.36,1.77,1.77,0,0,0-1.4.62,2.41,2.41,0,0,0-.54,1.63,2.72,2.72,0,0,0,.24,1.17,2,2,0,0,0,.69.8,1.82,1.82,0,0,0,1,.29,1.9,1.9,0,0,0,1-.25,1.74,1.74,0,0,0,.7-.67,1.78,1.78,0,0,0,.26-.95Zm2.35-3.76a.5.5,0,0,1,.55-.55.58.58,0,0,1,.41.14.55.55,0,0,1,.14.41.51.51,0,0,1-.15.4.58.58,0,0,1-.41.14.53.53,0,0,1-.39-.14.51.51,0,0,1-.15-.4Zm.11,2.17c0-.28.13-.42.38-.42h.1c.25,0,.38.14.38.42v5c0,.27-.13.4-.38.4h-.1c-.25,0-.38-.13-.38-.4Zm4.72,5.46a2.5,2.5,0,0,1-1.35-.38,2.59,2.59,0,0,1-.94-1,3.73,3.73,0,0,1,0-3.11,2.62,2.62,0,0,1,1-1.05,2.67,2.67,0,0,1,2.62-.07,2,2,0,0,1,.8.79V47.12s0,0,.09-.07a.66.66,0,0,1,.21,0c.38,0,.56.26.56.77v7c0,.27-.12.4-.38.4H311c-.25,0-.37-.12-.37-.38s0-.41,0-.74a2.54,2.54,0,0,1-.85.9,2.34,2.34,0,0,1-1.25.32Zm2.08-3.87a2.12,2.12,0,0,0-.72-1,1.93,1.93,0,0,0-1.19-.36,1.79,1.79,0,0,0-1.4.62,2.41,2.41,0,0,0-.54,1.63,2.72,2.72,0,0,0,.25,1.17,1.86,1.86,0,0,0,.69.8,1.77,1.77,0,0,0,1,.29,1.92,1.92,0,0,0,1-.25,1.8,1.8,0,0,0,.7-.67,1.77,1.77,0,0,0,.25-.95Zm2,.88a3.13,3.13,0,0,1,.37-1.54,2.6,2.6,0,0,1,1-1.05,2.87,2.87,0,0,1,1.5-.39,2.83,2.83,0,0,1,1.49.39,2.63,2.63,0,0,1,1,1.07,3.13,3.13,0,0,1,.37,1.54,3.09,3.09,0,0,1-.37,1.53,2.69,2.69,0,0,1-1,1.06,2.92,2.92,0,0,1-1.49.38,3,3,0,0,1-1.5-.38,2.65,2.65,0,0,1-1-1.07,3.24,3.24,0,0,1-.36-1.54Zm4.95,0a2.45,2.45,0,0,0-.27-1.16,1.92,1.92,0,0,0-.73-.81,1.89,1.89,0,0,0-1.05-.3,2,2,0,0,0-1.8,1.09,2.63,2.63,0,0,0,0,2.32,2.14,2.14,0,0,0,.74.81,2,2,0,0,0,1.06.29,2,2,0,0,0,1.05-.29,1.92,1.92,0,0,0,.73-.79,2.45,2.45,0,0,0,.27-1.16Z"/><line class="cls-4" x1="338.98" y1="62.9" x2="338.98" y2="23.05"/><path d="M359.5,31.4a4.52,4.52,0,0,1,.47-2.08,3.59,3.59,0,0,1,1.34-1.42,3.82,3.82,0,0,1,2-.51,3.75,3.75,0,0,1,1.35.22,3.1,3.1,0,0,1,1,.58,1.52,1.52,0,0,1,.37.44.77.77,0,0,1,.14.41.44.44,0,0,1-.12.32.56.56,0,0,1-.27.17c-.1,0-.15,0-.17,0a2.39,2.39,0,0,0-.92-1,2.63,2.63,0,0,0-1.38-.38,2.74,2.74,0,0,0-1.48.41,2.72,2.72,0,0,0-1,1.14,4,4,0,0,0,0,3.33,2.69,2.69,0,0,0,2.51,1.54,2.53,2.53,0,0,0,1.5-.43,2.18,2.18,0,0,0,.84-1.11s.07,0,.17,0a.73.73,0,0,1,.3.16.44.44,0,0,1,.13.32,1,1,0,0,1-.16.48,2,2,0,0,1-.43.53,3,3,0,0,1-1,.59,3.86,3.86,0,0,1-1.39.23,3.71,3.71,0,0,1-2-.5A3.36,3.36,0,0,1,360,33.47a4.33,4.33,0,0,1-.47-2.07ZM367,33.78a1.46,1.46,0,0,1,.94-1.4,7.5,7.5,0,0,1,3-.48h.13v-.23a1.51,1.51,0,0,0-.4-1.12,1.58,1.58,0,0,0-1.14-.39,2.07,2.07,0,0,0-1.09.27,1.78,1.78,0,0,0-.66.75l-.16,0a.6.6,0,0,1-.25-.13.38.38,0,0,1-.12-.3.67.67,0,0,1,.09-.3,1.15,1.15,0,0,1,.26-.33,2.46,2.46,0,0,1,.81-.49,3.25,3.25,0,0,1,1.16-.19,2.39,2.39,0,0,1,1.74.6,2.23,2.23,0,0,1,.61,1.66V35.2s0,0-.1.06a.52.52,0,0,1-.21,0c-.3,0-.47-.18-.51-.55s0-.4,0-.53a2.08,2.08,0,0,1-.85.84,2.54,2.54,0,0,1-1.27.31,2.12,2.12,0,0,1-1.41-.43,1.42,1.42,0,0,1-.52-1.16Zm4-1.31h-.2a6.52,6.52,0,0,0-2.28.33,1,1,0,0,0-.7.95.84.84,0,0,0,.33.7,1.43,1.43,0,0,0,.91.27,2.11,2.11,0,0,0,1-.23,1.76,1.76,0,0,0,.7-.62,1.53,1.53,0,0,0,.26-.86Zm4.6,2.91a2.49,2.49,0,0,1-1.35-.37,2.56,2.56,0,0,1-.94-1.06,3.38,3.38,0,0,1-.34-1.56,3.32,3.32,0,0,1,.34-1.54,2.64,2.64,0,0,1,.95-1.06,2.54,2.54,0,0,1,1.37-.37,2.44,2.44,0,0,1,1.25.31,2,2,0,0,1,.8.79V27.19s0,0,.09-.06a.66.66,0,0,1,.21,0c.37,0,.56.25.56.76v7c0,.27-.13.41-.38.41h-.08a.33.33,0,0,1-.37-.38c0-.16,0-.41,0-.75a2.24,2.24,0,0,1-2.09,1.22Zm2.08-3.87a2.09,2.09,0,0,0-.72-1,1.93,1.93,0,0,0-1.19-.36,1.74,1.74,0,0,0-1.4.62,2.38,2.38,0,0,0-.54,1.62,2.65,2.65,0,0,0,.25,1.18,1.91,1.91,0,0,0,.68.8,1.82,1.82,0,0,0,1,.28,2,2,0,0,0,1-.24,1.85,1.85,0,0,0,.69-.67,1.72,1.72,0,0,0,.26-1Zm2,2.27a1.48,1.48,0,0,1,.94-1.4,7.58,7.58,0,0,1,3-.48h.13v-.23a1.48,1.48,0,0,0-.4-1.12,1.54,1.54,0,0,0-1.14-.39,2,2,0,0,0-1.08.27,1.78,1.78,0,0,0-.66.75l-.16,0a.64.64,0,0,1-.26-.13.41.41,0,0,1-.11-.3.67.67,0,0,1,.09-.3,1.15,1.15,0,0,1,.26-.33,2.36,2.36,0,0,1,.81-.49,3.21,3.21,0,0,1,1.16-.19,2.35,2.35,0,0,1,1.73.6,2.19,2.19,0,0,1,.61,1.66V35.2s0,0-.1.06a.52.52,0,0,1-.21,0c-.29,0-.46-.18-.5-.55s0-.4,0-.53a2.15,2.15,0,0,1-.85.84,2.57,2.57,0,0,1-1.27.31,2.15,2.15,0,0,1-1.42-.43,1.45,1.45,0,0,1-.52-1.16Zm4-1.31h-.2a6.61,6.61,0,0,0-2.28.33,1,1,0,0,0-.7.95.85.85,0,0,0,.34.7,1.41,1.41,0,0,0,.91.27,2.14,2.14,0,0,0,1-.23,1.83,1.83,0,0,0,.7-.62,1.52,1.52,0,0,0,.25-.86Zm7.32-3a2.51,2.51,0,0,1,1.35.37,2.57,2.57,0,0,1,.94,1,3.37,3.37,0,0,1,.34,1.55,3.44,3.44,0,0,1-.34,1.56,2.59,2.59,0,0,1-.94,1.07,2.56,2.56,0,0,1-1.37.37,2.36,2.36,0,0,1-1.28-.34,2,2,0,0,1-.78-.85v3c0,.27-.12.41-.37.41h-.09c-.26,0-.39-.14-.39-.41V29.6s0,0,.1-.06a.45.45,0,0,1,.2,0c.32,0,.5.22.53.65v.49a2.27,2.27,0,0,1,2.09-1.22ZM391,34.65a1.75,1.75,0,0,0,1.42-.62,2.4,2.4,0,0,0,.54-1.64,2.57,2.57,0,0,0-.25-1.16,2.07,2.07,0,0,0-.69-.8,1.81,1.81,0,0,0-1-.28,2,2,0,0,0-1.19.36,2.23,2.23,0,0,0-.75,1v1.27a1.71,1.71,0,0,0,.26.94,1.76,1.76,0,0,0,.7.68,1.94,1.94,0,0,0,.95.24Zm3.62-.87a1.48,1.48,0,0,1,.94-1.4,7.58,7.58,0,0,1,3-.48h.14v-.23a1.48,1.48,0,0,0-.41-1.12,1.54,1.54,0,0,0-1.14-.39,2,2,0,0,0-1.08.27,1.78,1.78,0,0,0-.66.75l-.16,0a.55.55,0,0,1-.25-.13.38.38,0,0,1-.12-.3.67.67,0,0,1,.09-.3,1.15,1.15,0,0,1,.26-.33,2.46,2.46,0,0,1,.81-.49,3.21,3.21,0,0,1,1.16-.19,2.35,2.35,0,0,1,1.73.6,2.19,2.19,0,0,1,.61,1.66V35.2s0,0-.1.06a.49.49,0,0,1-.21,0c-.29,0-.46-.18-.5-.55s0-.4,0-.53a2.15,2.15,0,0,1-.85.84,2.57,2.57,0,0,1-1.27.31,2.15,2.15,0,0,1-1.42-.43,1.45,1.45,0,0,1-.52-1.16Zm4.05-1.31h-.21a6.61,6.61,0,0,0-2.28.33,1,1,0,0,0-.69.95.84.84,0,0,0,.33.7,1.41,1.41,0,0,0,.91.27,2.14,2.14,0,0,0,1-.23,1.83,1.83,0,0,0,.7-.62,1.53,1.53,0,0,0,.26-.86Zm4.65-3a1,1,0,0,1,.61.17.53.53,0,0,1,.23.45.53.53,0,0,1-.05.26.42.42,0,0,1-.12.16.2.2,0,0,1-.09.05.91.91,0,0,0-.68-.24,1.09,1.09,0,0,0-1,.62,3.59,3.59,0,0,0-.34,1.73v2.26c0,.27-.13.41-.37.41h-.1c-.26,0-.39-.14-.39-.41V29.6s0,0,.09-.06a.54.54,0,0,1,.22,0c.29,0,.46.19.5.58s0,.47,0,.62a1.91,1.91,0,0,1,.55-1,1.45,1.45,0,0,1,.94-.32Zm3.75,6a1.47,1.47,0,0,1-1.18-.44,2,2,0,0,1-.39-1.35V30.28h-.56c-.25,0-.37-.11-.37-.32v-.09c0-.21.12-.32.37-.32h.56v-1q0-.42.39-.42h.09c.25,0,.37.14.37.42v1h1.45c.25,0,.37.11.37.32v.07c0,.23-.13.34-.38.34H406.3v3.18a1.61,1.61,0,0,0,.2.91.74.74,0,0,0,.65.28,1,1,0,0,0,.85-.44s0,0,.08,0a.4.4,0,0,1,.11.14.52.52,0,0,1,.05.23.59.59,0,0,1-.22.44,1.41,1.41,0,0,1-1,.33Zm1.81-3a3.31,3.31,0,0,1,.36-1.55,2.72,2.72,0,0,1,1-1.07,2.75,2.75,0,0,1,1.46-.39,2.72,2.72,0,0,1,1.38.35,2.36,2.36,0,0,1,.91,1,3.12,3.12,0,0,1,.32,1.47v.08a.32.32,0,0,1-.06.22.33.33,0,0,1-.23.06h-4.32a.71.71,0,0,0,0,.16,2.14,2.14,0,0,0,.65,1.39,2,2,0,0,0,1.43.53,2.11,2.11,0,0,0,1.17-.29,2.06,2.06,0,0,0,.69-.77l.16,0a.54.54,0,0,1,.22.15.41.41,0,0,1,.11.28.64.64,0,0,1-.12.33,1.29,1.29,0,0,1-.34.37,2.37,2.37,0,0,1-.79.44,3.2,3.2,0,0,1-1.11.17,3,3,0,0,1-1.52-.37,2.49,2.49,0,0,1-1-1,3.24,3.24,0,0,1-.36-1.54Zm4.59-.47a2,2,0,0,0-.52-1.34,1.64,1.64,0,0,0-1.25-.51,1.82,1.82,0,0,0-1.32.52,2.2,2.2,0,0,0-.66,1.33Zm3.69.47a3.2,3.2,0,0,1,.37-1.55,2.65,2.65,0,0,1,1-1.07,2.74,2.74,0,0,1,1.45-.39,2.67,2.67,0,0,1,1.38.35,2.38,2.38,0,0,1,.92,1,3.25,3.25,0,0,1,.32,1.47v.08a.28.28,0,0,1-.07.22.33.33,0,0,1-.23.06H418a.71.71,0,0,0,0,.16,2.05,2.05,0,0,0,.65,1.39,2,2,0,0,0,1.43.53,2.1,2.1,0,0,0,1.16-.29,2.06,2.06,0,0,0,.69-.77l.16,0a.57.57,0,0,1,.23.15.4.4,0,0,1,.1.28.71.71,0,0,1-.11.33,1.45,1.45,0,0,1-.34.37,2.47,2.47,0,0,1-.79.44,3.23,3.23,0,0,1-1.11.17,3,3,0,0,1-1.52-.37,2.49,2.49,0,0,1-1-1,3.13,3.13,0,0,1-.37-1.54Zm4.59-.47a2,2,0,0,0-.51-1.34,1.65,1.65,0,0,0-1.26-.51,1.79,1.79,0,0,0-1.31.52A2.2,2.2,0,0,0,418,32Zm-2.59-3.27c-.07,0-.11,0-.11-.05a2.39,2.39,0,0,1,.34-.59,7.51,7.51,0,0,1,.75-.92,1.17,1.17,0,0,1,.73-.41.35.35,0,0,1,.26.1.41.41,0,0,1,.11.28c0,.21-.15.43-.45.67a5.9,5.9,0,0,1-1,.64,3.05,3.05,0,0,1-.63.28Zm11.55.81a.45.45,0,0,1,.2,0c.07,0,.11,0,.11.06v7.55a.36.36,0,0,1-.4.41h-.08c-.26,0-.38-.14-.38-.41v-3a2.42,2.42,0,0,1-.84.87,2.29,2.29,0,0,1-1.24.32,2.5,2.5,0,0,1-1.36-.37,2.54,2.54,0,0,1-.93-1.06,3.38,3.38,0,0,1-.34-1.56,3.32,3.32,0,0,1,.34-1.54,2.57,2.57,0,0,1,.95-1.06,2.54,2.54,0,0,1,1.37-.37,2.46,2.46,0,0,1,1.26.32,2,2,0,0,1,.8.83v-.36c0-.47.21-.71.54-.71Zm-.55,2a2.12,2.12,0,0,0-.73-1,1.93,1.93,0,0,0-1.19-.36,1.75,1.75,0,0,0-1.4.62,2.43,2.43,0,0,0-.53,1.62,2.8,2.8,0,0,0,.24,1.18,1.86,1.86,0,0,0,.69.8,1.76,1.76,0,0,0,1,.28,2,2,0,0,0,1-.24,1.83,1.83,0,0,0,.7-.68,1.81,1.81,0,0,0,.26-.95Zm6.94-2c.26,0,.38.14.38.41V35.2s0,0-.1.06a.49.49,0,0,1-.21,0c-.29,0-.46-.19-.5-.56,0-.21,0-.36,0-.47a2.41,2.41,0,0,1-.81.81,2.19,2.19,0,0,1-1.15.3,2,2,0,0,1-1.64-.67,2.77,2.77,0,0,1-.55-1.81v-3c0-.27.13-.41.38-.41h.1c.25,0,.38.14.38.41v2.93a2,2,0,0,0,.39,1.31,1.41,1.41,0,0,0,1.12.47,1.88,1.88,0,0,0,1.05-.31,2,2,0,0,0,.7-.85V29.91c0-.27.13-.41.37-.41Zm1.45,2.93a3.31,3.31,0,0,1,.36-1.55,2.73,2.73,0,0,1,2.46-1.46,2.67,2.67,0,0,1,1.38.35,2.45,2.45,0,0,1,.92,1,3.25,3.25,0,0,1,.32,1.47v.08a.28.28,0,0,1-.07.22.33.33,0,0,1-.23.06h-4.32a.63.63,0,0,0,0,.16,2.05,2.05,0,0,0,.65,1.39,2,2,0,0,0,1.43.53,2.1,2.1,0,0,0,1.16-.29,2.06,2.06,0,0,0,.69-.77l.16,0a.65.65,0,0,1,.23.15.45.45,0,0,1,.1.28.64.64,0,0,1-.12.33,1.16,1.16,0,0,1-.34.37,2.42,2.42,0,0,1-.78.44,3.25,3.25,0,0,1-1.12.17A3,3,0,0,1,439.9,35a2.58,2.58,0,0,1-1-1,3.24,3.24,0,0,1-.36-1.54ZM443.1,32a2,2,0,0,0-.52-1.34,1.61,1.61,0,0,0-1.25-.51,1.82,1.82,0,0,0-1.32.52,2.24,2.24,0,0,0-.65,1.33Z"/><path d="M351.31,50.2h-.8a.36.36,0,0,1-.28-.08.33.33,0,0,1-.09-.25V49.8a.32.32,0,0,1,.09-.25.41.41,0,0,1,.28-.08h.8V48.9a2.25,2.25,0,0,1,.43-1.48,1.52,1.52,0,0,1,1.23-.5,1.41,1.41,0,0,1,1,.28.5.5,0,0,1,.19.41.46.46,0,0,1,0,.21L354,48s-.06,0-.07,0a1,1,0,0,0-.37-.24,1.19,1.19,0,0,0-.49-.1.79.79,0,0,0-.69.31,1.69,1.69,0,0,0-.23,1v.5h1.1c.25,0,.38.11.38.33v.07c0,.22-.13.33-.38.33h-1.08v4.61c0,.27-.12.4-.37.4h-.09a.35.35,0,0,1-.39-.4Zm5.67-.86a1,1,0,0,1,.62.18.53.53,0,0,1,.23.44.54.54,0,0,1-.06.27.4.4,0,0,1-.12.16l-.08,0a.93.93,0,0,0-.69-.24,1.11,1.11,0,0,0-1,.62,3.66,3.66,0,0,0-.34,1.74v2.26c0,.27-.12.4-.37.4h-.09a.35.35,0,0,1-.4-.4V49.52s0,0,.1-.06a.66.66,0,0,1,.21,0c.3,0,.46.19.5.57s0,.48,0,.62a1.74,1.74,0,0,1,.55-.95,1.36,1.36,0,0,1,.93-.33Zm1.33,4.37a1.48,1.48,0,0,1,.94-1.41,7.54,7.54,0,0,1,3-.47h.13v-.24a1.51,1.51,0,0,0-.4-1.12,1.58,1.58,0,0,0-1.14-.39,2.05,2.05,0,0,0-1.09.28,1.75,1.75,0,0,0-.66.74.37.37,0,0,1-.16,0,.5.5,0,0,1-.25-.13.36.36,0,0,1-.12-.29.71.71,0,0,1,.09-.31,1.5,1.5,0,0,1,.26-.33,2.65,2.65,0,0,1,.81-.49,3.48,3.48,0,0,1,1.16-.19,2.39,2.39,0,0,1,1.74.6,2.24,2.24,0,0,1,.61,1.66v3.53s0,0-.1.06l-.21,0c-.3,0-.47-.18-.51-.55s0-.39,0-.52a2.08,2.08,0,0,1-.85.84,2.65,2.65,0,0,1-1.27.31,2.18,2.18,0,0,1-1.41-.43,1.43,1.43,0,0,1-.52-1.16Zm4-1.32h-.21a6.7,6.7,0,0,0-2.27.34,1,1,0,0,0-.7.94.86.86,0,0,0,.33.71,1.49,1.49,0,0,0,.91.26,2,2,0,0,0,1-.23,1.74,1.74,0,0,0,.7-.61,1.56,1.56,0,0,0,.26-.87Zm4.52,5.42a1.31,1.31,0,0,1-.61-.13,1.11,1.11,0,0,1-.41-.31.61.61,0,0,1-.14-.36c0-.23.1-.35.3-.37a1,1,0,0,0,.77.46.81.81,0,0,0,.51-.15.6.6,0,0,0,.2-.49,1.08,1.08,0,0,0-.35-.72,2.1,2.1,0,0,0-.75-.54,2.61,2.61,0,0,1-1.51-1,3.16,3.16,0,0,1-.56-1.87,3.09,3.09,0,0,1,.37-1.53,2.67,2.67,0,0,1,1-1.05,2.85,2.85,0,0,1,1.48-.39,3.09,3.09,0,0,1,1.1.19,2.39,2.39,0,0,1,.8.51,1.73,1.73,0,0,1,.35.44,1,1,0,0,1,.12.42.34.34,0,0,1-.12.27.71.71,0,0,1-.26.13c-.1,0-.16,0-.17,0a1.77,1.77,0,0,0-1.81-1.22,2,2,0,0,0-1,.29,2,2,0,0,0-.73.8,2.49,2.49,0,0,0-.26,1.14,2.45,2.45,0,0,0,.26,1.16,1.89,1.89,0,0,0,.72.81,2,2,0,0,0,1.06.29,1.82,1.82,0,0,0,1.16-.34,2,2,0,0,0,.65-.88s.06,0,.16,0a.59.59,0,0,1,.27.14.37.37,0,0,1,.12.29,1,1,0,0,1-.11.38,1.87,1.87,0,0,1-.33.44,2.42,2.42,0,0,1-1.33.67,3.13,3.13,0,0,1-.44,0,2.07,2.07,0,0,1,.59.59,1.38,1.38,0,0,1,.24.78,1,1,0,0,1-.39.85,1.54,1.54,0,0,1-.93.29Zm3.46-4.1a1.49,1.49,0,0,1,.94-1.41,7.61,7.61,0,0,1,3-.47h.13v-.24a1.48,1.48,0,0,0-.4-1.12,1.54,1.54,0,0,0-1.14-.39,2,2,0,0,0-1.08.28,1.75,1.75,0,0,0-.66.74.37.37,0,0,1-.16,0,.53.53,0,0,1-.26-.13.38.38,0,0,1-.11-.29.71.71,0,0,1,.09-.31,1.5,1.5,0,0,1,.26-.33,2.65,2.65,0,0,1,.81-.49,3.44,3.44,0,0,1,1.16-.19,2.35,2.35,0,0,1,1.73.6,2.2,2.2,0,0,1,.61,1.66v3.53s0,0-.1.06a.76.76,0,0,1-.21,0c-.29,0-.46-.18-.5-.55s0-.39,0-.52a2.15,2.15,0,0,1-.85.84,2.68,2.68,0,0,1-1.27.31,2.21,2.21,0,0,1-1.42-.43,1.46,1.46,0,0,1-.52-1.16Zm4-1.32h-.2a6.81,6.81,0,0,0-2.28.34,1,1,0,0,0-.7.94.87.87,0,0,0,.34.71,1.47,1.47,0,0,0,.91.26,2,2,0,0,0,1-.23,1.81,1.81,0,0,0,.7-.61,1.55,1.55,0,0,0,.25-.87Zm-2.84-4a.45.45,0,0,1-.28-.11.92.92,0,0,1,0-.3,1.33,1.33,0,0,1,.29-.74.77.77,0,0,1,.63-.3,1,1,0,0,1,.44.11,2.38,2.38,0,0,1,.42.3,3.13,3.13,0,0,0,.65.5.39.39,0,0,0,.18-.16,2.68,2.68,0,0,0,.14-.29.84.84,0,0,1,.15-.29.2.2,0,0,1,.18-.09.4.4,0,0,1,.27.09,1,1,0,0,1,0,.32,1.3,1.3,0,0,1-.29.73.79.79,0,0,1-.63.29.88.88,0,0,1-.43-.1,3,3,0,0,1-.43-.29l-.28-.26a2.63,2.63,0,0,0-.35-.25.57.57,0,0,0-.16.15,1.38,1.38,0,0,0-.15.3,2,2,0,0,1-.17.29.22.22,0,0,1-.19.1Zm4.82,3.91a3.13,3.13,0,0,1,.37-1.54,2.67,2.67,0,0,1,1-1.05,2.87,2.87,0,0,1,1.5-.39,2.83,2.83,0,0,1,1.49.39,2.57,2.57,0,0,1,1,1.07,3.13,3.13,0,0,1,.37,1.54,3.09,3.09,0,0,1-.37,1.53,2.74,2.74,0,0,1-1,1.06,3.15,3.15,0,0,1-3,0,2.72,2.72,0,0,1-1-1.07,3.24,3.24,0,0,1-.36-1.54Zm4.95,0a2.45,2.45,0,0,0-.27-1.16,1.85,1.85,0,0,0-.73-.81,1.89,1.89,0,0,0-1.05-.3,2,2,0,0,0-1.8,1.09,2.63,2.63,0,0,0,0,2.32,2.14,2.14,0,0,0,.74.81,2,2,0,0,0,1.06.29,2,2,0,0,0,1.05-.29,1.86,1.86,0,0,0,.73-.79,2.45,2.45,0,0,0,.27-1.16Zm6.32,3a2.5,2.5,0,0,1-1.35-.38,2.59,2.59,0,0,1-.94-1,3.73,3.73,0,0,1,0-3.11,2.62,2.62,0,0,1,3.57-1.12,2,2,0,0,1,.8.79V47.12s0,0,.09-.07a.66.66,0,0,1,.21,0c.37,0,.56.26.56.77v7c0,.27-.13.4-.38.4h-.08c-.25,0-.37-.12-.37-.38s0-.41,0-.74a2.43,2.43,0,0,1-.84.9,2.37,2.37,0,0,1-1.25.32Zm2.08-3.87a2.12,2.12,0,0,0-.72-1,1.93,1.93,0,0,0-1.19-.36,1.77,1.77,0,0,0-1.4.62,2.41,2.41,0,0,0-.54,1.63,2.58,2.58,0,0,0,.25,1.17,1.91,1.91,0,0,0,.68.8,1.83,1.83,0,0,0,1,.29,1.92,1.92,0,0,0,1-.25,1.78,1.78,0,0,0,.69-.67,1.7,1.7,0,0,0,.26-.95Zm2,.88a3.25,3.25,0,0,1,.37-1.54,2.67,2.67,0,0,1,1-1.05,2.9,2.9,0,0,1,1.51-.39,2.86,2.86,0,0,1,1.49.39,2.7,2.7,0,0,1,1,1.07,3.13,3.13,0,0,1,.37,1.54,3.09,3.09,0,0,1-.37,1.53,2.76,2.76,0,0,1-1,1.06,3.13,3.13,0,0,1-3,0,2.59,2.59,0,0,1-1-1.07,3.25,3.25,0,0,1-.37-1.54Zm4.95,0a2.45,2.45,0,0,0-.26-1.16,2,2,0,0,0-.73-.81,1.89,1.89,0,0,0-1.05-.3,2,2,0,0,0-1.8,1.09,2.63,2.63,0,0,0,0,2.32,2.14,2.14,0,0,0,.74.81,2,2,0,0,0,1.06.29,2,2,0,0,0,1.78-1.08,2.45,2.45,0,0,0,.26-1.16Zm6.39-3a1,1,0,0,1,.61.18.51.51,0,0,1,.24.44.54.54,0,0,1-.06.27.52.52,0,0,1-.12.16c-.05,0-.08,0-.09,0a.91.91,0,0,0-.68-.24,1.11,1.11,0,0,0-1,.62,3.66,3.66,0,0,0-.34,1.74v2.26c0,.27-.12.4-.37.4h-.1a.35.35,0,0,1-.39-.4V49.52s0,0,.09-.06a.78.78,0,0,1,.22,0c.29,0,.46.19.5.57s0,.48,0,.62a1.87,1.87,0,0,1,.55-.95,1.4,1.4,0,0,1,.94-.33Zm1.16,3a3.28,3.28,0,0,1,.36-1.55,2.71,2.71,0,0,1,2.46-1.47,2.63,2.63,0,0,1,1.38.36,2.33,2.33,0,0,1,.91,1,3.12,3.12,0,0,1,.33,1.47v.09a.29.29,0,0,1-.07.21.33.33,0,0,1-.23.06h-4.32c0,.07,0,.13,0,.17a2.15,2.15,0,0,0,.66,1.39,2,2,0,0,0,1.42.52A1.92,1.92,0,0,0,409,53.54s.07,0,.16,0a.65.65,0,0,1,.23.15.41.41,0,0,1,.1.27.67.67,0,0,1-.12.34,1.29,1.29,0,0,1-.34.37,2.56,2.56,0,0,1-.79.44,3.41,3.41,0,0,1-1.11.17,3.14,3.14,0,0,1-1.52-.37,2.64,2.64,0,0,1-1-1,3.2,3.2,0,0,1-.36-1.53Zm4.59-.47a2.06,2.06,0,0,0-.52-1.35,1.66,1.66,0,0,0-1.25-.5,1.85,1.85,0,0,0-1.32.51,2.21,2.21,0,0,0-.65,1.34Zm3.93,3.42a1.5,1.5,0,0,1-1.18-.44,2,2,0,0,1-.39-1.35V50.2h-.56c-.24,0-.37-.1-.37-.32V49.8c0-.22.13-.33.37-.33h.56v-1q0-.42.39-.42h.09c.25,0,.37.14.37.42v1h1.45c.25,0,.37.11.37.33v.07c0,.22-.13.33-.38.33H412v3.18a1.65,1.65,0,0,0,.2.92.76.76,0,0,0,.65.28,1,1,0,0,0,.85-.44s0,0,.08,0a.29.29,0,0,1,.11.13.56.56,0,0,1,0,.23.57.57,0,0,1-.22.44,1.37,1.37,0,0,1-1,.34Zm1.81-1.6a1.48,1.48,0,0,1,.93-1.41,7.63,7.63,0,0,1,3-.47h.13v-.24a1.51,1.51,0,0,0-.4-1.12,1.59,1.59,0,0,0-1.15-.39,2,2,0,0,0-1.08.28,1.75,1.75,0,0,0-.66.74.37.37,0,0,1-.16,0,.5.5,0,0,1-.25-.13.36.36,0,0,1-.12-.29.71.71,0,0,1,.09-.31,1.5,1.5,0,0,1,.26-.33,2.65,2.65,0,0,1,.81-.49,3.44,3.44,0,0,1,1.16-.19,2.39,2.39,0,0,1,1.74.6,2.24,2.24,0,0,1,.61,1.66v3.53s0,0-.11.06a.64.64,0,0,1-.2,0c-.3,0-.47-.18-.51-.55s0-.39,0-.52a2.15,2.15,0,0,1-.85.84,2.65,2.65,0,0,1-1.27.31,2.18,2.18,0,0,1-1.41-.43,1.43,1.43,0,0,1-.52-1.16Zm4-1.32h-.21a6.7,6.7,0,0,0-2.27.34,1,1,0,0,0-.7.94.86.86,0,0,0,.33.71,1.47,1.47,0,0,0,.91.26,2,2,0,0,0,1-.23,1.74,1.74,0,0,0,.7-.61,1.56,1.56,0,0,0,.26-.87Zm-2.75-3.78a.32.32,0,0,1-.23-.09.3.3,0,0,1-.1-.21,1.1,1.1,0,0,1,.32-.6,5.92,5.92,0,0,1,.69-.73.61.61,0,0,1,1.14,0,6,6,0,0,1,.7.73,1.06,1.06,0,0,1,.31.6.29.29,0,0,1-.09.22.29.29,0,0,1-.22.08.69.69,0,0,1-.45-.27,7.75,7.75,0,0,1-.82-1.07,7.41,7.41,0,0,1-.82,1.08.66.66,0,0,1-.43.26Zm7.88.73a2,2,0,0,1,1.63.67,2.75,2.75,0,0,1,.55,1.81v3c0,.27-.12.4-.37.4h-.1a.35.35,0,0,1-.39-.4V51.89a2,2,0,0,0-.39-1.31,1.34,1.34,0,0,0-1.1-.47,1.84,1.84,0,0,0-1.07.31,2,2,0,0,0-.7.84v3.55c0,.27-.12.4-.37.4h-.11c-.25,0-.38-.13-.38-.4V49.52s0,0,.1-.06l.21,0c.33,0,.51.24.53.71v.34a2.2,2.2,0,0,1,2-1.14Zm5.56,8.35q-2.67,0-2.67-1.56a1.26,1.26,0,0,1,.53-1,3,3,0,0,1,1.33-.58.66.66,0,0,1-.35-.57.71.71,0,0,1,.34-.61,2.07,2.07,0,0,1-1.05-.72,1.83,1.83,0,0,1-.39-1.16,2.07,2.07,0,0,1,.29-1.07,2.16,2.16,0,0,1,.84-.77,2.53,2.53,0,0,1,1.17-.28,2.31,2.31,0,0,1,1.35.4l.43-.65a.62.62,0,0,1,.51-.34.43.43,0,0,1,.25.07A.69.69,0,0,1,432,49c0,.06.06.11,0,.14l-.94,1a1.88,1.88,0,0,1,.51,1.29,1.94,1.94,0,0,1-.29,1,2.09,2.09,0,0,1-.84.74,2.57,2.57,0,0,1-1.19.27H429a.34.34,0,0,0-.14.31.37.37,0,0,0,.25.32,6.25,6.25,0,0,0,.86.25l.44.11q1.71.42,1.71,1.53a1.4,1.4,0,0,1-.75,1.25,4,4,0,0,1-2.11.46Zm0-.62a3.28,3.28,0,0,0,1.48-.27.82.82,0,0,0,.53-.76.66.66,0,0,0-.34-.58,3,3,0,0,0-.92-.35l-.7-.17a3.26,3.26,0,0,0-1.35.39.91.91,0,0,0-.55.79.75.75,0,0,0,.47.7,3.09,3.09,0,0,0,1.38.25Zm0-4.2a1.47,1.47,0,0,0,1.06-.39,1.36,1.36,0,0,0,.41-1,1.4,1.4,0,0,0-.4-1,1.46,1.46,0,0,0-1.08-.4,1.39,1.39,0,0,0-1.46,1.45,1.4,1.4,0,0,0,.41,1,1.49,1.49,0,0,0,1.06.39Zm8.12-3.44c.26,0,.38.13.38.4v5.3s0,0-.1.06a.76.76,0,0,1-.21,0c-.29,0-.46-.18-.5-.56a4.4,4.4,0,0,1,0-.46,2.48,2.48,0,0,1-.81.8,2.11,2.11,0,0,1-1.15.31,2,2,0,0,1-1.64-.68,2.75,2.75,0,0,1-.55-1.81v-3c0-.27.13-.4.38-.4h.1c.25,0,.38.13.38.4v2.93a2,2,0,0,0,.39,1.31,1.38,1.38,0,0,0,1.12.47,1.8,1.8,0,0,0,1-.31,1.9,1.9,0,0,0,.7-.85V49.83c0-.27.13-.4.37-.4Zm2.36,5.78a.35.35,0,0,1-.39-.4V47.12s0,0,.1-.06a.65.65,0,0,1,.21,0c.37,0,.55.26.55.77v7c0,.27-.12.4-.38.4Zm1.71-2.89a3.13,3.13,0,0,1,.37-1.54,2.64,2.64,0,0,1,1-1.05,2.9,2.9,0,0,1,1.51-.39,2.86,2.86,0,0,1,1.49.39,2.7,2.7,0,0,1,1,1.07,3.13,3.13,0,0,1,.37,1.54,3.09,3.09,0,0,1-.37,1.53,2.76,2.76,0,0,1-1,1.06,3,3,0,0,1-1.49.38,3,3,0,0,1-1.5-.38,2.65,2.65,0,0,1-1-1.07,3.24,3.24,0,0,1-.36-1.54Zm4.94,0a2.45,2.45,0,0,0-.26-1.16,1.92,1.92,0,0,0-.73-.81,1.89,1.89,0,0,0-1.05-.3,2,2,0,0,0-1.8,1.09,2.63,2.63,0,0,0,0,2.32,2.14,2.14,0,0,0,.74.81,2,2,0,0,0,1.06.29,2,2,0,0,0,1.05-.29,1.92,1.92,0,0,0,.73-.79,2.45,2.45,0,0,0,.26-1.16Zm3.71.7c-.25,0-.37-.11-.37-.31a2.55,2.55,0,0,1,.19-1,1.94,1.94,0,0,1,.43-.64,5.84,5.84,0,0,1,.62-.49c.26-.17.45-.31.57-.4a1.23,1.23,0,0,0,.31-.36,1.05,1.05,0,0,0,.13-.52,1.16,1.16,0,0,0-.41-.92,1.65,1.65,0,0,0-1.1-.34,1.69,1.69,0,0,0-1.28.46,2,2,0,0,0-.55,1.14.38.38,0,0,1-.18,0,.61.61,0,0,1-.3-.15.42.42,0,0,1-.14-.33,1.46,1.46,0,0,1,.15-.58,2,2,0,0,1,.44-.62,2.62,2.62,0,0,1,1.89-.68,2.86,2.86,0,0,1,1.24.25,1.89,1.89,0,0,1,.82.7,1.86,1.86,0,0,1,.29,1,1.73,1.73,0,0,1-.16.78,2,2,0,0,1-.4.54,4.37,4.37,0,0,1-.61.46,7.66,7.66,0,0,0-.65.47,1.76,1.76,0,0,0-.4.52,1.8,1.8,0,0,0-.18.78c0,.15-.13.22-.35.22Zm-.06,2.18a.5.5,0,0,1-.36-.11.52.52,0,0,1-.12-.38v-.15a.51.51,0,0,1,.12-.38.46.46,0,0,1,.36-.12h.17a.52.52,0,0,1,.38.12.56.56,0,0,1,.11.38v.15a.41.41,0,0,1-.49.49Z"/><line class="cls-4" x1="464.29" y1="62.9" x2="464.29" y2="23.05"/><line class="cls-4" x1="20.41" y1="63.1" x2="464.49" y2="63.1"/><line class="cls-4" x1="20.41" y1="63.1" x2="464.49" y2="63.1"/><line class="cls-4" x1="20.61" y1="110.8" x2="20.61" y2="63.3"/><rect class="cls-5" x="32.1" y="67.55" width="170.08" height="34.02"/><rect class="cls-4" x="32.1" y="67.55" width="170.08" height="34.02"/><line class="cls-4" x1="117.14" y1="101.56" x2="117.14" y2="67.55"/><line class="cls-4" x1="213.68" y1="110.8" x2="213.68" y2="63.3"/><text class="cls-6" transform="translate(272.82 88.04)">2</text><line class="cls-4" x1="338.98" y1="110.8" x2="338.98" y2="63.3"/><text class="cls-6" transform="translate(398.13 79.41)">1</text><line class="cls-7" x1="398.13" y1="85.53" x2="405.15" y2="85.53"/><text class="cls-6" transform="translate(398.13 98.95)">2</text><line class="cls-4" x1="464.29" y1="110.8" x2="464.29" y2="63.3"/><line class="cls-4" x1="20.41" y1="111" x2="464.49" y2="111"/><line class="cls-4" x1="20.41" y1="111" x2="464.49" y2="111"/><line class="cls-4" x1="20.61" y1="165.23" x2="20.61" y2="111.2"/><rect class="cls-8" x="32.1" y="118.72" width="170.08" height="34.02"/><rect class="cls-4" x="32.1" y="118.72" width="170.08" height="34.02"/><line class="cls-4" x1="88.8" y1="152.73" x2="88.8" y2="118.72"/><line class="cls-4" x1="145.49" y1="152.73" x2="145.49" y2="118.72"/><line class="cls-4" x1="213.68" y1="165.23" x2="213.68" y2="111.2"/><line class="cls-4" x1="338.98" y1="165.23" x2="338.98" y2="111.2"/><line class="cls-4" x1="464.29" y1="165.23" x2="464.29" y2="111.2"/><line class="cls-4" x1="20.41" y1="165.43" x2="464.49" y2="165.43"/><line class="cls-4" x1="20.41" y1="165.43" x2="464.49" y2="165.43"/><line class="cls-4" x1="20.61" y1="219.67" x2="20.61" y2="165.63"/><rect class="cls-9" x="32.1" y="173.15" width="170.08" height="34.02"/><rect class="cls-4" x="32.1" y="173.15" width="170.08" height="34.02"/><line class="cls-4" x1="74.62" y1="207.17" x2="74.62" y2="173.15"/><line class="cls-4" x1="117.14" y1="207.17" x2="117.14" y2="173.15"/><line class="cls-4" x1="159.67" y1="207.17" x2="159.67" y2="173.15"/><line class="cls-4" x1="213.68" y1="219.67" x2="213.68" y2="165.63"/><line class="cls-4" x1="338.98" y1="219.67" x2="338.98" y2="165.63"/><line class="cls-4" x1="464.29" y1="219.67" x2="464.29" y2="165.63"/><line class="cls-4" x1="20.41" y1="219.87" x2="464.49" y2="219.87"/><line class="cls-4" x1="20.41" y1="219.87" x2="464.49" y2="219.87"/><line class="cls-4" x1="20.61" y1="274.1" x2="20.61" y2="220.07"/><rect class="cls-10" x="32.1" y="227.58" width="170.08" height="34.02"/><rect class="cls-4" x="32.1" y="227.58" width="170.08" height="34.02"/><line class="cls-4" x1="66.12" y1="261.6" x2="66.12" y2="227.58"/><line class="cls-4" x1="100.14" y1="261.6" x2="100.14" y2="227.58"/><line class="cls-4" x1="134.15" y1="261.6" x2="134.15" y2="227.58"/><line class="cls-4" x1="168.17" y1="261.6" x2="168.17" y2="227.58"/><line class="cls-4" x1="213.68" y1="274.1" x2="213.68" y2="220.07"/><line class="cls-4" x1="338.98" y1="274.1" x2="338.98" y2="220.07"/><line class="cls-4" x1="464.29" y1="274.1" x2="464.29" y2="220.07"/><line class="cls-4" x1="20.41" y1="274.3" x2="464.49" y2="274.3"/><line class="cls-4" x1="20.41" y1="274.3" x2="464.49" y2="274.3"/><line class="cls-4" x1="20.61" y1="328.54" x2="20.61" y2="274.5"/><rect class="cls-11" x="32.1" y="282.02" width="170.08" height="34.02"/><rect class="cls-4" x="32.1" y="282.02" width="170.08" height="34.02"/><line class="cls-4" x1="60.45" y1="316.04" x2="60.45" y2="282.02"/><line class="cls-4" x1="88.8" y1="316.04" x2="88.8" y2="282.02"/><line class="cls-4" x1="117.14" y1="316.04" x2="117.14" y2="282.02"/><line class="cls-4" x1="145.49" y1="316.04" x2="145.49" y2="282.02"/><line class="cls-4" x1="173.84" y1="316.04" x2="173.84" y2="282.02"/><line class="cls-4" x1="213.68" y1="328.54" x2="213.68" y2="274.5"/><line class="cls-4" x1="338.98" y1="328.54" x2="338.98" y2="274.5"/><line class="cls-4" x1="464.29" y1="328.54" x2="464.29" y2="274.5"/><line class="cls-4" x1="20.41" y1="328.74" x2="464.49" y2="328.74"/><line class="cls-4" x1="20.41" y1="328.74" x2="464.49" y2="328.74"/><line class="cls-4" x1="20.61" y1="382.97" x2="20.61" y2="328.93"/><rect class="cls-12" x="32.1" y="336.45" width="170.08" height="34.02"/><rect class="cls-4" x="32.1" y="336.45" width="170.08" height="34.02"/><line class="cls-4" x1="56.4" y1="370.47" x2="56.4" y2="336.45"/><line class="cls-4" x1="80.7" y1="370.47" x2="80.7" y2="336.45"/><line class="cls-4" x1="105" y1="370.47" x2="105" y2="336.45"/><line class="cls-4" x1="129.29" y1="370.47" x2="129.29" y2="336.45"/><line class="cls-4" x1="153.59" y1="370.47" x2="153.59" y2="336.45"/><line class="cls-4" x1="177.89" y1="370.47" x2="177.89" y2="336.45"/><line class="cls-4" x1="213.68" y1="382.97" x2="213.68" y2="328.93"/><line class="cls-4" x1="338.98" y1="382.97" x2="338.98" y2="328.93"/><line class="cls-4" x1="464.29" y1="382.97" x2="464.29" y2="328.93"/><line class="cls-4" x1="20.41" y1="383.17" x2="464.49" y2="383.17"/><line class="cls-4" x1="20.41" y1="383.17" x2="464.49" y2="383.17"/><line class="cls-4" x1="20.61" y1="437.4" x2="20.61" y2="383.37"/><rect class="cls-13" x="32.1" y="390.89" width="170.08" height="34.02"/><rect class="cls-4" x="32.1" y="390.89" width="170.08" height="34.02"/><line class="cls-4" x1="53.36" y1="424.9" x2="53.36" y2="390.89"/><line class="cls-4" x1="74.62" y1="424.9" x2="74.62" y2="390.89"/><line class="cls-4" x1="95.88" y1="424.9" x2="95.88" y2="390.89"/><line class="cls-4" x1="117.14" y1="424.9" x2="117.14" y2="390.89"/><line class="cls-4" x1="138.4" y1="424.9" x2="138.4" y2="390.89"/><line class="cls-4" x1="159.67" y1="424.9" x2="159.67" y2="390.89"/><line class="cls-4" x1="180.93" y1="424.9" x2="180.93" y2="390.89"/><line class="cls-4" x1="213.68" y1="437.4" x2="213.68" y2="383.37"/><line class="cls-4" x1="338.98" y1="437.4" x2="338.98" y2="383.37"/><line class="cls-4" x1="464.29" y1="437.4" x2="464.29" y2="383.37"/><line class="cls-4" x1="20.41" y1="437.6" x2="464.49" y2="437.6"/><line class="cls-4" x1="20.41" y1="437.6" x2="464.49" y2="437.6"/><line class="cls-4" x1="20.61" y1="491.84" x2="20.61" y2="437.8"/><rect class="cls-14" x="32.1" y="445.32" width="170.08" height="34.02"/><rect class="cls-4" x="32.1" y="445.32" width="170.08" height="34.02"/><line class="cls-4" x1="51" y1="479.34" x2="51" y2="445.32"/><line class="cls-4" x1="69.9" y1="479.34" x2="69.9" y2="445.32"/><line class="cls-4" x1="88.8" y1="479.34" x2="88.8" y2="445.32"/><line class="cls-4" x1="107.7" y1="479.34" x2="107.7" y2="445.32"/><line class="cls-4" x1="126.59" y1="479.34" x2="126.59" y2="445.32"/><line class="cls-4" x1="145.49" y1="479.34" x2="145.49" y2="445.32"/><line class="cls-4" x1="164.39" y1="479.34" x2="164.39" y2="445.32"/><line class="cls-4" x1="183.29" y1="479.34" x2="183.29" y2="445.32"/><line class="cls-4" x1="213.68" y1="491.84" x2="213.68" y2="437.8"/><line class="cls-4" x1="338.98" y1="491.84" x2="338.98" y2="437.8"/><line class="cls-4" x1="464.29" y1="491.84" x2="464.29" y2="437.8"/><line class="cls-4" x1="20.41" y1="492.04" x2="464.49" y2="492.04"/><line class="cls-4" x1="20.41" y1="492.04" x2="464.49" y2="492.04"/><line class="cls-4" x1="20.61" y1="546.27" x2="20.61" y2="492.24"/><rect class="cls-15" x="32.1" y="499.76" width="170.08" height="34.02"/><rect class="cls-4" x="32.1" y="499.76" width="170.08" height="34.02"/><line class="cls-4" x1="49.11" y1="533.77" x2="49.11" y2="499.76"/><line class="cls-4" x1="66.12" y1="533.77" x2="66.12" y2="499.76"/><line class="cls-4" x1="83.13" y1="533.77" x2="83.13" y2="499.76"/><line class="cls-4" x1="100.14" y1="533.77" x2="100.14" y2="499.76"/><line class="cls-4" x1="117.14" y1="533.77" x2="117.14" y2="499.76"/><line class="cls-4" x1="134.15" y1="533.77" x2="134.15" y2="499.76"/><line class="cls-4" x1="151.16" y1="533.77" x2="151.16" y2="499.76"/><line class="cls-4" x1="168.17" y1="533.77" x2="168.17" y2="499.76"/><line class="cls-4" x1="185.18" y1="533.77" x2="185.18" y2="499.76"/><line class="cls-4" x1="213.68" y1="546.27" x2="213.68" y2="492.24"/><line class="cls-4" x1="338.98" y1="546.27" x2="338.98" y2="492.24"/><line class="cls-4" x1="464.29" y1="546.27" x2="464.29" y2="492.24"/><line class="cls-4" x1="20.41" y1="546.47" x2="464.49" y2="546.47"/><line class="cls-4" x1="20.41" y1="546.47" x2="464.49" y2="546.47"/><line class="cls-4" x1="20.61" y1="600.71" x2="20.61" y2="546.67"/><rect class="cls-16" x="32.1" y="554.19" width="170.08" height="34.02"/><rect class="cls-4" x="32.1" y="554.19" width="170.08" height="34.02"/><line class="cls-4" x1="42.73" y1="588.21" x2="42.73" y2="554.19"/><line class="cls-4" x1="53.36" y1="588.21" x2="53.36" y2="554.19"/><line class="cls-4" x1="63.99" y1="588.21" x2="63.99" y2="554.19"/><line class="cls-4" x1="74.62" y1="588.21" x2="74.62" y2="554.19"/><line class="cls-4" x1="85.25" y1="588.21" x2="85.25" y2="554.19"/><line class="cls-4" x1="95.88" y1="588.21" x2="95.88" y2="554.19"/><line class="cls-4" x1="106.51" y1="588.21" x2="106.51" y2="554.19"/><line class="cls-4" x1="117.14" y1="588.21" x2="117.14" y2="554.19"/><line class="cls-4" x1="127.77" y1="588.21" x2="127.77" y2="554.19"/><line class="cls-4" x1="138.4" y1="588.21" x2="138.4" y2="554.19"/><line class="cls-4" x1="149.03" y1="588.21" x2="149.03" y2="554.19"/><line class="cls-4" x1="159.67" y1="588.21" x2="159.67" y2="554.19"/><line class="cls-4" x1="170.3" y1="588.21" x2="170.3" y2="554.19"/><line class="cls-4" x1="180.93" y1="588.21" x2="180.93" y2="554.19"/><line class="cls-4" x1="191.55" y1="588.21" x2="191.55" y2="554.19"/><line class="cls-4" x1="213.68" y1="600.71" x2="213.68" y2="546.67"/><line class="cls-4" x1="338.98" y1="600.71" x2="338.98" y2="546.67"/><line class="cls-4" x1="464.29" y1="600.71" x2="464.29" y2="546.67"/><line class="cls-4" x1="20.41" y1="600.91" x2="464.49" y2="600.91"/><line class="cls-4" x1="20.41" y1="600.91" x2="464.49" y2="600.91"/></svg>