<svg id="Camada_1" data-name="Camada 1" xmlns="http://www.w3.org/2000/svg" viewBox="0 0 265.02 147.02"><defs><style>.cls-1,.cls-2{font-size:74.6px;}.cls-1{font-family:CMMI12;}.cls-2{font-family:CMR12;}.cls-3{fill:#95d4e9;opacity:0.5;}.cls-4,.cls-5{font-size:10.91px;}.cls-4{font-family:CMR10;}.cls-5{font-family:CMMI10;}.cls-6{letter-spacing:0.54em;}.cls-7{letter-spacing:0.54em;}</style></defs><text class="cls-1" transform="translate(33.18 81.45)">&lt;</text><text class="cls-2" transform="translate(106.89 76.26)">=</text><text class="cls-1" transform="translate(180.59 81.45)">&gt;</text><path class="cls-3" d="M68.59,70.05a1.82,1.82,0,1,0-1.82,1.82A1.82,1.82,0,0,0,68.59,70.05Z"/><circle class="cls-3" cx="66.77" cy="66.43" r="1.81"/><path class="cls-3" d="M68.59,62.8a1.82,1.82,0,1,0-1.82,1.81A1.82,1.82,0,0,0,68.59,62.8Z"/><circle class="cls-3" cx="66.77" cy="59.17" r="1.81"/><path class="cls-3" d="M68.59,55.55a1.82,1.82,0,1,0-1.82,1.81A1.83,1.83,0,0,0,68.59,55.55Z"/><path class="cls-3" d="M83.33,77.31a1.82,1.82,0,1,0-1.82,1.81A1.82,1.82,0,0,0,83.33,77.31Z"/><circle class="cls-3" cx="81.51" cy="73.68" r="1.81"/><path class="cls-3" d="M83.33,70.05a1.82,1.82,0,1,0-1.82,1.82A1.82,1.82,0,0,0,83.33,70.05Z"/><circle class="cls-3" cx="81.51" cy="66.43" r="1.81"/><path class="cls-3" d="M83.33,62.8a1.82,1.82,0,1,0-1.82,1.81A1.82,1.82,0,0,0,83.33,62.8Z"/><circle class="cls-3" cx="81.51" cy="59.17" r="1.81"/><path class="cls-3" d="M83.33,55.55a1.82,1.82,0,1,0-1.82,1.81A1.83,1.83,0,0,0,83.33,55.55Z"/><circle class="cls-3" cx="81.51" cy="51.92" r="1.81"/><circle class="cls-3" cx="81.51" cy="48.29" r="1.81"/><path class="cls-3" d="M122.11,61.63a1.56,1.56,0,1,0-1.56,1.56A1.56,1.56,0,0,0,122.11,61.63Z"/><path class="cls-3" d="M151.59,61.63A1.56,1.56,0,1,0,150,63.19,1.56,1.56,0,0,0,151.59,61.63Z"/><circle class="cls-3" cx="120.55" cy="58.53" r="1.55"/><path class="cls-3" d="M151.59,58.53A1.56,1.56,0,1,0,150,60.08,1.56,1.56,0,0,0,151.59,58.53Z"/><circle class="cls-3" cx="120.55" cy="55.42" r="1.55"/><path class="cls-3" d="M151.59,55.42A1.56,1.56,0,1,0,150,57,1.56,1.56,0,0,0,151.59,55.42Z"/><path class="cls-3" d="M202,55.55a1.81,1.81,0,1,0,1.81-1.82A1.81,1.81,0,0,0,202,55.55Z"/><path class="cls-3" d="M202,59.17a1.81,1.81,0,1,0,1.81-1.81A1.82,1.82,0,0,0,202,59.17Z"/><path class="cls-3" d="M202,62.8A1.81,1.81,0,1,0,203.8,61,1.81,1.81,0,0,0,202,62.8Z"/><path class="cls-3" d="M202,66.43a1.81,1.81,0,1,0,1.81-1.82A1.81,1.81,0,0,0,202,66.43Z"/><path class="cls-3" d="M202,70.05a1.81,1.81,0,1,0,1.81-1.81A1.82,1.82,0,0,0,202,70.05Z"/><path class="cls-3" d="M187.25,48.29a1.81,1.81,0,1,0,1.81-1.81A1.81,1.81,0,0,0,187.25,48.29Z"/><path class="cls-3" d="M187.25,51.92a1.81,1.81,0,1,0,1.81-1.81A1.81,1.81,0,0,0,187.25,51.92Z"/><path class="cls-3" d="M187.25,55.55a1.81,1.81,0,1,0,1.81-1.82A1.81,1.81,0,0,0,187.25,55.55Z"/><path class="cls-3" d="M187.25,59.17a1.81,1.81,0,1,0,1.81-1.81A1.82,1.82,0,0,0,187.25,59.17Z"/><path class="cls-3" d="M187.25,62.8A1.81,1.81,0,1,0,189.06,61,1.81,1.81,0,0,0,187.25,62.8Z"/><path class="cls-3" d="M187.25,66.43a1.81,1.81,0,1,0,1.81-1.82A1.81,1.81,0,0,0,187.25,66.43Z"/><path class="cls-3" d="M187.25,70.05a1.81,1.81,0,1,0,1.81-1.81A1.82,1.82,0,0,0,187.25,70.05Z"/><path class="cls-3" d="M187.25,73.68a1.81,1.81,0,1,0,1.81-1.81A1.81,1.81,0,0,0,187.25,73.68Z"/><path class="cls-3" d="M187.25,77.31a1.81,1.81,0,1,0,1.81-1.82A1.81,1.81,0,0,0,187.25,77.31Z"/><path d="M22.75,108.4a.3.3,0,0,1-.24-.11.44.44,0,0,1-.09-.29v0a1,1,0,0,1,.18-.53l.84-1.49a.19.19,0,0,1,.17-.08.35.35,0,0,1,.2.07.18.18,0,0,1,0,.19L23.26,108a1.06,1.06,0,0,1-.15.32.35.35,0,0,1-.27.09Zm1.68,0a.31.31,0,0,1-.25-.11.44.44,0,0,1-.09-.29v0a1,1,0,0,1,.19-.53l.83-1.49a.19.19,0,0,1,.18-.08.25.25,0,0,1,.18.08.15.15,0,0,1,0,.18L24.94,108a1,1,0,0,1-.16.32.37.37,0,0,1-.27.09Zm1.44,2.07a3,3,0,0,1,.34-1.42,2.43,2.43,0,0,1,2.24-1.33,2.36,2.36,0,0,1,1.26.32,2.07,2.07,0,0,1,.83.9,2.85,2.85,0,0,1,.3,1.34v.08a.24.24,0,0,1-.06.19.29.29,0,0,1-.21.06H26.63a.66.66,0,0,0,0,.15,2,2,0,0,0,.59,1.27,2.1,2.1,0,0,0,2.37.21,1.82,1.82,0,0,0,.63-.69.28.28,0,0,1,.14,0,.49.49,0,0,1,.21.14.35.35,0,0,1,.09.25.62.62,0,0,1-.1.31,1.34,1.34,0,0,1-.31.33,2.05,2.05,0,0,1-.72.4,2.93,2.93,0,0,1-1,.16,2.73,2.73,0,0,1-1.39-.34,2.3,2.3,0,0,1-.93-.95,2.93,2.93,0,0,1-.34-1.4Zm4.19-.43a1.79,1.79,0,0,0-.47-1.23,1.48,1.48,0,0,0-1.14-.46,1.69,1.69,0,0,0-1.2.47,2,2,0,0,0-.6,1.22Zm-2.36-3c-.07,0-.1,0-.1,0a2.08,2.08,0,0,1,.31-.54,7,7,0,0,1,.69-.84,1,1,0,0,1,.66-.38.33.33,0,0,1,.24.1.35.35,0,0,1,.09.25.86.86,0,0,1-.4.61,5.32,5.32,0,0,1-.92.58,2.33,2.33,0,0,1-.57.26Zm12,.67a1.8,1.8,0,0,1,1.44.57,2.39,2.39,0,0,1,.49,1.62v2.79c0,.25-.12.37-.35.37h-.08c-.24,0-.35-.12-.35-.37V110a1.72,1.72,0,0,0-.34-1.15,1.18,1.18,0,0,0-1-.41,1.5,1.5,0,0,0-.87.28,1.57,1.57,0,0,0-.58.76v3.25c0,.25-.12.37-.35.37h-.09c-.23,0-.35-.12-.35-.37v-2.79A1.67,1.67,0,0,0,37,108.8a1.22,1.22,0,0,0-1-.39,1.49,1.49,0,0,0-.85.28,1.77,1.77,0,0,0-.61.76v3.25c0,.25-.11.37-.34.37h-.1c-.23,0-.35-.12-.35-.37v-4.82s0,0,.1,0a.41.41,0,0,1,.19,0c.3,0,.46.22.48.65v.26a2,2,0,0,1,.69-.72,2,2,0,0,1,2,0,1.71,1.71,0,0,1,.64.85,2.1,2.1,0,0,1,.72-.84,1.91,1.91,0,0,1,1.09-.31Zm3,2.75a3,3,0,0,1,.33-1.42,2.48,2.48,0,0,1,.92-1,2.44,2.44,0,0,1,1.32-.35,2.36,2.36,0,0,1,1.26.32,2.15,2.15,0,0,1,.84.9,3,3,0,0,1,.29,1.34v.08a.24.24,0,0,1-.06.19.29.29,0,0,1-.21.06H43.45a.66.66,0,0,0,0,.15,1.91,1.91,0,0,0,.6,1.27,2.09,2.09,0,0,0,2.36.21,1.75,1.75,0,0,0,.63-.69.32.32,0,0,1,.15,0,.52.52,0,0,1,.2.14.32.32,0,0,1,.1.25.65.65,0,0,1-.11.31,1.34,1.34,0,0,1-.31.33,2.05,2.05,0,0,1-.72.4,2.89,2.89,0,0,1-1,.16,2.73,2.73,0,0,1-1.39-.34,2.3,2.3,0,0,1-.93-.95,2.92,2.92,0,0,1-.33-1.4Zm4.19-.43a1.89,1.89,0,0,0-.47-1.23,1.51,1.51,0,0,0-1.15-.46,1.69,1.69,0,0,0-1.2.47,2,2,0,0,0-.6,1.22Zm4.38-2.32a1.81,1.81,0,0,1,1.49.61,2.46,2.46,0,0,1,.51,1.64v2.73c0,.25-.12.37-.34.37h-.1c-.23,0-.35-.12-.35-.37V110a1.83,1.83,0,0,0-.35-1.19,1.23,1.23,0,0,0-1-.44,1.71,1.71,0,0,0-1,.29,1.83,1.83,0,0,0-.64.76v3.24c0,.25-.11.37-.33.37h-.1c-.24,0-.35-.12-.35-.37v-4.82s0,0,.09,0a.43.43,0,0,1,.19,0q.47,0,.48.66v.3a2.13,2.13,0,0,1,.73-.76,2.06,2.06,0,0,1,1.06-.27Zm3,2.71a2.93,2.93,0,0,1,.34-1.4,2.48,2.48,0,0,1,.94-1,2.61,2.61,0,0,1,1.37-.35,2.55,2.55,0,0,1,1.36.35,2.44,2.44,0,0,1,.94,1,3,3,0,0,1,.33,1.41,3,3,0,0,1-.33,1.4,2.48,2.48,0,0,1-.94,1,2.86,2.86,0,0,1-2.74,0,2.41,2.41,0,0,1-.93-1,2.83,2.83,0,0,1-.34-1.41Zm4.52,0a2.33,2.33,0,0,0-.24-1.06,1.78,1.78,0,0,0-.67-.74,1.74,1.74,0,0,0-1-.27,1.87,1.87,0,0,0-1,.26,1.91,1.91,0,0,0-.68.73,2.33,2.33,0,0,0-.24,1.06,2.27,2.27,0,0,0,.24,1.06,1.94,1.94,0,0,0,.68.74,1.78,1.78,0,0,0,1,.26,1.8,1.8,0,0,0,1.63-1,2.27,2.27,0,0,0,.24-1.06Zm4-2.73a1,1,0,0,1,.56.15.51.51,0,0,1,.21.41.55.55,0,0,1,0,.24.49.49,0,0,1-.12.15s-.07,0-.08,0a.81.81,0,0,0-.62-.22,1,1,0,0,0-.93.57,3.28,3.28,0,0,0-.31,1.58v2.06c0,.25-.11.37-.34.37H61a.32.32,0,0,1-.36-.37v-4.82s0,0,.09,0a.42.42,0,0,1,.2,0c.27,0,.42.18.46.53s0,.43,0,.56a1.69,1.69,0,0,1,.5-.87,1.24,1.24,0,0,1,.85-.29Zm5.61,5.44a2.29,2.29,0,0,1-1.24-.34,2.41,2.41,0,0,1-.85-1,3.1,3.1,0,0,1-.31-1.43,3,3,0,0,1,.31-1.41,2.36,2.36,0,0,1,.86-1,2.3,2.3,0,0,1,1.25-.34,2.19,2.19,0,0,1,1.14.28,1.9,1.9,0,0,1,.74.72v-3s0,0,.08-.06a.54.54,0,0,1,.19,0c.34,0,.51.23.51.7v6.4c0,.25-.12.37-.35.37h-.07c-.23,0-.34-.11-.34-.35s0-.37,0-.67a2.34,2.34,0,0,1-.77.82,2.19,2.19,0,0,1-1.14.29Zm1.9-3.53a2,2,0,0,0-.66-.92,1.79,1.79,0,0,0-1.09-.33,1.62,1.62,0,0,0-1.28.57,2.22,2.22,0,0,0-.49,1.48A2.44,2.44,0,0,0,67,111.5a1.71,1.71,0,0,0,.62.73,1.59,1.59,0,0,0,.91.26,1.77,1.77,0,0,0,.88-.22,1.7,1.7,0,0,0,.64-.61,1.63,1.63,0,0,0,.24-.87Zm1.85.8a2.82,2.82,0,0,1,.34-1.4,2.41,2.41,0,0,1,.94-1,2.84,2.84,0,0,1,2.73,0,2.35,2.35,0,0,1,.93,1,2.88,2.88,0,0,1,.34,1.41,2.84,2.84,0,0,1-.34,1.4,2.41,2.41,0,0,1-.94,1,2.67,2.67,0,0,1-1.36.35,2.71,2.71,0,0,1-1.37-.35,2.44,2.44,0,0,1-.94-1,2.94,2.94,0,0,1-.33-1.41Zm4.52,0a2.33,2.33,0,0,0-.24-1.06,1.85,1.85,0,0,0-.67-.74,1.74,1.74,0,0,0-1-.27,1.82,1.82,0,0,0-1,.26,1.84,1.84,0,0,0-.68.73,2.33,2.33,0,0,0-.25,1.06,2.27,2.27,0,0,0,.25,1.06,1.87,1.87,0,0,0,.68.74,1.9,1.9,0,0,0,1.92,0,1.79,1.79,0,0,0,.67-.72,2.27,2.27,0,0,0,.24-1.06Zm8.22-2.66a.41.41,0,0,1,.19,0c.06,0,.1,0,.1,0v6.89c0,.25-.12.38-.36.38h-.08c-.23,0-.35-.13-.35-.38v-2.7a2.24,2.24,0,0,1-.76.8,2.19,2.19,0,0,1-1.14.29,2.23,2.23,0,0,1-1.23-.34,2.36,2.36,0,0,1-.86-1,3.24,3.24,0,0,1-.31-1.43,3.18,3.18,0,0,1,.31-1.41,2.38,2.38,0,0,1,.87-1,2.32,2.32,0,0,1,1.25-.34,2.22,2.22,0,0,1,1.16.29,1.84,1.84,0,0,1,.72.75v-.32c0-.43.19-.65.49-.65Zm-.5,1.85a2.08,2.08,0,0,0-.66-.93,1.77,1.77,0,0,0-1.09-.33,1.6,1.6,0,0,0-1.27.57,2.17,2.17,0,0,0-.49,1.48,2.44,2.44,0,0,0,.22,1.07,1.73,1.73,0,0,0,.63.73,1.58,1.58,0,0,0,.9.26,1.81,1.81,0,0,0,.89-.22,1.66,1.66,0,0,0,.64-.62,1.71,1.71,0,0,0,.23-.87Zm6.34-1.85a.32.32,0,0,1,.35.37V113s0,0-.1,0a.58.58,0,0,1-.19,0c-.27,0-.42-.17-.46-.51,0-.19,0-.33,0-.42a2.21,2.21,0,0,1-.73.73,2,2,0,0,1-1.06.28,1.83,1.83,0,0,1-1.49-.62,2.56,2.56,0,0,1-.5-1.65v-2.73c0-.24.11-.37.35-.37h.08c.24,0,.35.13.35.37v2.68a1.8,1.8,0,0,0,.36,1.19,1.25,1.25,0,0,0,1,.43,1.67,1.67,0,0,0,1-.28,1.76,1.76,0,0,0,.64-.78v-3.24c0-.24.11-.37.34-.37ZM92,110.47a3,3,0,0,1,.33-1.42,2.46,2.46,0,0,1,2.24-1.33,2.36,2.36,0,0,1,1.26.32,2.15,2.15,0,0,1,.84.9,3,3,0,0,1,.29,1.34v.08a.24.24,0,0,1-.06.19.29.29,0,0,1-.21.06H92.78a.66.66,0,0,0,0,.15,1.91,1.91,0,0,0,.6,1.27,2.09,2.09,0,0,0,2.36.21,1.75,1.75,0,0,0,.63-.69.32.32,0,0,1,.15,0,.52.52,0,0,1,.2.14.32.32,0,0,1,.1.25.65.65,0,0,1-.11.31,1.34,1.34,0,0,1-.31.33,2.05,2.05,0,0,1-.72.4,2.89,2.89,0,0,1-1,.16,2.73,2.73,0,0,1-1.39-.34,2.3,2.3,0,0,1-.93-.95,2.92,2.92,0,0,1-.33-1.4Zm4.19-.43a1.89,1.89,0,0,0-.47-1.23,1.51,1.51,0,0,0-1.15-.46,1.69,1.69,0,0,0-1.2.47,2,2,0,0,0-.6,1.22Zm1.85-1.71a.18.18,0,0,1-.15.06.31.31,0,0,1-.2-.07.17.17,0,0,1,0-.19l.6-1.85a1,1,0,0,1,.14-.33.34.34,0,0,1,.27-.09h.09A.3.3,0,0,1,99,106a.41.41,0,0,1,.09.3v0a1,1,0,0,1-.19.52l-.84,1.5Zm1.69,0a.2.2,0,0,1-.16.06.31.31,0,0,1-.2-.07.17.17,0,0,1-.05-.19l.6-1.85a1,1,0,0,1,.15-.33.33.33,0,0,1,.26-.09h.09a.3.3,0,0,1,.23.11.4.4,0,0,1,.1.3v0a1,1,0,0,1-.18.52l-.84,1.5Z"/><text class="cls-4" transform="translate(46.41 130.47)">5</text><text class="cls-5" transform="translate(57.48 130.47)">&lt;</text><text class="cls-4" transform="translate(71.59 130.47)">9</text><path d="M113.84,103.09a.3.3,0,0,1-.24-.11.39.39,0,0,1-.1-.29v0a1,1,0,0,1,.18-.52l.84-1.5a.18.18,0,0,1,.17-.07.29.29,0,0,1,.2.07.16.16,0,0,1,0,.19l-.59,1.86a.93.93,0,0,1-.15.33.34.34,0,0,1-.27.09Zm1.68,0a.31.31,0,0,1-.25-.11.39.39,0,0,1-.1-.29v0a.93.93,0,0,1,.19-.52l.83-1.5c0-.05.09-.07.18-.07a.24.24,0,0,1,.18.07.19.19,0,0,1,0,.19l-.58,1.86a1.12,1.12,0,0,1-.16.33.34.34,0,0,1-.27.09Zm1.44,2.06a3,3,0,0,1,.33-1.41,2.42,2.42,0,0,1,.92-1,2.62,2.62,0,0,1,2.58,0,2.28,2.28,0,0,1,.84.9,3,3,0,0,1,.29,1.35V105a.27.27,0,0,1-.06.2.36.36,0,0,1-.21.05h-3.94a.71.71,0,0,0,0,.16,1.92,1.92,0,0,0,.59,1.26,1.86,1.86,0,0,0,1.31.48,1.93,1.93,0,0,0,1.06-.26,1.85,1.85,0,0,0,.63-.7s.07,0,.15,0a.49.49,0,0,1,.2.13.38.38,0,0,1,.1.26.65.65,0,0,1-.11.3,1.21,1.21,0,0,1-.31.34,2.22,2.22,0,0,1-.72.4,3.19,3.19,0,0,1-1,.16,2.83,2.83,0,0,1-1.39-.34,2.39,2.39,0,0,1-.93-1,2.92,2.92,0,0,1-.33-1.4Zm4.19-.42a1.89,1.89,0,0,0-.47-1.23,1.51,1.51,0,0,0-1.15-.47,1.69,1.69,0,0,0-1.2.47,2,2,0,0,0-.6,1.23Zm-2.37-3c-.07,0-.1,0-.1,0a1.94,1.94,0,0,1,.31-.53,5.72,5.72,0,0,1,.69-.84,1,1,0,0,1,.66-.38.36.36,0,0,1,.24.09.38.38,0,0,1,.1.26.9.9,0,0,1-.41.61,6.41,6.41,0,0,1-.91.58,3.13,3.13,0,0,1-.58.26Zm6.7-.85a.45.45,0,0,1,.5-.51.54.54,0,0,1,.37.13.52.52,0,0,1,.13.38.46.46,0,0,1-.14.36.54.54,0,0,1-.37.13.49.49,0,0,1-.36-.13.45.45,0,0,1-.13-.36Zm.09,2c0-.25.12-.38.35-.38H126c.23,0,.35.13.35.38v4.53a.32.32,0,0,1-.35.37h-.09a.32.32,0,0,1-.35-.37Zm4,7.16c-1.62,0-2.43-.48-2.43-1.42a1.19,1.19,0,0,1,.48-.95,2.77,2.77,0,0,1,1.22-.52.62.62,0,0,1-.32-.53.64.64,0,0,1,.31-.55,1.92,1.92,0,0,1-1-.65,1.71,1.71,0,0,1-.36-1.07,1.74,1.74,0,0,1,.28-1,1.88,1.88,0,0,1,.75-.7,2.33,2.33,0,0,1,1.08-.26,2.17,2.17,0,0,1,1.23.36l.39-.59a.55.55,0,0,1,.46-.31.35.35,0,0,1,.23.07.58.58,0,0,1,.16.15.17.17,0,0,1,0,.13l-.86.91a1.73,1.73,0,0,1,.19,2.13,1.84,1.84,0,0,1-.76.67,2.39,2.39,0,0,1-1.08.25l-.28,0a.33.33,0,0,0-.14.29.34.34,0,0,0,.23.29,4.8,4.8,0,0,0,.79.23l.4.1c1,.25,1.56.72,1.56,1.4a1.28,1.28,0,0,1-.68,1.14,3.75,3.75,0,0,1-1.94.42Zm0-.57a3.08,3.08,0,0,0,1.35-.24.75.75,0,0,0,.48-.7.58.58,0,0,0-.31-.52,2.82,2.82,0,0,0-.84-.33l-.64-.15a2.92,2.92,0,0,0-1.23.35.83.83,0,0,0-.5.73.7.7,0,0,0,.43.64,2.9,2.9,0,0,0,1.26.22Zm0-3.83a1.33,1.33,0,0,0,1-.36,1.39,1.39,0,0,0,0-1.9,1.33,1.33,0,0,0-1-.37,1.34,1.34,0,0,0-1,2.27,1.35,1.35,0,0,0,1,.36Zm7.41-3.14c.23,0,.34.12.34.37v4.83s0,0-.09.06a.58.58,0,0,1-.19,0c-.27,0-.42-.17-.46-.51s0-.33,0-.43a2.18,2.18,0,0,1-.74.74,2,2,0,0,1-1.05.28,1.83,1.83,0,0,1-1.49-.62,2.5,2.5,0,0,1-.5-1.65v-2.73c0-.25.11-.37.34-.37h.09c.23,0,.35.12.35.37v2.67a1.83,1.83,0,0,0,.36,1.2,1.28,1.28,0,0,0,1,.43,1.67,1.67,0,0,0,1-.29,1.8,1.8,0,0,0,.64-.77v-3.24c0-.25.11-.37.34-.37Zm1.22,3.9a1.34,1.34,0,0,1,.85-1.28,7,7,0,0,1,2.71-.43h.12v-.22a1.38,1.38,0,0,0-.36-1,1.45,1.45,0,0,0-1-.35,1.8,1.8,0,0,0-1,.25,1.61,1.61,0,0,0-.61.68l-.14,0a.51.51,0,0,1-.23-.12.34.34,0,0,1-.11-.27.6.6,0,0,1,.09-.28,1.2,1.2,0,0,1,.23-.3,2.14,2.14,0,0,1,.74-.44,2.91,2.91,0,0,1,1.06-.18,2.14,2.14,0,0,1,1.58.55,2,2,0,0,1,.56,1.51v3.22s0,0-.09.06l-.19,0c-.27,0-.43-.17-.46-.5a4.75,4.75,0,0,1,0-.48,2,2,0,0,1-.78.76,2.34,2.34,0,0,1-1.16.28,2,2,0,0,1-1.29-.39,1.31,1.31,0,0,1-.47-1.06Zm3.68-1.2h-.18a6.35,6.35,0,0,0-2.08.31.91.91,0,0,0-.64.86.77.77,0,0,0,.31.65,1.3,1.3,0,0,0,.83.24A1.91,1.91,0,0,0,141,107a1.75,1.75,0,0,0,.64-.56,1.38,1.38,0,0,0,.23-.79Zm2.54,2.58c-.24,0-.35-.13-.35-.37v-7s0,0,.08-.05a.64.64,0,0,1,.2,0c.33,0,.5.23.5.69v6.41c0,.24-.11.37-.35.37Zm4.11-1.38a1.34,1.34,0,0,1,.85-1.28,7.09,7.09,0,0,1,2.72-.43h.12v-.22a1.38,1.38,0,0,0-.37-1,1.45,1.45,0,0,0-1-.35,1.82,1.82,0,0,0-1,.25,1.58,1.58,0,0,0-.6.68l-.15,0a.51.51,0,0,1-.23-.12.33.33,0,0,1-.1-.27.57.57,0,0,1,.08-.28,1.2,1.2,0,0,1,.23-.3,2.14,2.14,0,0,1,.74-.44,2.91,2.91,0,0,1,1.06-.18,2.12,2.12,0,0,1,1.58.55,2,2,0,0,1,.56,1.51v3.22s0,0-.09.06a.63.63,0,0,1-.19,0c-.27,0-.43-.17-.46-.5a4.75,4.75,0,0,1,0-.48,2,2,0,0,1-.78.76,2.33,2.33,0,0,1-1.15.28,2,2,0,0,1-1.3-.39,1.31,1.31,0,0,1-.47-1.06Zm3.69-1.2H152a6.35,6.35,0,0,0-2.08.31.91.91,0,0,0-.64.86.8.8,0,0,0,.31.65,1.3,1.3,0,0,0,.83.24,1.89,1.89,0,0,0,.89-.21,1.75,1.75,0,0,0,.64-.56,1.39,1.39,0,0,0,.24-.79Zm2.14-2.17s-.08.07-.15.07A.32.32,0,0,1,154,103a.17.17,0,0,1-.06-.19l.6-1.86a.88.88,0,0,1,.14-.32.35.35,0,0,1,.28-.09h.08a.3.3,0,0,1,.24.1.45.45,0,0,1,.09.3v0a.91.91,0,0,1-.19.53l-.84,1.49Zm1.7,0a.21.21,0,0,1-.17.07.32.32,0,0,1-.19-.07.17.17,0,0,1-.06-.19l.6-1.86a1,1,0,0,1,.15-.33.38.38,0,0,1,.27-.08h.08a.28.28,0,0,1,.24.11.44.44,0,0,1,.09.29v0a1.12,1.12,0,0,1-.17.53l-.84,1.49Z"/><text class="cls-4" transform="translate(119.69 125.16)"><tspan class="cls-6">3</tspan><tspan class="cls-7" x="11.48" y="0">=</tspan><tspan x="23.89" y="0">3</tspan></text><path d="M168.36,108.4a.3.3,0,0,1-.24-.11.39.39,0,0,1-.1-.29v0a1,1,0,0,1,.19-.53l.84-1.49a.17.17,0,0,1,.16-.08.32.32,0,0,1,.2.07.15.15,0,0,1,0,.19l-.59,1.87a.73.73,0,0,1-.15.32.33.33,0,0,1-.26.09Zm1.68,0a.3.3,0,0,1-.25-.11.39.39,0,0,1-.1-.29v0a1,1,0,0,1,.2-.53l.83-1.49a.18.18,0,0,1,.17-.08.27.27,0,0,1,.19.08.17.17,0,0,1,0,.18l-.58,1.87a.85.85,0,0,1-.16.32.33.33,0,0,1-.26.09Zm1.44,2.07a3,3,0,0,1,.33-1.42,2.46,2.46,0,0,1,2.24-1.33,2.36,2.36,0,0,1,1.26.32,2.15,2.15,0,0,1,.84.9,2.85,2.85,0,0,1,.29,1.34v.08a.24.24,0,0,1-.06.19.29.29,0,0,1-.21.06h-3.94c0,.06,0,.11,0,.15a1.91,1.91,0,0,0,.6,1.27,1.83,1.83,0,0,0,1.3.48,1.88,1.88,0,0,0,1.07-.27,1.8,1.8,0,0,0,.62-.69.32.32,0,0,1,.15,0,.49.49,0,0,1,.21.14.35.35,0,0,1,.09.25.62.62,0,0,1-.1.31,1.56,1.56,0,0,1-.31.33,2.25,2.25,0,0,1-.72.4,3,3,0,0,1-1,.16,2.72,2.72,0,0,1-1.38-.34,2.32,2.32,0,0,1-.94-.95,2.92,2.92,0,0,1-.33-1.4Zm4.19-.43a1.84,1.84,0,0,0-.47-1.23,1.49,1.49,0,0,0-1.15-.46,1.69,1.69,0,0,0-1.2.47,2.11,2.11,0,0,0-.6,1.22Zm-2.37-3c-.06,0-.1,0-.1,0a2.5,2.5,0,0,1,.31-.54,7,7,0,0,1,.69-.84,1,1,0,0,1,.66-.38.3.3,0,0,1,.24.1.32.32,0,0,1,.1.25c0,.19-.14.39-.41.61a5.23,5.23,0,0,1-.91.58,2.31,2.31,0,0,1-.58.26Zm12.07.67a1.8,1.8,0,0,1,1.44.57,2.45,2.45,0,0,1,.49,1.62v2.79c0,.25-.12.37-.35.37h-.09c-.23,0-.35-.12-.35-.37V110a1.77,1.77,0,0,0-.33-1.15,1.2,1.2,0,0,0-1-.41,1.5,1.5,0,0,0-.86.28,1.66,1.66,0,0,0-.59.76v3.25c0,.25-.11.37-.35.37h-.08c-.24,0-.35-.12-.35-.37v-2.79a1.62,1.62,0,0,0-.34-1.11,1.19,1.19,0,0,0-1-.39,1.52,1.52,0,0,0-.86.28,1.75,1.75,0,0,0-.6.76v3.25c0,.25-.12.37-.34.37h-.1c-.23,0-.35-.12-.35-.37v-4.82s0,0,.09,0a.46.46,0,0,1,.19,0c.31,0,.47.22.48.65l0,.26a2,2,0,0,1,.69-.72,1.83,1.83,0,0,1,1-.26,1.91,1.91,0,0,1,1.09.3,1.77,1.77,0,0,1,.64.85,2,2,0,0,1,.72-.84,1.89,1.89,0,0,1,1.09-.31Zm2.95,4a1.35,1.35,0,0,1,.86-1.28,6.63,6.63,0,0,1,2.71-.43H192v-.22a1.35,1.35,0,0,0-.36-1,1.45,1.45,0,0,0-1.05-.36,1.85,1.85,0,0,0-1,.25,1.67,1.67,0,0,0-.61.68s-.06,0-.15,0a.4.4,0,0,1-.23-.12.36.36,0,0,1-.1-.26.67.67,0,0,1,.08-.28,1.13,1.13,0,0,1,.24-.3,2.21,2.21,0,0,1,.74-.45,2.88,2.88,0,0,1,1.06-.17,2.18,2.18,0,0,1,1.58.54,2,2,0,0,1,.56,1.52V113s0,0-.1,0a.58.58,0,0,1-.19,0c-.27,0-.42-.16-.46-.5s0-.36,0-.48a1.9,1.9,0,0,1-.77.77,2.46,2.46,0,0,1-1.16.28,2,2,0,0,1-1.29-.39,1.32,1.32,0,0,1-.48-1.06Zm3.69-1.2h-.18a6.09,6.09,0,0,0-2.08.3.91.91,0,0,0-.64.87.77.77,0,0,0,.3.64,1.32,1.32,0,0,0,.83.24,1.93,1.93,0,0,0,.9-.21,1.66,1.66,0,0,0,.64-.56A1.46,1.46,0,0,0,192,111Zm2.08-4.3a.5.5,0,0,1,.14-.37.48.48,0,0,1,.37-.13.49.49,0,0,1,.37.13.54.54,0,0,1,.13.37.5.5,0,0,1-.14.37.53.53,0,0,1-.37.12.49.49,0,0,1-.36-.12.5.5,0,0,1-.14-.37Zm.1,2c0-.25.12-.38.35-.38h.09c.23,0,.35.13.35.38v4.53c0,.25-.12.37-.35.37h-.09c-.23,0-.35-.12-.35-.37Zm1.91,2.26a2.82,2.82,0,0,1,.34-1.4,2.48,2.48,0,0,1,.94-1,2.61,2.61,0,0,1,1.37-.35,2.58,2.58,0,0,1,1.36.35,2.35,2.35,0,0,1,.93,1,2.88,2.88,0,0,1,.34,1.41,2.84,2.84,0,0,1-.34,1.4,2.39,2.39,0,0,1-.93,1,2.86,2.86,0,0,1-2.74,0,2.51,2.51,0,0,1-.94-1,2.94,2.94,0,0,1-.33-1.41Zm4.52,0a2.33,2.33,0,0,0-.24-1.06,1.78,1.78,0,0,0-.67-.74,1.74,1.74,0,0,0-1-.27,1.81,1.81,0,0,0-1.64,1,2.33,2.33,0,0,0-.24,1.06,2.27,2.27,0,0,0,.24,1.06,1.87,1.87,0,0,0,.68.74,1.75,1.75,0,0,0,1,.26,1.8,1.8,0,0,0,1.63-1,2.27,2.27,0,0,0,.24-1.06Zm4-2.73a1,1,0,0,1,.56.15.51.51,0,0,1,.21.41.43.43,0,0,1,0,.24.37.37,0,0,1-.11.15s-.07,0-.08,0a.81.81,0,0,0-.62-.22,1,1,0,0,0-.93.57,3.28,3.28,0,0,0-.31,1.58v2.06c0,.25-.12.37-.34.37h-.09a.32.32,0,0,1-.36-.37v-4.82s0,0,.09,0a.42.42,0,0,1,.2,0c.26,0,.42.18.45.53s0,.43,0,.56a1.62,1.62,0,0,1,.5-.87,1.24,1.24,0,0,1,.85-.29Zm5.62,5.44a2.29,2.29,0,0,1-1.24-.34,2.34,2.34,0,0,1-.85-1,3.1,3.1,0,0,1-.31-1.43,3,3,0,0,1,.31-1.41,2.28,2.28,0,0,1,2.11-1.3,2.22,2.22,0,0,1,1.14.28,1.87,1.87,0,0,1,.73.72v-3s0,0,.09-.06a.5.5,0,0,1,.19,0c.34,0,.51.23.51.7v6.4c0,.25-.12.37-.35.37h-.08c-.22,0-.33-.11-.33-.35s0-.37,0-.67a2.34,2.34,0,0,1-.77.82,2.19,2.19,0,0,1-1.14.29Zm1.89-3.53a1.86,1.86,0,0,0-.66-.92,1.74,1.74,0,0,0-1.08-.33,1.62,1.62,0,0,0-1.28.57,2.22,2.22,0,0,0-.49,1.48,2.44,2.44,0,0,0,.23,1.07,1.65,1.65,0,0,0,.62.73,1.59,1.59,0,0,0,.91.26,1.77,1.77,0,0,0,.88-.22,1.7,1.7,0,0,0,.64-.61,1.62,1.62,0,0,0,.23-.87Zm1.86.8a2.82,2.82,0,0,1,.34-1.4,2.41,2.41,0,0,1,.94-1,2.84,2.84,0,0,1,2.73,0,2.42,2.42,0,0,1,.93,1,2.88,2.88,0,0,1,.34,1.41,2.84,2.84,0,0,1-.34,1.4,2.41,2.41,0,0,1-.94,1,2.67,2.67,0,0,1-1.36.35,2.71,2.71,0,0,1-1.37-.35,2.44,2.44,0,0,1-.94-1,2.94,2.94,0,0,1-.33-1.41Zm4.52,0a2.33,2.33,0,0,0-.24-1.06,1.85,1.85,0,0,0-.67-.74,1.74,1.74,0,0,0-1-.27,1.79,1.79,0,0,0-1.64,1,2.21,2.21,0,0,0-.25,1.06,2.16,2.16,0,0,0,.25,1.06,1.92,1.92,0,0,0,.67.74,1.79,1.79,0,0,0,1,.26,1.73,1.73,0,0,0,1-.26,1.79,1.79,0,0,0,.67-.72,2.27,2.27,0,0,0,.24-1.06Zm8.23-2.66a.41.41,0,0,1,.19,0l.1,0v6.89c0,.25-.12.38-.36.38h-.08c-.23,0-.35-.13-.35-.38v-2.7a2.24,2.24,0,0,1-.76.8,2.19,2.19,0,0,1-1.14.29,2.23,2.23,0,0,1-1.23-.34,2.43,2.43,0,0,1-.86-1,3.24,3.24,0,0,1-.31-1.43,3.18,3.18,0,0,1,.31-1.41,2.38,2.38,0,0,1,.87-1,2.32,2.32,0,0,1,1.25-.34,2.22,2.22,0,0,1,1.16.29,1.84,1.84,0,0,1,.72.75v-.32c0-.43.19-.65.49-.65Zm-.5,1.85a2.08,2.08,0,0,0-.66-.93,1.77,1.77,0,0,0-1.09-.33,1.6,1.6,0,0,0-1.27.57,2.17,2.17,0,0,0-.49,1.48,2.44,2.44,0,0,0,.22,1.07,1.73,1.73,0,0,0,.63.73,1.58,1.58,0,0,0,.9.26,1.81,1.81,0,0,0,.89-.22,1.66,1.66,0,0,0,.64-.62,1.71,1.71,0,0,0,.23-.87Zm6.34-1.85a.32.32,0,0,1,.35.37V113s0,0-.1,0a.58.58,0,0,1-.19,0q-.4,0-.45-.51,0-.28,0-.42a2.21,2.21,0,0,1-.73.73,2,2,0,0,1-1.06.28,1.8,1.8,0,0,1-1.48-.62,2.5,2.5,0,0,1-.51-1.65v-2.73c0-.24.11-.37.35-.37h.08c.24,0,.35.13.35.37v2.68a1.8,1.8,0,0,0,.36,1.19,1.25,1.25,0,0,0,1,.43,1.67,1.67,0,0,0,1-.28,1.76,1.76,0,0,0,.64-.78v-3.24c0-.24.11-.37.34-.37Zm1.32,2.68a3,3,0,0,1,.33-1.42,2.46,2.46,0,0,1,2.24-1.33,2.36,2.36,0,0,1,1.26.32,2.15,2.15,0,0,1,.84.9,3,3,0,0,1,.29,1.34v.08a.24.24,0,0,1-.06.19.29.29,0,0,1-.21.06h-3.94a.66.66,0,0,0,0,.15,1.91,1.91,0,0,0,.6,1.27,2.09,2.09,0,0,0,2.36.21,1.75,1.75,0,0,0,.63-.69.32.32,0,0,1,.15,0,.64.64,0,0,1,.21.14.35.35,0,0,1,.09.25.65.65,0,0,1-.11.31,1.17,1.17,0,0,1-.31.33,2.05,2.05,0,0,1-.72.4,2.86,2.86,0,0,1-1,.16,2.75,2.75,0,0,1-1.39-.34,2.3,2.3,0,0,1-.93-.95,2.92,2.92,0,0,1-.33-1.4Zm4.19-.43a1.84,1.84,0,0,0-.47-1.23,1.49,1.49,0,0,0-1.15-.46,1.69,1.69,0,0,0-1.2.47,2.11,2.11,0,0,0-.6,1.22Zm1.85-1.71a.18.18,0,0,1-.15.06.31.31,0,0,1-.2-.07.17.17,0,0,1-.05-.19l.6-1.85a1,1,0,0,1,.14-.33.34.34,0,0,1,.27-.09h.09a.3.3,0,0,1,.24.11.41.41,0,0,1,.09.3v0a.88.88,0,0,1-.19.52l-.84,1.5Zm1.69,0a.2.2,0,0,1-.16.06.31.31,0,0,1-.2-.07.17.17,0,0,1,0-.19l.6-1.85a1,1,0,0,1,.15-.33.33.33,0,0,1,.26-.09h.09a.3.3,0,0,1,.23.11.4.4,0,0,1,.1.3v0a1,1,0,0,1-.18.52l-.84,1.5Z"/><text class="cls-4" transform="translate(190.27 130.47)">9</text><text class="cls-5" transform="translate(201.2 130.47)">&gt;</text><text class="cls-4" transform="translate(215.17 130.47)">5</text></svg>