<svg id="Camada_1" data-name="Camada 1" xmlns="http://www.w3.org/2000/svg" viewBox="0 0 489.31 103.22"><defs><style>.cls-1,.cls-2,.cls-4{fill:none;stroke:#000;}.cls-1,.cls-4{stroke-miterlimit:10;}.cls-1,.cls-2{stroke-width:0.4px;}.cls-2{stroke-linecap:round;stroke-linejoin:round;}.cls-3{font-size:9.96px;font-family:CMR10;}.cls-4{stroke-width:0.57px;}</style></defs><line class="cls-1" x1="56.96" y1="40.86" x2="432.15" y2="40.86"/><path class="cls-2" d="M430.28,38.47a3.17,3.17,0,0,0,2.07,2.39,3.17,3.17,0,0,0-2.07,2.39"/><line class="cls-1" x1="64.04" y1="43.85" x2="64.04" y2="37.87"/><line class="cls-1" x1="81.76" y1="43.85" x2="81.76" y2="37.87"/><line class="cls-1" x1="99.48" y1="43.85" x2="99.48" y2="37.87"/><line class="cls-1" x1="117.19" y1="43.85" x2="117.19" y2="37.87"/><line class="cls-1" x1="134.91" y1="43.85" x2="134.91" y2="37.87"/><line class="cls-1" x1="152.63" y1="43.85" x2="152.63" y2="37.87"/><line class="cls-1" x1="170.34" y1="43.85" x2="170.34" y2="37.87"/><line class="cls-1" x1="188.06" y1="43.85" x2="188.06" y2="37.87"/><line class="cls-1" x1="205.78" y1="43.85" x2="205.78" y2="37.87"/><line class="cls-1" x1="223.49" y1="43.85" x2="223.49" y2="37.87"/><line class="cls-1" x1="241.21" y1="43.85" x2="241.21" y2="37.87"/><line class="cls-1" x1="258.93" y1="43.85" x2="258.93" y2="37.87"/><line class="cls-1" x1="276.64" y1="43.85" x2="276.64" y2="37.87"/><line class="cls-1" x1="294.36" y1="43.85" x2="294.36" y2="37.87"/><line class="cls-1" x1="312.08" y1="43.85" x2="312.08" y2="37.87"/><line class="cls-1" x1="329.79" y1="43.85" x2="329.79" y2="37.87"/><line class="cls-1" x1="347.51" y1="43.85" x2="347.51" y2="37.87"/><line class="cls-1" x1="365.23" y1="43.85" x2="365.23" y2="37.87"/><line class="cls-1" x1="382.94" y1="43.85" x2="382.94" y2="37.87"/><line class="cls-1" x1="400.66" y1="43.85" x2="400.66" y2="37.87"/><line class="cls-1" x1="418.38" y1="43.85" x2="418.38" y2="37.87"/><path d="M64,55.44a3.52,3.52,0,0,1-1.94-.52,3.35,3.35,0,0,1-1.27-1.5,5.46,5.46,0,0,1-.45-2.3v-.95a5.52,5.52,0,0,1,.45-2.3,3.35,3.35,0,0,1,1.27-1.5,3.89,3.89,0,0,1,3.92,0,3.38,3.38,0,0,1,1.28,1.5,5.57,5.57,0,0,1,.44,2.29v.93a5.54,5.54,0,0,1-.45,2.31A3.47,3.47,0,0,1,66,54.91a3.63,3.63,0,0,1-2,.53Zm0-.92A2.25,2.25,0,0,0,66,53.63a4,4,0,0,0,.68-2.49v-1a4,4,0,0,0-.69-2.51,2.47,2.47,0,0,0-3.81,0,4.07,4.07,0,0,0-.68,2.49v1a4,4,0,0,0,.69,2.5,2.25,2.25,0,0,0,1.89.9Z"/><text class="cls-3" transform="translate(132.42 52.27)">1</text><line class="cls-4" x1="132.42" y1="54.33" x2="137.4" y2="54.33"/><text class="cls-3" transform="translate(132.42 62.86)">2</text><path d="M206.13,55.24c-.3,0-.45-.17-.45-.5V47.48a1.16,1.16,0,0,1-.44.38,1.35,1.35,0,0,1-.6.13,1.17,1.17,0,0,1-.82-.28.74.74,0,0,1-.23-.55.72.72,0,0,1,.06-.29.8.8,0,0,1,.15-.2s.08-.06.1-.05a1,1,0,0,0,.82.34,1.14,1.14,0,0,0,.8-.32,1.19,1.19,0,0,0,.36-.8h.39c.32,0,.47.17.47.5v8.4c0,.33-.15.5-.47.5Z"/></svg>