<?xml version="1.0" encoding="utf-8"?>
<!-- Generator: Adobe Illustrator 16.0.0, SVG Export Plug-In . SVG Version: 6.00 Build 0)  -->
<!DOCTYPE svg PUBLIC "-//W3C//DTD SVG 1.1//EN" "http://www.w3.org/Graphics/SVG/1.1/DTD/svg11.dtd">
<svg version="1.1" id="Layer_1" xmlns="http://www.w3.org/2000/svg" xmlns:xlink="http://www.w3.org/1999/xlink" x="0px" y="0px"
	 width="198.425px" height="141.732px" viewBox="0 0 198.425 141.732" enable-background="new 0 0 198.425 141.732"
	 xml:space="preserve">
<g>
	<path fill="none" stroke="#9B8579" stroke-width="2.6" stroke-linecap="round" stroke-linejoin="round" stroke-miterlimit="10" d="
		M188.212,17.076H23.875c0,0-13.996-1.325-14.06,5.704c-0.06,6.618,13.713,5.211,13.713,5.211l164.684,0.979"/>
	<path fill="none" stroke="#9B8579" stroke-width="2.6" stroke-linecap="round" stroke-linejoin="round" stroke-miterlimit="10" d="
		M52.32,95.373c9.555-0.526,67.927,0.752,84.667,0c13.999-0.629,17.257-28.635-2.417-29.917c-20.102-1.31-75.032-1.225-75.032-1.225
		s-9.488-1.17-9.52,5.859c-0.029,6.618,9.976,5.13,9.976,5.13s41.83,0.634,69.321,0.792c11.198,0.064,10.024,8.525,3.075,9.104
		c-6.271,0.522-80.056-0.099-80.056-0.099"/>
	<text transform="matrix(1 0 0 1 69.8145 48.783)" fill="#231F20" font-family="'JandaCapslock'" font-size="14">1</text>
	
		<text transform="matrix(1 0 0 1 72.6855 48.783)" fill="#231F20" font-family="'JandaCapslock'" font-size="14" letter-spacing="-1"> </text>
	<text transform="matrix(1 0 0 1 75.4849 44.1208)" fill="#231F20" font-family="'JandaCapslock'" font-size="8.162">a</text>
	<text transform="matrix(1 0 0 1 80.707 48.783)" fill="#231F20" font-family="'JandaCapslock'" font-size="14"> dobra</text>
	<text transform="matrix(1 0 0 1 67.626 120.6814)" fill="#231F20" font-family="'JandaCapslock'" font-size="14">2</text>
	<text transform="matrix(1 0 0 1 77.6748 116.0183)" fill="#231F20" font-family="'JandaCapslock'" font-size="8.162">a</text>
	<text transform="matrix(1 0 0 1 82.8955 120.6814)" fill="#231F20" font-family="'JandaCapslock'" font-size="14"> dobra</text>
</g>
</svg>
