<svg id="Camada_1" data-name="Camada 1" xmlns="http://www.w3.org/2000/svg" viewBox="0 0 256.71 70.61"><defs><style>.cls-1,.cls-2{fill:none;stroke:#000;}.cls-1{stroke-miterlimit:10;stroke-width:0.4px;}.cls-2{stroke-linecap:round;stroke-linejoin:round;stroke-width:0.4px;}.cls-3,.cls-5{font-size:14.35px;}.cls-3{font-family:CMR12;}.cls-4{fill:#e6164d;}.cls-5{font-family:CMMI12;}</style></defs><line class="cls-1" x1="29.88" y1="8.03" x2="226.64" y2="60.75"/><path class="cls-2" d="M225.45,58a3.14,3.14,0,0,0,1.38,2.84,3.17,3.17,0,0,0-2.62,1.78"/><text class="cls-3" transform="translate(50.24 31.75)">0</text><text class="cls-3" transform="translate(99.52 44.95)">1</text><line class="cls-1" x1="55.29" y1="11.75" x2="53.75" y2="17.52"/><line class="cls-1" x1="104.58" y1="24.95" x2="103.03" y2="30.73"/><path class="cls-4" d="M96.84,26a3,3,0,1,0-3.66,2.12A3,3,0,0,0,96.84,26Z"/><text class="cls-5" transform="translate(89.53 43.03)">d</text><path class="cls-4" d="M136.27,36.54a3,3,0,1,0-3.67,2.11A3,3,0,0,0,136.27,36.54Z"/><text class="cls-5" transform="translate(129.58 49.81)">c</text></svg>