<svg id="Camada_1" data-name="Camada 1" xmlns="http://www.w3.org/2000/svg" viewBox="0 0 489.31 315.96"><defs><style>.cls-1{font-size:14.35px;font-family:CMR12;}.cls-2{fill:none;stroke:#000;stroke-miterlimit:10;stroke-width:0.57px;}</style></defs><text class="cls-1" transform="translate(109.93 50.09)">1</text><line class="cls-2" x1="109.93" y1="56.2" x2="116.96" y2="56.2"/><text class="cls-1" transform="translate(109.93 69.63)">2</text><path d="M140.26,58.92c0,.8-.08.87-.89.87h-14.7c-.82,0-.89-.1-.89-.89V43.63c0-.79.1-.86.87-.86h14.74c.79,0,.87.1.87.86Zm-15.49-.12h14.5v-15h-14.5Z"/><text class="cls-1" transform="translate(145.32 50.09)">1</text><line class="cls-2" x1="145.32" y1="56.2" x2="152.34" y2="56.2"/><text class="cls-1" transform="translate(145.32 69.63)">5</text><path d="M89.49,58a1.81,1.81,0,0,1,1.13-1.73,8.51,8.51,0,0,1,3.5-.61h.19V55.5a1.56,1.56,0,0,0-.44-1.2,1.77,1.77,0,0,0-1.27-.42,2.25,2.25,0,0,0-1.23.32,2.08,2.08,0,0,0-.75.86s-.08,0-.25,0a1,1,0,0,1-.43-.2.57.57,0,0,1-.2-.46,1.18,1.18,0,0,1,.48-.86,3,3,0,0,1,1-.57,4.31,4.31,0,0,1,1.46-.22,3.24,3.24,0,0,1,2.24.71,2.67,2.67,0,0,1,.77,2V59.7s0,.08-.16.11a1,1,0,0,1-.35,0,.76.76,0,0,1-.82-.63,2.09,2.09,0,0,1-.06-.47,2.79,2.79,0,0,1-1,.87,3.29,3.29,0,0,1-1.43.32,2.55,2.55,0,0,1-1.72-.54A1.78,1.78,0,0,1,89.49,58Zm4.82-1.45-.39,0a7,7,0,0,0-2.3.37,1.06,1.06,0,0,0-.74,1,.88.88,0,0,0,.34.73,1.52,1.52,0,0,0,1,.27,2.24,2.24,0,0,0,1.53-.52,1.71,1.71,0,0,0,.6-1.35Zm2.62,6.1q-.66,0-.66-.57a.65.65,0,0,1,.09-.32.37.37,0,0,1,.13-.17,3.17,3.17,0,0,0,1.62-.93,4.6,4.6,0,0,0,1-1.79,7.25,7.25,0,0,0,.36-2.33,7.14,7.14,0,0,0-.36-2.29,4.6,4.6,0,0,0-1-1.79,3.32,3.32,0,0,0-1.62-.93.48.48,0,0,1-.13-.19.64.64,0,0,1-.09-.31q0-.57.66-.57a2.53,2.53,0,0,1,1.23.36,4.2,4.2,0,0,1,1.18,1,6.7,6.7,0,0,1,1.18,2.09,8.26,8.26,0,0,1,0,5.29,6.66,6.66,0,0,1-1.15,2.07,4.35,4.35,0,0,1-1.2,1,2.57,2.57,0,0,1-1.25.36Z"/><text class="cls-1" transform="translate(335.84 50.09)">1</text><line class="cls-2" x1="335.84" y1="56.2" x2="342.86" y2="56.2"/><text class="cls-1" transform="translate(335.84 69.63)">4</text><path d="M366.16,58.92c0,.8-.07.87-.89.87h-14.7c-.81,0-.89-.1-.89-.89V43.63c0-.79.1-.86.87-.86h14.74c.8,0,.87.1.87.86Zm-15.49-.12h14.5v-15h-14.5Z"/><text class="cls-1" transform="translate(371.22 50.09)">1</text><line class="cls-2" x1="371.22" y1="56.2" x2="378.24" y2="56.2"/><text class="cls-1" transform="translate(371.22 69.63)">3</text><path d="M317.2,59.17c0,.45-.21.68-.62.68h-.16c-.42,0-.63-.23-.63-.68V50.09s0-.06.16-.1a1,1,0,0,1,.36-.06.86.86,0,0,1,.64.28,1.35,1.35,0,0,1,.26.94V54a2.77,2.77,0,0,1,2.41-1.25,3.24,3.24,0,0,1,1.66.44,3.08,3.08,0,0,1,1.15,1.27,4.51,4.51,0,0,1,0,3.8,3.16,3.16,0,0,1-1.16,1.29,3.22,3.22,0,0,1-1.69.46,3,3,0,0,1-1.46-.35,2.35,2.35,0,0,1-.92-.87Zm4.27-2.82a2.92,2.92,0,0,0-.27-1.27,2.13,2.13,0,0,0-.75-.87,2,2,0,0,0-1.1-.32,2.18,2.18,0,0,0-2.15,1.44v1.53a1.86,1.86,0,0,0,.3,1,2.1,2.1,0,0,0,.78.7,2.19,2.19,0,0,0,1,.25,2,2,0,0,0,1.56-.67,2.64,2.64,0,0,0,.59-1.78ZM324,62.63q-.66,0-.66-.57a.65.65,0,0,1,.09-.32.48.48,0,0,1,.12-.17,3.15,3.15,0,0,0,1.63-.93,4.72,4.72,0,0,0,1-1.79,7.25,7.25,0,0,0,.36-2.33,7.14,7.14,0,0,0-.36-2.29,4.86,4.86,0,0,0-1-1.79,3.31,3.31,0,0,0-1.63-.93.68.68,0,0,1-.12-.19.64.64,0,0,1-.09-.31q0-.57.66-.57a2.53,2.53,0,0,1,1.23.36,4.2,4.2,0,0,1,1.18,1,6.7,6.7,0,0,1,1.18,2.09,8.26,8.26,0,0,1,0,5.29,6.66,6.66,0,0,1-1.15,2.07,4.35,4.35,0,0,1-1.2,1,2.57,2.57,0,0,1-1.25.36Z"/><text class="cls-1" transform="translate(113.44 118.3)">1</text><line class="cls-2" x1="109.93" y1="124.42" x2="123.98" y2="124.42"/><text class="cls-1" transform="translate(109.93 137.85)">10</text><path d="M147.28,127.14c0,.8-.07.87-.89.87h-14.7c-.81,0-.89-.1-.89-.89V111.85c0-.79.1-.86.87-.86h14.74c.8,0,.87.1.87.86ZM131.79,127h14.5V112h-14.5Z"/><text class="cls-1" transform="translate(155.85 118.3)">1</text><line class="cls-2" x1="152.34" y1="124.42" x2="166.39" y2="124.42"/><text class="cls-1" transform="translate(152.34 137.85)">20</text><path d="M89.47,124.55a3.71,3.71,0,0,1,.47-1.85,3.47,3.47,0,0,1,1.28-1.3,3.67,3.67,0,0,1,1.84-.46,3.41,3.41,0,0,1,2.25.72,1.94,1.94,0,0,1,.52.6,1.24,1.24,0,0,1,.18.59.51.51,0,0,1-.18.41.89.89,0,0,1-.41.21c-.15,0-.23,0-.25,0a2.07,2.07,0,0,0-2.08-1.35,2.23,2.23,0,0,0-1.17.31,2.34,2.34,0,0,0-.81.87,2.67,2.67,0,0,0-.29,1.24,2.79,2.79,0,0,0,.29,1.27,2.27,2.27,0,0,0,.81.87,2.23,2.23,0,0,0,1.17.32,2.07,2.07,0,0,0,2.08-1.35s.1,0,.25,0a.89.89,0,0,1,.41.21.55.55,0,0,1,.18.43,1.18,1.18,0,0,1-.18.58,2.12,2.12,0,0,1-.53.6,2.94,2.94,0,0,1-1,.52,3.91,3.91,0,0,1-1.28.2,3.66,3.66,0,0,1-1.85-.47,3.27,3.27,0,0,1-1.28-1.3,3.77,3.77,0,0,1-.46-1.88Zm7.36,6.3q-.66,0-.66-.57a.65.65,0,0,1,.09-.32.37.37,0,0,1,.13-.17,3.1,3.1,0,0,0,1.62-.93,4.6,4.6,0,0,0,1-1.79,7.25,7.25,0,0,0,.36-2.33,7.14,7.14,0,0,0-.36-2.29,4.49,4.49,0,0,0-1-1.78,3.27,3.27,0,0,0-1.62-.94.48.48,0,0,1-.13-.19.64.64,0,0,1-.09-.31q0-.57.66-.57a2.53,2.53,0,0,1,1.23.36,4.37,4.37,0,0,1,1.18,1,6.7,6.7,0,0,1,1.18,2.09,8.26,8.26,0,0,1,0,5.29,6.66,6.66,0,0,1-1.15,2.07,4.35,4.35,0,0,1-1.2,1,2.57,2.57,0,0,1-1.25.36Z"/><text class="cls-1" transform="translate(339.35 118.3)">1</text><line class="cls-2" x1="335.84" y1="124.42" x2="349.88" y2="124.42"/><text class="cls-1" transform="translate(335.84 137.85)">12</text><path d="M373.18,127.14c0,.8-.07.87-.89.87H357.6c-.82,0-.9-.1-.9-.89V111.85c0-.79.1-.86.87-.86h14.75c.79,0,.86.1.86.86ZM357.7,127h14.49V112H357.7Z"/><text class="cls-1" transform="translate(378.24 118.3)">1</text><line class="cls-2" x1="378.24" y1="124.42" x2="385.27" y2="124.42"/><text class="cls-1" transform="translate(378.24 137.85)">2</text><path d="M318.6,128.2a3,3,0,0,1-2.81-1.73,4.51,4.51,0,0,1,0-3.8,3.07,3.07,0,0,1,1.16-1.28,3.21,3.21,0,0,1,1.69-.45,3.11,3.11,0,0,1,1.43.32,2.44,2.44,0,0,1,.94.81v-3.76s.06-.06.17-.1a1,1,0,0,1,.35,0c.6,0,.9.4.9,1.21v8c0,.45-.21.68-.63.68h-.14c-.42,0-.63-.23-.63-.68v-.53a2.77,2.77,0,0,1-2.43,1.34Zm2.43-4.66a2.4,2.4,0,0,0-.81-1.05,2.26,2.26,0,0,0-1.32-.38,2,2,0,0,0-1.56.68,2.62,2.62,0,0,0-.59,1.78,2.84,2.84,0,0,0,.27,1.26,2.26,2.26,0,0,0,.76.88,1.93,1.93,0,0,0,1.09.31,2.29,2.29,0,0,0,1.07-.26,2.06,2.06,0,0,0,.79-.73,1.83,1.83,0,0,0,.3-1Zm3,7.31q-.66,0-.66-.57a.65.65,0,0,1,.09-.32.48.48,0,0,1,.12-.17,3.09,3.09,0,0,0,1.63-.93,4.72,4.72,0,0,0,1-1.79,7.25,7.25,0,0,0,.36-2.33,7.14,7.14,0,0,0-.36-2.29,4.74,4.74,0,0,0-1-1.78,3.25,3.25,0,0,0-1.63-.94.68.68,0,0,1-.12-.19.64.64,0,0,1-.09-.31q0-.57.66-.57a2.53,2.53,0,0,1,1.23.36,4.37,4.37,0,0,1,1.18,1,6.7,6.7,0,0,1,1.18,2.09,8.26,8.26,0,0,1,0,5.29,6.66,6.66,0,0,1-1.15,2.07,4.35,4.35,0,0,1-1.2,1,2.57,2.57,0,0,1-1.25.36Z"/><text class="cls-1" transform="translate(113.44 186.53)">1</text><line class="cls-2" x1="109.93" y1="192.64" x2="123.98" y2="192.64"/><text class="cls-1" transform="translate(109.93 206.07)">35</text><path d="M147.28,195.36c0,.8-.07.87-.89.87h-14.7c-.81,0-.89-.1-.89-.89V180.07c0-.79.1-.86.87-.86h14.74c.8,0,.87.1.87.86Zm-15.49-.12h14.5v-15h-14.5Z"/><text class="cls-1" transform="translate(155.85 186.53)">1</text><line class="cls-2" x1="152.34" y1="192.64" x2="166.39" y2="192.64"/><text class="cls-1" transform="translate(152.34 206.07)">43</text><path d="M89.47,192.82a3.82,3.82,0,0,1,.46-1.88,3.52,3.52,0,0,1,1.26-1.31,3.56,3.56,0,0,1,1.81-.47,3.31,3.31,0,0,1,1.74.44,3.1,3.1,0,0,1,1.16,1.22,3.8,3.8,0,0,1,.41,1.81v.11a.47.47,0,0,1-.09.33.48.48,0,0,1-.34.09H90.79a1.7,1.7,0,0,0,0,.26,2.24,2.24,0,0,0,.78,1.36,2.32,2.32,0,0,0,1.54.52,2.55,2.55,0,0,0,1.35-.31,2.28,2.28,0,0,0,.82-.84s.09,0,.22,0a.88.88,0,0,1,.36.23.58.58,0,0,1,.17.43.92.92,0,0,1-.2.51,2.29,2.29,0,0,1-.56.5,4.07,4.07,0,0,1-2.19.56,3.92,3.92,0,0,1-1.9-.45,3.32,3.32,0,0,1-1.28-1.27,3.77,3.77,0,0,1-.46-1.88Zm5.47-.62a2.15,2.15,0,0,0-.58-1.43,1.8,1.8,0,0,0-1.37-.54,2.06,2.06,0,0,0-1.45.56,2.3,2.3,0,0,0-.73,1.41Zm2.55,6.87q-.66,0-.66-.57a.65.65,0,0,1,.09-.32.37.37,0,0,1,.13-.17,3.1,3.1,0,0,0,1.62-.93,4.72,4.72,0,0,0,1-1.79,7.25,7.25,0,0,0,.36-2.33,7.14,7.14,0,0,0-.36-2.29,4.61,4.61,0,0,0-1-1.78,3.27,3.27,0,0,0-1.62-.94.48.48,0,0,1-.13-.19.64.64,0,0,1-.09-.31q0-.57.66-.57a2.53,2.53,0,0,1,1.23.36,4.37,4.37,0,0,1,1.18,1,6.7,6.7,0,0,1,1.18,2.09,8.26,8.26,0,0,1,0,5.29,6.66,6.66,0,0,1-1.15,2.07,4.35,4.35,0,0,1-1.2,1,2.57,2.57,0,0,1-1.25.36Z"/><text class="cls-1" transform="translate(339.35 186.53)">1</text><line class="cls-2" x1="335.84" y1="192.64" x2="349.88" y2="192.64"/><text class="cls-1" transform="translate(335.84 206.07)">99</text><path d="M373.18,195.36c0,.8-.07.87-.89.87H357.6c-.82,0-.9-.1-.9-.89V180.07c0-.79.1-.86.87-.86h14.75c.79,0,.86.1.86.86Zm-15.48-.12h14.49v-15H357.7Z"/><text class="cls-1" transform="translate(385.27 186.53)">1</text><line class="cls-2" x1="378.24" y1="192.64" x2="399.32" y2="192.64"/><text class="cls-1" transform="translate(378.24 206.07)">100</text><path d="M316.46,190.49h-.8a.71.71,0,0,1-.48-.13A.53.53,0,0,1,315,190v-.1a.48.48,0,0,1,.15-.39.71.71,0,0,1,.48-.13h.8v-.52a2.75,2.75,0,0,1,.57-1.9,2.09,2.09,0,0,1,1.63-.64,2.12,2.12,0,0,1,1.18.29.76.76,0,0,1,.37.65.88.88,0,0,1-.07.33.8.8,0,0,1-.17.22c-.06.05-.1.07-.11.06a1.59,1.59,0,0,0-.44-.28,1.52,1.52,0,0,0-.59-.12.87.87,0,0,0-.75.34,1.86,1.86,0,0,0-.24,1.07v.5H319a.71.71,0,0,1,.48.13.51.51,0,0,1,.15.4v.1a.49.49,0,0,1-.15.4.71.71,0,0,1-.48.13h-1.13v5.12a.7.7,0,0,1-.16.53.64.64,0,0,1-.46.15h-.14c-.43,0-.65-.23-.65-.68Zm5.28,8.58q-.66,0-.66-.57a.65.65,0,0,1,.09-.32c.06-.1.1-.16.13-.17a3.16,3.16,0,0,0,1.63-.93,4.86,4.86,0,0,0,1-1.79,7.25,7.25,0,0,0,.36-2.33,7.14,7.14,0,0,0-.36-2.29,4.62,4.62,0,0,0-1.05-1.78,3.27,3.27,0,0,0-1.62-.94.62.62,0,0,1-.13-.19.64.64,0,0,1-.09-.31q0-.57.66-.57a2.5,2.5,0,0,1,1.23.36,4.22,4.22,0,0,1,1.18,1,6.7,6.7,0,0,1,1.18,2.09,7.62,7.62,0,0,1,.45,2.64,7.8,7.8,0,0,1-.44,2.65,6.44,6.44,0,0,1-1.14,2.07,4.54,4.54,0,0,1-1.21,1,2.54,2.54,0,0,1-1.25.36Z"/><text class="cls-1" transform="translate(109.93 254.75)">1</text><line class="cls-2" x1="109.93" y1="260.86" x2="116.96" y2="260.86"/><text class="cls-1" transform="translate(109.93 274.29)">5</text><path d="M140.26,263.58c0,.8-.08.87-.89.87h-14.7c-.82,0-.89-.1-.89-.89V248.29c0-.79.1-.86.87-.86h14.74c.79,0,.87.1.87.86Zm-15.49-.12h14.5v-15h-14.5Z"/><text class="cls-1" transform="translate(148.83 254.75)">1</text><line class="cls-2" x1="145.32" y1="260.86" x2="159.37" y2="260.86"/><text class="cls-1" transform="translate(145.32 274.29)">50</text><path d="M92.38,267.48a5.42,5.42,0,0,1-2.56-.47,1.6,1.6,0,0,1-.23-2.67,3.39,3.39,0,0,1,1.59-.66.82.82,0,0,1-.27-.65,1,1,0,0,1,.38-.75,2.65,2.65,0,0,1-1.32-.87,2.24,2.24,0,0,1-.48-1.42,2.31,2.31,0,0,1,.38-1.31,2.58,2.58,0,0,1,1.06-.95,3.29,3.29,0,0,1,1.51-.35,3.48,3.48,0,0,1,1.65.41l.37-.66a1.26,1.26,0,0,1,.37-.41.77.77,0,0,1,.45-.13.68.68,0,0,1,.42.13A.89.89,0,0,1,96,257c.05.11.07.17.05.18l-1.17,1.22a2.28,2.28,0,0,1,.6,1.54,2.32,2.32,0,0,1-.38,1.29,2.51,2.51,0,0,1-1.06.89,3.51,3.51,0,0,1-1.54.33H92.2a.4.4,0,0,0,.19.6,5.73,5.73,0,0,0,1,.27l.65.16a3.9,3.9,0,0,1,1.45.67,1.45,1.45,0,0,1,.56,1.21,1.72,1.72,0,0,1-1,1.55,5.29,5.29,0,0,1-2.66.56Zm0-1a3.79,3.79,0,0,0,1.63-.28.87.87,0,0,0,.58-.8.6.6,0,0,0-.35-.56,4.27,4.27,0,0,0-1-.37l-.72-.17a3.87,3.87,0,0,0-1.54.37.94.94,0,0,0-.61.85.78.78,0,0,0,.52.71,3.81,3.81,0,0,0,1.54.25Zm0-5a1.6,1.6,0,0,0,1.16-.43,1.51,1.51,0,0,0,.44-1.13,1.52,1.52,0,0,0-.45-1.13,1.63,1.63,0,0,0-1.18-.43,1.56,1.56,0,0,0-1.15.43,1.48,1.48,0,0,0-.45,1.13,1.45,1.45,0,0,0,.46,1.13,1.61,1.61,0,0,0,1.17.43Zm4.3,5.77q-.66,0-.66-.57a.76.76,0,0,1,.08-.32.6.6,0,0,1,.13-.17,3.09,3.09,0,0,0,1.63-.93,4.72,4.72,0,0,0,1-1.79,7.25,7.25,0,0,0,.36-2.33,7.14,7.14,0,0,0-.36-2.29,4.74,4.74,0,0,0-1-1.78,3.25,3.25,0,0,0-1.63-.94.9.9,0,0,1-.13-.19.75.75,0,0,1-.08-.31q0-.57.66-.57a2.53,2.53,0,0,1,1.23.36,4.37,4.37,0,0,1,1.18,1,6.7,6.7,0,0,1,1.18,2.09,8.26,8.26,0,0,1,0,5.29,6.66,6.66,0,0,1-1.15,2.07,4.35,4.35,0,0,1-1.2,1,2.57,2.57,0,0,1-1.25.36Z"/><text class="cls-1" transform="translate(342.86 254.75)">1</text><line class="cls-2" x1="335.84" y1="260.86" x2="356.91" y2="260.86"/><text class="cls-1" transform="translate(335.84 274.29)">100</text><path d="M380.21,263.58c0,.8-.08.87-.89.87h-14.7c-.82,0-.89-.1-.89-.89V248.29c0-.79.1-.86.87-.86h14.74c.79,0,.87.1.87.86Zm-15.49-.12h14.5v-15h-14.5Z"/><text class="cls-1" transform="translate(388.78 254.75)">1</text><line class="cls-2" x1="385.27" y1="260.86" x2="399.32" y2="260.86"/><text class="cls-1" transform="translate(385.27 274.29)">10</text><path d="M319.49,257.38a2.43,2.43,0,0,1,2,.82,3.32,3.32,0,0,1,.67,2.16v3.47c0,.45-.21.68-.63.68h-.16c-.42,0-.63-.23-.63-.68v-3.31a2.1,2.1,0,0,0-.42-1.39,1.45,1.45,0,0,0-1.17-.5,1.88,1.88,0,0,0-1.42.54,2.06,2.06,0,0,0-.52,1.48v3.18c0,.45-.21.68-.63.68h-.16c-.42,0-.63-.23-.63-.68v-9.08s0-.06.16-.1a1,1,0,0,1,.36-.05.85.85,0,0,1,.64.27,1.37,1.37,0,0,1,.26.94v2.83a2.6,2.6,0,0,1,2.28-1.26Zm4.2,9.91q-.66,0-.66-.57a.65.65,0,0,1,.09-.32c.06-.1.1-.16.13-.17a3.16,3.16,0,0,0,1.63-.93,4.86,4.86,0,0,0,1-1.79,7.25,7.25,0,0,0,.36-2.33,7.14,7.14,0,0,0-.36-2.29,4.62,4.62,0,0,0-1.05-1.78,3.27,3.27,0,0,0-1.62-.94.62.62,0,0,1-.13-.19.64.64,0,0,1-.09-.31q0-.57.66-.57a2.47,2.47,0,0,1,1.23.36,4.4,4.4,0,0,1,1.19,1,6.89,6.89,0,0,1,1.17,2.09,7.62,7.62,0,0,1,.45,2.64,8,8,0,0,1-.43,2.65,6.66,6.66,0,0,1-1.15,2.07,4.39,4.39,0,0,1-1.21,1,2.54,2.54,0,0,1-1.25.36Z"/></svg>