<svg id="Camada_1" data-name="Camada 1" xmlns="http://www.w3.org/2000/svg" xmlns:xlink="http://www.w3.org/1999/xlink" viewBox="0 0 88.9 38.94"><defs><style>.cls-1,.cls-2{fill:none;}.cls-2{stroke:#000;stroke-miterlimit:10;stroke-width:0.4px;}.cls-3{clip-path:url(#clip-path);}.cls-4{fill:#e6164d;}.cls-5{fill:#95d4e9;opacity:0.3;}</style><clipPath id="clip-path"><polygon class="cls-1" points="31.84 12.1 19.07 4.73 6.3 12.1 6.3 26.84 19.07 34.21 31.84 26.84 44.6 34.21 57.37 26.84 70.13 34.21 82.9 26.84 82.9 12.1 70.13 4.73 57.37 12.1 44.6 4.73 31.84 12.1"/></clipPath></defs><polygon class="cls-2" points="31.84 12.1 19.07 4.73 6.3 12.1 6.3 26.84 19.07 34.21 31.84 26.84 44.6 34.21 57.37 26.84 70.13 34.21 82.9 26.84 82.9 12.1 70.13 4.73 57.37 12.1 44.6 4.73 31.84 12.1"/><g class="cls-3"><rect class="cls-4" x="4.33" y="4.73" width="65.8" height="29.48"/><rect class="cls-2" x="4.33" y="4.73" width="65.8" height="29.48"/><rect class="cls-5" x="70.13" y="4.73" width="12.77" height="29.48"/><rect class="cls-2" x="70.13" y="4.73" width="12.77" height="29.48"/></g></svg>