<svg id="Camada_1" data-name="Camada 1" xmlns="http://www.w3.org/2000/svg" viewBox="0 0 273.99 102.94"><defs><style>.cls-1,.cls-2,.cls-3,.cls-5{fill:none;}.cls-1,.cls-2,.cls-5{stroke:#000;}.cls-1,.cls-3,.cls-5{stroke-miterlimit:10;}.cls-1,.cls-2{stroke-width:0.4px;}.cls-2{stroke-linecap:round;stroke-linejoin:round;}.cls-3{stroke:#e6164d;stroke-width:1.59px;}.cls-4{font-size:9.96px;font-family:CMR10;}.cls-5{stroke-width:0.57px;}.cls-6{fill:#e6164d;}</style></defs><line class="cls-1" x1="35.05" y1="46.51" x2="238.75" y2="46.51"/><path class="cls-2" d="M236.87,44.12A3.16,3.16,0,0,0,239,46.51a3.18,3.18,0,0,0-2.08,2.39"/><line class="cls-3" x1="60.56" y1="46.51" x2="111.58" y2="46.51"/><text class="cls-4" transform="translate(58.07 60.9)">0</text><line class="cls-5" x1="58.07" y1="62.97" x2="63.05" y2="62.97"/><text class="cls-4" transform="translate(58.07 71.5)">3</text><text class="cls-4" transform="translate(75.08 60.9)">1</text><line class="cls-5" x1="75.08" y1="62.97" x2="80.06" y2="62.97"/><text class="cls-4" transform="translate(75.08 71.5)">3</text><text class="cls-4" transform="translate(92.08 60.9)">2</text><line class="cls-5" x1="92.08" y1="62.97" x2="97.07" y2="62.97"/><text class="cls-4" transform="translate(92.08 71.5)">3</text><text class="cls-4" transform="translate(109.09 60.9)">3</text><line class="cls-5" x1="109.09" y1="62.97" x2="114.07" y2="62.97"/><text class="cls-4" transform="translate(109.09 71.5)">3</text><line class="cls-1" x1="77.57" y1="49.5" x2="77.57" y2="43.52"/><line class="cls-1" x1="94.58" y1="49.5" x2="94.58" y2="43.52"/><line class="cls-1" x1="162.61" y1="49.5" x2="162.61" y2="43.52"/><path d="M160.2,38.54a.79.79,0,0,1-.54-.14.59.59,0,0,1-.16-.47v-.36a3,3,0,0,1,.38-1.57,3.52,3.52,0,0,1,1-1.08,10.91,10.91,0,0,1,1.48-.88c.61-.32,1-.56,1.32-.73a2.9,2.9,0,0,0,.71-.64,1.42,1.42,0,0,0,.3-.91,1.58,1.58,0,0,0-.54-1.25,2.2,2.2,0,0,0-1.51-.47,2.27,2.27,0,0,0-1.58.53,2.82,2.82,0,0,0-.8,1.37s-.06,0-.19,0a.75.75,0,0,1-.36-.17.48.48,0,0,1-.17-.39,1.6,1.6,0,0,1,.2-.68,2.52,2.52,0,0,1,.54-.73,3.47,3.47,0,0,1,1-.65,3.62,3.62,0,0,1,1.39-.25,3.26,3.26,0,0,1,2.24.72,2.49,2.49,0,0,1,.81,2,2.28,2.28,0,0,1-.35,1.27,3,3,0,0,1-.88.89,14.15,14.15,0,0,1-1.44.79,12.8,12.8,0,0,0-1.3.72,3,3,0,0,0-.84.79,2.06,2.06,0,0,0-.37,1.08l0,.28h4.86c.35,0,.52.15.52.43v.09c0,.3-.17.44-.52.44Z"/><line class="cls-1" x1="213.63" y1="49.5" x2="213.63" y2="43.52"/><path d="M213.38,38.54a4.43,4.43,0,0,1-1.51-.24,3.1,3.1,0,0,1-1.09-.63,2.28,2.28,0,0,1-.5-.6,1.26,1.26,0,0,1-.17-.56.55.55,0,0,1,.14-.39.59.59,0,0,1,.31-.18c.11,0,.17,0,.18,0a2.2,2.2,0,0,0,.95,1.25,3,3,0,0,0,1.69.46,2.66,2.66,0,0,0,1.69-.5,1.79,1.79,0,0,0,0-2.72,2.69,2.69,0,0,0-1.72-.48h-.8c-.34,0-.5-.13-.5-.39v-.08c0-.27.15-.41.47-.41h.95a2.26,2.26,0,0,0,1.45-.42,1.58,1.58,0,0,0,0-2.37,2.36,2.36,0,0,0-1.53-.45,2.57,2.57,0,0,0-1.45.41,2.49,2.49,0,0,0-.91,1.05s-.07,0-.18,0a.77.77,0,0,1-.31-.19.48.48,0,0,1-.14-.35.89.89,0,0,1,.15-.44,2.22,2.22,0,0,1,.4-.48,3.19,3.19,0,0,1,1.07-.63,4.15,4.15,0,0,1,1.4-.23,3.6,3.6,0,0,1,2.3.65,2.15,2.15,0,0,1,.82,1.8,2,2,0,0,1-.43,1.3,2.17,2.17,0,0,1-1.22.72,2.72,2.72,0,0,1,1.41.88,2.36,2.36,0,0,1,.5,1.52,2.41,2.41,0,0,1-.91,2,3.87,3.87,0,0,1-2.49.73Z"/><circle class="cls-6" cx="60.56" cy="46.51" r="2.99" transform="translate(-7.7 12.29) rotate(-10.9)"/><path d="M60.54,38.54A3.55,3.55,0,0,1,58.59,38a3.42,3.42,0,0,1-1.27-1.5,5.57,5.57,0,0,1-.44-2.29v-.95a5.62,5.62,0,0,1,.44-2.3,3.41,3.41,0,0,1,1.28-1.51,4,4,0,0,1,3.92,0A3.35,3.35,0,0,1,63.79,31a5.41,5.41,0,0,1,.45,2.29v.94a5.49,5.49,0,0,1-.45,2.3A3.42,3.42,0,0,1,62.5,38a3.51,3.51,0,0,1-2,.53Zm0-.91a2.29,2.29,0,0,0,1.92-.89,4.08,4.08,0,0,0,.68-2.5v-1a4.07,4.07,0,0,0-.69-2.51,2.47,2.47,0,0,0-3.81,0A4,4,0,0,0,58,33.24v1a4,4,0,0,0,.69,2.49,2.26,2.26,0,0,0,1.89.91Z"/><circle class="cls-6" cx="111.58" cy="46.51" r="2.99" transform="translate(-7.7 26.88) rotate(-13.28)"/><path d="M111.94,38.54c-.3,0-.45-.16-.45-.5V30.78a1.08,1.08,0,0,1-.44.38,1.4,1.4,0,0,1-.61.14,1.16,1.16,0,0,1-.81-.29.7.7,0,0,1-.23-.54.68.68,0,0,1,.06-.29.64.64,0,0,1,.14-.2c.06-.05.09-.07.11-.06a1,1,0,0,0,.82.35,1.11,1.11,0,0,0,.8-.33,1.17,1.17,0,0,0,.36-.79h.39c.32,0,.47.16.47.5V38c0,.34-.15.5-.47.5Z"/></svg>