<svg id="Camada_1" data-name="Camada 1" xmlns="http://www.w3.org/2000/svg" viewBox="0 0 180.88 132.47"><defs><style>.cls-1{fill:#95d4e9;}.cls-2{fill:none;stroke:#000;stroke-miterlimit:10;stroke-width:0.4px;}.cls-3{fill:#e6164d;}</style></defs><rect class="cls-1" x="12.49" y="9.54" width="85.04" height="85.04"/><rect class="cls-2" x="12.49" y="9.54" width="85.04" height="85.04"/><rect class="cls-2" x="97.53" y="9.54" width="28.35" height="85.04"/><line class="cls-2" x1="40.83" y1="94.58" x2="40.83" y2="9.54"/><line class="cls-2" x1="69.18" y1="94.58" x2="69.18" y2="9.54"/><line class="cls-2" x1="12.49" y1="87.49" x2="125.87" y2="87.49"/><line class="cls-2" x1="12.49" y1="80.41" x2="125.87" y2="80.41"/><line class="cls-2" x1="12.49" y1="73.32" x2="125.87" y2="73.32"/><line class="cls-2" x1="12.49" y1="66.23" x2="125.87" y2="66.23"/><line class="cls-2" x1="12.49" y1="59.15" x2="125.87" y2="59.15"/><line class="cls-2" x1="12.49" y1="52.06" x2="125.87" y2="52.06"/><line class="cls-2" x1="12.49" y1="44.97" x2="125.87" y2="44.97"/><line class="cls-2" x1="12.49" y1="37.89" x2="125.87" y2="37.89"/><line class="cls-2" x1="12.49" y1="30.8" x2="125.87" y2="30.8"/><line class="cls-2" x1="12.49" y1="23.71" x2="125.87" y2="23.71"/><line class="cls-2" x1="12.49" y1="16.63" x2="125.87" y2="16.63"/><rect class="cls-3" x="26.66" y="12.38" width="141.73" height="110.55"/></svg>