<svg id="Camada_1" data-name="Camada 1" xmlns="http://www.w3.org/2000/svg" viewBox="0 0 489.31 524.49"><defs><style>.cls-1{font-size:9.96px;font-family:CMR10;}.cls-2,.cls-3,.cls-4{fill:none;stroke:#000;}.cls-2,.cls-3{stroke-miterlimit:10;}.cls-2{stroke-width:0.57px;}.cls-3,.cls-4{stroke-width:0.4px;}.cls-4{stroke-linecap:round;stroke-linejoin:round;}.cls-5{fill:#95d4e9;}</style></defs><path d="M40.38,39.28a2.24,2.24,0,0,1-1-.28,3.54,3.54,0,0,1-1-.81A5.92,5.92,0,0,1,37,36.07a8.43,8.43,0,0,1-.47-2.87,8.18,8.18,0,0,1,.48-2.84,6.18,6.18,0,0,1,1.28-2.12,4.1,4.1,0,0,1,1.06-.83,2.23,2.23,0,0,1,1-.28c.31,0,.46.14.46.4a.69.69,0,0,1-.05.24c0,.08-.08.13-.11.14a3.06,3.06,0,0,0-1.61,1A5.31,5.31,0,0,0,38,30.76a7.73,7.73,0,0,0-.38,2.43A7.85,7.85,0,0,0,38,35.66a5.27,5.27,0,0,0,1.08,1.89,3.11,3.11,0,0,0,1.61,1s.07.05.11.14a.68.68,0,0,1,.05.23c0,.27-.15.4-.46.4Zm1.28-2.77a.78.78,0,0,1-.39-.12c-.11-.08-.16-.14-.14-.19l3.33-8.72a.51.51,0,0,1,.24-.28,1.4,1.4,0,0,1,.53-.08,1.36,1.36,0,0,1,.53.08.49.49,0,0,1,.25.28l3.34,8.72s0,.11-.15.19a.82.82,0,0,1-.41.12c-.32,0-.54-.13-.67-.5l-1-2.52H43.3l-1,2.54a.71.71,0,0,1-.27.4.52.52,0,0,1-.38.08Zm5.19-3.91-1.63-4.36L43.57,32.6Zm2.7,6.68c-.31,0-.47-.13-.47-.4a.53.53,0,0,1,.06-.23.3.3,0,0,1,.1-.14,3.09,3.09,0,0,0,1.62-1,5,5,0,0,0,1.07-1.89,7.85,7.85,0,0,0,.38-2.47,7.75,7.75,0,0,0-.38-2.44,5,5,0,0,0-1.07-1.87,3,3,0,0,0-1.62-1s-.07-.06-.11-.14a.69.69,0,0,1-.05-.24c0-.26.16-.4.47-.4a2.18,2.18,0,0,1,1,.3,4,4,0,0,1,1.08.88,5.86,5.86,0,0,1,1.23,2.1,8,8,0,0,1,.48,2.79A8.41,8.41,0,0,1,52.91,36a6,6,0,0,1-1.24,2.11,4.09,4.09,0,0,1-1.09.87,2.16,2.16,0,0,1-1,.29Z"/><text class="cls-1" transform="translate(57.75 30.82)">1</text><line class="cls-2" x1="57.75" y1="32.89" x2="62.73" y2="32.89"/><text class="cls-1" transform="translate(57.75 41.42)">2</text><path d="M93,39.28A2.21,2.21,0,0,1,92,39a3.7,3.7,0,0,1-1.06-.81,5.9,5.9,0,0,1-1.27-2.12,8.65,8.65,0,0,1,0-5.71A6,6,0,0,1,91,28.24a3.91,3.91,0,0,1,1-.83,2.27,2.27,0,0,1,1-.28c.31,0,.46.14.46.4a.53.53,0,0,1-.06.24c0,.08-.07.13-.1.14a3.06,3.06,0,0,0-1.61,1,5,5,0,0,0-1.08,1.88,7.73,7.73,0,0,0-.38,2.43,7.85,7.85,0,0,0,.38,2.47,5,5,0,0,0,1.08,1.89,3.11,3.11,0,0,0,1.61,1s.06.05.1.14a.53.53,0,0,1,.06.23c0,.27-.15.4-.46.4Zm2.22-2.81a.58.58,0,0,1-.43-.17.67.67,0,0,1-.16-.46v-8a.69.69,0,0,1,.16-.46.58.58,0,0,1,.43-.17h2.93a3.54,3.54,0,0,1,2.24.62,2.14,2.14,0,0,1,.77,1.76,1.92,1.92,0,0,1-.43,1.3,2.41,2.41,0,0,1-1.26.74,2.71,2.71,0,0,1,1.57.81,2.16,2.16,0,0,1,.52,1.48,2.27,2.27,0,0,1-.84,1.94,4.18,4.18,0,0,1-2.54.63Zm2.86-5.13a2.09,2.09,0,0,0,1.44-.46,1.49,1.49,0,0,0,.52-1.19c0-1.07-.67-1.61-2-1.61H95.71v3.26Zm.06,4.24a2.91,2.91,0,0,0,1.76-.41,1.58,1.58,0,0,0,.55-1.34,1.47,1.47,0,0,0-.58-1.26,2.91,2.91,0,0,0-1.72-.42H95.71v3.43Zm4.27,3.7c-.32,0-.47-.13-.47-.4a.53.53,0,0,1,.06-.23.44.44,0,0,1,.09-.14,3.08,3.08,0,0,0,1.63-1,5,5,0,0,0,1.07-1.89,7.85,7.85,0,0,0,.37-2.47,7.75,7.75,0,0,0-.37-2.44,5,5,0,0,0-1.07-1.87,3,3,0,0,0-1.63-1,.37.37,0,0,1-.1-.14.69.69,0,0,1,0-.24c0-.26.15-.4.47-.4a2.18,2.18,0,0,1,1,.3,4,4,0,0,1,1.08.88,5.86,5.86,0,0,1,1.23,2.1,8,8,0,0,1,.48,2.79,8.41,8.41,0,0,1-.46,2.81,6,6,0,0,1-1.24,2.11,4.09,4.09,0,0,1-1.09.87,2.16,2.16,0,0,1-1,.29Z"/><text class="cls-1" transform="translate(110.61 30.82)">1</text><line class="cls-2" x1="110.61" y1="32.89" x2="115.59" y2="32.89"/><text class="cls-1" transform="translate(110.61 41.42)">3</text><path d="M141.1,39.28a2.21,2.21,0,0,1-1-.28,3.7,3.7,0,0,1-1.06-.81,5.9,5.9,0,0,1-1.27-2.12,8.65,8.65,0,0,1,0-5.71,6,6,0,0,1,1.28-2.12,3.91,3.91,0,0,1,1-.83,2.27,2.27,0,0,1,1-.28c.31,0,.46.14.46.4a.53.53,0,0,1-.06.24c0,.08-.07.13-.1.14a3.06,3.06,0,0,0-1.61,1,5,5,0,0,0-1.08,1.88,7.73,7.73,0,0,0-.38,2.43,7.85,7.85,0,0,0,.38,2.47,5,5,0,0,0,1.08,1.89,3.11,3.11,0,0,0,1.61,1s.06.05.1.14a.53.53,0,0,1,.06.23c0,.27-.15.4-.46.4Zm1.23-7.43a5.17,5.17,0,0,1,.58-2.49,4.26,4.26,0,0,1,1.6-1.71,4.92,4.92,0,0,1,4-.35,4.11,4.11,0,0,1,1.17.69,2.19,2.19,0,0,1,.45.53,1.1,1.1,0,0,1,.17.49.55.55,0,0,1-.15.4.72.72,0,0,1-.32.2c-.12,0-.19,0-.21,0a2.82,2.82,0,0,0-1.1-1.2,3.15,3.15,0,0,0-1.65-.45,3.22,3.22,0,0,0-1.78.49,3.27,3.27,0,0,0-1.21,1.36,4.57,4.57,0,0,0-.43,2,4.41,4.41,0,0,0,.44,2,3.32,3.32,0,0,0,1.22,1.37,3.35,3.35,0,0,0,1.79.48,3.06,3.06,0,0,0,1.8-.52,2.64,2.64,0,0,0,1-1.33s.08,0,.2,0a.92.92,0,0,1,.36.2.49.49,0,0,1,.15.38,1.24,1.24,0,0,1-.18.57,2.57,2.57,0,0,1-.52.64,3.57,3.57,0,0,1-1.2.71,4.68,4.68,0,0,1-1.67.28,4.6,4.6,0,0,1-2.36-.6,4.15,4.15,0,0,1-1.59-1.7,5.24,5.24,0,0,1-.57-2.48Zm9.14,7.43c-.31,0-.47-.13-.47-.4a.53.53,0,0,1,.06-.23c.05-.09.08-.13.1-.14a3.09,3.09,0,0,0,1.62-1,5,5,0,0,0,1.07-1.89,7.85,7.85,0,0,0,.38-2.47,7.75,7.75,0,0,0-.38-2.44,5,5,0,0,0-1.07-1.87,3,3,0,0,0-1.62-1,.24.24,0,0,1-.1-.14.53.53,0,0,1-.06-.24c0-.26.16-.4.47-.4a2.18,2.18,0,0,1,1,.3,4,4,0,0,1,1.08.88,5.86,5.86,0,0,1,1.23,2.1,8,8,0,0,1,.48,2.79,8.41,8.41,0,0,1-.46,2.81,6,6,0,0,1-1.24,2.11,4.09,4.09,0,0,1-1.09.87,2.16,2.16,0,0,1-1,.29Z"/><text class="cls-1" transform="translate(159.65 30.82)">1</text><line class="cls-2" x1="159.65" y1="32.89" x2="164.64" y2="32.89"/><text class="cls-1" transform="translate(159.65 41.42)">4</text><path d="M189.2,39.28a2.21,2.21,0,0,1-1-.28,3.7,3.7,0,0,1-1.06-.81,5.9,5.9,0,0,1-1.27-2.12,8.65,8.65,0,0,1,0-5.71,6,6,0,0,1,1.28-2.12,3.91,3.91,0,0,1,1-.83,2.27,2.27,0,0,1,1-.28c.31,0,.46.14.46.4a.53.53,0,0,1-.06.24c0,.08-.07.13-.1.14a3.06,3.06,0,0,0-1.61,1,5,5,0,0,0-1.08,1.88,7.73,7.73,0,0,0-.38,2.43,7.85,7.85,0,0,0,.38,2.47,5,5,0,0,0,1.08,1.89,3.11,3.11,0,0,0,1.61,1s.06.05.1.14a.53.53,0,0,1,.06.23c0,.27-.15.4-.46.4Zm1.63-11.46a.61.61,0,0,1,.18-.45.54.54,0,0,1,.41-.18h2.2a5.84,5.84,0,0,1,2.64.55,3.85,3.85,0,0,1,1.7,1.59,5.49,5.49,0,0,1,0,5,3.94,3.94,0,0,1-1.74,1.61,5.89,5.89,0,0,1-2.68.56h-2.08a.57.57,0,0,1-.44-.18.58.58,0,0,1-.18-.43Zm2.74,7.72a3.92,3.92,0,0,0,2.85-1,3.59,3.59,0,0,0,1-2.75,3.58,3.58,0,0,0-1-2.72,3.91,3.91,0,0,0-2.83-1h-1.68v7.42Zm5.73,3.74c-.32,0-.47-.13-.47-.4a.53.53,0,0,1,.06-.23c0-.09.07-.13.09-.14a3.08,3.08,0,0,0,1.63-1,5,5,0,0,0,1.07-1.89,7.85,7.85,0,0,0,.37-2.47,7.75,7.75,0,0,0-.37-2.44,5,5,0,0,0-1.07-1.87,3,3,0,0,0-1.63-1s-.06-.06-.1-.14a.52.52,0,0,1,0-.24c0-.26.15-.4.47-.4a2.21,2.21,0,0,1,1,.3,4.1,4.1,0,0,1,1.08.88,6,6,0,0,1,1.23,2.1,8,8,0,0,1,.48,2.79,8.41,8.41,0,0,1-.46,2.81,6,6,0,0,1-1.24,2.11,4.09,4.09,0,0,1-1.09.87,2.19,2.19,0,0,1-1,.29Z"/><text class="cls-1" transform="translate(207.48 30.82)">1</text><line class="cls-2" x1="207.48" y1="32.89" x2="212.46" y2="32.89"/><text class="cls-1" transform="translate(207.48 41.42)">5</text><path d="M237.3,39.28a2.21,2.21,0,0,1-1-.28,3.7,3.7,0,0,1-1.06-.81A5.9,5.9,0,0,1,234,36.07a8.65,8.65,0,0,1,0-5.71,6,6,0,0,1,1.28-2.12,3.91,3.91,0,0,1,1.05-.83,2.27,2.27,0,0,1,1-.28c.31,0,.46.14.46.4a.53.53,0,0,1-.06.24c0,.08-.07.13-.1.14a3.06,3.06,0,0,0-1.61,1,5,5,0,0,0-1.08,1.88,7.73,7.73,0,0,0-.38,2.43,7.85,7.85,0,0,0,.38,2.47A5,5,0,0,0,236,37.55a3.11,3.11,0,0,0,1.61,1s.06.05.1.14a.53.53,0,0,1,.06.23c0,.27-.15.4-.46.4Zm2.22-2.81a.57.57,0,0,1-.43-.16.64.64,0,0,1-.15-.45v-8a.69.69,0,0,1,.15-.46.58.58,0,0,1,.43-.17h5.34c.34,0,.5.15.5.44v.08c0,.29-.16.44-.5.44H240v3.1h3.72c.34,0,.51.14.51.43v.06c0,.29-.17.44-.51.44H240v3.33h5c.33,0,.5.14.5.43V36c0,.31-.17.46-.5.46Zm7,2.81c-.32,0-.47-.13-.47-.4a.53.53,0,0,1,.06-.23c0-.09.07-.13.09-.14a3.08,3.08,0,0,0,1.63-1,5,5,0,0,0,1.07-1.89,7.85,7.85,0,0,0,.37-2.47,7.75,7.75,0,0,0-.37-2.44,5,5,0,0,0-1.07-1.87,3,3,0,0,0-1.63-1s-.06-.06-.1-.14a.52.52,0,0,1-.05-.24c0-.26.15-.4.47-.4a2.21,2.21,0,0,1,1,.3,4.1,4.1,0,0,1,1.08.88,6,6,0,0,1,1.23,2.1,8,8,0,0,1,.48,2.79A8.41,8.41,0,0,1,249.9,36a6,6,0,0,1-1.24,2.11,4.09,4.09,0,0,1-1.09.87,2.19,2.19,0,0,1-1,.29Z"/><text class="cls-1" transform="translate(254.74 30.82)">1</text><line class="cls-2" x1="254.74" y1="32.89" x2="259.72" y2="32.89"/><text class="cls-1" transform="translate(254.74 41.42)">6</text><path d="M285.4,39.28a2.21,2.21,0,0,1-1-.28,3.7,3.7,0,0,1-1.06-.81,5.9,5.9,0,0,1-1.27-2.12,8.65,8.65,0,0,1,0-5.71,6,6,0,0,1,1.28-2.12,3.91,3.91,0,0,1,1-.83,2.27,2.27,0,0,1,1-.28c.31,0,.46.14.46.4a.53.53,0,0,1-.06.24c0,.08-.07.13-.1.14a3.06,3.06,0,0,0-1.61,1A5,5,0,0,0,283,30.76a7.73,7.73,0,0,0-.38,2.43,7.85,7.85,0,0,0,.38,2.47,5,5,0,0,0,1.08,1.89,3.11,3.11,0,0,0,1.61,1s.06.05.1.14a.53.53,0,0,1,.06.23c0,.27-.15.4-.46.4ZM287,27.82a.69.69,0,0,1,.15-.46.58.58,0,0,1,.43-.17h5c.33,0,.5.14.5.43v.09c0,.29-.17.44-.5.44h-4.55v3.43h3.36c.33,0,.5.14.5.43v.07a.39.39,0,0,1-.12.33.58.58,0,0,1-.38.1h-3.34V36a.48.48,0,0,1-.13.36.46.46,0,0,1-.35.12h-.16q-.45,0-.45-.54Zm7.21,11.46c-.31,0-.47-.13-.47-.4a.53.53,0,0,1,.06-.23c.05-.09.08-.13.1-.14a3.09,3.09,0,0,0,1.62-1,5,5,0,0,0,1.07-1.89,7.85,7.85,0,0,0,.38-2.47,7.75,7.75,0,0,0-.38-2.44,5,5,0,0,0-1.07-1.87,3,3,0,0,0-1.62-1,.24.24,0,0,1-.1-.14.53.53,0,0,1-.06-.24c0-.26.16-.4.47-.4a2.18,2.18,0,0,1,1,.3,4,4,0,0,1,1.08.88,5.86,5.86,0,0,1,1.23,2.1,8,8,0,0,1,.48,2.79,8.41,8.41,0,0,1-.46,2.81,6.19,6.19,0,0,1-1.23,2.11,4.29,4.29,0,0,1-1.1.87,2.16,2.16,0,0,1-1,.29Z"/><text class="cls-1" transform="translate(302.45 30.82)">1</text><line class="cls-2" x1="302.45" y1="32.89" x2="307.43" y2="32.89"/><text class="cls-1" transform="translate(302.45 41.42)">7</text><path d="M333.5,39.28a2.24,2.24,0,0,1-1-.28,3.54,3.54,0,0,1-1.05-.81,5.78,5.78,0,0,1-1.28-2.12,8.82,8.82,0,0,1,0-5.71,6,6,0,0,1,1.28-2.12,4.06,4.06,0,0,1,1.05-.83,2.3,2.3,0,0,1,1-.28c.31,0,.46.14.46.4a.53.53,0,0,1-.06.24c0,.08-.07.13-.1.14a3.06,3.06,0,0,0-1.61,1,5.16,5.16,0,0,0-1.08,1.88,7.73,7.73,0,0,0-.38,2.43,7.85,7.85,0,0,0,.38,2.47,5.12,5.12,0,0,0,1.08,1.89,3.11,3.11,0,0,0,1.61,1s.06.05.1.14a.53.53,0,0,1,.06.23c0,.27-.15.4-.46.4Zm9-7.51A.61.61,0,0,1,343,32a.64.64,0,0,1,.15.49v4s0,.05-.11.07a.88.88,0,0,1-.24,0,.48.48,0,0,1-.41-.17,1.17,1.17,0,0,1-.16-.67v-.83A3,3,0,0,1,341,36.15a3.89,3.89,0,0,1-2,.48,4.07,4.07,0,0,1-2.24-.62,4,4,0,0,1-1.5-1.7,5.7,5.7,0,0,1-.52-2.46,5.34,5.34,0,0,1,.57-2.49,4.28,4.28,0,0,1,1.61-1.71,4.56,4.56,0,0,1,2.38-.62,4.67,4.67,0,0,1,1.6.26A3.71,3.71,0,0,1,342,28a2.27,2.27,0,0,1,.47.53.87.87,0,0,1,.17.47.54.54,0,0,1-.13.4.7.7,0,0,1-.31.18c-.12,0-.19,0-.22,0a2.66,2.66,0,0,0-1.09-1.14,3.24,3.24,0,0,0-1.66-.44,3.36,3.36,0,0,0-1.79.49,3.3,3.3,0,0,0-1.21,1.37,4.55,4.55,0,0,0-.43,2,4.71,4.71,0,0,0,.4,2,3.11,3.11,0,0,0,2.94,1.87,3,3,0,0,0,2-.69,2.51,2.51,0,0,0,.94-1.75v-.62H339.7c-.37,0-.56-.14-.56-.42v-.07c0-.27.19-.41.56-.41Zm1.78,7.51c-.31,0-.47-.13-.47-.4a.53.53,0,0,1,.06-.23c0-.09.08-.13.1-.14a3.09,3.09,0,0,0,1.62-1,5,5,0,0,0,1.07-1.89,7.85,7.85,0,0,0,.38-2.47,7.75,7.75,0,0,0-.38-2.44,5,5,0,0,0-1.07-1.87,3,3,0,0,0-1.62-1s-.07-.06-.11-.14a.69.69,0,0,1,0-.24c0-.26.16-.4.47-.4a2.18,2.18,0,0,1,1,.3,4,4,0,0,1,1.08.88,5.86,5.86,0,0,1,1.23,2.1,8,8,0,0,1,.48,2.79,8.41,8.41,0,0,1-.46,2.81,6,6,0,0,1-1.24,2.11,4.09,4.09,0,0,1-1.09.87,2.16,2.16,0,0,1-1,.29Z"/><text class="cls-1" transform="translate(352.46 30.82)">1</text><line class="cls-2" x1="352.46" y1="32.89" x2="357.44" y2="32.89"/><text class="cls-1" transform="translate(352.46 41.42)">8</text><path d="M381.6,39.28a2.24,2.24,0,0,1-1-.28,3.54,3.54,0,0,1-1-.81,5.78,5.78,0,0,1-1.28-2.12,8.82,8.82,0,0,1,0-5.71,6,6,0,0,1,1.28-2.12,4.06,4.06,0,0,1,1.05-.83,2.3,2.3,0,0,1,1-.28c.31,0,.46.14.46.4a.53.53,0,0,1-.06.24c0,.08-.07.13-.1.14a3.06,3.06,0,0,0-1.61,1,5.16,5.16,0,0,0-1.08,1.88,7.73,7.73,0,0,0-.38,2.43,7.85,7.85,0,0,0,.38,2.47,5.12,5.12,0,0,0,1.08,1.89,3.11,3.11,0,0,0,1.61,1s.06.05.1.14a.53.53,0,0,1,.06.23c0,.27-.15.4-.46.4Zm2.1-2.77c-.31,0-.46-.16-.46-.48v-8.4c0-.32.15-.48.46-.48h.14a.42.42,0,0,1,.47.48v3.71h5.3V27.63c0-.32.14-.48.44-.48h.16a.42.42,0,0,1,.47.48V36a.42.42,0,0,1-.47.48h-.16c-.3,0-.44-.16-.44-.48V32.3h-5.3V36a.42.42,0,0,1-.47.48Zm8.62,2.77c-.32,0-.48-.13-.48-.4a.55.55,0,0,1,.07-.23c0-.09.07-.13.09-.14a3.12,3.12,0,0,0,1.63-1,5.11,5.11,0,0,0,1.07-1.89,7.85,7.85,0,0,0,.37-2.47,7.75,7.75,0,0,0-.37-2.44,5.1,5.1,0,0,0-1.07-1.87,3.07,3.07,0,0,0-1.63-1s-.06-.06-.1-.14a.53.53,0,0,1-.06-.24c0-.26.16-.4.48-.4a2.21,2.21,0,0,1,1,.3,4.27,4.27,0,0,1,1.08.88,6.17,6.17,0,0,1,1.23,2.1,8,8,0,0,1,.47,2.79,8.16,8.16,0,0,1-.46,2.81,5.88,5.88,0,0,1-1.23,2.11,4.25,4.25,0,0,1-1.09.87,2.19,2.19,0,0,1-1,.29Z"/><text class="cls-1" transform="translate(400.51 30.82)">1</text><line class="cls-2" x1="400.51" y1="32.89" x2="405.5" y2="32.89"/><text class="cls-1" transform="translate(400.51 41.42)">9</text><path d="M429.7,39.28a2.24,2.24,0,0,1-1-.28,3.54,3.54,0,0,1-1.05-.81,5.92,5.92,0,0,1-1.28-2.12,8.82,8.82,0,0,1,0-5.71,6,6,0,0,1,1.28-2.12,4.1,4.1,0,0,1,1.06-.83,2.23,2.23,0,0,1,1-.28c.31,0,.46.14.46.4a.53.53,0,0,1-.06.24.24.24,0,0,1-.1.14,3.06,3.06,0,0,0-1.61,1,5.31,5.31,0,0,0-1.08,1.88,7.73,7.73,0,0,0-.38,2.43,7.85,7.85,0,0,0,.38,2.47,5.27,5.27,0,0,0,1.08,1.89,3.11,3.11,0,0,0,1.61,1s.07.05.1.14a.53.53,0,0,1,.06.23c0,.27-.15.4-.46.4Zm1.78-11.65q0-.48.45-.48h.15a.42.42,0,0,1,.48.48V36a.52.52,0,0,1-.12.36.51.51,0,0,1-.36.12h-.15q-.45,0-.45-.48Zm2.84,11.65c-.31,0-.47-.13-.47-.4a.53.53,0,0,1,.06-.23c0-.09.08-.13.1-.14a3.09,3.09,0,0,0,1.62-1,5,5,0,0,0,1.07-1.89,7.85,7.85,0,0,0,.38-2.47,7.75,7.75,0,0,0-.38-2.44,5,5,0,0,0-1.07-1.87,3,3,0,0,0-1.62-1,.24.24,0,0,1-.1-.14.53.53,0,0,1-.06-.24c0-.26.16-.4.47-.4a2.18,2.18,0,0,1,1,.3,4,4,0,0,1,1.08.88,5.86,5.86,0,0,1,1.23,2.1,8,8,0,0,1,.48,2.79,8.41,8.41,0,0,1-.46,2.81,6.19,6.19,0,0,1-1.23,2.11,4.29,4.29,0,0,1-1.1.87,2.16,2.16,0,0,1-1,.29Z"/><text class="cls-1" transform="translate(445.01 30.82)">1</text><line class="cls-2" x1="442.52" y1="32.89" x2="452.48" y2="32.89"/><text class="cls-1" transform="translate(442.52 41.42)">10</text><line class="cls-3" x1="92.77" y1="86.48" x2="149.46" y2="86.48"/><line class="cls-3" x1="191.98" y1="86.48" x2="418.36" y2="86.48"/><path class="cls-4" d="M416.48,84.09a3.16,3.16,0,0,0,2.08,2.39,3.18,3.18,0,0,0-2.08,2.39"/><line class="cls-3" x1="234.5" y1="83.49" x2="234.5" y2="89.47"/><line class="cls-3" x1="248.67" y1="83.49" x2="248.67" y2="89.47"/><line class="cls-3" x1="376.23" y1="83.49" x2="376.23" y2="89.47"/><path d="M234.48,99.6a3.16,3.16,0,0,1-1.75-.47,3,3,0,0,1-1.14-1.35,4.85,4.85,0,0,1-.4-2.06v-.86a4.93,4.93,0,0,1,.4-2.07,3,3,0,0,1,1.15-1.35,3.16,3.16,0,0,1,1.75-.47,3.21,3.21,0,0,1,1.77.47,2.94,2.94,0,0,1,1.15,1.35,4.85,4.85,0,0,1,.4,2.06v.84a4.93,4.93,0,0,1-.4,2.07,3.2,3.2,0,0,1-1.16,1.37,3.29,3.29,0,0,1-1.77.47Zm0-.82a2.07,2.07,0,0,0,1.73-.8,3.65,3.65,0,0,0,.61-2.25v-.88a3.68,3.68,0,0,0-.62-2.26,2.22,2.22,0,0,0-3.43,0,3.59,3.59,0,0,0-.61,2.24v.89a3.63,3.63,0,0,0,.62,2.24,2,2,0,0,0,1.7.82Z"/><path d="M376.55,99.42c-.27,0-.4-.15-.4-.45V92.44a1.1,1.1,0,0,1-.4.34,1.19,1.19,0,0,1-.54.12,1,1,0,0,1-.74-.26.64.64,0,0,1-.2-.49.66.66,0,0,1,.05-.25,1,1,0,0,1,.13-.19c.05,0,.08-.06.1,0a.92.92,0,0,0,.74.31,1,1,0,0,0,.71-.29,1.05,1.05,0,0,0,.33-.71h.35a.39.39,0,0,1,.43.45V99a.39.39,0,0,1-.43.45Z"/><circle class="cls-5" cx="248.67" cy="86.48" r="2.99" transform="translate(-10.64 40.95) rotate(-9.22)"/><line class="cls-3" x1="92.77" y1="136.78" x2="149.46" y2="136.78"/><line class="cls-3" x1="191.98" y1="136.78" x2="418.36" y2="136.78"/><path class="cls-4" d="M416.48,134.39a3.14,3.14,0,0,0,2.08,2.39,3.18,3.18,0,0,0-2.08,2.39"/><line class="cls-3" x1="234.5" y1="133.8" x2="234.5" y2="139.77"/><line class="cls-3" x1="376.23" y1="133.8" x2="376.23" y2="139.77"/><path d="M234.48,149.9a3.16,3.16,0,0,1-1.75-.47,3,3,0,0,1-1.14-1.35,4.85,4.85,0,0,1-.4-2.06v-.85a5,5,0,0,1,.4-2.08,3,3,0,0,1,1.15-1.35,3.16,3.16,0,0,1,1.75-.47,3.21,3.21,0,0,1,1.77.47,2.94,2.94,0,0,1,1.15,1.35,4.85,4.85,0,0,1,.4,2.06V146a4.9,4.9,0,0,1-.4,2.07,3,3,0,0,1-2.93,1.84Zm0-.82a2.07,2.07,0,0,0,1.73-.8,3.63,3.63,0,0,0,.61-2.25v-.88a3.7,3.7,0,0,0-.62-2.26,2.22,2.22,0,0,0-3.43,0,3.61,3.61,0,0,0-.61,2.24V146a3.63,3.63,0,0,0,.62,2.24,2,2,0,0,0,1.7.82Z"/><path d="M376.55,149.72c-.27,0-.4-.15-.4-.45v-6.53a1,1,0,0,1-.4.34,1.19,1.19,0,0,1-.54.12,1.07,1.07,0,0,1-.74-.25.68.68,0,0,1-.2-.5.66.66,0,0,1,.05-.25.7.7,0,0,1,.13-.18c.05-.05.08-.06.1-.06a.92.92,0,0,0,.74.31A1,1,0,0,0,376,142a1.05,1.05,0,0,0,.33-.71h.35a.39.39,0,0,1,.43.45v7.55a.39.39,0,0,1-.43.45Z"/><circle class="cls-5" cx="305.37" cy="136.78" r="2.99" transform="translate(-14.42 38.34) rotate(-7.02)"/><line class="cls-3" x1="92.77" y1="187.08" x2="149.46" y2="187.08"/><line class="cls-3" x1="191.98" y1="187.08" x2="418.36" y2="187.08"/><path class="cls-4" d="M416.48,184.69a3.16,3.16,0,0,0,2.08,2.39,3.18,3.18,0,0,0-2.08,2.39"/><line class="cls-3" x1="234.5" y1="184.1" x2="234.5" y2="190.07"/><line class="cls-3" x1="376.23" y1="184.1" x2="376.23" y2="190.07"/><path d="M234.48,200.2a3.16,3.16,0,0,1-1.75-.47,3,3,0,0,1-1.14-1.35,4.85,4.85,0,0,1-.4-2.06v-.85a5,5,0,0,1,.4-2.08,3,3,0,0,1,1.15-1.35,3.16,3.16,0,0,1,1.75-.47,3.21,3.21,0,0,1,1.77.47,2.94,2.94,0,0,1,1.15,1.35,4.85,4.85,0,0,1,.4,2.06v.84a4.9,4.9,0,0,1-.4,2.07,3,3,0,0,1-2.93,1.84Zm0-.82a2.07,2.07,0,0,0,1.73-.8,3.63,3.63,0,0,0,.61-2.25v-.88a3.7,3.7,0,0,0-.62-2.26,2.22,2.22,0,0,0-3.43,0,3.61,3.61,0,0,0-.61,2.24v.89a3.63,3.63,0,0,0,.62,2.24,2,2,0,0,0,1.7.82Z"/><path d="M376.55,200c-.27,0-.4-.15-.4-.45V193a1,1,0,0,1-.4.34,1.19,1.19,0,0,1-.54.12,1.07,1.07,0,0,1-.74-.25.68.68,0,0,1-.2-.5.66.66,0,0,1,.05-.25.7.7,0,0,1,.13-.18c.05,0,.08-.06.1-.06a.92.92,0,0,0,.74.31,1,1,0,0,0,.71-.29,1.05,1.05,0,0,0,.33-.71h.35a.39.39,0,0,1,.43.45v7.55a.39.39,0,0,1-.43.45Z"/><circle class="cls-5" cx="281.74" cy="187.08" r="2.99" transform="translate(-26.33 47.55) rotate(-9.22)"/><line class="cls-3" x1="92.77" y1="237.38" x2="149.46" y2="237.38"/><line class="cls-3" x1="191.98" y1="237.38" x2="418.36" y2="237.38"/><path class="cls-4" d="M416.48,235a3.14,3.14,0,0,0,2.08,2.39,3.18,3.18,0,0,0-2.08,2.4"/><line class="cls-3" x1="234.5" y1="234.4" x2="234.5" y2="240.37"/><line class="cls-3" x1="376.23" y1="234.4" x2="376.23" y2="240.37"/><path d="M234.48,250.51a3.17,3.17,0,0,1-1.75-.48,3,3,0,0,1-1.14-1.35,4.85,4.85,0,0,1-.4-2.06v-.85a5,5,0,0,1,.4-2.08,3.06,3.06,0,0,1,1.15-1.35,3.16,3.16,0,0,1,1.75-.47,3.21,3.21,0,0,1,1.77.47,2.94,2.94,0,0,1,1.15,1.35,4.85,4.85,0,0,1,.4,2.06v.84a5,5,0,0,1-.4,2.08,3.17,3.17,0,0,1-1.16,1.36,3.21,3.21,0,0,1-1.77.48Zm0-.83a2.07,2.07,0,0,0,1.73-.8,3.63,3.63,0,0,0,.61-2.25v-.88a3.7,3.7,0,0,0-.62-2.26,2.22,2.22,0,0,0-3.43,0,3.61,3.61,0,0,0-.61,2.24v.89a3.69,3.69,0,0,0,.62,2.25,2,2,0,0,0,1.7.81Z"/><path d="M376.55,250.32c-.27,0-.4-.15-.4-.45v-6.53a1,1,0,0,1-.4.34,1.19,1.19,0,0,1-.54.12,1.07,1.07,0,0,1-.74-.25.66.66,0,0,1-.2-.49.71.71,0,0,1,.05-.26.7.7,0,0,1,.13-.18c.05-.05.08-.06.1-.05a1,1,0,0,0,.74.31,1,1,0,0,0,.71-.3,1.05,1.05,0,0,0,.33-.71h.35a.39.39,0,0,1,.43.45v7.55a.39.39,0,0,1-.43.45Z"/><circle class="cls-5" cx="250.25" cy="237.39" r="2.99" transform="translate(-34.79 43.15) rotate(-9.22)"/><line class="cls-3" x1="92.77" y1="287.69" x2="149.46" y2="287.69"/><line class="cls-3" x1="191.98" y1="287.69" x2="418.36" y2="287.69"/><path class="cls-4" d="M416.48,285.29a3.18,3.18,0,0,0,2.08,2.4,3.14,3.14,0,0,0-2.08,2.39"/><line class="cls-3" x1="234.5" y1="284.7" x2="234.5" y2="290.67"/><line class="cls-3" x1="376.23" y1="284.7" x2="376.23" y2="290.67"/><path d="M234.48,300.81a3.17,3.17,0,0,1-1.75-.48,3,3,0,0,1-1.14-1.35,4.85,4.85,0,0,1-.4-2.06v-.85a5,5,0,0,1,.4-2.08,3.06,3.06,0,0,1,1.15-1.35,3.16,3.16,0,0,1,1.75-.47,3.21,3.21,0,0,1,1.77.47,2.94,2.94,0,0,1,1.15,1.35,4.85,4.85,0,0,1,.4,2.06v.84a5,5,0,0,1-.4,2.08,3.17,3.17,0,0,1-1.16,1.36,3.21,3.21,0,0,1-1.77.48Zm0-.83a2.07,2.07,0,0,0,1.73-.8,3.61,3.61,0,0,0,.61-2.25v-.88a3.7,3.7,0,0,0-.62-2.26,2.22,2.22,0,0,0-3.43,0,3.61,3.61,0,0,0-.61,2.24v.89a3.69,3.69,0,0,0,.62,2.25,2,2,0,0,0,1.7.81Z"/><path d="M376.55,300.63c-.27,0-.4-.16-.4-.46v-6.53a1,1,0,0,1-.4.34,1.19,1.19,0,0,1-.54.12,1.07,1.07,0,0,1-.74-.25.66.66,0,0,1-.2-.49.71.71,0,0,1,.05-.26.7.7,0,0,1,.13-.18c.05-.05.08-.06.1-.05a1,1,0,0,0,.74.31,1,1,0,0,0,.71-.3,1.05,1.05,0,0,0,.33-.71h.35a.39.39,0,0,1,.43.45v7.55c0,.3-.15.46-.43.46Z"/><path class="cls-5" d="M257.74,287.69a3,3,0,1,0-3,3A3,3,0,0,0,257.74,287.69Z"/><line class="cls-3" x1="92.77" y1="337.99" x2="149.46" y2="337.99"/><line class="cls-3" x1="191.98" y1="337.99" x2="418.36" y2="337.99"/><path class="cls-4" d="M416.48,335.59a3.18,3.18,0,0,0,2.08,2.4,3.14,3.14,0,0,0-2.08,2.39"/><line class="cls-3" x1="234.5" y1="335" x2="234.5" y2="340.97"/><line class="cls-3" x1="376.23" y1="335" x2="376.23" y2="340.97"/><path d="M234.48,351.11a3.25,3.25,0,0,1-1.75-.47,3.16,3.16,0,0,1-1.14-1.35,4.93,4.93,0,0,1-.4-2.07v-.85a4.93,4.93,0,0,1,.4-2.07,3,3,0,0,1,1.15-1.36,3.25,3.25,0,0,1,1.75-.47,3.29,3.29,0,0,1,1.77.47,2.94,2.94,0,0,1,1.15,1.35,4.85,4.85,0,0,1,.4,2.06v.84a5,5,0,0,1-.4,2.08,3.17,3.17,0,0,1-1.16,1.36,3.21,3.21,0,0,1-1.77.48Zm0-.83a2.07,2.07,0,0,0,1.73-.8,3.61,3.61,0,0,0,.61-2.25v-.88a3.65,3.65,0,0,0-.62-2.25,2.21,2.21,0,0,0-3.43,0,3.61,3.61,0,0,0-.61,2.24v.89a3.67,3.67,0,0,0,.62,2.25,2,2,0,0,0,1.7.81Z"/><path d="M376.55,350.93c-.27,0-.4-.15-.4-.46v-6.53a1,1,0,0,1-.4.34,1.2,1.2,0,0,1-.54.13,1.08,1.08,0,0,1-.74-.26.66.66,0,0,1-.2-.49.55.55,0,0,1,.05-.26.7.7,0,0,1,.13-.18c.05-.05.08-.06.1-.05a1,1,0,0,0,.74.31,1,1,0,0,0,.71-.29,1.1,1.1,0,0,0,.33-.72h.35a.39.39,0,0,1,.43.45v7.55c0,.31-.15.46-.43.46Z"/><circle class="cls-5" cx="269.93" cy="337.99" r="2.99" transform="translate(-106.93 550.3) rotate(-80.78)"/><line class="cls-3" x1="92.77" y1="388.29" x2="149.46" y2="388.29"/><line class="cls-3" x1="191.98" y1="388.29" x2="418.36" y2="388.29"/><path class="cls-4" d="M416.48,385.9a3.18,3.18,0,0,0,2.08,2.39,3.16,3.16,0,0,0-2.08,2.39"/><line class="cls-3" x1="234.5" y1="385.3" x2="234.5" y2="391.27"/><line class="cls-3" x1="376.23" y1="385.3" x2="376.23" y2="391.27"/><path d="M234.48,401.41a3.25,3.25,0,0,1-1.75-.47,3.16,3.16,0,0,1-1.14-1.35,4.93,4.93,0,0,1-.4-2.07v-.85a4.93,4.93,0,0,1,.4-2.07,3,3,0,0,1,1.15-1.36,3.25,3.25,0,0,1,1.75-.47,3.29,3.29,0,0,1,1.77.47,2.94,2.94,0,0,1,1.15,1.35,4.85,4.85,0,0,1,.4,2.06v.84a5,5,0,0,1-.4,2.08,3.17,3.17,0,0,1-1.16,1.36,3.21,3.21,0,0,1-1.77.48Zm0-.83a2.07,2.07,0,0,0,1.73-.8,3.61,3.61,0,0,0,.61-2.25v-.88a3.65,3.65,0,0,0-.62-2.25,2.21,2.21,0,0,0-3.43,0,3.61,3.61,0,0,0-.61,2.24v.89a3.67,3.67,0,0,0,.62,2.25,2,2,0,0,0,1.7.81Z"/><path d="M376.55,401.23c-.27,0-.4-.15-.4-.46v-6.53a1,1,0,0,1-.4.34,1.2,1.2,0,0,1-.54.13,1.08,1.08,0,0,1-.74-.26.66.66,0,0,1-.2-.49.55.55,0,0,1,.05-.26.7.7,0,0,1,.13-.18c.05,0,.08-.06.1,0a1,1,0,0,0,.74.31,1,1,0,0,0,.71-.29,1.1,1.1,0,0,0,.33-.72h.35a.39.39,0,0,1,.43.45v7.55c0,.31-.15.46-.43.46Z"/><circle class="cls-5" cx="258.12" cy="388.29" r="2.99" transform="translate(-58.86 46.36) rotate(-9.22)"/><line class="cls-3" x1="92.77" y1="438.59" x2="149.46" y2="438.59"/><line class="cls-3" x1="191.98" y1="438.59" x2="418.36" y2="438.59"/><path class="cls-4" d="M416.48,436.2a3.18,3.18,0,0,0,2.08,2.39,3.16,3.16,0,0,0-2.08,2.39"/><line class="cls-3" x1="234.5" y1="435.6" x2="234.5" y2="441.58"/><line class="cls-3" x1="376.23" y1="435.6" x2="376.23" y2="441.58"/><path d="M234.48,451.71a3.25,3.25,0,0,1-1.75-.47,3.16,3.16,0,0,1-1.14-1.35,4.93,4.93,0,0,1-.4-2.07V447a4.93,4.93,0,0,1,.4-2.07,3.09,3.09,0,0,1,1.15-1.36,3.25,3.25,0,0,1,1.75-.47,3.29,3.29,0,0,1,1.77.47,3,3,0,0,1,1.15,1.35,4.9,4.9,0,0,1,.4,2.07v.84a4.93,4.93,0,0,1-.4,2.07,3.17,3.17,0,0,1-1.16,1.36,3.21,3.21,0,0,1-1.77.48Zm0-.83a2.07,2.07,0,0,0,1.73-.8,3.61,3.61,0,0,0,.61-2.25V447a3.66,3.66,0,0,0-.62-2.26,2.21,2.21,0,0,0-3.43,0,3.61,3.61,0,0,0-.61,2.24v.89a3.65,3.65,0,0,0,.62,2.25,2,2,0,0,0,1.7.81Z"/><path d="M376.55,451.53c-.27,0-.4-.15-.4-.45v-6.54a1,1,0,0,1-.4.34,1.18,1.18,0,0,1-1.28-.13.66.66,0,0,1-.2-.49.55.55,0,0,1,.05-.26.7.7,0,0,1,.13-.18c.05,0,.08-.06.1-.05a1,1,0,0,0,.74.31,1,1,0,0,0,.71-.29,1.1,1.1,0,0,0,.33-.72h.35a.39.39,0,0,1,.43.45v7.56a.39.39,0,0,1-.43.45Z"/><circle class="cls-5" cx="262.85" cy="438.59" r="2.99" transform="translate(-66.86 47.77) rotate(-9.22)"/><line class="cls-3" x1="92.77" y1="488.89" x2="149.46" y2="488.89"/><line class="cls-3" x1="191.98" y1="488.89" x2="418.36" y2="488.89"/><path class="cls-4" d="M416.48,486.5a3.18,3.18,0,0,0,2.08,2.39,3.16,3.16,0,0,0-2.08,2.39"/><line class="cls-3" x1="234.5" y1="485.9" x2="234.5" y2="491.88"/><line class="cls-3" x1="376.23" y1="485.9" x2="376.23" y2="491.88"/><path d="M234.48,502a3.25,3.25,0,0,1-1.75-.47,3.16,3.16,0,0,1-1.14-1.35,4.93,4.93,0,0,1-.4-2.07v-.85a4.93,4.93,0,0,1,.4-2.07,3.09,3.09,0,0,1,1.15-1.36,3.25,3.25,0,0,1,1.75-.47,3.29,3.29,0,0,1,1.77.47,3,3,0,0,1,1.15,1.35,4.9,4.9,0,0,1,.4,2.07v.84a4.93,4.93,0,0,1-.4,2.07,3.17,3.17,0,0,1-1.16,1.36,3.21,3.21,0,0,1-1.77.48Zm0-.83a2,2,0,0,0,1.73-.8,3.61,3.61,0,0,0,.61-2.25v-.87a3.66,3.66,0,0,0-.62-2.26,2.21,2.21,0,0,0-3.43,0,3.63,3.63,0,0,0-.61,2.24v.89a3.65,3.65,0,0,0,.62,2.25,2,2,0,0,0,1.7.81Z"/><path d="M376.55,501.83c-.27,0-.4-.15-.4-.45v-6.54a1,1,0,0,1-.4.34,1.18,1.18,0,0,1-1.28-.13.66.66,0,0,1-.2-.49.55.55,0,0,1,.05-.26.7.7,0,0,1,.13-.18c.05,0,.08-.06.1-.05a1,1,0,0,0,.74.31,1,1,0,0,0,.71-.29,1.1,1.1,0,0,0,.33-.72h.35a.39.39,0,0,1,.43.45v7.56a.39.39,0,0,1-.43.45Z"/><circle class="cls-5" cx="252.22" cy="488.89" r="2.99"/></svg>