<svg id="Camada_1" data-name="Camada 1" xmlns="http://www.w3.org/2000/svg" viewBox="0 0 445.04 102.94"><defs><style>.cls-1,.cls-2,.cls-4{fill:none;stroke:#000;}.cls-1,.cls-4{stroke-miterlimit:10;}.cls-1,.cls-2{stroke-width:0.4px;}.cls-2{stroke-linecap:round;stroke-linejoin:round;}.cls-3{font-size:9.96px;font-family:CMR10;}.cls-4{stroke-width:0.57px;}</style></defs><line class="cls-1" x1="21.71" y1="46.51" x2="423.13" y2="46.51"/><path class="cls-2" d="M421.25,44.12a3.16,3.16,0,0,0,2.08,2.39,3.18,3.18,0,0,0-2.08,2.39"/><line class="cls-1" x1="59.98" y1="43.52" x2="59.98" y2="49.5"/><path d="M60,38.54A3.55,3.55,0,0,1,58,38a3.42,3.42,0,0,1-1.27-1.5,5.57,5.57,0,0,1-.44-2.29v-.95a5.62,5.62,0,0,1,.44-2.3A3.41,3.41,0,0,1,58,29.47,3.58,3.58,0,0,1,60,29a3.62,3.62,0,0,1,2,.52A3.35,3.35,0,0,1,63.21,31a5.41,5.41,0,0,1,.45,2.29v.94a5.49,5.49,0,0,1-.45,2.3A3.43,3.43,0,0,1,61.92,38a3.51,3.51,0,0,1-2,.53Zm0-.91a2.3,2.3,0,0,0,1.92-.89,4.08,4.08,0,0,0,.68-2.5v-1a4.07,4.07,0,0,0-.69-2.51,2.28,2.28,0,0,0-1.91-.9,2.25,2.25,0,0,0-1.9.9,4,4,0,0,0-.68,2.49v1a4,4,0,0,0,.69,2.49,2.26,2.26,0,0,0,1.89.91Z"/><line class="cls-1" x1="136.51" y1="43.52" x2="136.51" y2="49.5"/><path d="M136.87,38.54c-.3,0-.45-.16-.45-.5V30.78a1.08,1.08,0,0,1-.44.38,1.37,1.37,0,0,1-.61.14,1.16,1.16,0,0,1-.81-.29.7.7,0,0,1-.23-.54.68.68,0,0,1,.06-.29.53.53,0,0,1,.15-.2c.05-.05.08-.07.1-.06a1,1,0,0,0,.82.35,1.11,1.11,0,0,0,.8-.33,1.17,1.17,0,0,0,.36-.79H137c.32,0,.47.16.47.5V38c0,.34-.15.5-.47.5Z"/><line class="cls-1" x1="213.05" y1="43.52" x2="213.05" y2="49.5"/><path d="M210.64,38.54a.79.79,0,0,1-.54-.14.59.59,0,0,1-.16-.47v-.36a3,3,0,0,1,.39-1.57,3.37,3.37,0,0,1,1-1.08,11.57,11.57,0,0,1,1.48-.88c.61-.32,1.05-.56,1.33-.73a3.32,3.32,0,0,0,.71-.64,1.42,1.42,0,0,0,.3-.91,1.56,1.56,0,0,0-.55-1.25,2.18,2.18,0,0,0-1.5-.47,2.3,2.3,0,0,0-1.59.53,2.82,2.82,0,0,0-.8,1.37s-.06,0-.19,0a.75.75,0,0,1-.36-.17.47.47,0,0,1-.16-.39,1.56,1.56,0,0,1,.19-.68,2.52,2.52,0,0,1,.54-.73,3.53,3.53,0,0,1,1.05-.65,3.59,3.59,0,0,1,1.39-.25,3.25,3.25,0,0,1,2.23.72,2.49,2.49,0,0,1,.81,2,2.26,2.26,0,0,1-.35,1.27,3,3,0,0,1-.88.89,14.15,14.15,0,0,1-1.44.79,12.8,12.8,0,0,0-1.3.72,3,3,0,0,0-.84.79A2.06,2.06,0,0,0,211,37.3l0,.28h4.86c.35,0,.52.15.52.43v.09c0,.3-.17.44-.52.44Z"/><line class="cls-1" x1="289.59" y1="43.52" x2="289.59" y2="49.5"/><path d="M289.34,38.54a4.49,4.49,0,0,1-1.52-.24,3.14,3.14,0,0,1-1.08-.63,2.1,2.1,0,0,1-.5-.6,1.14,1.14,0,0,1-.17-.56.51.51,0,0,1,.14-.39.55.55,0,0,1,.31-.18c.11,0,.17,0,.18,0a2.18,2.18,0,0,0,.94,1.25,3,3,0,0,0,1.7.46,2.68,2.68,0,0,0,1.69-.5,1.81,1.81,0,0,0,0-2.72,2.71,2.71,0,0,0-1.72-.48h-.81c-.33,0-.5-.13-.5-.39v-.08c0-.27.16-.41.47-.41h.95a2.24,2.24,0,0,0,1.45-.42,1.46,1.46,0,0,0,.52-1.18,1.44,1.44,0,0,0-.56-1.19,2.41,2.41,0,0,0-1.54-.45,2.59,2.59,0,0,0-1.45.41,2.37,2.37,0,0,0-.9,1.06s-.07,0-.19,0a.93.93,0,0,1-.31-.19.48.48,0,0,1-.13-.35.89.89,0,0,1,.15-.44,2.16,2.16,0,0,1,.39-.48,3.4,3.4,0,0,1,1.07-.63,4.19,4.19,0,0,1,1.4-.23,3.58,3.58,0,0,1,2.3.65,2.16,2.16,0,0,1,.83,1.8,2,2,0,0,1-.43,1.3,2.24,2.24,0,0,1-1.22.72,2.69,2.69,0,0,1,1.4.88,2.31,2.31,0,0,1,.51,1.52,2.44,2.44,0,0,1-.91,2,3.87,3.87,0,0,1-2.49.73Z"/><line class="cls-1" x1="366.12" y1="43.52" x2="366.12" y2="49.5"/><path d="M367.65,38.54a.39.39,0,0,1-.32-.14.54.54,0,0,1-.12-.36V35.85h-4a.76.76,0,0,1-.5-.15.43.43,0,0,1-.19-.37v-.26a.84.84,0,0,1,.08-.34,3.82,3.82,0,0,1,.25-.4l3.62-4.67a1.48,1.48,0,0,1,.4-.42,1,1,0,0,1,.54-.11.93.93,0,0,1,.63.17.67.67,0,0,1,.19.54v5.1h1.18q.48,0,.48.42v.07q0,.42-.48.42h-1.18V38c0,.34-.15.5-.46.5Zm-.4-3.6V30.07l-3.76,4.87Z"/><text class="cls-3" transform="translate(57.49 60.9)">0</text><line class="cls-4" x1="57.49" y1="62.97" x2="62.47" y2="62.97"/><text class="cls-3" transform="translate(57.49 71.5)">4</text><text class="cls-3" transform="translate(76.62 60.9)">1</text><line class="cls-4" x1="76.62" y1="62.97" x2="81.6" y2="62.97"/><text class="cls-3" transform="translate(76.62 71.5)">4</text><text class="cls-3" transform="translate(95.75 60.9)">2</text><line class="cls-4" x1="95.76" y1="62.97" x2="100.74" y2="62.97"/><text class="cls-3" transform="translate(95.75 71.5)">4</text><text class="cls-3" transform="translate(114.89 60.9)">3</text><line class="cls-4" x1="114.89" y1="62.97" x2="119.87" y2="62.97"/><text class="cls-3" transform="translate(114.89 71.5)">4</text><text class="cls-3" transform="translate(134.02 60.9)">4</text><line class="cls-4" x1="134.02" y1="62.97" x2="139" y2="62.97"/><text class="cls-3" transform="translate(134.02 71.5)">4</text><text class="cls-3" transform="translate(153.16 60.9)">5</text><line class="cls-4" x1="153.16" y1="62.97" x2="158.14" y2="62.97"/><text class="cls-3" transform="translate(153.16 71.5)">4</text><text class="cls-3" transform="translate(172.29 60.9)">6</text><line class="cls-4" x1="172.29" y1="62.97" x2="177.27" y2="62.97"/><text class="cls-3" transform="translate(172.29 71.5)">4</text><text class="cls-3" transform="translate(191.42 60.9)">7</text><line class="cls-4" x1="191.43" y1="62.97" x2="196.41" y2="62.97"/><text class="cls-3" transform="translate(191.42 71.5)">4</text><text class="cls-3" transform="translate(210.56 60.9)">8</text><line class="cls-4" x1="210.56" y1="62.97" x2="215.54" y2="62.97"/><text class="cls-3" transform="translate(210.56 71.5)">4</text><text class="cls-3" transform="translate(229.69 60.9)">9</text><line class="cls-4" x1="229.69" y1="62.97" x2="234.68" y2="62.97"/><text class="cls-3" transform="translate(229.69 71.5)">4</text><text class="cls-3" transform="translate(246.34 60.9)">10</text><line class="cls-4" x1="246.34" y1="62.97" x2="256.3" y2="62.97"/><text class="cls-3" transform="translate(248.83 71.5)">4</text><text class="cls-3" transform="translate(265.47 60.9)">11</text><line class="cls-4" x1="265.47" y1="62.97" x2="275.43" y2="62.97"/><text class="cls-3" transform="translate(267.96 71.5)">4</text><text class="cls-3" transform="translate(284.6 60.9)">12</text><line class="cls-4" x1="284.61" y1="62.97" x2="294.57" y2="62.97"/><text class="cls-3" transform="translate(287.1 71.5)">4</text><text class="cls-3" transform="translate(303.74 60.9)">13</text><line class="cls-4" x1="303.74" y1="62.97" x2="313.7" y2="62.97"/><text class="cls-3" transform="translate(306.23 71.5)">4</text><text class="cls-3" transform="translate(322.87 60.9)">14</text><line class="cls-4" x1="322.87" y1="62.97" x2="332.84" y2="62.97"/><text class="cls-3" transform="translate(325.36 71.5)">4</text><text class="cls-3" transform="translate(342.01 60.9)">15</text><line class="cls-4" x1="342.01" y1="62.97" x2="351.97" y2="62.97"/><text class="cls-3" transform="translate(344.5 71.5)">4</text><text class="cls-3" transform="translate(361.14 60.9)">16</text><line class="cls-4" x1="361.14" y1="62.97" x2="371.11" y2="62.97"/><text class="cls-3" transform="translate(363.63 71.5)">4</text><text class="cls-3" transform="translate(380.28 60.9)">17</text><line class="cls-4" x1="380.28" y1="62.97" x2="390.24" y2="62.97"/><text class="cls-3" transform="translate(382.77 71.5)">4</text><text class="cls-3" transform="translate(399.41 60.9)">18</text><line class="cls-4" x1="399.41" y1="62.97" x2="409.37" y2="62.97"/><text class="cls-3" transform="translate(401.9 71.5)">4</text><line class="cls-1" x1="79.11" y1="48.51" x2="79.11" y2="44.52"/><line class="cls-1" x1="98.25" y1="48.51" x2="98.25" y2="44.52"/><line class="cls-1" x1="117.38" y1="48.51" x2="117.38" y2="44.52"/><line class="cls-1" x1="155.65" y1="48.51" x2="155.65" y2="44.52"/><line class="cls-1" x1="174.78" y1="48.51" x2="174.78" y2="44.52"/><line class="cls-1" x1="193.92" y1="48.51" x2="193.92" y2="44.52"/><line class="cls-1" x1="232.18" y1="48.51" x2="232.18" y2="44.52"/><line class="cls-1" x1="251.32" y1="48.51" x2="251.32" y2="44.52"/><line class="cls-1" x1="270.45" y1="48.51" x2="270.45" y2="44.52"/><line class="cls-1" x1="308.72" y1="48.51" x2="308.72" y2="44.52"/><line class="cls-1" x1="327.86" y1="48.51" x2="327.86" y2="44.52"/><line class="cls-1" x1="346.99" y1="48.51" x2="346.99" y2="44.52"/><line class="cls-1" x1="385.26" y1="48.51" x2="385.26" y2="44.52"/><line class="cls-1" x1="404.39" y1="48.51" x2="404.39" y2="44.52"/></svg>