<svg id="Camada_1" data-name="Camada 1" xmlns="http://www.w3.org/2000/svg" xmlns:xlink="http://www.w3.org/1999/xlink" viewBox="0 0 88.9 40.16"><defs><style>.cls-1,.cls-2{fill:none;}.cls-2{stroke:#000;stroke-miterlimit:10;stroke-width:0.4px;}.cls-3{clip-path:url(#clip-path);}.cls-4{fill:#e6164d;}.cls-5{fill:#95d4e9;opacity:0.3;}</style><clipPath id="clip-path"><polygon class="cls-1" points="44.45 11.58 29.72 3.07 14.99 11.58 14.99 28.59 29.72 37.09 44.45 28.59 59.18 37.09 73.91 28.59 73.91 11.58 59.18 3.07 44.45 11.58"/></clipPath></defs><polygon class="cls-2" points="44.45 11.58 29.72 3.07 14.99 11.58 14.99 28.59 29.72 37.09 44.45 28.59 59.18 37.09 73.91 28.59 73.91 11.58 59.18 3.07 44.45 11.58"/><g class="cls-3"><rect class="cls-4" x="12.71" y="3.07" width="17.01" height="34.02"/><rect class="cls-2" x="12.71" y="3.07" width="17.01" height="34.02"/><rect class="cls-5" x="29.72" y="3.07" width="51.02" height="34.02"/><rect class="cls-2" x="29.72" y="3.07" width="51.02" height="34.02"/></g></svg>