<svg id="Camada_1" data-name="Camada 1" xmlns="http://www.w3.org/2000/svg" viewBox="0 0 20.65 21.28"><defs><style>.cls-1{fill:#95d4e9;opacity:0.3;}.cls-2{fill:none;stroke:#000;stroke-miterlimit:10;stroke-width:0.4px;}</style></defs><path class="cls-1" d="M10.32,11.51l5.34,7.34-1-5.94L19,8.71l-8.63,2.8m0,0L5,18.85,10,16l5.65,2.82-5.34-7.34m0,0L1.7,8.71l4.22,3.9L5,18.85l5.33-7.34m0,0V2.44L7.66,7.84l-6,.87,8.62,2.8m0,0L19,8.71l-6-.87-2.67-5.4v9.07"/><path class="cls-2" d="M15.66,18.85l-1-5.94L19,8.71M5,18.85,10,16l5.65,2.82M1.7,8.71l4.22,3.9L5,18.85M10.32,2.44,7.66,7.84l-6,.87M19,8.71l-6-.87-2.67-5.4"/></svg>