<svg id="Camada_1" data-name="Camada 1" xmlns="http://www.w3.org/2000/svg" viewBox="0 0 461.82 173.39"><defs><style>.cls-1{fill:#feede0;}.cls-10,.cls-11,.cls-2{fill:none;stroke-miterlimit:10;}.cls-2{stroke:#fff;}.cls-11,.cls-2{stroke-width:0.71px;}.cls-3{fill:#94d4e9;}.cls-4{fill:#e5114c;}.cls-5{fill:#547332;}.cls-6{fill:#7b2978;}.cls-7{fill:#f9c175;}.cls-8{fill:#636663;}.cls-9{fill:#f28c5e;}.cls-10,.cls-11{stroke:#000;}.cls-10{stroke-width:0.4px;}</style></defs><circle cx="61.73" cy="37.05" r="28.35" transform="translate(-7.44 17.09) rotate(-14.87)"/><path d="M10.75,21a1.09,1.09,0,0,1-.39-.08,1.23,1.23,0,0,1-.32-.19q-.12-.11-.09-.18L13.25,12a.63.63,0,0,1,.32-.36,1.72,1.72,0,0,1,.7-.11,1.78,1.78,0,0,1,.71.11.65.65,0,0,1,.31.36l3.33,8.52s0,.1-.1.17a1.35,1.35,0,0,1-.32.19,1,1,0,0,1-.4.09.92.92,0,0,1-.88-.69l-.81-2.11H12.39l-.82,2.12a.86.86,0,0,1-.82.68Zm5-4-1.49-3.93L12.75,17ZM19,23.75c-.44,0-.66-.19-.66-.58a.61.61,0,0,1,.09-.31c.05-.11.1-.17.13-.17a3.18,3.18,0,0,0,1.62-.94,4.68,4.68,0,0,0,1-1.78,7.29,7.29,0,0,0,.36-2.33,7.09,7.09,0,0,0-.36-2.29,4.65,4.65,0,0,0-1-1.79,3.18,3.18,0,0,0-1.62-.93.55.55,0,0,1-.13-.2.64.64,0,0,1-.09-.3c0-.39.22-.58.66-.58a2.53,2.53,0,0,1,1.23.36,4.24,4.24,0,0,1,1.18,1A6.65,6.65,0,0,1,22.55,15,7.88,7.88,0,0,1,23,17.65a7.79,7.79,0,0,1-.43,2.65,6.77,6.77,0,0,1-1.15,2.07,4.35,4.35,0,0,1-1.2,1,2.57,2.57,0,0,1-1.25.36Z"/><circle class="cls-1" cx="152.09" cy="37.4" r="28.35" transform="translate(-4.51 40.29) rotate(-14.87)"/><line class="cls-2" x1="152.09" y1="65.75" x2="152.09" y2="9.06"/><path d="M102.35,20.91a.75.75,0,0,1-.57-.23.85.85,0,0,1-.22-.61V12.46a.85.85,0,0,1,.22-.61.75.75,0,0,1,.57-.23h3.05a3.78,3.78,0,0,1,2.33.62,2.13,2.13,0,0,1,.8,1.79,1.92,1.92,0,0,1-.41,1.25,2.45,2.45,0,0,1-1.22.75,2.61,2.61,0,0,1,1.5.83,2.18,2.18,0,0,1,.51,1.45,2.27,2.27,0,0,1-.87,2,4.43,4.43,0,0,1-2.66.65Zm2.87-5.24a2,2,0,0,0,1.3-.39,1.32,1.32,0,0,0,.48-1.07c0-.93-.61-1.4-1.81-1.4H103v2.86Zm.06,4a2.8,2.8,0,0,0,1.61-.36,1.35,1.35,0,0,0,.49-1.17c0-1-.68-1.46-2.06-1.46H103v3Zm4.62,4c-.44,0-.66-.19-.66-.58a.6.6,0,0,1,.08-.31c.06-.11.1-.17.13-.17a3.25,3.25,0,0,0,1.63-.94,4.81,4.81,0,0,0,1-1.78,7.29,7.29,0,0,0,.36-2.33,7.09,7.09,0,0,0-.36-2.29,4.67,4.67,0,0,0-1.05-1.79,3.18,3.18,0,0,0-1.62-.93.73.73,0,0,1-.13-.2.61.61,0,0,1-.08-.3c0-.39.22-.58.66-.58a2.47,2.47,0,0,1,1.22.36,4.27,4.27,0,0,1,1.19,1A6.63,6.63,0,0,1,113.48,15a7.64,7.64,0,0,1,.45,2.65,8,8,0,0,1-.43,2.65,6.77,6.77,0,0,1-1.15,2.07,4.39,4.39,0,0,1-1.21,1,2.54,2.54,0,0,1-1.24.36Z"/><circle class="cls-3" cx="242.45" cy="37.05" r="28.35" transform="translate(-2.63 46.52) rotate(-10.9)"/><line class="cls-2" x1="242.45" y1="37.05" x2="267" y2="22.87"/><line class="cls-2" x1="242.45" y1="37.05" x2="217.9" y2="22.87"/><line class="cls-2" x1="242.45" y1="37.05" x2="242.45" y2="65.39"/><path d="M191.56,16.29a5,5,0,0,1,.61-2.51,4.34,4.34,0,0,1,1.67-1.73,4.8,4.8,0,0,1,2.44-.61,4.51,4.51,0,0,1,2.63.74,2.4,2.4,0,0,1,.64.63,1,1,0,0,1,.23.59.69.69,0,0,1-.19.51,1.17,1.17,0,0,1-.42.26c-.16.05-.24.07-.25,0a2.64,2.64,0,0,0-1.1-1.07,3.38,3.38,0,0,0-1.52-.37,3.17,3.17,0,0,0-1.66.44,3,3,0,0,0-1.13,1.23,3.84,3.84,0,0,0-.41,1.82,4,4,0,0,0,.41,1.81,3.12,3.12,0,0,0,2.82,1.69,3.2,3.2,0,0,0,1.67-.44,2.36,2.36,0,0,0,1-1.18s.1,0,.26,0a1.1,1.1,0,0,1,.46.25.69.69,0,0,1,.2.51,1.25,1.25,0,0,1-.24.64,2.46,2.46,0,0,1-.68.69,4.49,4.49,0,0,1-2.77.83,4.7,4.7,0,0,1-2.42-.61,4.24,4.24,0,0,1-1.66-1.7,5.15,5.15,0,0,1-.6-2.49Zm9.53,7.46c-.44,0-.66-.19-.66-.58a.61.61,0,0,1,.09-.31c0-.11.1-.17.12-.17a3.17,3.17,0,0,0,1.63-.94,4.68,4.68,0,0,0,1-1.78,7.29,7.29,0,0,0,.36-2.33,7.09,7.09,0,0,0-.36-2.29,4.78,4.78,0,0,0-1-1.79,3.16,3.16,0,0,0-1.63-.93.81.81,0,0,1-.12-.2.64.64,0,0,1-.09-.3c0-.39.22-.58.66-.58a2.53,2.53,0,0,1,1.23.36,4.24,4.24,0,0,1,1.18,1A6.65,6.65,0,0,1,204.68,15a7.88,7.88,0,0,1,.44,2.65,7.79,7.79,0,0,1-.43,2.65,6.77,6.77,0,0,1-1.15,2.07,4.35,4.35,0,0,1-1.2,1,2.57,2.57,0,0,1-1.25.36Z"/><circle class="cls-4" cx="333.17" cy="37.4" r="28.35" transform="translate(-1.06 63.68) rotate(-10.9)"/><line class="cls-2" x1="304.82" y1="37.4" x2="361.51" y2="37.4"/><line class="cls-2" x1="333.17" y1="65.75" x2="333.17" y2="9.06"/><path d="M282.28,12.46a.85.85,0,0,1,.23-.61.74.74,0,0,1,.56-.23h2.27a6.11,6.11,0,0,1,2.7.56,3.93,3.93,0,0,1,1.73,1.59,4.86,4.86,0,0,1,.6,2.47,4.84,4.84,0,0,1-.61,2.49A4,4,0,0,1,288,20.35a6.24,6.24,0,0,1-2.73.56H283.1a.79.79,0,0,1-.58-.25.78.78,0,0,1-.24-.57Zm3,7.17a3.69,3.69,0,0,0,2.64-.88,3.24,3.24,0,0,0,.94-2.49,3.23,3.23,0,0,0-.94-2.47,3.72,3.72,0,0,0-2.63-.89h-1.56v6.73Zm5.95,4.12c-.44,0-.66-.19-.66-.58a.61.61,0,0,1,.09-.31c.05-.11.1-.17.12-.17a3.17,3.17,0,0,0,1.63-.94,4.68,4.68,0,0,0,1-1.78,7.29,7.29,0,0,0,.36-2.33,7.09,7.09,0,0,0-.36-2.29,4.65,4.65,0,0,0-1-1.79,3.16,3.16,0,0,0-1.63-.93.81.81,0,0,1-.12-.2.64.64,0,0,1-.09-.3c0-.39.22-.58.66-.58a2.53,2.53,0,0,1,1.23.36,4.24,4.24,0,0,1,1.18,1A6.65,6.65,0,0,1,294.84,15a7.88,7.88,0,0,1,.44,2.65,7.79,7.79,0,0,1-.43,2.65,6.77,6.77,0,0,1-1.15,2.07,4.35,4.35,0,0,1-1.2,1,2.57,2.57,0,0,1-1.25.36Z"/><circle class="cls-5" cx="423.18" cy="37.4" r="28.35" transform="translate(0.56 80.7) rotate(-10.9)"/><line class="cls-2" x1="423.18" y1="37.4" x2="450.13" y2="28.64"/><line class="cls-2" x1="423.18" y1="37.4" x2="423.18" y2="9.06"/><line class="cls-2" x1="423.18" y1="37.4" x2="396.22" y2="28.64"/><line class="cls-2" x1="423.18" y1="37.4" x2="406.51" y2="60.34"/><line class="cls-2" x1="423.18" y1="37.4" x2="439.84" y2="60.34"/><path d="M373.43,20.91a.75.75,0,0,1-.57-.23.81.81,0,0,1-.22-.59V12.46a.89.89,0,0,1,.22-.61.75.75,0,0,1,.57-.23h5.38a.79.79,0,0,1,.52.16.62.62,0,0,1,.17.46v.09c0,.41-.23.61-.69.61h-4.69v2.6h3.63c.46,0,.69.2.69.59v0c0,.41-.23.62-.69.62h-3.63V19.6h4.78c.45,0,.67.2.67.59v.07a.58.58,0,0,1-.67.65Zm7.38,2.84c-.44,0-.66-.19-.66-.58a.71.71,0,0,1,.08-.31c.06-.11.1-.17.13-.17a3.21,3.21,0,0,0,1.63-.94A4.81,4.81,0,0,0,383,20a7.29,7.29,0,0,0,.36-2.33,7.09,7.09,0,0,0-.36-2.29,4.67,4.67,0,0,0-1-1.79,3.18,3.18,0,0,0-1.62-.93.73.73,0,0,1-.13-.2.75.75,0,0,1-.08-.3c0-.39.22-.58.66-.58a2.47,2.47,0,0,1,1.22.36,4.27,4.27,0,0,1,1.19,1A6.44,6.44,0,0,1,384.39,15a7.64,7.64,0,0,1,.45,2.65,7.79,7.79,0,0,1-.43,2.65,6.77,6.77,0,0,1-1.15,2.07,4.35,4.35,0,0,1-1.2,1,2.6,2.6,0,0,1-1.25.36Z"/><circle class="cls-6" cx="62.09" cy="133.98" r="28.35" transform="translate(-32.31 20.42) rotate(-14.87)"/><line class="cls-2" x1="62.09" y1="133.98" x2="90.43" y2="133.98"/><line class="cls-2" x1="62.09" y1="133.98" x2="76.26" y2="109.43"/><line class="cls-2" x1="62.09" y1="133.98" x2="47.91" y2="109.43"/><line class="cls-2" x1="62.09" y1="133.98" x2="33.74" y2="133.98"/><line class="cls-2" x1="62.09" y1="133.98" x2="47.91" y2="158.53"/><line class="cls-2" x1="62.09" y1="133.98" x2="76.26" y2="158.53"/><line class="cls-2" x1="62.09" y1="133.98" x2="90.43" y2="133.98"/><path d="M11.2,109.39a.84.84,0,0,1,.21-.6.75.75,0,0,1,.58-.23h5c.45,0,.68.2.68.6v.09c0,.41-.23.61-.68.61H12.66v3h3.22c.46,0,.68.2.68.59v0c0,.41-.22.61-.68.61H12.69v3.15c0,.45-.21.68-.64.68h-.23a.56.56,0,0,1-.46-.2.91.91,0,0,1-.16-.58Zm7.65,11.29q-.66,0-.66-.57a.63.63,0,0,1,.08-.32c.06-.1.1-.16.13-.17a3.23,3.23,0,0,0,1.63-.93,4.86,4.86,0,0,0,1-1.79,7.25,7.25,0,0,0,.36-2.33,7.14,7.14,0,0,0-.36-2.29A4.74,4.74,0,0,0,20,110.49a3.32,3.32,0,0,0-1.62-.93.8.8,0,0,1-.21-.5q0-.57.66-.57a2.47,2.47,0,0,1,1.22.36,4.23,4.23,0,0,1,1.19,1,6.69,6.69,0,0,1,1.17,2.09,7.58,7.58,0,0,1,.45,2.64,8,8,0,0,1-.43,2.65,6.66,6.66,0,0,1-1.15,2.07,4.39,4.39,0,0,1-1.21,1,2.54,2.54,0,0,1-1.24.36Z"/><circle class="cls-7" cx="152.09" cy="133.98" r="28.35" transform="translate(-29.29 43.53) rotate(-14.87)"/><line class="cls-2" x1="152.09" y1="133.98" x2="180.44" y2="133.98"/><line class="cls-2" x1="152.09" y1="133.98" x2="169.77" y2="111.82"/><line class="cls-2" x1="152.09" y1="133.98" x2="145.79" y2="106.35"/><line class="cls-2" x1="152.09" y1="133.98" x2="126.55" y2="121.68"/><line class="cls-2" x1="152.09" y1="133.98" x2="126.55" y2="146.28"/><line class="cls-2" x1="152.09" y1="133.98" x2="145.78" y2="161.62"/><line class="cls-2" x1="152.09" y1="133.98" x2="169.76" y2="156.14"/><line class="cls-2" x1="152.09" y1="133.98" x2="180.44" y2="133.98"/><path d="M109.18,113a.76.76,0,0,1,.59.22.92.92,0,0,1,.2.62v4s0,.06-.15.1a1.21,1.21,0,0,1-.34.05.73.73,0,0,1-.59-.26,1.51,1.51,0,0,1-.21-.93v-.18a2.92,2.92,0,0,1-1.24,1.09,4.1,4.1,0,0,1-1.85.39,4.34,4.34,0,0,1-2.32-.61,4.16,4.16,0,0,1-1.53-1.71,5.5,5.5,0,0,1-.54-2.47,5.17,5.17,0,0,1,.6-2.51,4.37,4.37,0,0,1,1.69-1.72,4.92,4.92,0,0,1,2.47-.62,5.18,5.18,0,0,1,1.47.19,3.79,3.79,0,0,1,1.13.5,2.75,2.75,0,0,1,.68.62,1.05,1.05,0,0,1,.24.61.67.67,0,0,1-.17.48,1.07,1.07,0,0,1-.39.26c-.14,0-.23,0-.24,0a2.82,2.82,0,0,0-1.15-1,3.45,3.45,0,0,0-1.54-.36,3.21,3.21,0,0,0-1.69.45,3,3,0,0,0-1.16,1.27,4.05,4.05,0,0,0-.42,1.87,4.37,4.37,0,0,0,.38,1.85,3,3,0,0,0,1.1,1.27,3,3,0,0,0,1.68.46,3.06,3.06,0,0,0,1.88-.57,2.26,2.26,0,0,0,.9-1.51v-.59h-2.18a1,1,0,0,1-.57-.13.49.49,0,0,1-.18-.43v-.07a.53.53,0,0,1,.18-.44,1,1,0,0,1,.57-.13Zm2.12,7.73q-.66,0-.66-.57a.65.65,0,0,1,.09-.32.37.37,0,0,1,.13-.17,3.17,3.17,0,0,0,1.62-.93,4.6,4.6,0,0,0,1-1.79,7.25,7.25,0,0,0,.36-2.33,7.14,7.14,0,0,0-.36-2.29,4.6,4.6,0,0,0-1-1.79,3.32,3.32,0,0,0-1.62-.93.48.48,0,0,1-.13-.19.64.64,0,0,1-.09-.31q0-.57.66-.57a2.53,2.53,0,0,1,1.23.36,4.2,4.2,0,0,1,1.18,1,6.7,6.7,0,0,1,1.18,2.09,8.26,8.26,0,0,1,0,5.29,6.46,6.46,0,0,1-1.15,2.07,4.35,4.35,0,0,1-1.2,1,2.57,2.57,0,0,1-1.25.36Z"/><circle class="cls-8" cx="242.81" cy="134.34" r="28.35" transform="translate(-21.02 48.34) rotate(-10.9)"/><line class="cls-2" x1="242.81" y1="134.34" x2="271.15" y2="134.34"/><line class="cls-2" x1="242.81" y1="134.34" x2="262.85" y2="114.29"/><line class="cls-2" x1="242.81" y1="134.34" x2="242.81" y2="105.99"/><line class="cls-2" x1="242.81" y1="134.34" x2="222.76" y2="114.29"/><line class="cls-2" x1="242.81" y1="134.34" x2="214.46" y2="134.34"/><line class="cls-2" x1="242.81" y1="134.34" x2="222.76" y2="154.38"/><line class="cls-2" x1="242.81" y1="134.34" x2="242.81" y2="162.68"/><line class="cls-2" x1="242.81" y1="134.34" x2="262.85" y2="154.38"/><line class="cls-2" x1="242.81" y1="134.34" x2="271.15" y2="134.34"/><path d="M192.54,117.9c-.41,0-.62-.23-.62-.68v-8c0-.45.21-.68.62-.68h.21c.43,0,.65.23.65.68v3.37h4.89v-3.37c0-.45.21-.68.62-.68h.21c.43,0,.65.23.65.68v8c0,.45-.22.68-.65.68h-.21c-.41,0-.62-.23-.62-.68v-3.38H193.4v3.38c0,.45-.22.68-.65.68Zm9,2.78q-.66,0-.66-.57a.65.65,0,0,1,.09-.32.37.37,0,0,1,.13-.17,3.17,3.17,0,0,0,1.62-.93,4.6,4.6,0,0,0,1-1.79,7.25,7.25,0,0,0,.36-2.33,7.14,7.14,0,0,0-.36-2.29,4.6,4.6,0,0,0-1-1.79,3.32,3.32,0,0,0-1.62-.93.48.48,0,0,1-.13-.19.64.64,0,0,1-.09-.31q0-.57.66-.57a2.53,2.53,0,0,1,1.23.36,4.2,4.2,0,0,1,1.18,1,6.7,6.7,0,0,1,1.18,2.09,8.26,8.26,0,0,1,0,5.29,6.46,6.46,0,0,1-1.15,2.07,4.35,4.35,0,0,1-1.2,1,2.57,2.57,0,0,1-1.25.36Z"/><circle class="cls-9" cx="332.81" cy="133.98" r="28.35" transform="translate(-19.33 65.36) rotate(-10.9)"/><line class="cls-2" x1="332.81" y1="133.98" x2="361.16" y2="133.98"/><line class="cls-2" x1="332.81" y1="133.98" x2="354.53" y2="115.76"/><line class="cls-2" x1="332.81" y1="133.98" x2="337.74" y2="106.07"/><line class="cls-2" x1="332.81" y1="133.98" x2="318.64" y2="109.43"/><line class="cls-2" x1="332.81" y1="133.98" x2="306.18" y2="124.29"/><line class="cls-2" x1="332.81" y1="133.98" x2="306.18" y2="143.68"/><line class="cls-2" x1="332.81" y1="133.98" x2="318.64" y2="158.53"/><line class="cls-2" x1="332.81" y1="133.98" x2="337.74" y2="161.9"/><line class="cls-2" x1="332.81" y1="133.98" x2="354.53" y2="152.2"/><line class="cls-2" x1="332.81" y1="133.98" x2="361.16" y2="133.98"/><path d="M282.41,109.18c0-.45.21-.68.63-.68h.2c.43,0,.65.23.65.68v8c0,.45-.22.68-.65.68H283c-.42,0-.63-.23-.63-.68Zm3.33,11.5q-.66,0-.66-.57a.65.65,0,0,1,.09-.32.37.37,0,0,1,.13-.17,3.17,3.17,0,0,0,1.62-.93,4.6,4.6,0,0,0,1-1.79,7.25,7.25,0,0,0,.36-2.33,7.14,7.14,0,0,0-.36-2.29,4.6,4.6,0,0,0-1-1.79,3.32,3.32,0,0,0-1.62-.93.48.48,0,0,1-.13-.19.64.64,0,0,1-.09-.31q0-.57.66-.57a2.53,2.53,0,0,1,1.23.36,4.2,4.2,0,0,1,1.18,1,6.7,6.7,0,0,1,1.18,2.09,8.26,8.26,0,0,1,0,5.29,6.66,6.66,0,0,1-1.15,2.07,4.35,4.35,0,0,1-1.2,1,2.57,2.57,0,0,1-1.25.36Z"/><circle class="cls-10" cx="423.53" cy="134.18" r="28.35" transform="translate(-17.73 82.51) rotate(-10.9)"/><line class="cls-11" x1="423.53" y1="134.18" x2="451.88" y2="134.18"/><line class="cls-11" x1="423.53" y1="134.18" x2="446.46" y2="117.52"/><line class="cls-11" x1="423.53" y1="134.18" x2="432.29" y2="107.22"/><line class="cls-11" x1="423.53" y1="134.18" x2="414.77" y2="107.22"/><line class="cls-11" x1="423.53" y1="134.18" x2="400.6" y2="117.52"/><line class="cls-11" x1="423.53" y1="134.18" x2="395.18" y2="134.18"/><line class="cls-11" x1="423.53" y1="134.18" x2="400.6" y2="150.84"/><line class="cls-11" x1="423.53" y1="134.18" x2="414.77" y2="161.14"/><line class="cls-11" x1="423.53" y1="134.18" x2="432.29" y2="161.14"/><line class="cls-11" x1="423.53" y1="134.18" x2="446.46" y2="150.84"/><line class="cls-11" x1="423.53" y1="134.18" x2="451.88" y2="134.18"/><path d="M371.65,116.53a.67.67,0,0,1,.15-.44,1.71,1.71,0,0,1,.33-.29c.12-.08.19-.1.2-.07a1.92,1.92,0,0,0,.69.75,1.79,1.79,0,0,0,1,.27,1.48,1.48,0,0,0,1.22-.47,2.61,2.61,0,0,0,.37-1.58v-5.52c0-.45.21-.68.63-.68h.22c.42,0,.63.23.63.68v5.53a3.71,3.71,0,0,1-.73,2.51,2.86,2.86,0,0,1-2.23.81,3.44,3.44,0,0,1-1.28-.23,2.22,2.22,0,0,1-.87-.56,1.07,1.07,0,0,1-.32-.71Zm7.06,4.15q-.66,0-.66-.57a.65.65,0,0,1,.09-.32c.06-.1.1-.16.13-.17a3.23,3.23,0,0,0,1.63-.93,4.86,4.86,0,0,0,1-1.79,7.25,7.25,0,0,0,.35-2.33,7.13,7.13,0,0,0-.35-2.29,4.74,4.74,0,0,0-1.05-1.79,3.32,3.32,0,0,0-1.62-.93.62.62,0,0,1-.13-.19.64.64,0,0,1-.09-.31q0-.57.66-.57a2.53,2.53,0,0,1,1.23.36,4.2,4.2,0,0,1,1.18,1,6.7,6.7,0,0,1,1.18,2.09,7.58,7.58,0,0,1,.44,2.64,7.79,7.79,0,0,1-.43,2.65,6.64,6.64,0,0,1-1.14,2.07,4.54,4.54,0,0,1-1.21,1,2.57,2.57,0,0,1-1.25.36Z"/></svg>