<svg id="Camada_1" data-name="Camada 1" xmlns="http://www.w3.org/2000/svg" viewBox="0 0 197.24 111.67"><defs><style>.cls-1{fill:#f28c5e;}.cls-2{fill:#95d4e9;}.cls-3{fill:none;stroke:#000;stroke-miterlimit:10;stroke-width:0.4px;}</style></defs><rect class="cls-1" x="19.25" y="16.15" width="79.37" height="79.37"/><rect class="cls-2" x="98.62" y="16.15" width="39.69" height="39.69"/><polygon class="cls-2" points="138.3 16.15 177.99 16.15 177.99 35.99 138.3 35.6 138.3 16.15"/><line class="cls-3" x1="19.25" y1="16.15" x2="19.25" y2="95.52"/><line class="cls-3" x1="19.25" y1="95.52" x2="98.62" y2="95.52"/><line class="cls-3" x1="98.62" y1="95.52" x2="177.99" y2="95.52"/><line class="cls-3" x1="177.99" y1="95.52" x2="177.99" y2="16.15"/><line class="cls-3" x1="177.99" y1="16.15" x2="19.25" y2="16.15"/><line class="cls-3" x1="98.62" y1="16.15" x2="98.62" y2="55.84"/><line class="cls-3" x1="138.3" y1="16.15" x2="138.3" y2="95.52"/><line class="cls-3" x1="19.25" y1="55.84" x2="177.99" y2="55.84"/><line class="cls-3" x1="19.25" y1="75.68" x2="177.99" y2="75.68"/><line class="cls-3" x1="58.93" y1="16.15" x2="58.93" y2="95.52"/><line class="cls-3" x1="19.25" y1="35.99" x2="177.99" y2="35.99"/><line class="cls-3" x1="98.62" y1="55.84" x2="98.62" y2="95.52"/></svg>