<svg id="Camada_1" data-name="Camada 1" xmlns="http://www.w3.org/2000/svg" viewBox="0 0 185.82 86.69"><defs><style>.cls-1{fill:#e6164d;}.cls-2,.cls-5{fill:none;stroke:#000;stroke-miterlimit:10;}.cls-2{stroke-width:0.4px;}.cls-3{fill:#95d4e9;opacity:0.3;}.cls-4{font-size:9.96px;font-family:CMR10;}.cls-5{stroke-width:0.57px;}</style></defs><circle class="cls-1" cx="57.55" cy="33.62" r="28.35" transform="matrix(0.98, -0.21, 0.21, 0.98, -5.72, 12.68)"/><circle class="cls-2" cx="57.55" cy="33.62" r="28.35" transform="matrix(0.98, -0.21, 0.21, 0.98, -5.72, 12.68)"/><line class="cls-2" x1="57.55" y1="33.62" x2="57.55" y2="61.96"/><line class="cls-2" x1="57.55" y1="33.62" x2="82.1" y2="19.44"/><line class="cls-2" x1="57.55" y1="33.62" x2="33.01" y2="19.44"/><circle class="cls-3" cx="125.59" cy="33.62" r="28.35" transform="translate(-4.09 24.36) rotate(-10.9)"/><circle class="cls-2" cx="125.59" cy="33.62" r="28.35" transform="translate(-4.09 24.36) rotate(-10.9)"/><path class="cls-1" d="M125.59,33.62,101,19.44A28.35,28.35,0,1,1,125.59,62Z"/><path class="cls-2" d="M125.59,33.62,101,19.44A28.35,28.35,0,1,1,125.59,62Z"/><line class="cls-2" x1="125.59" y1="33.62" x2="150.14" y2="19.44"/><text class="cls-4" transform="translate(4.15 71.21)">5</text><line class="cls-5" x1="4.15" y1="73.28" x2="9.13" y2="73.28"/><text class="cls-4" transform="translate(4.15 81.81)">3</text><path d="M16.42,77a3,3,0,0,1-1.62-.45,3.12,3.12,0,0,1-1.12-1.26,4,4,0,0,1-.41-1.88,4,4,0,0,1,.41-1.85,3.17,3.17,0,0,1,1.13-1.27,3,3,0,0,1,1.64-.45,2.94,2.94,0,0,1,1.51.38,2.41,2.41,0,0,1,1,.94v-4s0,0,.11-.08a.9.9,0,0,1,.25,0c.45,0,.67.31.67.92v8.42c0,.32-.15.49-.46.49h-.1a.4.4,0,0,1-.44-.46c0-.19,0-.49,0-.89a2.84,2.84,0,0,1-1,1.07,2.75,2.75,0,0,1-1.5.39Zm2.5-4.65a2.52,2.52,0,0,0-.87-1.2,2.28,2.28,0,0,0-1.42-.43,2.13,2.13,0,0,0-1.68.74,2.89,2.89,0,0,0-.65,2,3.18,3.18,0,0,0,.3,1.41,2.27,2.27,0,0,0,.82,1,2.13,2.13,0,0,0,1.19.35,2.31,2.31,0,0,0,1.16-.3,2.09,2.09,0,0,0,.84-.8,2.12,2.12,0,0,0,.31-1.14Zm2.44,2.73a1.76,1.76,0,0,1,1.13-1.69,9,9,0,0,1,3.56-.56h.16v-.29a1.79,1.79,0,0,0-.48-1.34,1.9,1.9,0,0,0-1.37-.47,2.39,2.39,0,0,0-1.3.33,2.22,2.22,0,0,0-.8.89.52.52,0,0,1-.19,0,.63.63,0,0,1-.3-.16.45.45,0,0,1-.14-.35.85.85,0,0,1,.11-.37,1.36,1.36,0,0,1,.31-.39,2.8,2.8,0,0,1,1-.59,4,4,0,0,1,1.4-.23,2.86,2.86,0,0,1,2.08.72,2.69,2.69,0,0,1,.73,2v4.24s0,0-.12.07a.78.78,0,0,1-.26,0q-.53,0-.6-.66,0-.41,0-.63a2.52,2.52,0,0,1-1,1,3.06,3.06,0,0,1-1.52.38,2.63,2.63,0,0,1-1.7-.52,1.72,1.72,0,0,1-.62-1.39Zm4.85-1.58H26a8,8,0,0,0-2.73.41,1.18,1.18,0,0,0-.84,1.13,1.05,1.05,0,0,0,.4.85,1.74,1.74,0,0,0,1.09.31A2.53,2.53,0,0,0,25.06,76a2.23,2.23,0,0,0,.84-.74,1.82,1.82,0,0,0,.31-1ZM33.77,77a1.79,1.79,0,0,1-1.41-.53,2.39,2.39,0,0,1-.47-1.62v-4h-.67c-.3,0-.45-.12-.45-.38v-.1q0-.39.45-.39h.67V68.81c0-.33.15-.5.46-.5h.11c.3,0,.45.17.45.5V70h1.73q.45,0,.45.39v.08c0,.27-.15.4-.46.4H32.89v3.82a1.94,1.94,0,0,0,.25,1.1.9.9,0,0,0,.77.34,1.16,1.16,0,0,0,1-.54l.1,0a.4.4,0,0,1,.13.17.54.54,0,0,1,.06.27.73.73,0,0,1-.26.53,1.66,1.66,0,0,1-1.19.4Zm2.17-3.59a3.74,3.74,0,0,1,.44-1.84,3.34,3.34,0,0,1,1.23-1.27,3.61,3.61,0,0,1,1.81-.46,3.53,3.53,0,0,1,1.79.46,3.23,3.23,0,0,1,1.22,1.29,3.78,3.78,0,0,1,.45,1.85,3.7,3.7,0,0,1-.45,1.83,3.13,3.13,0,0,1-1.23,1.27,3.46,3.46,0,0,1-1.79.46,3.5,3.5,0,0,1-1.8-.46,3.12,3.12,0,0,1-1.24-1.28,3.86,3.86,0,0,1-.43-1.85Zm5.93,0a3.09,3.09,0,0,0-.31-1.4,2.36,2.36,0,0,0-.88-1,2.26,2.26,0,0,0-1.26-.35,2.39,2.39,0,0,0-1.27.34,2.43,2.43,0,0,0-.89,1,3,3,0,0,0-.32,1.39,3.07,3.07,0,0,0,.32,1.4,2.43,2.43,0,0,0,.89,1,2.43,2.43,0,0,0,2.53,0,2.37,2.37,0,0,0,.88-1,3,3,0,0,0,.31-1.39Zm5.21-3.6a1.2,1.2,0,0,1,.74.21.64.64,0,0,1,.28.54.71.71,0,0,1-.06.31.86.86,0,0,1-.15.2c-.06,0-.1.06-.1,0a1.14,1.14,0,0,0-.82-.29,1.32,1.32,0,0,0-1.23.75,4.38,4.38,0,0,0-.41,2.08v2.71c0,.32-.15.49-.44.49h-.12a.43.43,0,0,1-.47-.49V70.08s0,0,.11-.07a.75.75,0,0,1,.26-.05q.54,0,.6.69c0,.33,0,.57,0,.75A2.26,2.26,0,0,1,46,70.25a1.68,1.68,0,0,1,1.12-.39ZM51.59,77a1.81,1.81,0,0,1-1.42-.53,2.39,2.39,0,0,1-.46-1.62v-4H49c-.29,0-.44-.12-.44-.38v-.1c0-.26.15-.39.44-.39h.68V68.81c0-.33.15-.5.46-.5h.11c.3,0,.45.17.45.5V70h1.73q.45,0,.45.39v.08c0,.27-.16.4-.46.4H50.71v3.82a1.86,1.86,0,0,0,.25,1.1.9.9,0,0,0,.77.34,1.16,1.16,0,0,0,1-.54l.1,0a.4.4,0,0,1,.13.17.54.54,0,0,1,.06.27.73.73,0,0,1-.26.53,1.68,1.68,0,0,1-1.19.4Zm2.16-1.92a1.78,1.78,0,0,1,1.13-1.69,9,9,0,0,1,3.56-.56h.16v-.29a1.79,1.79,0,0,0-.48-1.34,1.9,1.9,0,0,0-1.37-.47,2.41,2.41,0,0,0-1.3.33,2.12,2.12,0,0,0-.79.89.57.57,0,0,1-.2,0,.63.63,0,0,1-.3-.16.45.45,0,0,1-.13-.35.82.82,0,0,1,.1-.37,1.83,1.83,0,0,1,.31-.39,2.84,2.84,0,0,1,1-.59,3.93,3.93,0,0,1,1.39-.23,2.84,2.84,0,0,1,2.08.72,2.65,2.65,0,0,1,.73,2v4.24s0,0-.12.07a.73.73,0,0,1-.25,0q-.54,0-.6-.66,0-.41,0-.63a2.52,2.52,0,0,1-1,1,3.09,3.09,0,0,1-1.52.38,2.6,2.6,0,0,1-1.7-.52,1.7,1.7,0,0,1-.63-1.39Zm4.85-1.58h-.24a8,8,0,0,0-2.73.41,1.18,1.18,0,0,0-.84,1.13,1,1,0,0,0,.4.85,1.72,1.72,0,0,0,1.09.31A2.52,2.52,0,0,0,57.45,76a2.09,2.09,0,0,0,.84-.74,1.82,1.82,0,0,0,.31-1ZM64.14,72c-.31,0-.46-.14-.46-.42v-.1c0-.28.15-.42.46-.42h5.08a.5.5,0,0,1,.36.11.38.38,0,0,1,.11.31v.1c0,.28-.16.42-.47.42Zm0,3.22c-.31,0-.46-.14-.46-.41v-.1c0-.28.15-.42.46-.42h5.08a.5.5,0,0,1,.36.11.38.38,0,0,1,.11.31v.1c0,.27-.16.41-.47.41ZM75.7,76.92c-.29,0-.44-.17-.44-.5V69.16a1.19,1.19,0,0,1-.45.38,1.33,1.33,0,0,1-.6.14,1.19,1.19,0,0,1-.82-.29.76.76,0,0,1-.23-.55.64.64,0,0,1,.07-.28.54.54,0,0,1,.14-.2s.09-.07.11-.06a1,1,0,0,0,.82.34,1.08,1.08,0,0,0,.79-.32,1.16,1.16,0,0,0,.37-.8h.39c.31,0,.47.17.47.51v8.39c0,.33-.16.5-.47.5Zm7.82.1a1.79,1.79,0,0,1-1.41-.53,2.39,2.39,0,0,1-.47-1.62v-4H81c-.3,0-.45-.12-.45-.38v-.1q0-.39.45-.39h.67V68.81c0-.33.16-.5.46-.5h.12c.29,0,.44.17.44.5V70H84.4c.29,0,.44.13.44.39v.08c0,.27-.15.4-.46.4H82.65v3.82a2,2,0,0,0,.24,1.1.9.9,0,0,0,.78.34,1.13,1.13,0,0,0,1-.54.19.19,0,0,1,.1,0,.34.34,0,0,1,.13.17.54.54,0,0,1,.06.27.69.69,0,0,1-.26.53,1.65,1.65,0,0,1-1.19.4Zm2.17-3.59a3.85,3.85,0,0,1,.44-1.84,3.29,3.29,0,0,1,1.24-1.27,3.57,3.57,0,0,1,1.8-.46,3.53,3.53,0,0,1,1.79.46,3.32,3.32,0,0,1,1.23,1.29,3.89,3.89,0,0,1,.44,1.85,3.81,3.81,0,0,1-.44,1.83A3.22,3.22,0,0,1,91,76.56a3.43,3.43,0,0,1-1.79.46,3.5,3.5,0,0,1-1.8-.46,3.1,3.1,0,0,1-1.23-1.28,3.75,3.75,0,0,1-.44-1.85Zm5.94,0a3.1,3.1,0,0,0-.32-1.4,2.41,2.41,0,0,0-.87-1,2.31,2.31,0,0,0-1.27-.35A2.37,2.37,0,0,0,87,72a2.91,2.91,0,0,0-.33,1.39,3,3,0,0,0,.33,1.4,2.36,2.36,0,0,0,.89,1,2.29,2.29,0,0,0,1.26.36,2.36,2.36,0,0,0,2.14-1.3,3,3,0,0,0,.32-1.39Zm5.21-3.6a1.17,1.17,0,0,1,.73.21.64.64,0,0,1,.28.54.71.71,0,0,1-.06.31.53.53,0,0,1-.15.2c-.06,0-.09.06-.1,0a1.12,1.12,0,0,0-.82-.29,1.34,1.34,0,0,0-1.23.75,4.39,4.39,0,0,0-.4,2.08v2.71c0,.32-.15.49-.45.49h-.11a.43.43,0,0,1-.48-.49V70.08s0,0,.12-.07a.67.67,0,0,1,.26-.05q.52,0,.6.69c0,.33,0,.57,0,.75a2.13,2.13,0,0,1,.66-1.15,1.66,1.66,0,0,1,1.12-.39Zm4.5,7.16a1.79,1.79,0,0,1-1.41-.53,2.39,2.39,0,0,1-.47-1.62v-4h-.67c-.3,0-.45-.12-.45-.38v-.1q0-.39.45-.39h.67V68.81c0-.33.15-.5.46-.5H100c.3,0,.45.17.45.5V70h1.74c.29,0,.44.13.44.39v.08c0,.27-.15.4-.46.4h-1.73v3.82a2,2,0,0,0,.24,1.1.9.9,0,0,0,.77.34,1.16,1.16,0,0,0,1-.54l.1,0a.4.4,0,0,1,.13.17.54.54,0,0,1,.06.27.73.73,0,0,1-.26.53,1.66,1.66,0,0,1-1.19.4Zm2.17-1.92a1.77,1.77,0,0,1,1.12-1.69,9,9,0,0,1,3.57-.56h.16v-.29a1.79,1.79,0,0,0-.48-1.34,1.91,1.91,0,0,0-1.37-.47,2.39,2.39,0,0,0-1.3.33,2.15,2.15,0,0,0-.8.89.52.52,0,0,1-.19,0,.63.63,0,0,1-.3-.16.42.42,0,0,1-.14-.35.85.85,0,0,1,.11-.37,1.36,1.36,0,0,1,.31-.39,2.71,2.71,0,0,1,1-.59,4,4,0,0,1,1.39-.23,2.84,2.84,0,0,1,2.08.72,2.65,2.65,0,0,1,.73,2v4.24s0,0-.12.07a.69.69,0,0,1-.25,0q-.52,0-.6-.66,0-.41,0-.63a2.52,2.52,0,0,1-1,1,3.06,3.06,0,0,1-1.52.38,2.61,2.61,0,0,1-1.7-.52,1.69,1.69,0,0,1-.62-1.39Zm4.85-1.58h-.25a8,8,0,0,0-2.73.41,1.18,1.18,0,0,0-.84,1.13,1,1,0,0,0,.4.85,1.72,1.72,0,0,0,1.09.31,2.59,2.59,0,0,0,1.18-.27,2.23,2.23,0,0,0,.84-.74,1.89,1.89,0,0,0,.31-1Zm4.82,0a3.92,3.92,0,0,1,.43-1.86,3.34,3.34,0,0,1,1.21-1.29,3.29,3.29,0,0,1,1.74-.47,3.11,3.11,0,0,1,1.66.43,2.85,2.85,0,0,1,1.1,1.18,3.93,3.93,0,0,1,.38,1.76v.1a.31.31,0,0,1-.08.26.38.38,0,0,1-.27.07h-5.18a1,1,0,0,0,0,.2,2.55,2.55,0,0,0,.78,1.67,2.45,2.45,0,0,0,1.72.63,2.25,2.25,0,0,0,2.22-1.26.4.4,0,0,1,.19,0,.84.84,0,0,1,.28.18.48.48,0,0,1,.12.33.8.8,0,0,1-.14.4,1.55,1.55,0,0,1-.41.45,2.89,2.89,0,0,1-.94.52,4,4,0,0,1-1.34.21,3.71,3.71,0,0,1-1.82-.44,3.17,3.17,0,0,1-1.23-1.26,3.82,3.82,0,0,1-.43-1.84Zm5.51-.56a2.46,2.46,0,0,0-.62-1.62,2,2,0,0,0-1.51-.61,2.21,2.21,0,0,0-1.58.62,2.71,2.71,0,0,0-.79,1.61Z"/><text class="cls-4" transform="translate(123.84 71.21)">2</text><line class="cls-5" x1="123.84" y1="73.28" x2="128.82" y2="73.28"/><text class="cls-4" transform="translate(123.84 81.81)">3</text><path d="M136.11,77a3,3,0,0,1-1.62-.45,3.05,3.05,0,0,1-1.12-1.26,4,4,0,0,1-.41-1.88,4,4,0,0,1,.41-1.85,3.17,3.17,0,0,1,1.13-1.27,3,3,0,0,1,1.64-.45,2.94,2.94,0,0,1,1.51.38,2.41,2.41,0,0,1,1,.94v-4s0,0,.11-.08a.9.9,0,0,1,.25,0c.45,0,.67.31.67.92v8.42c0,.32-.15.49-.46.49h-.1a.4.4,0,0,1-.44-.46c0-.19,0-.49,0-.89A2.73,2.73,0,0,1,136.11,77Zm2.5-4.65a2.52,2.52,0,0,0-.87-1.2,2.31,2.31,0,0,0-1.43-.43,2.13,2.13,0,0,0-1.67.74,2.89,2.89,0,0,0-.65,2,3.32,3.32,0,0,0,.29,1.41,2.36,2.36,0,0,0,.83,1,2.13,2.13,0,0,0,1.19.35,2.31,2.31,0,0,0,1.16-.3,2.09,2.09,0,0,0,.84-.8,2.12,2.12,0,0,0,.31-1.14Zm2.44,2.73a1.77,1.77,0,0,1,1.12-1.69,9.08,9.08,0,0,1,3.57-.56h.16v-.29a1.79,1.79,0,0,0-.48-1.34,1.9,1.9,0,0,0-1.37-.47,2.39,2.39,0,0,0-1.3.33,2.15,2.15,0,0,0-.8.89.52.52,0,0,1-.19,0,.63.63,0,0,1-.3-.16.45.45,0,0,1-.14-.35.85.85,0,0,1,.11-.37,1.36,1.36,0,0,1,.31-.39,2.8,2.8,0,0,1,1-.59,4,4,0,0,1,1.39-.23,2.83,2.83,0,0,1,2.08.72,2.66,2.66,0,0,1,.74,2v4.24s0,0-.13.07a.69.69,0,0,1-.25,0q-.53,0-.6-.66,0-.41,0-.63a2.52,2.52,0,0,1-1,1,3.06,3.06,0,0,1-1.52.38,2.63,2.63,0,0,1-1.7-.52,1.72,1.72,0,0,1-.62-1.39Zm4.85-1.58h-.25a8,8,0,0,0-2.73.41,1.18,1.18,0,0,0-.84,1.13,1.05,1.05,0,0,0,.4.85,1.72,1.72,0,0,0,1.09.31,2.56,2.56,0,0,0,1.18-.27,2.23,2.23,0,0,0,.84-.74,1.89,1.89,0,0,0,.31-1Zm7.56,3.5a1.79,1.79,0,0,1-1.41-.53,2.34,2.34,0,0,1-.47-1.62v-4h-.68c-.29,0-.44-.12-.44-.38v-.1c0-.26.15-.39.44-.39h.68V68.81c0-.33.15-.5.46-.5h.11c.3,0,.45.17.45.5V70h1.73q.45,0,.45.39v.08c0,.27-.15.4-.46.4h-1.74v3.82a1.86,1.86,0,0,0,.25,1.1.9.9,0,0,0,.77.34,1.16,1.16,0,0,0,1-.54l.1,0a.4.4,0,0,1,.13.17.54.54,0,0,1,.06.27.73.73,0,0,1-.26.53,1.66,1.66,0,0,1-1.19.4Zm2.16-3.59a3.74,3.74,0,0,1,.45-1.84,3.34,3.34,0,0,1,1.23-1.27,3.61,3.61,0,0,1,1.81-.46,3.53,3.53,0,0,1,1.79.46,3.23,3.23,0,0,1,1.22,1.29,3.78,3.78,0,0,1,.45,1.85,3.7,3.7,0,0,1-.45,1.83,3.13,3.13,0,0,1-1.23,1.27,3.46,3.46,0,0,1-1.79.46,3.5,3.5,0,0,1-1.8-.46,3.12,3.12,0,0,1-1.24-1.28,3.86,3.86,0,0,1-.44-1.85Zm5.94,0a3.09,3.09,0,0,0-.31-1.4,2.36,2.36,0,0,0-.88-1,2.26,2.26,0,0,0-1.26-.35,2.39,2.39,0,0,0-1.27.34,2.43,2.43,0,0,0-.89,1,3,3,0,0,0-.32,1.39,3.07,3.07,0,0,0,.32,1.4,2.43,2.43,0,0,0,.89,1,2.43,2.43,0,0,0,2.53,0,2.37,2.37,0,0,0,.88-1,3,3,0,0,0,.31-1.39Zm5.21-3.6a1.2,1.2,0,0,1,.74.21.64.64,0,0,1,.28.54.71.71,0,0,1-.06.31.67.67,0,0,1-.16.2s-.09.06-.1,0a1.1,1.1,0,0,0-.81-.29,1.32,1.32,0,0,0-1.23.75,4.38,4.38,0,0,0-.41,2.08v2.71c0,.32-.15.49-.44.49h-.12a.43.43,0,0,1-.47-.49V70.08s0,0,.11-.07a.75.75,0,0,1,.26-.05q.54,0,.6.69c0,.33,0,.57,0,.75a2.26,2.26,0,0,1,.66-1.15,1.68,1.68,0,0,1,1.12-.39ZM171.28,77a1.81,1.81,0,0,1-1.42-.53,2.39,2.39,0,0,1-.46-1.62v-4h-.68c-.29,0-.44-.12-.44-.38v-.1c0-.26.15-.39.44-.39h.68V68.81c0-.33.15-.5.46-.5H170c.3,0,.45.17.45.5V70h1.73q.45,0,.45.39v.08c0,.27-.16.4-.46.4H170.4v3.82a1.86,1.86,0,0,0,.25,1.1.9.9,0,0,0,.77.34,1.16,1.16,0,0,0,1-.54.22.22,0,0,1,.1,0,.4.4,0,0,1,.13.17.54.54,0,0,1,.06.27.73.73,0,0,1-.26.53,1.68,1.68,0,0,1-1.19.4Zm2.16-1.92a1.78,1.78,0,0,1,1.13-1.69,9,9,0,0,1,3.56-.56h.16v-.29a1.79,1.79,0,0,0-.48-1.34,1.9,1.9,0,0,0-1.37-.47,2.39,2.39,0,0,0-1.3.33,2.12,2.12,0,0,0-.79.89.57.57,0,0,1-.2,0,.63.63,0,0,1-.3-.16.45.45,0,0,1-.13-.35.82.82,0,0,1,.1-.37,1.56,1.56,0,0,1,.31-.39,2.84,2.84,0,0,1,1-.59,3.93,3.93,0,0,1,1.39-.23,2.84,2.84,0,0,1,2.08.72,2.65,2.65,0,0,1,.73,2v4.24s0,0-.12.07a.73.73,0,0,1-.25,0c-.36,0-.56-.22-.61-.66,0-.27,0-.48,0-.63a2.52,2.52,0,0,1-1,1,3.09,3.09,0,0,1-1.52.38,2.6,2.6,0,0,1-1.7-.52,1.7,1.7,0,0,1-.63-1.39Zm4.85-1.58h-.24a8,8,0,0,0-2.74.41,1.19,1.19,0,0,0-.83,1.13,1,1,0,0,0,.4.85,1.7,1.7,0,0,0,1.09.31,2.52,2.52,0,0,0,1.17-.27,2.09,2.09,0,0,0,.84-.74,1.82,1.82,0,0,0,.31-1Z"/></svg>