<svg id="Camada_1" data-name="Camada 1" xmlns="http://www.w3.org/2000/svg" viewBox="0 0 294.54 99.25"><defs><style>.cls-1,.cls-2,.cls-5{fill:none;stroke:#000;}.cls-1,.cls-5{stroke-miterlimit:10;}.cls-1,.cls-2{stroke-width:0.4px;}.cls-2{stroke-linecap:round;stroke-linejoin:round;}.cls-3{font-size:14.35px;font-family:CMR12;}.cls-4{font-size:9.96px;font-family:CMR10;}.cls-5{stroke-width:0.57px;}</style></defs><line class="cls-1" x1="12.72" y1="37.38" x2="267.44" y2="37.38"/><path class="cls-2" d="M265.57,35a3.17,3.17,0,0,0,2.07,2.39,3.17,3.17,0,0,0-2.07,2.39"/><line class="cls-1" x1="55.24" y1="34.39" x2="55.24" y2="40.37"/><line class="cls-1" x1="97.76" y1="34.39" x2="97.76" y2="40.37"/><line class="cls-1" x1="140.28" y1="34.39" x2="140.28" y2="40.37"/><line class="cls-1" x1="182.8" y1="34.39" x2="182.8" y2="40.37"/><line class="cls-1" x1="225.32" y1="34.39" x2="225.32" y2="40.37"/><line class="cls-1" x1="55.24" y1="34.39" x2="55.24" y2="40.37"/><text class="cls-3" transform="translate(51.73 54.6)">0</text><line class="cls-1" x1="225.32" y1="34.39" x2="225.32" y2="40.37"/><text class="cls-3" transform="translate(221.81 54.6)">1</text><line class="cls-1" x1="97.76" y1="34.39" x2="97.76" y2="40.37"/><text class="cls-4" transform="translate(95.27 51.77)">1</text><line class="cls-5" x1="95.27" y1="53.83" x2="100.25" y2="53.83"/><text class="cls-4" transform="translate(95.27 62.37)">4</text><line class="cls-1" x1="182.8" y1="34.39" x2="182.8" y2="40.37"/><text class="cls-4" transform="translate(180.31 51.77)">3</text><line class="cls-5" x1="180.31" y1="53.83" x2="185.29" y2="53.83"/><text class="cls-4" transform="translate(180.31 62.37)">4</text><line class="cls-1" x1="140.28" y1="34.39" x2="140.28" y2="40.37"/><text class="cls-4" transform="translate(137.79 51.77)">1</text><line class="cls-5" x1="137.79" y1="53.83" x2="142.77" y2="53.83"/><text class="cls-4" transform="translate(137.79 62.37)">2</text></svg>