<?xml version="1.0" encoding="utf-8"?>
<!-- Generator: Adobe Illustrator 16.0.0, SVG Export Plug-In . SVG Version: 6.00 Build 0)  -->
<!DOCTYPE svg PUBLIC "-//W3C//DTD SVG 1.1//EN" "http://www.w3.org/Graphics/SVG/1.1/DTD/svg11.dtd">
<svg version="1.1" id="Layer_1" xmlns="http://www.w3.org/2000/svg" xmlns:xlink="http://www.w3.org/1999/xlink" x="0px" y="0px"
	 width="255.12px" height="184.25px" viewBox="0 0 255.12 184.25" enable-background="new 0 0 255.12 184.25" xml:space="preserve">
<polygon fill="#FFFFFF" stroke="#231F20" stroke-width="1.5" stroke-miterlimit="10" points="16.48,135.538 67.48,122.938 
	67.48,12.177 16.48,24.776 "/>
<rect x="68.159" y="12" fill="#FFFFFF" stroke="#231F20" stroke-width="1.5" stroke-miterlimit="10" width="52" height="111"/>
<polygon fill="#FFFFFF" stroke="#231F20" stroke-width="1.5" stroke-miterlimit="10" points="223.159,132.458 171.159,119.858 
	171.159,12.097 223.159,24.696 "/>
<rect x="120.159" y="12" fill="#FFFFFF" stroke="#231F20" stroke-width="1.5" stroke-miterlimit="10" width="51" height="111"/>
<polygon fill="#FFFFFF" points="64.562,13.645 68.902,12.697 73,14 73,122.464 68.58,121.646 64.402,122.464 "/>
<g>
	<g>
		<line fill="none" stroke="#231F20" stroke-miterlimit="10" x1="68.5" y1="15" x2="68.5" y2="17"/>
		<line fill="none" stroke="#231F20" stroke-miterlimit="10" stroke-dasharray="4,4" x1="68.5" y1="21" x2="68.5" y2="115"/>
		<line fill="none" stroke="#231F20" stroke-miterlimit="10" x1="68.5" y1="117" x2="68.5" y2="119"/>
	</g>
</g>
<polygon fill="#FFFFFF" points="115.562,13.645 119.902,12.697 124,14 124,122.464 119.58,121.646 115.402,122.464 "/>
<g>
	<g>
		<line fill="none" stroke="#231F20" stroke-miterlimit="10" x1="120.5" y1="14" x2="120.5" y2="16"/>
		<line fill="none" stroke="#231F20" stroke-miterlimit="10" stroke-dasharray="4,4" x1="120.5" y1="20" x2="120.5" y2="114"/>
		<line fill="none" stroke="#231F20" stroke-miterlimit="10" x1="120.5" y1="116" x2="120.5" y2="118"/>
	</g>
</g>
<polygon fill="#FFFFFF" points="175.04,13.645 170.398,12.697 166,14 166,122.464 170.721,121.646 175.049,122.464 "/>
<g>
	<g>
		<line fill="none" stroke="#231F20" stroke-miterlimit="10" x1="171.5" y1="15" x2="171.5" y2="17"/>
		<line fill="none" stroke="#231F20" stroke-miterlimit="10" stroke-dasharray="4,4" x1="171.5" y1="21" x2="171.5" y2="115"/>
		<line fill="none" stroke="#231F20" stroke-miterlimit="10" x1="171.5" y1="117" x2="171.5" y2="119"/>
	</g>
</g>
<g>
	<polygon fill="#FFFFFF" stroke="#231F20" stroke-width="1.5" stroke-miterlimit="10" points="136.159,161 188.159,158 188.159,47 
		136.159,50 	"/>
	<polygon fill="#FFFFFF" stroke="#231F20" stroke-width="1.5" stroke-miterlimit="10" points="239.159,161 188.159,158 188.159,47 
		239.159,50 	"/>
	<polygon fill="#FFFFFF" stroke="#231F20" stroke-width="1.5" stroke-miterlimit="10" points="183.159,173.458 136.159,160.858 
		136.159,50.097 183.159,62.696 	"/>
	<polygon fill="#FFFFFF" stroke="#231F20" stroke-width="1.5" stroke-miterlimit="10" points="194.159,173.458 240.159,160.858 
		240.159,50.097 194.159,62.696 	"/>
</g>
</svg>
