<svg id="Camada_1" data-name="Camada 1" xmlns="http://www.w3.org/2000/svg" xmlns:xlink="http://www.w3.org/1999/xlink" viewBox="0 0 88.9 33.06"><defs><style>.cls-1,.cls-2{fill:none;}.cls-2{stroke:#000;stroke-miterlimit:10;stroke-width:0.4px;}.cls-3{clip-path:url(#clip-path);}.cls-4{fill:#e6164d;}</style><clipPath id="clip-path"><polygon class="cls-1" points="31.84 9.16 19.07 1.79 6.3 9.16 6.3 23.9 19.07 31.27 31.84 23.9 44.6 31.27 57.37 23.9 70.13 31.27 82.9 23.9 82.9 9.16 70.13 1.79 57.37 9.16 44.6 1.79 31.84 9.16"/></clipPath></defs><polygon class="cls-2" points="31.84 9.16 19.07 1.79 6.3 9.16 6.3 23.9 19.07 31.27 31.84 23.9 44.6 31.27 57.37 23.9 70.13 31.27 82.9 23.9 82.9 9.16 70.13 1.79 57.37 9.16 44.6 1.79 31.84 9.16"/><g class="cls-3"><rect class="cls-4" x="0.33" y="1.79" width="91.33" height="29.48"/><rect class="cls-2" x="4.33" y="1.79" width="91.33" height="29.48"/></g></svg>