<svg id="Camada_1" data-name="Camada 1" xmlns="http://www.w3.org/2000/svg" viewBox="0 0 325.47 105.8"><defs><style>.cls-1{fill:#95d4e9;opacity:0.3;}.cls-2{fill:#e6164d;}.cls-3{fill:none;stroke:#000;stroke-miterlimit:10;stroke-width:0.4px;}.cls-4{fill:#f28c5e;}</style></defs><rect class="cls-1" x="26.67" y="24.06" width="113.39" height="56.69"/><rect class="cls-2" x="26.67" y="24.06" width="68.03" height="56.69"/><rect class="cls-3" x="26.67" y="24.06" width="113.39" height="56.69"/><line class="cls-3" x1="49.35" y1="80.75" x2="49.35" y2="24.06"/><line class="cls-3" x1="72.03" y1="80.75" x2="72.03" y2="24.06"/><line class="cls-3" x1="94.7" y1="80.75" x2="94.7" y2="24.06"/><line class="cls-3" x1="117.38" y1="80.75" x2="117.38" y2="24.06"/><rect class="cls-1" x="276.12" y="24.06" width="22.68" height="28.35"/><rect class="cls-1" x="253.45" y="52.41" width="45.35" height="28.35"/><rect class="cls-4" x="185.41" y="24.06" width="68.03" height="56.69"/><rect class="cls-4" x="253.45" y="24.06" width="22.68" height="28.35"/><rect class="cls-3" x="185.41" y="24.06" width="113.39" height="56.69"/><line class="cls-3" x1="208.09" y1="80.75" x2="208.09" y2="24.06"/><line class="cls-3" x1="230.77" y1="80.75" x2="230.77" y2="24.06"/><line class="cls-3" x1="253.45" y1="80.75" x2="253.45" y2="24.06"/><line class="cls-3" x1="276.12" y1="80.75" x2="276.12" y2="24.06"/><line class="cls-3" x1="185.41" y1="52.41" x2="298.8" y2="52.41"/></svg>