<svg id="Camada_1" data-name="Camada 1" xmlns="http://www.w3.org/2000/svg" xmlns:xlink="http://www.w3.org/1999/xlink" viewBox="0 0 88.9 38.2"><defs><style>.cls-1,.cls-2{fill:none;}.cls-2{stroke:#000;stroke-miterlimit:10;stroke-width:0.4px;}.cls-3{clip-path:url(#clip-path);}.cls-4{fill:#e6164d;}</style><clipPath id="clip-path"><polygon class="cls-1" points="31.84 11.73 19.07 4.36 6.3 11.73 6.3 26.47 19.07 33.84 31.84 26.47 44.6 33.84 57.37 26.47 70.13 33.84 82.9 26.47 82.9 11.73 70.13 4.36 57.37 11.73 44.6 4.36 31.84 11.73"/></clipPath></defs><polygon class="cls-2" points="31.84 11.73 19.07 4.36 6.3 11.73 6.3 26.47 19.07 33.84 31.84 26.47 44.6 33.84 57.37 26.47 70.13 33.84 82.9 26.47 82.9 11.73 70.13 4.36 57.37 11.73 44.6 4.36 31.84 11.73"/><g class="cls-3"><rect class="cls-4" x="4.33" y="4.36" width="91.33" height="29.48"/><rect class="cls-2" x="4.33" y="4.36" width="91.33" height="29.48"/></g></svg>