<svg id="Camada_1" data-name="Camada 1" xmlns="http://www.w3.org/2000/svg" viewBox="0 0 431.02 485.88"><defs><style>.cls-1,.cls-10,.cls-11,.cls-12,.cls-14,.cls-16,.cls-17,.cls-2,.cls-3,.cls-4,.cls-5,.cls-6,.cls-8{fill:none;stroke-miterlimit:10;}.cls-1,.cls-4,.cls-5{stroke:#e5114c;}.cls-1{stroke-width:1.25px;}.cls-2,.cls-3,.cls-6{stroke:#94d4e9;}.cls-2{stroke-width:0.94px;}.cls-3{stroke-width:0.66px;}.cls-4{stroke-width:0.88px;}.cls-5{stroke-width:0.88px;}.cls-6{stroke-width:0.66px;}.cls-15,.cls-7{fill:#94d4e9;}.cls-7{opacity:0.3;}.cls-10,.cls-11,.cls-12,.cls-14,.cls-17,.cls-8{stroke:#000;}.cls-8{stroke-width:0.07px;}.cls-13,.cls-9{fill:#e5114c;}.cls-10{stroke-width:0.39px;}.cls-11{stroke-width:0.05px;}.cls-12,.cls-14,.cls-16,.cls-17{stroke-width:0.47px;}.cls-13,.cls-14,.cls-15{opacity:0;}.cls-14{stroke-dasharray:3.5 2.33;}.cls-16{stroke:#bfbfbf;}.cls-16,.cls-17{stroke-dasharray:3.5 3.5;}</style></defs><line class="cls-1" x1="85.96" y1="26.54" x2="47.32" y2="93.46"/><line class="cls-1" x1="124.59" y1="93.46" x2="85.96" y2="26.54"/><line class="cls-2" x1="47.32" y1="93.46" x2="124.59" y2="93.46"/><path d="M23.05,36.31a1.84,1.84,0,0,1,1.14-1.74,8.71,8.71,0,0,1,3.5-.6h.18v-.14a1.6,1.6,0,0,0-.43-1.21,1.77,1.77,0,0,0-1.27-.41,2.17,2.17,0,0,0-1.23.32,2.05,2.05,0,0,0-.75.85s-.08,0-.25,0a.91.91,0,0,1-.43-.21.56.56,0,0,1-.2-.46,1.21,1.21,0,0,1,.48-.86,2.78,2.78,0,0,1,1-.56A4.4,4.4,0,0,1,26.27,31a3.19,3.19,0,0,1,2.24.72,2.67,2.67,0,0,1,.77,2V38s-.05.07-.16.11a1.36,1.36,0,0,1-.36,0,.75.75,0,0,1-.81-.63,2.17,2.17,0,0,1-.06-.48,2.69,2.69,0,0,1-1.06.88,3.21,3.21,0,0,1-1.42.31,2.6,2.6,0,0,1-1.72-.53,1.77,1.77,0,0,1-.64-1.43Zm4.82-1.45h-.38a7,7,0,0,0-2.3.38,1,1,0,0,0-.74,1,.87.87,0,0,0,.34.73,1.52,1.52,0,0,0,1,.28,2.24,2.24,0,0,0,1.53-.53,1.68,1.68,0,0,0,.59-1.34ZM30.5,41c-.44,0-.66-.19-.66-.58a.61.61,0,0,1,.09-.31c.05-.11.1-.17.13-.18A3.1,3.1,0,0,0,31.68,39a4.68,4.68,0,0,0,1-1.78,7.29,7.29,0,0,0,.36-2.33,7.09,7.09,0,0,0-.36-2.29,4.65,4.65,0,0,0-1-1.79,3.18,3.18,0,0,0-1.62-.93.55.55,0,0,1-.13-.2.64.64,0,0,1-.09-.3c0-.39.22-.58.66-.58a2.53,2.53,0,0,1,1.23.36,4.24,4.24,0,0,1,1.18,1,6.65,6.65,0,0,1,1.18,2.08,7.88,7.88,0,0,1,.44,2.65,7.79,7.79,0,0,1-.43,2.65A6.77,6.77,0,0,1,33,39.58a4.35,4.35,0,0,1-1.2,1A2.57,2.57,0,0,1,30.5,41Z"/><line class="cls-2" x1="311.86" y1="26.38" x2="273.22" y2="93.3"/><line class="cls-1" x1="273.22" y1="93.3" x2="350.5" y2="93.3"/><line class="cls-2" x1="350.5" y1="93.3" x2="311.86" y2="26.38"/><path d="M250.77,37.5c0,.45-.21.67-.62.67H250c-.42,0-.63-.22-.63-.67V28.42s0-.06.16-.1a1,1,0,0,1,.36-.06.85.85,0,0,1,.64.27,1.38,1.38,0,0,1,.26.95v2.81A2.79,2.79,0,0,1,253.19,31a3.16,3.16,0,0,1,1.66.45A3,3,0,0,1,256,32.76a4.49,4.49,0,0,1,0,3.79,3,3,0,0,1-1.16,1.29,3.13,3.13,0,0,1-1.69.46,3,3,0,0,1-1.46-.34,2.24,2.24,0,0,1-.92-.88ZM255,34.67a2.84,2.84,0,0,0-.27-1.26,2.15,2.15,0,0,0-.76-.87,1.94,1.94,0,0,0-1.09-.32,2.31,2.31,0,0,0-1.33.38,2.22,2.22,0,0,0-.82,1v1.54a1.83,1.83,0,0,0,.3,1,2.1,2.1,0,0,0,.78.7,2.31,2.31,0,0,0,1,.25,2,2,0,0,0,1.55-.68,2.57,2.57,0,0,0,.6-1.78ZM257.61,41c-.44,0-.66-.19-.66-.58a.71.71,0,0,1,.08-.31c.06-.11.1-.17.13-.18a3.13,3.13,0,0,0,1.63-.93,4.68,4.68,0,0,0,1-1.78,7.29,7.29,0,0,0,.36-2.33,7.09,7.09,0,0,0-.36-2.29,4.67,4.67,0,0,0-1.05-1.79,3.1,3.1,0,0,0-1.62-.93.73.73,0,0,1-.13-.2.75.75,0,0,1-.08-.3c0-.39.22-.58.66-.58a2.47,2.47,0,0,1,1.22.36,4.27,4.27,0,0,1,1.19,1,6.44,6.44,0,0,1,1.17,2.08,7.64,7.64,0,0,1,.45,2.65,7.79,7.79,0,0,1-.43,2.65,6.77,6.77,0,0,1-1.15,2.07,4.35,4.35,0,0,1-1.2,1,2.57,2.57,0,0,1-1.25.36Z"/><line class="cls-3" x1="46.44" y1="136.2" x2="93.39" y2="183.14"/><line class="cls-4" x1="93.39" y1="183.14" x2="140.33" y2="136.2"/><line class="cls-3" x1="140.33" y1="136.2" x2="187.27" y2="183.14"/><path d="M23,144.51a3.72,3.72,0,0,1,.47-1.86,3.37,3.37,0,0,1,1.28-1.29,3.68,3.68,0,0,1,1.84-.47,3.43,3.43,0,0,1,2.25.72,1.94,1.94,0,0,1,.52.6,1.27,1.27,0,0,1,.18.59.51.51,0,0,1-.18.41,1,1,0,0,1-.41.21c-.15,0-.24,0-.25,0a2.07,2.07,0,0,0-2.08-1.35,2.23,2.23,0,0,0-1.17.32,2.31,2.31,0,0,0-.81.86,2.71,2.71,0,0,0-.29,1.25,2.75,2.75,0,0,0,.29,1.26,2.27,2.27,0,0,0,.81.87,2.23,2.23,0,0,0,1.17.32,2.07,2.07,0,0,0,2.08-1.35s.1,0,.25,0a1,1,0,0,1,.41.21.56.56,0,0,1,.18.44,1.24,1.24,0,0,1-.18.58,2.28,2.28,0,0,1-.54.59,2.8,2.8,0,0,1-.95.53,4.25,4.25,0,0,1-1.28.19,3.66,3.66,0,0,1-1.85-.47,3.27,3.27,0,0,1-1.28-1.3,3.76,3.76,0,0,1-.46-1.87Zm7.36,6.29q-.66,0-.66-.57a.65.65,0,0,1,.09-.32.37.37,0,0,1,.13-.17,3.1,3.1,0,0,0,1.62-.93,4.65,4.65,0,0,0,1-1.79,7.59,7.59,0,0,0,0-4.62,4.68,4.68,0,0,0-1-1.78,3.18,3.18,0,0,0-1.62-.93.55.55,0,0,1-.13-.2.64.64,0,0,1-.09-.31q0-.57.66-.57a2.53,2.53,0,0,1,1.23.36,4.37,4.37,0,0,1,1.18,1A6.82,6.82,0,0,1,34,142.06a7.88,7.88,0,0,1,.44,2.65,7.74,7.74,0,0,1-.43,2.64,6.83,6.83,0,0,1-1.15,2.08,4.14,4.14,0,0,1-1.2,1,2.57,2.57,0,0,1-1.25.36Z"/><line class="cls-5" x1="272.46" y1="136.2" x2="319.36" y2="183.1"/><line class="cls-5" x1="319.36" y1="183.1" x2="366.27" y2="136.2"/><line class="cls-6" x1="366.27" y1="136.2" x2="413.17" y2="183.1"/><path d="M252.17,148.15a3.16,3.16,0,0,1-1.66-.45,3.11,3.11,0,0,1-1.15-1.28,4.51,4.51,0,0,1,0-3.8,3.07,3.07,0,0,1,1.16-1.28,3.21,3.21,0,0,1,1.69-.45,3.11,3.11,0,0,1,1.43.32,2.44,2.44,0,0,1,.94.81v-3.76s.06-.06.17-.1a1.29,1.29,0,0,1,.35,0c.6,0,.9.4.9,1.22v8c0,.45-.21.67-.63.67h-.14c-.42,0-.63-.22-.63-.67v-.53a2.79,2.79,0,0,1-2.43,1.33Zm2.43-4.66a2.4,2.4,0,0,0-.81-1.05,2.25,2.25,0,0,0-1.32-.37,2,2,0,0,0-1.56.67,2.62,2.62,0,0,0-.59,1.78,2.84,2.84,0,0,0,.27,1.26,2.12,2.12,0,0,0,.76.88,1.93,1.93,0,0,0,1.09.31,2.29,2.29,0,0,0,1.07-.26,2.06,2.06,0,0,0,.79-.73,1.83,1.83,0,0,0,.3-1Zm3,7.31q-.66,0-.66-.57a.76.76,0,0,1,.08-.32c.06-.1.1-.16.13-.17a3.13,3.13,0,0,0,1.63-.93,4.65,4.65,0,0,0,1-1.79,7.59,7.59,0,0,0,0-4.62,4.7,4.7,0,0,0-1.05-1.78,3.1,3.1,0,0,0-1.62-.93.73.73,0,0,1-.13-.2.75.75,0,0,1-.08-.31q0-.57.66-.57a2.47,2.47,0,0,1,1.22.36,4.4,4.4,0,0,1,1.19,1,6.6,6.6,0,0,1,1.17,2.09,7.64,7.64,0,0,1,.45,2.65,7.74,7.74,0,0,1-.43,2.64,6.83,6.83,0,0,1-1.15,2.08,4.14,4.14,0,0,1-1.2,1,2.57,2.57,0,0,1-1.25.36Z"/><rect class="cls-7" x="45.26" y="225.29" width="47.73" height="15.91"/><rect class="cls-8" x="45.26" y="225.29" width="47.73" height="15.91"/><rect class="cls-9" x="92.99" y="225.29" width="47.73" height="15.91"/><rect class="cls-8" x="92.99" y="225.29" width="47.73" height="15.91"/><rect class="cls-7" x="140.72" y="225.29" width="47.73" height="15.91"/><rect class="cls-8" x="140.72" y="225.29" width="47.73" height="15.91"/><path d="M23,234a3.78,3.78,0,0,1,.46-1.87,3.48,3.48,0,0,1,1.26-1.32,3.56,3.56,0,0,1,1.81-.47,3.41,3.41,0,0,1,1.74.44A3.1,3.1,0,0,1,29.47,232a3.92,3.92,0,0,1,.41,1.81V234a.45.45,0,0,1-.09.32.48.48,0,0,1-.34.09H24.36a1.58,1.58,0,0,0,0,.26,2.16,2.16,0,0,0,.78,1.36,2.32,2.32,0,0,0,1.54.52,2.55,2.55,0,0,0,1.35-.31,2.14,2.14,0,0,0,.82-.84s.09,0,.22,0a.88.88,0,0,1,.36.23.59.59,0,0,1,.17.44.85.85,0,0,1-.21.5,2,2,0,0,1-.56.5,4,4,0,0,1-2.18.56,3.92,3.92,0,0,1-1.9-.45,3.26,3.26,0,0,1-1.28-1.27A3.74,3.74,0,0,1,23,234Zm5.47-.62a2.15,2.15,0,0,0-.58-1.43,1.8,1.8,0,0,0-1.38-.53,2,2,0,0,0-1.44.55,2.32,2.32,0,0,0-.74,1.41Zm2.55,6.87q-.66,0-.66-.57a.65.65,0,0,1,.09-.32.48.48,0,0,1,.12-.17,3.09,3.09,0,0,0,1.63-.93,4.65,4.65,0,0,0,1-1.79,7.59,7.59,0,0,0,0-4.62,4.68,4.68,0,0,0-1-1.78,3.16,3.16,0,0,0-1.63-.93.81.81,0,0,1-.12-.2.64.64,0,0,1-.09-.31q0-.57.66-.57a2.53,2.53,0,0,1,1.23.36,4.37,4.37,0,0,1,1.18,1,6.82,6.82,0,0,1,1.18,2.09,7.88,7.88,0,0,1,.44,2.65,7.74,7.74,0,0,1-.43,2.64,6.83,6.83,0,0,1-1.15,2.08,4.14,4.14,0,0,1-1.2,1,2.57,2.57,0,0,1-1.25.36Z"/><rect class="cls-7" x="271.16" y="225.29" width="31.82" height="15.91"/><rect class="cls-8" x="271.16" y="225.29" width="31.82" height="15.91"/><rect class="cls-9" x="302.98" y="225.29" width="63.64" height="15.91"/><rect class="cls-8" x="302.98" y="225.29" width="63.64" height="15.91"/><rect class="cls-7" x="366.62" y="225.29" width="47.73" height="15.91"/><rect class="cls-8" x="366.62" y="225.29" width="47.73" height="15.91"/><path d="M250,231.71h-.8a.71.71,0,0,1-.48-.13.53.53,0,0,1-.15-.41v-.1a.5.5,0,0,1,.15-.39.76.76,0,0,1,.48-.13h.8V230a2.76,2.76,0,0,1,.57-1.91,2.49,2.49,0,0,1,2.8-.35.76.76,0,0,1,.38.65.88.88,0,0,1-.07.33.8.8,0,0,1-.17.22c-.06.05-.1.08-.11.07a1.24,1.24,0,0,0-.44-.28,1.53,1.53,0,0,0-.59-.13.87.87,0,0,0-.75.34,1.88,1.88,0,0,0-.24,1.07v.5h1.16a.76.76,0,0,1,.48.13.51.51,0,0,1,.15.4v.1a.51.51,0,0,1-.15.41.77.77,0,0,1-.48.12h-1.13v5.13a.69.69,0,0,1-.16.52.64.64,0,0,1-.46.15h-.14a.58.58,0,0,1-.65-.67Zm5.28,8.58q-.66,0-.66-.57a.65.65,0,0,1,.09-.32c.06-.1.1-.16.13-.17a3.16,3.16,0,0,0,1.63-.93,4.78,4.78,0,0,0,1-1.79,7.59,7.59,0,0,0,0-4.62,4.7,4.7,0,0,0-1.05-1.78,3.18,3.18,0,0,0-1.62-.93.73.73,0,0,1-.13-.2.64.64,0,0,1-.09-.31q0-.57.66-.57a2.53,2.53,0,0,1,1.23.36,4.37,4.37,0,0,1,1.18,1,6.82,6.82,0,0,1,1.18,2.09,7.64,7.64,0,0,1,.44,2.65,7.74,7.74,0,0,1-.43,2.64,6.81,6.81,0,0,1-1.14,2.08,4.31,4.31,0,0,1-1.21,1,2.57,2.57,0,0,1-1.25.36Z"/><polygon class="cls-7" points="124.58 322.17 85.96 283.55 47.34 322.17 85.96 322.17 85.96 360.79 124.58 322.17"/><polygon class="cls-10" points="124.58 322.17 85.96 283.55 47.34 322.17 85.96 322.17 85.96 360.79 124.58 322.17"/><polygon class="cls-9" points="47.34 322.17 85.96 360.79 85.96 322.17 47.34 322.17"/><line class="cls-10" x1="47.34" y1="322.17" x2="124.58" y2="322.17"/><line class="cls-10" x1="85.96" y1="283.55" x2="85.96" y2="360.79"/><line class="cls-10" x1="47.34" y1="322.17" x2="85.96" y2="360.79"/><path d="M26,298.59a5.49,5.49,0,0,1-2.57-.47,1.61,1.61,0,0,1-.22-2.67,3.39,3.39,0,0,1,1.59-.66.82.82,0,0,1-.28-.65,1,1,0,0,1,.39-.75,2.65,2.65,0,0,1-1.32-.87,2.25,2.25,0,0,1-.49-1.42,2.39,2.39,0,0,1,.38-1.31,2.67,2.67,0,0,1,1.07-1,3.29,3.29,0,0,1,1.51-.35,3.48,3.48,0,0,1,1.65.41l.37-.66a1.26,1.26,0,0,1,.37-.41.77.77,0,0,1,.45-.13.68.68,0,0,1,.42.13.76.76,0,0,1,.25.29q.09.17.06.18l-1.17,1.22a2.28,2.28,0,0,1,.6,1.54,2.32,2.32,0,0,1-.38,1.29,2.58,2.58,0,0,1-1.06.89,3.53,3.53,0,0,1-1.55.33h-.25a.38.38,0,0,0,.19.6,5.44,5.44,0,0,0,.95.27l.65.16a3.9,3.9,0,0,1,1.45.67,1.45,1.45,0,0,1,.56,1.21,1.72,1.72,0,0,1-1,1.55,5.29,5.29,0,0,1-2.66.56Zm0-1a4,4,0,0,0,1.63-.28.87.87,0,0,0,.58-.8.6.6,0,0,0-.35-.56,4.37,4.37,0,0,0-1.06-.37l-.71-.17a4,4,0,0,0-1.55.37,1,1,0,0,0-.6.85.78.78,0,0,0,.52.71,3.81,3.81,0,0,0,1.54.25Zm0-5a1.61,1.61,0,0,0,1.17-.43,1.51,1.51,0,0,0,.44-1.13,1.52,1.52,0,0,0-.45-1.13,1.63,1.63,0,0,0-1.18-.43,1.56,1.56,0,0,0-1.15.43,1.64,1.64,0,0,0,0,2.26,1.64,1.64,0,0,0,1.17.43Zm4.31,5.77q-.66,0-.66-.57a.76.76,0,0,1,.08-.32c.06-.1.1-.16.13-.17a3.13,3.13,0,0,0,1.63-.93,4.72,4.72,0,0,0,1-1.79,7.25,7.25,0,0,0,.36-2.33,7.14,7.14,0,0,0-.36-2.29,4.62,4.62,0,0,0-1-1.78,3.22,3.22,0,0,0-1.62-.94.62.62,0,0,1-.13-.19.75.75,0,0,1-.08-.31q0-.57.66-.57a2.47,2.47,0,0,1,1.22.36,4.4,4.4,0,0,1,1.19,1,6.49,6.49,0,0,1,1.17,2.09,7.62,7.62,0,0,1,.45,2.64,7.79,7.79,0,0,1-.43,2.65A6.66,6.66,0,0,1,32.78,297a4.35,4.35,0,0,1-1.2,1,2.57,2.57,0,0,1-1.25.36Z"/><path class="cls-9" d="M273.24,322.17h38.62V283.55A38.62,38.62,0,0,0,273.24,322.17Z"/><path class="cls-10" d="M273.24,322.17h38.62V283.55A38.62,38.62,0,0,0,273.24,322.17Z"/><path class="cls-7" d="M273.24,322.17h77.24a38.62,38.62,0,0,1-77.24,0"/><path class="cls-10" d="M273.24,322.17h77.24a38.62,38.62,0,0,1-77.24,0"/><path d="M313.22,322.17a1.36,1.36,0,1,0-1.36,1.36A1.36,1.36,0,0,0,313.22,322.17Z"/><path d="M253.06,288.49a2.41,2.41,0,0,1,2,.82,3.27,3.27,0,0,1,.68,2.16v3.47c0,.45-.21.68-.63.68h-.16c-.42,0-.63-.23-.63-.68v-3.31a2.1,2.1,0,0,0-.42-1.39,1.45,1.45,0,0,0-1.17-.5,1.88,1.88,0,0,0-1.42.54,2.06,2.06,0,0,0-.52,1.48v3.18c0,.45-.21.68-.63.68H250c-.42,0-.63-.23-.63-.68v-9.08s0-.06.16-.1a1,1,0,0,1,.36-.05.85.85,0,0,1,.64.27,1.37,1.37,0,0,1,.26.94v2.83a2.59,2.59,0,0,1,2.28-1.26Zm4.2,9.91q-.66,0-.66-.57a.65.65,0,0,1,.09-.32c.06-.1.1-.16.13-.17a3.16,3.16,0,0,0,1.63-.93,4.86,4.86,0,0,0,1-1.79,7.25,7.25,0,0,0,.36-2.33,7.14,7.14,0,0,0-.36-2.29,4.62,4.62,0,0,0-1.05-1.78,3.27,3.27,0,0,0-1.62-.94.62.62,0,0,1-.13-.19.64.64,0,0,1-.09-.31q0-.57.66-.57a2.5,2.5,0,0,1,1.23.36,4.22,4.22,0,0,1,1.18,1,6.7,6.7,0,0,1,1.18,2.09,7.62,7.62,0,0,1,.45,2.64,7.8,7.8,0,0,1-.44,2.65,6.44,6.44,0,0,1-1.14,2.07,4.54,4.54,0,0,1-1.21,1,2.54,2.54,0,0,1-1.25.36Z"/><polygon class="cls-7" points="45.11 459.5 56.48 448.13 136.03 448.13 136.03 414.04 147.4 402.67 147.4 459.5 45.11 459.5"/><polygon class="cls-11" points="45.11 459.5 56.48 448.13 136.03 448.13 136.03 414.04 147.4 402.67 147.4 459.5 45.11 459.5"/><polygon class="cls-9" points="45.11 459.5 56.48 448.13 56.48 414.04 136.03 414.04 147.4 402.67 45.11 402.67 45.11 459.5"/><rect class="cls-11" x="45.11" y="402.67" width="102.28" height="56.82"/><rect class="cls-11" x="56.48" y="414.04" width="79.55" height="34.09"/><path d="M23.4,405.74a.82.82,0,0,1,.23-.61.89.89,0,0,1,.63-.22.87.87,0,0,1,.62.22.85.85,0,0,1,.21.61.82.82,0,0,1-.22.61.88.88,0,0,1-.62.21.85.85,0,0,1-.63-.22.81.81,0,0,1-.22-.6Zm.11,2.83c0-.46.22-.69.65-.69h.14a.64.64,0,0,1,.47.16.7.7,0,0,1,.16.53v5.67c0,.45-.21.67-.63.67h-.14a.58.58,0,0,1-.65-.67Zm3.1,9.12q-.66,0-.66-.57a.65.65,0,0,1,.09-.32c.06-.1.1-.16.13-.17a3.16,3.16,0,0,0,1.63-.93,4.78,4.78,0,0,0,1-1.79,7.8,7.8,0,0,0,0-4.62,4.7,4.7,0,0,0-1.05-1.78,3.18,3.18,0,0,0-1.62-.93.73.73,0,0,1-.13-.2.64.64,0,0,1-.09-.31q0-.57.66-.57a2.53,2.53,0,0,1,1.23.36,4.37,4.37,0,0,1,1.18,1A6.82,6.82,0,0,1,30.2,409a7.64,7.64,0,0,1,.44,2.65,7.74,7.74,0,0,1-.43,2.64,6.81,6.81,0,0,1-1.14,2.08,4.31,4.31,0,0,1-1.21,1,2.57,2.57,0,0,1-1.25.36Z"/><path class="cls-9" d="M306.94,420.76H273.77l17.88-17.88h33.17Zm0,0,17.88-17.88v33.17l-17.88,17.88Zm0,0H273.77v33.17h33.17Z"/><path class="cls-12" d="M306.94,420.76H273.77l17.88-17.88h33.17Zm0,0,17.88-17.88v33.17l-17.88,17.88Zm0,0H273.77v33.17h33.17Z"/><line class="cls-13" x1="273.77" y1="453.93" x2="291.65" y2="436.05"/><line class="cls-14" x1="273.77" y1="453.93" x2="291.65" y2="436.05"/><line class="cls-14" x1="324.82" y1="436.05" x2="291.65" y2="436.05"/><line class="cls-14" x1="291.65" y1="402.88" x2="291.65" y2="436.05"/><path class="cls-7" d="M373.28,420.76H306.94l17.87-17.88h66.35Zm0,0,17.88-17.88v33.17l-17.88,17.88Zm0,0H306.94v33.17h66.34Z"/><path class="cls-12" d="M373.28,420.76H306.94l17.87-17.88h66.35Zm0,0,17.88-17.88v33.17l-17.88,17.88Zm0,0H306.94v33.17h66.34Z"/><line class="cls-15" x1="306.94" y1="453.93" x2="324.81" y2="436.05"/><line class="cls-14" x1="306.94" y1="453.93" x2="324.81" y2="436.05"/><line class="cls-14" x1="391.16" y1="436.05" x2="324.81" y2="436.05"/><line class="cls-14" x1="324.81" y1="402.88" x2="324.81" y2="436.05"/><line class="cls-16" x1="324.82" y1="436.05" x2="391.16" y2="436.05"/><polyline class="cls-16" points="340.11 453.93 357.99 436.05 357.99 402.88"/><polyline class="cls-17" points="357.99 402.88 340.11 420.76 340.11 453.93"/><path d="M247.52,417.32a.72.72,0,0,1-.21-.52.78.78,0,0,1,.07-.33,1.2,1.2,0,0,1,.16-.25c.05-.06.09-.09.1-.08a1.26,1.26,0,0,0,.92.41.81.81,0,0,0,.66-.26,1.44,1.44,0,0,0,.2-.85v-6.87c0-.46.21-.69.64-.69h.15a.61.61,0,0,1,.46.16.7.7,0,0,1,.17.53v7a2.33,2.33,0,0,1-.53,1.63,2,2,0,0,1-1.54.56,1.71,1.71,0,0,1-1.25-.4Zm1.78-11.58a.82.82,0,0,1,.23-.61.89.89,0,0,1,.63-.22.75.75,0,0,1,.83.83.82.82,0,0,1-.22.61.86.86,0,0,1-.62.21.76.76,0,0,1-.85-.82Zm3.22,11.95q-.66,0-.66-.57a.63.63,0,0,1,.08-.32c.06-.1.1-.16.13-.17a3.16,3.16,0,0,0,1.63-.93,4.78,4.78,0,0,0,1-1.79,7.59,7.59,0,0,0,0-4.62,4.7,4.7,0,0,0-1.05-1.78,3.18,3.18,0,0,0-1.62-.93.73.73,0,0,1-.13-.2.62.62,0,0,1-.08-.31q0-.57.66-.57a2.47,2.47,0,0,1,1.22.36,4.4,4.4,0,0,1,1.19,1A6.8,6.8,0,0,1,256.1,409a7.64,7.64,0,0,1,.45,2.65,8,8,0,0,1-.43,2.64,6.83,6.83,0,0,1-1.15,2.08,4.18,4.18,0,0,1-1.21,1,2.54,2.54,0,0,1-1.24.36Z"/></svg>