<svg id="Camada_1" data-name="Camada 1" xmlns="http://www.w3.org/2000/svg" viewBox="0 0 400.8 292.41"><defs><style>.cls-1,.cls-2,.cls-4{fill:none;stroke:#000;stroke-miterlimit:10;}.cls-1,.cls-4{stroke-width:0.36px;}.cls-2{stroke-width:0.52px;}.cls-3{font-size:12.91px;font-family:CMR12;}.cls-4{stroke-dasharray:0.36 1.79;}.cls-5{fill:#95d4e9;}</style></defs><line class="cls-1" x1="27.89" y1="35.33" x2="372.31" y2="35.33"/><path d="M27.87,28.16a3.19,3.19,0,0,1-1.74-.47A3.11,3.11,0,0,1,25,26.34a5.09,5.09,0,0,1-.4-2.07v-.85a5.09,5.09,0,0,1,.4-2.07A3.09,3.09,0,0,1,26.13,20a3.55,3.55,0,0,1,3.53,0,3.11,3.11,0,0,1,1.15,1.35,5.09,5.09,0,0,1,.4,2.07v.84a4.93,4.93,0,0,1-.41,2.07,3.11,3.11,0,0,1-1.16,1.36,3.21,3.21,0,0,1-1.77.48Zm0-.83a2,2,0,0,0,1.72-.8,3.59,3.59,0,0,0,.61-2.24v-.88a3.59,3.59,0,0,0-.62-2.26,2.2,2.2,0,0,0-3.42,0,3.63,3.63,0,0,0-.62,2.24v.89a3.65,3.65,0,0,0,.62,2.25,2,2,0,0,0,1.71.81Z"/><path d="M143,28.16c-.26,0-.4-.15-.4-.45V21.17a1,1,0,0,1-.4.35,1.19,1.19,0,0,1-.54.12,1.05,1.05,0,0,1-.73-.26.67.67,0,0,1-.21-.49.55.55,0,0,1,.06-.26.52.52,0,0,1,.13-.18s.08-.06.09-.05a.92.92,0,0,0,.74.31,1,1,0,0,0,.72-.29,1.08,1.08,0,0,0,.33-.72h.34c.29,0,.43.15.43.45v7.56c0,.3-.14.45-.43.45Z"/><path d="M255.33,28.16a.71.71,0,0,1-.48-.13.55.55,0,0,1-.15-.43v-.32a2.73,2.73,0,0,1,.35-1.41,2.94,2.94,0,0,1,.88-1,9.88,9.88,0,0,1,1.33-.8c.55-.28.95-.5,1.19-.65a2.53,2.53,0,0,0,.64-.58,1.28,1.28,0,0,0,.27-.82,1.4,1.4,0,0,0-.49-1.12,2.33,2.33,0,0,0-2.78.06,2.46,2.46,0,0,0-.72,1.23s-.06,0-.17,0a.56.56,0,0,1-.32-.15.43.43,0,0,1-.15-.35,1.42,1.42,0,0,1,.17-.62,2.47,2.47,0,0,1,.49-.65,2.94,2.94,0,0,1,.94-.58,3.13,3.13,0,0,1,1.25-.23,2.94,2.94,0,0,1,2,.65,2.26,2.26,0,0,1,.73,1.75A2.12,2.12,0,0,1,260,23.2a2.62,2.62,0,0,1-.8.79,11.32,11.32,0,0,1-1.29.72,9.68,9.68,0,0,0-1.17.65,2.59,2.59,0,0,0-.76.71,1.73,1.73,0,0,0-.33,1l0,.26H260c.31,0,.46.13.46.39v.08c0,.26-.15.4-.46.4Z"/><path d="M372.08,28.16a3.84,3.84,0,0,1-1.36-.22,2.83,2.83,0,0,1-1-.57,2.07,2.07,0,0,1-.46-.54,1.12,1.12,0,0,1-.15-.5.45.45,0,0,1,.13-.35.5.5,0,0,1,.28-.16c.09,0,.15,0,.16,0a2,2,0,0,0,.85,1.12,2.68,2.68,0,0,0,1.52.42,2.4,2.4,0,0,0,1.53-.46,1.63,1.63,0,0,0,0-2.44,2.42,2.42,0,0,0-1.55-.44h-.72c-.3,0-.45-.11-.45-.34v-.08q0-.36.42-.36h.86a2,2,0,0,0,1.3-.38,1.31,1.31,0,0,0,.46-1.07,1.28,1.28,0,0,0-.5-1.07,2.14,2.14,0,0,0-1.38-.4,2.26,2.26,0,0,0-1.3.37,2.15,2.15,0,0,0-.82.95s-.06,0-.17,0a.65.65,0,0,1-.27-.17.41.41,0,0,1-.13-.32.81.81,0,0,1,.14-.39,2,2,0,0,1,.35-.43,3,3,0,0,1,1-.57,3.62,3.62,0,0,1,1.26-.21,3.29,3.29,0,0,1,2.07.59,2,2,0,0,1,.74,1.62,1.8,1.8,0,0,1-.39,1.17,2,2,0,0,1-1.09.65,2.4,2.4,0,0,1,1.26.79,2.09,2.09,0,0,1,.45,1.37,2.17,2.17,0,0,1-.82,1.79,3.46,3.46,0,0,1-2.24.66Z"/><line class="cls-1" x1="27.89" y1="37.12" x2="27.89" y2="33.54"/><path d="M32.18,49.87c0,.41,0,.45-.47.45H24.06c-.43,0-.47,0-.47-.46v-8c0-.42.06-.46.46-.46h7.68c.41,0,.45.06.45.46Zm-8.07-.06h7.55V42H24.11Z"/><line class="cls-2" x1="22.87" y1="55.83" x2="32.91" y2="55.83"/><text class="cls-3" transform="translate(24.73 67.91)">3</text><line class="cls-4" x1="27.89" y1="62.23" x2="27.89" y2="89.13"/><line class="cls-1" x1="66.16" y1="37.12" x2="66.16" y2="33.54"/><path d="M70.45,49.87c0,.41,0,.45-.47.45H62.33c-.43,0-.47,0-.47-.46v-8c0-.42,0-.46.45-.46H70c.41,0,.45.06.45.46Zm-8.07-.06h7.55V42H62.38Z"/><line class="cls-2" x1="61.14" y1="55.83" x2="71.18" y2="55.83"/><text class="cls-3" transform="translate(63 67.91)">3</text><line class="cls-4" x1="66.16" y1="62.23" x2="66.16" y2="89.13"/><line class="cls-1" x1="104.43" y1="37.12" x2="104.43" y2="33.54"/><path d="M108.71,49.87c0,.41,0,.45-.46.45h-7.66c-.42,0-.46,0-.46-.46v-8c0-.42.05-.46.45-.46h7.68c.42,0,.45.06.45.46Zm-8.06-.06h7.55V42h-7.55Z"/><line class="cls-2" x1="99.41" y1="55.83" x2="109.45" y2="55.83"/><text class="cls-3" transform="translate(101.27 67.91)">3</text><line class="cls-4" x1="104.43" y1="62.23" x2="104.43" y2="89.13"/><line class="cls-1" x1="142.7" y1="37.12" x2="142.7" y2="33.54"/><path d="M147,49.87c0,.41,0,.45-.46.45h-7.66c-.42,0-.46,0-.46-.46v-8c0-.42,0-.46.45-.46h7.68c.42,0,.45.06.45.46Zm-8.06-.06h7.55V42h-7.55Z"/><line class="cls-2" x1="137.68" y1="55.83" x2="147.72" y2="55.83"/><text class="cls-3" transform="translate(139.54 67.91)">3</text><line class="cls-4" x1="142.7" y1="62.23" x2="142.7" y2="89.13"/><line class="cls-1" x1="180.97" y1="37.12" x2="180.97" y2="33.54"/><path d="M185.25,49.87c0,.41,0,.45-.46.45h-7.66c-.42,0-.46,0-.46-.46v-8c0-.42.05-.46.45-.46h7.68c.41,0,.45.06.45.46Zm-8.07-.06h7.56V42h-7.56Z"/><line class="cls-2" x1="175.94" y1="55.83" x2="185.99" y2="55.83"/><text class="cls-3" transform="translate(177.81 67.91)">3</text><line class="cls-4" x1="180.97" y1="62.23" x2="180.97" y2="89.13"/><line class="cls-1" x1="219.23" y1="37.12" x2="219.23" y2="33.54"/><path d="M223.52,49.87c0,.41,0,.45-.47.45H215.4c-.43,0-.47,0-.47-.46v-8c0-.42.06-.46.46-.46h7.68c.41,0,.45.06.45.46Zm-8.07-.06H223V42h-7.55Z"/><line class="cls-2" x1="214.21" y1="55.83" x2="224.25" y2="55.83"/><text class="cls-3" transform="translate(216.07 67.91)">3</text><line class="cls-4" x1="219.23" y1="62.23" x2="219.23" y2="89.13"/><line class="cls-1" x1="257.5" y1="37.12" x2="257.5" y2="33.54"/><path d="M261.79,49.87c0,.41,0,.45-.47.45h-7.65c-.43,0-.47,0-.47-.46v-8c0-.42.06-.46.46-.46h7.68c.41,0,.45.06.45.46Zm-8.07-.06h7.55V42h-7.55Z"/><line class="cls-2" x1="252.48" y1="55.83" x2="262.52" y2="55.83"/><text class="cls-3" transform="translate(254.34 67.91)">3</text><line class="cls-4" x1="257.5" y1="62.23" x2="257.5" y2="89.13"/><line class="cls-1" x1="295.77" y1="37.12" x2="295.77" y2="33.54"/><path d="M300.06,49.87c0,.41,0,.45-.47.45h-7.65c-.43,0-.47,0-.47-.46v-8c0-.42,0-.46.45-.46h7.68c.42,0,.46.06.46.46ZM292,49.81h7.55V42H292Z"/><line class="cls-2" x1="290.75" y1="55.83" x2="300.79" y2="55.83"/><text class="cls-3" transform="translate(292.61 67.91)">3</text><line class="cls-4" x1="295.77" y1="62.23" x2="295.77" y2="89.13"/><line class="cls-1" x1="334.04" y1="37.12" x2="334.04" y2="33.54"/><path d="M338.32,49.87c0,.41,0,.45-.46.45H330.2c-.42,0-.46,0-.46-.46v-8c0-.42.05-.46.45-.46h7.68c.42,0,.45.06.45.46Zm-8.06-.06h7.55V42h-7.55Z"/><line class="cls-2" x1="329.02" y1="55.83" x2="339.06" y2="55.83"/><text class="cls-3" transform="translate(330.88 67.91)">3</text><line class="cls-4" x1="334.04" y1="62.23" x2="334.04" y2="89.13"/><line class="cls-1" x1="372.31" y1="37.12" x2="372.31" y2="33.54"/><path d="M376.59,49.87c0,.41,0,.45-.46.45h-7.66c-.42,0-.46,0-.46-.46v-8c0-.42.05-.46.45-.46h7.68c.41,0,.45.06.45.46Zm-8.06-.06h7.55V42h-7.55Z"/><line class="cls-2" x1="367.29" y1="55.83" x2="377.33" y2="55.83"/><text class="cls-3" transform="translate(369.15 67.91)">3</text><line class="cls-4" x1="372.31" y1="62.23" x2="372.31" y2="89.13"/><path class="cls-5" d="M182.76,35.33A1.8,1.8,0,1,0,181,37.12,1.79,1.79,0,0,0,182.76,35.33Z"/><line class="cls-1" x1="27.89" y1="102.58" x2="372.31" y2="102.58"/><path d="M27.87,95.41a3.19,3.19,0,0,1-1.74-.47A3.11,3.11,0,0,1,25,93.59a5.09,5.09,0,0,1-.4-2.07v-.85A5.09,5.09,0,0,1,25,88.6a3,3,0,0,1,1.15-1.36,3.55,3.55,0,0,1,3.53,0,3,3,0,0,1,1.15,1.35,5,5,0,0,1,.4,2.07v.83a5,5,0,0,1-.41,2.08,3.11,3.11,0,0,1-1.16,1.36,3.21,3.21,0,0,1-1.77.48Zm0-.83a2.05,2.05,0,0,0,1.72-.8,3.61,3.61,0,0,0,.61-2.25v-.87a3.59,3.59,0,0,0-.62-2.26,2.2,2.2,0,0,0-3.42,0,3.61,3.61,0,0,0-.62,2.24v.89a3.67,3.67,0,0,0,.62,2.25,2,2,0,0,0,1.71.81Z"/><path d="M143,95.41c-.26,0-.4-.15-.4-.45V88.42a1,1,0,0,1-.4.34,1.08,1.08,0,0,1-.54.13,1.05,1.05,0,0,1-.73-.26.67.67,0,0,1-.21-.49.55.55,0,0,1,.06-.26.52.52,0,0,1,.13-.18s.08-.06.09,0a1,1,0,0,0,.74.31,1,1,0,0,0,.72-.29,1.1,1.1,0,0,0,.33-.72h.34c.29,0,.43.15.43.45V95c0,.3-.14.45-.43.45Z"/><path d="M255.33,95.41a.76.76,0,0,1-.48-.13.55.55,0,0,1-.15-.43v-.32a2.73,2.73,0,0,1,.35-1.41,2.94,2.94,0,0,1,.88-1,9.88,9.88,0,0,1,1.33-.8,13.15,13.15,0,0,0,1.19-.66,2.32,2.32,0,0,0,.64-.57,1.28,1.28,0,0,0,.27-.82,1.39,1.39,0,0,0-.49-1.12,2,2,0,0,0-1.35-.43,2,2,0,0,0-1.43.48,2.54,2.54,0,0,0-.72,1.24s-.06,0-.17,0a.63.63,0,0,1-.32-.15.43.43,0,0,1-.15-.35,1.38,1.38,0,0,1,.17-.62,2.47,2.47,0,0,1,.49-.65,3,3,0,0,1,.94-.59,3.31,3.31,0,0,1,1.25-.22,2.94,2.94,0,0,1,2,.65,2.26,2.26,0,0,1,.73,1.75,2.12,2.12,0,0,1-.31,1.15,2.62,2.62,0,0,1-.8.79,13.11,13.11,0,0,1-1.29.72,9.68,9.68,0,0,0-1.17.65,2.59,2.59,0,0,0-.76.71,1.73,1.73,0,0,0-.33,1l0,.26H260c.31,0,.46.13.46.39V95c0,.26-.15.4-.46.4Z"/><path d="M372.08,95.41a4.08,4.08,0,0,1-1.36-.22,2.83,2.83,0,0,1-1-.57,2.07,2.07,0,0,1-.46-.54,1.12,1.12,0,0,1-.15-.51.48.48,0,0,1,.13-.35.57.57,0,0,1,.28-.16c.09,0,.15,0,.16,0a2,2,0,0,0,.85,1.12,2.68,2.68,0,0,0,1.52.41,2.4,2.4,0,0,0,1.53-.45,1.48,1.48,0,0,0,.56-1.21,1.5,1.5,0,0,0-.54-1.24,2.49,2.49,0,0,0-1.55-.43h-.72c-.3,0-.45-.11-.45-.35v-.07c0-.24.14-.37.42-.37h.86a2,2,0,0,0,1.3-.38A1.29,1.29,0,0,0,374,89a1.27,1.27,0,0,0-.5-1.07,2.14,2.14,0,0,0-1.38-.4,2.33,2.33,0,0,0-1.3.36,2.26,2.26,0,0,0-.82,1s-.06,0-.17,0a.65.65,0,0,1-.27-.17.42.42,0,0,1-.13-.32.81.81,0,0,1,.14-.39,2.33,2.33,0,0,1,.35-.44,3,3,0,0,1,1-.56,3.62,3.62,0,0,1,1.26-.21,3.23,3.23,0,0,1,2.07.59,2,2,0,0,1,.74,1.62,1.8,1.8,0,0,1-.39,1.17,2,2,0,0,1-1.09.65,2.39,2.39,0,0,1,1.26.78,2.13,2.13,0,0,1,.45,1.37,2.18,2.18,0,0,1-.82,1.8,3.46,3.46,0,0,1-2.24.66Z"/><line class="cls-1" x1="27.89" y1="104.37" x2="27.89" y2="100.79"/><path d="M32.18,117.12c0,.41,0,.45-.47.45H24.06c-.43,0-.47,0-.47-.46v-8c0-.41.06-.45.46-.45h7.68c.41,0,.45,0,.45.45Zm-8.07-.07h7.55v-7.83H24.11Z"/><line class="cls-2" x1="22.87" y1="123.08" x2="32.91" y2="123.08"/><text class="cls-3" transform="translate(24.73 135.16)">6</text><line class="cls-4" x1="27.89" y1="129.48" x2="27.89" y2="156.38"/><line class="cls-1" x1="66.16" y1="104.37" x2="66.16" y2="100.79"/><path d="M70.45,117.12c0,.41,0,.45-.47.45H62.33c-.43,0-.47,0-.47-.46v-8c0-.41,0-.45.45-.45H70c.41,0,.45,0,.45.45Zm-8.07-.07h7.55v-7.83H62.38Z"/><line class="cls-2" x1="61.14" y1="123.08" x2="71.18" y2="123.08"/><text class="cls-3" transform="translate(63 135.16)">6</text><line class="cls-4" x1="66.16" y1="129.48" x2="66.16" y2="156.38"/><line class="cls-1" x1="104.43" y1="104.37" x2="104.43" y2="100.79"/><path d="M108.71,117.12c0,.41,0,.45-.46.45h-7.66c-.42,0-.46,0-.46-.46v-8c0-.41.05-.45.45-.45h7.68c.42,0,.45,0,.45.45Zm-8.06-.07h7.55v-7.83h-7.55Z"/><line class="cls-2" x1="99.41" y1="123.08" x2="109.45" y2="123.08"/><text class="cls-3" transform="translate(101.27 135.16)">6</text><line class="cls-4" x1="104.43" y1="129.48" x2="104.43" y2="156.38"/><line class="cls-1" x1="142.7" y1="104.37" x2="142.7" y2="100.79"/><path d="M147,117.12c0,.41,0,.45-.46.45h-7.66c-.42,0-.46,0-.46-.46v-8c0-.41,0-.45.45-.45h7.68c.42,0,.45,0,.45.45Zm-8.06-.07h7.55v-7.83h-7.55Z"/><line class="cls-2" x1="137.68" y1="123.08" x2="147.72" y2="123.08"/><text class="cls-3" transform="translate(139.54 135.16)">6</text><line class="cls-4" x1="142.7" y1="129.48" x2="142.7" y2="156.38"/><line class="cls-1" x1="180.97" y1="104.37" x2="180.97" y2="100.79"/><path d="M185.25,117.12c0,.41,0,.45-.46.45h-7.66c-.42,0-.46,0-.46-.46v-8c0-.41.05-.45.45-.45h7.68c.41,0,.45,0,.45.45Zm-8.07-.07h7.56v-7.83h-7.56Z"/><line class="cls-2" x1="175.94" y1="123.08" x2="185.99" y2="123.08"/><text class="cls-3" transform="translate(177.81 135.16)">6</text><line class="cls-4" x1="180.97" y1="129.48" x2="180.97" y2="156.38"/><line class="cls-1" x1="219.23" y1="104.37" x2="219.23" y2="100.79"/><path d="M223.52,117.12c0,.41,0,.45-.47.45H215.4c-.43,0-.47,0-.47-.46v-8c0-.41.06-.45.46-.45h7.68c.41,0,.45,0,.45.45Zm-8.07-.07H223v-7.83h-7.55Z"/><line class="cls-2" x1="214.21" y1="123.08" x2="224.25" y2="123.08"/><text class="cls-3" transform="translate(216.07 135.16)">6</text><line class="cls-4" x1="219.23" y1="129.48" x2="219.23" y2="156.38"/><line class="cls-1" x1="257.5" y1="104.37" x2="257.5" y2="100.79"/><path d="M261.79,117.12c0,.41,0,.45-.47.45h-7.65c-.43,0-.47,0-.47-.46v-8c0-.41.06-.45.46-.45h7.68c.41,0,.45,0,.45.45Zm-8.07-.07h7.55v-7.83h-7.55Z"/><line class="cls-2" x1="252.48" y1="123.08" x2="262.52" y2="123.08"/><text class="cls-3" transform="translate(254.34 135.16)">6</text><line class="cls-4" x1="257.5" y1="129.48" x2="257.5" y2="156.38"/><line class="cls-1" x1="295.77" y1="104.37" x2="295.77" y2="100.79"/><path d="M300.06,117.12c0,.41,0,.45-.47.45h-7.65c-.43,0-.47,0-.47-.46v-8c0-.41,0-.45.45-.45h7.68c.42,0,.46,0,.46.45Zm-8.07-.07h7.55v-7.83H292Z"/><line class="cls-2" x1="290.75" y1="123.08" x2="300.79" y2="123.08"/><text class="cls-3" transform="translate(292.61 135.16)">6</text><line class="cls-4" x1="295.77" y1="129.48" x2="295.77" y2="156.38"/><line class="cls-1" x1="334.04" y1="104.37" x2="334.04" y2="100.79"/><path d="M338.32,117.12c0,.41,0,.45-.46.45H330.2c-.42,0-.46,0-.46-.46v-8c0-.41.05-.45.45-.45h7.68c.42,0,.45,0,.45.45Zm-8.06-.07h7.55v-7.83h-7.55Z"/><line class="cls-2" x1="329.02" y1="123.08" x2="339.06" y2="123.08"/><text class="cls-3" transform="translate(330.88 135.16)">6</text><line class="cls-4" x1="334.04" y1="129.48" x2="334.04" y2="156.38"/><line class="cls-1" x1="372.31" y1="104.37" x2="372.31" y2="100.79"/><path d="M376.59,117.12c0,.41,0,.45-.46.45h-7.66c-.42,0-.46,0-.46-.46v-8c0-.41.05-.45.45-.45h7.68c.41,0,.45,0,.45.45Zm-8.07-.07h7.56v-7.83h-7.56Z"/><line class="cls-2" x1="367.29" y1="123.08" x2="377.33" y2="123.08"/><text class="cls-3" transform="translate(369.15 135.16)">6</text><line class="cls-4" x1="372.31" y1="129.48" x2="372.31" y2="156.38"/><line class="cls-1" x1="27.89" y1="104.37" x2="27.89" y2="100.79"/><line class="cls-1" x1="47.01" y1="104.37" x2="47.01" y2="100.79"/><line class="cls-1" x1="66.12" y1="104.37" x2="66.12" y2="100.79"/><line class="cls-1" x1="85.24" y1="104.37" x2="85.24" y2="100.79"/><line class="cls-1" x1="104.35" y1="104.37" x2="104.35" y2="100.79"/><line class="cls-1" x1="123.47" y1="104.37" x2="123.47" y2="100.79"/><line class="cls-1" x1="142.58" y1="104.37" x2="142.58" y2="100.79"/><line class="cls-1" x1="161.69" y1="104.37" x2="161.69" y2="100.79"/><line class="cls-1" x1="180.81" y1="104.37" x2="180.81" y2="100.79"/><line class="cls-1" x1="199.92" y1="104.37" x2="199.92" y2="100.79"/><line class="cls-1" x1="219.04" y1="104.37" x2="219.04" y2="100.79"/><line class="cls-1" x1="238.15" y1="104.37" x2="238.15" y2="100.79"/><line class="cls-1" x1="257.27" y1="104.37" x2="257.27" y2="100.79"/><line class="cls-1" x1="276.38" y1="104.37" x2="276.38" y2="100.79"/><line class="cls-1" x1="295.5" y1="104.37" x2="295.5" y2="100.79"/><line class="cls-1" x1="314.61" y1="104.37" x2="314.61" y2="100.79"/><line class="cls-1" x1="333.73" y1="104.37" x2="333.73" y2="100.79"/><line class="cls-1" x1="352.84" y1="104.37" x2="352.84" y2="100.79"/><line class="cls-1" x1="371.96" y1="104.37" x2="371.96" y2="100.79"/><path class="cls-5" d="M182.76,102.58a1.8,1.8,0,1,0-1.79,1.79A1.79,1.79,0,0,0,182.76,102.58Z"/><line class="cls-1" x1="27.89" y1="169.83" x2="372.31" y2="169.83"/><path d="M27.87,162.66a3.11,3.11,0,0,1-1.74-.48A3,3,0,0,1,25,160.84a5.09,5.09,0,0,1-.4-2.07v-.85a5.14,5.14,0,0,1,.4-2.08,3.06,3.06,0,0,1,1.15-1.35,3.55,3.55,0,0,1,3.53,0,3,3,0,0,1,1.15,1.35,5,5,0,0,1,.4,2.06v.84a5,5,0,0,1-.41,2.08,3.11,3.11,0,0,1-1.16,1.36,3.21,3.21,0,0,1-1.77.48Zm0-.83a2.05,2.05,0,0,0,1.72-.8,3.61,3.61,0,0,0,.61-2.25v-.88a3.63,3.63,0,0,0-.62-2.26,2.21,2.21,0,0,0-3.42,0,3.61,3.61,0,0,0-.62,2.24v.89a3.69,3.69,0,0,0,.62,2.25,2,2,0,0,0,1.71.81Z"/><path d="M143,162.66c-.26,0-.4-.16-.4-.46v-6.53a1,1,0,0,1-.4.34,1.19,1.19,0,0,1-.54.12,1,1,0,0,1-.73-.25.67.67,0,0,1-.21-.49.55.55,0,0,1,.06-.26.52.52,0,0,1,.13-.18s.08-.06.09,0a1,1,0,0,0,.74.31,1,1,0,0,0,.72-.3,1.05,1.05,0,0,0,.33-.71h.34c.29,0,.43.15.43.45v7.55c0,.3-.14.46-.43.46Z"/><path d="M255.33,162.66a.76.76,0,0,1-.48-.13.55.55,0,0,1-.15-.43v-.32a2.79,2.79,0,0,1,.35-1.42,3,3,0,0,1,.88-1,9.88,9.88,0,0,1,1.33-.8,13.15,13.15,0,0,0,1.19-.66,2.32,2.32,0,0,0,.64-.57,1.28,1.28,0,0,0,.27-.82,1.39,1.39,0,0,0-.49-1.12,2,2,0,0,0-1.35-.43,2,2,0,0,0-1.43.48,2.54,2.54,0,0,0-.72,1.24s-.06,0-.17,0a.63.63,0,0,1-.32-.15.43.43,0,0,1-.15-.35,1.38,1.38,0,0,1,.17-.62,2.47,2.47,0,0,1,.49-.65,3,3,0,0,1,.94-.59,3.31,3.31,0,0,1,1.25-.22,2.89,2.89,0,0,1,2,.65,2.25,2.25,0,0,1,.73,1.75,2.12,2.12,0,0,1-.31,1.15,2.62,2.62,0,0,1-.8.79,13.11,13.11,0,0,1-1.29.72,11.45,11.45,0,0,0-1.17.64,2.88,2.88,0,0,0-.76.71,1.79,1.79,0,0,0-.33,1l0,.26H260c.31,0,.46.13.46.39v.08c0,.26-.15.4-.46.4Z"/><path d="M372.08,162.66a4.08,4.08,0,0,1-1.36-.22,2.83,2.83,0,0,1-1-.57,2.07,2.07,0,0,1-.46-.54,1.12,1.12,0,0,1-.15-.51.48.48,0,0,1,.13-.35.57.57,0,0,1,.28-.16c.09,0,.15,0,.16,0a2,2,0,0,0,.85,1.12,2.76,2.76,0,0,0,1.52.41,2.4,2.4,0,0,0,1.53-.45,1.64,1.64,0,0,0,0-2.45,2.49,2.49,0,0,0-1.55-.43h-.72c-.3,0-.45-.12-.45-.35v-.07c0-.25.14-.37.42-.37h.86a2,2,0,0,0,1.3-.38,1.29,1.29,0,0,0,.46-1.06,1.27,1.27,0,0,0-.5-1.07,2.14,2.14,0,0,0-1.38-.4,2.33,2.33,0,0,0-1.3.36,2.26,2.26,0,0,0-.82,1s-.06,0-.17,0a.65.65,0,0,1-.27-.17.42.42,0,0,1-.13-.32.81.81,0,0,1,.14-.39,2.05,2.05,0,0,1,.35-.44,3,3,0,0,1,1-.56,3.62,3.62,0,0,1,1.26-.21,3.23,3.23,0,0,1,2.07.59,2,2,0,0,1,.74,1.62,1.75,1.75,0,0,1-.39,1.16,2,2,0,0,1-1.09.66,2.39,2.39,0,0,1,1.26.78,2.11,2.11,0,0,1,.45,1.37,2.18,2.18,0,0,1-.82,1.8,3.46,3.46,0,0,1-2.24.66Z"/><line class="cls-1" x1="27.89" y1="171.62" x2="27.89" y2="168.04"/><line class="cls-1" x1="40.65" y1="171.62" x2="40.65" y2="168.04"/><line class="cls-1" x1="53.41" y1="171.62" x2="53.41" y2="168.04"/><line class="cls-1" x1="66.16" y1="171.62" x2="66.16" y2="168.04"/><line class="cls-1" x1="78.92" y1="171.62" x2="78.92" y2="168.04"/><line class="cls-1" x1="91.67" y1="171.62" x2="91.67" y2="168.04"/><line class="cls-1" x1="104.43" y1="171.62" x2="104.43" y2="168.04"/><line class="cls-1" x1="117.19" y1="171.62" x2="117.19" y2="168.04"/><line class="cls-1" x1="129.94" y1="171.62" x2="129.94" y2="168.04"/><line class="cls-1" x1="142.7" y1="171.62" x2="142.7" y2="168.04"/><line class="cls-1" x1="155.45" y1="171.62" x2="155.45" y2="168.04"/><line class="cls-1" x1="168.21" y1="171.62" x2="168.21" y2="168.04"/><line class="cls-1" x1="180.97" y1="171.62" x2="180.97" y2="168.04"/><line class="cls-1" x1="193.72" y1="171.62" x2="193.72" y2="168.04"/><line class="cls-1" x1="206.48" y1="171.62" x2="206.48" y2="168.04"/><line class="cls-1" x1="219.23" y1="171.62" x2="219.23" y2="168.04"/><line class="cls-1" x1="231.99" y1="171.62" x2="231.99" y2="168.04"/><line class="cls-1" x1="244.75" y1="171.62" x2="244.75" y2="168.04"/><line class="cls-1" x1="257.5" y1="171.62" x2="257.5" y2="168.04"/><line class="cls-1" x1="270.26" y1="171.62" x2="270.26" y2="168.04"/><line class="cls-1" x1="283.01" y1="171.62" x2="283.01" y2="168.04"/><line class="cls-1" x1="295.77" y1="171.62" x2="295.77" y2="168.04"/><line class="cls-1" x1="308.53" y1="171.62" x2="308.53" y2="168.04"/><line class="cls-1" x1="321.28" y1="171.62" x2="321.28" y2="168.04"/><line class="cls-1" x1="334.04" y1="171.62" x2="334.04" y2="168.04"/><line class="cls-1" x1="346.79" y1="171.62" x2="346.79" y2="168.04"/><line class="cls-1" x1="359.55" y1="171.62" x2="359.55" y2="168.04"/><line class="cls-1" x1="372.31" y1="171.62" x2="372.31" y2="168.04"/><line class="cls-1" x1="27.89" y1="171.62" x2="27.89" y2="168.04"/><path d="M32.18,184.37c0,.41,0,.45-.47.45H24.06c-.43,0-.47,0-.47-.47V176.4c0-.41.06-.45.46-.45h7.68c.41,0,.45.05.45.45Zm-8.07-.07h7.55v-7.83H24.11Z"/><line class="cls-2" x1="22.87" y1="190.33" x2="32.91" y2="190.33"/><text class="cls-3" transform="translate(24.73 202.41)">9</text><line class="cls-4" x1="27.89" y1="196.73" x2="27.89" y2="223.63"/><line class="cls-1" x1="66.16" y1="171.62" x2="66.16" y2="168.04"/><path d="M70.45,184.37c0,.41,0,.45-.47.45H62.33c-.43,0-.47,0-.47-.47V176.4c0-.41,0-.45.45-.45H70c.41,0,.45.05.45.45Zm-8.07-.07h7.55v-7.83H62.38Z"/><line class="cls-2" x1="61.14" y1="190.33" x2="71.18" y2="190.33"/><text class="cls-3" transform="translate(63 202.41)">9</text><line class="cls-4" x1="66.16" y1="196.73" x2="66.16" y2="223.63"/><line class="cls-1" x1="104.43" y1="171.62" x2="104.43" y2="168.04"/><path d="M108.71,184.37c0,.41,0,.45-.46.45h-7.66c-.42,0-.46,0-.46-.47V176.4c0-.41.05-.45.45-.45h7.68c.42,0,.45.05.45.45Zm-8.06-.07h7.55v-7.83h-7.55Z"/><line class="cls-2" x1="99.41" y1="190.33" x2="109.45" y2="190.33"/><text class="cls-3" transform="translate(101.27 202.41)">9</text><line class="cls-4" x1="104.43" y1="196.73" x2="104.43" y2="223.63"/><line class="cls-1" x1="142.7" y1="171.62" x2="142.7" y2="168.04"/><path d="M147,184.37c0,.41,0,.45-.46.45h-7.66c-.42,0-.46,0-.46-.47V176.4c0-.41,0-.45.45-.45h7.68c.42,0,.45.05.45.45Zm-8.06-.07h7.55v-7.83h-7.55Z"/><line class="cls-2" x1="137.68" y1="190.33" x2="147.72" y2="190.33"/><text class="cls-3" transform="translate(139.54 202.41)">9</text><line class="cls-4" x1="142.7" y1="196.73" x2="142.7" y2="223.63"/><line class="cls-1" x1="180.97" y1="171.62" x2="180.97" y2="168.04"/><path d="M185.25,184.37c0,.41,0,.45-.46.45h-7.66c-.42,0-.46,0-.46-.47V176.4c0-.41.05-.45.45-.45h7.68c.41,0,.45.05.45.45Zm-8.07-.07h7.56v-7.83h-7.56Z"/><line class="cls-2" x1="175.94" y1="190.33" x2="185.99" y2="190.33"/><text class="cls-3" transform="translate(177.81 202.41)">9</text><line class="cls-4" x1="180.97" y1="196.73" x2="180.97" y2="223.63"/><line class="cls-1" x1="219.23" y1="171.62" x2="219.23" y2="168.04"/><path d="M223.52,184.37c0,.41,0,.45-.47.45H215.4c-.43,0-.47,0-.47-.47V176.4c0-.41.06-.45.46-.45h7.68c.41,0,.45.05.45.45Zm-8.07-.07H223v-7.83h-7.55Z"/><line class="cls-2" x1="214.21" y1="190.33" x2="224.25" y2="190.33"/><text class="cls-3" transform="translate(216.07 202.41)">9</text><line class="cls-4" x1="219.23" y1="196.73" x2="219.23" y2="223.63"/><line class="cls-1" x1="257.5" y1="171.62" x2="257.5" y2="168.04"/><path d="M261.79,184.37c0,.41,0,.45-.47.45h-7.65c-.43,0-.47,0-.47-.47V176.4c0-.41.06-.45.46-.45h7.68c.41,0,.45.05.45.45Zm-8.07-.07h7.55v-7.83h-7.55Z"/><line class="cls-2" x1="252.48" y1="190.33" x2="262.52" y2="190.33"/><text class="cls-3" transform="translate(254.34 202.41)">9</text><line class="cls-4" x1="257.5" y1="196.73" x2="257.5" y2="223.63"/><line class="cls-1" x1="295.77" y1="171.62" x2="295.77" y2="168.04"/><path d="M300.06,184.37c0,.41,0,.45-.47.45h-7.65c-.43,0-.47,0-.47-.47V176.4c0-.41,0-.45.45-.45h7.68c.42,0,.46.05.46.45ZM292,184.3h7.55v-7.83H292Z"/><line class="cls-2" x1="290.75" y1="190.33" x2="300.79" y2="190.33"/><text class="cls-3" transform="translate(292.61 202.41)">9</text><line class="cls-4" x1="295.77" y1="196.73" x2="295.77" y2="223.63"/><line class="cls-1" x1="334.04" y1="171.62" x2="334.04" y2="168.04"/><path d="M338.32,184.37c0,.41,0,.45-.46.45H330.2c-.42,0-.46,0-.46-.47V176.4c0-.41.05-.45.45-.45h7.68c.42,0,.45.05.45.45Zm-8.06-.07h7.55v-7.83h-7.55Z"/><line class="cls-2" x1="329.02" y1="190.33" x2="339.06" y2="190.33"/><text class="cls-3" transform="translate(330.88 202.41)">9</text><line class="cls-4" x1="334.04" y1="196.73" x2="334.04" y2="223.63"/><line class="cls-1" x1="372.31" y1="171.62" x2="372.31" y2="168.04"/><path d="M376.59,184.37c0,.41,0,.45-.46.45h-7.66c-.42,0-.46,0-.46-.47V176.4c0-.41.05-.45.45-.45h7.68c.41,0,.45.05.45.45Zm-8.07-.07h7.56v-7.83h-7.56Z"/><line class="cls-2" x1="367.29" y1="190.33" x2="377.33" y2="190.33"/><text class="cls-3" transform="translate(369.15 202.41)">9</text><line class="cls-4" x1="372.31" y1="196.73" x2="372.31" y2="223.63"/><path class="cls-5" d="M182.76,169.83a1.8,1.8,0,1,0-1.79,1.79A1.79,1.79,0,0,0,182.76,169.83Z"/><line class="cls-1" x1="27.89" y1="237.08" x2="372.31" y2="237.08"/><path d="M27.87,229.9a3.11,3.11,0,0,1-1.74-.47A3,3,0,0,1,25,228.08a5,5,0,0,1-.4-2.06v-.85a5.11,5.11,0,0,1,.4-2.08,3,3,0,0,1,1.15-1.35,3.55,3.55,0,0,1,3.53,0,3,3,0,0,1,1.15,1.35,5,5,0,0,1,.4,2.06V226a4.9,4.9,0,0,1-.41,2.07,3.13,3.13,0,0,1-1.16,1.37,3.21,3.21,0,0,1-1.77.47Zm0-.82a2.05,2.05,0,0,0,1.72-.8,3.63,3.63,0,0,0,.61-2.25v-.88a3.63,3.63,0,0,0-.62-2.26,2.21,2.21,0,0,0-3.42,0,3.61,3.61,0,0,0-.62,2.24V226a3.63,3.63,0,0,0,.62,2.24,2,2,0,0,0,1.71.82Z"/><path d="M143,229.9c-.26,0-.4-.15-.4-.45v-6.53a1,1,0,0,1-.4.34,1.19,1.19,0,0,1-.54.12,1,1,0,0,1-.73-.25.68.68,0,0,1-.21-.49.62.62,0,0,1,.19-.44.14.14,0,0,1,.09-.06.92.92,0,0,0,.74.31,1,1,0,0,0,.72-.29,1.05,1.05,0,0,0,.33-.71h.34c.29,0,.43.15.43.45v7.55c0,.3-.14.45-.43.45Z"/><path d="M255.33,229.9a.77.77,0,0,1-.48-.12.55.55,0,0,1-.15-.43V229a2.77,2.77,0,0,1,.35-1.42,3.15,3.15,0,0,1,.88-1,11.13,11.13,0,0,1,1.33-.79,13.15,13.15,0,0,0,1.19-.66,2.32,2.32,0,0,0,.64-.57,1.28,1.28,0,0,0,.27-.82,1.42,1.42,0,0,0-.49-1.13,2.37,2.37,0,0,0-2.78.06,2.54,2.54,0,0,0-.72,1.24s-.06,0-.17,0a.63.63,0,0,1-.32-.15.43.43,0,0,1-.15-.36,1.38,1.38,0,0,1,.17-.61,2.32,2.32,0,0,1,.49-.65,3,3,0,0,1,.94-.59,3.31,3.31,0,0,1,1.25-.22,2.89,2.89,0,0,1,2,.65,2.25,2.25,0,0,1,.73,1.75A2.12,2.12,0,0,1,260,225a2.62,2.62,0,0,1-.8.79,13.11,13.11,0,0,1-1.29.72,11.45,11.45,0,0,0-1.17.64,2.88,2.88,0,0,0-.76.71,1.79,1.79,0,0,0-.33,1l0,.26H260c.31,0,.46.13.46.39v.07c0,.27-.15.4-.46.4Z"/><path d="M372.08,229.9a4.09,4.09,0,0,1-1.36-.21,2.83,2.83,0,0,1-1-.57,2.1,2.1,0,0,1-.46-.55,1.05,1.05,0,0,1-.15-.5.48.48,0,0,1,.13-.35.57.57,0,0,1,.28-.16.3.3,0,0,1,.16,0,2,2,0,0,0,.85,1.13,2.76,2.76,0,0,0,1.52.41,2.4,2.4,0,0,0,1.53-.45,1.64,1.64,0,0,0,0-2.45,2.42,2.42,0,0,0-1.55-.43h-.72c-.3,0-.45-.12-.45-.35v-.08q0-.36.42-.36h.86a2,2,0,0,0,1.3-.38,1.43,1.43,0,0,0,0-2.14,2.2,2.2,0,0,0-1.38-.4,2.33,2.33,0,0,0-1.3.37,2.14,2.14,0,0,0-.82,1s-.06,0-.17,0a.68.68,0,0,1-.27-.18.39.39,0,0,1-.13-.31.84.84,0,0,1,.14-.4,2.28,2.28,0,0,1,.35-.43,3,3,0,0,1,1-.56,3.62,3.62,0,0,1,1.26-.21,3.29,3.29,0,0,1,2.07.58,2,2,0,0,1,.74,1.62,1.76,1.76,0,0,1-.39,1.17,2,2,0,0,1-1.1.66,2.38,2.38,0,0,1,1.27.78,2.11,2.11,0,0,1,.45,1.37,2.18,2.18,0,0,1-.82,1.8,3.45,3.45,0,0,1-2.24.65Z"/><line class="cls-1" x1="27.89" y1="238.87" x2="27.89" y2="235.28"/><path d="M32.18,251.62c0,.41,0,.45-.46.45H24.06c-.43,0-.46,0-.46-.47v-7.95c0-.41,0-.45.45-.45h7.68c.41,0,.45.05.45.45Zm-8.07-.07h7.55v-7.83H24.11Z"/><line class="cls-2" x1="21.57" y1="257.58" x2="34.21" y2="257.58"/><text class="cls-3" transform="translate(21.57 269.66)">12</text><line class="cls-1" x1="66.16" y1="238.87" x2="66.16" y2="235.28"/><path d="M70.45,251.62c0,.41,0,.45-.47.45H62.33c-.43,0-.47,0-.47-.47v-7.95c0-.41,0-.45.45-.45H70c.41,0,.45.05.45.45Zm-8.07-.07h7.55v-7.83H62.38Z"/><line class="cls-2" x1="59.84" y1="257.58" x2="72.48" y2="257.58"/><text class="cls-3" transform="translate(59.84 269.66)">12</text><line class="cls-1" x1="104.43" y1="238.87" x2="104.43" y2="235.28"/><path d="M108.72,251.62c0,.41,0,.45-.47.45H100.6c-.43,0-.47,0-.47-.47v-7.95c0-.41.05-.45.45-.45h7.68c.42,0,.46.05.46.45Zm-8.07-.07h7.55v-7.83h-7.55Z"/><line class="cls-2" x1="98.11" y1="257.58" x2="110.75" y2="257.58"/><text class="cls-3" transform="translate(98.11 269.66)">12</text><line class="cls-1" x1="142.7" y1="238.87" x2="142.7" y2="235.28"/><path d="M147,251.62c0,.41,0,.45-.46.45h-7.66c-.42,0-.46,0-.46-.47v-7.95c0-.41,0-.45.45-.45h7.68c.42,0,.45.05.45.45Zm-8.06-.07h7.55v-7.83h-7.55Z"/><line class="cls-2" x1="136.38" y1="257.58" x2="149.02" y2="257.58"/><text class="cls-3" transform="translate(136.38 269.66)">12</text><line class="cls-1" x1="180.97" y1="238.87" x2="180.97" y2="235.28"/><path d="M185.25,251.62c0,.41,0,.45-.46.45h-7.66c-.42,0-.46,0-.46-.47v-7.95c0-.41.05-.45.45-.45h7.68c.41,0,.45.05.45.45Zm-8.07-.07h7.56v-7.83h-7.56Z"/><line class="cls-2" x1="174.64" y1="257.58" x2="187.29" y2="257.58"/><text class="cls-3" transform="translate(174.64 269.66)">12</text><line class="cls-1" x1="219.23" y1="238.87" x2="219.23" y2="235.28"/><path d="M223.52,251.62c0,.41,0,.45-.46.45H215.4c-.43,0-.46,0-.46-.47v-7.95c0-.41.05-.45.45-.45h7.68c.41,0,.45.05.45.45Zm-8.07-.07H223v-7.83h-7.55Z"/><line class="cls-2" x1="212.91" y1="257.58" x2="225.55" y2="257.58"/><text class="cls-3" transform="translate(212.91 269.66)">12</text><line class="cls-1" x1="257.5" y1="238.87" x2="257.5" y2="235.28"/><path d="M261.79,251.62c0,.41,0,.45-.47.45h-7.65c-.43,0-.47,0-.47-.47v-7.95c0-.41.06-.45.46-.45h7.68c.41,0,.45.05.45.45Zm-8.07-.07h7.55v-7.83h-7.55Z"/><line class="cls-2" x1="251.18" y1="257.58" x2="263.82" y2="257.58"/><text class="cls-3" transform="translate(251.18 269.66)">12</text><line class="cls-1" x1="295.77" y1="238.87" x2="295.77" y2="235.28"/><path d="M300.06,251.62c0,.41,0,.45-.47.45h-7.65c-.43,0-.47,0-.47-.47v-7.95c0-.41,0-.45.45-.45h7.69c.41,0,.45.05.45.45Zm-8.07-.07h7.55v-7.83H292Z"/><line class="cls-2" x1="289.45" y1="257.58" x2="302.09" y2="257.58"/><text class="cls-3" transform="translate(289.45 269.66)">12</text><line class="cls-1" x1="334.04" y1="238.87" x2="334.04" y2="235.28"/><path d="M338.32,251.62c0,.41,0,.45-.46.45H330.2c-.42,0-.46,0-.46-.47v-7.95c0-.41.05-.45.45-.45h7.68c.42,0,.45.05.45.45Zm-8.06-.07h7.55v-7.83h-7.55Z"/><line class="cls-2" x1="327.72" y1="257.58" x2="340.36" y2="257.58"/><text class="cls-3" transform="translate(327.72 269.66)">12</text><line class="cls-1" x1="372.31" y1="238.87" x2="372.31" y2="235.28"/><path d="M376.59,251.62c0,.41,0,.45-.46.45h-7.66c-.42,0-.46,0-.46-.47v-7.95c0-.41.05-.45.45-.45h7.68c.42,0,.45.05.45.45Zm-8.06-.07h7.55v-7.83h-7.55Z"/><line class="cls-2" x1="365.99" y1="257.58" x2="378.63" y2="257.58"/><text class="cls-3" transform="translate(365.99 269.66)">12</text><line class="cls-1" x1="27.89" y1="238.87" x2="27.89" y2="235.28"/><line class="cls-1" x1="37.46" y1="238.87" x2="37.46" y2="235.28"/><line class="cls-1" x1="47.03" y1="238.87" x2="47.03" y2="235.28"/><line class="cls-1" x1="56.59" y1="238.87" x2="56.59" y2="235.28"/><line class="cls-1" x1="66.16" y1="238.87" x2="66.16" y2="235.28"/><line class="cls-1" x1="75.73" y1="238.87" x2="75.73" y2="235.28"/><line class="cls-1" x1="85.3" y1="238.87" x2="85.3" y2="235.28"/><line class="cls-1" x1="94.86" y1="238.87" x2="94.86" y2="235.28"/><line class="cls-1" x1="104.43" y1="238.87" x2="104.43" y2="235.28"/><line class="cls-1" x1="114" y1="238.87" x2="114" y2="235.28"/><line class="cls-1" x1="123.56" y1="238.87" x2="123.56" y2="235.28"/><line class="cls-1" x1="133.13" y1="238.87" x2="133.13" y2="235.28"/><line class="cls-1" x1="142.7" y1="238.87" x2="142.7" y2="235.28"/><line class="cls-1" x1="152.26" y1="238.87" x2="152.26" y2="235.28"/><line class="cls-1" x1="161.83" y1="238.87" x2="161.83" y2="235.28"/><line class="cls-1" x1="171.4" y1="238.87" x2="171.4" y2="235.28"/><line class="cls-1" x1="180.97" y1="238.87" x2="180.97" y2="235.28"/><line class="cls-1" x1="190.53" y1="238.87" x2="190.53" y2="235.28"/><line class="cls-1" x1="200.1" y1="238.87" x2="200.1" y2="235.28"/><line class="cls-1" x1="209.67" y1="238.87" x2="209.67" y2="235.28"/><line class="cls-1" x1="219.23" y1="238.87" x2="219.23" y2="235.28"/><line class="cls-1" x1="228.8" y1="238.87" x2="228.8" y2="235.28"/><line class="cls-1" x1="238.37" y1="238.87" x2="238.37" y2="235.28"/><line class="cls-1" x1="247.93" y1="238.87" x2="247.93" y2="235.28"/><line class="cls-1" x1="257.5" y1="238.87" x2="257.5" y2="235.28"/><line class="cls-1" x1="267.07" y1="238.87" x2="267.07" y2="235.28"/><line class="cls-1" x1="276.64" y1="238.87" x2="276.64" y2="235.28"/><line class="cls-1" x1="286.2" y1="238.87" x2="286.2" y2="235.28"/><line class="cls-1" x1="295.77" y1="238.87" x2="295.77" y2="235.28"/><line class="cls-1" x1="305.34" y1="238.87" x2="305.34" y2="235.28"/><line class="cls-1" x1="314.91" y1="238.87" x2="314.91" y2="235.28"/><line class="cls-1" x1="324.47" y1="238.87" x2="324.47" y2="235.28"/><line class="cls-1" x1="334.04" y1="238.87" x2="334.04" y2="235.28"/><line class="cls-1" x1="343.61" y1="238.87" x2="343.61" y2="235.28"/><line class="cls-1" x1="353.17" y1="238.87" x2="353.17" y2="235.28"/><line class="cls-1" x1="362.74" y1="238.87" x2="362.74" y2="235.28"/><line class="cls-1" x1="372.31" y1="238.87" x2="372.31" y2="235.28"/><path class="cls-5" d="M182.76,237.08a1.8,1.8,0,1,0-1.79,1.79A1.8,1.8,0,0,0,182.76,237.08Z"/></svg>