<svg id="Camada_1" data-name="Camada 1" xmlns="http://www.w3.org/2000/svg" viewBox="0 0 273.99 102.94"><defs><style>.cls-1,.cls-2,.cls-3,.cls-5{fill:none;}.cls-1,.cls-2,.cls-5{stroke:#000;}.cls-1,.cls-3,.cls-5{stroke-miterlimit:10;}.cls-1,.cls-2{stroke-width:0.4px;}.cls-2{stroke-linecap:round;stroke-linejoin:round;}.cls-3{stroke:#e6164d;stroke-width:1.59px;}.cls-4{font-size:9.96px;font-family:CMR10;}.cls-5{stroke-width:0.57px;}.cls-6{fill:#e6164d;}</style></defs><line class="cls-1" x1="35.05" y1="51.18" x2="238.75" y2="51.18"/><path class="cls-2" d="M236.87,48.79A3.16,3.16,0,0,0,239,51.18a3.18,3.18,0,0,0-2.08,2.39"/><line class="cls-3" x1="60.56" y1="51.18" x2="94.58" y2="51.18"/><line class="cls-1" x1="60.56" y1="48.19" x2="60.56" y2="54.17"/><path d="M60.54,68.75a3.64,3.64,0,0,1-1.95-.52,3.42,3.42,0,0,1-1.27-1.5,5.62,5.62,0,0,1-.44-2.3v-1a5.65,5.65,0,0,1,.44-2.3,3.38,3.38,0,0,1,1.28-1.5,3.89,3.89,0,0,1,3.92,0,3.28,3.28,0,0,1,1.27,1.49,5.46,5.46,0,0,1,.45,2.3v.93a5.46,5.46,0,0,1-.45,2.3,3.45,3.45,0,0,1-1.29,1.52,3.59,3.59,0,0,1-2,.53Zm0-.92a2.29,2.29,0,0,0,1.92-.89,4,4,0,0,0,.68-2.49v-1A4,4,0,0,0,62.46,61a2.47,2.47,0,0,0-3.81,0A4.07,4.07,0,0,0,58,63.44v1a4.06,4.06,0,0,0,.69,2.5,2.25,2.25,0,0,0,1.89.9Z"/><line class="cls-1" x1="111.58" y1="48.19" x2="111.58" y2="54.17"/><path d="M111.94,68.55c-.3,0-.45-.17-.45-.5V60.79a1.16,1.16,0,0,1-.44.38,1.39,1.39,0,0,1-.61.13,1.16,1.16,0,0,1-.81-.28.74.74,0,0,1-.23-.55.72.72,0,0,1,.06-.29.78.78,0,0,1,.14-.2c.06,0,.09-.06.11,0a1,1,0,0,0,.82.34,1.14,1.14,0,0,0,.8-.32,1.19,1.19,0,0,0,.36-.8h.39c.32,0,.47.17.47.5v8.4c0,.33-.15.5-.47.5Z"/><line class="cls-1" x1="162.61" y1="48.19" x2="162.61" y2="54.17"/><path d="M160.2,68.61a.79.79,0,0,1-.54-.15.58.58,0,0,1-.16-.47v-.36a3,3,0,0,1,.38-1.57,3.63,3.63,0,0,1,1-1.08,12,12,0,0,1,1.48-.88c.61-.31,1-.56,1.32-.73a2.72,2.72,0,0,0,.71-.64,1.42,1.42,0,0,0,.3-.91,1.58,1.58,0,0,0-.54-1.25,2.26,2.26,0,0,0-1.51-.47,2.23,2.23,0,0,0-1.58.54,2.74,2.74,0,0,0-.8,1.37s-.06,0-.19,0a.73.73,0,0,1-.36-.16.51.51,0,0,1-.17-.4,1.6,1.6,0,0,1,.2-.68,2.61,2.61,0,0,1,.54-.72,3.31,3.31,0,0,1,1-.66,3.82,3.82,0,0,1,1.39-.25,3.21,3.21,0,0,1,2.24.73,2.47,2.47,0,0,1,.81,1.94,2.31,2.31,0,0,1-.35,1.28,3.07,3.07,0,0,1-.88.88,16.15,16.15,0,0,1-1.44.8,11.21,11.21,0,0,0-1.3.71,3.18,3.18,0,0,0-.84.79,2.09,2.09,0,0,0-.37,1.08l0,.28h4.86c.35,0,.52.15.52.43v.09c0,.3-.17.45-.52.45Z"/><line class="cls-1" x1="213.63" y1="48.19" x2="213.63" y2="54.17"/><path d="M213.38,68.75a4.43,4.43,0,0,1-1.51-.24,3.27,3.27,0,0,1-1.09-.64,2.28,2.28,0,0,1-.5-.6,1.26,1.26,0,0,1-.17-.56.56.56,0,0,1,.14-.39.64.64,0,0,1,.31-.17c.11,0,.17,0,.18,0a2.27,2.27,0,0,0,.95,1.25,3.07,3.07,0,0,0,1.69.46,2.6,2.6,0,0,0,1.69-.51,1.63,1.63,0,0,0,.64-1.35,1.68,1.68,0,0,0-.61-1.37,2.69,2.69,0,0,0-1.72-.48h-.8c-.34,0-.5-.12-.5-.38v-.09c0-.27.15-.4.47-.4h.95a2.21,2.21,0,0,0,1.44-.42,1.45,1.45,0,0,0,.52-1.19,1.46,1.46,0,0,0-.56-1.19,2.42,2.42,0,0,0-1.53-.44A2.53,2.53,0,0,0,211,61.49s-.07,0-.18,0a.79.79,0,0,1-.31-.2.48.48,0,0,1-.14-.35.92.92,0,0,1,.15-.44,2.83,2.83,0,0,1,.4-.48,3.18,3.18,0,0,1,1.07-.62,3.92,3.92,0,0,1,1.4-.24,3.66,3.66,0,0,1,2.3.65,2.18,2.18,0,0,1,.82,1.8,2,2,0,0,1-.43,1.3,2.23,2.23,0,0,1-1.22.73,2.7,2.7,0,0,1,1.41.87,2.36,2.36,0,0,1,.5,1.52,2.42,2.42,0,0,1-.91,2,3.87,3.87,0,0,1-2.49.73Z"/><text class="cls-4" transform="translate(75.08 65.57)">1</text><line class="cls-5" x1="75.08" y1="67.63" x2="80.06" y2="67.63"/><text class="cls-4" transform="translate(75.08 76.17)">3</text><text class="cls-4" transform="translate(92.08 65.57)">2</text><line class="cls-5" x1="92.08" y1="67.63" x2="97.06" y2="67.63"/><text class="cls-4" transform="translate(92.08 76.17)">3</text><text class="cls-4" transform="translate(40.26 32.62)">2</text><line class="cls-5" x1="40.26" y1="34.68" x2="45.24" y2="34.68"/><text class="cls-4" transform="translate(40.26 43.21)">3</text><path d="M52.53,38.42A3,3,0,0,1,50.91,38a3.15,3.15,0,0,1-1.13-1.26,4.15,4.15,0,0,1-.4-1.87,4.1,4.1,0,0,1,.4-1.86,3.1,3.1,0,0,1,1.14-1.26,3.17,3.17,0,0,1,3.15-.08,2.48,2.48,0,0,1,1,.94v-4s0-.06.11-.08a.62.62,0,0,1,.25,0c.45,0,.67.31.67.92v8.42c0,.32-.15.49-.46.49h-.1c-.3,0-.44-.16-.44-.46s0-.49,0-.89A2.82,2.82,0,0,1,54,38a2.77,2.77,0,0,1-1.5.39ZM55,33.77a2.57,2.57,0,0,0-.87-1.2,2.31,2.31,0,0,0-1.43-.43,2.13,2.13,0,0,0-1.68.74,2.89,2.89,0,0,0-.64,2,3.3,3.3,0,0,0,.29,1.4,2.29,2.29,0,0,0,.83,1,2.13,2.13,0,0,0,1.19.35,2.31,2.31,0,0,0,1.16-.3,2.22,2.22,0,0,0,.84-.8A2.12,2.12,0,0,0,55,35.31Zm2.44,2.73a1.77,1.77,0,0,1,1.12-1.69,9.23,9.23,0,0,1,3.57-.56h.16V34a1.79,1.79,0,0,0-.48-1.34,1.91,1.91,0,0,0-1.37-.47,2.39,2.39,0,0,0-1.3.33,2.15,2.15,0,0,0-.8.89.52.52,0,0,1-.19,0,.63.63,0,0,1-.3-.16.42.42,0,0,1-.14-.35.82.82,0,0,1,.11-.36,1.4,1.4,0,0,1,.31-.4,2.85,2.85,0,0,1,1-.59,4,4,0,0,1,1.39-.23A2.84,2.84,0,0,1,62.6,32a2.65,2.65,0,0,1,.73,2v4.24s0,0-.12.07a.69.69,0,0,1-.25,0q-.52,0-.6-.66,0-.4,0-.63a2.46,2.46,0,0,1-1,1,3.06,3.06,0,0,1-1.52.38,2.56,2.56,0,0,1-1.7-.52,1.69,1.69,0,0,1-.62-1.39Zm4.85-1.58-.25,0a7.76,7.76,0,0,0-2.73.4,1.18,1.18,0,0,0-.84,1.13,1,1,0,0,0,.4.85,1.72,1.72,0,0,0,1.09.31,2.59,2.59,0,0,0,1.18-.27,2.23,2.23,0,0,0,.84-.74,1.89,1.89,0,0,0,.31-1ZM73,31.36c.31,0,.46.17.46.49v6.36s0,0-.12.07a.73.73,0,0,1-.25,0c-.36,0-.56-.22-.6-.67,0-.25,0-.44,0-.56a3,3,0,0,1-1,1,2.64,2.64,0,0,1-1.39.36,2.37,2.37,0,0,1-1.95-.81,3.27,3.27,0,0,1-.67-2.17V31.85c0-.32.15-.49.46-.49h.11c.31,0,.46.17.46.49v3.52A2.36,2.36,0,0,0,69,36.94a1.62,1.62,0,0,0,1.33.56,2.2,2.2,0,0,0,1.27-.37,2.34,2.34,0,0,0,.84-1V31.85c0-.32.15-.49.44-.49Zm5.65-.1a2.38,2.38,0,0,1,2,.81,3.23,3.23,0,0,1,.67,2.16v3.59c0,.32-.15.49-.44.49h-.13c-.31,0-.46-.17-.46-.49v-3.5a2.41,2.41,0,0,0-.47-1.57,1.61,1.61,0,0,0-1.33-.57,2.31,2.31,0,0,0-1.28.37,2.37,2.37,0,0,0-.84,1v4.26c0,.32-.15.49-.44.49h-.13c-.31,0-.46-.17-.46-.49V31.48s0,0,.12-.07a.7.7,0,0,1,.25-.05c.4,0,.61.29.63.86v.41a2.62,2.62,0,0,1,2.35-1.37Zm4.35-2a.66.66,0,1,1,1.32,0,.62.62,0,0,1-.18.48.69.69,0,0,1-.49.16.68.68,0,0,1-.48-.16.65.65,0,0,1-.17-.48Zm.13,2.6c0-.34.15-.51.46-.51h.11c.31,0,.46.17.46.51v5.95c0,.32-.15.49-.46.49h-.11c-.31,0-.46-.17-.46-.49Zm5.67,6.55A3,3,0,0,1,87.21,38a3.07,3.07,0,0,1-1.13-1.26,4.15,4.15,0,0,1-.41-1.87A4.11,4.11,0,0,1,86.08,33a3.07,3.07,0,0,1,1.13-1.26,3,3,0,0,1,1.65-.46,2.93,2.93,0,0,1,1.5.38,2.48,2.48,0,0,1,1,.94v-4s0-.06.11-.08a.66.66,0,0,1,.25,0c.45,0,.68.31.68.92v8.42c0,.32-.16.49-.46.49h-.1a.4.4,0,0,1-.45-.46c0-.19,0-.49,0-.89a2.9,2.9,0,0,1-1,1.07,2.79,2.79,0,0,1-1.5.39Zm2.49-4.65a2.62,2.62,0,0,0-.86-1.2A2.33,2.33,0,0,0,89,32.14a2.13,2.13,0,0,0-1.68.74,2.9,2.9,0,0,0-.65,2,3.16,3.16,0,0,0,.3,1.4,2.27,2.27,0,0,0,.82,1,2.15,2.15,0,0,0,1.19.35,2.34,2.34,0,0,0,1.17-.3,2.14,2.14,0,0,0,1.14-1.94Zm2.44,2.73a1.78,1.78,0,0,1,1.13-1.69,9.21,9.21,0,0,1,3.56-.56h.16V34a1.79,1.79,0,0,0-.48-1.34,1.9,1.9,0,0,0-1.37-.47,2.39,2.39,0,0,0-1.3.33,2.12,2.12,0,0,0-.79.89.57.57,0,0,1-.2,0,.63.63,0,0,1-.3-.16.45.45,0,0,1-.13-.35.79.79,0,0,1,.1-.36,1.6,1.6,0,0,1,.31-.4,3,3,0,0,1,1-.59,3.93,3.93,0,0,1,1.39-.23A2.84,2.84,0,0,1,98.9,32a2.65,2.65,0,0,1,.73,2v4.24s0,0-.12.07a.73.73,0,0,1-.25,0c-.36,0-.56-.22-.61-.66,0-.27,0-.48,0-.63a2.46,2.46,0,0,1-1,1,3.09,3.09,0,0,1-1.52.38,2.54,2.54,0,0,1-1.7-.52,1.7,1.7,0,0,1-.63-1.39Zm4.85-1.58-.24,0a7.72,7.72,0,0,0-2.73.4,1.18,1.18,0,0,0-.84,1.13,1,1,0,0,0,.4.85,1.72,1.72,0,0,0,1.09.31,2.52,2.52,0,0,0,1.17-.27,2.09,2.09,0,0,0,.84-.74,1.82,1.82,0,0,0,.31-1Zm5.53,3.5a3,3,0,0,1-1.63-.45,3.12,3.12,0,0,1-1.12-1.26,4.15,4.15,0,0,1-.41-1.87,4.11,4.11,0,0,1,.41-1.86,3.07,3.07,0,0,1,1.13-1.26,3.17,3.17,0,0,1,3.15-.08,2.48,2.48,0,0,1,1,.94v-4s0-.06.11-.08a.62.62,0,0,1,.25,0c.45,0,.67.31.67.92v8.42c0,.32-.15.49-.45.49h-.11a.4.4,0,0,1-.44-.46c0-.19,0-.49,0-.89a2.84,2.84,0,0,1-1,1.07,2.73,2.73,0,0,1-1.49.39Zm2.49-4.65a2.57,2.57,0,0,0-.87-1.2,2.28,2.28,0,0,0-1.42-.43,2.13,2.13,0,0,0-1.68.74,2.9,2.9,0,0,0-.65,2,3.16,3.16,0,0,0,.3,1.4,2.27,2.27,0,0,0,.82,1,2.13,2.13,0,0,0,1.19.35,2.31,2.31,0,0,0,1.16-.3,2.09,2.09,0,0,0,.84-.8,2.12,2.12,0,0,0,.31-1.14Zm2.44,1.11a3.93,3.93,0,0,1,.44-1.86,3.25,3.25,0,0,1,1.2-1.29,3.32,3.32,0,0,1,1.75-.47,3.08,3.08,0,0,1,1.65.43,2.79,2.79,0,0,1,1.1,1.18,3.83,3.83,0,0,1,.39,1.76v.11a.32.32,0,0,1-.08.25.41.41,0,0,1-.28.08h-5.18a1.15,1.15,0,0,0,0,.2,2.51,2.51,0,0,0,.79,1.66,2.41,2.41,0,0,0,1.71.63,2.52,2.52,0,0,0,1.4-.34,2.43,2.43,0,0,0,.82-.92.44.44,0,0,1,.2,0,.8.8,0,0,1,.27.18.48.48,0,0,1,.12.33.84.84,0,0,1-.13.41,1.67,1.67,0,0,1-.41.44,2.76,2.76,0,0,1-1,.52,4,4,0,0,1-1.33.21,3.75,3.75,0,0,1-1.83-.44,3.15,3.15,0,0,1-1.22-1.26,3.82,3.82,0,0,1-.44-1.84Zm5.51-.56a2.41,2.41,0,0,0-.62-1.61,2,2,0,0,0-1.5-.61,2.19,2.19,0,0,0-1.58.61,2.66,2.66,0,0,0-.79,1.61Z"/><line class="cls-1" x1="77.57" y1="54.17" x2="77.57" y2="48.19"/><circle class="cls-6" cx="60.56" cy="51.18" r="2.99"/><circle class="cls-6" cx="94.58" cy="51.18" r="2.99"/></svg>