<svg id="Camada_1" data-name="Camada 1" xmlns="http://www.w3.org/2000/svg" viewBox="0 0 268.89 103.22"><defs><style>.cls-1,.cls-2{font-size:14.35px;}.cls-1{font-family:CMR12;}.cls-2{font-family:CMMI12;}.cls-3{fill:none;stroke:#000;stroke-miterlimit:10;stroke-width:0.57px;}</style></defs><text class="cls-1" transform="translate(28.82 57.38)">0</text><text class="cls-2" transform="translate(39.82 57.38)">&lt;</text><path d="M70.83,47c0,.66-.07.72-.75.72H57.83c-.68,0-.74-.08-.74-.74V34.2c0-.66.08-.72.72-.72H70.1c.66,0,.73.08.73.72Zm-12.92-.11H70V34.3H57.91Z"/><line class="cls-3" x1="55.93" y1="53.79" x2="72" y2="53.79"/><path d="M70.83,69c0,.66-.07.73-.75.73H57.83c-.68,0-.74-.09-.74-.75V56.27c0-.66.08-.72.72-.72H70.1c.66,0,.73.08.73.72Zm-12.92-.1H70V56.38H57.91Z"/><text class="cls-2" transform="translate(77.18 57.38)">&lt;</text><path d="M108.18,47c0,.66-.06.72-.74.72H95.19c-.68,0-.74-.08-.74-.74V34.2c0-.66.08-.72.72-.72h12.29c.66,0,.72.08.72.72Zm-12.91-.11h12.09V34.3H95.27Z"/><line class="cls-3" x1="93.29" y1="53.79" x2="109.36" y2="53.79"/><path d="M108.18,69c0,.66-.06.73-.74.73H95.19c-.68,0-.74-.09-.74-.75V56.27c0-.66.08-.72.72-.72h12.29c.66,0,.72.08.72.72Zm-12.91-.1h12.09V56.38H95.27Z"/><text class="cls-2" transform="translate(114.54 57.38)">&lt;</text><path d="M145.54,47c0,.66-.06.72-.74.72H132.55c-.69,0-.75-.08-.75-.74V34.2c0-.66.09-.72.73-.72h12.29c.66,0,.72.08.72.72Zm-12.91-.11h12.09V34.3H132.63Z"/><line class="cls-3" x1="130.65" y1="53.79" x2="146.72" y2="53.79"/><path d="M145.54,69c0,.66-.06.73-.74.73H132.55c-.69,0-.75-.09-.75-.75V56.27c0-.66.09-.72.73-.72h12.29c.66,0,.72.08.72.72Zm-12.91-.1h12.09V56.38H132.63Z"/><text class="cls-2" transform="translate(151.9 57.38)">&lt;</text><text class="cls-1" transform="translate(166.81 57.38)">1</text><text class="cls-2" transform="translate(177.82 57.38)">&lt;</text><path d="M208.82,47c0,.66-.06.72-.74.72H195.82c-.68,0-.74-.08-.74-.74V34.2c0-.66.08-.72.72-.72h12.3c.66,0,.72.08.72.72Zm-12.91-.11H208V34.3H195.91Z"/><line class="cls-3" x1="193.92" y1="53.79" x2="209.99" y2="53.79"/><path d="M208.82,69c0,.66-.06.73-.74.73H195.82c-.68,0-.74-.09-.74-.75V56.27c0-.66.08-.72.72-.72h12.3c.66,0,.72.08.72.72Zm-12.91-.1H208V56.38H195.91Z"/><text class="cls-2" transform="translate(215.17 57.38)">&lt;</text><text class="cls-1" transform="translate(230.08 57.38)">2</text><text class="cls-2" transform="translate(237.11 57.38)">.</text></svg>