<svg id="Camada_1" data-name="Camada 1" xmlns="http://www.w3.org/2000/svg" viewBox="0 0 401.14 111.67"><defs><style>.cls-1{fill:#91b5c9;}.cls-2,.cls-3,.cls-6{fill:none;stroke:#000;stroke-miterlimit:10;}.cls-2,.cls-3{stroke-width:0.4px;}.cls-3{stroke-dasharray:2.99 2.99;}.cls-4{fill:#f8c175;}.cls-5{font-size:9.96px;font-family:CMR10;}.cls-6{stroke-width:0.57px;}</style></defs><rect class="cls-1" x="23.84" y="20.4" width="170.08" height="28.35"/><rect class="cls-2" x="23.84" y="20.4" width="170.08" height="28.35"/><line class="cls-3" x1="66.36" y1="48.75" x2="66.36" y2="20.4"/><line class="cls-3" x1="108.88" y1="48.75" x2="108.88" y2="20.4"/><line class="cls-3" x1="151.4" y1="48.75" x2="151.4" y2="20.4"/><rect class="cls-4" x="23.84" y="62.92" width="170.08" height="28.35"/><rect class="cls-2" x="23.84" y="62.92" width="170.08" height="28.35"/><line class="cls-3" x1="66.36" y1="91.27" x2="66.36" y2="62.92"/><line class="cls-3" x1="108.88" y1="91.27" x2="108.88" y2="62.92"/><line class="cls-3" x1="151.4" y1="91.27" x2="151.4" y2="62.92"/><rect class="cls-1" x="249.74" y="41.66" width="85.04" height="28.35"/><rect class="cls-2" x="249.74" y="41.66" width="85.04" height="28.35"/><line class="cls-3" x1="292.26" y1="70.01" x2="292.26" y2="41.66"/><rect class="cls-4" x="334.78" y="41.66" width="42.52" height="28.35"/><rect class="cls-2" x="334.78" y="41.66" width="42.52" height="28.35"/><text class="cls-5" transform="translate(268.51 53.75)">1</text><line class="cls-6" x1="268.51" y1="55.81" x2="273.49" y2="55.81"/><text class="cls-5" transform="translate(268.51 64.34)">4</text><text class="cls-5" transform="translate(311.03 53.75)">1</text><line class="cls-6" x1="311.03" y1="55.81" x2="316.01" y2="55.81"/><text class="cls-5" transform="translate(311.03 64.34)">4</text><text class="cls-5" transform="translate(353.55 53.75)">1</text><line class="cls-6" x1="353.55" y1="55.81" x2="358.53" y2="55.81"/><text class="cls-5" transform="translate(353.55 64.34)">4</text></svg>