<svg id="Camada_1" data-name="Camada 1" xmlns="http://www.w3.org/2000/svg" xmlns:xlink="http://www.w3.org/1999/xlink" viewBox="0 0 163.84 43.76"><defs><style>.cls-1,.cls-2{fill:none;}.cls-2{stroke:#000;stroke-miterlimit:10;stroke-width:0.4px;}.cls-3{clip-path:url(#clip-path);}.cls-4{fill:#e6164d;}.cls-5{fill:#95d4e9;opacity:0.3;}</style><clipPath id="clip-path"><polygon class="cls-1" points="37.73 13.38 23 4.87 8.27 13.38 8.27 30.39 23 38.89 37.73 30.39 52.46 38.89 67.19 30.39 81.92 38.89 96.65 30.39 111.38 38.89 126.11 30.39 140.84 38.89 155.56 30.39 155.56 13.38 140.84 4.87 126.11 13.38 111.38 4.87 96.65 13.38 81.92 4.87 67.19 13.38 52.46 4.87 37.73 13.38"/></clipPath></defs><polygon class="cls-2" points="37.73 13.38 23 4.87 8.27 13.38 8.27 30.39 23 38.89 37.73 30.39 52.46 38.89 67.19 30.39 81.92 38.89 96.65 30.39 111.38 38.89 126.11 30.39 140.84 38.89 155.56 30.39 155.56 13.38 140.84 4.87 126.11 13.38 111.38 4.87 96.65 13.38 81.92 4.87 67.19 13.38 52.46 4.87 37.73 13.38"/><g class="cls-3"><rect class="cls-4" x="5.99" y="4.87" width="90.65" height="34.02"/><rect class="cls-2" x="5.99" y="4.87" width="90.65" height="34.02"/><rect class="cls-5" x="96.65" y="4.87" width="73.65" height="34.02"/><rect class="cls-2" x="96.65" y="4.87" width="73.65" height="34.02"/></g></svg>