<?xml version="1.0" encoding="utf-8"?>
<!-- Generator: Adobe Illustrator 16.0.0, SVG Export Plug-In . SVG Version: 6.00 Build 0)  -->
<!DOCTYPE svg PUBLIC "-//W3C//DTD SVG 1.1//EN" "http://www.w3.org/Graphics/SVG/1.1/DTD/svg11.dtd">
<svg version="1.1" id="Layer_1" xmlns="http://www.w3.org/2000/svg" xmlns:xlink="http://www.w3.org/1999/xlink" x="0px" y="0px"
	 width="127.561px" height="141.73px" viewBox="0 0 127.561 141.73" enable-background="new 0 0 127.561 141.73"
	 xml:space="preserve">
<path fill="none" stroke="#231F20" stroke-width="3" stroke-linecap="round" stroke-linejoin="round" stroke-miterlimit="10" d="
	M25.079,33.846c0,0,15.487,1.768,23.079,19.39"/>
<path fill="#EC2227" d="M17.612,57.138C6.78,62.532,13.005,86.494,27.03,97.995c12.802,10.497,27.273,17.037,36.137,18.037
	s19.363,0.521,27.113-7.25c7.895-7.917,8.696-11.019,14.75-15.5c19.251-14.25-0.75-32-0.75-32l-74.75-1
	C29.53,60.282,20.37,55.764,17.612,57.138z"/>
<path fill="#F8E69B" stroke="#EC2227" stroke-width="3" stroke-miterlimit="10" d="M22.525,52.616
	c9.952-5.419,27.282,1.792,27.282,1.792s-3.298-13.192,6.813-18.306c15.593-7.885,34.829,6.534,44.121,17.93
	c8.083,9.913,17.479,24.983,7.652,30.969c-5.107,3.111-18.041-0.736-22.784-1.696c1.374,4.167,5.799,9.33-3.252,16.259
	c-9.178,7.025-35.594-2.118-48.08-10.182C11.28,74.532,7.53,60.782,22.525,52.616z"/>
<path fill="#08A650" d="M56.168,31.302c3.741-3.74,4.333-9.903,4.362-13.148c-2.856,0.026-9.322,0.538-13.147,4.363
	c-3.742,3.743-4.333,9.904-4.362,13.15C45.878,35.641,52.343,35.129,56.168,31.302L56.168,31.302z"/>
<path fill="#231F20" d="M56.679,64.755c-0.366,1.637,3.671,14.407,7.667,12.355C68.972,74.734,58.532,65.208,56.679,64.755z"/>
<path fill="#231F20" d="M77.278,68.516c2.338-3.833-10.103-8.796-11.761-8.551C65.832,61.846,74.567,72.955,77.278,68.516z"/>
</svg>
