<?xml version="1.0" encoding="utf-8"?>
<!-- Generator: Adobe Illustrator 16.0.0, SVG Export Plug-In . SVG Version: 6.00 Build 0)  -->
<!DOCTYPE svg PUBLIC "-//W3C//DTD SVG 1.1//EN" "http://www.w3.org/Graphics/SVG/1.1/DTD/svg11.dtd">
<svg version="1.1" id="Layer_1" xmlns="http://www.w3.org/2000/svg" xmlns:xlink="http://www.w3.org/1999/xlink" x="0px" y="0px"
	 width="566.929px" height="141.732px" viewBox="0 0 566.929 141.732" enable-background="new 0 0 566.929 141.732"
	 xml:space="preserve">
<g>
	<path fill="#A87D50" stroke="#231F20" stroke-linecap="round" stroke-linejoin="round" stroke-miterlimit="10" d="M102.951,41.948"
		/>
	<path fill="#A87D50" stroke="#231F20" stroke-linecap="round" stroke-linejoin="round" stroke-miterlimit="10" d="M83.908,23.733"
		/>
	<circle fill="#F6C434" stroke="#000000" stroke-miterlimit="10" cx="57.9" cy="71.209" r="36.142"/>
	<g>
		<path fill="#F9BF76" d="M57.898,115.517c-24.145,0-43.789-19.646-43.789-43.789c0-24.146,19.645-43.79,43.789-43.79
			c24.146,0,43.79,19.644,43.79,43.79C101.688,95.872,82.043,115.517,57.898,115.517z M57.898,35.315
			c-20.077,0-36.412,16.334-36.412,36.413c0,20.075,16.335,36.411,36.412,36.411c20.078,0,36.413-16.336,36.413-36.411
			C94.311,51.649,77.976,35.315,57.898,35.315z"/>
	</g>
	<g>
		<circle fill="#D1323E" cx="57.091" cy="47.134" r="2.651"/>
		<circle fill="#D1323E" cx="41.748" cy="52.599" r="3.482"/>
		<circle fill="#D1323E" cx="50.177" cy="62.188" r="3.482"/>
		<circle fill="#D1323E" cx="77.326" cy="83.863" r="3.482"/>
		<circle fill="#D1323E" cx="31.95" cy="69.019" r="4.311"/>
		<circle fill="#D1323E" cx="68.611" cy="91.259" r="2.499"/>
		<circle fill="#D1323E" cx="80.186" cy="71.906" r="2.234"/>
		<circle fill="#D1323E" cx="46.341" cy="78.021" r="2.64"/>
		<circle fill="#D1323E" cx="65.124" cy="64.562" r="3.594"/>
		<circle fill="#D1323E" cx="71.11" cy="50.727" r="3.593"/>
		<circle fill="#D1323E" cx="79.765" cy="61.573" r="3.072"/>
		<circle fill="#D1323E" cx="37.441" cy="85.427" r="3.332"/>
		<circle fill="#D1323E" cx="53.966" cy="96.444" r="4.746"/>
		<circle fill="#D1323E" cx="61.715" cy="79.782" r="4.746"/>
	</g>
	<line fill="none" stroke="#FFFFFF" stroke-width="4" stroke-miterlimit="10" x1="11.174" y1="71.481" x2="103.174" y2="71.481"/>
	<path fill="none" stroke="#231F20" stroke-linecap="round" stroke-linejoin="round" stroke-miterlimit="10" d="M61.714,28.104
		c0,0,35.818,4.764,39.974,39.221c2.583,21.42-9.926,37.032-24.361,43.637c-27.149,12.422-48.125-4.033-52.99-11.146"/>
	<path fill="#F6C434" d="M76.941,57.281"/>
	<polygon opacity="0.8" fill="#FFFFFF" enable-background="new    " points="8.423,71.979 106.505,73.331 96.192,39.066 
		63.182,23.733 38.266,26.791 16.809,44.482 	"/>
	<path fill="#A87D50" stroke="#231F20" stroke-linecap="round" stroke-linejoin="round" stroke-miterlimit="10" d="M458.951,41.948"
		/>
	<path fill="#A87D50" stroke="#231F20" stroke-linecap="round" stroke-linejoin="round" stroke-miterlimit="10" d="M441.908,23.733"
		/>
	<circle fill="#F6C434" stroke="#000000" stroke-miterlimit="10" cx="415.899" cy="71.728" r="36.141"/>
	<g>
		<path fill="#F9BF76" d="M415.898,115.517c-24.145,0-43.789-19.646-43.789-43.789c0-24.146,19.645-43.79,43.789-43.79
			c24.146,0,43.789,19.644,43.789,43.79C459.687,95.872,440.042,115.517,415.898,115.517z M415.898,35.315
			c-20.076,0-36.412,16.334-36.412,36.413c0,20.075,16.336,36.411,36.412,36.411c20.078,0,36.412-16.336,36.412-36.411
			C452.31,51.649,435.976,35.315,415.898,35.315z"/>
	</g>
	<g>
		<circle fill="#D1323E" cx="415.091" cy="47.134" r="2.651"/>
		<circle fill="#D1323E" cx="399.748" cy="52.599" r="3.482"/>
		<circle fill="#D1323E" cx="408.177" cy="62.188" r="3.482"/>
		<circle fill="#D1323E" cx="435.326" cy="83.863" r="3.482"/>
		<circle fill="#D1323E" cx="389.951" cy="69.019" r="4.311"/>
		<circle fill="#D1323E" cx="426.611" cy="91.259" r="2.499"/>
		<circle fill="#D1323E" cx="438.185" cy="71.906" r="2.234"/>
		<circle fill="#D1323E" cx="404.341" cy="78.021" r="2.64"/>
		<circle fill="#D1323E" cx="423.125" cy="64.562" r="3.594"/>
		<circle fill="#D1323E" cx="429.109" cy="50.727" r="3.593"/>
		<circle fill="#D1323E" cx="437.765" cy="61.573" r="3.072"/>
		<circle fill="#D1323E" cx="395.441" cy="85.427" r="3.332"/>
		<circle fill="#D1323E" cx="411.966" cy="96.444" r="4.746"/>
		<circle fill="#D1323E" cx="419.714" cy="79.782" r="4.746"/>
	</g>
	<path fill="none" stroke="#231F20" stroke-linecap="round" stroke-linejoin="round" stroke-miterlimit="10" d="M419.714,28.104
		c0,0,35.818,4.764,39.973,39.221c2.584,21.42-9.926,37.032-24.359,43.637c-27.15,12.422-48.125-4.033-52.99-11.146"/>
	<path fill="#F6C434" d="M434.941,57.281"/>
	<path fill="#A87D50" stroke="#231F20" stroke-linecap="round" stroke-linejoin="round" stroke-miterlimit="10" d="M554.951,41.948"
		/>
	<path fill="#A87D50" stroke="#231F20" stroke-linecap="round" stroke-linejoin="round" stroke-miterlimit="10" d="M535.908,23.733"
		/>
	<circle fill="#F6C434" stroke="#000000" stroke-miterlimit="10" cx="509.898" cy="71.728" r="36.141"/>
	<g>
		<path fill="#F9BF76" d="M509.898,115.517c-24.145,0-43.789-19.646-43.789-43.789c0-24.146,19.645-43.79,43.789-43.79
			c24.146,0,43.789,19.644,43.789,43.79C553.687,95.872,534.042,115.517,509.898,115.517z M509.898,35.315
			c-20.076,0-36.412,16.334-36.412,36.413c0,20.075,16.336,36.411,36.412,36.411c20.078,0,36.412-16.336,36.412-36.411
			C546.31,51.649,529.976,35.315,509.898,35.315z"/>
	</g>
	<g>
		<circle fill="#D1323E" cx="509.091" cy="47.134" r="2.651"/>
		<circle fill="#D1323E" cx="493.748" cy="52.599" r="3.482"/>
		<circle fill="#D1323E" cx="502.177" cy="62.188" r="3.482"/>
		<circle fill="#D1323E" cx="529.326" cy="83.863" r="3.482"/>
		<circle fill="#D1323E" cx="483.951" cy="69.019" r="4.311"/>
		<circle fill="#D1323E" cx="520.611" cy="91.259" r="2.499"/>
		<circle fill="#D1323E" cx="532.185" cy="71.906" r="2.234"/>
		<circle fill="#D1323E" cx="498.341" cy="78.021" r="2.64"/>
		<circle fill="#D1323E" cx="517.125" cy="64.562" r="3.594"/>
		<circle fill="#D1323E" cx="523.109" cy="50.727" r="3.593"/>
		<circle fill="#D1323E" cx="531.765" cy="61.573" r="3.072"/>
		<circle fill="#D1323E" cx="489.441" cy="85.427" r="3.332"/>
		<circle fill="#D1323E" cx="505.966" cy="96.444" r="4.746"/>
		<circle fill="#D1323E" cx="513.714" cy="79.782" r="4.746"/>
	</g>
	<line fill="none" stroke="#FFFFFF" stroke-width="4" stroke-miterlimit="10" x1="463.173" y1="71.481" x2="555.173" y2="71.481"/>
	<path fill="none" stroke="#231F20" stroke-linecap="round" stroke-linejoin="round" stroke-miterlimit="10" d="M513.714,28.104
		c0,0,35.818,4.764,39.973,39.221c2.584,21.42-9.926,37.032-24.359,43.637c-27.15,12.422-48.125-4.033-52.99-11.146"/>
	<path fill="#F6C434" d="M528.941,57.281"/>
	<polygon opacity="0.8" fill="#FFFFFF" enable-background="new    " points="460.423,71.979 558.505,73.331 548.191,39.066 
		515.181,23.733 490.265,26.791 468.808,44.482 	"/>
	<path fill="#A87D50" stroke="#231F20" stroke-linecap="round" stroke-linejoin="round" stroke-miterlimit="10" d="M222.037,41.948"
		/>
	<g>
		<path fill="#A87D50" stroke="#231F20" stroke-linecap="round" stroke-linejoin="round" stroke-miterlimit="10" d="M202.994,23.733
			"/>
		<circle fill="#F6C434" stroke="#000000" stroke-miterlimit="10" cx="176.984" cy="71.728" r="36.142"/>
		<g>
			<path fill="#F9BF76" d="M176.984,115.517c-24.145,0-43.789-19.646-43.789-43.789c0-24.146,19.645-43.79,43.789-43.79
				s43.789,19.644,43.789,43.79C220.773,95.872,201.128,115.517,176.984,115.517z M176.984,35.315
				c-20.078,0-36.412,16.334-36.412,36.413c0,20.075,16.334,36.411,36.412,36.411c20.078,0,36.412-16.336,36.412-36.411
				C213.396,51.649,197.062,35.315,176.984,35.315z"/>
		</g>
		<g>
			<circle fill="#D1323E" cx="176.177" cy="47.134" r="2.651"/>
			<circle fill="#D1323E" cx="160.834" cy="52.599" r="3.482"/>
			<circle fill="#D1323E" cx="169.262" cy="62.188" r="3.482"/>
			<circle fill="#D1323E" cx="196.412" cy="83.863" r="3.481"/>
			<circle fill="#D1323E" cx="151.035" cy="69.019" r="4.311"/>
			<circle fill="#D1323E" cx="187.696" cy="91.259" r="2.499"/>
			<circle fill="#D1323E" cx="199.271" cy="71.906" r="2.233"/>
			<circle fill="#D1323E" cx="165.426" cy="78.021" r="2.64"/>
			<circle fill="#D1323E" cx="184.209" cy="64.562" r="3.594"/>
			<circle fill="#D1323E" cx="190.196" cy="50.727" r="3.593"/>
			<circle fill="#D1323E" cx="198.851" cy="61.573" r="3.072"/>
			<circle fill="#D1323E" cx="156.527" cy="85.427" r="3.332"/>
			<circle fill="#D1323E" cx="173.052" cy="96.444" r="4.745"/>
			<circle fill="#D1323E" cx="180.801" cy="79.782" r="4.745"/>
		</g>
		
			<line fill="none" stroke="#FFFFFF" stroke-width="4" stroke-miterlimit="10" x1="176.174" y1="25.481" x2="176.174" y2="117.481"/>
		<line fill="none" stroke="#FFFFFF" stroke-width="4" stroke-miterlimit="10" x1="130.174" y1="71.481" x2="222.174" y2="71.481"/>
		<path fill="none" stroke="#231F20" stroke-linecap="round" stroke-linejoin="round" stroke-miterlimit="10" d="M180.8,28.104
			c0,0,35.818,4.764,39.973,39.221c2.584,21.42-9.926,37.032-24.361,43.637c-27.149,12.422-48.125-4.033-52.989-11.146"/>
	</g>
	<path fill="#F6C434" d="M196.027,57.281"/>
	<polygon opacity="0.8" fill="#FFFFFF" enable-background="new    " points="127.509,71.979 176.989,72.394 176.984,117.999 
		214.49,111.876 225.591,73.331 215.278,39.066 182.268,23.733 157.352,26.791 135.894,44.482 	"/>
	<path fill="#A87D50" stroke="#231F20" stroke-linecap="round" stroke-linejoin="round" stroke-miterlimit="10" d="M342.154,41.948"
		/>
	<g>
		<path fill="#A87D50" stroke="#231F20" stroke-linecap="round" stroke-linejoin="round" stroke-miterlimit="10" d="M323.111,23.733
			"/>
		<circle fill="#F6C434" stroke="#000000" stroke-miterlimit="10" cx="297.102" cy="71.728" r="36.141"/>
		<g>
			<path fill="#F9BF76" d="M297.102,115.517c-24.146,0-43.789-19.646-43.789-43.789c0-24.146,19.644-43.79,43.789-43.79
				c24.146,0,43.789,19.644,43.789,43.79C340.891,95.872,321.248,115.517,297.102,115.517z M297.102,35.315
				c-20.078,0-36.412,16.334-36.412,36.413c0,20.075,16.334,36.411,36.412,36.411c20.077,0,36.411-16.336,36.411-36.411
				C333.513,51.649,317.179,35.315,297.102,35.315z"/>
		</g>
		<g>
			<circle fill="#D1323E" cx="296.294" cy="47.134" r="2.651"/>
			<circle fill="#D1323E" cx="280.951" cy="52.599" r="3.482"/>
			<circle fill="#D1323E" cx="289.38" cy="62.188" r="3.482"/>
			<circle fill="#D1323E" cx="316.531" cy="83.863" r="3.481"/>
			<circle fill="#D1323E" cx="271.153" cy="69.019" r="4.311"/>
			<circle fill="#D1323E" cx="307.814" cy="91.259" r="2.499"/>
			<circle fill="#D1323E" cx="319.388" cy="71.906" r="2.234"/>
			<circle fill="#D1323E" cx="285.544" cy="78.021" r="2.64"/>
			<circle fill="#D1323E" cx="304.328" cy="64.562" r="3.594"/>
			<circle fill="#D1323E" cx="310.314" cy="50.727" r="3.593"/>
			<circle fill="#D1323E" cx="318.968" cy="61.573" r="3.072"/>
			<circle fill="#D1323E" cx="276.645" cy="85.427" r="3.331"/>
			<circle fill="#D1323E" cx="293.169" cy="96.444" r="4.746"/>
			<circle fill="#D1323E" cx="300.917" cy="79.782" r="4.746"/>
		</g>
		
			<line fill="none" stroke="#FFFFFF" stroke-width="4" stroke-miterlimit="10" x1="296.173" y1="25.481" x2="296.173" y2="117.481"/>
		<line fill="none" stroke="#FFFFFF" stroke-width="4" stroke-miterlimit="10" x1="250.174" y1="71.481" x2="342.173" y2="71.481"/>
		<path fill="none" stroke="#231F20" stroke-linecap="round" stroke-linejoin="round" stroke-miterlimit="10" d="M300.917,28.104
			c0,0,35.817,4.764,39.974,39.221c2.584,21.42-9.927,37.032-24.36,43.637c-27.15,12.422-48.125-4.033-52.991-11.146"/>
	</g>
	<path fill="#F6C434" d="M316.145,57.281"/>
	<polyline opacity="0.8" fill="#FFFFFF" enable-background="new    " points="296.589,23.733 277.469,26.791 256.012,44.482 
		247.626,71.979 297.107,72.394 	"/>
</g>
</svg>
