<svg id="Camada_1" data-name="Camada 1" xmlns="http://www.w3.org/2000/svg" viewBox="0 0 371.7 329.14"><defs><style>.cls-1{fill:#e5114c;}.cls-2{fill:none;stroke:#000;stroke-miterlimit:10;stroke-width:0.4px;}.cls-3{fill:#94d4e9;opacity:0.3;}</style></defs><rect class="cls-1" x="5.29" y="9.54" width="42.52" height="28.35"/><rect class="cls-2" x="5.29" y="9.54" width="42.52" height="28.35"/><rect class="cls-3" x="47.81" y="9.54" width="42.52" height="28.35"/><rect class="cls-2" x="47.81" y="9.54" width="42.52" height="28.35"/><path d="M26.71,46.73a.69.69,0,0,1,.16-.46.58.58,0,0,1,.43-.17h5c.33,0,.5.15.5.43v.09c0,.3-.17.44-.5.44H27.79v3.43h3.36c.33,0,.5.15.5.43V51a.39.39,0,0,1-.12.33.59.59,0,0,1-.38.1H27.8v3.52a.52.52,0,0,1-.12.36.48.48,0,0,1-.35.13h-.16c-.3,0-.46-.18-.46-.55ZM34,46.39a.65.65,0,0,1,.17-.49.66.66,0,0,1,.49-.17.61.61,0,0,1,.66.66.62.62,0,0,1-.18.48.72.72,0,0,1-.5.16.64.64,0,0,1-.47-.16.61.61,0,0,1-.17-.48Zm.12,2.6c0-.34.16-.51.46-.51h.12c.3,0,.46.17.46.51v5.95c0,.33-.16.49-.46.49H34.6c-.3,0-.46-.16-.46-.49Zm5.21,9.41c-2.13,0-3.2-.62-3.2-1.87a1.54,1.54,0,0,1,.63-1.24,3.54,3.54,0,0,1,1.61-.69.79.79,0,0,1-.43-.69.85.85,0,0,1,.42-.73,2.54,2.54,0,0,1-1.27-.86,2.23,2.23,0,0,1-.47-1.4A2.38,2.38,0,0,1,37,49.64a2.54,2.54,0,0,1,1-.92,3,3,0,0,1,1.41-.34,2.81,2.81,0,0,1,1.62.48l.52-.78a.71.71,0,0,1,.6-.41.53.53,0,0,1,.3.09.81.81,0,0,1,.21.2.23.23,0,0,1,.06.17l-1.13,1.2a2.29,2.29,0,0,1,.26,2.8,2.53,2.53,0,0,1-1,.88,3,3,0,0,1-1.43.32h-.37a.43.43,0,0,0-.17.37.46.46,0,0,0,.3.39,5.69,5.69,0,0,0,1,.3l.53.13c1.37.33,2.06,1,2.06,1.84a1.68,1.68,0,0,1-.91,1.5,4.86,4.86,0,0,1-2.54.55Zm0-.75a4.06,4.06,0,0,0,1.78-.31,1,1,0,0,0,.63-.92.78.78,0,0,0-.4-.69,3.67,3.67,0,0,0-1.11-.43l-.84-.2a3.86,3.86,0,0,0-1.62.46,1.12,1.12,0,0,0-.66,1,.93.93,0,0,0,.56.84,3.8,3.8,0,0,0,1.66.29Zm0-5a1.74,1.74,0,0,0,1.27-.48,1.63,1.63,0,0,0,.49-1.25,1.7,1.7,0,0,0-.48-1.25,1.77,1.77,0,0,0-1.29-.48,1.74,1.74,0,0,0-1.27.48,1.7,1.7,0,0,0-.49,1.25,1.64,1.64,0,0,0,.5,1.25,1.74,1.74,0,0,0,1.27.48Zm9.74-4.14c.31,0,.46.17.46.49v6.36s0,0-.12.07a.73.73,0,0,1-.25,0c-.36,0-.56-.22-.61-.67,0-.25,0-.44,0-.56a3.1,3.1,0,0,1-1,1,2.64,2.64,0,0,1-1.39.36,2.4,2.4,0,0,1-2-.81,3.33,3.33,0,0,1-.66-2.17V49c0-.32.15-.49.46-.49h.11c.31,0,.46.17.46.49v3.52a2.41,2.41,0,0,0,.47,1.57,1.64,1.64,0,0,0,1.34.56,2.2,2.2,0,0,0,1.27-.37,2.34,2.34,0,0,0,.84-1V49c0-.32.14-.49.44-.49Zm5.08-.1a1.2,1.2,0,0,1,.74.21.66.66,0,0,1,.28.54.66.66,0,0,1-.07.32.49.49,0,0,1-.15.19c-.05,0-.09.06-.1,0a1.11,1.11,0,0,0-.82-.29,1.31,1.31,0,0,0-1.22.75,4.41,4.41,0,0,0-.41,2.08v2.71c0,.33-.15.49-.45.49h-.11c-.32,0-.47-.16-.47-.49V48.6s0,0,.11-.07a.71.71,0,0,1,.26-.05q.52,0,.6.69,0,.49,0,.75a2.13,2.13,0,0,1,.66-1.15,1.68,1.68,0,0,1,1.12-.39Zm1.59,5.24A1.78,1.78,0,0,1,57,51.93a9.21,9.21,0,0,1,3.56-.56h.16v-.29a1.79,1.79,0,0,0-.48-1.34,1.9,1.9,0,0,0-1.37-.47,2.39,2.39,0,0,0-1.3.33,2.12,2.12,0,0,0-.79.89.57.57,0,0,1-.2,0,.63.63,0,0,1-.3-.16.45.45,0,0,1-.14-.35.82.82,0,0,1,.11-.36,1.6,1.6,0,0,1,.31-.4,2.9,2.9,0,0,1,1-.59,3.93,3.93,0,0,1,1.39-.23A2.84,2.84,0,0,1,61,49.1a2.65,2.65,0,0,1,.73,2v4.24s0,0-.12.07a.73.73,0,0,1-.25,0c-.36,0-.56-.22-.61-.66,0-.27,0-.48,0-.63a2.46,2.46,0,0,1-1,1,3.09,3.09,0,0,1-1.52.38,2.54,2.54,0,0,1-1.7-.52,1.7,1.7,0,0,1-.63-1.39ZM60.67,52l-.24,0a7.78,7.78,0,0,0-2.74.4,1.18,1.18,0,0,0-.84,1.13,1,1,0,0,0,.41.85,1.7,1.7,0,0,0,1.09.31,2.52,2.52,0,0,0,1.17-.27,2.09,2.09,0,0,0,.84-.74,1.82,1.82,0,0,0,.31-1Zm7.15,3.4c-.3,0-.45-.17-.45-.5V47.68a1.16,1.16,0,0,1-.44.38,1.4,1.4,0,0,1-.61.14,1.16,1.16,0,0,1-.81-.29.71.71,0,0,1-.23-.55.67.67,0,0,1,.2-.48c.06-.05.09-.07.11-.06a1,1,0,0,0,.82.34,1.1,1.1,0,0,0,.8-.32,1.17,1.17,0,0,0,.36-.79H68c.31,0,.47.16.47.5v8.39c0,.33-.16.5-.47.5Z"/><rect class="cls-3" x="143.33" y="9.54" width="42.52" height="28.35"/><rect class="cls-2" x="143.33" y="9.54" width="42.52" height="28.35"/><line class="cls-2" x1="157.5" y1="37.89" x2="157.5" y2="9.54"/><line class="cls-2" x1="164.59" y1="37.89" x2="164.59" y2="9.54"/><line class="cls-2" x1="174.51" y1="37.89" x2="174.51" y2="9.54"/><rect class="cls-1" x="185.85" y="9.54" width="42.52" height="28.35"/><rect class="cls-2" x="185.85" y="9.54" width="42.52" height="28.35"/><path d="M163.54,46.73a.65.65,0,0,1,.16-.46.56.56,0,0,1,.43-.17h5c.34,0,.51.15.51.43v.09c0,.3-.17.44-.51.44h-4.54v3.43H168c.34,0,.51.15.51.43V51a.39.39,0,0,1-.13.33.56.56,0,0,1-.38.1h-3.34v3.52a.52.52,0,0,1-.12.36.48.48,0,0,1-.35.13H164c-.31,0-.46-.18-.46-.55Zm7.3-.34a.59.59,0,0,1,.66-.66.68.68,0,0,1,.49.17.69.69,0,0,1,.17.49.62.62,0,0,1-.18.48.69.69,0,0,1-.49.16.68.68,0,0,1-.48-.16.65.65,0,0,1-.17-.48ZM171,49c0-.34.15-.51.46-.51h.12q.45,0,.45.51v5.95c0,.33-.15.49-.45.49h-.12c-.31,0-.46-.16-.46-.49Zm5.21,9.41c-2.13,0-3.2-.62-3.2-1.87a1.54,1.54,0,0,1,.63-1.24,3.54,3.54,0,0,1,1.61-.69.79.79,0,0,1-.43-.69.86.86,0,0,1,.41-.73,2.55,2.55,0,0,1-1.26-.86,2.23,2.23,0,0,1-.47-1.4,2.38,2.38,0,0,1,.36-1.28,2.58,2.58,0,0,1,1-.92,3.07,3.07,0,0,1,1.42-.34,2.81,2.81,0,0,1,1.62.48l.51-.78a.73.73,0,0,1,.61-.41.53.53,0,0,1,.3.09,1.34,1.34,0,0,1,.21.2.23.23,0,0,1,.06.17l-1.13,1.2a2.27,2.27,0,0,1,.61,1.55,2.36,2.36,0,0,1-.35,1.25,2.6,2.6,0,0,1-1,.88,3.07,3.07,0,0,1-1.43.32h-.37a.4.4,0,0,0-.17.37.46.46,0,0,0,.3.39,5.44,5.44,0,0,0,1,.3l.53.13c1.37.33,2.05,1,2.05,1.84a1.67,1.67,0,0,1-.9,1.5,4.86,4.86,0,0,1-2.54.55Zm0-.75a4.09,4.09,0,0,0,1.78-.31,1,1,0,0,0,.63-.92.8.8,0,0,0-.4-.69,3.67,3.67,0,0,0-1.11-.43l-.84-.2a3.86,3.86,0,0,0-1.63.46,1.12,1.12,0,0,0-.66,1,.92.92,0,0,0,.57.84,3.8,3.8,0,0,0,1.66.29Zm0-5a1.76,1.76,0,0,0,1.27-.48,1.63,1.63,0,0,0,.49-1.25,1.66,1.66,0,0,0-.49-1.25,1.74,1.74,0,0,0-1.29-.48,1.72,1.72,0,0,0-1.26.48,1.66,1.66,0,0,0-.49,1.25,1.64,1.64,0,0,0,.5,1.25,1.74,1.74,0,0,0,1.27.48ZM186,48.48c.3,0,.46.17.46.49v6.36s0,0-.13.07a.69.69,0,0,1-.25,0c-.35,0-.55-.22-.6-.67,0-.25,0-.44,0-.56a3,3,0,0,1-1,1,2.58,2.58,0,0,1-1.38.36,2.4,2.4,0,0,1-2-.81,3.33,3.33,0,0,1-.67-2.17V49c0-.32.16-.49.46-.49H181c.3,0,.46.17.46.49v3.52a2.41,2.41,0,0,0,.47,1.57,1.63,1.63,0,0,0,1.33.56,2.18,2.18,0,0,0,1.27-.37,2.34,2.34,0,0,0,.84-1V49c0-.32.15-.49.45-.49Zm5.08-.1a1.22,1.22,0,0,1,.74.21.65.65,0,0,1,.27.54.79.79,0,0,1-.06.32.49.49,0,0,1-.15.19c-.06,0-.09.06-.1,0a1.11,1.11,0,0,0-.82-.29,1.34,1.34,0,0,0-1.23.75,4.42,4.42,0,0,0-.4,2.08v2.71c0,.33-.15.49-.45.49h-.11a.43.43,0,0,1-.48-.49V48.6s0,0,.12-.07a.67.67,0,0,1,.26-.05q.53,0,.6.69,0,.49,0,.75a2.13,2.13,0,0,1,.66-1.15,1.66,1.66,0,0,1,1.12-.39Zm1.6,5.24a1.78,1.78,0,0,1,1.13-1.69,9.21,9.21,0,0,1,3.56-.56h.16v-.29a1.79,1.79,0,0,0-.48-1.34,1.9,1.9,0,0,0-1.37-.47,2.39,2.39,0,0,0-1.3.33,2.12,2.12,0,0,0-.79.89.57.57,0,0,1-.2,0,.63.63,0,0,1-.3-.16.45.45,0,0,1-.13-.35.79.79,0,0,1,.1-.36,1.6,1.6,0,0,1,.31-.4,3,3,0,0,1,1-.59,3.93,3.93,0,0,1,1.39-.23,2.84,2.84,0,0,1,2.08.72,2.65,2.65,0,0,1,.73,2v4.24s0,0-.12.07a.73.73,0,0,1-.25,0q-.54,0-.6-.66,0-.41,0-.63a2.46,2.46,0,0,1-1,1,3.09,3.09,0,0,1-1.52.38,2.54,2.54,0,0,1-1.7-.52,1.7,1.7,0,0,1-.63-1.39ZM197.51,52l-.24,0a7.72,7.72,0,0,0-2.73.4,1.18,1.18,0,0,0-.84,1.13,1,1,0,0,0,.4.85,1.72,1.72,0,0,0,1.09.31,2.52,2.52,0,0,0,1.17-.27,2.09,2.09,0,0,0,.84-.74,1.82,1.82,0,0,0,.31-1Zm5.6,3.34a.79.79,0,0,1-.54-.14.58.58,0,0,1-.17-.47v-.36a3,3,0,0,1,.39-1.57,3.4,3.4,0,0,1,1-1.08,12.64,12.64,0,0,1,1.47-.88c.62-.32,1.06-.56,1.33-.73a2.89,2.89,0,0,0,.71-.64,1.42,1.42,0,0,0,.3-.91,1.58,1.58,0,0,0-.54-1.25,2.62,2.62,0,0,0-3.09.07,2.67,2.67,0,0,0-.8,1.37s-.06,0-.19,0a.67.67,0,0,1-.36-.17.48.48,0,0,1-.17-.39,1.6,1.6,0,0,1,.2-.68,2.62,2.62,0,0,1,.53-.73,3.66,3.66,0,0,1,1.05-.65,3.62,3.62,0,0,1,1.39-.25,3.23,3.23,0,0,1,2.23.72,2.51,2.51,0,0,1,.81,2,2.31,2.31,0,0,1-.34,1.28,3.07,3.07,0,0,1-.88.88,14.15,14.15,0,0,1-1.44.79,12.8,12.8,0,0,0-1.3.72,3,3,0,0,0-.84.79,2,2,0,0,0-.37,1.08l0,.28h4.86c.34,0,.52.15.52.43v.09c0,.3-.18.44-.52.44Z"/><rect class="cls-3" x="281.37" y="9.54" width="42.52" height="28.35"/><rect class="cls-2" x="281.37" y="9.54" width="42.52" height="28.35"/><rect class="cls-3" x="323.89" y="9.54" width="42.52" height="28.35"/><rect class="cls-2" x="323.89" y="9.54" width="42.52" height="28.35"/><path d="M301.52,46.73a.69.69,0,0,1,.15-.46.59.59,0,0,1,.44-.17h5c.34,0,.5.15.5.43v.09c0,.3-.16.44-.5.44h-4.55v3.43H306c.33,0,.5.15.5.43V51a.39.39,0,0,1-.12.33.58.58,0,0,1-.38.1h-3.34v3.52a.52.52,0,0,1-.12.36.51.51,0,0,1-.36.13H302c-.31,0-.46-.18-.46-.55Zm7.3-.34a.66.66,0,1,1,1.32,0,.62.62,0,0,1-.18.48.7.7,0,0,1-.5.16.58.58,0,0,1-.64-.64ZM309,49c0-.34.15-.51.46-.51h.11c.31,0,.46.17.46.51v5.95c0,.33-.15.49-.46.49h-.11c-.31,0-.46-.16-.46-.49Zm5.21,9.41c-2.14,0-3.2-.62-3.2-1.87a1.54,1.54,0,0,1,.63-1.24,3.5,3.5,0,0,1,1.6-.69.81.81,0,0,1-.43-.69.85.85,0,0,1,.42-.73,2.47,2.47,0,0,1-1.26-.86,2.18,2.18,0,0,1-.48-1.4,2.38,2.38,0,0,1,.36-1.28,2.54,2.54,0,0,1,1-.92,3.06,3.06,0,0,1,1.41-.34,2.77,2.77,0,0,1,1.62.48l.52-.78a.71.71,0,0,1,.6-.41.49.49,0,0,1,.3.09.81.81,0,0,1,.21.2.21.21,0,0,1,.07.17l-1.14,1.2a2.24,2.24,0,0,1,.62,1.55,2.28,2.28,0,0,1-.36,1.25,2.57,2.57,0,0,1-1,.88,3.1,3.1,0,0,1-1.43.32h-.38a.43.43,0,0,0-.17.37.46.46,0,0,0,.3.39,5.87,5.87,0,0,0,1,.3l.53.13c1.37.33,2.05,1,2.05,1.84a1.67,1.67,0,0,1-.9,1.5,4.89,4.89,0,0,1-2.54.55Zm0-.75a4.06,4.06,0,0,0,1.78-.31,1,1,0,0,0,.63-.92.78.78,0,0,0-.4-.69,3.5,3.5,0,0,0-1.1-.43l-.85-.2a3.86,3.86,0,0,0-1.62.46,1.12,1.12,0,0,0-.66,1,.92.92,0,0,0,.57.84,3.78,3.78,0,0,0,1.65.29Zm0-5a1.74,1.74,0,0,0,1.27-.48,1.64,1.64,0,0,0,.5-1.25,1.66,1.66,0,0,0-.49-1.25,1.76,1.76,0,0,0-1.29-.48,1.7,1.7,0,0,0-1.26.48,1.66,1.66,0,0,0-.49,1.25,1.63,1.63,0,0,0,.49,1.25,1.76,1.76,0,0,0,1.27.48ZM324,48.48c.31,0,.46.17.46.49v6.36s0,0-.12.07a.69.69,0,0,1-.25,0c-.35,0-.55-.22-.6-.67,0-.25,0-.44,0-.56a3,3,0,0,1-1,1,2.63,2.63,0,0,1-1.38.36,2.39,2.39,0,0,1-2-.81,3.27,3.27,0,0,1-.67-2.17V49c0-.32.15-.49.46-.49H319c.3,0,.45.17.45.49v3.52a2.36,2.36,0,0,0,.48,1.57,1.62,1.62,0,0,0,1.33.56,2.2,2.2,0,0,0,1.27-.37,2.34,2.34,0,0,0,.84-1V49c0-.32.15-.49.45-.49Zm5.08-.1a1.18,1.18,0,0,1,.74.21.64.64,0,0,1,.28.54.79.79,0,0,1-.06.32.79.79,0,0,1-.15.19c-.06,0-.09.06-.1,0a1.14,1.14,0,0,0-.82-.29,1.32,1.32,0,0,0-1.23.75,4.41,4.41,0,0,0-.41,2.08v2.71c0,.33-.15.49-.44.49h-.12c-.31,0-.47-.16-.47-.49V48.6s0,0,.11-.07a.75.75,0,0,1,.26-.05c.36,0,.56.23.61.69s0,.58,0,.75a2.26,2.26,0,0,1,.66-1.15,1.68,1.68,0,0,1,1.12-.39Zm1.6,5.24a1.77,1.77,0,0,1,1.12-1.69,9.23,9.23,0,0,1,3.57-.56h.15v-.29a1.79,1.79,0,0,0-.48-1.34,1.88,1.88,0,0,0-1.37-.47,2.35,2.35,0,0,0-1.29.33,2.15,2.15,0,0,0-.8.89.52.52,0,0,1-.19,0,.71.71,0,0,1-.31-.16.45.45,0,0,1-.13-.35.7.7,0,0,1,.11-.36,1.55,1.55,0,0,1,.3-.4,3,3,0,0,1,1-.59,4,4,0,0,1,1.39-.23,2.84,2.84,0,0,1,2.08.72,2.65,2.65,0,0,1,.73,2v4.24s0,0-.12.07a.69.69,0,0,1-.25,0q-.53,0-.6-.66,0-.41,0-.63a2.46,2.46,0,0,1-1,1,3.09,3.09,0,0,1-1.52.38,2.56,2.56,0,0,1-1.7-.52,1.69,1.69,0,0,1-.62-1.39ZM335.47,52l-.24,0a7.76,7.76,0,0,0-2.73.4,1.18,1.18,0,0,0-.84,1.13,1,1,0,0,0,.4.85,1.72,1.72,0,0,0,1.09.31,2.59,2.59,0,0,0,1.18-.27,2.23,2.23,0,0,0,.84-.74,1.89,1.89,0,0,0,.3-1Zm7.82,3.5a4.43,4.43,0,0,1-1.51-.24,3.05,3.05,0,0,1-1.08-.63,2.21,2.21,0,0,1-.51-.61,1.23,1.23,0,0,1-.17-.55.5.5,0,0,1,.15-.39.53.53,0,0,1,.3-.18c.11,0,.17,0,.18,0a2.28,2.28,0,0,0,1,1.25,3,3,0,0,0,1.69.46,2.69,2.69,0,0,0,1.7-.5,1.81,1.81,0,0,0,0-2.72,2.74,2.74,0,0,0-1.73-.48h-.8c-.33,0-.5-.13-.5-.39v-.09c0-.26.16-.4.47-.4h1a2.26,2.26,0,0,0,1.45-.42,1.59,1.59,0,0,0-.05-2.38,2.42,2.42,0,0,0-1.53-.44,2.57,2.57,0,0,0-1.45.41,2.4,2.4,0,0,0-.9,1.05s-.08,0-.19,0a.84.84,0,0,1-.31-.19.5.5,0,0,1-.13-.36.86.86,0,0,1,.15-.43,2.16,2.16,0,0,1,.39-.48,3.29,3.29,0,0,1,1.07-.63,3.92,3.92,0,0,1,1.4-.24,3.6,3.6,0,0,1,2.3.66,2.16,2.16,0,0,1,.83,1.8,2,2,0,0,1-.44,1.3,2.17,2.17,0,0,1-1.21.72,2.63,2.63,0,0,1,1.4.88,2.28,2.28,0,0,1,.5,1.52,2.41,2.41,0,0,1-.91,2,3.83,3.83,0,0,1-2.49.73Z"/><rect class="cls-1" x="281.37" y="9.54" width="85.04" height="11.34"/><rect class="cls-2" x="281.37" y="9.54" width="85.04" height="11.34"/><path class="cls-1" d="M47.81,128.07a28.35,28.35,0,0,0,0-56.69"/><path class="cls-2" d="M47.81,128.07a28.35,28.35,0,0,0,0-56.69"/><line class="cls-2" x1="47.81" y1="71.38" x2="47.81" y2="128.07"/><path class="cls-3" d="M47.81,71.38a28.35,28.35,0,1,0,0,56.69"/><path class="cls-2" d="M47.81,71.38a28.35,28.35,0,1,0,0,56.69"/><path d="M25.1,136.91a.69.69,0,0,1,.16-.46.58.58,0,0,1,.43-.17h5c.33,0,.5.14.5.43v.09c0,.29-.17.44-.5.44H26.18v3.43h3.36c.33,0,.5.14.5.43v.07a.39.39,0,0,1-.12.33.58.58,0,0,1-.38.1H26.2v3.52a.53.53,0,0,1-.13.36.48.48,0,0,1-.35.13h-.16c-.3,0-.46-.19-.46-.55Zm7.31-.34a.65.65,0,0,1,.17-.49.68.68,0,0,1,.49-.17.61.61,0,0,1,.66.66.62.62,0,0,1-.18.48.72.72,0,0,1-.5.16.64.64,0,0,1-.47-.16.61.61,0,0,1-.17-.48Zm.13,2.6c0-.34.15-.51.46-.51h.11c.31,0,.46.17.46.51v6c0,.32-.15.49-.46.49H33c-.31,0-.46-.17-.46-.49Zm5.2,9.41c-2.13,0-3.2-.63-3.2-1.87a1.55,1.55,0,0,1,.64-1.24,3.62,3.62,0,0,1,1.6-.7.78.78,0,0,1-.43-.68.88.88,0,0,1,.42-.74,2.39,2.39,0,0,1-1.26-.85,2.2,2.2,0,0,1-.48-1.4,2.38,2.38,0,0,1,.36-1.28,2.47,2.47,0,0,1,1-.92,3,3,0,0,1,1.41-.34,2.81,2.81,0,0,1,1.62.48l.52-.78a.71.71,0,0,1,.6-.41.49.49,0,0,1,.3.09.81.81,0,0,1,.21.2.33.33,0,0,1,.07.16L40,139.51a2.29,2.29,0,0,1,.26,2.8,2.53,2.53,0,0,1-1,.88,3.15,3.15,0,0,1-1.42.32h-.38a.41.41,0,0,0-.17.37.46.46,0,0,0,.3.39,8.07,8.07,0,0,0,1,.3l.54.13c1.36.33,2,.95,2,1.83a1.67,1.67,0,0,1-.91,1.51,5,5,0,0,1-2.54.55Zm0-.75a4,4,0,0,0,1.78-.32,1,1,0,0,0,.63-.91.78.78,0,0,0-.4-.69,3.6,3.6,0,0,0-1.1-.43l-.85-.2a3.86,3.86,0,0,0-1.62.46,1.11,1.11,0,0,0-.66,1,.92.92,0,0,0,.57.84,3.75,3.75,0,0,0,1.65.29Zm0-5a1.74,1.74,0,0,0,1.27-.47,1.64,1.64,0,0,0,.5-1.25,1.7,1.7,0,0,0-.49-1.25,1.77,1.77,0,0,0-1.29-.48,1.74,1.74,0,0,0-1.27.48,1.7,1.7,0,0,0-.48,1.25,1.63,1.63,0,0,0,.49,1.25,1.75,1.75,0,0,0,1.27.47Zm9.74-4.13c.31,0,.46.17.46.49v6.36s0,0-.12.07a.73.73,0,0,1-.25,0c-.36,0-.56-.22-.6-.67,0-.25,0-.44,0-.56a3,3,0,0,1-1,1,2.64,2.64,0,0,1-1.39.36,2.37,2.37,0,0,1-2-.81,3.27,3.27,0,0,1-.67-2.17v-3.59c0-.32.15-.49.46-.49h.11c.31,0,.46.17.46.49v3.52a2.36,2.36,0,0,0,.48,1.57,1.65,1.65,0,0,0,1.33.56,2.2,2.2,0,0,0,1.27-.37,2.34,2.34,0,0,0,.84-1v-4.26c0-.32.15-.49.44-.49Zm5.08-.1a1.2,1.2,0,0,1,.74.21.64.64,0,0,1,.28.54.71.71,0,0,1-.06.31.67.67,0,0,1-.16.2c-.05,0-.09.06-.1.05a1.1,1.1,0,0,0-.81-.29,1.32,1.32,0,0,0-1.23.75,4.38,4.38,0,0,0-.41,2.08v2.71c0,.32-.15.49-.44.49h-.12a.43.43,0,0,1-.47-.49v-6.34s0-.05.11-.07a.75.75,0,0,1,.26-.05c.35,0,.56.23.6.69s0,.58,0,.75A2.26,2.26,0,0,1,51.5,139a1.68,1.68,0,0,1,1.12-.39Zm1.61,5.24a1.77,1.77,0,0,1,1.12-1.69,9,9,0,0,1,3.57-.56h.16v-.29a1.79,1.79,0,0,0-.48-1.34,1.9,1.9,0,0,0-1.37-.47,2.39,2.39,0,0,0-1.3.33,2.15,2.15,0,0,0-.8.89.52.52,0,0,1-.19,0,.63.63,0,0,1-.3-.16.45.45,0,0,1-.14-.35.89.89,0,0,1,.11-.37,1.36,1.36,0,0,1,.31-.39,3,3,0,0,1,1-.59,4,4,0,0,1,1.39-.23,2.83,2.83,0,0,1,2.08.72,2.66,2.66,0,0,1,.74,2v4.24s-.05,0-.13.07a.69.69,0,0,1-.25,0q-.53,0-.6-.66,0-.41,0-.63a2.46,2.46,0,0,1-1,1,3.06,3.06,0,0,1-1.52.38,2.61,2.61,0,0,1-1.7-.52,1.72,1.72,0,0,1-.62-1.39Zm4.85-1.58-.25,0a7.76,7.76,0,0,0-2.73.4,1.18,1.18,0,0,0-.84,1.13,1,1,0,0,0,.4.85,1.72,1.72,0,0,0,1.09.31,2.56,2.56,0,0,0,1.18-.27,2.23,2.23,0,0,0,.84-.74,1.89,1.89,0,0,0,.31-1Zm9.92,3.4a.42.42,0,0,1-.32-.14.56.56,0,0,1-.12-.36v-2.2h-4a.76.76,0,0,1-.5-.14.47.47,0,0,1-.19-.37v-.26a.81.81,0,0,1,.08-.34,3.79,3.79,0,0,1,.25-.41l3.62-4.66a1.63,1.63,0,0,1,.4-.42,1.08,1.08,0,0,1,.55-.11,1,1,0,0,1,.63.16.7.7,0,0,1,.18.54V142h1.18c.32,0,.49.14.49.42v.07c0,.28-.17.41-.49.41H69.59v2.2c0,.33-.15.5-.46.5Zm-.4-3.6v-4.88L64.84,142Z"/><path class="cls-1" d="M205.89,79.68a28.35,28.35,0,0,0-40.09,40.09"/><path class="cls-2" d="M205.89,79.68a28.35,28.35,0,0,0-40.09,40.09"/><path class="cls-3" d="M165.8,119.77a28.35,28.35,0,0,0,40.09-40.09"/><path class="cls-2" d="M165.8,119.77a28.35,28.35,0,0,0,40.09-40.09"/><path d="M163.49,136.91a.65.65,0,0,1,.16-.46.56.56,0,0,1,.43-.17h5c.34,0,.51.14.51.43v.09c0,.29-.17.44-.51.44h-4.54v3.43h3.35c.34,0,.51.14.51.43v.07a.39.39,0,0,1-.13.33.56.56,0,0,1-.38.1h-3.34v3.52a.52.52,0,0,1-.12.36.48.48,0,0,1-.35.13H164c-.31,0-.46-.19-.46-.55Zm7.3-.34a.59.59,0,0,1,.66-.66.68.68,0,0,1,.49.17.69.69,0,0,1,.17.49.62.62,0,0,1-.18.48.69.69,0,0,1-.49.16.68.68,0,0,1-.48-.16.65.65,0,0,1-.17-.48Zm.13,2.6c0-.34.15-.51.46-.51h.12q.45,0,.45.51v6c0,.32-.15.49-.45.49h-.12c-.31,0-.46-.17-.46-.49Zm5.21,9.41c-2.13,0-3.2-.63-3.2-1.87a1.54,1.54,0,0,1,.63-1.24,3.66,3.66,0,0,1,1.61-.7.76.76,0,0,1-.43-.68.89.89,0,0,1,.41-.74,2.47,2.47,0,0,1-1.26-.85,2.25,2.25,0,0,1-.47-1.4,2.38,2.38,0,0,1,.36-1.28,2.51,2.51,0,0,1,1-.92,3.07,3.07,0,0,1,1.42-.34,2.81,2.81,0,0,1,1.62.48l.51-.78a.73.73,0,0,1,.61-.41.53.53,0,0,1,.3.09,1.34,1.34,0,0,1,.21.2.22.22,0,0,1,.06.16l-1.13,1.21a2.25,2.25,0,0,1,.61,1.55,2.36,2.36,0,0,1-.35,1.25,2.6,2.6,0,0,1-1,.88,3.2,3.2,0,0,1-1.43.32h-.37a.39.39,0,0,0-.17.37.46.46,0,0,0,.3.39,7.58,7.58,0,0,0,1,.3l.53.13c1.37.33,2,.95,2,1.83a1.68,1.68,0,0,1-.9,1.51,5,5,0,0,1-2.54.55Zm0-.75a4.08,4.08,0,0,0,1.78-.32,1,1,0,0,0,.63-.91.8.8,0,0,0-.4-.69,3.67,3.67,0,0,0-1.11-.43l-.84-.2a3.86,3.86,0,0,0-1.63.46,1.11,1.11,0,0,0-.66,1,.92.92,0,0,0,.57.84,3.8,3.8,0,0,0,1.66.29Zm0-5a1.75,1.75,0,0,0,1.27-.47,1.63,1.63,0,0,0,.49-1.25,1.66,1.66,0,0,0-.49-1.25,1.74,1.74,0,0,0-1.29-.48,1.72,1.72,0,0,0-1.26.48,1.66,1.66,0,0,0-.49,1.25,1.64,1.64,0,0,0,.5,1.25,1.74,1.74,0,0,0,1.27.47Zm9.74-4.13c.3,0,.46.17.46.49v6.36s0,0-.13.07a.69.69,0,0,1-.25,0c-.35,0-.55-.22-.6-.67,0-.25,0-.44,0-.56a3,3,0,0,1-1,1,2.58,2.58,0,0,1-1.38.36,2.4,2.4,0,0,1-2-.81,3.33,3.33,0,0,1-.67-2.17v-3.59c0-.32.16-.49.46-.49H181c.3,0,.46.17.46.49v3.52a2.41,2.41,0,0,0,.47,1.57,1.66,1.66,0,0,0,1.33.56,2.18,2.18,0,0,0,1.27-.37,2.34,2.34,0,0,0,.84-1v-4.26c0-.32.15-.49.45-.49Zm5.08-.1a1.22,1.22,0,0,1,.74.21.65.65,0,0,1,.27.54.71.71,0,0,1-.06.31.53.53,0,0,1-.15.2c-.06,0-.09.06-.1.05a1.11,1.11,0,0,0-.82-.29,1.34,1.34,0,0,0-1.23.75,4.39,4.39,0,0,0-.4,2.08v2.71c0,.32-.15.49-.45.49h-.11a.43.43,0,0,1-.48-.49v-6.34s0-.05.12-.07a.67.67,0,0,1,.26-.05q.53,0,.6.69,0,.5,0,.75a2.13,2.13,0,0,1,.66-1.15,1.66,1.66,0,0,1,1.12-.39Zm1.59,5.24a1.77,1.77,0,0,1,1.12-1.69,9.08,9.08,0,0,1,3.57-.56h.16v-.29a1.79,1.79,0,0,0-.48-1.34,1.9,1.9,0,0,0-1.37-.47,2.39,2.39,0,0,0-1.3.33,2.15,2.15,0,0,0-.8.89.52.52,0,0,1-.19,0,.63.63,0,0,1-.3-.16.45.45,0,0,1-.14-.35.89.89,0,0,1,.11-.37,1.36,1.36,0,0,1,.31-.39,3,3,0,0,1,1-.59,4,4,0,0,1,1.39-.23,2.83,2.83,0,0,1,2.08.72,2.66,2.66,0,0,1,.74,2v4.24s0,0-.13.07a.69.69,0,0,1-.25,0q-.53,0-.6-.66,0-.41,0-.63a2.46,2.46,0,0,1-1,1,3.06,3.06,0,0,1-1.52.38,2.63,2.63,0,0,1-1.7-.52,1.72,1.72,0,0,1-.62-1.39Zm4.85-1.58-.25,0a7.76,7.76,0,0,0-2.73.4,1.18,1.18,0,0,0-.84,1.13,1.05,1.05,0,0,0,.4.85,1.72,1.72,0,0,0,1.09.31,2.56,2.56,0,0,0,1.18-.27,2.23,2.23,0,0,0,.84-.74,1.89,1.89,0,0,0,.31-1Zm7.9,3.5a4.5,4.5,0,0,1-1.45-.23,3.26,3.26,0,0,1-1.1-.62,2.18,2.18,0,0,1-.44-.48.91.91,0,0,1-.16-.48.47.47,0,0,1,.12-.32.75.75,0,0,1,.26-.19q.15-.06.18,0a2.55,2.55,0,0,0,1,1,3.21,3.21,0,0,0,1.58.38,2.53,2.53,0,0,0,1.74-.56,1.9,1.9,0,0,0,.64-1.52,1.86,1.86,0,0,0-.61-1.48,2.37,2.37,0,0,0-1.64-.54,3.61,3.61,0,0,0-2.24.67.63.63,0,0,1-.67-.7v-3.76a.65.65,0,0,1,.16-.46.56.56,0,0,1,.43-.17h4.66c.33,0,.5.15.5.45v.07c0,.28-.17.43-.5.43h-4.26v3.08a4.26,4.26,0,0,1,2.05-.5,3.34,3.34,0,0,1,2.3.78,2.68,2.68,0,0,1,.87,2.1,2.82,2.82,0,0,1-.92,2.22,3.69,3.69,0,0,1-2.51.81Z"/><line class="cls-2" x1="185.85" y1="99.72" x2="185.85" y2="128.07"/><line class="cls-2" x1="185.85" y1="99.72" x2="210.4" y2="113.9"/><line class="cls-2" x1="165.8" y1="119.77" x2="205.89" y2="79.68"/><circle class="cls-3" cx="323.89" cy="99.72" r="28.35" transform="translate(-13.01 63.05) rotate(-10.9)"/><circle class="cls-2" cx="323.89" cy="99.72" r="28.35" transform="translate(-13.01 63.05) rotate(-10.9)"/><path class="cls-1" d="M323.89,99.72h28.35a28.35,28.35,0,0,0-28.35-28.34Z"/><path class="cls-2" d="M323.89,99.72h28.35a28.35,28.35,0,0,0-28.35-28.34Z"/><path class="cls-1" d="M323.89,99.72H295.54a28.35,28.35,0,0,0,28.35,28.35Z"/><path class="cls-2" d="M323.89,99.72H295.54a28.35,28.35,0,0,0,28.35,28.35Z"/><path d="M301.18,136.91a.65.65,0,0,1,.16-.46.55.55,0,0,1,.43-.17h5c.34,0,.5.14.5.43v.09c0,.29-.16.44-.5.44h-4.55v3.43h3.36c.34,0,.5.14.5.43v.07a.39.39,0,0,1-.12.33.58.58,0,0,1-.38.1h-3.34v3.52a.52.52,0,0,1-.12.36.51.51,0,0,1-.36.13h-.15c-.31,0-.46-.19-.46-.55Zm7.3-.34a.66.66,0,1,1,1.32,0,.62.62,0,0,1-.18.48.69.69,0,0,1-.49.16.66.66,0,0,1-.48-.16.65.65,0,0,1-.17-.48Zm.13,2.6c0-.34.15-.51.46-.51h.11c.31,0,.46.17.46.51v6c0,.32-.15.49-.46.49h-.11c-.31,0-.46-.17-.46-.49Zm5.21,9.41c-2.14,0-3.2-.63-3.2-1.87a1.54,1.54,0,0,1,.63-1.24,3.66,3.66,0,0,1,1.61-.7.76.76,0,0,1-.43-.68.87.87,0,0,1,.41-.74,2.43,2.43,0,0,1-1.26-.85,2.19,2.19,0,0,1-.47-1.4,2.46,2.46,0,0,1,.35-1.28,2.54,2.54,0,0,1,1-.92,3.06,3.06,0,0,1,1.41-.34,2.82,2.82,0,0,1,1.63.48l.51-.78a.72.72,0,0,1,.6-.41.54.54,0,0,1,.31.09,1,1,0,0,1,.2.2c.06.07.08.13.07.16l-1.13,1.21a2.25,2.25,0,0,1,.61,1.55,2.28,2.28,0,0,1-.36,1.25,2.57,2.57,0,0,1-1,.88,3.23,3.23,0,0,1-1.43.32h-.37a.4.4,0,0,0-.18.37.46.46,0,0,0,.3.39,8.37,8.37,0,0,0,1,.3l.53.13c1.37.33,2.05.95,2.05,1.83a1.68,1.68,0,0,1-.9,1.51,5,5,0,0,1-2.54.55Zm0-.75a4,4,0,0,0,1.77-.32,1,1,0,0,0,.64-.91.79.79,0,0,0-.41-.69,3.5,3.5,0,0,0-1.1-.43l-.85-.2a3.86,3.86,0,0,0-1.62.46,1.11,1.11,0,0,0-.66,1,.92.92,0,0,0,.57.84,3.8,3.8,0,0,0,1.66.29Zm0-5a1.74,1.74,0,0,0,1.27-.47,1.64,1.64,0,0,0,.5-1.25,1.66,1.66,0,0,0-.49-1.25,1.74,1.74,0,0,0-1.29-.48,1.7,1.7,0,0,0-1.26.48,1.66,1.66,0,0,0-.49,1.25,1.63,1.63,0,0,0,.49,1.25,1.75,1.75,0,0,0,1.27.47Zm9.75-4.13c.3,0,.45.17.45.49v6.36s0,0-.12.07a.69.69,0,0,1-.25,0c-.35,0-.55-.22-.6-.67,0-.25,0-.44,0-.56a3,3,0,0,1-1,1,2.6,2.6,0,0,1-1.38.36,2.39,2.39,0,0,1-2-.81,3.27,3.27,0,0,1-.67-2.17v-3.59c0-.32.16-.49.46-.49h.12c.3,0,.46.17.46.49v3.52a2.35,2.35,0,0,0,.47,1.57,1.65,1.65,0,0,0,1.33.56,2.2,2.2,0,0,0,1.27-.37,2.34,2.34,0,0,0,.84-1v-4.26c0-.32.15-.49.45-.49Zm5.07-.1a1.18,1.18,0,0,1,.74.21.64.64,0,0,1,.28.54.71.71,0,0,1-.06.31.65.65,0,0,1-.15.2c-.06,0-.09.06-.1.05a1.12,1.12,0,0,0-.82-.29,1.33,1.33,0,0,0-1.23.75,4.38,4.38,0,0,0-.41,2.08v2.71c0,.32-.14.49-.44.49h-.12a.43.43,0,0,1-.47-.49v-6.34s0-.05.12-.07a.66.66,0,0,1,.25-.05c.36,0,.56.23.61.69s0,.58,0,.75a2.13,2.13,0,0,1,.66-1.15,1.64,1.64,0,0,1,1.11-.39Zm1.61,5.24a1.78,1.78,0,0,1,1.13-1.69,9,9,0,0,1,3.56-.56h.16v-.29a1.79,1.79,0,0,0-.48-1.34,1.9,1.9,0,0,0-1.37-.47,2.39,2.39,0,0,0-1.3.33,2.22,2.22,0,0,0-.8.89.53.53,0,0,1-.19,0,.63.63,0,0,1-.3-.16.45.45,0,0,1-.14-.35.89.89,0,0,1,.11-.37,1.56,1.56,0,0,1,.31-.39,2.9,2.9,0,0,1,1-.59,3.93,3.93,0,0,1,1.39-.23,2.84,2.84,0,0,1,2.08.72,2.69,2.69,0,0,1,.73,2v4.24s0,0-.12.07a.73.73,0,0,1-.25,0c-.36,0-.56-.22-.61-.66q0-.41,0-.63a2.43,2.43,0,0,1-1,1,3.09,3.09,0,0,1-1.52.38,2.6,2.6,0,0,1-1.7-.52,1.7,1.7,0,0,1-.63-1.39Zm4.85-1.58-.24,0a7.78,7.78,0,0,0-2.74.4,1.18,1.18,0,0,0-.84,1.13,1,1,0,0,0,.41.85,1.7,1.7,0,0,0,1.09.31,2.52,2.52,0,0,0,1.17-.27,2.09,2.09,0,0,0,.84-.74,1.82,1.82,0,0,0,.31-1Zm8.67,3.5a3.26,3.26,0,0,1-2.64-1.12,4.7,4.7,0,0,1-.95-3.13v-1a5.8,5.8,0,0,1,.44-2.35,3.36,3.36,0,0,1,1.28-1.51,3.68,3.68,0,0,1,2-.52,4.24,4.24,0,0,1,1.34.2,3,3,0,0,1,.95.54,1.47,1.47,0,0,1,.37.43,1,1,0,0,1,.12.43.48.48,0,0,1-.11.3.91.91,0,0,1-.24.2c-.09.05-.15.07-.17.06a2.71,2.71,0,0,0-.89-.92,2.6,2.6,0,0,0-1.35-.33,2.36,2.36,0,0,0-1.83.74,3.35,3.35,0,0,0-.79,2.11c0,.18,0,.58,0,1.18a3.31,3.31,0,0,1,1.16-.91,3.43,3.43,0,0,1,1.58-.35,3.21,3.21,0,0,1,2.22.75,2.57,2.57,0,0,1,.84,2v.05a3,3,0,0,1-.42,1.59,3,3,0,0,1-1.16,1.11,3.49,3.49,0,0,1-1.69.4Zm-.05-.87a2.32,2.32,0,0,0,1.64-.59,2,2,0,0,0,.63-1.55v-.07a1.9,1.9,0,0,0-.58-1.49,2.35,2.35,0,0,0-1.63-.52,3,3,0,0,0-1.47.37,2.75,2.75,0,0,0-1,.95v.24a3.38,3.38,0,0,0,.77,2,2.17,2.17,0,0,0,1.67.69Z"/><polygon class="cls-3" points="61.98 158.79 33.63 158.79 19.46 183.34 33.63 207.88 61.98 207.88 61.98 158.79"/><polygon class="cls-2" points="61.98 158.79 33.63 158.79 19.46 183.34 33.63 207.88 61.98 207.88 61.98 158.79"/><polygon class="cls-1" points="76.15 183.34 61.98 158.79 61.98 207.88 76.15 183.34"/><polygon class="cls-2" points="76.15 183.34 61.98 158.79 61.98 207.88 76.15 183.34"/><path d="M25.57,220.53a.61.61,0,0,1,.16-.46.54.54,0,0,1,.43-.18h5c.34,0,.51.15.51.43v.09q0,.45-.51.45H26.65v3.42H30c.34,0,.51.15.51.43v.08a.39.39,0,0,1-.13.33.62.62,0,0,1-.38.1H26.66v3.51a.52.52,0,0,1-.12.36.45.45,0,0,1-.35.13H26c-.31,0-.46-.18-.46-.55Zm7.3-.35a.61.61,0,0,1,.66-.66.68.68,0,0,1,.49.17.65.65,0,0,1,.17.49.62.62,0,0,1-.18.48.69.69,0,0,1-.49.17.64.64,0,0,1-.47-.17.62.62,0,0,1-.18-.48Zm.13,2.6c0-.34.16-.5.46-.5h.12c.3,0,.46.16.46.5v5.95c0,.33-.16.49-.46.49h-.12c-.3,0-.46-.16-.46-.49Zm5.21,9.41c-2.13,0-3.2-.62-3.2-1.87a1.55,1.55,0,0,1,.63-1.24,3.54,3.54,0,0,1,1.61-.69.77.77,0,0,1-.43-.69.86.86,0,0,1,.41-.73,2.55,2.55,0,0,1-1.26-.86,2.23,2.23,0,0,1-.47-1.4,2.4,2.4,0,0,1,.36-1.28,2.58,2.58,0,0,1,1-.92,3.06,3.06,0,0,1,1.42-.33,2.8,2.8,0,0,1,1.62.47l.52-.78a.73.73,0,0,1,.6-.41.53.53,0,0,1,.3.09,1.34,1.34,0,0,1,.21.2.23.23,0,0,1,.06.17l-1.13,1.2a2.27,2.27,0,0,1,.61,1.55,2.25,2.25,0,0,1-.35,1.25,2.52,2.52,0,0,1-1,.88,3.07,3.07,0,0,1-1.43.32h-.37a.4.4,0,0,0-.17.37.44.44,0,0,0,.3.39,5.44,5.44,0,0,0,1,.3l.53.13c1.37.34,2,.95,2,1.84a1.67,1.67,0,0,1-.9,1.5,4.86,4.86,0,0,1-2.54.55Zm0-.75a4.09,4.09,0,0,0,1.78-.31,1,1,0,0,0,.63-.92.8.8,0,0,0-.4-.69,4,4,0,0,0-1.11-.43l-.84-.2a3.82,3.82,0,0,0-1.62.47,1.1,1.1,0,0,0-.66.95.91.91,0,0,0,.56.84,3.8,3.8,0,0,0,1.66.29Zm0-5a1.76,1.76,0,0,0,1.27-.48,1.63,1.63,0,0,0,.49-1.24,1.67,1.67,0,0,0-.49-1.26,1.93,1.93,0,0,0-2.55,0,1.71,1.71,0,0,0-.49,1.26,1.63,1.63,0,0,0,.5,1.24,1.74,1.74,0,0,0,1.27.48ZM48,222.28a.42.42,0,0,1,.46.48v6.36s0,0-.12.07a.78.78,0,0,1-.26,0c-.35,0-.55-.22-.6-.67,0-.25,0-.44,0-.56a3.07,3.07,0,0,1-1,1,2.64,2.64,0,0,1-1.39.36,2.4,2.4,0,0,1-2-.81,3.33,3.33,0,0,1-.66-2.17v-3.59q0-.48.45-.48h.12c.31,0,.46.16.46.48v3.52a2.41,2.41,0,0,0,.47,1.57,1.65,1.65,0,0,0,1.34.57A2.23,2.23,0,0,0,46.6,228a2.39,2.39,0,0,0,.83-1v-4.26q0-.48.45-.48Zm5.08-.1a1.22,1.22,0,0,1,.74.2.66.66,0,0,1,.28.54.76.76,0,0,1-.07.32.49.49,0,0,1-.15.19c-.06,0-.09.06-.1,0a1.11,1.11,0,0,0-.82-.29,1.31,1.31,0,0,0-1.22.75,4.29,4.29,0,0,0-.41,2.08v2.71c0,.33-.15.49-.45.49h-.11a.43.43,0,0,1-.48-.49v-6.34s0,0,.12-.07a.71.71,0,0,1,.26,0c.35,0,.55.23.6.68s0,.58,0,.75a2.13,2.13,0,0,1,.66-1.15,1.65,1.65,0,0,1,1.12-.38Zm1.6,5.23a1.76,1.76,0,0,1,1.13-1.68,9,9,0,0,1,3.57-.57h.15v-.29a1.79,1.79,0,0,0-.48-1.34,1.88,1.88,0,0,0-1.37-.47,2.51,2.51,0,0,0-1.3.33,2.19,2.19,0,0,0-.79.89.39.39,0,0,1-.2,0,.61.61,0,0,1-.3-.15.47.47,0,0,1-.13-.36.82.82,0,0,1,.1-.36,1.88,1.88,0,0,1,.31-.4,2.83,2.83,0,0,1,1-.58,3.72,3.72,0,0,1,1.39-.23,2.84,2.84,0,0,1,2.08.71,2.67,2.67,0,0,1,.73,2v4.23s0,0-.12.07a.73.73,0,0,1-.25,0q-.54,0-.6-.66,0-.39,0-.63a2.54,2.54,0,0,1-1,1,3.08,3.08,0,0,1-1.52.37,2.54,2.54,0,0,1-1.7-.52,1.69,1.69,0,0,1-.63-1.39Zm4.85-1.58-.24,0a8,8,0,0,0-2.73.4,1.19,1.19,0,0,0-.84,1.13,1,1,0,0,0,.4.85,1.72,1.72,0,0,0,1.09.32,2.6,2.6,0,0,0,1.18-.28,2.13,2.13,0,0,0,.83-.74,1.79,1.79,0,0,0,.31-1Zm6.52,3.4a.58.58,0,0,1-.31-.08.72.72,0,0,1-.23-.17c0-.07-.07-.12,0-.15l4.13-7.93H64.69a.52.52,0,0,1-.36-.12.47.47,0,0,1-.12-.34v-.09a.45.45,0,0,1,.12-.33.53.53,0,0,1,.36-.13h5.43a.8.8,0,0,1,.53.14.5.5,0,0,1,.14.37v.1a.76.76,0,0,1-.07.31c0,.12-.13.28-.23.48l-3.87,7.56a.62.62,0,0,1-.56.38Z"/><polygon class="cls-1" points="200.02 158.79 171.68 158.79 157.5 183.34 171.68 207.88 200.02 158.79"/><polygon class="cls-2" points="200.02 158.79 171.68 158.79 157.5 183.34 171.68 207.88 200.02 158.79"/><polygon class="cls-3" points="200.02 158.79 171.68 207.88 200.02 207.88 214.19 183.34 200.02 158.79"/><polygon class="cls-2" points="200.02 158.79 171.68 207.88 200.02 207.88 214.19 183.34 200.02 158.79"/><polyline class="cls-2" points="200.02 158.79 185.85 183.34 171.68 207.88"/><polyline class="cls-2" points="214.19 183.34 185.85 183.34 200.02 207.88"/><path d="M163.17,220.53a.66.66,0,0,1,.16-.46.55.55,0,0,1,.43-.18h5c.33,0,.5.15.5.43v.09c0,.3-.17.45-.5.45h-4.55v3.42h3.36c.33,0,.5.15.5.43v.08a.42.42,0,0,1-.12.33.64.64,0,0,1-.38.1h-3.35v3.51a.52.52,0,0,1-.12.36.45.45,0,0,1-.35.13h-.16c-.3,0-.46-.18-.46-.55Zm7.31-.35a.65.65,0,0,1,.17-.49.68.68,0,0,1,.49-.17.61.61,0,0,1,.66.66.62.62,0,0,1-.18.48.72.72,0,0,1-.5.17.64.64,0,0,1-.47-.17.61.61,0,0,1-.17-.48Zm.13,2.6c0-.34.15-.5.45-.5h.12c.31,0,.46.16.46.5v5.95c0,.33-.15.49-.46.49h-.12c-.3,0-.45-.16-.45-.49Zm5.2,9.41c-2.13,0-3.2-.62-3.2-1.87a1.54,1.54,0,0,1,.64-1.24,3.5,3.5,0,0,1,1.6-.69.77.77,0,0,1-.43-.69.85.85,0,0,1,.42-.73,2.47,2.47,0,0,1-1.26-.86,2.18,2.18,0,0,1-.48-1.4,2.4,2.4,0,0,1,.36-1.28,2.54,2.54,0,0,1,1-.92,3,3,0,0,1,1.41-.33,2.8,2.8,0,0,1,1.62.47l.52-.78a.73.73,0,0,1,.6-.41.49.49,0,0,1,.3.09.81.81,0,0,1,.21.2.23.23,0,0,1,.06.17l-1.13,1.2a2.28,2.28,0,0,1,.62,1.55,2.25,2.25,0,0,1-.36,1.25,2.45,2.45,0,0,1-1,.88,3,3,0,0,1-1.43.32h-.37a.43.43,0,0,0-.17.37.44.44,0,0,0,.3.39,5.69,5.69,0,0,0,1,.3l.53.13c1.37.34,2.06.95,2.06,1.84a1.68,1.68,0,0,1-.91,1.5,4.86,4.86,0,0,1-2.54.55Zm0-.75a4.06,4.06,0,0,0,1.78-.31,1,1,0,0,0,.63-.92.78.78,0,0,0-.4-.69,4,4,0,0,0-1.1-.43l-.85-.2a3.86,3.86,0,0,0-1.62.47,1.1,1.1,0,0,0-.66.95.93.93,0,0,0,.56.84,3.8,3.8,0,0,0,1.66.29Zm0-5a1.74,1.74,0,0,0,1.27-.48,1.63,1.63,0,0,0,.5-1.24,1.71,1.71,0,0,0-.49-1.26,1.77,1.77,0,0,0-1.29-.48,1.74,1.74,0,0,0-1.27.48,1.7,1.7,0,0,0-.48,1.26,1.63,1.63,0,0,0,.49,1.24,1.74,1.74,0,0,0,1.27.48Zm9.74-4.13c.31,0,.46.16.46.48v6.36s0,0-.12.07a.73.73,0,0,1-.25,0c-.36,0-.56-.22-.6-.67,0-.25,0-.44,0-.56a3.1,3.1,0,0,1-1,1,2.64,2.64,0,0,1-1.39.36,2.37,2.37,0,0,1-2-.81,3.27,3.27,0,0,1-.67-2.17v-3.59c0-.32.15-.48.46-.48h.11c.31,0,.46.16.46.48v3.52a2.41,2.41,0,0,0,.47,1.57,1.66,1.66,0,0,0,1.34.57,2.21,2.21,0,0,0,1.27-.38,2.34,2.34,0,0,0,.84-1v-4.26c0-.32.15-.48.44-.48Zm5.08-.1a1.2,1.2,0,0,1,.74.2.64.64,0,0,1,.28.54.63.63,0,0,1-.07.32.49.49,0,0,1-.15.19c-.05,0-.09.06-.1,0a1.1,1.1,0,0,0-.81-.29,1.32,1.32,0,0,0-1.23.75,4.41,4.41,0,0,0-.41,2.08v2.71c0,.33-.15.49-.44.49h-.12c-.32,0-.47-.16-.47-.49v-6.34s0,0,.11-.07a.71.71,0,0,1,.26,0c.35,0,.55.23.6.68s0,.58,0,.75a2.19,2.19,0,0,1,.66-1.15,1.67,1.67,0,0,1,1.12-.38Zm1.59,5.23a1.76,1.76,0,0,1,1.13-1.68,9,9,0,0,1,3.56-.57h.16v-.29a1.79,1.79,0,0,0-.48-1.34,1.9,1.9,0,0,0-1.37-.47,2.48,2.48,0,0,0-1.3.33,2.19,2.19,0,0,0-.79.89.39.39,0,0,1-.2,0,.61.61,0,0,1-.3-.15.47.47,0,0,1-.13-.36.82.82,0,0,1,.1-.36,1.6,1.6,0,0,1,.31-.4,2.83,2.83,0,0,1,1-.58,3.72,3.72,0,0,1,1.39-.23,2.84,2.84,0,0,1,2.08.71,2.67,2.67,0,0,1,.73,2v4.23s0,0-.12.07a.73.73,0,0,1-.25,0c-.36,0-.56-.22-.61-.66,0-.26,0-.47,0-.63a2.54,2.54,0,0,1-1,1,3.08,3.08,0,0,1-1.52.37,2.54,2.54,0,0,1-1.7-.52,1.69,1.69,0,0,1-.63-1.39Zm4.85-1.58-.24,0a8.07,8.07,0,0,0-2.74.4,1.2,1.2,0,0,0-.83,1.13,1,1,0,0,0,.4.85,1.7,1.7,0,0,0,1.09.32,2.53,2.53,0,0,0,1.17-.28,2.09,2.09,0,0,0,.84-.74,1.79,1.79,0,0,0,.31-1Zm8.37,3.5a4.09,4.09,0,0,1-2.55-.71,2.28,2.28,0,0,1-.94-1.91,2.19,2.19,0,0,1,.52-1.45,2.82,2.82,0,0,1,1.5-.89,2.39,2.39,0,0,1-1.3-.78,2.08,2.08,0,0,1-.43-1.33,2.24,2.24,0,0,1,.39-1.3,2.5,2.5,0,0,1,1.13-.9,4,4,0,0,1,1.69-.32,3.58,3.58,0,0,1,2.32.68,2.2,2.2,0,0,1,.85,1.83,2.07,2.07,0,0,1-.44,1.31,2.49,2.49,0,0,1-1.28.81,2.71,2.71,0,0,1,1.5.86,2.37,2.37,0,0,1,.08,2.83,2.92,2.92,0,0,1-1.22.94,4.73,4.73,0,0,1-1.82.33Zm0-.86a2.86,2.86,0,0,0,1.78-.48,1.64,1.64,0,0,0,.62-1.35,1.61,1.61,0,0,0-.65-1.35,3.38,3.38,0,0,0-3.54,0,1.62,1.62,0,0,0-.63,1.35,1.6,1.6,0,0,0,.64,1.32,2.79,2.79,0,0,0,1.78.51Zm0-4.49a2.49,2.49,0,0,0,1.57-.43,1.48,1.48,0,0,0,.55-1.23,1.53,1.53,0,0,0-.56-1.26,2.34,2.34,0,0,0-1.57-.48,2.46,2.46,0,0,0-1.6.47,1.57,1.57,0,0,0-.56,1.27,1.44,1.44,0,0,0,.58,1.21,2.51,2.51,0,0,0,1.59.45Z"/><polygon class="cls-1" points="352.24 183.34 338.06 158.79 323.89 183.34 352.24 183.34"/><polygon class="cls-2" points="352.24 183.34 338.06 158.79 323.89 183.34 352.24 183.34"/><polygon class="cls-1" points="309.71 158.79 295.54 183.34 323.89 183.34 309.71 158.79"/><polygon class="cls-2" points="309.71 158.79 295.54 183.34 323.89 183.34 309.71 158.79"/><polygon class="cls-1" points="309.71 207.88 338.06 207.88 323.89 183.34 309.71 207.88"/><polygon class="cls-2" points="309.71 207.88 338.06 207.88 323.89 183.34 309.71 207.88"/><polygon class="cls-3" points="323.89 183.34 338.06 158.79 309.71 158.79 323.89 183.34"/><polygon class="cls-2" points="323.89 183.34 338.06 158.79 309.71 158.79 323.89 183.34"/><polygon class="cls-3" points="323.89 183.34 352.24 183.34 338.06 207.88 323.89 183.34"/><polygon class="cls-2" points="323.89 183.34 352.24 183.34 338.06 207.88 323.89 183.34"/><polygon class="cls-3" points="323.89 183.34 295.54 183.34 309.71 207.88 323.89 183.34"/><polygon class="cls-2" points="323.89 183.34 295.54 183.34 309.71 207.88 323.89 183.34"/><path d="M301.18,220.53a.61.61,0,0,1,.16-.46.52.52,0,0,1,.43-.18h5c.34,0,.5.15.5.43v.09c0,.3-.16.45-.5.45h-4.55v3.42h3.36c.34,0,.5.15.5.43v.08a.42.42,0,0,1-.12.33.64.64,0,0,1-.38.1h-3.34v3.51a.52.52,0,0,1-.12.36.47.47,0,0,1-.36.13h-.15c-.31,0-.46-.18-.46-.55Zm7.3-.35a.66.66,0,1,1,1.32,0,.62.62,0,0,1-.18.48.69.69,0,0,1-.49.17.67.67,0,0,1-.48-.17.65.65,0,0,1-.17-.48Zm.13,2.6c0-.34.15-.5.46-.5h.11c.31,0,.46.16.46.5v5.95c0,.33-.15.49-.46.49h-.11c-.31,0-.46-.16-.46-.49Zm5.21,9.41c-2.14,0-3.2-.62-3.2-1.87a1.55,1.55,0,0,1,.63-1.24,3.54,3.54,0,0,1,1.61-.69.77.77,0,0,1-.43-.69.84.84,0,0,1,.41-.73,2.51,2.51,0,0,1-1.26-.86,2.17,2.17,0,0,1-.47-1.4,2.49,2.49,0,0,1,.35-1.28,2.61,2.61,0,0,1,1-.92,3.05,3.05,0,0,1,1.41-.33,2.81,2.81,0,0,1,1.63.47l.51-.78a.74.74,0,0,1,.6-.41.54.54,0,0,1,.31.09,1,1,0,0,1,.2.2.21.21,0,0,1,.07.17l-1.13,1.2a2.31,2.31,0,0,1,.25,2.8,2.49,2.49,0,0,1-1,.88,3.1,3.1,0,0,1-1.43.32h-.37a.41.41,0,0,0-.18.37.44.44,0,0,0,.3.39,5.87,5.87,0,0,0,1,.3l.53.13c1.37.34,2.05.95,2.05,1.84a1.67,1.67,0,0,1-.9,1.5,4.89,4.89,0,0,1-2.54.55Zm0-.75a4,4,0,0,0,1.77-.31,1,1,0,0,0,.64-.92.79.79,0,0,0-.41-.69,3.76,3.76,0,0,0-1.1-.43l-.85-.2a3.86,3.86,0,0,0-1.62.47,1.1,1.1,0,0,0-.66.95.92.92,0,0,0,.57.84,3.8,3.8,0,0,0,1.66.29Zm0-5a1.74,1.74,0,0,0,1.27-.48,1.63,1.63,0,0,0,.5-1.24,1.67,1.67,0,0,0-.49-1.26,1.74,1.74,0,0,0-1.29-.48,1.7,1.7,0,0,0-1.26.48,1.67,1.67,0,0,0-.49,1.26,1.63,1.63,0,0,0,.49,1.24,1.76,1.76,0,0,0,1.27.48Zm9.75-4.13q.45,0,.45.48v6.36s0,0-.12.07a.69.69,0,0,1-.25,0c-.35,0-.55-.22-.6-.67,0-.25,0-.44,0-.56a3,3,0,0,1-1,1,2.6,2.6,0,0,1-1.38.36,2.39,2.39,0,0,1-2-.81,3.27,3.27,0,0,1-.67-2.17v-3.59a.42.42,0,0,1,.46-.48h.12a.42.42,0,0,1,.46.48v3.52a2.35,2.35,0,0,0,.47,1.57,1.63,1.63,0,0,0,1.33.57,2.21,2.21,0,0,0,1.27-.38,2.34,2.34,0,0,0,.84-1v-4.26q0-.48.45-.48Zm5.07-.1a1.18,1.18,0,0,1,.74.2.64.64,0,0,1,.28.54.76.76,0,0,1-.06.32.6.6,0,0,1-.15.19c-.06,0-.09.06-.1,0a1.12,1.12,0,0,0-.82-.29,1.33,1.33,0,0,0-1.23.75,4.41,4.41,0,0,0-.41,2.08v2.71c0,.33-.14.49-.44.49h-.12c-.31,0-.47-.16-.47-.49v-6.34s0,0,.12-.07a.66.66,0,0,1,.25,0c.36,0,.56.23.61.68s0,.58,0,.75a2.13,2.13,0,0,1,.66-1.15,1.63,1.63,0,0,1,1.11-.38Zm1.61,5.23a1.76,1.76,0,0,1,1.13-1.68,9,9,0,0,1,3.56-.57h.16v-.29a1.79,1.79,0,0,0-.48-1.34,1.9,1.9,0,0,0-1.37-.47,2.48,2.48,0,0,0-1.3.33,2.29,2.29,0,0,0-.8.89.35.35,0,0,1-.19,0,.61.61,0,0,1-.3-.15.47.47,0,0,1-.14-.36.85.85,0,0,1,.11-.36,1.6,1.6,0,0,1,.31-.4,2.74,2.74,0,0,1,1-.58,3.72,3.72,0,0,1,1.39-.23,2.84,2.84,0,0,1,2.08.71,2.71,2.71,0,0,1,.73,2v4.23s0,0-.12.07a.73.73,0,0,1-.25,0c-.36,0-.56-.22-.61-.66q0-.39,0-.63a2.52,2.52,0,0,1-1,1,3.08,3.08,0,0,1-1.52.37,2.54,2.54,0,0,1-1.7-.52,1.69,1.69,0,0,1-.63-1.39Zm4.85-1.58-.24,0a8,8,0,0,0-2.74.4,1.19,1.19,0,0,0-.84,1.13,1,1,0,0,0,.41.85,1.7,1.7,0,0,0,1.09.32,2.53,2.53,0,0,0,1.17-.28,2.09,2.09,0,0,0,.84-.74,1.79,1.79,0,0,0,.31-1Zm8,3.5a4.1,4.1,0,0,1-1.36-.2,2.46,2.46,0,0,1-.95-.53,1.42,1.42,0,0,1-.39-.44.88.88,0,0,1-.13-.43.45.45,0,0,1,.11-.32,1.07,1.07,0,0,1,.23-.2c.09-.05.14-.06.15,0a2.51,2.51,0,0,0,.91.92,2.78,2.78,0,0,0,1.41.34c1.63,0,2.52-.93,2.67-2.78q0-.35,0-.63l0-.51a3,3,0,0,1-1.14.91,3.52,3.52,0,0,1-1.6.36,3.15,3.15,0,0,1-2.22-.76,2.59,2.59,0,0,1-.83-2v-.07a3.22,3.22,0,0,1,.42-1.63,3.08,3.08,0,0,1,1.17-1.15,3.38,3.38,0,0,1,1.68-.42,3.3,3.3,0,0,1,2.62,1.1,4.63,4.63,0,0,1,1,3.13v1a4.83,4.83,0,0,1-1,3.25,3.45,3.45,0,0,1-2.76,1.11Zm.12-4.39a2.88,2.88,0,0,0,1.47-.38,2.68,2.68,0,0,0,1-.95v-.24a3.51,3.51,0,0,0-.76-2.05,2.26,2.26,0,0,0-4,1.53v.07a1.91,1.91,0,0,0,.59,1.49,2.28,2.28,0,0,0,1.62.53Z"/><path class="cls-1" d="M76.15,270.75a28.35,28.35,0,1,0-28.34,28.34V270.75Z"/><path class="cls-2" d="M76.15,270.75a28.35,28.35,0,1,0-28.34,28.34V270.75Z"/><path class="cls-3" d="M47.81,299.09a28.34,28.34,0,0,0,28.34-28.34H47.81Z"/><path class="cls-2" d="M47.81,299.09a28.34,28.34,0,0,0,28.34-28.34H47.81Z"/><line class="cls-2" x1="47.81" y1="270.75" x2="47.81" y2="299.09"/><line class="cls-2" x1="47.81" y1="270.75" x2="76.15" y2="270.75"/><path d="M22.27,307.94a.63.63,0,0,1,.16-.46.53.53,0,0,1,.43-.17h5c.34,0,.51.14.51.43v.08q0,.45-.51.45H23.35v3.43H26.7c.34,0,.51.14.51.43v.07a.39.39,0,0,1-.13.33.62.62,0,0,1-.38.1H23.36v3.51a.49.49,0,0,1-.12.36.45.45,0,0,1-.35.13h-.16c-.31,0-.46-.18-.46-.54Zm7.3-.35a.61.61,0,0,1,.66-.66.68.68,0,0,1,.49.17.65.65,0,0,1,.17.49.62.62,0,0,1-.18.48.69.69,0,0,1-.49.17.64.64,0,0,1-.47-.17.62.62,0,0,1-.18-.48Zm.13,2.6c0-.34.16-.5.46-.5h.12c.3,0,.46.16.46.5v5.95c0,.33-.16.49-.46.49h-.12c-.3,0-.46-.16-.46-.49Zm5.21,9.41c-2.13,0-3.2-.62-3.2-1.86a1.56,1.56,0,0,1,.63-1.25A3.54,3.54,0,0,1,34,315.8a.77.77,0,0,1-.43-.69.86.86,0,0,1,.41-.73,2.49,2.49,0,0,1-1.26-.86,2.22,2.22,0,0,1-.47-1.39,2.41,2.41,0,0,1,.36-1.29,2.58,2.58,0,0,1,1-.92,3.06,3.06,0,0,1,1.42-.33,2.8,2.8,0,0,1,1.62.47l.52-.77a.72.72,0,0,1,.6-.42.53.53,0,0,1,.3.09,1.34,1.34,0,0,1,.21.2c.05.08.07.13.06.17l-1.13,1.2a2.27,2.27,0,0,1,.61,1.55,2.25,2.25,0,0,1-.35,1.25,2.52,2.52,0,0,1-1,.88,3.07,3.07,0,0,1-1.43.33l-.37,0a.4.4,0,0,0-.17.37.43.43,0,0,0,.3.39,5.44,5.44,0,0,0,1,.3l.53.13c1.37.34,2.05,1,2.05,1.84a1.7,1.7,0,0,1-.9,1.51,5,5,0,0,1-2.54.54Zm0-.75a4.09,4.09,0,0,0,1.78-.31,1,1,0,0,0,.63-.92.8.8,0,0,0-.4-.69,4,4,0,0,0-1.11-.43l-.84-.2a3.82,3.82,0,0,0-1.62.47,1.1,1.1,0,0,0-.66,1,.91.91,0,0,0,.56.84,3.66,3.66,0,0,0,1.66.29Zm0-5a1.8,1.8,0,0,0,1.27-.47,1.85,1.85,0,0,0,0-2.51,1.93,1.93,0,0,0-2.55,0,1.71,1.71,0,0,0-.49,1.26,1.67,1.67,0,0,0,.5,1.25,1.78,1.78,0,0,0,1.27.47Zm9.74-4.13a.42.42,0,0,1,.46.48v6.36s0,0-.12.07a.78.78,0,0,1-.26,0c-.35,0-.55-.22-.6-.67,0-.25,0-.43,0-.56a3,3,0,0,1-1,1,2.65,2.65,0,0,1-1.39.37,2.38,2.38,0,0,1-2-.82,3.33,3.33,0,0,1-.66-2.17v-3.59q0-.48.45-.48h.12c.31,0,.46.16.46.48v3.52a2.41,2.41,0,0,0,.47,1.57,1.65,1.65,0,0,0,1.34.57,2.23,2.23,0,0,0,1.27-.38,2.31,2.31,0,0,0,.83-1v-4.27q0-.48.45-.48Zm5.08-.1a1.29,1.29,0,0,1,.74.2.66.66,0,0,1,.28.54.76.76,0,0,1-.07.32.49.49,0,0,1-.15.19c-.06,0-.09.06-.1.05a1.1,1.1,0,0,0-.82-.28,1.3,1.3,0,0,0-1.22.74,4.29,4.29,0,0,0-.41,2.08v2.71c0,.33-.15.49-.45.49h-.11a.43.43,0,0,1-.48-.49V309.8s0,0,.12-.07a.71.71,0,0,1,.26,0q.52,0,.6.69c0,.32,0,.57,0,.74a2.13,2.13,0,0,1,.66-1.15,1.71,1.71,0,0,1,1.12-.38Zm1.6,5.23a1.77,1.77,0,0,1,1.13-1.68,9,9,0,0,1,3.57-.57h.15v-.29a1.79,1.79,0,0,0-.48-1.34,1.88,1.88,0,0,0-1.37-.46,2.41,2.41,0,0,0-1.3.33,2.07,2.07,0,0,0-.79.89.46.46,0,0,1-.2,0,.61.61,0,0,1-.3-.15.47.47,0,0,1-.13-.36.82.82,0,0,1,.1-.36,1.88,1.88,0,0,1,.31-.4,3,3,0,0,1,1-.58,3.72,3.72,0,0,1,1.39-.23,2.88,2.88,0,0,1,2.08.71,2.67,2.67,0,0,1,.73,2v4.23s0,0-.12.07a.73.73,0,0,1-.25,0q-.54,0-.6-.66,0-.39,0-.63a2.54,2.54,0,0,1-1,1,3.08,3.08,0,0,1-1.52.37,2.54,2.54,0,0,1-1.7-.52,1.69,1.69,0,0,1-.63-1.39Zm4.85-1.58-.24,0a8,8,0,0,0-2.73.4,1.19,1.19,0,0,0-.84,1.13,1,1,0,0,0,.4.85,1.72,1.72,0,0,0,1.09.32,2.48,2.48,0,0,0,1.18-.28,2.06,2.06,0,0,0,.83-.74,1.79,1.79,0,0,0,.31-1Zm7.15,3.4c-.3,0-.45-.16-.45-.5v-7.26a1.08,1.08,0,0,1-.44.38,1.33,1.33,0,0,1-.6.14,1.17,1.17,0,0,1-.82-.29.7.7,0,0,1-.23-.54.68.68,0,0,1,.06-.29.65.65,0,0,1,.15-.2c0-.05.08-.07.1-.06a1,1,0,0,0,.82.35,1.11,1.11,0,0,0,.8-.33,1.17,1.17,0,0,0,.36-.79h.39c.32,0,.47.17.47.5v8.39c0,.34-.15.5-.47.5Zm6.54.11a3.52,3.52,0,0,1-1.94-.53,3.35,3.35,0,0,1-1.27-1.5,5.41,5.41,0,0,1-.45-2.29v-.95a5.46,5.46,0,0,1,.45-2.3A3.33,3.33,0,0,1,68,307.67a4,4,0,0,1,3.92,0,3.44,3.44,0,0,1,1.28,1.5,5.62,5.62,0,0,1,.44,2.3v.93a5.46,5.46,0,0,1-.45,2.3,3.37,3.37,0,0,1-1.29,1.51,3.51,3.51,0,0,1-2,.54Zm0-.92a2.29,2.29,0,0,0,1.92-.89,4.08,4.08,0,0,0,.68-2.5v-1a4,4,0,0,0-.69-2.51A2.46,2.46,0,0,0,68,309a4.07,4.07,0,0,0-.68,2.49v1a4,4,0,0,0,.69,2.49,2.23,2.23,0,0,0,1.89.91Z"/><polygon class="cls-1" points="171.68 246.2 157.5 270.75 171.68 295.3 171.68 246.2"/><polygon class="cls-2" points="171.68 246.2 157.5 270.75 171.68 295.3 171.68 246.2"/><polygon class="cls-1" points="171.68 295.3 200.02 295.3 200.02 246.2 171.68 295.3"/><polygon class="cls-2" points="171.68 295.3 200.02 295.3 200.02 246.2 171.68 295.3"/><polygon class="cls-3" points="200.02 246.2 171.68 246.2 171.68 295.3 200.02 246.2"/><polygon class="cls-2" points="200.02 246.2 171.68 246.2 171.68 295.3 200.02 246.2"/><polygon class="cls-3" points="214.19 270.75 200.02 295.3 200.02 246.2 214.19 270.75"/><polygon class="cls-2" points="214.19 270.75 200.02 295.3 200.02 246.2 214.19 270.75"/><path d="M162.28,307.94a.63.63,0,0,1,.16-.46.52.52,0,0,1,.43-.17h5c.34,0,.5.14.5.43v.08c0,.3-.16.45-.5.45h-4.55v3.43h3.36c.34,0,.5.14.5.43v.07a.42.42,0,0,1-.12.33.64.64,0,0,1-.38.1h-3.34v3.51a.49.49,0,0,1-.12.36.47.47,0,0,1-.36.13h-.15c-.31,0-.46-.18-.46-.54Zm7.3-.35a.66.66,0,1,1,1.32,0,.62.62,0,0,1-.18.48.69.69,0,0,1-.49.17.67.67,0,0,1-.48-.17.65.65,0,0,1-.17-.48Zm.13,2.6c0-.34.15-.5.46-.5h.11c.31,0,.46.16.46.5v5.95c0,.33-.15.49-.46.49h-.11c-.31,0-.46-.16-.46-.49Zm5.21,9.41c-2.14,0-3.2-.62-3.2-1.86a1.56,1.56,0,0,1,.63-1.25,3.54,3.54,0,0,1,1.61-.69.77.77,0,0,1-.43-.69.84.84,0,0,1,.41-.73,2.45,2.45,0,0,1-1.26-.86,2.17,2.17,0,0,1-.47-1.39,2.5,2.5,0,0,1,.35-1.29,2.61,2.61,0,0,1,1-.92,3.05,3.05,0,0,1,1.41-.33,2.81,2.81,0,0,1,1.63.47l.51-.77a.73.73,0,0,1,.6-.42.54.54,0,0,1,.31.09,1,1,0,0,1,.2.2c.06.08.08.13.07.17l-1.13,1.2a2.31,2.31,0,0,1,.25,2.8,2.49,2.49,0,0,1-1,.88,3.1,3.1,0,0,1-1.43.33l-.37,0a.41.41,0,0,0-.18.37.43.43,0,0,0,.3.39,5.87,5.87,0,0,0,1,.3l.53.13c1.37.34,2.05,1,2.05,1.84a1.7,1.7,0,0,1-.9,1.51,5,5,0,0,1-2.54.54Zm0-.75a4,4,0,0,0,1.77-.31,1,1,0,0,0,.64-.92.79.79,0,0,0-.41-.69,3.76,3.76,0,0,0-1.1-.43l-.85-.2a3.86,3.86,0,0,0-1.62.47,1.1,1.1,0,0,0-.66,1,.92.92,0,0,0,.57.84,3.66,3.66,0,0,0,1.66.29Zm0-5a1.78,1.78,0,0,0,1.27-.47,1.84,1.84,0,0,0,0-2.51,1.74,1.74,0,0,0-1.29-.48,1.7,1.7,0,0,0-1.26.48,1.85,1.85,0,0,0,0,2.51,1.8,1.8,0,0,0,1.27.47Zm9.75-4.13q.45,0,.45.48v6.36s0,0-.12.07a.69.69,0,0,1-.25,0c-.35,0-.55-.22-.6-.67,0-.25,0-.43,0-.56a2.9,2.9,0,0,1-1,1,2.61,2.61,0,0,1-1.38.37,2.37,2.37,0,0,1-2-.82,3.27,3.27,0,0,1-.67-2.17v-3.59a.42.42,0,0,1,.46-.48h.12a.42.42,0,0,1,.46.48v3.52a2.35,2.35,0,0,0,.47,1.57,1.63,1.63,0,0,0,1.33.57,2.21,2.21,0,0,0,1.27-.38,2.26,2.26,0,0,0,.84-1v-4.27q0-.48.45-.48Zm5.07-.1a1.25,1.25,0,0,1,.74.2.64.64,0,0,1,.28.54.76.76,0,0,1-.06.32.6.6,0,0,1-.15.19c-.06,0-.09.06-.1.05a1.12,1.12,0,0,0-.82-.28,1.32,1.32,0,0,0-1.23.74,4.41,4.41,0,0,0-.41,2.08v2.71c0,.33-.14.49-.44.49h-.12c-.31,0-.47-.16-.47-.49V309.8s0,0,.12-.07a.66.66,0,0,1,.25,0c.36,0,.56.23.61.69s0,.57,0,.74a2.13,2.13,0,0,1,.66-1.15,1.68,1.68,0,0,1,1.11-.38Zm1.6,5.23a1.76,1.76,0,0,1,1.12-1.68,9,9,0,0,1,3.57-.57h.16v-.29a1.79,1.79,0,0,0-.48-1.34,1.91,1.91,0,0,0-1.37-.46,2.39,2.39,0,0,0-1.3.33,2.09,2.09,0,0,0-.8.89.42.42,0,0,1-.19,0,.61.61,0,0,1-.3-.15.44.44,0,0,1-.14-.36.85.85,0,0,1,.11-.36,1.4,1.4,0,0,1,.31-.4,2.84,2.84,0,0,1,1-.58,3.75,3.75,0,0,1,1.39-.23,2.88,2.88,0,0,1,2.08.71,2.67,2.67,0,0,1,.73,2v4.23s0,0-.12.07a.69.69,0,0,1-.25,0q-.52,0-.6-.66,0-.39,0-.63a2.54,2.54,0,0,1-1,1,3.06,3.06,0,0,1-1.52.37,2.56,2.56,0,0,1-1.7-.52,1.68,1.68,0,0,1-.62-1.39Zm4.85-1.58-.25,0a8,8,0,0,0-2.73.4,1.19,1.19,0,0,0-.84,1.13,1,1,0,0,0,.4.85,1.72,1.72,0,0,0,1.09.32,2.48,2.48,0,0,0,1.18-.28,2.15,2.15,0,0,0,.84-.74,1.87,1.87,0,0,0,.31-1Zm7.14,3.4c-.3,0-.44-.16-.44-.5v-7.26a1.18,1.18,0,0,1-.45.38,1.33,1.33,0,0,1-.6.14,1.17,1.17,0,0,1-.82-.29.74.74,0,0,1-.23-.54.57.57,0,0,1,.07-.29.64.64,0,0,1,.14-.2c0-.05.09-.07.11-.06a1,1,0,0,0,.81.35,1.09,1.09,0,0,0,.8-.33,1.13,1.13,0,0,0,.37-.79h.38c.32,0,.48.17.48.5v8.39c0,.34-.16.5-.48.5Zm5,0c-.3,0-.45-.16-.45-.5v-7.26a1.08,1.08,0,0,1-.44.38,1.33,1.33,0,0,1-.6.14,1.17,1.17,0,0,1-.82-.29.74.74,0,0,1-.23-.54.68.68,0,0,1,.06-.29.86.86,0,0,1,.15-.2c.05-.05.09-.07.11-.06a1,1,0,0,0,.81.35,1.09,1.09,0,0,0,.8-.33,1.18,1.18,0,0,0,.37-.79h.38c.32,0,.48.17.48.5v8.39c0,.34-.16.5-.48.5Z"/><rect class="cls-3" x="281.37" y="270.75" width="85.04" height="28.35"/><rect class="cls-2" x="281.37" y="270.75" width="85.04" height="28.35"/><rect class="cls-1" x="295.54" y="270.75" width="42.52" height="28.35"/><rect class="cls-2" x="295.54" y="270.75" width="42.52" height="28.35"/><path d="M299.11,307.94a.67.67,0,0,1,.15-.46.55.55,0,0,1,.44-.17h5c.34,0,.5.14.5.43v.08c0,.3-.16.45-.5.45h-4.55v3.43h3.36c.33,0,.5.14.5.43v.07a.42.42,0,0,1-.12.33.64.64,0,0,1-.38.1H300.2v3.51a.49.49,0,0,1-.12.36.47.47,0,0,1-.36.13h-.15c-.31,0-.46-.18-.46-.54Zm7.3-.35a.66.66,0,1,1,1.32,0,.62.62,0,0,1-.18.48.7.7,0,0,1-.5.17.66.66,0,0,1-.47-.17.65.65,0,0,1-.17-.48Zm.13,2.6c0-.34.15-.5.46-.5h.11c.31,0,.46.16.46.5v5.95c0,.33-.15.49-.46.49H307c-.31,0-.46-.16-.46-.49Zm5.21,9.41c-2.14,0-3.2-.62-3.2-1.86a1.56,1.56,0,0,1,.63-1.25,3.5,3.5,0,0,1,1.6-.69.79.79,0,0,1-.43-.69.85.85,0,0,1,.42-.73,2.41,2.41,0,0,1-1.26-.86,2.17,2.17,0,0,1-.48-1.39,2.41,2.41,0,0,1,.36-1.29,2.54,2.54,0,0,1,1-.92,3.05,3.05,0,0,1,1.41-.33,2.76,2.76,0,0,1,1.62.47l.52-.77a.72.72,0,0,1,.6-.42.49.49,0,0,1,.3.09.81.81,0,0,1,.21.2c.06.08.08.13.07.17l-1.14,1.2a2.29,2.29,0,0,1,.26,2.8,2.49,2.49,0,0,1-1,.88,3.1,3.1,0,0,1-1.43.33l-.38,0a.43.43,0,0,0-.17.37.43.43,0,0,0,.3.39,5.87,5.87,0,0,0,1,.3l.53.13c1.37.34,2.05,1,2.05,1.84a1.67,1.67,0,0,1-.9,1.5,4.89,4.89,0,0,1-2.54.55Zm0-.75a4.06,4.06,0,0,0,1.78-.31,1,1,0,0,0,.63-.92.78.78,0,0,0-.4-.69,3.76,3.76,0,0,0-1.1-.43l-.85-.2a3.86,3.86,0,0,0-1.62.47,1.1,1.1,0,0,0-.66,1,.92.92,0,0,0,.57.84,3.64,3.64,0,0,0,1.65.29Zm0-5a1.78,1.78,0,0,0,1.27-.47,1.84,1.84,0,0,0,0-2.51,1.76,1.76,0,0,0-1.29-.48,1.7,1.7,0,0,0-1.26.48,1.85,1.85,0,0,0,0,2.51,1.8,1.8,0,0,0,1.27.47Zm9.74-4.13c.31,0,.46.16.46.48v6.36s0,0-.12.07a.69.69,0,0,1-.25,0c-.35,0-.55-.22-.6-.67,0-.25,0-.43,0-.56a2.9,2.9,0,0,1-1,1,2.64,2.64,0,0,1-1.38.37,2.37,2.37,0,0,1-2-.82,3.27,3.27,0,0,1-.67-2.17v-3.59c0-.32.15-.48.46-.48h.12q.45,0,.45.48v3.52a2.36,2.36,0,0,0,.48,1.57,1.63,1.63,0,0,0,1.33.57,2.21,2.21,0,0,0,1.27-.38,2.26,2.26,0,0,0,.84-1v-4.27q0-.48.45-.48Zm5.08-.1a1.25,1.25,0,0,1,.74.2.64.64,0,0,1,.28.54.76.76,0,0,1-.06.32.79.79,0,0,1-.15.19c-.06,0-.09.06-.1.05a1.13,1.13,0,0,0-.82-.28,1.31,1.31,0,0,0-1.23.74,4.41,4.41,0,0,0-.41,2.08v2.71c0,.33-.15.49-.44.49h-.12c-.31,0-.47-.16-.47-.49V309.8s0,0,.11-.07a.75.75,0,0,1,.26,0c.36,0,.56.23.61.69s0,.57,0,.74a2.26,2.26,0,0,1,.66-1.15,1.73,1.73,0,0,1,1.12-.38Zm1.6,5.23a1.76,1.76,0,0,1,1.12-1.68,9,9,0,0,1,3.57-.57h.15v-.29a1.79,1.79,0,0,0-.48-1.34,1.88,1.88,0,0,0-1.37-.46,2.35,2.35,0,0,0-1.29.33,2.09,2.09,0,0,0-.8.89.42.42,0,0,1-.19,0,.69.69,0,0,1-.31-.15.47.47,0,0,1-.13-.36.73.73,0,0,1,.11-.36,1.55,1.55,0,0,1,.3-.4,3,3,0,0,1,1-.58,3.75,3.75,0,0,1,1.39-.23,2.88,2.88,0,0,1,2.08.71,2.67,2.67,0,0,1,.73,2v4.23s0,0-.12.07a.69.69,0,0,1-.25,0q-.52,0-.6-.66,0-.39,0-.63a2.54,2.54,0,0,1-1,1,3.08,3.08,0,0,1-1.52.37,2.56,2.56,0,0,1-1.7-.52,1.68,1.68,0,0,1-.62-1.39Zm4.84-1.58-.24,0a8,8,0,0,0-2.73.4,1.19,1.19,0,0,0-.84,1.13,1,1,0,0,0,.4.85,1.72,1.72,0,0,0,1.09.32,2.48,2.48,0,0,0,1.18-.28,2.15,2.15,0,0,0,.84-.74,1.86,1.86,0,0,0,.3-1Zm7.15,3.4c-.3,0-.45-.16-.45-.5v-7.26a1.08,1.08,0,0,1-.44.38,1.33,1.33,0,0,1-.6.14,1.17,1.17,0,0,1-.82-.29.74.74,0,0,1-.23-.54.68.68,0,0,1,.06-.29.86.86,0,0,1,.15-.2c.05-.05.09-.07.11-.06a1,1,0,0,0,.81.35,1.11,1.11,0,0,0,.8-.33,1.18,1.18,0,0,0,.37-.79h.38c.32,0,.48.17.48.5v8.39c0,.34-.16.5-.48.5Zm3.4-.05a.79.79,0,0,1-.54-.15.58.58,0,0,1-.16-.47v-.36a3.12,3.12,0,0,1,.38-1.57,3.6,3.6,0,0,1,1-1.07,10.86,10.86,0,0,1,1.48-.89c.61-.31,1.05-.56,1.32-.73a2.55,2.55,0,0,0,.71-.64,1.41,1.41,0,0,0,.31-.91,1.61,1.61,0,0,0-.55-1.25,2.26,2.26,0,0,0-1.51-.47,2.23,2.23,0,0,0-1.58.54,2.78,2.78,0,0,0-.8,1.37s-.06,0-.19,0a.73.73,0,0,1-.36-.16.48.48,0,0,1-.16-.4,1.56,1.56,0,0,1,.19-.68,2.61,2.61,0,0,1,.54-.72,3.31,3.31,0,0,1,1-.66,3.88,3.88,0,0,1,1.4-.25,3.21,3.21,0,0,1,2.23.73,2.47,2.47,0,0,1,.81,1.94,2.31,2.31,0,0,1-.35,1.28,3,3,0,0,1-.88.88,14,14,0,0,1-1.44.8,13,13,0,0,0-1.3.71,3.18,3.18,0,0,0-.84.79,2.09,2.09,0,0,0-.37,1.08l0,.29h4.86c.35,0,.52.14.52.43v.08c0,.3-.17.45-.52.45Z"/></svg>