<svg id="Camada_1" data-name="Camada 1" xmlns="http://www.w3.org/2000/svg" viewBox="0 0 414.37 474.93"><defs><style>.cls-1{fill:#ab9781;}.cls-2,.cls-5,.cls-9{fill:none;stroke:#000;stroke-miterlimit:10;}.cls-2,.cls-5{stroke-width:0.4px;}.cls-3{fill:#9d8e80;}.cls-4,.cls-6{fill:#fff;}.cls-4,.cls-5{opacity:0.7;}.cls-7{font-size:8.18px;}.cls-7,.cls-8{font-family:CMR10;}.cls-8{font-size:7.47px;}.cls-9{stroke-width:0.3px;}</style></defs><polygon class="cls-1" points="48.46 95.68 173.18 95.68 143.17 125.69 18.45 125.69 48.46 95.68"/><polygon class="cls-2" points="48.46 95.68 173.18 95.68 143.17 125.69 18.45 125.69 48.46 95.68"/><polyline class="cls-3" points="173.18 95.68 173.18 99.58 143.17 129.59 143.17 125.69"/><polyline class="cls-2" points="173.18 95.68 173.18 99.58 143.17 129.59 143.17 125.69"/><polyline class="cls-3" points="143.17 125.69 143.17 129.59 18.45 129.59 18.45 125.69"/><polyline class="cls-2" points="143.17 125.69 143.17 129.59 18.45 129.59 18.45 125.69"/><polygon class="cls-4" points="71.84 95.68 149.8 95.68 119.79 125.69 41.83 125.69 71.84 95.68"/><polygon class="cls-5" points="71.84 95.68 149.8 95.68 119.79 125.69 41.83 125.69 71.84 95.68"/><rect class="cls-4" x="71.84" y="17.72" width="77.95" height="77.95"/><rect class="cls-5" x="71.84" y="17.72" width="77.95" height="77.95"/><polygon class="cls-4" points="71.84 95.68 71.84 17.73 41.83 47.74 41.83 125.69 71.84 95.68"/><polygon class="cls-5" points="71.84 95.68 71.84 17.73 41.83 47.74 41.83 125.69 71.84 95.68"/><rect class="cls-4" x="41.83" y="47.74" width="77.95" height="77.95"/><rect class="cls-5" x="41.83" y="47.74" width="77.95" height="77.95"/><polygon class="cls-4" points="149.8 95.68 119.79 125.69 119.79 47.74 149.8 17.73 149.8 95.68"/><polygon class="cls-5" points="149.8 95.68 119.79 125.69 119.79 47.74 149.8 17.73 149.8 95.68"/><polygon class="cls-4" points="71.84 17.73 149.8 17.73 119.79 47.74 41.83 47.74 71.84 17.73"/><polygon class="cls-5" points="71.84 17.73 149.8 17.73 119.79 47.74 41.83 47.74 71.84 17.73"/><rect class="cls-6" x="41.83" y="43.84" width="23.39" height="85.75"/><rect class="cls-2" x="41.83" y="43.84" width="23.39" height="85.75"/><line class="cls-2" x1="49.63" y1="125.39" x2="49.63" y2="48.04"/><line class="cls-2" x1="51.92" y1="125.49" x2="47.34" y2="125.49"/><line class="cls-2" x1="47.34" y1="47.94" x2="51.92" y2="47.94"/><text class="cls-7" transform="translate(54.43 50.37)">1</text><text class="cls-7" transform="translate(54.43 128.33)">0</text><line class="cls-2" x1="49.63" y1="125.39" x2="49.63" y2="87.01"/><line class="cls-2" x1="51.92" y1="125.49" x2="47.34" y2="125.49"/><line class="cls-2" x1="47.34" y1="86.91" x2="51.92" y2="86.91"/><text class="cls-8" transform="translate(54.79 103.52)">1</text><line class="cls-9" x1="54.79" y1="106.71" x2="58.53" y2="106.71"/><text class="cls-8" transform="translate(54.79 113.7)">2</text><polygon class="cls-1" points="274.36 95.68 399.09 95.68 369.08 125.69 244.35 125.69 274.36 95.68"/><polygon class="cls-2" points="274.36 95.68 399.09 95.68 369.08 125.69 244.35 125.69 274.36 95.68"/><polyline class="cls-3" points="399.09 95.68 399.09 99.58 369.08 129.59 369.08 125.69"/><polyline class="cls-2" points="399.09 95.68 399.09 99.58 369.08 129.59 369.08 125.69"/><polyline class="cls-3" points="369.08 125.69 369.08 129.59 244.35 129.59 244.35 125.69"/><polyline class="cls-2" points="369.08 125.69 369.08 129.59 244.35 129.59 244.35 125.69"/><polygon class="cls-4" points="297.75 95.68 375.7 95.68 345.69 125.69 267.74 125.69 297.75 95.68"/><polygon class="cls-5" points="297.75 95.68 375.7 95.68 345.69 125.69 267.74 125.69 297.75 95.68"/><rect class="cls-4" x="297.75" y="17.72" width="77.95" height="77.95"/><rect class="cls-5" x="297.75" y="17.72" width="77.95" height="77.95"/><polygon class="cls-4" points="297.75 95.68 297.75 17.73 267.74 47.74 267.74 125.69 297.75 95.68"/><polygon class="cls-5" points="297.75 95.68 297.75 17.73 267.74 47.74 267.74 125.69 297.75 95.68"/><rect class="cls-4" x="267.74" y="47.74" width="77.95" height="77.95"/><rect class="cls-5" x="267.74" y="47.74" width="77.95" height="77.95"/><polygon class="cls-4" points="375.7 95.68 345.69 125.69 345.69 47.74 375.7 17.73 375.7 95.68"/><polygon class="cls-5" points="375.7 95.68 345.69 125.69 345.69 47.74 375.7 17.73 375.7 95.68"/><polygon class="cls-4" points="297.75 17.73 375.7 17.73 345.69 47.74 267.74 47.74 297.75 17.73"/><polygon class="cls-5" points="297.75 17.73 375.7 17.73 345.69 47.74 267.74 47.74 297.75 17.73"/><rect class="cls-6" x="267.74" y="43.84" width="23.39" height="85.75"/><rect class="cls-2" x="267.74" y="43.84" width="23.39" height="85.75"/><line class="cls-2" x1="275.53" y1="125.39" x2="275.53" y2="48.04"/><line class="cls-2" x1="277.82" y1="125.49" x2="273.24" y2="125.49"/><line class="cls-2" x1="273.24" y1="47.94" x2="277.82" y2="47.94"/><text class="cls-7" transform="translate(280.33 50.37)">1</text><text class="cls-7" transform="translate(280.33 128.33)">0</text><line class="cls-2" x1="275.53" y1="125.39" x2="275.53" y2="87.01"/><line class="cls-2" x1="277.82" y1="125.49" x2="273.24" y2="125.49"/><line class="cls-2" x1="273.24" y1="86.91" x2="277.82" y2="86.91"/><text class="cls-8" transform="translate(280.7 84.03)">1</text><line class="cls-9" x1="280.7" y1="87.22" x2="284.43" y2="87.22"/><text class="cls-8" transform="translate(280.7 94.21)">2</text><line class="cls-2" x1="275.53" y1="125.39" x2="275.53" y2="106.5"/><line class="cls-2" x1="277.82" y1="125.49" x2="273.24" y2="125.49"/><line class="cls-2" x1="273.24" y1="106.4" x2="277.82" y2="106.4"/><text class="cls-8" transform="translate(280.7 103.52)">1</text><line class="cls-9" x1="280.7" y1="106.71" x2="284.43" y2="106.71"/><text class="cls-8" transform="translate(280.7 113.7)">4</text><line class="cls-2" x1="275.53" y1="125.39" x2="275.53" y2="67.52"/><line class="cls-2" x1="277.82" y1="125.49" x2="273.24" y2="125.49"/><line class="cls-2" x1="273.24" y1="67.42" x2="277.82" y2="67.42"/><text class="cls-8" transform="translate(280.7 64.54)">3</text><line class="cls-9" x1="280.7" y1="67.73" x2="284.43" y2="67.73"/><text class="cls-8" transform="translate(280.7 74.72)">4</text><polygon class="cls-1" points="48.46 248.55 173.18 248.55 143.17 278.56 18.45 278.56 48.46 248.55"/><polygon class="cls-2" points="48.46 248.55 173.18 248.55 143.17 278.56 18.45 278.56 48.46 248.55"/><polyline class="cls-3" points="173.18 248.55 173.18 252.45 143.17 282.46 143.17 278.56"/><polyline class="cls-2" points="173.18 248.55 173.18 252.45 143.17 282.46 143.17 278.56"/><polyline class="cls-3" points="143.17 278.56 143.17 282.46 18.45 282.46 18.45 278.56"/><polyline class="cls-2" points="143.17 278.56 143.17 282.46 18.45 282.46 18.45 278.56"/><polygon class="cls-4" points="71.84 248.55 149.8 248.55 119.79 278.56 41.83 278.56 71.84 248.55"/><polygon class="cls-5" points="71.84 248.55 149.8 248.55 119.79 278.56 41.83 278.56 71.84 248.55"/><rect class="cls-4" x="71.84" y="170.6" width="77.95" height="77.95"/><rect class="cls-5" x="71.84" y="170.6" width="77.95" height="77.95"/><polygon class="cls-4" points="71.84 248.55 71.84 170.6 41.83 200.61 41.83 278.56 71.84 248.55"/><polygon class="cls-5" points="71.84 248.55 71.84 170.6 41.83 200.61 41.83 278.56 71.84 248.55"/><rect class="cls-4" x="41.83" y="200.61" width="77.95" height="77.95"/><rect class="cls-5" x="41.83" y="200.61" width="77.95" height="77.95"/><polygon class="cls-4" points="149.8 248.55 119.79 278.56 119.79 200.61 149.8 170.6 149.8 248.55"/><polygon class="cls-5" points="149.8 248.55 119.79 278.56 119.79 200.61 149.8 170.6 149.8 248.55"/><polygon class="cls-4" points="71.84 170.6 149.8 170.6 119.79 200.61 41.83 200.61 71.84 170.6"/><polygon class="cls-5" points="71.84 170.6 149.8 170.6 119.79 200.61 41.83 200.61 71.84 170.6"/><rect class="cls-6" x="41.83" y="196.71" width="23.39" height="85.75"/><rect class="cls-2" x="41.83" y="196.71" width="23.39" height="85.75"/><line class="cls-2" x1="49.63" y1="278.27" x2="49.63" y2="200.91"/><line class="cls-2" x1="51.92" y1="278.36" x2="47.34" y2="278.36"/><line class="cls-2" x1="47.34" y1="200.81" x2="51.92" y2="200.81"/><text class="cls-7" transform="translate(54.43 203.25)">1</text><text class="cls-7" transform="translate(54.43 281.2)">0</text><line class="cls-2" x1="49.63" y1="278.27" x2="49.63" y2="220.4"/><line class="cls-2" x1="51.92" y1="278.36" x2="47.34" y2="278.36"/><line class="cls-2" x1="47.34" y1="220.3" x2="51.92" y2="220.3"/><text class="cls-8" transform="translate(54.79 217.42)">1</text><line class="cls-9" x1="54.79" y1="220.6" x2="58.53" y2="220.6"/><text class="cls-8" transform="translate(54.79 227.6)">2</text><polygon class="cls-1" points="274.36 248.55 399.09 248.55 369.08 278.56 244.35 278.56 274.36 248.55"/><polygon class="cls-2" points="274.36 248.55 399.09 248.55 369.08 278.56 244.35 278.56 274.36 248.55"/><polyline class="cls-3" points="399.09 248.55 399.09 252.45 369.08 282.46 369.08 278.56"/><polyline class="cls-2" points="399.09 248.55 399.09 252.45 369.08 282.46 369.08 278.56"/><polyline class="cls-3" points="369.08 278.56 369.08 282.46 244.35 282.46 244.35 278.56"/><polyline class="cls-2" points="369.08 278.56 369.08 282.46 244.35 282.46 244.35 278.56"/><polygon class="cls-4" points="297.75 248.55 375.7 248.55 345.69 278.56 267.74 278.56 297.75 248.55"/><polygon class="cls-5" points="297.75 248.55 375.7 248.55 345.69 278.56 267.74 278.56 297.75 248.55"/><rect class="cls-4" x="297.75" y="170.6" width="77.95" height="77.95"/><rect class="cls-5" x="297.75" y="170.6" width="77.95" height="77.95"/><polygon class="cls-4" points="297.75 248.55 297.75 170.6 267.74 200.61 267.74 278.56 297.75 248.55"/><polygon class="cls-5" points="297.75 248.55 297.75 170.6 267.74 200.61 267.74 278.56 297.75 248.55"/><rect class="cls-4" x="267.74" y="200.61" width="77.95" height="77.95"/><rect class="cls-5" x="267.74" y="200.61" width="77.95" height="77.95"/><polygon class="cls-4" points="375.7 248.55 345.69 278.56 345.69 200.61 375.7 170.6 375.7 248.55"/><polygon class="cls-5" points="375.7 248.55 345.69 278.56 345.69 200.61 375.7 170.6 375.7 248.55"/><polygon class="cls-4" points="297.75 170.6 375.7 170.6 345.69 200.61 267.74 200.61 297.75 170.6"/><polygon class="cls-5" points="297.75 170.6 375.7 170.6 345.69 200.61 267.74 200.61 297.75 170.6"/><rect class="cls-6" x="267.74" y="196.71" width="23.39" height="85.75"/><rect class="cls-2" x="267.74" y="196.71" width="23.39" height="85.75"/><line class="cls-2" x1="275.53" y1="278.27" x2="275.53" y2="200.91"/><line class="cls-2" x1="277.82" y1="278.36" x2="273.24" y2="278.36"/><line class="cls-2" x1="273.24" y1="200.81" x2="277.82" y2="200.81"/><text class="cls-7" transform="translate(280.33 203.25)">1</text><text class="cls-7" transform="translate(280.33 281.2)">0</text><line class="cls-2" x1="275.53" y1="278.27" x2="275.53" y2="239.89"/><line class="cls-2" x1="277.82" y1="278.36" x2="273.24" y2="278.36"/><line class="cls-2" x1="273.24" y1="239.79" x2="277.82" y2="239.79"/><text class="cls-8" transform="translate(280.7 236.91)">1</text><line class="cls-9" x1="280.7" y1="240.09" x2="284.43" y2="240.09"/><text class="cls-8" transform="translate(280.7 247.09)">3</text><line class="cls-2" x1="275.53" y1="278.27" x2="275.53" y2="259.37"/><line class="cls-2" x1="277.82" y1="278.36" x2="273.24" y2="278.36"/><line class="cls-2" x1="273.24" y1="259.28" x2="277.82" y2="259.28"/><text class="cls-8" transform="translate(280.7 256.39)">1</text><line class="cls-9" x1="280.7" y1="259.58" x2="284.43" y2="259.58"/><text class="cls-8" transform="translate(280.7 266.57)">4</text><line class="cls-2" x1="275.53" y1="278.27" x2="275.53" y2="220.4"/><line class="cls-2" x1="277.82" y1="278.36" x2="273.24" y2="278.36"/><line class="cls-2" x1="273.24" y1="220.3" x2="277.82" y2="220.3"/><text class="cls-8" transform="translate(280.7 217.42)">1</text><line class="cls-9" x1="280.7" y1="220.6" x2="284.43" y2="220.6"/><text class="cls-8" transform="translate(280.7 227.6)">2</text><polygon class="cls-1" points="48.46 401.43 173.18 401.43 143.17 431.44 18.45 431.44 48.46 401.43"/><polygon class="cls-2" points="48.46 401.43 173.18 401.43 143.17 431.44 18.45 431.44 48.46 401.43"/><polyline class="cls-3" points="173.18 401.43 173.18 405.32 143.17 435.34 143.17 431.44"/><polyline class="cls-2" points="173.18 401.43 173.18 405.32 143.17 435.34 143.17 431.44"/><polygon class="cls-4" points="71.84 401.43 149.8 401.43 119.79 431.44 41.83 431.44 71.84 401.43"/><polygon class="cls-5" points="71.84 401.43 149.8 401.43 119.79 431.44 41.83 431.44 71.84 401.43"/><rect class="cls-4" x="71.84" y="323.47" width="77.95" height="77.95"/><rect class="cls-5" x="71.84" y="323.47" width="77.95" height="77.95"/><polygon class="cls-4" points="71.84 401.43 71.84 323.47 41.83 353.49 41.83 431.44 71.84 401.43"/><polygon class="cls-5" points="71.84 401.43 71.84 323.47 41.83 353.49 41.83 431.44 71.84 401.43"/><rect class="cls-4" x="41.83" y="353.49" width="77.95" height="77.95"/><rect class="cls-5" x="41.83" y="353.49" width="77.95" height="77.95"/><polygon class="cls-4" points="149.8 401.43 119.79 431.44 119.79 353.49 149.8 323.47 149.8 401.43"/><polygon class="cls-5" points="149.8 401.43 119.79 431.44 119.79 353.49 149.8 323.47 149.8 401.43"/><polygon class="cls-4" points="71.84 323.47 149.8 323.47 119.79 353.49 41.83 353.49 71.84 323.47"/><polygon class="cls-5" points="71.84 323.47 149.8 323.47 119.79 353.49 41.83 353.49 71.84 323.47"/><rect class="cls-6" x="41.83" y="349.59" width="23.39" height="85.75"/><rect class="cls-2" x="41.83" y="349.59" width="23.39" height="85.75"/><line class="cls-2" x1="49.63" y1="431.14" x2="49.63" y2="353.78"/><line class="cls-2" x1="47.34" y1="353.68" x2="51.92" y2="353.68"/><text class="cls-7" transform="translate(54.43 356.12)">1</text><line class="cls-2" x1="49.63" y1="431.14" x2="49.63" y2="392.76"/><line class="cls-2" x1="47.34" y1="392.66" x2="51.92" y2="392.66"/><text class="cls-8" transform="translate(54.79 389.78)">1</text><line class="cls-9" x1="54.79" y1="392.97" x2="58.53" y2="392.97"/><text class="cls-8" transform="translate(54.79 399.96)">2</text></svg>