<svg id="Camada_1" data-name="Camada 1" xmlns="http://www.w3.org/2000/svg" viewBox="0 0 462.73 164.57"><defs><style>.cls-1{fill:#94d4e9;opacity:0.3;}.cls-2,.cls-4{fill:none;stroke-miterlimit:10;stroke-width:0.4px;}.cls-2{stroke:#000;}.cls-3{fill:#e5114c;}.cls-4{stroke:#e5114c;}</style></defs><circle class="cls-1" cx="62.46" cy="34.5" r="28.35" transform="translate(-6.5 16.18) rotate(-14.04)"/><circle class="cls-2" cx="62.46" cy="34.5" r="28.35" transform="translate(-6.5 16.18) rotate(-14.04)"/><path class="cls-3" d="M62.46,34.5l4.93,27.91a28.4,28.4,0,0,0,16.79-9.69L62.46,34.5"/><path class="cls-4" d="M62.46,34.5l4.93,27.91a28.4,28.4,0,0,0,16.79-9.69L62.46,34.5"/><line class="cls-2" x1="62.46" y1="34.5" x2="84.18" y2="16.27"/><line class="cls-2" x1="62.46" y1="34.5" x2="67.39" y2="6.58"/><line class="cls-2" x1="62.46" y1="34.5" x2="48.29" y2="9.95"/><line class="cls-2" x1="62.46" y1="34.5" x2="35.83" y2="24.8"/><line class="cls-2" x1="62.46" y1="34.5" x2="35.83" y2="44.19"/><line class="cls-2" x1="62.46" y1="34.5" x2="48.29" y2="59.04"/><line class="cls-2" x1="62.46" y1="34.5" x2="67.39" y2="62.41"/><line class="cls-2" x1="62.46" y1="34.5" x2="84.18" y2="52.72"/><line class="cls-2" x1="62.46" y1="34.5" x2="90.81" y2="34.5"/><circle class="cls-2" cx="62.46" cy="34.5" r="28.35" transform="translate(-6.5 16.18) rotate(-14.04)"/><path d="M11.29,18.23a1.1,1.1,0,0,1-.4-.08,1,1,0,0,1-.31-.19c-.08-.07-.12-.13-.1-.18l3.3-8.52a.66.66,0,0,1,.32-.36,1.59,1.59,0,0,1,.7-.11,1.59,1.59,0,0,1,.71.11.65.65,0,0,1,.31.36l3.33,8.52s0,.09-.09.17a1.44,1.44,0,0,1-.33.19.93.93,0,0,1-.4.09.9.9,0,0,1-.87-.69l-.82-2.11H12.92l-.81,2.12c-.17.45-.44.68-.82.68Zm5-4-1.5-3.93-1.49,3.93ZM19.49,21c-.44,0-.66-.2-.66-.58a.61.61,0,0,1,.09-.31c.06-.11.1-.17.13-.18A3.16,3.16,0,0,0,20.68,19a4.78,4.78,0,0,0,1-1.79,7.21,7.21,0,0,0,.36-2.33,7.07,7.07,0,0,0-.36-2.28,4.67,4.67,0,0,0-1-1.79,3.18,3.18,0,0,0-1.62-.93.73.73,0,0,1-.13-.2.64.64,0,0,1-.09-.31q0-.57.66-.57a2.5,2.5,0,0,1,1.23.36,4.22,4.22,0,0,1,1.18,1,6.82,6.82,0,0,1,1.18,2.09,7.64,7.64,0,0,1,.45,2.65,7.74,7.74,0,0,1-.44,2.64A6.61,6.61,0,0,1,22,19.62a4.54,4.54,0,0,1-1.21,1,2.54,2.54,0,0,1-1.25.36Z"/><circle class="cls-1" cx="152.82" cy="34.5" r="28.35" transform="translate(-3.73 40.38) rotate(-14.87)"/><circle class="cls-2" cx="152.82" cy="34.5" r="28.35" transform="translate(-3.73 40.38) rotate(-14.87)"/><path class="cls-3" d="M152.82,34.5l-20-20a28.34,28.34,0,0,0-8.3,20.05h28.34"/><path class="cls-4" d="M152.82,34.5l-20-20a28.34,28.34,0,0,0-8.3,20.05h28.34"/><line class="cls-2" x1="152.82" y1="34.5" x2="172.87" y2="14.45"/><line class="cls-2" x1="152.82" y1="34.5" x2="152.82" y2="6.15"/><line class="cls-2" x1="152.82" y1="34.5" x2="132.78" y2="14.45"/><line class="cls-2" x1="152.82" y1="34.5" x2="124.48" y2="34.5"/><line class="cls-2" x1="152.82" y1="34.5" x2="132.78" y2="54.54"/><line class="cls-2" x1="152.82" y1="34.5" x2="152.82" y2="62.84"/><line class="cls-2" x1="152.82" y1="34.5" x2="172.87" y2="54.54"/><line class="cls-2" x1="152.82" y1="34.5" x2="181.17" y2="34.5"/><circle class="cls-2" cx="152.82" cy="34.5" r="28.35" transform="translate(-3.73 40.38) rotate(-14.87)"/><path d="M102.88,18.15a.74.74,0,0,1-.57-.22.89.89,0,0,1-.22-.61V9.7a.89.89,0,0,1,.22-.6.75.75,0,0,1,.57-.23h3.06a3.75,3.75,0,0,1,2.32.62,2.11,2.11,0,0,1,.81,1.79,1.87,1.87,0,0,1-.42,1.25,2.47,2.47,0,0,1-1.22.75,2.68,2.68,0,0,1,1.51.83,2.2,2.2,0,0,1,.5,1.45,2.29,2.29,0,0,1-.86,2,4.49,4.49,0,0,1-2.67.64Zm2.87-5.23a1.94,1.94,0,0,0,1.3-.4,1.31,1.31,0,0,0,.48-1.07c0-.92-.6-1.39-1.81-1.39h-2.16v2.86Zm.06,4a2.87,2.87,0,0,0,1.61-.35,1.35,1.35,0,0,0,.5-1.17c0-1-.69-1.46-2.07-1.46h-2.29v3Zm4.6,4c-.44,0-.66-.2-.66-.58a.61.61,0,0,1,.09-.31c.06-.11.1-.17.13-.18A3.16,3.16,0,0,0,111.6,19a4.78,4.78,0,0,0,1-1.79,7.21,7.21,0,0,0,.36-2.33,7.07,7.07,0,0,0-.36-2.28,4.67,4.67,0,0,0-1-1.79A3.18,3.18,0,0,0,110,9.88a.73.73,0,0,1-.13-.2.64.64,0,0,1-.09-.31q0-.57.66-.57a2.47,2.47,0,0,1,1.23.36,4.22,4.22,0,0,1,1.18,1A6.82,6.82,0,0,1,114,12.25a7.64,7.64,0,0,1,.45,2.65,8,8,0,0,1-.43,2.64,6.83,6.83,0,0,1-1.15,2.08,4.54,4.54,0,0,1-1.21,1,2.54,2.54,0,0,1-1.25.36Z"/><circle class="cls-3" cx="243.19" cy="34.5" r="28.35" transform="translate(-2.14 46.61) rotate(-10.9)"/><circle class="cls-2" cx="243.19" cy="34.5" r="28.35" transform="translate(-2.14 46.61) rotate(-10.9)"/><path d="M192.1,13.54a5.21,5.21,0,0,1,.6-2.52,4.39,4.39,0,0,1,1.67-1.72,4.82,4.82,0,0,1,2.45-.61,4.5,4.5,0,0,1,2.62.74,2.45,2.45,0,0,1,.65.63,1.11,1.11,0,0,1,.23.59.65.65,0,0,1-.2.5,1.08,1.08,0,0,1-.42.27q-.22.08-.24,0a2.7,2.7,0,0,0-1.11-1.06,3.33,3.33,0,0,0-3.18.07A3,3,0,0,0,194,11.69a4,4,0,0,0-.41,1.82,3.79,3.79,0,0,0,.42,1.8,3,3,0,0,0,1.15,1.25,3.13,3.13,0,0,0,1.66.45,3.18,3.18,0,0,0,1.67-.44,2.36,2.36,0,0,0,1-1.18s.1,0,.27,0a1.29,1.29,0,0,1,.45.26.67.67,0,0,1,.2.5,1.24,1.24,0,0,1-.24.65,2.34,2.34,0,0,1-.68.69,4.53,4.53,0,0,1-2.77.83,4.73,4.73,0,0,1-2.42-.61A4.21,4.21,0,0,1,192.69,16a5.08,5.08,0,0,1-.59-2.48ZM201.62,21c-.44,0-.66-.2-.66-.58a.61.61,0,0,1,.09-.31c.06-.11.1-.17.13-.18a3.16,3.16,0,0,0,1.63-.93,4.78,4.78,0,0,0,1-1.79,7.49,7.49,0,0,0,.35-2.33,7.36,7.36,0,0,0-.35-2.28,4.67,4.67,0,0,0-1-1.79,3.18,3.18,0,0,0-1.62-.93.73.73,0,0,1-.13-.2.64.64,0,0,1-.09-.31q0-.57.66-.57a2.53,2.53,0,0,1,1.23.36,4.37,4.37,0,0,1,1.18,1,6.82,6.82,0,0,1,1.18,2.09,7.88,7.88,0,0,1,.44,2.65,7.74,7.74,0,0,1-.43,2.64,6.81,6.81,0,0,1-1.14,2.08,4.54,4.54,0,0,1-1.21,1,2.57,2.57,0,0,1-1.25.36Z"/><circle class="cls-1" cx="333.55" cy="34.5" r="28.35" transform="translate(-0.51 63.7) rotate(-10.9)"/><circle class="cls-2" cx="333.55" cy="34.5" r="28.35" transform="translate(-0.51 63.7) rotate(-10.9)"/><path class="cls-3" d="M333.55,34.5V6.15A28.34,28.34,0,0,0,309,20.32L333.55,34.5"/><path class="cls-4" d="M333.55,34.5V6.15A28.34,28.34,0,0,0,309,20.32L333.55,34.5"/><line class="cls-2" x1="333.55" y1="34.5" x2="333.55" y2="6.15"/><line class="cls-2" x1="333.55" y1="34.5" x2="309" y2="20.32"/><line class="cls-2" x1="333.55" y1="34.5" x2="309" y2="48.67"/><line class="cls-2" x1="333.55" y1="34.5" x2="333.55" y2="62.84"/><line class="cls-2" x1="333.55" y1="34.5" x2="358.1" y2="48.67"/><line class="cls-2" x1="333.55" y1="34.5" x2="358.1" y2="20.32"/><circle class="cls-2" cx="333.55" cy="34.5" r="28.35" transform="translate(-0.51 63.7) rotate(-10.9)"/><path d="M282.82,9.7a.84.84,0,0,1,.22-.6.77.77,0,0,1,.56-.23h2.27a6.25,6.25,0,0,1,2.7.55A4,4,0,0,1,290.3,11a4.76,4.76,0,0,1,.61,2.47A4.94,4.94,0,0,1,290.3,16a4.09,4.09,0,0,1-1.77,1.62,6.24,6.24,0,0,1-2.73.55h-2.17a.78.78,0,0,1-.58-.24.77.77,0,0,1-.23-.57Zm3,7.18a3.77,3.77,0,0,0,2.65-.88,3.27,3.27,0,0,0,.93-2.49,3.21,3.21,0,0,0-.94-2.47,3.71,3.71,0,0,0-2.63-.89h-1.56v6.73Zm6,4.12c-.44,0-.66-.2-.66-.58a.71.71,0,0,1,.08-.31c.06-.11.1-.17.13-.18A3.13,3.13,0,0,0,293,19a4.78,4.78,0,0,0,1-1.79,7.21,7.21,0,0,0,.36-2.33A7.07,7.07,0,0,0,294,12.6a4.67,4.67,0,0,0-1-1.79,3.18,3.18,0,0,0-1.62-.93.73.73,0,0,1-.13-.2.75.75,0,0,1-.08-.31q0-.57.66-.57a2.47,2.47,0,0,1,1.22.36,4.4,4.4,0,0,1,1.19,1,6.8,6.8,0,0,1,1.17,2.09,7.64,7.64,0,0,1,.45,2.65,8,8,0,0,1-.43,2.64,6.83,6.83,0,0,1-1.15,2.08,4.39,4.39,0,0,1-1.21,1,2.54,2.54,0,0,1-1.24.36Z"/><circle class="cls-1" cx="423.91" cy="34.5" r="28.35" transform="translate(1.13 80.79) rotate(-10.9)"/><circle class="cls-2" cx="423.91" cy="34.5" r="28.35" transform="translate(1.13 80.79) rotate(-10.9)"/><path class="cls-3" d="M423.91,34.5V6.15a28.34,28.34,0,0,0-24.55,42.52L423.91,34.5"/><path class="cls-4" d="M423.91,34.5V6.15a28.34,28.34,0,0,0-24.55,42.52L423.91,34.5"/><line class="cls-2" x1="423.91" y1="34.5" x2="399.36" y2="48.67"/><line class="cls-2" x1="423.91" y1="34.5" x2="448.46" y2="48.67"/><line class="cls-2" x1="423.91" y1="34.5" x2="423.91" y2="6.15"/><circle class="cls-2" cx="423.91" cy="34.5" r="28.35" transform="translate(1.13 80.79) rotate(-10.9)"/><path d="M374,18.15a.78.78,0,0,1-.58-.22.82.82,0,0,1-.21-.59V9.7a.88.88,0,0,1,.21-.6.78.78,0,0,1,.58-.23h5.38a.74.74,0,0,1,.51.16.58.58,0,0,1,.17.46v.09c0,.41-.23.61-.68.61h-4.7v2.6h3.63c.46,0,.69.2.69.59v0c0,.41-.23.62-.69.62h-3.63v2.81h4.78c.45,0,.68.2.68.59v.07c0,.43-.23.64-.68.64ZM381.34,21c-.44,0-.66-.2-.66-.58a.61.61,0,0,1,.09-.31c.05-.11.1-.17.13-.18a3.1,3.1,0,0,0,1.62-.93,4.65,4.65,0,0,0,1-1.79,7.21,7.21,0,0,0,.36-2.33,7.07,7.07,0,0,0-.36-2.28,4.65,4.65,0,0,0-1-1.79,3.18,3.18,0,0,0-1.62-.93.55.55,0,0,1-.13-.2.64.64,0,0,1-.09-.31q0-.57.66-.57a2.53,2.53,0,0,1,1.23.36,4.37,4.37,0,0,1,1.18,1,6.82,6.82,0,0,1,1.18,2.09,7.88,7.88,0,0,1,.44,2.65,7.74,7.74,0,0,1-.43,2.64,6.83,6.83,0,0,1-1.15,2.08,4.35,4.35,0,0,1-1.2,1,2.57,2.57,0,0,1-1.25.36Z"/><circle class="cls-1" cx="62.46" cy="130.08" r="28.35" transform="translate(-29.68 19.03) rotate(-14.04)"/><circle class="cls-2" cx="62.46" cy="130.08" r="28.35" transform="translate(-29.68 19.03) rotate(-14.04)"/><path class="cls-3" d="M62.46,130.08,34.55,135a28.41,28.41,0,0,0,8.22,15.47l19.69-20.39"/><path class="cls-4" d="M62.46,130.08,34.55,135a28.41,28.41,0,0,0,8.22,15.47l19.69-20.39"/><line class="cls-2" x1="62.46" y1="130.08" x2="82.15" y2="109.68"/><line class="cls-2" x1="62.46" y1="130.08" x2="66.41" y2="102.01"/><line class="cls-2" x1="62.46" y1="130.08" x2="49.15" y2="105.05"/><line class="cls-2" x1="62.46" y1="130.08" x2="36.99" y2="117.65"/><line class="cls-2" x1="62.46" y1="130.08" x2="34.55" y2="135"/><line class="cls-2" x1="62.46" y1="130.08" x2="42.77" y2="150.47"/><line class="cls-2" x1="62.46" y1="130.08" x2="58.52" y2="158.15"/><line class="cls-2" x1="62.46" y1="130.08" x2="75.77" y2="155.1"/><line class="cls-2" x1="62.46" y1="130.08" x2="87.94" y2="142.5"/><line class="cls-2" x1="62.46" y1="130.08" x2="90.38" y2="125.15"/><circle class="cls-2" cx="62.46" cy="130.08" r="28.35" transform="translate(-29.68 19.03) rotate(-14.04)"/><path d="M11.73,105.28a.84.84,0,0,1,.22-.6.75.75,0,0,1,.57-.23h5c.46,0,.69.2.69.61v.08c0,.41-.23.62-.69.62H13.2v2.95h3.21c.46,0,.69.2.69.59v.06q0,.6-.69.6H13.22v3.16c0,.45-.21.67-.64.67h-.23a.54.54,0,0,1-.46-.2.92.92,0,0,1-.16-.57Zm7.63,11.3c-.44,0-.66-.2-.66-.58a.61.61,0,0,1,.09-.31c.06-.11.1-.17.13-.18a3.16,3.16,0,0,0,1.63-.93,4.78,4.78,0,0,0,1-1.79,7.21,7.21,0,0,0,.36-2.33,7.07,7.07,0,0,0-.36-2.28,4.67,4.67,0,0,0-1.05-1.79,3.18,3.18,0,0,0-1.62-.93.73.73,0,0,1-.13-.2.64.64,0,0,1-.09-.31q0-.57.66-.57a2.47,2.47,0,0,1,1.23.36,4.4,4.4,0,0,1,1.19,1A7,7,0,0,1,23,107.83a7.64,7.64,0,0,1,.45,2.65,8,8,0,0,1-.43,2.64,6.83,6.83,0,0,1-1.15,2.08,4.39,4.39,0,0,1-1.21,1,2.54,2.54,0,0,1-1.25.36Z"/><circle class="cls-1" cx="152.82" cy="130.08" r="28.35" transform="translate(-28.27 43.58) rotate(-14.87)"/><circle class="cls-2" cx="152.82" cy="130.08" r="28.35" transform="translate(-28.27 43.58) rotate(-14.87)"/><path class="cls-3" d="M152.82,130.08l27-8.76a28.35,28.35,0,0,0-27-19.59v28.35"/><path class="cls-4" d="M152.82,130.08l27-8.76a28.35,28.35,0,0,0-27-19.59v28.35"/><line class="cls-2" x1="152.82" y1="130.08" x2="125.86" y2="121.32"/><line class="cls-2" x1="152.82" y1="130.08" x2="136.16" y2="153.01"/><line class="cls-2" x1="152.82" y1="130.08" x2="169.49" y2="153.01"/><line class="cls-2" x1="152.82" y1="130.08" x2="179.78" y2="121.32"/><line class="cls-2" x1="152.82" y1="130.08" x2="152.82" y2="101.73"/><circle class="cls-2" cx="152.82" cy="130.08" r="28.35" transform="translate(-28.27 43.58) rotate(-14.87)"/><path d="M109.71,108.84a.78.78,0,0,1,.59.22.93.93,0,0,1,.2.63v4s0,.06-.15.09a.9.9,0,0,1-.34.05.71.71,0,0,1-.59-.26,1.51,1.51,0,0,1-.21-.93v-.17a3,3,0,0,1-1.23,1.09,4.18,4.18,0,0,1-1.86.39,4.29,4.29,0,0,1-2.31-.62,4.05,4.05,0,0,1-1.54-1.71,5.46,5.46,0,0,1-.54-2.46,5.22,5.22,0,0,1,.61-2.52,4.34,4.34,0,0,1,1.68-1.72,5,5,0,0,1,2.48-.61,5.56,5.56,0,0,1,1.46.18,4.06,4.06,0,0,1,1.13.5,2.76,2.76,0,0,1,.68.62,1.08,1.08,0,0,1,.24.62.64.64,0,0,1-.17.48.9.9,0,0,1-.39.25q-.21.08-.24,0a2.76,2.76,0,0,0-1.15-1,3.32,3.32,0,0,0-1.53-.37,3.08,3.08,0,0,0-2.86,1.72,4.05,4.05,0,0,0-.41,1.87,4.24,4.24,0,0,0,.38,1.86,3,3,0,0,0,1.09,1.27,3.11,3.11,0,0,0,1.68.46,3,3,0,0,0,1.88-.58,2.25,2.25,0,0,0,.91-1.5v-.59H107a1,1,0,0,1-.56-.13.5.5,0,0,1-.18-.43v-.07a.52.52,0,0,1,.18-.44.94.94,0,0,1,.56-.14Zm2.11,7.74c-.44,0-.66-.2-.66-.58a.61.61,0,0,1,.09-.31c0-.11.1-.17.13-.18a3.1,3.1,0,0,0,1.62-.93,4.65,4.65,0,0,0,1-1.79,7.21,7.21,0,0,0,.36-2.33,7.07,7.07,0,0,0-.36-2.28,4.65,4.65,0,0,0-1-1.79,3.18,3.18,0,0,0-1.62-.93.55.55,0,0,1-.13-.2.64.64,0,0,1-.09-.31q0-.57.66-.57a2.53,2.53,0,0,1,1.23.36,4.37,4.37,0,0,1,1.18,1,6.82,6.82,0,0,1,1.18,2.09,7.88,7.88,0,0,1,.44,2.65,7.74,7.74,0,0,1-.43,2.64,6.83,6.83,0,0,1-1.15,2.08,4.35,4.35,0,0,1-1.2,1,2.57,2.57,0,0,1-1.25.36Z"/><path class="cls-3" d="M243.19,130.08V101.73a28.35,28.35,0,0,1,0,56.69V130.08"/><path class="cls-4" d="M243.19,130.08V101.73a28.35,28.35,0,0,1,0,56.69V130.08"/><path class="cls-2" d="M243.19,130.08V101.73a28.35,28.35,0,0,1,0,56.69Z"/><path class="cls-1" d="M243.19,130.08V101.73a28.35,28.35,0,1,0,0,56.69Z"/><path class="cls-2" d="M243.19,130.08V101.73a28.35,28.35,0,1,0,0,56.69Z"/><circle class="cls-2" cx="243.19" cy="130.08" r="28.35" transform="translate(-20.21 48.34) rotate(-10.9)"/><path d="M193.07,113.79c-.41,0-.62-.22-.62-.67v-8.05c0-.45.21-.67.62-.67h.22c.43,0,.64.22.64.67v3.37h4.89v-3.37c0-.45.21-.67.62-.67h.22c.43,0,.64.22.64.67v8.05c0,.45-.21.67-.64.67h-.22c-.41,0-.62-.22-.62-.67v-3.39h-4.89v3.39c0,.45-.21.67-.64.67Zm9,2.79c-.44,0-.66-.2-.66-.58a.61.61,0,0,1,.09-.31c.06-.11.1-.17.13-.18a3.16,3.16,0,0,0,1.63-.93,4.78,4.78,0,0,0,1-1.79,7.21,7.21,0,0,0,.36-2.33,7.07,7.07,0,0,0-.36-2.28,4.67,4.67,0,0,0-1.05-1.79,3.18,3.18,0,0,0-1.62-.93.73.73,0,0,1-.13-.2.64.64,0,0,1-.09-.31q0-.57.66-.57a2.5,2.5,0,0,1,1.23.36,4.22,4.22,0,0,1,1.18,1,6.82,6.82,0,0,1,1.18,2.09,7.64,7.64,0,0,1,.44,2.65,7.74,7.74,0,0,1-.43,2.64,6.81,6.81,0,0,1-1.14,2.08,4.54,4.54,0,0,1-1.21,1,2.54,2.54,0,0,1-1.25.36Z"/><circle class="cls-1" cx="333.55" cy="130.08" r="28.35" transform="translate(-18.58 65.42) rotate(-10.9)"/><circle class="cls-2" cx="333.55" cy="130.08" r="28.35" transform="translate(-18.58 65.42) rotate(-10.9)"/><path class="cls-3" d="M333.55,130.08l17.67,22.16a28.37,28.37,0,0,1-24,5.47l6.31-27.63"/><path class="cls-4" d="M333.55,130.08l17.67,22.16a28.37,28.37,0,0,1-24,5.47l6.31-27.63"/><line class="cls-2" x1="333.55" y1="130.08" x2="351.22" y2="107.91"/><line class="cls-2" x1="333.55" y1="130.08" x2="327.24" y2="102.44"/><line class="cls-2" x1="333.55" y1="130.08" x2="308.01" y2="117.78"/><line class="cls-2" x1="333.55" y1="130.08" x2="308.01" y2="142.37"/><line class="cls-2" x1="333.55" y1="130.08" x2="327.24" y2="157.71"/><line class="cls-2" x1="333.55" y1="130.08" x2="351.22" y2="152.24"/><line class="cls-2" x1="333.55" y1="130.08" x2="361.89" y2="130.08"/><circle class="cls-2" cx="333.55" cy="130.08" r="28.35" transform="translate(-18.58 65.42) rotate(-10.9)"/><path d="M282.94,105.07c0-.45.22-.67.64-.67h.2c.43,0,.64.22.64.67v8.05c0,.45-.21.67-.64.67h-.2c-.42,0-.64-.22-.64-.67Zm3.33,11.51c-.44,0-.66-.2-.66-.58a.61.61,0,0,1,.09-.31c.06-.11.1-.17.13-.18a3.16,3.16,0,0,0,1.63-.93,4.78,4.78,0,0,0,1-1.79,7.21,7.21,0,0,0,.36-2.33,7.07,7.07,0,0,0-.36-2.28,4.67,4.67,0,0,0-1.05-1.79,3.18,3.18,0,0,0-1.62-.93.73.73,0,0,1-.13-.2.64.64,0,0,1-.09-.31q0-.57.66-.57a2.5,2.5,0,0,1,1.23.36,4.22,4.22,0,0,1,1.18,1,6.82,6.82,0,0,1,1.18,2.09,7.64,7.64,0,0,1,.44,2.65,7.74,7.74,0,0,1-.43,2.64,6.81,6.81,0,0,1-1.14,2.08,4.54,4.54,0,0,1-1.21,1,2.57,2.57,0,0,1-1.25.36Z"/><circle class="cls-1" cx="423.91" cy="130.08" r="28.35" transform="translate(-16.95 82.51) rotate(-10.9)"/><circle class="cls-2" cx="423.91" cy="130.08" r="28.35" transform="translate(-16.95 82.51) rotate(-10.9)"/><path class="cls-3" d="M423.91,130.08h28.34a28.34,28.34,0,0,1-28.34,28.34V130.08"/><path class="cls-4" d="M423.91,130.08h28.34a28.34,28.34,0,0,1-28.34,28.34V130.08"/><line class="cls-2" x1="423.91" y1="130.08" x2="423.91" y2="101.73"/><line class="cls-2" x1="423.91" y1="130.08" x2="395.56" y2="130.08"/><line class="cls-2" x1="423.91" y1="130.08" x2="423.91" y2="158.42"/><line class="cls-2" x1="423.91" y1="130.08" x2="452.25" y2="130.08"/><circle class="cls-2" cx="423.91" cy="130.08" r="28.35" transform="translate(-16.95 82.51) rotate(-10.9)"/><path d="M372.19,112.43a.72.72,0,0,1,.15-.45,1.28,1.28,0,0,1,.33-.29c.12-.07.18-.09.19-.06a2,2,0,0,0,.69.74,1.84,1.84,0,0,0,1,.27,1.45,1.45,0,0,0,1.22-.47,2.57,2.57,0,0,0,.37-1.58v-5.52c0-.45.21-.67.63-.67H377c.42,0,.63.22.63.67v5.54a3.62,3.62,0,0,1-.73,2.5,2.86,2.86,0,0,1-2.23.81,3.38,3.38,0,0,1-1.27-.22,2.32,2.32,0,0,1-.88-.57,1,1,0,0,1-.31-.7Zm7.06,4.15c-.44,0-.66-.2-.66-.58a.6.6,0,0,1,.08-.31c.06-.11.1-.17.13-.18a3.16,3.16,0,0,0,1.63-.93,4.78,4.78,0,0,0,1-1.79,7.21,7.21,0,0,0,.36-2.33,7.07,7.07,0,0,0-.36-2.28,4.67,4.67,0,0,0-1.05-1.79,3.18,3.18,0,0,0-1.62-.93.73.73,0,0,1-.13-.2.62.62,0,0,1-.08-.31q0-.57.66-.57a2.47,2.47,0,0,1,1.22.36,4.4,4.4,0,0,1,1.19,1,6.8,6.8,0,0,1,1.17,2.09,7.64,7.64,0,0,1,.45,2.65,8,8,0,0,1-.43,2.64,6.83,6.83,0,0,1-1.15,2.08,4.39,4.39,0,0,1-1.21,1,2.54,2.54,0,0,1-1.24.36Z"/></svg>