<?xml version="1.0" encoding="utf-8"?>
<!-- Generator: Adobe Illustrator 16.0.0, SVG Export Plug-In . SVG Version: 6.00 Build 0)  -->
<!DOCTYPE svg PUBLIC "-//W3C//DTD SVG 1.1//EN" "http://www.w3.org/Graphics/SVG/1.1/DTD/svg11.dtd">
<svg version="1.1" id="Layer_1" xmlns="http://www.w3.org/2000/svg" xmlns:xlink="http://www.w3.org/1999/xlink" x="0px" y="0px"
	 width="141.732px" height="141.732px" viewBox="0 0 141.732 141.732" enable-background="new 0 0 141.732 141.732"
	 xml:space="preserve">
<path fill="#A87D50" stroke="#231F20" stroke-linecap="round" stroke-linejoin="round" stroke-miterlimit="10" d="M129.874,31.927"
	/>
<path fill="#A87D50" stroke="#231F20" stroke-linecap="round" stroke-linejoin="round" stroke-miterlimit="10" d="M104.574,7.728"/>
<ellipse fill="#F6C434" stroke="#000000" stroke-width="1.5" stroke-miterlimit="10" cx="70.06" cy="71.515" rx="48.336" ry="48.351"/>
<g>
	<path fill="#F9BF76" d="M70.02,129.667c-32.079,0-58.179-26.099-58.179-58.176c0-32.079,26.1-58.177,58.179-58.177
		c32.076,0,58.177,26.098,58.177,58.177C128.196,103.568,102.096,129.667,70.02,129.667z M70.02,23.115
		c-26.677,0-48.376,21.7-48.376,48.376c0,26.674,21.699,48.375,48.376,48.375c26.675,0,48.376-21.701,48.376-48.375
		C118.396,44.815,96.694,23.115,70.02,23.115z"/>
</g>
<g>
	<circle fill="#D1323E" cx="68.948" cy="38.817" r="3.521"/>
	<circle fill="#D1323E" cx="48.562" cy="46.078" r="4.626"/>
	<circle fill="#D1323E" cx="59.76" cy="58.817" r="4.626"/>
	<circle fill="#D1323E" cx="95.831" cy="87.615" r="4.625"/>
	<circle fill="#D1323E" cx="35.545" cy="67.893" r="5.728"/>
	<circle fill="#D1323E" cx="84.251" cy="97.439" r="3.32"/>
	<circle fill="#D1323E" cx="99.629" cy="71.728" r="2.968"/>
	<circle fill="#D1323E" cx="54.664" cy="79.852" r="3.507"/>
	<circle fill="#D1323E" cx="79.619" cy="61.971" r="4.775"/>
	<circle fill="#D1323E" cx="87.572" cy="43.591" r="4.774"/>
	<circle fill="#D1323E" cx="99.071" cy="58" r="4.081"/>
	<circle fill="#D1323E" cx="42.841" cy="89.692" r="4.426"/>
	<circle fill="#D1323E" cx="64.795" cy="104.329" r="6.305"/>
	<circle fill="#D1323E" cx="75.09" cy="82.192" r="6.305"/>
</g>
<rect x="67.911" y="10.911" fill="#FFFFFF" width="4" height="122"/>
<rect x="7.911" y="68.911" fill="#FFFFFF" width="122" height="4"/>
<g>
	
		<rect x="68.706" y="10.908" transform="matrix(0.707 -0.7072 0.7072 0.707 -30.1372 71.0752)" fill="#FFFFFF" width="4" height="121.998"/>
	
		<rect x="8.999" y="69.203" transform="matrix(0.7071 -0.7071 0.7071 0.7071 -29.846 70.3511)" fill="#FFFFFF" width="121.998" height="4"/>
</g>
<path fill="none" stroke="#231F20" stroke-linecap="round" stroke-linejoin="round" stroke-miterlimit="10" d="M75.09,13.534
	c0,0,47.586,6.329,53.106,52.107c3.433,28.459-13.188,49.198-32.365,57.975c-36.07,16.503-63.938-5.358-70.401-14.808"/>
<path fill="#F6C434" d="M95.319,52.298"/>
<polygon opacity="0.8" fill="#FFFFFF" enable-background="new    " points="70.02,2.837 70.705,70.911 115.253,116.458 
	134.865,83.359 131.309,54.192 117.355,31.927 102.596,18.43 85.618,10.911 "/>
</svg>
