<svg id="Camada_1" data-name="Camada 1" xmlns="http://www.w3.org/2000/svg" viewBox="0 0 407.89 378.87"><defs><style>.cls-1,.cls-3{fill:none;stroke:#000;stroke-miterlimit:10;}.cls-1{stroke-width:0.38px;}.cls-2{font-size:13.63px;font-family:CMR12;}.cls-3{stroke-width:0.55px;}</style></defs><line class="cls-1" x1="12.27" x2="398.47"/><line class="cls-1" x1="12.46" y1="33.31" x2="12.46" y2="0.19"/><path d="M32.3,3.56a.61.61,0,0,1,.15-.43A.53.53,0,0,1,32.86,3h4.78c.32,0,.48.14.48.41v.09q0,.42-.48.42H33.32V7.14h3.19c.32,0,.48.13.48.4v.07a.39.39,0,0,1-.12.32.6.6,0,0,1-.36.09H33.33v3.34a.45.45,0,0,1-.11.34.45.45,0,0,1-.33.12h-.15c-.3,0-.44-.17-.44-.51Zm9.62,1.57a1.14,1.14,0,0,1,.7.2.6.6,0,0,1,.27.51.67.67,0,0,1-.06.3.45.45,0,0,1-.15.18s-.08.06-.09,0a1.06,1.06,0,0,0-.78-.27,1.25,1.25,0,0,0-1.16.71,4.12,4.12,0,0,0-.39,2v2.58c0,.31-.14.46-.42.46h-.11a.4.4,0,0,1-.45-.46v-6s0,0,.11-.07a.61.61,0,0,1,.24,0c.34,0,.53.22.57.65s0,.55,0,.71a2.12,2.12,0,0,1,.63-1.09,1.56,1.56,0,0,1,1.06-.37Zm1.51,5a1.68,1.68,0,0,1,1.07-1.6A8.49,8.49,0,0,1,47.89,8H48V7.69a1.68,1.68,0,0,0-.46-1.27A1.75,1.75,0,0,0,46.28,6a2.25,2.25,0,0,0-1.23.31,2.09,2.09,0,0,0-.76.85.6.6,0,0,1-.18,0A.58.58,0,0,1,43.82,7a.42.42,0,0,1-.13-.33.82.82,0,0,1,.11-.35,1.21,1.21,0,0,1,.29-.37A2.66,2.66,0,0,1,45,5.35a3.67,3.67,0,0,1,1.33-.22,2.71,2.71,0,0,1,2,.68,2.53,2.53,0,0,1,.7,1.9v4s0,0-.12.07a.93.93,0,0,1-.24,0q-.49,0-.57-.63,0-.37,0-.6a2.31,2.31,0,0,1-1,1,2.91,2.91,0,0,1-1.45.36A2.42,2.42,0,0,1,44,11.43a1.62,1.62,0,0,1-.6-1.32ZM48,8.61h-.23a7.87,7.87,0,0,0-2.6.38,1.13,1.13,0,0,0-.79,1.08.94.94,0,0,0,.38.8,1.62,1.62,0,0,0,1,.3A2.34,2.34,0,0,0,47,10.92a2,2,0,0,0,.8-.7,1.77,1.77,0,0,0,.29-1Zm5.15,6.17a1.67,1.67,0,0,1-.69-.14,1.36,1.36,0,0,1-.47-.36.67.67,0,0,1-.16-.41c0-.26.11-.4.34-.42a1.12,1.12,0,0,0,.89.53.91.91,0,0,0,.58-.18.66.66,0,0,0,.22-.56,1.24,1.24,0,0,0-.39-.82,2.57,2.57,0,0,0-.86-.61,2.92,2.92,0,0,1-1.72-1.17,3.51,3.51,0,0,1-.64-2.13,3.61,3.61,0,0,1,.42-1.74,3.07,3.07,0,0,1,1.17-1.2,3.57,3.57,0,0,1,2.95-.22,2.94,2.94,0,0,1,.91.57,2.23,2.23,0,0,1,.4.51,1.08,1.08,0,0,1,.13.47.39.39,0,0,1-.13.31.73.73,0,0,1-.3.16c-.11,0-.18,0-.19,0A2,2,0,0,0,53.59,6a2.29,2.29,0,0,0-1.2.32,2.22,2.22,0,0,0-.83.91,2.8,2.8,0,0,0-.3,1.3,2.89,2.89,0,0,0,.29,1.33,2.23,2.23,0,0,0,.82.92,2.28,2.28,0,0,0,1.22.33,2.12,2.12,0,0,0,1.31-.38,2.4,2.4,0,0,0,.75-1s.07,0,.18,0a.66.66,0,0,1,.31.16.41.41,0,0,1,.13.32,1,1,0,0,1-.13.44,1.84,1.84,0,0,1-.37.5,2.81,2.81,0,0,1-1.51.77,2.92,2.92,0,0,1-.51,0,2.45,2.45,0,0,1,.68.68,1.59,1.59,0,0,1,.28.89,1.1,1.1,0,0,1-.45,1,1.77,1.77,0,0,1-1.07.33Zm4-4.67a1.68,1.68,0,0,1,1.07-1.6A8.49,8.49,0,0,1,61.6,8h.15V7.69a1.68,1.68,0,0,0-.46-1.27A1.75,1.75,0,0,0,60,6a2.25,2.25,0,0,0-1.23.31,2.09,2.09,0,0,0-.76.85.64.64,0,0,1-.18,0A.58.58,0,0,1,57.53,7a.42.42,0,0,1-.13-.33.82.82,0,0,1,.11-.35,1.21,1.21,0,0,1,.29-.37,2.71,2.71,0,0,1,.93-.56,3.58,3.58,0,0,1,1.32-.22,2.71,2.71,0,0,1,2,.68,2.53,2.53,0,0,1,.7,1.9v4s0,0-.12.07a.86.86,0,0,1-.24,0q-.49,0-.57-.63,0-.37,0-.6a2.31,2.31,0,0,1-1,1,2.91,2.91,0,0,1-1.45.36,2.42,2.42,0,0,1-1.61-.49,1.62,1.62,0,0,1-.6-1.32Zm4.61-1.5h-.23a7.87,7.87,0,0,0-2.6.38,1.13,1.13,0,0,0-.79,1.08.94.94,0,0,0,.38.8,1.62,1.62,0,0,0,1,.3,2.34,2.34,0,0,0,1.12-.26,2,2,0,0,0,.8-.7,1.77,1.77,0,0,0,.29-1ZM58.51,4.07A.51.51,0,0,1,58.19,4a1.14,1.14,0,0,1,0-.34,1.58,1.58,0,0,1,.34-.86.88.88,0,0,1,.71-.33,1.06,1.06,0,0,1,.5.12,3.08,3.08,0,0,1,.48.34,5,5,0,0,0,.74.58.46.46,0,0,0,.2-.19,2,2,0,0,0,.17-.33,1.5,1.5,0,0,1,.17-.34.27.27,0,0,1,.21-.1.41.41,0,0,1,.3.11A1,1,0,0,1,62,3a1.44,1.44,0,0,1-.33.83.9.9,0,0,1-.72.33A1,1,0,0,1,60.48,4,3.51,3.51,0,0,1,60,3.69l-.32-.29a2.61,2.61,0,0,0-.4-.29.52.52,0,0,0-.18.18,1.62,1.62,0,0,0-.17.33,3.84,3.84,0,0,1-.19.34.28.28,0,0,1-.22.11ZM64,8.53a3.63,3.63,0,0,1,.42-1.76,3.07,3.07,0,0,1,1.17-1.2,3.39,3.39,0,0,1,1.72-.44,3.31,3.31,0,0,1,1.7.44,3.1,3.1,0,0,1,1.16,1.22,3.56,3.56,0,0,1,.43,1.76,3.45,3.45,0,0,1-.43,1.74A3.09,3.09,0,0,1,69,11.5a3.6,3.6,0,0,1-3.41,0,2.93,2.93,0,0,1-1.17-1.22A3.59,3.59,0,0,1,64,8.53Zm5.64,0a2.92,2.92,0,0,0-.3-1.33,2.24,2.24,0,0,0-.83-.92A2.13,2.13,0,0,0,67.31,6a2.23,2.23,0,0,0-1.2.33,2.33,2.33,0,0,0-.85.91,3,3,0,0,0,0,2.65,2.43,2.43,0,0,0,.85.92,2.23,2.23,0,0,0,1.2.33,2.24,2.24,0,0,0,2-1.23,2.85,2.85,0,0,0,.3-1.32Zm7.21,3.38a2.82,2.82,0,0,1-1.54-.43,2.91,2.91,0,0,1-1.07-1.2,3.85,3.85,0,0,1-.39-1.77,3.85,3.85,0,0,1,.39-1.77,3,3,0,0,1,1.08-1.2,3,3,0,0,1,1.56-.43,2.79,2.79,0,0,1,1.43.36,2.25,2.25,0,0,1,.91.9V2.6s0-.06.11-.08a.75.75,0,0,1,.23,0c.43,0,.64.29.64.87v8c0,.31-.14.46-.43.46h-.1a.37.37,0,0,1-.42-.43c0-.18,0-.47,0-.85a2.78,2.78,0,0,1-1,1,2.63,2.63,0,0,1-1.43.37Zm2.37-4.41a2.4,2.4,0,0,0-.82-1.15A2.24,2.24,0,0,0,77,6a2,2,0,0,0-1.59.71,2.73,2.73,0,0,0-.62,1.86,3.13,3.13,0,0,0,.28,1.33,2.14,2.14,0,0,0,.79.91A2,2,0,0,0,77,11.1a2.17,2.17,0,0,0,1.1-.28,2.09,2.09,0,0,0,.8-.76A2,2,0,0,0,79.22,9Zm2.32,2.59a1.68,1.68,0,0,1,1.07-1.6A8.42,8.42,0,0,1,86,8h.15V7.69a1.72,1.72,0,0,0-.46-1.27A1.77,1.77,0,0,0,84.39,6a2.25,2.25,0,0,0-1.23.31,2,2,0,0,0-.76.85.69.69,0,0,1-.19,0A.59.59,0,0,1,81.93,7a.39.39,0,0,1-.13-.33.78.78,0,0,1,.1-.35,1.62,1.62,0,0,1,.29-.37,2.81,2.81,0,0,1,.93-.56,3.58,3.58,0,0,1,1.32-.22,2.72,2.72,0,0,1,2,.68,2.56,2.56,0,0,1,.69,1.9v4s0,0-.11.07a1,1,0,0,1-.24,0q-.51,0-.57-.63,0-.37,0-.6a2.34,2.34,0,0,1-1,1,2.88,2.88,0,0,1-1.44.36,2.47,2.47,0,0,1-1.62-.49,1.65,1.65,0,0,1-.59-1.32Zm4.61-1.5h-.23a7.87,7.87,0,0,0-2.6.38,1.14,1.14,0,0,0-.8,1.08,1,1,0,0,0,.38.8,1.65,1.65,0,0,0,1,.3,2.34,2.34,0,0,0,1.12-.26,2,2,0,0,0,.79-.7,1.7,1.7,0,0,0,.3-1Zm5.57-2.5h-.91A.47.47,0,0,1,90.48,6a.42.42,0,0,1-.09-.29V5.65a.38.38,0,0,1,.09-.28.47.47,0,0,1,.33-.09h.91V4.63a2.51,2.51,0,0,1,.49-1.69,1.77,1.77,0,0,1,1.41-.57,1.61,1.61,0,0,1,1.1.32.59.59,0,0,1,.22.47.41.41,0,0,1-.06.23.5.5,0,0,1-.11.16s-.07.05-.08,0a1.23,1.23,0,0,0-.42-.28,1.55,1.55,0,0,0-.56-.11.91.91,0,0,0-.79.36,2,2,0,0,0-.26,1.15v.57h1.26c.29,0,.43.12.43.37v.08c0,.26-.14.38-.43.38H92.69v5.25c0,.31-.14.46-.42.46h-.11c-.29,0-.44-.15-.44-.46Zm3.79-2.87a.64.64,0,0,1,.16-.47.68.68,0,0,1,.47-.16.66.66,0,0,1,.46.16.64.64,0,0,1,.16.47.55.55,0,0,1-.17.45.64.64,0,0,1-.47.16.61.61,0,0,1-.45-.16.58.58,0,0,1-.16-.45Zm.12,2.46c0-.31.15-.47.44-.47h.11c.29,0,.43.16.43.47v5.66c0,.31-.14.46-.43.46h-.11c-.29,0-.44-.15-.44-.46Zm5,8.94c-2,0-3-.59-3-1.77a1.48,1.48,0,0,1,.6-1.18A3.46,3.46,0,0,1,99.67,11a.72.72,0,0,1-.41-.65.84.84,0,0,1,.39-.7,2.31,2.31,0,0,1-1.2-.81A2.1,2.1,0,0,1,98,7.54a2.36,2.36,0,0,1,.34-1.22,2.58,2.58,0,0,1,1-.87,2.88,2.88,0,0,1,1.34-.32,2.66,2.66,0,0,1,1.54.45l.5-.73a.67.67,0,0,1,.57-.4.45.45,0,0,1,.28.09.73.73,0,0,1,.2.19c0,.07.07.12.06.16L102.71,6A2.19,2.19,0,0,1,103,8.69a2.43,2.43,0,0,1-1,.84,3,3,0,0,1-1.35.3h-.36a.38.38,0,0,0-.16.35.41.41,0,0,0,.29.37,6.23,6.23,0,0,0,1,.29l.5.12c1.3.32,1.95.9,1.95,1.75a1.62,1.62,0,0,1-.86,1.43,4.72,4.72,0,0,1-2.41.51Zm0-.7a3.87,3.87,0,0,0,1.69-.3.94.94,0,0,0,.6-.88.75.75,0,0,0-.38-.65,3.76,3.76,0,0,0-1-.41l-.81-.19a3.67,3.67,0,0,0-1.54.44,1.06,1.06,0,0,0-.63.91.88.88,0,0,0,.54.8,3.63,3.63,0,0,0,1.58.28Zm0-4.79a1.66,1.66,0,0,0,1.21-.45,1.57,1.57,0,0,0,.47-1.18,1.62,1.62,0,0,0-.46-1.2,1.69,1.69,0,0,0-1.23-.45,1.65,1.65,0,0,0-1.2.45A1.62,1.62,0,0,0,99,7.52a1.53,1.53,0,0,0,.47,1.18,1.65,1.65,0,0,0,1.2.45Zm9.26-3.92c.29,0,.43.15.43.46v6s0,0-.11.07a1,1,0,0,1-.24,0c-.34,0-.53-.22-.57-.64,0-.24,0-.42,0-.53a2.89,2.89,0,0,1-.92.92,2.46,2.46,0,0,1-1.31.34,2.24,2.24,0,0,1-1.86-.77,3.1,3.1,0,0,1-.64-2.06V5.69c0-.31.15-.46.44-.46h.11c.29,0,.43.15.43.46V9a2.25,2.25,0,0,0,.45,1.49,1.56,1.56,0,0,0,1.27.54,2.17,2.17,0,0,0,1.21-.35,2.23,2.23,0,0,0,.79-1v-4c0-.31.14-.46.43-.46Zm4.82-.1a1.19,1.19,0,0,1,.71.2.62.62,0,0,1,.26.51.67.67,0,0,1-.06.3.54.54,0,0,1-.14.18c-.06,0-.09.06-.1,0a1.06,1.06,0,0,0-.78-.27,1.26,1.26,0,0,0-1.16.71,4.12,4.12,0,0,0-.39,2v2.58c0,.31-.14.46-.42.46h-.11a.4.4,0,0,1-.45-.46v-6s0,0,.11-.07a.61.61,0,0,1,.24,0c.34,0,.53.22.58.65s0,.55,0,.71a2.12,2.12,0,0,1,.63-1.09,1.58,1.58,0,0,1,1.06-.37Zm1.53,5a1.68,1.68,0,0,1,1.07-1.6A8.42,8.42,0,0,1,120.7,8h.15V7.69a1.72,1.72,0,0,0-.46-1.27,1.77,1.77,0,0,0-1.3-.44,2.31,2.31,0,0,0-1.24.31,2,2,0,0,0-.75.85.69.69,0,0,1-.19,0,.55.55,0,0,1-.28-.15.39.39,0,0,1-.13-.33.78.78,0,0,1,.1-.35,1.62,1.62,0,0,1,.29-.37,2.81,2.81,0,0,1,.93-.56,3.58,3.58,0,0,1,1.32-.22,2.72,2.72,0,0,1,2,.68,2.56,2.56,0,0,1,.69,1.9v4s0,0-.11.07a1,1,0,0,1-.24,0q-.51,0-.57-.63,0-.37,0-.6a2.34,2.34,0,0,1-1,1,2.88,2.88,0,0,1-1.44.36,2.47,2.47,0,0,1-1.62-.49,1.65,1.65,0,0,1-.59-1.32Zm4.61-1.5h-.24A7.85,7.85,0,0,0,118,9a1.14,1.14,0,0,0-.8,1.08,1,1,0,0,0,.38.8,1.65,1.65,0,0,0,1,.3,2.34,2.34,0,0,0,1.12-.26,2,2,0,0,0,.79-.7,1.7,1.7,0,0,0,.3-1Zm10.56-3.38a.67.67,0,0,1,.24,0c.07,0,.11.05.11.07V14a.4.4,0,0,1-.45.46h-.09c-.29,0-.44-.15-.44-.46V10.57a2.58,2.58,0,0,1-.95,1,2.61,2.61,0,0,1-1.42.37,2.79,2.79,0,0,1-1.54-.43,2.91,2.91,0,0,1-1.07-1.2,3.85,3.85,0,0,1-.39-1.77,3.85,3.85,0,0,1,.39-1.77,2.88,2.88,0,0,1,2.65-1.63,2.71,2.71,0,0,1,1.44.37,2.41,2.41,0,0,1,.91.94V6c0-.53.24-.8.61-.8Zm-.63,2.3A2.45,2.45,0,0,0,130,6.38,2.18,2.18,0,0,0,128.6,6a2,2,0,0,0-1.59.71,2.73,2.73,0,0,0-.62,1.86,3.13,3.13,0,0,0,.28,1.33,2.14,2.14,0,0,0,.79.91,2,2,0,0,0,1.13.33,2.17,2.17,0,0,0,1.1-.28,2,2,0,0,0,.8-.77A2.14,2.14,0,0,0,130.78,9Zm7.92-2.3c.29,0,.44.15.44.46v6s0,0-.12.07a1,1,0,0,1-.24,0c-.33,0-.53-.22-.57-.64,0-.24,0-.42,0-.53a2.79,2.79,0,0,1-.92.92,2.44,2.44,0,0,1-1.31.34,2.24,2.24,0,0,1-1.86-.77,3.1,3.1,0,0,1-.64-2.06V5.69c0-.31.15-.46.44-.46H134c.29,0,.43.15.43.46V9a2.25,2.25,0,0,0,.45,1.49,1.57,1.57,0,0,0,1.27.54,2.15,2.15,0,0,0,1.21-.35,2.32,2.32,0,0,0,.8-1v-4c0-.31.14-.46.42-.46Zm1.65,3.34a3.79,3.79,0,0,1,.41-1.77,3.08,3.08,0,0,1,2.81-1.67,3.08,3.08,0,0,1,1.57.4,2.7,2.7,0,0,1,1,1.13,3.57,3.57,0,0,1,.37,1.67v.1a.34.34,0,0,1-.07.25.45.45,0,0,1-.27.06h-4.92a.92.92,0,0,0,0,.19,2.39,2.39,0,0,0,.75,1.59,2.28,2.28,0,0,0,1.62.59,2.36,2.36,0,0,0,1.33-.32,2.28,2.28,0,0,0,.79-.87.37.37,0,0,1,.18,0,.62.62,0,0,1,.26.17.43.43,0,0,1,.12.31.89.89,0,0,1-.13.39,1.87,1.87,0,0,1-.39.42,2.94,2.94,0,0,1-.9.5,3.85,3.85,0,0,1-1.27.19,3.49,3.49,0,0,1-1.73-.42,3,3,0,0,1-1.17-1.19,3.73,3.73,0,0,1-.41-1.75ZM145.58,8A2.29,2.29,0,0,0,145,6.5a1.91,1.91,0,0,0-1.43-.58,2.08,2.08,0,0,0-1.5.59A2.53,2.53,0,0,0,141.32,8Z"/><path d="M45.21,28.5a2.85,2.85,0,0,1-1.54-.43,2.9,2.9,0,0,1-1.07-1.2,4.23,4.23,0,0,1,0-3.55,2.9,2.9,0,0,1,1.07-1.2,2.94,2.94,0,0,1,1.56-.42,2.76,2.76,0,0,1,1.43.35,2.41,2.41,0,0,1,.92.9V19.16s0-.05.1-.07a.61.61,0,0,1,.24,0c.42,0,.64.29.64.87v8c0,.31-.15.47-.44.47H48A.38.38,0,0,1,47.6,28c0-.18,0-.46,0-.84a2.85,2.85,0,0,1-1,1,2.7,2.7,0,0,1-1.42.37Zm2.37-4.42a2.39,2.39,0,0,0-.83-1.14,2.17,2.17,0,0,0-1.35-.41,2,2,0,0,0-1.6.71,2.72,2.72,0,0,0-.61,1.85,3,3,0,0,0,.28,1.33,2.14,2.14,0,0,0,.78.92,2,2,0,0,0,1.13.32,2.34,2.34,0,0,0,1.11-.27,2.16,2.16,0,0,0,.79-.77,2,2,0,0,0,.3-1.08Zm2.31,1.05a3.73,3.73,0,0,1,.42-1.77,3.06,3.06,0,0,1,2.8-1.66,3,3,0,0,1,1.57.4,2.77,2.77,0,0,1,1,1.12,3.71,3.71,0,0,1,.36,1.68V25a.34.34,0,0,1-.07.25.44.44,0,0,1-.27.07H50.83a.92.92,0,0,0,0,.19,2.38,2.38,0,0,0,.74,1.58,2.29,2.29,0,0,0,1.63.6,2.38,2.38,0,0,0,1.33-.33,2.34,2.34,0,0,0,.78-.87.4.4,0,0,1,.19,0,.59.59,0,0,1,.25.17.45.45,0,0,1,.12.32.75.75,0,0,1-.13.38,1.66,1.66,0,0,1-.39.42,2.56,2.56,0,0,1-.9.5,3.78,3.78,0,0,1-1.26.2,3.51,3.51,0,0,1-1.74-.43,3,3,0,0,1-1.16-1.19,3.59,3.59,0,0,1-.42-1.75Zm5.24-.53a2.35,2.35,0,0,0-.59-1.54,1.88,1.88,0,0,0-1.43-.57,2.09,2.09,0,0,0-1.5.58,2.53,2.53,0,0,0-.75,1.53Zm1.59-2.52c0-.06.06-.12.17-.19a.54.54,0,0,1,.35-.11.64.64,0,0,1,.37.15,1,1,0,0,1,.27.46l1.87,5.08,1.88-5.08c.13-.4.34-.6.61-.6a.61.61,0,0,1,.36.1c.11.07.16.13.16.19l-2.39,6a.37.37,0,0,1-.21.26.84.84,0,0,1-.43.08,1.07,1.07,0,0,1-.41-.06.41.41,0,0,1-.21-.25Zm6.68,3.05a3.73,3.73,0,0,1,.42-1.77A3,3,0,0,1,65,22.14a3.1,3.1,0,0,1,1.66-.44,3,3,0,0,1,1.57.4,2.68,2.68,0,0,1,1,1.12,3.59,3.59,0,0,1,.37,1.68V25a.34.34,0,0,1-.07.25.44.44,0,0,1-.27.07H64.34a1,1,0,0,0,0,.19,2.39,2.39,0,0,0,.75,1.58,2.29,2.29,0,0,0,1.63.6,2.35,2.35,0,0,0,1.32-.33,2.28,2.28,0,0,0,.79-.87.37.37,0,0,1,.18,0,.62.62,0,0,1,.26.17.45.45,0,0,1,.12.32.86.86,0,0,1-.13.38,1.87,1.87,0,0,1-.39.42,2.75,2.75,0,0,1-.9.5,3.85,3.85,0,0,1-1.27.2A3.49,3.49,0,0,1,65,28.07a2.89,2.89,0,0,1-1.16-1.19,3.59,3.59,0,0,1-.42-1.75Zm5.23-.53a2.29,2.29,0,0,0-.58-1.54,1.9,1.9,0,0,0-1.43-.57,2.09,2.09,0,0,0-1.5.58,2.53,2.53,0,0,0-.75,1.53Zm4.51,3.21a.9.9,0,0,1-.39-.65.39.39,0,0,1,.09-.26.65.65,0,0,1,.2-.17c.07,0,.11-.06.13-.05a2.35,2.35,0,0,0,.89.75,3,3,0,0,0,1.32.28,2,2,0,0,0,1.19-.3.88.88,0,0,0,.43-.78.74.74,0,0,0-.21-.57,1.33,1.33,0,0,0-.56-.32,9.77,9.77,0,0,0-1-.27,6.9,6.9,0,0,1-1.13-.31,1.94,1.94,0,0,1-.79-.53,1.37,1.37,0,0,1-.33-1,1.73,1.73,0,0,1,.67-1.42,2.8,2.8,0,0,1,1.8-.54,3.59,3.59,0,0,1,1.28.2,2.17,2.17,0,0,1,.84.53.88.88,0,0,1,.18.25.6.6,0,0,1,.07.27.39.39,0,0,1-.09.26.67.67,0,0,1-.2.18l-.13.05a2.25,2.25,0,0,0-.79-.7,2.47,2.47,0,0,0-1.15-.27,1.94,1.94,0,0,0-1.15.3.92.92,0,0,0-.42.78.7.7,0,0,0,.21.54,1.48,1.48,0,0,0,.54.31,10.21,10.21,0,0,0,1,.27A11.09,11.09,0,0,1,76.8,25a1.87,1.87,0,0,1,.81.54,1.37,1.37,0,0,1,.35,1A1.73,1.73,0,0,1,77.25,28a3,3,0,0,1-1.88.54,4.26,4.26,0,0,1-1.31-.19,2.86,2.86,0,0,1-.92-.5Zm5.76-2.68a3.72,3.72,0,0,1,.41-1.77,3.07,3.07,0,0,1,1.15-1.22,3.32,3.32,0,0,1,3.23,0,2.74,2.74,0,0,1,1,1.12,3.71,3.71,0,0,1,.37,1.68V25a.34.34,0,0,1-.08.25.43.43,0,0,1-.26.07H79.84a1,1,0,0,0,0,.19,2.38,2.38,0,0,0,.74,1.58,2.31,2.31,0,0,0,1.63.6,2.16,2.16,0,0,0,2.11-1.2.4.4,0,0,1,.19,0,.69.69,0,0,1,.26.17.5.5,0,0,1,.11.32.75.75,0,0,1-.13.38,1.5,1.5,0,0,1-.39.42,2.6,2.6,0,0,1-.89.5,3.89,3.89,0,0,1-1.27.2,3.47,3.47,0,0,1-1.73-.43,3,3,0,0,1-1.17-1.19,3.59,3.59,0,0,1-.41-1.75Zm5.23-.53a2.3,2.3,0,0,0-.59-1.54,1.88,1.88,0,0,0-1.43-.57,2.09,2.09,0,0,0-1.5.58,2.53,2.53,0,0,0-.75,1.53Zm4.93-2.9a1.14,1.14,0,0,1,.7.19.6.6,0,0,1,.27.51.67.67,0,0,1-.06.3.49.49,0,0,1-.14.19l-.1.05a1,1,0,0,0-.78-.28,1.26,1.26,0,0,0-1.16.71,4.14,4.14,0,0,0-.39,2v2.57c0,.31-.14.47-.42.47h-.11c-.3,0-.45-.16-.45-.47v-6s0,0,.11-.07a.61.61,0,0,1,.24,0c.34,0,.53.22.58.65s0,.55,0,.71A2.12,2.12,0,0,1,88,22.06a1.62,1.62,0,0,1,1.06-.36Zm7.72,0a2.86,2.86,0,0,1,2.61,1.61,3.85,3.85,0,0,1,.39,1.77,3.9,3.9,0,0,1-.39,1.77,2.85,2.85,0,0,1-2.64,1.65,2.67,2.67,0,0,1-1.45-.39,2.25,2.25,0,0,1-.89-1v3.38c0,.31-.15.47-.43.47h-.11c-.29,0-.43-.16-.43-.47V21.9s0,0,.11-.07a.59.59,0,0,1,.23,0c.36,0,.56.25.6.74v.56a2.83,2.83,0,0,1,1-1,2.7,2.7,0,0,1,1.42-.36Zm-.21,6a2,2,0,0,0,1.62-.7,2.78,2.78,0,0,0,.62-1.87,3,3,0,0,0-.29-1.33,2.2,2.2,0,0,0-.79-.91,2.1,2.1,0,0,0-1.13-.32,2.28,2.28,0,0,0-1.36.41,2.58,2.58,0,0,0-.85,1.15v1.45a2,2,0,0,0,.3,1.08,2.16,2.16,0,0,0,.79.77,2.29,2.29,0,0,0,1.09.27Zm4.49-7.86a.57.57,0,0,1,.62-.63.64.64,0,0,1,.47.17.72.72,0,0,1,0,.92.68.68,0,0,1-.47.15.64.64,0,0,1-.45-.15.61.61,0,0,1-.16-.46Zm.12,2.47c0-.32.14-.48.44-.48h.1c.3,0,.44.16.44.48v5.65c0,.31-.14.47-.44.47h-.1c-.3,0-.44-.16-.44-.47Zm6-.57a2.27,2.27,0,0,1,1.86.76,3.08,3.08,0,0,1,.64,2.06v3.4c0,.31-.14.47-.43.47h-.12c-.29,0-.43-.16-.43-.47V24.6a2.23,2.23,0,0,0-.45-1.49,1.52,1.52,0,0,0-1.26-.54,2.18,2.18,0,0,0-1.22.35,2.35,2.35,0,0,0-.8,1v4c0,.31-.14.47-.42.47h-.12c-.29,0-.44-.16-.44-.47v-6s0,0,.12-.07a.67.67,0,0,1,.24,0c.38,0,.58.27.6.82V23a2.45,2.45,0,0,1,2.23-1.29Zm6.39,6.8a1.68,1.68,0,0,1-1.34-.51,2.3,2.3,0,0,1-.44-1.54V22.68h-.64c-.28,0-.42-.13-.42-.37v-.1q0-.36.42-.36h.64V20.7c0-.32.14-.48.44-.48h.1c.29,0,.43.16.43.48v1.15h1.65q.42,0,.42.36v.08c0,.26-.15.39-.44.39h-1.65V26.3a1.84,1.84,0,0,0,.23,1,.84.84,0,0,0,.74.32,1.09,1.09,0,0,0,1-.5s0,0,.09,0a.53.53,0,0,1,.13.16.67.67,0,0,1,.05.26.68.68,0,0,1-.24.5,1.59,1.59,0,0,1-1.14.39Zm2.06-1.83a1.68,1.68,0,0,1,1.07-1.6,8.64,8.64,0,0,1,3.39-.54h.15v-.27a1.69,1.69,0,0,0-.46-1.28,1.81,1.81,0,0,0-1.3-.44,2.25,2.25,0,0,0-1.23.31,2,2,0,0,0-.76.85.46.46,0,0,1-.18,0,.58.58,0,0,1-.29-.15.42.42,0,0,1-.13-.34.85.85,0,0,1,.1-.34,1.47,1.47,0,0,1,.3-.38,2.66,2.66,0,0,1,.92-.56,3.87,3.87,0,0,1,1.33-.21,2.67,2.67,0,0,1,2,.68,2.53,2.53,0,0,1,.7,1.89v4s0,0-.12.07a.67.67,0,0,1-.24,0q-.49,0-.57-.63,0-.37,0-.6a2.42,2.42,0,0,1-1,1,3,3,0,0,1-1.44.35,2.42,2.42,0,0,1-1.61-.49,1.62,1.62,0,0,1-.6-1.32Zm4.61-1.5H120a7.56,7.56,0,0,0-2.6.39,1.12,1.12,0,0,0-.8,1.07,1,1,0,0,0,.39.81,1.6,1.6,0,0,0,1,.3,2.46,2.46,0,0,0,1.12-.26,2.27,2.27,0,0,0,.8-.7,1.82,1.82,0,0,0,.29-1Zm5.25,3.33a2.85,2.85,0,0,1-1.54-.43,3,3,0,0,1-1.07-1.2,4.23,4.23,0,0,1,0-3.55,2.82,2.82,0,0,1,2.63-1.62,2.73,2.73,0,0,1,1.43.35,2.41,2.41,0,0,1,.92.9V19.16s0-.05.1-.07a.61.61,0,0,1,.24,0c.43,0,.64.29.64.87v8c0,.31-.15.47-.44.47h-.09a.39.39,0,0,1-.43-.44c0-.18,0-.46,0-.84a2.77,2.77,0,0,1-1,1,2.68,2.68,0,0,1-1.42.37Zm2.37-4.42a2.39,2.39,0,0,0-.83-1.14,2.17,2.17,0,0,0-1.35-.41,2,2,0,0,0-1.6.71,2.72,2.72,0,0,0-.61,1.85,3,3,0,0,0,.28,1.33,2.14,2.14,0,0,0,.78.92,2,2,0,0,0,1.13.32,2.34,2.34,0,0,0,1.11-.27,2.16,2.16,0,0,0,.79-.77,2,2,0,0,0,.3-1.08Zm2.31,2.59a1.68,1.68,0,0,1,1.07-1.6,8.67,8.67,0,0,1,3.39-.54h.15v-.27A1.69,1.69,0,0,0,134.3,23a1.79,1.79,0,0,0-1.3-.44,2.25,2.25,0,0,0-1.23.31,2.09,2.09,0,0,0-.76.85.46.46,0,0,1-.18,0,.58.58,0,0,1-.29-.15.46.46,0,0,1-.13-.34.74.74,0,0,1,.11-.34,1.24,1.24,0,0,1,.29-.38,2.62,2.62,0,0,1,.93-.56,3.81,3.81,0,0,1,1.32-.21,2.67,2.67,0,0,1,2,.68,2.49,2.49,0,0,1,.7,1.89v4s0,0-.12.07a.61.61,0,0,1-.24,0q-.5,0-.57-.63,0-.37,0-.6a2.4,2.4,0,0,1-1,1,3,3,0,0,1-1.45.35,2.42,2.42,0,0,1-1.61-.49,1.62,1.62,0,0,1-.6-1.32Zm4.61-1.5h-.23a7.56,7.56,0,0,0-2.6.39,1.11,1.11,0,0,0-.79,1.07,1,1,0,0,0,.38.81,1.62,1.62,0,0,0,1,.3,2.46,2.46,0,0,0,1.12-.26,2.18,2.18,0,0,0,.8-.7,1.82,1.82,0,0,0,.29-1Z"/><line class="cls-1" x1="165.84" y1="33.31" x2="165.84" y2="0.19"/><path d="M188.84,11.59a.61.61,0,0,1,.15-.43.53.53,0,0,1,.41-.17h4.79c.32,0,.47.14.47.41v.08c0,.29-.15.43-.47.43h-4.32v3.25h3.19c.31,0,.47.14.47.41v.07a.43.43,0,0,1-.11.32.6.6,0,0,1-.36.09h-3.18v3.34a.45.45,0,0,1-.12.34.42.42,0,0,1-.33.12h-.15c-.29,0-.44-.17-.44-.51Zm6.94-.32a.64.64,0,0,1,.17-.47.6.6,0,0,1,.46-.16.61.61,0,0,1,.46.16.64.64,0,0,1,.17.47.58.58,0,0,1-.17.45.65.65,0,0,1-.47.16.57.57,0,0,1-.62-.61Zm.12,2.46c0-.31.15-.47.44-.47h.11c.29,0,.44.16.44.47v5.66c0,.31-.15.46-.44.46h-.11c-.29,0-.44-.15-.44-.46Zm4.95,8.94c-2,0-3-.59-3-1.77a1.48,1.48,0,0,1,.6-1.18,3.46,3.46,0,0,1,1.53-.66.74.74,0,0,1-.41-.65.83.83,0,0,1,.4-.7,2.31,2.31,0,0,1-1.2-.81,2.1,2.1,0,0,1-.45-1.33,2.27,2.27,0,0,1,.34-1.22,2.47,2.47,0,0,1,.94-.87,2.92,2.92,0,0,1,1.35-.32,2.7,2.7,0,0,1,1.54.45l.49-.73a.67.67,0,0,1,.57-.4.5.5,0,0,1,.29.09.85.85,0,0,1,.19.19c0,.07.07.12.06.16L203,14.06a2.19,2.19,0,0,1,.24,2.66,2.4,2.4,0,0,1-.94.84,3,3,0,0,1-1.36.3h-.35a.39.39,0,0,0-.17.35.42.42,0,0,0,.29.37,6.23,6.23,0,0,0,1,.29l.5.12c1.3.32,2,.9,2,1.75a1.6,1.6,0,0,1-.86,1.43,4.72,4.72,0,0,1-2.41.51Zm0-.7a3.84,3.84,0,0,0,1.69-.3.94.94,0,0,0,.6-.88.75.75,0,0,0-.38-.65,3.76,3.76,0,0,0-1-.41l-.81-.19a3.67,3.67,0,0,0-1.54.44,1.06,1.06,0,0,0-.62.91.88.88,0,0,0,.54.8,3.55,3.55,0,0,0,1.57.28Zm0-4.79a1.65,1.65,0,0,0,1.2-.45,1.53,1.53,0,0,0,.47-1.18,1.62,1.62,0,0,0-.46-1.2,1.69,1.69,0,0,0-1.23-.45,1.65,1.65,0,0,0-1.2.45,1.62,1.62,0,0,0-.46,1.2,1.57,1.57,0,0,0,.47,1.18,1.68,1.68,0,0,0,1.21.45Zm9.25-3.92c.29,0,.44.15.44.46v6s0,0-.12.07a1,1,0,0,1-.24,0c-.33,0-.52-.22-.57-.64q0-.36,0-.54a2.62,2.62,0,0,1-.92.92,2.36,2.36,0,0,1-1.31.35,2.24,2.24,0,0,1-1.86-.77,3.1,3.1,0,0,1-.64-2.06V13.72c0-.31.15-.46.44-.46h.11c.29,0,.43.15.43.46v3.34a2.25,2.25,0,0,0,.45,1.49,1.57,1.57,0,0,0,1.27.54,2.15,2.15,0,0,0,1.21-.35,2.32,2.32,0,0,0,.8-1v-4c0-.31.14-.46.42-.46Zm4.83-.1a1.16,1.16,0,0,1,.7.2.62.62,0,0,1,.26.51.67.67,0,0,1-.06.3.54.54,0,0,1-.14.18c-.06,0-.09.06-.1.05a1,1,0,0,0-.77-.27,1.26,1.26,0,0,0-1.17.71,4.12,4.12,0,0,0-.39,2v2.58c0,.31-.14.46-.42.46h-.11a.4.4,0,0,1-.45-.46v-6s0,0,.11-.07a.62.62,0,0,1,.25,0c.33,0,.52.21.57.65s0,.55,0,.71a2,2,0,0,1,.62-1.09,1.58,1.58,0,0,1,1.07-.37Zm1.52,5a1.7,1.7,0,0,1,1.07-1.61A8.45,8.45,0,0,1,221,16h.15v-.28a1.66,1.66,0,0,0-.46-1.27,1.77,1.77,0,0,0-1.3-.44,2.25,2.25,0,0,0-1.23.31,2,2,0,0,0-.76.84.32.32,0,0,1-.18,0,.58.58,0,0,1-.29-.15.39.39,0,0,1-.13-.33.75.75,0,0,1,.1-.35,1.44,1.44,0,0,1,.3-.37,2.52,2.52,0,0,1,.92-.56,3.58,3.58,0,0,1,1.32-.22,2.72,2.72,0,0,1,2,.68,2.57,2.57,0,0,1,.7,1.9v4s0,0-.12.07a1,1,0,0,1-.24,0c-.33,0-.53-.21-.57-.63q0-.37,0-.6a2.34,2.34,0,0,1-1,.95,2.85,2.85,0,0,1-1.44.36,2.52,2.52,0,0,1-1.62-.49,1.65,1.65,0,0,1-.59-1.32Zm4.61-1.5h-.23a7.61,7.61,0,0,0-2.6.38,1.14,1.14,0,0,0-.8,1.08,1,1,0,0,0,.38.8,1.65,1.65,0,0,0,1,.3A2.34,2.34,0,0,0,220,19a2.09,2.09,0,0,0,.8-.7,1.77,1.77,0,0,0,.29-1Z"/><line class="cls-1" x1="244.9" y1="33.31" x2="244.9" y2="0.19"/><path d="M264.74,3.56a.61.61,0,0,1,.15-.43.51.51,0,0,1,.4-.17h4.79c.32,0,.48.14.48.41v.09q0,.42-.48.42h-4.32V7.14H269c.31,0,.47.13.47.4v.07a.39.39,0,0,1-.11.32A.6.6,0,0,1,269,8h-3.18v3.34a.5.5,0,0,1-.11.34.45.45,0,0,1-.34.12h-.15c-.29,0-.43-.17-.43-.51Zm9.62,1.57a1.16,1.16,0,0,1,.7.2.6.6,0,0,1,.27.51.66.66,0,0,1-.07.3.44.44,0,0,1-.14.18c-.05,0-.09.06-.09,0a1.09,1.09,0,0,0-.78-.27,1.26,1.26,0,0,0-1.17.71,4.12,4.12,0,0,0-.39,2v2.58c0,.31-.14.46-.42.46h-.11a.4.4,0,0,1-.45-.46v-6s0,0,.11-.07a.69.69,0,0,1,.25,0c.33,0,.52.22.57.65s0,.55,0,.71a2,2,0,0,1,.62-1.09,1.6,1.6,0,0,1,1.07-.37Zm1.51,5a1.68,1.68,0,0,1,1.07-1.6A8.42,8.42,0,0,1,280.33,8h.15V7.69A1.72,1.72,0,0,0,280,6.42a1.77,1.77,0,0,0-1.3-.44,2.25,2.25,0,0,0-1.23.31,2,2,0,0,0-.76.85.6.6,0,0,1-.18,0,.58.58,0,0,1-.29-.15.39.39,0,0,1-.13-.33.78.78,0,0,1,.1-.35,1.62,1.62,0,0,1,.29-.37,2.81,2.81,0,0,1,.93-.56,3.58,3.58,0,0,1,1.32-.22,2.72,2.72,0,0,1,2,.68,2.56,2.56,0,0,1,.69,1.9v4s0,0-.11.07a1,1,0,0,1-.24,0q-.51,0-.57-.63,0-.37,0-.6a2.34,2.34,0,0,1-1,1,2.88,2.88,0,0,1-1.44.36,2.47,2.47,0,0,1-1.62-.49,1.65,1.65,0,0,1-.59-1.32Zm4.61-1.5h-.23a7.87,7.87,0,0,0-2.6.38,1.14,1.14,0,0,0-.8,1.08,1,1,0,0,0,.38.8,1.65,1.65,0,0,0,1,.3,2.34,2.34,0,0,0,1.12-.26,2,2,0,0,0,.79-.7,1.7,1.7,0,0,0,.3-1Zm5.15,6.17a1.71,1.71,0,0,1-.7-.14,1.32,1.32,0,0,1-.46-.36.67.67,0,0,1-.16-.41c0-.26.11-.4.34-.42a1.12,1.12,0,0,0,.88.53.89.89,0,0,0,.58-.18.67.67,0,0,0,.23-.56,1.22,1.22,0,0,0-.4-.82,2.48,2.48,0,0,0-.86-.61,2.9,2.9,0,0,1-1.71-1.17,3.51,3.51,0,0,1-.64-2.13,3.61,3.61,0,0,1,.42-1.74,3.07,3.07,0,0,1,1.17-1.2A3.3,3.3,0,0,1,286,5.13a3.24,3.24,0,0,1,1.25.22,3,3,0,0,1,.92.57,2.17,2.17,0,0,1,.39.51,1.11,1.11,0,0,1,.14.47.4.4,0,0,1-.14.31.73.73,0,0,1-.3.16c-.11,0-.17,0-.19,0A2,2,0,0,0,286,6a2.34,2.34,0,0,0-1.2.32,2.29,2.29,0,0,0-.83.91,2.8,2.8,0,0,0-.3,1.3,2.89,2.89,0,0,0,.3,1.33,2.16,2.16,0,0,0,.82.92,2.27,2.27,0,0,0,1.21.33,2.13,2.13,0,0,0,1.32-.38,2.3,2.3,0,0,0,.74-1s.07,0,.19,0a.63.63,0,0,1,.3.16.42.42,0,0,1,.14.32,1,1,0,0,1-.13.44,1.89,1.89,0,0,1-.38.5,2.77,2.77,0,0,1-1.51.77,2.74,2.74,0,0,1-.5,0,2.45,2.45,0,0,1,.68.68,1.58,1.58,0,0,1,.27.89,1.1,1.1,0,0,1-.45,1,1.74,1.74,0,0,1-1.06.33Zm3.95-4.67a1.68,1.68,0,0,1,1.07-1.6A8.42,8.42,0,0,1,294,8h.15V7.69a1.68,1.68,0,0,0-.46-1.27,1.77,1.77,0,0,0-1.3-.44,2.25,2.25,0,0,0-1.23.31,2,2,0,0,0-.76.85.6.6,0,0,1-.18,0A.58.58,0,0,1,290,7a.39.39,0,0,1-.13-.33.78.78,0,0,1,.1-.35,1.44,1.44,0,0,1,.3-.37,2.66,2.66,0,0,1,.92-.56,3.58,3.58,0,0,1,1.32-.22,2.72,2.72,0,0,1,2,.68,2.57,2.57,0,0,1,.7,1.9v4s0,0-.12.07a1,1,0,0,1-.24,0q-.51,0-.57-.63,0-.37,0-.6a2.34,2.34,0,0,1-1,1,2.85,2.85,0,0,1-1.44.36,2.47,2.47,0,0,1-1.62-.49,1.65,1.65,0,0,1-.59-1.32Zm4.61-1.5H294a7.87,7.87,0,0,0-2.6.38,1.14,1.14,0,0,0-.8,1.08,1,1,0,0,0,.38.8,1.65,1.65,0,0,0,1,.3,2.34,2.34,0,0,0,1.12-.26,2,2,0,0,0,.79-.7,1.7,1.7,0,0,0,.3-1Zm-3.25-4.54a.51.51,0,0,1-.31-.12.88.88,0,0,1,0-.34,1.66,1.66,0,0,1,.33-.86.91.91,0,0,1,.72-.33,1.06,1.06,0,0,1,.5.12,3.08,3.08,0,0,1,.48.34,4.52,4.52,0,0,0,.74.58.46.46,0,0,0,.2-.19,1.45,1.45,0,0,0,.16-.33,2.09,2.09,0,0,1,.17-.34.29.29,0,0,1,.22-.1.44.44,0,0,1,.3.11,1.27,1.27,0,0,1,0,.37,1.59,1.59,0,0,1-.33.83.91.91,0,0,1-.72.33,1.06,1.06,0,0,1-.5-.12,3,3,0,0,1-.48-.33l-.33-.29a2.17,2.17,0,0,0-.39-.29.47.47,0,0,0-.19.18,2.38,2.38,0,0,0-.17.33,1.64,1.64,0,0,1-.19.34.27.27,0,0,1-.22.11Zm5.5,4.46a3.63,3.63,0,0,1,.42-1.76A3.07,3.07,0,0,1,298,5.57a3.54,3.54,0,0,1,3.42,0,3.1,3.1,0,0,1,1.16,1.22A3.66,3.66,0,0,1,303,8.55a3.56,3.56,0,0,1-.42,1.74,3.09,3.09,0,0,1-1.17,1.21,3.34,3.34,0,0,1-1.71.43A3.39,3.39,0,0,1,298,11.5a3.05,3.05,0,0,1-1.17-1.22,3.7,3.7,0,0,1-.41-1.75Zm5.64,0a2.92,2.92,0,0,0-.3-1.33A2.31,2.31,0,0,0,301,6.3a2.18,2.18,0,0,0-1.2-.34,2.27,2.27,0,0,0-1.21.33,2.24,2.24,0,0,0-.84.91,2.75,2.75,0,0,0-.31,1.33,2.74,2.74,0,0,0,.31,1.32,2.33,2.33,0,0,0,.84.92,2.29,2.29,0,0,0,3.24-.9,2.85,2.85,0,0,0,.3-1.32Zm7.21,3.38a2.79,2.79,0,0,1-1.54-.43,2.85,2.85,0,0,1-1.07-1.2,3.85,3.85,0,0,1-.39-1.77,3.85,3.85,0,0,1,.39-1.77,3,3,0,0,1,1.08-1.2,2.9,2.9,0,0,1,1.56-.43,2.79,2.79,0,0,1,1.43.36,2.25,2.25,0,0,1,.91.9V2.6s0-.06.1-.08a.88.88,0,0,1,.24,0c.43,0,.64.29.64.87v8c0,.31-.14.46-.43.46h-.1a.37.37,0,0,1-.42-.43c0-.18,0-.47,0-.85a2.63,2.63,0,0,1-1,1,2.59,2.59,0,0,1-1.42.37Zm2.37-4.41a2.47,2.47,0,0,0-.82-1.15A2.24,2.24,0,0,0,309.48,6a2,2,0,0,0-1.6.71,2.78,2.78,0,0,0-.61,1.86,3,3,0,0,0,.28,1.33,2.18,2.18,0,0,0,.78.91,2.05,2.05,0,0,0,1.14.33,2.2,2.2,0,0,0,1.1-.28A2.05,2.05,0,0,0,311.66,9ZM314,10.11a1.67,1.67,0,0,1,1.07-1.6A8.4,8.4,0,0,1,318.43,8h.15V7.69a1.71,1.71,0,0,0-.45-1.27,1.78,1.78,0,0,0-1.3-.44,2.26,2.26,0,0,0-1.24.31,2,2,0,0,0-.75.85.69.69,0,0,1-.19,0,.55.55,0,0,1-.28-.15.39.39,0,0,1-.13-.33.78.78,0,0,1,.1-.35,1.39,1.39,0,0,1,.29-.37,2.81,2.81,0,0,1,.93-.56,3.58,3.58,0,0,1,1.32-.22,2.75,2.75,0,0,1,2,.68,2.56,2.56,0,0,1,.69,1.9v4s0,0-.11.07a1,1,0,0,1-.24,0c-.34,0-.53-.21-.58-.63,0-.25,0-.45,0-.6a2.34,2.34,0,0,1-1,1,2.91,2.91,0,0,1-1.45.36,2.42,2.42,0,0,1-1.61-.49,1.62,1.62,0,0,1-.59-1.32Zm4.6-1.5h-.23a7.8,7.8,0,0,0-2.59.38,1.13,1.13,0,0,0-.8,1.08,1,1,0,0,0,.38.8,1.63,1.63,0,0,0,1,.3,2.3,2.3,0,0,0,1.11-.26,2,2,0,0,0,.8-.7,1.69,1.69,0,0,0,.29-1Zm5.58-2.5h-.92a.45.45,0,0,1-.32-.09.38.38,0,0,1-.1-.29V5.65a.34.34,0,0,1,.1-.28.45.45,0,0,1,.32-.09h.92V4.63a2.51,2.51,0,0,1,.49-1.69,1.75,1.75,0,0,1,1.4-.57,1.63,1.63,0,0,1,1.11.32.58.58,0,0,1,.21.47.41.41,0,0,1-.05.23.74.74,0,0,1-.12.16s-.06.05-.07,0a1.23,1.23,0,0,0-.42-.28,1.59,1.59,0,0,0-.56-.11.9.9,0,0,0-.79.36,1.94,1.94,0,0,0-.26,1.15v.57h1.25c.29,0,.44.12.44.37v.08c0,.26-.15.38-.44.38h-1.22v5.25c0,.31-.15.46-.43.46h-.11c-.29,0-.43-.15-.43-.46ZM328,3.24a.64.64,0,0,1,.16-.47.66.66,0,0,1,.46-.16.68.68,0,0,1,.47.16.64.64,0,0,1,.16.47.58.58,0,0,1-.17.45.64.64,0,0,1-.47.16.61.61,0,0,1-.45-.16.58.58,0,0,1-.16-.45Zm.12,2.46c0-.31.14-.47.44-.47h.1c.3,0,.44.16.44.47v5.66c0,.31-.14.46-.44.46h-.1c-.3,0-.44-.15-.44-.46ZM333,14.64c-2,0-3-.59-3-1.77a1.48,1.48,0,0,1,.6-1.18A3.47,3.47,0,0,1,332.1,11a.74.74,0,0,1-.41-.65.85.85,0,0,1,.4-.7,2.31,2.31,0,0,1-1.2-.81,2.1,2.1,0,0,1-.45-1.33,2.27,2.27,0,0,1,.34-1.22,2.5,2.5,0,0,1,1-.87,2.85,2.85,0,0,1,1.34-.32,2.68,2.68,0,0,1,1.54.45l.49-.73a.7.7,0,0,1,.57-.4.48.48,0,0,1,.29.09.91.91,0,0,1,.2.19c0,.07.07.12.06.16L335.14,6a2.17,2.17,0,0,1,.59,1.47,2.15,2.15,0,0,1-.34,1.19,2.43,2.43,0,0,1-.95.84,3,3,0,0,1-1.36.3h-.35a.38.38,0,0,0-.16.35.41.41,0,0,0,.28.37,6.23,6.23,0,0,0,1,.29l.51.12c1.3.32,2,.9,2,1.75a1.62,1.62,0,0,1-.86,1.43,4.75,4.75,0,0,1-2.41.51Zm0-.7a3.84,3.84,0,0,0,1.69-.3.94.94,0,0,0,.6-.88.73.73,0,0,0-.38-.65,3.53,3.53,0,0,0-1.05-.41l-.8-.19a3.67,3.67,0,0,0-1.54.44,1.06,1.06,0,0,0-.63.91.88.88,0,0,0,.54.8,3.58,3.58,0,0,0,1.57.28Zm0-4.79a1.69,1.69,0,0,0,1.21-.45,1.57,1.57,0,0,0,.47-1.18,1.63,1.63,0,0,0-.47-1.2,1.85,1.85,0,0,0-2.42,0,1.63,1.63,0,0,0-.47,1.2,1.57,1.57,0,0,0,.47,1.18,1.69,1.69,0,0,0,1.21.45Zm9.26-3.92c.29,0,.43.15.43.46v6s0,0-.11.07a1,1,0,0,1-.24,0c-.34,0-.53-.22-.58-.64,0-.24,0-.42,0-.53a3,3,0,0,1-.92.92,2.5,2.5,0,0,1-1.32.34,2.24,2.24,0,0,1-1.86-.77,3.15,3.15,0,0,1-.63-2.06V5.69c0-.31.14-.46.43-.46h.11c.29,0,.44.15.44.46V9a2.25,2.25,0,0,0,.45,1.49,1.56,1.56,0,0,0,1.27.54,2.14,2.14,0,0,0,1.2-.35,2.25,2.25,0,0,0,.8-1v-4c0-.31.14-.46.42-.46Zm4.82-.1a1.16,1.16,0,0,1,.7.2.6.6,0,0,1,.27.51.67.67,0,0,1-.06.3.45.45,0,0,1-.15.18c-.05,0-.08.06-.09,0A1.06,1.06,0,0,0,347,6.1a1.24,1.24,0,0,0-1.16.71,4.12,4.12,0,0,0-.39,2v2.58c0,.31-.14.46-.43.46H345a.4.4,0,0,1-.45-.46v-6s0,0,.1-.07a.69.69,0,0,1,.25,0c.34,0,.53.22.57.65s0,.55,0,.71a2.12,2.12,0,0,1,.63-1.09,1.56,1.56,0,0,1,1.06-.37Zm1.53,5a1.67,1.67,0,0,1,1.07-1.6A8.4,8.4,0,0,1,353.13,8h.15V7.69a1.71,1.71,0,0,0-.45-1.27A1.79,1.79,0,0,0,351.52,6a2.25,2.25,0,0,0-1.23.31,2.09,2.09,0,0,0-.76.85.69.69,0,0,1-.18,0,.62.62,0,0,1-.29-.15.42.42,0,0,1-.12-.33.78.78,0,0,1,.1-.35,1.39,1.39,0,0,1,.29-.37,2.81,2.81,0,0,1,.93-.56,3.58,3.58,0,0,1,1.32-.22,2.75,2.75,0,0,1,2,.68,2.56,2.56,0,0,1,.69,1.9v4s0,0-.12.07a.85.85,0,0,1-.23,0c-.34,0-.53-.21-.58-.63,0-.25,0-.45,0-.6a2.34,2.34,0,0,1-1,1,2.91,2.91,0,0,1-1.45.36,2.42,2.42,0,0,1-1.61-.49,1.62,1.62,0,0,1-.59-1.32Zm4.6-1.5h-.23a7.92,7.92,0,0,0-2.6.38,1.13,1.13,0,0,0-.79,1.08.94.94,0,0,0,.38.8,1.62,1.62,0,0,0,1,.3,2.31,2.31,0,0,0,1.12-.26,2,2,0,0,0,.8-.7,1.69,1.69,0,0,0,.29-1Zm10.57-3.38a.59.59,0,0,1,.23,0c.08,0,.12.05.12.07V14a.4.4,0,0,1-.45.46h-.1c-.29,0-.43-.15-.43-.46V10.57a2.68,2.68,0,0,1-1,1,2.6,2.6,0,0,1-1.41.37,2.77,2.77,0,0,1-1.54-.43,2.85,2.85,0,0,1-1.07-1.2,3.85,3.85,0,0,1-.39-1.77,3.85,3.85,0,0,1,.39-1.77,2.88,2.88,0,0,1,2.65-1.63,2.76,2.76,0,0,1,1.44.37,2.31,2.31,0,0,1,.9.94V6c0-.53.24-.8.62-.8Zm-.63,2.3a2.47,2.47,0,0,0-.83-1.15A2.15,2.15,0,0,0,361,6a2,2,0,0,0-1.6.71,2.73,2.73,0,0,0-.61,1.86,3,3,0,0,0,.28,1.33,2.18,2.18,0,0,0,.78.91,2,2,0,0,0,1.13.33,2.23,2.23,0,0,0,1.11-.28,2.11,2.11,0,0,0,.8-.77A2.14,2.14,0,0,0,363.22,9Zm7.92-2.3c.29,0,.43.15.43.46v6s0,0-.11.07a1,1,0,0,1-.24,0c-.34,0-.53-.22-.57-.64,0-.24,0-.42,0-.53a2.89,2.89,0,0,1-.92.92,2.5,2.5,0,0,1-1.32.34,2.27,2.27,0,0,1-1.86-.77,3.15,3.15,0,0,1-.63-2.06V5.69c0-.31.14-.46.44-.46h.1c.3,0,.44.15.44.46V9a2.25,2.25,0,0,0,.45,1.49,1.56,1.56,0,0,0,1.27.54,2.14,2.14,0,0,0,1.2-.35,2.25,2.25,0,0,0,.8-1v-4c0-.31.14-.46.42-.46Zm1.65,3.34a3.67,3.67,0,0,1,.41-1.77,3.17,3.17,0,0,1,1.15-1.23,3.32,3.32,0,0,1,3.23,0,2.77,2.77,0,0,1,1,1.13A3.7,3.7,0,0,1,379,8.33v.1a.34.34,0,0,1-.08.25.43.43,0,0,1-.26.06h-4.92a.92.92,0,0,0,0,.19,2.38,2.38,0,0,0,.74,1.59,2.3,2.3,0,0,0,1.63.59,2.36,2.36,0,0,0,1.33-.32,2.34,2.34,0,0,0,.78-.87.4.4,0,0,1,.19,0,.69.69,0,0,1,.26.17.47.47,0,0,1,.11.31.78.78,0,0,1-.13.39,1.5,1.5,0,0,1-.39.42,2.77,2.77,0,0,1-.89.5,3.89,3.89,0,0,1-1.27.19,3.46,3.46,0,0,1-1.73-.42,3,3,0,0,1-1.17-1.19,3.62,3.62,0,0,1-.41-1.75ZM378,8a2.29,2.29,0,0,0-.59-1.53A1.89,1.89,0,0,0,376,5.92a2.1,2.1,0,0,0-1.5.59A2.53,2.53,0,0,0,373.75,8Z"/><path d="M261.73,22.68h-.91a.46.46,0,0,1-.33-.1.4.4,0,0,1-.1-.29v-.08a.4.4,0,0,1,.1-.28.47.47,0,0,1,.33-.08h.91v-.66a2.52,2.52,0,0,1,.49-1.69,1.76,1.76,0,0,1,1.4-.57,1.62,1.62,0,0,1,1.11.33.57.57,0,0,1,.22.46.48.48,0,0,1-.06.24.37.37,0,0,1-.11.15.15.15,0,0,1-.08.05,1.1,1.1,0,0,0-.42-.28,1.38,1.38,0,0,0-.56-.12.91.91,0,0,0-.79.36,2,2,0,0,0-.26,1.15v.58h1.25c.3,0,.44.12.44.36v.08c0,.26-.14.39-.44.39H262.7v5.24c0,.31-.14.47-.42.47h-.11c-.29,0-.44-.16-.44-.47Zm3.79-2.88a.61.61,0,0,1,.16-.46.64.64,0,0,1,.47-.17.57.57,0,0,1,.62.63.58.58,0,0,1-.17.46.68.68,0,0,1-.47.15.64.64,0,0,1-.45-.15.61.61,0,0,1-.16-.46Zm.12,2.47c0-.32.15-.48.44-.48h.11c.29,0,.43.16.43.48v5.65c0,.31-.14.47-.43.47h-.11c-.29,0-.44-.16-.44-.47ZM268,25.08a3.56,3.56,0,0,1,.42-1.74,3,3,0,0,1,1.17-1.21,3.29,3.29,0,0,1,1.69-.43,3.54,3.54,0,0,1,1.26.21,2.9,2.9,0,0,1,.91.58,1.83,1.83,0,0,1,.39.51,1,1,0,0,1,.14.47.37.37,0,0,1-.14.3.73.73,0,0,1-.3.16c-.1,0-.17,0-.19,0a2,2,0,0,0-2.05-1.39,2.21,2.21,0,0,0-1.2.33,2.28,2.28,0,0,0-.84.9,2.81,2.81,0,0,0-.3,1.31,2.85,2.85,0,0,0,.3,1.32,2.1,2.1,0,0,0,.82.92,2.28,2.28,0,0,0,1.22.33,2.12,2.12,0,0,0,1.31-.38,2.24,2.24,0,0,0,.74-1s.07,0,.19,0a.73.73,0,0,1,.3.16.42.42,0,0,1,.14.33,1,1,0,0,1-.14.44,1.83,1.83,0,0,1-.39.51,2.47,2.47,0,0,1-.89.59,3.63,3.63,0,0,1-1.29.22,3.3,3.3,0,0,1-1.69-.44,3.1,3.1,0,0,1-1.16-1.22,3.66,3.66,0,0,1-.42-1.76Zm6.87,0a3.57,3.57,0,0,1,.42-1.75,3,3,0,0,1,1.17-1.21,3.35,3.35,0,0,1,1.72-.43,3.27,3.27,0,0,1,1.69.43,3.05,3.05,0,0,1,1.17,1.22,3.67,3.67,0,0,1,.42,1.77,3.54,3.54,0,0,1-.42,1.73,3,3,0,0,1-1.17,1.21,3.35,3.35,0,0,1-1.71.44,3.4,3.4,0,0,1-1.71-.44,3.09,3.09,0,0,1-1.17-1.21,3.66,3.66,0,0,1-.41-1.76Zm5.64,0a2.89,2.89,0,0,0-.3-1.33,2.2,2.2,0,0,0-2-1.26,2.35,2.35,0,0,0-1.21.32,2.27,2.27,0,0,0-.84.92,3,3,0,0,0,0,2.64,2.28,2.28,0,0,0,4.08,0,2.78,2.78,0,0,0,.3-1.31ZM288,21.79a.4.4,0,0,1,.44.46v6s0,0-.12.07a.59.59,0,0,1-.23,0c-.34,0-.53-.21-.58-.64,0-.24,0-.41,0-.53a2.89,2.89,0,0,1-.92.92,2.5,2.5,0,0,1-1.32.35,2.27,2.27,0,0,1-1.86-.77,3.2,3.2,0,0,1-.63-2.07V22.25c0-.3.14-.46.43-.46h.11a.4.4,0,0,1,.44.46v3.34a2.28,2.28,0,0,0,.45,1.5,1.58,1.58,0,0,0,1.27.53,2.06,2.06,0,0,0,1.2-.35,2.25,2.25,0,0,0,.8-1V22.25c0-.3.14-.46.42-.46Zm4.41,6a.89.89,0,0,1-.4-.65.39.39,0,0,1,.09-.26.65.65,0,0,1,.2-.17c.07,0,.12-.06.13-.05a2.43,2.43,0,0,0,.89.75,3,3,0,0,0,1.32.28,2,2,0,0,0,1.19-.3.88.88,0,0,0,.43-.78.74.74,0,0,0-.21-.57,1.33,1.33,0,0,0-.56-.32,9.77,9.77,0,0,0-1-.27,7.2,7.2,0,0,1-1.13-.31,1.94,1.94,0,0,1-.79-.53,1.37,1.37,0,0,1-.33-1,1.74,1.74,0,0,1,.68-1.42,2.77,2.77,0,0,1,1.79-.54,3.55,3.55,0,0,1,1.28.2,2.17,2.17,0,0,1,.84.53.72.72,0,0,1,.18.25.6.6,0,0,1,.07.27.39.39,0,0,1-.09.26.67.67,0,0,1-.2.18c-.08,0-.12.06-.13.05a2.17,2.17,0,0,0-.79-.7,2.47,2.47,0,0,0-1.15-.27,1.94,1.94,0,0,0-1.15.3.92.92,0,0,0-.42.78.7.7,0,0,0,.21.54,1.56,1.56,0,0,0,.54.31,10.21,10.21,0,0,0,1,.27,12.07,12.07,0,0,1,1.2.33,2,2,0,0,1,.81.54,1.41,1.41,0,0,1,.34,1,1.74,1.74,0,0,1-.7,1.44,3,3,0,0,1-1.89.54,4.26,4.26,0,0,1-1.31-.19,2.8,2.8,0,0,1-.91-.5Zm5.75-2.68a3.85,3.85,0,0,1,.41-1.77,3.09,3.09,0,0,1,2.8-1.66,3,3,0,0,1,1.58.4,2.68,2.68,0,0,1,1,1.12,3.59,3.59,0,0,1,.37,1.68V25a.34.34,0,0,1-.08.25.4.4,0,0,1-.26.07h-4.92a1,1,0,0,0,0,.19,2.43,2.43,0,0,0,.74,1.58,2.33,2.33,0,0,0,1.63.6,2.36,2.36,0,0,0,1.33-.33,2.45,2.45,0,0,0,.79-.87.38.38,0,0,1,.18,0,.62.62,0,0,1,.26.17.45.45,0,0,1,.11.32.75.75,0,0,1-.13.38,1.6,1.6,0,0,1-.38.42,2.75,2.75,0,0,1-.9.5,3.89,3.89,0,0,1-1.27.2,3.49,3.49,0,0,1-1.73-.43,3,3,0,0,1-1.17-1.19,3.7,3.7,0,0,1-.41-1.75Zm5.23-.53a2.34,2.34,0,0,0-.58-1.54,1.92,1.92,0,0,0-1.44-.57,2.05,2.05,0,0,0-1.49.58,2.53,2.53,0,0,0-.75,1.53Zm9.73-2.9a2.23,2.23,0,0,1,1.8.71,3,3,0,0,1,.61,2v3.49c0,.31-.14.47-.43.47H315c-.29,0-.44-.16-.44-.47v-3.4a2.28,2.28,0,0,0-.41-1.45,1.52,1.52,0,0,0-1.22-.5,1.9,1.9,0,0,0-1.09.34,2,2,0,0,0-.72.95v4.06c0,.31-.15.47-.44.47h-.11c-.29,0-.44-.16-.44-.47V24.43a2,2,0,0,0-.41-1.38,1.54,1.54,0,0,0-1.22-.48,1.84,1.84,0,0,0-1.07.34,2.24,2.24,0,0,0-.76.95v4.06c0,.31-.14.47-.42.47h-.12c-.29,0-.44-.16-.44-.47v-6s0,0,.12-.07a.61.61,0,0,1,.24,0c.38,0,.58.27.59.8l0,.33a2.53,2.53,0,0,1,.86-.89,2.26,2.26,0,0,1,1.2-.33,2.28,2.28,0,0,1,1.35.38,2.09,2.09,0,0,1,.8,1.06,2.56,2.56,0,0,1,.9-1.05,2.39,2.39,0,0,1,1.36-.39Zm6.34,6.11a.92.92,0,0,1-.4-.65.39.39,0,0,1,.09-.26.79.79,0,0,1,.2-.17c.07,0,.12-.06.14-.05a2.4,2.4,0,0,0,.88.75,3.05,3.05,0,0,0,1.32.28,2.09,2.09,0,0,0,1.2-.3.9.9,0,0,0,.43-.78.74.74,0,0,0-.21-.57,1.4,1.4,0,0,0-.56-.32,9.44,9.44,0,0,0-1.05-.27,7.2,7.2,0,0,1-1.13-.31,1.94,1.94,0,0,1-.79-.53,1.37,1.37,0,0,1-.32-1,1.73,1.73,0,0,1,.67-1.42,2.79,2.79,0,0,1,1.79-.54,3.55,3.55,0,0,1,1.28.2,2.14,2.14,0,0,1,.85.53,1.14,1.14,0,0,1,.18.25.74.74,0,0,1,.06.27.45.45,0,0,1-.08.26.6.6,0,0,1-.21.18c-.08,0-.12.06-.13.05a2.09,2.09,0,0,0-.79-.7,2.43,2.43,0,0,0-1.14-.27,2,2,0,0,0-1.16.3.93.93,0,0,0-.41.78.73.73,0,0,0,.2.54,1.52,1.52,0,0,0,.55.31,9.49,9.49,0,0,0,1,.27,11.09,11.09,0,0,1,1.19.33,2,2,0,0,1,.81.54,1.36,1.36,0,0,1,.34,1,1.72,1.72,0,0,1-.7,1.44,3,3,0,0,1-1.89.54,4.31,4.31,0,0,1-1.31-.19,2.91,2.91,0,0,1-.91-.5Zm5.75-2.68a3.73,3.73,0,0,1,.42-1.77,3.05,3.05,0,0,1,1.14-1.22,3.1,3.1,0,0,1,1.66-.44,3,3,0,0,1,1.57.4,2.68,2.68,0,0,1,1,1.12,3.59,3.59,0,0,1,.37,1.68V25a.34.34,0,0,1-.07.25.44.44,0,0,1-.27.07h-4.92a.92.92,0,0,0,0,.19,2.38,2.38,0,0,0,.74,1.58,2.29,2.29,0,0,0,1.63.6,2.4,2.4,0,0,0,1.33-.33,2.34,2.34,0,0,0,.78-.87.35.35,0,0,1,.18,0,.62.62,0,0,1,.26.17.45.45,0,0,1,.12.32.86.86,0,0,1-.13.38,1.87,1.87,0,0,1-.39.42,2.75,2.75,0,0,1-.9.5,3.8,3.8,0,0,1-1.27.2,3.49,3.49,0,0,1-1.73-.43,2.89,2.89,0,0,1-1.16-1.19,3.59,3.59,0,0,1-.42-1.75Zm5.23-.53a2.29,2.29,0,0,0-.58-1.54,1.88,1.88,0,0,0-1.43-.57,2.09,2.09,0,0,0-1.5.58,2.53,2.53,0,0,0-.75,1.53Zm4.94-2.9a1.16,1.16,0,0,1,.7.19.6.6,0,0,1,.27.51.56.56,0,0,1-.07.3.41.41,0,0,1-.14.19.2.2,0,0,1-.09.05,1,1,0,0,0-.78-.28,1.26,1.26,0,0,0-1.17.71,4.27,4.27,0,0,0-.38,2v2.57c0,.31-.15.47-.43.47h-.11c-.3,0-.45-.16-.45-.47v-6s0,0,.11-.07a.69.69,0,0,1,.25,0c.33,0,.53.22.57.65s0,.55,0,.71a2.05,2.05,0,0,1,.63-1.09,1.6,1.6,0,0,1,1.06-.36Zm7.71,0a2.9,2.9,0,0,1,1.54.42,3,3,0,0,1,1.07,1.19,3.85,3.85,0,0,1,.39,1.77,3.9,3.9,0,0,1-.39,1.77,2.82,2.82,0,0,1-2.63,1.65,2.7,2.7,0,0,1-1.46-.39,2.31,2.31,0,0,1-.89-1v3.38c0,.31-.14.47-.42.47h-.11c-.29,0-.44-.16-.44-.47V21.9s0,0,.11-.07a.62.62,0,0,1,.23,0c.37,0,.57.25.6.74l0,.56a2.75,2.75,0,0,1,1-1,2.66,2.66,0,0,1,1.41-.36Zm-.2,6a2,2,0,0,0,1.62-.7,2.77,2.77,0,0,0,.61-1.87,3,3,0,0,0-.28-1.33,2.27,2.27,0,0,0-.79-.91,2.12,2.12,0,0,0-1.13-.32,2.28,2.28,0,0,0-1.36.41,2.51,2.51,0,0,0-.85,1.15v1.45a2.13,2.13,0,0,0,.29,1.08,2.19,2.19,0,0,0,.8.77,2.26,2.26,0,0,0,1.09.27Zm4.48-7.86a.62.62,0,0,1,.17-.46.6.6,0,0,1,.46-.17.65.65,0,0,1,.46,1.09.7.7,0,0,1-.47.15.61.61,0,0,1-.45-.15.62.62,0,0,1-.17-.46Zm.12,2.47c0-.32.15-.48.44-.48h.11c.29,0,.44.16.44.48v5.65c0,.31-.15.47-.44.47H348c-.29,0-.44-.16-.44-.47Zm6-.57a2.27,2.27,0,0,1,1.86.76,3.13,3.13,0,0,1,.63,2.06v3.4c0,.31-.14.47-.42.47h-.12c-.29,0-.44-.16-.44-.47V24.6a2.28,2.28,0,0,0-.44-1.49,1.55,1.55,0,0,0-1.26-.54,2.16,2.16,0,0,0-1.22.35,2.28,2.28,0,0,0-.8,1v4c0,.31-.14.47-.42.47h-.13c-.29,0-.43-.16-.43-.47v-6s0,0,.11-.07a.67.67,0,0,1,.24,0c.38,0,.58.27.6.82V23a2.54,2.54,0,0,1,.92-.95,2.5,2.5,0,0,1,1.32-.34Zm6.39,6.8a1.67,1.67,0,0,1-1.34-.51,2.25,2.25,0,0,1-.45-1.54V22.68h-.64c-.28,0-.42-.13-.42-.37v-.1q0-.36.42-.36h.64V20.7c0-.32.15-.48.44-.48h.11q.42,0,.42.48v1.15h1.65q.42,0,.42.36v.08c0,.26-.14.39-.43.39h-1.65V26.3a1.84,1.84,0,0,0,.23,1,.83.83,0,0,0,.74.32,1.08,1.08,0,0,0,1-.5s.05,0,.1,0a.52.52,0,0,1,.12.16.53.53,0,0,1,.06.26.69.69,0,0,1-.25.5,1.57,1.57,0,0,1-1.13.39ZM362,26.67a1.67,1.67,0,0,1,1.07-1.6,8.58,8.58,0,0,1,3.38-.54h.15v-.27a1.72,1.72,0,0,0-.45-1.28,1.83,1.83,0,0,0-1.3-.44,2.28,2.28,0,0,0-1.24.31,2,2,0,0,0-.75.85.52.52,0,0,1-.19,0,.55.55,0,0,1-.28-.15.42.42,0,0,1-.13-.34.72.72,0,0,1,.1-.34,1.42,1.42,0,0,1,.29-.38,2.81,2.81,0,0,1,.93-.56,3.81,3.81,0,0,1,1.32-.21,2.71,2.71,0,0,1,2,.68,2.52,2.52,0,0,1,.69,1.89v4s0,0-.11.07a.67.67,0,0,1-.24,0q-.51,0-.57-.63,0-.37,0-.6a2.42,2.42,0,0,1-1,1,3,3,0,0,1-1.44.35,2.45,2.45,0,0,1-1.62-.49,1.65,1.65,0,0,1-.59-1.32Zm4.6-1.5h-.23a7.49,7.49,0,0,0-2.59.39,1.11,1.11,0,0,0-.8,1.07,1,1,0,0,0,.38.81,1.63,1.63,0,0,0,1,.3,2.39,2.39,0,0,0,1.11-.26,2.11,2.11,0,0,0,.8-.7,1.74,1.74,0,0,0,.29-1Zm5.25,3.33a2.9,2.9,0,0,1-1.54-.43,3,3,0,0,1-1.07-1.2,4.23,4.23,0,0,1,0-3.55,3,3,0,0,1,1.08-1.2,2.94,2.94,0,0,1,1.56-.42,2.78,2.78,0,0,1,1.43.35,2.38,2.38,0,0,1,.91.9V19.16s0-.05.11-.07a.53.53,0,0,1,.23,0c.43,0,.64.29.64.87v8c0,.31-.14.47-.43.47h-.1c-.28,0-.42-.15-.42-.44s0-.46,0-.84a2.94,2.94,0,0,1-1,1,2.71,2.71,0,0,1-1.43.37Zm2.37-4.42a2.38,2.38,0,0,0-.82-1.14,2.18,2.18,0,0,0-1.36-.41,2,2,0,0,0-1.59.71,2.72,2.72,0,0,0-.62,1.85,3.13,3.13,0,0,0,.28,1.33,2.16,2.16,0,0,0,.79.92,2,2,0,0,0,1.13.32,2.27,2.27,0,0,0,1.1-.27,2.19,2.19,0,0,0,.8-.77,2,2,0,0,0,.29-1.08Zm2.32,2.59a1.68,1.68,0,0,1,1.07-1.6,8.6,8.6,0,0,1,3.39-.54h.15v-.27a1.73,1.73,0,0,0-.46-1.28,1.81,1.81,0,0,0-1.3-.44,2.31,2.31,0,0,0-1.24.31,2,2,0,0,0-.75.85.52.52,0,0,1-.19,0,.55.55,0,0,1-.28-.15.42.42,0,0,1-.13-.34.72.72,0,0,1,.1-.34,1.67,1.67,0,0,1,.29-.38,2.81,2.81,0,0,1,.93-.56,3.81,3.81,0,0,1,1.32-.21,2.68,2.68,0,0,1,2,.68,2.52,2.52,0,0,1,.69,1.89v4s0,0-.11.07a.67.67,0,0,1-.24,0q-.51,0-.57-.63,0-.37,0-.6a2.42,2.42,0,0,1-1,1,3,3,0,0,1-1.44.35,2.47,2.47,0,0,1-1.62-.49,1.65,1.65,0,0,1-.59-1.32Zm4.61-1.5h-.24a7.54,7.54,0,0,0-2.59.39,1.12,1.12,0,0,0-.8,1.07,1,1,0,0,0,.38.81,1.65,1.65,0,0,0,1,.3,2.46,2.46,0,0,0,1.12-.26,2.15,2.15,0,0,0,.79-.7,1.75,1.75,0,0,0,.3-1Z"/><line class="cls-1" x1="398.28" y1="33.31" x2="398.28" y2="0.19"/><line class="cls-1" x1="12.27" y1="33.5" x2="398.47" y2="33.5"/><line class="cls-1" x1="12.46" y1="87.55" x2="12.46" y2="33.69"/><text class="cls-2" transform="translate(85.81 58.01)">5</text><line class="cls-3" x1="85.82" y1="63.83" x2="92.49" y2="63.83"/><text class="cls-2" transform="translate(85.81 76.58)">6</text><line class="cls-1" x1="165.84" y1="87.55" x2="165.84" y2="33.69"/><line class="cls-1" x1="205.56" y1="60.62" x2="227.1" y2="60.62"/><line class="cls-1" x1="227.1" y1="60.62" x2="216.33" y2="41.97"/><line class="cls-1" x1="205.56" y1="60.62" x2="216.33" y2="41.97"/><line class="cls-1" x1="216.33" y1="41.97" x2="194.79" y2="41.97"/><line class="cls-1" x1="205.56" y1="60.62" x2="194.79" y2="41.97"/><line class="cls-1" x1="194.79" y1="41.97" x2="184.02" y2="60.62"/><line class="cls-1" x1="205.56" y1="60.62" x2="184.02" y2="60.62"/><line class="cls-1" x1="184.02" y1="60.62" x2="194.79" y2="79.28"/><line class="cls-1" x1="205.56" y1="60.62" x2="194.79" y2="79.28"/><line class="cls-1" x1="194.79" y1="79.28" x2="216.33" y2="79.28"/><line class="cls-1" x1="205.56" y1="60.62" x2="216.33" y2="79.28"/><line class="cls-1" x1="216.33" y1="79.28" x2="227.1" y2="60.62"/><line class="cls-1" x1="244.9" y1="87.55" x2="244.9" y2="33.69"/><line class="cls-1" x1="398.28" y1="87.55" x2="398.28" y2="33.69"/><line class="cls-1" x1="12.27" y1="87.74" x2="398.47" y2="87.74"/><line class="cls-1" x1="12.46" y1="141.79" x2="12.46" y2="87.93"/><text class="cls-2" transform="translate(85.81 112.25)">3</text><line class="cls-3" x1="85.82" y1="118.06" x2="92.49" y2="118.06"/><text class="cls-2" transform="translate(85.81 130.82)">4</text><line class="cls-1" x1="165.84" y1="141.79" x2="165.84" y2="87.93"/><line class="cls-1" x1="227.1" y1="114.86" x2="184.02" y2="114.86"/><line class="cls-1" x1="205.56" y1="93.32" x2="205.56" y2="136.4"/><circle class="cls-1" cx="205.56" cy="114.86" r="21.54" transform="translate(-29.69 125.22) rotate(-31.72)"/><line class="cls-1" x1="244.9" y1="141.79" x2="244.9" y2="87.93"/><line class="cls-1" x1="398.28" y1="141.79" x2="398.28" y2="87.93"/><line class="cls-1" x1="12.27" y1="141.98" x2="398.47" y2="141.98"/><line class="cls-1" x1="12.46" y1="196.03" x2="12.46" y2="142.17"/><text class="cls-2" transform="translate(85.81 166.49)">2</text><line class="cls-3" x1="85.82" y1="172.3" x2="92.49" y2="172.3"/><text class="cls-2" transform="translate(85.81 185.06)">5</text><line class="cls-1" x1="165.84" y1="196.03" x2="165.84" y2="142.17"/><rect class="cls-1" x="171.9" y="147.55" width="67.32" height="43.09"/><line class="cls-1" x1="185.36" y1="190.64" x2="185.36" y2="147.55"/><line class="cls-1" x1="198.83" y1="190.64" x2="198.83" y2="147.55"/><line class="cls-1" x1="212.29" y1="190.64" x2="212.29" y2="147.55"/><line class="cls-1" x1="225.76" y1="190.64" x2="225.76" y2="147.55"/><line class="cls-1" x1="244.9" y1="196.03" x2="244.9" y2="142.17"/><line class="cls-1" x1="398.28" y1="196.03" x2="398.28" y2="142.17"/><line class="cls-1" x1="12.27" y1="196.21" x2="398.47" y2="196.21"/><line class="cls-1" x1="12.46" y1="250.26" x2="12.46" y2="196.4"/><text class="cls-2" transform="translate(85.81 220.73)">2</text><line class="cls-3" x1="85.82" y1="226.54" x2="92.49" y2="226.54"/><text class="cls-2" transform="translate(85.81 239.29)">3</text><line class="cls-1" x1="165.84" y1="250.26" x2="165.84" y2="196.4"/><line class="cls-1" x1="205.56" y1="223.33" x2="227.1" y2="223.33"/><line class="cls-1" x1="227.1" y1="223.33" x2="216.33" y2="204.68"/><line class="cls-1" x1="205.56" y1="223.33" x2="216.33" y2="204.68"/><line class="cls-1" x1="216.33" y1="204.68" x2="194.79" y2="204.68"/><line class="cls-1" x1="205.56" y1="223.33" x2="194.79" y2="204.68"/><line class="cls-1" x1="194.79" y1="204.68" x2="184.02" y2="223.33"/><line class="cls-1" x1="205.56" y1="223.33" x2="184.02" y2="223.33"/><line class="cls-1" x1="184.02" y1="223.33" x2="194.79" y2="241.99"/><line class="cls-1" x1="205.56" y1="223.33" x2="194.79" y2="241.99"/><line class="cls-1" x1="194.79" y1="241.99" x2="216.33" y2="241.99"/><line class="cls-1" x1="205.56" y1="223.33" x2="216.33" y2="241.99"/><line class="cls-1" x1="216.33" y1="241.99" x2="227.1" y2="223.33"/><line class="cls-1" x1="244.9" y1="250.26" x2="244.9" y2="196.4"/><line class="cls-1" x1="398.28" y1="250.26" x2="398.28" y2="196.4"/><line class="cls-1" x1="12.27" y1="250.45" x2="398.47" y2="250.45"/><line class="cls-1" x1="12.46" y1="304.5" x2="12.46" y2="250.64"/><text class="cls-2" transform="translate(85.81 274.96)">3</text><line class="cls-3" x1="85.82" y1="280.77" x2="92.49" y2="280.77"/><text class="cls-2" transform="translate(85.81 293.53)">8</text><line class="cls-1" x1="165.84" y1="304.5" x2="165.84" y2="250.64"/><line class="cls-1" x1="227.1" y1="277.57" x2="184.02" y2="277.57"/><line class="cls-1" x1="205.56" y1="256.03" x2="205.56" y2="299.11"/><circle class="cls-1" cx="205.56" cy="277.57" r="21.54" transform="translate(-58.27 54.65) rotate(-13.28)"/><line class="cls-1" x1="244.9" y1="304.5" x2="244.9" y2="250.64"/><line class="cls-1" x1="398.28" y1="304.5" x2="398.28" y2="250.64"/><line class="cls-1" x1="12.27" y1="304.69" x2="398.47" y2="304.69"/><line class="cls-1" x1="12.46" y1="358.74" x2="12.46" y2="304.88"/><text class="cls-2" transform="translate(85.81 329.2)">9</text><line class="cls-3" x1="82.48" y1="335.01" x2="95.82" y2="335.01"/><text class="cls-2" transform="translate(82.48 347.77)">10</text><line class="cls-1" x1="165.84" y1="358.74" x2="165.84" y2="304.88"/><rect class="cls-1" x="171.9" y="310.26" width="67.32" height="43.09"/><line class="cls-1" x1="185.36" y1="353.35" x2="185.36" y2="310.26"/><line class="cls-1" x1="198.83" y1="353.35" x2="198.83" y2="310.26"/><line class="cls-1" x1="212.29" y1="353.35" x2="212.29" y2="310.26"/><line class="cls-1" x1="225.76" y1="353.35" x2="225.76" y2="310.26"/><line class="cls-1" x1="244.9" y1="358.74" x2="244.9" y2="304.88"/><line class="cls-1" x1="398.28" y1="358.74" x2="398.28" y2="304.88"/><line class="cls-1" x1="12.27" y1="358.93" x2="398.47" y2="358.93"/></svg>