<svg id="Camada_1" data-name="Camada 1" xmlns="http://www.w3.org/2000/svg" viewBox="0 0 415.17 83.71"><defs><style>.cls-1{fill:#95d4e9;opacity:0.3;}.cls-2{fill:none;stroke:#000;stroke-miterlimit:10;stroke-width:0.4px;}.cls-3{fill:#e6164d;}</style></defs><path d="M.71,20.87a1.82,1.82,0,0,1,1.13-1.74,8.71,8.71,0,0,1,3.5-.6h.19v-.14a1.6,1.6,0,0,0-.44-1.21,1.77,1.77,0,0,0-1.27-.42,2.17,2.17,0,0,0-1.23.33,2.05,2.05,0,0,0-.75.85s-.08,0-.24,0a.9.9,0,0,1-.44-.21.56.56,0,0,1-.2-.46,1.19,1.19,0,0,1,.48-.86,3,3,0,0,1,1-.57,4.58,4.58,0,0,1,1.46-.22,3.19,3.19,0,0,1,2.24.72,2.67,2.67,0,0,1,.77,2v4.23s0,.07-.16.11a1.34,1.34,0,0,1-.35.05.76.76,0,0,1-.82-.63,2.17,2.17,0,0,1-.06-.48,2.82,2.82,0,0,1-1,.88,3.28,3.28,0,0,1-1.43.31,2.55,2.55,0,0,1-1.72-.54,1.76,1.76,0,0,1-.63-1.42Zm4.82-1.45H5.14a7,7,0,0,0-2.3.38,1.05,1.05,0,0,0-.74,1,.87.87,0,0,0,.34.73,1.52,1.52,0,0,0,1,.27,2.24,2.24,0,0,0,1.53-.52A1.71,1.71,0,0,0,5.53,20Zm2.62,6.1c-.44,0-.66-.2-.66-.58a.61.61,0,0,1,.09-.31c0-.11.1-.17.13-.18a3.1,3.1,0,0,0,1.62-.93,4.53,4.53,0,0,0,1-1.79,7.21,7.21,0,0,0,.36-2.33,7.07,7.07,0,0,0-.36-2.28,4.53,4.53,0,0,0-1-1.79,3.18,3.18,0,0,0-1.62-.93.55.55,0,0,1-.13-.2.64.64,0,0,1-.09-.31q0-.57.66-.57a2.53,2.53,0,0,1,1.23.36,4.37,4.37,0,0,1,1.18,1,6.82,6.82,0,0,1,1.18,2.09,7.88,7.88,0,0,1,.44,2.65,7.74,7.74,0,0,1-.43,2.64,6.62,6.62,0,0,1-1.15,2.08,4.35,4.35,0,0,1-1.2,1,2.57,2.57,0,0,1-1.25.36Z"/><circle class="cls-1" cx="46.28" cy="39.48" r="28.35" transform="translate(-13.84 30.22) rotate(-31.72)"/><circle class="cls-2" cx="46.28" cy="39.48" r="28.35" transform="translate(-13.84 30.22) rotate(-31.72)"/><path class="cls-3" d="M46.28,39.48H74.62a28.31,28.31,0,0,0-5.41-16.66Z"/><path class="cls-2" d="M46.28,39.48H74.62a28.31,28.31,0,0,0-5.41-16.66Z"/><line class="cls-2" x1="74.62" y1="39.48" x2="17.93" y2="39.48"/><path class="cls-3" d="M46.28,39.48l8.75-27a28.32,28.32,0,0,0-17.51,0Z"/><path class="cls-2" d="M46.28,39.48l8.75-27a28.32,28.32,0,0,0-17.51,0Z"/><line class="cls-2" x1="55.03" y1="12.52" x2="37.52" y2="66.44"/><path class="cls-3" d="M46.28,39.48,23.34,22.82a28.31,28.31,0,0,0-5.41,16.66Z"/><path class="cls-2" d="M46.28,39.48,23.34,22.82a28.31,28.31,0,0,0-5.41,16.66Z"/><line class="cls-2" x1="23.34" y1="22.82" x2="69.21" y2="56.14"/><path class="cls-3" d="M46.28,39.48,23.34,56.14a28.36,28.36,0,0,0,14.18,10.3Z"/><path class="cls-2" d="M46.28,39.48,23.34,56.14a28.36,28.36,0,0,0,14.18,10.3Z"/><line class="cls-2" x1="23.34" y1="56.14" x2="69.21" y2="22.82"/><path class="cls-3" d="M46.28,39.48l8.75,27a28.36,28.36,0,0,0,14.18-10.3Z"/><path class="cls-2" d="M46.28,39.48l8.75,27a28.36,28.36,0,0,0,14.18-10.3Z"/><line class="cls-2" x1="55.03" y1="66.44" x2="37.52" y2="12.52"/><path d="M156.44,22.06c0,.45-.21.67-.62.67h-.16c-.42,0-.63-.22-.63-.67V13s.05-.07.16-.1a1,1,0,0,1,.36-.06.85.85,0,0,1,.64.27,1.38,1.38,0,0,1,.26.95v2.81a2.79,2.79,0,0,1,2.41-1.25,3.13,3.13,0,0,1,1.66.45,3,3,0,0,1,1.15,1.27,4.49,4.49,0,0,1,0,3.79,3,3,0,0,1-1.16,1.29,3.13,3.13,0,0,1-1.69.46,3,3,0,0,1-1.46-.34,2.3,2.3,0,0,1-.92-.88Zm4.27-2.83a2.84,2.84,0,0,0-.27-1.26,2.16,2.16,0,0,0-.75-.88,2,2,0,0,0-1.1-.31,2.31,2.31,0,0,0-1.33.38,2.22,2.22,0,0,0-.82,1.05v1.54a1.92,1.92,0,0,0,.3,1,2.08,2.08,0,0,0,.78.69,2.19,2.19,0,0,0,1,.25,2,2,0,0,0,1.56-.67,2.62,2.62,0,0,0,.59-1.78Zm2.57,6.29c-.44,0-.66-.2-.66-.58a.61.61,0,0,1,.09-.31.46.46,0,0,1,.12-.18,3.09,3.09,0,0,0,1.63-.93,4.65,4.65,0,0,0,1-1.79,7.21,7.21,0,0,0,.36-2.33,7.07,7.07,0,0,0-.36-2.28,4.78,4.78,0,0,0-1-1.79,3.16,3.16,0,0,0-1.63-.93.81.81,0,0,1-.12-.2.64.64,0,0,1-.09-.31q0-.57.66-.57a2.53,2.53,0,0,1,1.23.36,4.37,4.37,0,0,1,1.18,1,6.82,6.82,0,0,1,1.18,2.09,7.88,7.88,0,0,1,.44,2.65,7.74,7.74,0,0,1-.43,2.64,6.83,6.83,0,0,1-1.15,2.08,4.35,4.35,0,0,1-1.2,1,2.57,2.57,0,0,1-1.25.36Z"/><rect class="cls-1" x="173.07" y="10.67" width="39.69" height="56.69"/><rect class="cls-2" x="173.07" y="10.67" width="39.69" height="56.69"/><rect class="cls-3" x="173.07" y="10.67" width="19.84" height="45.35"/><rect class="cls-2" x="173.07" y="10.67" width="19.84" height="45.35"/><line class="cls-2" x1="173.07" y1="56.02" x2="212.76" y2="56.02"/><line class="cls-2" x1="173.07" y1="44.68" x2="212.76" y2="44.68"/><line class="cls-2" x1="173.07" y1="33.35" x2="212.76" y2="33.35"/><line class="cls-2" x1="173.07" y1="22.01" x2="212.76" y2="22.01"/><line class="cls-2" x1="192.91" y1="67.36" x2="192.91" y2="10.67"/><path d="M308.54,19.22a3.72,3.72,0,0,1,.46-1.86,3.33,3.33,0,0,1,1.29-1.29,3.61,3.61,0,0,1,1.83-.47,3.46,3.46,0,0,1,2.26.72,1.94,1.94,0,0,1,.52.6,1.27,1.27,0,0,1,.18.59.52.52,0,0,1-.19.42.93.93,0,0,1-.41.2c-.14,0-.23,0-.25,0a2.06,2.06,0,0,0-2.08-1.35,2.17,2.17,0,0,0-1.16.32,2.27,2.27,0,0,0-.81.87,2.52,2.52,0,0,0-.29,1.24,2.6,2.6,0,0,0,.29,1.26,2.27,2.27,0,0,0,.81.87,2.09,2.09,0,0,0,1.16.32,2.06,2.06,0,0,0,2.08-1.35s.11,0,.25,0a.85.85,0,0,1,.41.21.55.55,0,0,1,.19.44,1.16,1.16,0,0,1-.19.58,2.07,2.07,0,0,1-.53.59,2.9,2.9,0,0,1-.95.53,4,4,0,0,1-1.29.19,3.61,3.61,0,0,1-1.85-.47A3.28,3.28,0,0,1,309,21.1a3.79,3.79,0,0,1-.46-1.88Zm7.36,6.3c-.44,0-.66-.2-.66-.58a.71.71,0,0,1,.08-.31c.06-.11.1-.17.13-.18a3.13,3.13,0,0,0,1.63-.93,4.78,4.78,0,0,0,1-1.79,7.21,7.21,0,0,0,.36-2.33,7.07,7.07,0,0,0-.36-2.28,4.67,4.67,0,0,0-1.05-1.79,3.18,3.18,0,0,0-1.62-.93.73.73,0,0,1-.13-.2.75.75,0,0,1-.08-.31q0-.57.66-.57a2.47,2.47,0,0,1,1.22.36,4.4,4.4,0,0,1,1.19,1,6.8,6.8,0,0,1,1.17,2.09,7.64,7.64,0,0,1,.45,2.65,8,8,0,0,1-.43,2.64,6.83,6.83,0,0,1-1.15,2.08,4.35,4.35,0,0,1-1.2,1,2.6,2.6,0,0,1-1.25.36Z"/><rect class="cls-1" x="325.67" y="10.67" width="85.04" height="56.69"/><rect class="cls-2" x="325.67" y="10.67" width="85.04" height="56.69"/><rect class="cls-3" x="325.67" y="10.67" width="51.02" height="56.69"/><line class="cls-2" x1="334.18" y1="67.36" x2="334.18" y2="10.67"/><line class="cls-2" x1="342.68" y1="67.36" x2="342.68" y2="10.67"/><line class="cls-2" x1="351.19" y1="67.36" x2="351.19" y2="10.67"/><line class="cls-2" x1="359.69" y1="67.36" x2="359.69" y2="10.67"/><line class="cls-2" x1="368.19" y1="67.36" x2="368.19" y2="10.67"/><line class="cls-2" x1="376.7" y1="67.36" x2="376.7" y2="10.67"/><line class="cls-2" x1="385.2" y1="67.36" x2="385.2" y2="10.67"/><line class="cls-2" x1="393.71" y1="67.36" x2="393.71" y2="10.67"/><line class="cls-2" x1="402.21" y1="67.36" x2="402.21" y2="10.67"/></svg>