<svg id="Camada_1" data-name="Camada 1" xmlns="http://www.w3.org/2000/svg" viewBox="0 0 187.35 83.76"><defs><style>.cls-1{fill:#e6164d;}.cls-2,.cls-5{fill:none;stroke:#000;stroke-miterlimit:10;}.cls-2{stroke-width:0.4px;}.cls-3{fill:#95d4e9;opacity:0.3;}.cls-4{font-size:9.69px;font-family:CMR10;}.cls-5{stroke-width:0.57px;}</style></defs><ellipse class="cls-1" cx="59.37" cy="30.62" rx="28.35" ry="27.56"/><ellipse class="cls-2" cx="59.37" cy="30.62" rx="28.35" ry="27.56"/><line class="cls-2" x1="59.37" y1="30.62" x2="59.37" y2="58.18"/><line class="cls-2" x1="59.37" y1="30.62" x2="83.92" y2="16.84"/><line class="cls-2" x1="59.37" y1="30.62" x2="34.82" y2="16.84"/><ellipse class="cls-3" cx="127.4" cy="30.62" rx="28.35" ry="27.56"/><ellipse class="cls-2" cx="127.4" cy="30.62" rx="28.35" ry="27.56"/><path class="cls-1" d="M127.4,30.62,102.86,16.84C110.68,3.66,128-.86,141.58,6.75A27.9,27.9,0,0,1,152,16.84Z"/><path class="cls-2" d="M127.4,30.62,102.86,16.84C110.68,3.66,128-.86,141.58,6.75A27.9,27.9,0,0,1,152,16.84Z"/><line class="cls-2" x1="127.4" y1="30.62" x2="127.4" y2="58.18"/><text class="cls-4" transform="translate(5.97 67.18) scale(1.03 1)">4</text><line class="cls-5" x1="5.97" y1="69.18" x2="10.95" y2="69.18"/><text class="cls-4" transform="translate(5.97 77.48) scale(1.03 1)">3</text><path d="M18.24,72.83a3.07,3.07,0,0,1-1.62-.44,3.2,3.2,0,0,1-1.13-1.23,4.32,4.32,0,0,1,0-3.63,3,3,0,0,1,2.78-1.67,3.07,3.07,0,0,1,1.51.37,2.44,2.44,0,0,1,1,.92V63.27s0-.05.11-.08a.9.9,0,0,1,.25,0c.45,0,.67.3.67.89v8.19c0,.32-.15.47-.46.47h-.1a.39.39,0,0,1-.44-.44c0-.19,0-.48,0-.87a2.83,2.83,0,0,1-1,1,2.88,2.88,0,0,1-1.5.38Zm2.5-4.52a2.46,2.46,0,0,0-.87-1.18,2.37,2.37,0,0,0-1.43-.41,2.15,2.15,0,0,0-1.68.72,2.75,2.75,0,0,0-.64,1.9,3.09,3.09,0,0,0,.29,1.36,2.24,2.24,0,0,0,.83.94,2.2,2.2,0,0,0,1.19.33,2.4,2.4,0,0,0,1.16-.28,2.25,2.25,0,0,0,.84-.78,2.11,2.11,0,0,0,.31-1.11ZM23.18,71a1.71,1.71,0,0,1,1.12-1.64,9.08,9.08,0,0,1,3.57-.55H28v-.28a1.68,1.68,0,0,0-.49-1.31,1.92,1.92,0,0,0-1.37-.45,2.47,2.47,0,0,0-1.29.32,2,2,0,0,0-.8.87.69.69,0,0,1-.19,0,.61.61,0,0,1-.3-.15.4.4,0,0,1-.14-.34.73.73,0,0,1,.11-.36,1.33,1.33,0,0,1,.31-.38,2.83,2.83,0,0,1,1-.57,4,4,0,0,1,1.39-.23,2.92,2.92,0,0,1,2.08.7A2.55,2.55,0,0,1,29,68.5v4.12s0,0-.12.07a1,1,0,0,1-.25,0c-.35,0-.55-.22-.6-.64,0-.26,0-.47,0-.62a2.48,2.48,0,0,1-1,1,3.19,3.19,0,0,1-1.52.36,2.67,2.67,0,0,1-1.7-.5A1.64,1.64,0,0,1,23.18,71ZM28,69.42l-.25,0a7.81,7.81,0,0,0-2.73.39,1.16,1.16,0,0,0-.84,1.1,1,1,0,0,0,.4.82,1.72,1.72,0,0,0,1.09.31,2.59,2.59,0,0,0,1.18-.27,2.1,2.1,0,0,0,.84-.72,1.77,1.77,0,0,0,.31-1Zm7.57,3.41a1.82,1.82,0,0,1-1.41-.52,2.29,2.29,0,0,1-.47-1.58V66.87h-.67c-.3,0-.45-.13-.45-.38v-.1c0-.25.15-.37.45-.37h.67V64.85c0-.33.15-.49.46-.49h.11c.3,0,.45.16.45.49V66h1.74c.29,0,.44.12.44.37v.09c0,.26-.15.39-.46.39H34.73v3.71A1.86,1.86,0,0,0,35,71.65a.89.89,0,0,0,.77.32,1.18,1.18,0,0,0,1-.51s.05,0,.1,0a.53.53,0,0,1,.13.16.6.6,0,0,1,.06.27.69.69,0,0,1-.26.51,1.71,1.71,0,0,1-1.19.4Zm2.17-3.49a3.52,3.52,0,0,1,.44-1.79,3.21,3.21,0,0,1,1.24-1.24,3.81,3.81,0,0,1,3.59,0,3.21,3.21,0,0,1,1.23,1.25,3.73,3.73,0,0,1,.44,1.81,3.57,3.57,0,0,1-.44,1.77A3.21,3.21,0,0,1,43,72.38a3.53,3.53,0,0,1-1.79.45,3.59,3.59,0,0,1-1.8-.45,3.21,3.21,0,0,1-1.24-1.24,3.69,3.69,0,0,1-.43-1.8Zm5.94,0A2.87,2.87,0,0,0,43.39,68a2.35,2.35,0,0,0-.87-1,2.39,2.39,0,0,0-1.27-.34,2.48,2.48,0,0,0-1.27.33,2.42,2.42,0,0,0-.89.93,2.9,2.9,0,0,0-.32,1.36,2.86,2.86,0,0,0,.32,1.35,2.52,2.52,0,0,0,.89.94,2.39,2.39,0,0,0,1.27.34,2.48,2.48,0,0,0,1.27-.33,2.3,2.3,0,0,0,.87-.93,2.79,2.79,0,0,0,.32-1.34Zm5.2-3.51a1.18,1.18,0,0,1,.74.21.6.6,0,0,1,.28.52.75.75,0,0,1-.06.31.71.71,0,0,1-.15.18c-.06,0-.09.06-.1,0a1.16,1.16,0,0,0-.82-.28,1.33,1.33,0,0,0-1.23.73,4.17,4.17,0,0,0-.41,2v2.64c0,.32-.14.47-.44.47H46.6a.41.41,0,0,1-.47-.47V66.07s0,0,.12-.07a.93.93,0,0,1,.25,0c.36,0,.56.23.61.67s0,.56,0,.73a2.17,2.17,0,0,1,.66-1.12,1.73,1.73,0,0,1,1.12-.38Zm4.51,7A1.82,1.82,0,0,1,52,72.31a2.25,2.25,0,0,1-.47-1.58V66.87h-.68c-.29,0-.44-.13-.44-.38v-.1c0-.25.15-.37.44-.37h.68V64.85c0-.33.15-.49.46-.49h.11c.3,0,.45.16.45.49V66h1.73c.3,0,.45.12.45.37v.09c0,.26-.15.39-.46.39H52.54v3.71a1.78,1.78,0,0,0,.25,1.07.89.89,0,0,0,.77.32,1.18,1.18,0,0,0,1-.51s.05,0,.1,0a.53.53,0,0,1,.13.16.6.6,0,0,1,.06.27.69.69,0,0,1-.26.51,1.71,1.71,0,0,1-1.19.4ZM55.58,71a1.72,1.72,0,0,1,1.13-1.64,9.08,9.08,0,0,1,3.57-.55h.15v-.28A1.71,1.71,0,0,0,60,67.18a1.92,1.92,0,0,0-1.37-.45,2.5,2.5,0,0,0-1.3.32,2.08,2.08,0,0,0-.79.87.74.74,0,0,1-.2,0,.61.61,0,0,1-.3-.15.42.42,0,0,1-.13-.34A.82.82,0,0,1,56,67a1.79,1.79,0,0,1,.31-.38,3,3,0,0,1,1-.57,3.93,3.93,0,0,1,1.39-.23,2.92,2.92,0,0,1,2.08.7,2.55,2.55,0,0,1,.73,1.94v4.12s0,0-.12.07a1,1,0,0,1-.25,0c-.35,0-.56-.22-.6-.64,0-.26,0-.47,0-.62a2.48,2.48,0,0,1-1,1,3.19,3.19,0,0,1-1.52.36,2.65,2.65,0,0,1-1.7-.5A1.65,1.65,0,0,1,55.58,71Zm4.85-1.54-.24,0a7.81,7.81,0,0,0-2.73.39,1.16,1.16,0,0,0-.84,1.1,1,1,0,0,0,.4.82,1.72,1.72,0,0,0,1.09.31,2.59,2.59,0,0,0,1.18-.27,2.1,2.1,0,0,0,.84-.72,1.76,1.76,0,0,0,.3-1ZM66,67.93c-.3,0-.46-.14-.46-.41v-.09c0-.27.16-.41.46-.41h5.08a.54.54,0,0,1,.37.11.4.4,0,0,1,.1.3v.09c0,.27-.15.41-.47.41Zm0,3.14c-.3,0-.46-.14-.46-.41v-.09c0-.27.16-.41.46-.41h5.08a.54.54,0,0,1,.37.11.4.4,0,0,1,.1.3v.09c0,.27-.15.41-.47.41Zm11.56,1.66c-.29,0-.44-.17-.44-.49V65.18a1.14,1.14,0,0,1-.44.37,1.39,1.39,0,0,1-.61.13,1.16,1.16,0,0,1-.81-.28.71.71,0,0,1-.17-.81.72.72,0,0,1,.14-.19c.06-.05.09-.07.11-.06a1,1,0,0,0,.82.34,1.16,1.16,0,0,0,.8-.32,1.1,1.1,0,0,0,.36-.77h.39c.31,0,.47.16.47.49v8.16a.43.43,0,0,1-.47.49Zm7.82.1a1.82,1.82,0,0,1-1.41-.52,2.29,2.29,0,0,1-.47-1.58V66.87H82.8c-.3,0-.44-.13-.44-.38v-.1c0-.25.14-.37.44-.37h.67V64.85c0-.33.16-.49.46-.49h.12c.29,0,.44.16.44.49V66h1.74c.3,0,.44.12.44.37v.09c0,.26-.15.39-.46.39H84.48v3.71a1.86,1.86,0,0,0,.24,1.07.89.89,0,0,0,.78.32,1.18,1.18,0,0,0,1-.51s0,0,.1,0a.75.75,0,0,1,.13.16.76.76,0,0,1,0,.27.66.66,0,0,1-.26.51,1.69,1.69,0,0,1-1.19.4Zm2.17-3.49A3.62,3.62,0,0,1,88,67.55a3.21,3.21,0,0,1,1.24-1.24A3.57,3.57,0,0,1,91,65.86a3.49,3.49,0,0,1,1.78.45A3.21,3.21,0,0,1,94,67.56a3.62,3.62,0,0,1,.44,1.81A3.47,3.47,0,0,1,94,71.14a3.21,3.21,0,0,1-1.24,1.24,3.53,3.53,0,0,1-1.79.45,3.59,3.59,0,0,1-1.8-.45A3.12,3.12,0,0,1,88,71.14a3.69,3.69,0,0,1-.44-1.8Zm5.94,0A2.87,2.87,0,0,0,93.14,68,2.32,2.32,0,0,0,91,66.72a2.45,2.45,0,0,0-1.27.33,2.28,2.28,0,0,0-.89.93,2.79,2.79,0,0,0-.33,1.36,2.75,2.75,0,0,0,.33,1.35A2.4,2.4,0,0,0,91,72a2.44,2.44,0,0,0,1.26-.33,2.3,2.3,0,0,0,.87-.93,2.79,2.79,0,0,0,.32-1.34Zm5.21-3.51a1.22,1.22,0,0,1,.74.21.63.63,0,0,1,.28.52.74.74,0,0,1-.07.31.45.45,0,0,1-.15.18c-.06,0-.09.06-.1,0a1.15,1.15,0,0,0-.82-.28,1.33,1.33,0,0,0-1.22.73,4.06,4.06,0,0,0-.41,2v2.64c0,.32-.15.47-.45.47h-.11a.42.42,0,0,1-.48-.47V66.07s0,0,.12-.07a1,1,0,0,1,.26,0c.35,0,.55.23.6.67s0,.56,0,.73a2,2,0,0,1,.66-1.12,1.71,1.71,0,0,1,1.12-.38Zm4.5,7a1.82,1.82,0,0,1-1.41-.52,2.29,2.29,0,0,1-.47-1.58V66.87h-.67c-.3,0-.45-.13-.45-.38v-.1c0-.25.15-.37.45-.37h.67V64.85c0-.33.16-.49.46-.49h.12c.29,0,.44.16.44.49V66h1.74c.29,0,.44.12.44.37v.09c0,.26-.15.39-.46.39H102.3v3.71a1.86,1.86,0,0,0,.24,1.07.89.89,0,0,0,.78.32,1.17,1.17,0,0,0,1-.51.11.11,0,0,1,.1,0,.53.53,0,0,1,.13.16.6.6,0,0,1,.06.27.69.69,0,0,1-.26.51,1.69,1.69,0,0,1-1.19.4ZM105.34,71a1.71,1.71,0,0,1,1.12-1.64,9.08,9.08,0,0,1,3.57-.55h.16v-.28a1.71,1.71,0,0,0-.48-1.31,1.93,1.93,0,0,0-1.37-.45,2.48,2.48,0,0,0-1.3.32,2,2,0,0,0-.8.87.69.69,0,0,1-.19,0,.61.61,0,0,1-.3-.15.43.43,0,0,1-.14-.34.85.85,0,0,1,.11-.36,1.33,1.33,0,0,1,.31-.38,2.93,2.93,0,0,1,1-.57,4,4,0,0,1,1.39-.23,2.9,2.9,0,0,1,2.08.7,2.55,2.55,0,0,1,.74,1.94v4.12s0,0-.13.07a1,1,0,0,1-.25,0c-.35,0-.55-.22-.6-.64,0-.26,0-.47,0-.62a2.48,2.48,0,0,1-1,1,3.16,3.16,0,0,1-1.52.36,2.67,2.67,0,0,1-1.7-.5,1.67,1.67,0,0,1-.62-1.35Zm4.85-1.54-.25,0a7.81,7.81,0,0,0-2.73.39,1.16,1.16,0,0,0-.84,1.1,1,1,0,0,0,.4.82,1.72,1.72,0,0,0,1.09.31,2.56,2.56,0,0,0,1.18-.27,2.1,2.1,0,0,0,.84-.72,1.77,1.77,0,0,0,.31-1Zm4.82,0a3.75,3.75,0,0,1,.43-1.81,3.3,3.3,0,0,1,1.21-1.25,3.37,3.37,0,0,1,1.74-.46,3.2,3.2,0,0,1,1.66.42,2.77,2.77,0,0,1,1.1,1.15,3.59,3.59,0,0,1,.38,1.71v.1a.34.34,0,0,1-.07.25.43.43,0,0,1-.28.07H116a1.15,1.15,0,0,0,0,.2,2.4,2.4,0,0,0,.78,1.61,2.49,2.49,0,0,0,1.72.62,2.52,2.52,0,0,0,1.4-.34,2.34,2.34,0,0,0,.82-.89.38.38,0,0,1,.2,0,.65.65,0,0,1,.27.17.44.44,0,0,1,.12.32.81.81,0,0,1-.14.39,1.49,1.49,0,0,1-.41.43,2.61,2.61,0,0,1-.94.51,4,4,0,0,1-1.34.21,3.71,3.71,0,0,1-1.82-.44,3.14,3.14,0,0,1-1.23-1.22,3.62,3.62,0,0,1-.43-1.79Zm5.51-.54a2.31,2.31,0,0,0-.62-1.57,2,2,0,0,0-1.51-.6,2.22,2.22,0,0,0-1.57.6,2.5,2.5,0,0,0-.79,1.57Z"/><text class="cls-4" transform="translate(125.66 67.18) scale(1.03 1)">1</text><line class="cls-5" x1="125.66" y1="69.18" x2="130.64" y2="69.18"/><text class="cls-4" transform="translate(125.66 77.48) scale(1.03 1)">3</text><path d="M137.93,72.83a3.07,3.07,0,0,1-1.62-.44,3.2,3.2,0,0,1-1.13-1.23,4.22,4.22,0,0,1,0-3.63A3,3,0,0,1,138,65.86a3.07,3.07,0,0,1,1.51.37,2.44,2.44,0,0,1,1,.92V63.27s0-.05.1-.08a1,1,0,0,1,.26,0c.44,0,.67.3.67.89v8.19c0,.32-.15.47-.46.47h-.1a.39.39,0,0,1-.44-.44c0-.19,0-.48,0-.87a2.83,2.83,0,0,1-1,1,2.88,2.88,0,0,1-1.5.38Zm2.5-4.52a2.46,2.46,0,0,0-.87-1.18,2.37,2.37,0,0,0-1.43-.41,2.15,2.15,0,0,0-1.68.72,2.75,2.75,0,0,0-.64,1.9,3.09,3.09,0,0,0,.29,1.36,2.24,2.24,0,0,0,.83.94,2.2,2.2,0,0,0,1.19.33,2.4,2.4,0,0,0,1.16-.28,2.25,2.25,0,0,0,.84-.78,2.11,2.11,0,0,0,.31-1.11ZM142.87,71A1.71,1.71,0,0,1,144,69.32a9.08,9.08,0,0,1,3.57-.55h.15v-.28a1.71,1.71,0,0,0-.48-1.31,1.92,1.92,0,0,0-1.37-.45,2.44,2.44,0,0,0-1.29.32,2,2,0,0,0-.8.87.92.92,0,0,1-.5-.18.42.42,0,0,1-.13-.34.73.73,0,0,1,.11-.36,1.47,1.47,0,0,1,.3-.38,3,3,0,0,1,1-.57,4,4,0,0,1,1.39-.23,2.92,2.92,0,0,1,2.08.7,2.55,2.55,0,0,1,.73,1.94v4.12s0,0-.12.07a1,1,0,0,1-.25,0c-.35,0-.55-.22-.6-.64,0-.26,0-.47,0-.62a2.48,2.48,0,0,1-1,1,3.19,3.19,0,0,1-1.52.36,2.67,2.67,0,0,1-1.7-.5,1.64,1.64,0,0,1-.62-1.35Zm4.84-1.54-.24,0a7.81,7.81,0,0,0-2.73.39,1.16,1.16,0,0,0-.84,1.1,1,1,0,0,0,.4.82,1.72,1.72,0,0,0,1.09.31,2.59,2.59,0,0,0,1.18-.27,2.1,2.1,0,0,0,.84-.72,1.76,1.76,0,0,0,.3-1Zm7.58,3.41a1.82,1.82,0,0,1-1.41-.52,2.29,2.29,0,0,1-.47-1.58V66.87h-.67c-.3,0-.45-.13-.45-.38v-.1c0-.25.15-.37.45-.37h.67V64.85c0-.33.15-.49.46-.49H154c.3,0,.45.16.45.49V66h1.73c.3,0,.45.12.45.37v.09c0,.26-.15.39-.46.39h-1.74v3.71a1.85,1.85,0,0,0,.25,1.07.89.89,0,0,0,.77.32,1.18,1.18,0,0,0,1-.51s.05,0,.1,0a.53.53,0,0,1,.13.16.6.6,0,0,1,.06.27.69.69,0,0,1-.26.51,1.71,1.71,0,0,1-1.19.4Zm2.17-3.49a3.52,3.52,0,0,1,.44-1.79,3.26,3.26,0,0,1,1.23-1.24,3.6,3.6,0,0,1,1.81-.45,3.53,3.53,0,0,1,1.79.45A3.12,3.12,0,0,1,164,67.56a3.63,3.63,0,0,1,.45,1.81,3.48,3.48,0,0,1-.45,1.77,3.12,3.12,0,0,1-1.23,1.24,3.55,3.55,0,0,1-1.79.45,3.59,3.59,0,0,1-1.8-.45,3.15,3.15,0,0,1-1.24-1.24,3.69,3.69,0,0,1-.43-1.8Zm5.94,0a2.87,2.87,0,0,0-.32-1.36,2.31,2.31,0,0,0-.88-1,2.33,2.33,0,0,0-1.26-.34,2.48,2.48,0,0,0-1.27.33,2.35,2.35,0,0,0-.89.93,2.9,2.9,0,0,0-.32,1.36,2.86,2.86,0,0,0,.32,1.35,2.44,2.44,0,0,0,.89.94,2.39,2.39,0,0,0,1.27.34,2.42,2.42,0,0,0,1.26-.33,2.26,2.26,0,0,0,.88-.93,2.79,2.79,0,0,0,.32-1.34Zm5.2-3.51a1.18,1.18,0,0,1,.74.21.6.6,0,0,1,.28.52.75.75,0,0,1-.06.31.71.71,0,0,1-.15.18c-.06,0-.09.06-.1,0a1.18,1.18,0,0,0-.82-.28,1.33,1.33,0,0,0-1.23.73,4.17,4.17,0,0,0-.41,2v2.64c0,.32-.15.47-.44.47h-.12a.41.41,0,0,1-.47-.47V66.07s0,0,.11-.07a1.09,1.09,0,0,1,.26,0c.36,0,.56.23.61.67s0,.56,0,.73a2.17,2.17,0,0,1,.66-1.12,1.73,1.73,0,0,1,1.12-.38Zm4.51,7a1.86,1.86,0,0,1-1.42-.52,2.29,2.29,0,0,1-.46-1.58V66.87h-.68c-.29,0-.44-.13-.44-.38v-.1c0-.25.15-.37.44-.37h.68V64.85c0-.33.15-.49.46-.49h.11c.3,0,.45.16.45.49V66H174c.3,0,.45.12.45.37v.09c0,.26-.16.39-.46.39h-1.74v3.71a1.78,1.78,0,0,0,.25,1.07.89.89,0,0,0,.77.32,1.18,1.18,0,0,0,1-.51s0,0,.1,0a.53.53,0,0,1,.13.16.6.6,0,0,1,.06.27.69.69,0,0,1-.26.51,1.73,1.73,0,0,1-1.19.4ZM175.27,71a1.72,1.72,0,0,1,1.13-1.64,9.08,9.08,0,0,1,3.57-.55h.15v-.28a1.71,1.71,0,0,0-.48-1.31,1.92,1.92,0,0,0-1.37-.45,2.5,2.5,0,0,0-1.3.32,2,2,0,0,0-.79.87.74.74,0,0,1-.2,0,.61.61,0,0,1-.3-.15.42.42,0,0,1-.13-.34.82.82,0,0,1,.1-.36,1.79,1.79,0,0,1,.31-.38,3,3,0,0,1,1-.57,3.93,3.93,0,0,1,1.39-.23,2.92,2.92,0,0,1,2.08.7,2.55,2.55,0,0,1,.73,1.94v4.12s0,0-.12.07a1.09,1.09,0,0,1-.25,0c-.36,0-.56-.22-.6-.64,0-.26,0-.47,0-.62a2.48,2.48,0,0,1-1,1,3.19,3.19,0,0,1-1.52.36,2.65,2.65,0,0,1-1.7-.5,1.65,1.65,0,0,1-.63-1.35Zm4.85-1.54-.24,0a7.81,7.81,0,0,0-2.73.39,1.16,1.16,0,0,0-.84,1.1,1,1,0,0,0,.4.82,1.72,1.72,0,0,0,1.09.31,2.59,2.59,0,0,0,1.18-.27,2,2,0,0,0,.83-.72,1.7,1.7,0,0,0,.31-1Z"/></svg>