<?xml version="1.0" encoding="utf-8"?>
<!-- Generator: Adobe Illustrator 16.0.0, SVG Export Plug-In . SVG Version: 6.00 Build 0)  -->
<!DOCTYPE svg PUBLIC "-//W3C//DTD SVG 1.1//EN" "http://www.w3.org/Graphics/SVG/1.1/DTD/svg11.dtd">
<svg version="1.1" id="Layer_1" xmlns="http://www.w3.org/2000/svg" xmlns:xlink="http://www.w3.org/1999/xlink" x="0px" y="0px"
	 width="510.236px" height="141.732px" viewBox="0 0 510.236 141.732" enable-background="new 0 0 510.236 141.732"
	 xml:space="preserve">
<g>
	<path fill="#A87C4F" stroke="#231F20" stroke-linecap="round" stroke-linejoin="round" stroke-miterlimit="10" d="M109.467,13.982"
		/>
	<circle fill="#F7C434" stroke="#000000" stroke-miterlimit="10" cx="78.052" cy="71.946" r="43.228"/>
	<g>
		<path fill="#F9BF76" d="M78.052,124.835c-29.162,0-52.889-23.729-52.889-52.889c0-29.164,23.726-52.888,52.889-52.888
			s52.889,23.727,52.889,52.888C130.938,101.106,107.215,124.835,78.052,124.835z M78.052,27.966
			c-24.25,0-43.979,19.73-43.979,43.98c0,24.248,19.729,43.977,43.979,43.977s43.979-19.729,43.979-43.977
			C122.029,47.695,102.302,27.966,78.052,27.966z"/>
	</g>
	<g>
		<circle fill="#D1313D" cx="77.078" cy="42.242" r="3.201"/>
		<circle fill="#D1313D" cx="58.546" cy="48.842" r="4.205"/>
		<circle fill="#D1313D" cx="68.723" cy="60.423" r="4.205"/>
		<circle fill="#D1313D" cx="101.514" cy="86.602" r="4.205"/>
		<circle fill="#D1313D" cx="46.712" cy="68.673" r="5.207"/>
		<circle fill="#D1313D" cx="90.99" cy="95.535" r="3.019"/>
		<circle fill="#D1313D" cx="104.969" cy="72.162" r="2.698"/>
		<circle fill="#D1313D" cx="64.093" cy="79.547" r="3.188"/>
		<circle fill="#D1313D" cx="86.777" cy="63.29" r="4.34"/>
		<circle fill="#D1313D" cx="94.01" cy="46.581" r="4.34"/>
		<circle fill="#D1313D" cx="104.463" cy="59.684" r="3.71"/>
		<circle fill="#D1313D" cx="53.344" cy="88.491" r="4.022"/>
		<circle fill="#D1313D" cx="73.302" cy="101.798" r="5.73"/>
		<circle fill="#D1313D" cx="82.662" cy="81.675" r="5.73"/>
	</g>
	<line fill="none" stroke="#FFFFFF" stroke-width="4" stroke-miterlimit="10" x1="77.119" y1="16.75" x2="77.119" y2="127.751"/>
	<line fill="none" stroke="#FFFFFF" stroke-width="4" stroke-miterlimit="10" x1="22.118" y1="72.751" x2="133.119" y2="72.751"/>
	<circle fill="#F7C434" stroke="#000000" stroke-miterlimit="10" cx="433.054" cy="69.946" r="43.228"/>
	<g>
		<path fill="#F9BF76" d="M433.052,122.835c-29.162,0-52.889-23.729-52.889-52.889c0-29.162,23.727-52.888,52.889-52.888
			c29.164,0,52.893,23.727,52.893,52.889C485.939,99.106,462.214,122.835,433.052,122.835z M433.052,25.966
			c-24.25,0-43.979,19.73-43.979,43.98s19.729,43.976,43.979,43.976s43.98-19.729,43.98-43.976
			C477.031,45.695,457.302,25.966,433.052,25.966z"/>
	</g>
	<g>
		<circle fill="#D1313D" cx="432.077" cy="40.242" r="3.201"/>
		<circle fill="#D1313D" cx="413.546" cy="46.842" r="4.205"/>
		<circle fill="#D1313D" cx="423.723" cy="58.423" r="4.205"/>
		<circle fill="#D1313D" cx="456.514" cy="84.602" r="4.205"/>
		<circle fill="#D1313D" cx="401.712" cy="66.673" r="5.207"/>
		<circle fill="#D1313D" cx="445.989" cy="93.535" r="3.019"/>
		<circle fill="#D1313D" cx="459.969" cy="70.162" r="2.698"/>
		<circle fill="#D1313D" cx="419.093" cy="77.547" r="3.188"/>
		<circle fill="#D1313D" cx="441.779" cy="61.29" r="4.34"/>
		<circle fill="#D1313D" cx="449.009" cy="44.581" r="4.34"/>
		<circle fill="#D1313D" cx="459.462" cy="57.684" r="3.71"/>
		<circle fill="#D1313D" cx="408.344" cy="86.491" r="4.022"/>
		<circle fill="#D1313D" cx="428.302" cy="99.798" r="5.73"/>
		<circle fill="#D1313D" cx="437.661" cy="79.675" r="5.73"/>
	</g>
	<polyline fill="none" stroke="#FFFFFF" stroke-width="4" stroke-miterlimit="10" points="432.118,14.75 432.118,70.75 
		396.298,107.921 	"/>
	<line fill="none" stroke="#FFFFFF" stroke-width="4" stroke-miterlimit="10" x1="377.118" y1="70.75" x2="488.118" y2="70.75"/>
	<circle fill="#F7C434" stroke="#000000" stroke-miterlimit="10" cx="254.053" cy="73.946" r="43.228"/>
	<g>
		<path fill="#F9BF76" d="M254.052,126.835c-29.162,0-52.889-23.729-52.889-52.889c0-29.164,23.726-52.888,52.889-52.888
			c29.164,0,52.891,23.727,52.891,52.888C306.938,103.106,283.214,126.835,254.052,126.835z M254.052,29.966
			c-24.25,0-43.979,19.73-43.979,43.98c0,24.248,19.729,43.977,43.979,43.977s43.98-19.729,43.98-43.977
			C298.031,49.695,278.302,29.966,254.052,29.966z"/>
	</g>
	<g>
		<circle fill="#D1313D" cx="253.078" cy="44.242" r="3.201"/>
		<circle fill="#D1313D" cx="234.546" cy="50.842" r="4.205"/>
		<circle fill="#D1313D" cx="244.723" cy="62.423" r="4.205"/>
		<circle fill="#D1313D" cx="277.514" cy="88.602" r="4.205"/>
		<circle fill="#D1313D" cx="222.712" cy="70.673" r="5.207"/>
		<circle fill="#D1313D" cx="266.989" cy="97.535" r="3.019"/>
		<circle fill="#D1313D" cx="280.969" cy="74.162" r="2.698"/>
		<circle fill="#D1313D" cx="240.093" cy="81.547" r="3.188"/>
		<circle fill="#D1313D" cx="262.779" cy="65.29" r="4.34"/>
		<circle fill="#D1313D" cx="270.009" cy="48.581" r="4.34"/>
		<circle fill="#D1313D" cx="280.462" cy="61.684" r="3.71"/>
		<circle fill="#D1313D" cx="229.344" cy="90.491" r="4.022"/>
		<circle fill="#D1313D" cx="249.302" cy="103.798" r="5.73"/>
		<circle fill="#D1313D" cx="258.661" cy="83.675" r="5.73"/>
	</g>
	<line fill="none" stroke="#FFFFFF" stroke-width="4" stroke-miterlimit="10" x1="227.509" y1="25.011" x2="278.728" y2="123.489"/>
	<line fill="none" stroke="#FFFFFF" stroke-width="4" stroke-miterlimit="10" x1="229.777" y1="124.87" x2="277.456" y2="24.63"/>
	<path fill="none" stroke="#231F20" stroke-linecap="round" stroke-linejoin="round" stroke-miterlimit="10" d="M82.662,19.257
		c0,0,43.261,5.754,48.276,47.371c3.12,25.871-11.985,44.729-29.424,52.705c-32.791,15.002-58.125-4.873-64.001-13.463"/>
	<path fill="none" stroke="#231F20" stroke-linecap="round" stroke-linejoin="round" stroke-miterlimit="10" d="M257.661,20.257
		c0,0,43.262,5.754,48.277,47.371c3.119,25.871-11.986,44.729-29.426,52.705c-32.791,15.002-58.125-4.873-64-13.463"/>
	<path fill="none" stroke="#231F20" stroke-linecap="round" stroke-linejoin="round" stroke-miterlimit="10" d="M436.661,16.257
		c0,0,43.262,5.754,48.276,47.371c3.121,25.871-11.985,44.729-29.425,52.705c-32.79,15.002-58.125-4.873-64-13.463"/>
</g>
</svg>
