<svg id="Camada_1" data-name="Camada 1" xmlns="http://www.w3.org/2000/svg" viewBox="0 0 290.2 81.63"><defs><style>.cls-1,.cls-2{fill:none;stroke:#000;stroke-width:0.4px;}.cls-1{stroke-miterlimit:10;}.cls-2{stroke-linecap:round;stroke-linejoin:round;}</style></defs><line class="cls-1" x1="33.59" y1="33.53" x2="256.42" y2="33.53"/><path class="cls-2" d="M254.55,31.13a3.15,3.15,0,0,0,2.07,2.4,3.12,3.12,0,0,0-2.07,2.39"/><line class="cls-1" x1="65.48" y1="30.54" x2="65.48" y2="36.51"/><path d="M65.45,51.09a3.54,3.54,0,0,1-1.94-.52,3.42,3.42,0,0,1-1.27-1.5,5.46,5.46,0,0,1-.44-2.3v-.94a5.46,5.46,0,0,1,.44-2.3A3.35,3.35,0,0,1,63.52,42a3.94,3.94,0,0,1,3.91,0,3.37,3.37,0,0,1,1.28,1.5,5.41,5.41,0,0,1,.45,2.29v.94a5.34,5.34,0,0,1-.46,2.3,3.47,3.47,0,0,1-1.28,1.51,3.52,3.52,0,0,1-2,.53Zm0-.92a2.26,2.26,0,0,0,1.91-.88,4,4,0,0,0,.69-2.5v-1a4.07,4.07,0,0,0-.69-2.51,2.28,2.28,0,0,0-1.91-.9,2.25,2.25,0,0,0-1.9.9,4,4,0,0,0-.68,2.49v1a4,4,0,0,0,.69,2.5,2.24,2.24,0,0,0,1.89.9Z"/><line class="cls-1" x1="224.93" y1="30.54" x2="224.93" y2="36.51"/><path d="M225.28,50.89c-.3,0-.45-.17-.45-.5V43.13a1.16,1.16,0,0,1-.44.38,1.33,1.33,0,0,1-.6.14,1.17,1.17,0,0,1-.82-.29.75.75,0,0,1-.23-.55.64.64,0,0,1,.06-.28.65.65,0,0,1,.15-.2c.05,0,.09-.07.1-.06a1.05,1.05,0,0,0,.82.34,1.1,1.1,0,0,0,.8-.32,1.12,1.12,0,0,0,.36-.79h.39c.32,0,.48.16.48.5v8.39c0,.33-.16.5-.48.5Z"/></svg>