<svg id="Camada_1" data-name="Camada 1" xmlns="http://www.w3.org/2000/svg" viewBox="0 0 293.05 101.39"><defs><style>.cls-1{fill:#95d4e9;opacity:0.3;}.cls-2{fill:none;stroke:#000;stroke-miterlimit:10;stroke-width:0.4px;}</style></defs><rect class="cls-1" x="14.61" y="13.82" width="56.69" height="56.69"/><rect class="cls-2" x="14.61" y="13.82" width="56.69" height="56.69"/><line class="cls-2" x1="14.61" y1="70.51" x2="71.3" y2="13.82"/><path d="M38.37,87.66a2.38,2.38,0,0,1-1-.28,3.9,3.9,0,0,1-1-.81A6.05,6.05,0,0,1,35,84.44a8.39,8.39,0,0,1-.47-2.87,8,8,0,0,1,.49-2.84,6.11,6.11,0,0,1,1.27-2.12,4,4,0,0,1,1.06-.82,2.14,2.14,0,0,1,1-.28c.31,0,.46.13.46.4a.68.68,0,0,1,0,.23c0,.09-.08.13-.11.14a3.12,3.12,0,0,0-1.61,1A5.27,5.27,0,0,0,36,79.14a7.62,7.62,0,0,0-.38,2.42A7.85,7.85,0,0,0,36,84a5.27,5.27,0,0,0,1.08,1.89,3.11,3.11,0,0,0,1.61,1s.07.06.11.14a.69.69,0,0,1,0,.24c0,.26-.15.4-.46.4Zm1.29-2.77a.72.72,0,0,1-.38-.13c-.12-.08-.17-.14-.15-.19l3.33-8.72a.47.47,0,0,1,.25-.27,1.17,1.17,0,0,1,.53-.09,1.2,1.2,0,0,1,.53.09.49.49,0,0,1,.24.27l3.34,8.72c0,.05,0,.11-.15.19a.8.8,0,0,1-.41.13.63.63,0,0,1-.67-.5l-1-2.53H41.3l-1,2.54a.68.68,0,0,1-.27.4.51.51,0,0,1-.38.09ZM44.86,81l-1.64-4.36L41.57,81Zm2.7,6.69c-.32,0-.48-.14-.48-.4a.44.44,0,0,1,.07-.24.4.4,0,0,1,.09-.14,3.16,3.16,0,0,0,1.63-1A5.11,5.11,0,0,0,49.94,84a7.85,7.85,0,0,0,.37-2.47,7.64,7.64,0,0,0-.37-2.43,5.14,5.14,0,0,0-1.07-1.88,3.18,3.18,0,0,0-1.63-1s-.06,0-.1-.14a.53.53,0,0,1-.06-.23c0-.27.16-.4.48-.4a2.21,2.21,0,0,1,1,.3,4,4,0,0,1,1.07.87,6.12,6.12,0,0,1,1.24,2.1,8.69,8.69,0,0,1,0,5.61,6,6,0,0,1-1.23,2.1,4,4,0,0,1-1.09.87,2.21,2.21,0,0,1-1,.3Z"/><rect class="cls-1" x="83.66" y="13.83" width="56.69" height="56.69"/><rect class="cls-2" x="83.66" y="13.83" width="56.69" height="56.69"/><line class="cls-2" x1="83.66" y1="51.63" x2="140.35" y2="51.63"/><line class="cls-2" x1="83.66" y1="32.73" x2="140.35" y2="32.73"/><path d="M107.3,87.66a2.31,2.31,0,0,1-1-.28,4.1,4.1,0,0,1-1.06-.81A6.2,6.2,0,0,1,104,84.44a8.39,8.39,0,0,1-.47-2.87,8,8,0,0,1,.49-2.84,5.88,5.88,0,0,1,1.28-2.12,4.11,4.11,0,0,1,1-.83,2.27,2.27,0,0,1,1-.28c.3,0,.46.14.46.41a.53.53,0,0,1-.06.23c0,.08-.07.13-.1.14a3.19,3.19,0,0,0-1.62,1,5.14,5.14,0,0,0-1.07,1.88,7.73,7.73,0,0,0-.38,2.43,7.85,7.85,0,0,0,.38,2.47A5.11,5.11,0,0,0,106,85.92a3.17,3.17,0,0,0,1.62,1s.06.06.1.14a.53.53,0,0,1,.06.23c0,.27-.16.41-.46.41Zm2.22-2.82a.54.54,0,0,1-.43-.17.67.67,0,0,1-.16-.46v-8a.69.69,0,0,1,.16-.46.58.58,0,0,1,.43-.17h2.93a3.56,3.56,0,0,1,2.24.62,2.14,2.14,0,0,1,.77,1.76,1.92,1.92,0,0,1-.43,1.3,2.45,2.45,0,0,1-1.26.74,2.71,2.71,0,0,1,1.57.81,2.17,2.17,0,0,1,.52,1.49,2.25,2.25,0,0,1-.84,1.93,4.22,4.22,0,0,1-2.54.63Zm2.86-5.13a2.14,2.14,0,0,0,1.44-.45,1.51,1.51,0,0,0,.52-1.2c0-1.07-.67-1.61-2-1.61H110v3.26Zm.05,4.24a3,3,0,0,0,1.77-.4,1.59,1.59,0,0,0,.54-1.35,1.46,1.46,0,0,0-.57-1.26,2.91,2.91,0,0,0-1.72-.41H110V84Zm4.29,3.71c-.31,0-.47-.14-.47-.41a.53.53,0,0,1,.06-.23.55.55,0,0,1,.1-.14,3.16,3.16,0,0,0,1.63-1A5,5,0,0,0,119.1,84a7.85,7.85,0,0,0,.38-2.47,7.64,7.64,0,0,0-.38-2.43A5,5,0,0,0,118,77.25a3.18,3.18,0,0,0-1.63-1,.24.24,0,0,1-.1-.14.53.53,0,0,1-.06-.23c0-.27.16-.41.47-.41a2.27,2.27,0,0,1,1,.31,4,4,0,0,1,1.07.87,6.12,6.12,0,0,1,1.24,2.1,8.69,8.69,0,0,1,0,5.61,6.14,6.14,0,0,1-1.23,2.1,4,4,0,0,1-1.09.87,2.24,2.24,0,0,1-1,.3Z"/><rect class="cls-1" x="152.7" y="13.73" width="56.69" height="56.69"/><rect class="cls-2" x="152.7" y="13.73" width="56.69" height="56.69"/><line class="cls-2" x1="152.7" y1="70.42" x2="209.4" y2="13.73"/><line class="cls-2" x1="209.4" y1="70.42" x2="152.7" y2="13.73"/><path d="M175.87,87.66a2.38,2.38,0,0,1-1-.28,3.9,3.9,0,0,1-1.05-.81,5.91,5.91,0,0,1-1.28-2.13,8.82,8.82,0,0,1,0-5.71,6.12,6.12,0,0,1,1.28-2.12,4,4,0,0,1,1.05-.82,2.17,2.17,0,0,1,1-.28c.31,0,.46.13.46.4a.53.53,0,0,1-.06.23c0,.09-.07.13-.1.14a3.12,3.12,0,0,0-1.61,1,5.12,5.12,0,0,0-1.08,1.89,7.62,7.62,0,0,0-.38,2.42,7.85,7.85,0,0,0,.38,2.47,5.12,5.12,0,0,0,1.08,1.89,3.11,3.11,0,0,0,1.61,1s.06.06.1.14a.53.53,0,0,1,.06.24c0,.26-.15.4-.46.4Zm1.22-7.43a5.33,5.33,0,0,1,.57-2.5A4.28,4.28,0,0,1,179.27,76a4.55,4.55,0,0,1,2.37-.61,4.6,4.6,0,0,1,1.63.27,3.7,3.7,0,0,1,1.17.69,2,2,0,0,1,.45.53,1,1,0,0,1,.16.49.52.52,0,0,1-.14.39.69.69,0,0,1-.32.2c-.12,0-.19,0-.21,0a2.84,2.84,0,0,0-1.11-1.2,3.1,3.1,0,0,0-1.65-.45,3.18,3.18,0,0,0-1.77.49,3.33,3.33,0,0,0-1.21,1.36,4.84,4.84,0,0,0,0,4,3.26,3.26,0,0,0,3,1.85,3,3,0,0,0,1.8-.53,2.6,2.6,0,0,0,1-1.32s.08,0,.21,0a.8.8,0,0,1,.35.19.5.5,0,0,1,.16.39,1.24,1.24,0,0,1-.18.56,2.57,2.57,0,0,1-.52.64,3.46,3.46,0,0,1-1.21.71,5,5,0,0,1-4-.32,4.18,4.18,0,0,1-1.59-1.69,5.3,5.3,0,0,1-.57-2.48Zm9.14,7.43c-.32,0-.47-.14-.47-.4a.53.53,0,0,1,.06-.24.4.4,0,0,1,.09-.14,3.08,3.08,0,0,0,1.63-1A5,5,0,0,0,188.61,84a7.85,7.85,0,0,0,.37-2.47,7.64,7.64,0,0,0-.37-2.43,5,5,0,0,0-1.07-1.88,3.1,3.1,0,0,0-1.63-1,.3.3,0,0,1-.1-.14.5.5,0,0,1-.05-.23c0-.27.15-.4.47-.4a2.21,2.21,0,0,1,1,.3,4.05,4.05,0,0,1,1.08.87,6,6,0,0,1,1.23,2.1,8,8,0,0,1,.48,2.79,8.47,8.47,0,0,1-.46,2.82,6,6,0,0,1-1.24,2.1,3.73,3.73,0,0,1-1.09.87,2.21,2.21,0,0,1-1,.3Z"/><rect class="cls-1" x="221.75" y="13.83" width="56.69" height="56.69"/><rect class="cls-2" x="221.75" y="13.83" width="56.69" height="56.69"/><line class="cls-2" x1="250.1" y1="70.52" x2="250.1" y2="13.83"/><line class="cls-2" x1="221.75" y1="42.18" x2="278.44" y2="42.18"/><path d="M245.05,87.66a2.38,2.38,0,0,1-1-.28,3.9,3.9,0,0,1-1-.81,6.05,6.05,0,0,1-1.28-2.13,8.39,8.39,0,0,1-.47-2.87,8,8,0,0,1,.49-2.84A6,6,0,0,1,243,76.61a4.33,4.33,0,0,1,1.06-.83,2.27,2.27,0,0,1,1-.28c.31,0,.46.14.46.41a.68.68,0,0,1,0,.23c0,.08-.08.13-.11.14a3.12,3.12,0,0,0-1.61,1,5.31,5.31,0,0,0-1.08,1.88,7.73,7.73,0,0,0-.38,2.43,7.85,7.85,0,0,0,.38,2.47,5.27,5.27,0,0,0,1.08,1.89,3.11,3.11,0,0,0,1.61,1s.07.06.11.14a.68.68,0,0,1,0,.23c0,.27-.15.41-.46.41Zm1.64-11.47a.64.64,0,0,1,.17-.45.56.56,0,0,1,.42-.18h2.19a6,6,0,0,1,2.65.55,3.87,3.87,0,0,1,1.7,1.6,5,5,0,0,1,.59,2.47,4.84,4.84,0,0,1-.61,2.49,4,4,0,0,1-1.73,1.61,5.91,5.91,0,0,1-2.68.56h-2.08a.6.6,0,0,1-.62-.61Zm2.74,7.72a4,4,0,0,0,2.85-1,4.21,4.21,0,0,0,0-5.47,3.93,3.93,0,0,0-2.84-1h-1.68v7.42Zm5.72,3.75c-.31,0-.47-.14-.47-.41a.53.53,0,0,1,.06-.23.55.55,0,0,1,.1-.14,3.16,3.16,0,0,0,1.63-1A5,5,0,0,0,257.53,84a7.85,7.85,0,0,0,.38-2.47,7.64,7.64,0,0,0-.38-2.43,5,5,0,0,0-1.06-1.88,3.18,3.18,0,0,0-1.63-1s-.06-.06-.1-.14a.53.53,0,0,1-.06-.23c0-.27.16-.41.47-.41a2.27,2.27,0,0,1,1,.31,4,4,0,0,1,1.07.87,6.12,6.12,0,0,1,1.24,2.1,8.69,8.69,0,0,1,0,5.61,6.14,6.14,0,0,1-1.23,2.1,4,4,0,0,1-1.09.87,2.24,2.24,0,0,1-1,.3Z"/></svg>