<svg id="Camada_1" data-name="Camada 1" xmlns="http://www.w3.org/2000/svg" viewBox="0 0 489.31 70.94"><defs><style>.cls-1,.cls-2{fill:none;stroke:#000;stroke-width:0.4px;}.cls-1{stroke-miterlimit:10;}.cls-2{stroke-linecap:round;stroke-linejoin:round;}</style></defs><line class="cls-1" x1="47.08" y1="35.47" x2="441.83" y2="35.47"/><path class="cls-2" d="M440,33.08A3.17,3.17,0,0,0,442,35.47,3.17,3.17,0,0,0,440,37.86"/><line class="cls-1" x1="56.71" y1="32.48" x2="56.71" y2="38.46"/><line class="cls-1" x1="66.35" y1="32.48" x2="66.35" y2="38.46"/><line class="cls-1" x1="75.99" y1="32.48" x2="75.99" y2="38.46"/><line class="cls-1" x1="85.63" y1="32.48" x2="85.63" y2="38.46"/><line class="cls-1" x1="95.27" y1="32.48" x2="95.27" y2="38.46"/><line class="cls-1" x1="104.91" y1="32.48" x2="104.91" y2="38.46"/><line class="cls-1" x1="114.54" y1="32.48" x2="114.54" y2="38.46"/><line class="cls-1" x1="124.18" y1="32.48" x2="124.18" y2="38.46"/><line class="cls-1" x1="133.82" y1="32.48" x2="133.82" y2="38.46"/><line class="cls-1" x1="143.46" y1="32.48" x2="143.46" y2="38.46"/><line class="cls-1" x1="153.1" y1="32.48" x2="153.1" y2="38.46"/><line class="cls-1" x1="162.74" y1="32.48" x2="162.74" y2="38.46"/><line class="cls-1" x1="172.38" y1="32.48" x2="172.38" y2="38.46"/><line class="cls-1" x1="182.01" y1="32.48" x2="182.01" y2="38.46"/><line class="cls-1" x1="191.65" y1="32.48" x2="191.65" y2="38.46"/><line class="cls-1" x1="201.29" y1="32.48" x2="201.29" y2="38.46"/><line class="cls-1" x1="210.93" y1="32.48" x2="210.93" y2="38.46"/><line class="cls-1" x1="220.57" y1="32.48" x2="220.57" y2="38.46"/><line class="cls-1" x1="230.21" y1="32.48" x2="230.21" y2="38.46"/><line class="cls-1" x1="239.85" y1="32.48" x2="239.85" y2="38.46"/><line class="cls-1" x1="249.48" y1="32.48" x2="249.48" y2="38.46"/><line class="cls-1" x1="259.12" y1="32.48" x2="259.12" y2="38.46"/><line class="cls-1" x1="268.76" y1="32.48" x2="268.76" y2="38.46"/><line class="cls-1" x1="278.4" y1="32.48" x2="278.4" y2="38.46"/><line class="cls-1" x1="288.04" y1="32.48" x2="288.04" y2="38.46"/><line class="cls-1" x1="297.68" y1="32.48" x2="297.68" y2="38.46"/><line class="cls-1" x1="307.32" y1="32.48" x2="307.32" y2="38.46"/><line class="cls-1" x1="316.95" y1="32.48" x2="316.95" y2="38.46"/><line class="cls-1" x1="326.59" y1="32.48" x2="326.59" y2="38.46"/><line class="cls-1" x1="336.23" y1="32.48" x2="336.23" y2="38.46"/><line class="cls-1" x1="345.87" y1="32.48" x2="345.87" y2="38.46"/><line class="cls-1" x1="355.51" y1="32.48" x2="355.51" y2="38.46"/><line class="cls-1" x1="365.15" y1="32.48" x2="365.15" y2="38.46"/><line class="cls-1" x1="374.78" y1="32.48" x2="374.78" y2="38.46"/><line class="cls-1" x1="384.42" y1="32.48" x2="384.42" y2="38.46"/><line class="cls-1" x1="394.06" y1="32.48" x2="394.06" y2="38.46"/><line class="cls-1" x1="403.7" y1="32.48" x2="403.7" y2="38.46"/><line class="cls-1" x1="413.34" y1="32.48" x2="413.34" y2="38.46"/><line class="cls-1" x1="422.98" y1="32.48" x2="422.98" y2="38.46"/></svg>