<?xml version="1.0" encoding="utf-8"?>
<!-- Generator: Adobe Illustrator 16.0.0, SVG Export Plug-In . SVG Version: 6.00 Build 0)  -->
<!DOCTYPE svg PUBLIC "-//W3C//DTD SVG 1.1//EN" "http://www.w3.org/Graphics/SVG/1.1/DTD/svg11.dtd">
<svg version="1.1" id="Layer_1" xmlns="http://www.w3.org/2000/svg" xmlns:xlink="http://www.w3.org/1999/xlink" x="0px" y="0px"
	 width="141.73px" height="141.73px" viewBox="0 0 141.73 141.73" enable-background="new 0 0 141.73 141.73" xml:space="preserve">
<path fill="#A87C4F" stroke="#231F20" stroke-linecap="round" stroke-linejoin="round" stroke-miterlimit="10" d="M103.739,9.817"/>
<circle fill="#F7C434" stroke="#000000" stroke-width="1.5" stroke-miterlimit="10" cx="71.607" cy="69.107" r="44.982"/>
<g>
	<path fill="#F9BF76" d="M71.607,123.203c-29.827,0-54.097-24.268-54.097-54.096S41.78,15.01,71.607,15.01
		c29.829,0,54.097,24.269,54.097,54.097S101.437,123.203,71.607,123.203z M71.607,24.125c-24.804,0-44.982,20.178-44.982,44.982
		c0,24.803,20.18,44.982,44.982,44.982c24.804,0,44.982-20.18,44.982-44.982C116.591,44.302,96.411,24.125,71.607,24.125z"/>
</g>
<g>
	<circle fill="#D1313D" cx="70.611" cy="38.725" r="3.274"/>
	<circle fill="#D1313D" cx="51.656" cy="45.477" r="4.301"/>
	<circle fill="#D1313D" cx="62.069" cy="57.322" r="4.301"/>
	<circle fill="#D1313D" cx="95.609" cy="84.099" r="4.301"/>
	<circle fill="#D1313D" cx="39.552" cy="65.761" r="5.325"/>
	<circle fill="#D1313D" cx="84.842" cy="93.235" r="3.087"/>
	<circle fill="#D1313D" cx="99.142" cy="69.328" r="2.76"/>
	<circle fill="#D1313D" cx="57.33" cy="76.881" r="3.261"/>
	<circle fill="#D1313D" cx="80.534" cy="60.254" r="4.439"/>
	<circle fill="#D1313D" cx="87.928" cy="43.164" r="4.439"/>
	<circle fill="#D1313D" cx="98.622" cy="56.563" r="3.795"/>
	<circle fill="#D1313D" cx="46.336" cy="86.031" r="4.116"/>
	<circle fill="#D1313D" cx="66.75" cy="99.641" r="5.862"/>
	<circle fill="#D1313D" cx="76.324" cy="79.058" r="5.862"/>
</g>
<line fill="none" stroke="#FFFFFF" stroke-width="4" stroke-miterlimit="10" x1="99.758" y1="118.553" x2="71.229" y2="69.141"/>
<line fill="none" stroke="#FFFFFF" stroke-width="4" stroke-miterlimit="10" x1="71.344" y1="69.342" x2="99.758" y2="20.126"/>
<line fill="none" stroke="#FFFFFF" stroke-width="4" stroke-miterlimit="10" x1="14" y1="69" x2="71" y2="69"/>
<path fill="none" stroke="#231F20" stroke-linecap="round" stroke-linejoin="round" stroke-miterlimit="10" d="M76.322,15.216
	c0,0,44.249,5.886,49.382,48.453c3.191,26.462-12.262,45.748-30.095,53.907c-33.54,15.346-59.452-4.982-65.463-13.771"/>
<path fill="#F7C434" d="M95.133,51.26"/>
</svg>
