<?xml version="1.0" encoding="utf-8"?>
<!-- Generator: Adobe Illustrator 16.0.0, SVG Export Plug-In . SVG Version: 6.00 Build 0)  -->
<!DOCTYPE svg PUBLIC "-//W3C//DTD SVG 1.1//EN" "http://www.w3.org/Graphics/SVG/1.1/DTD/svg11.dtd">
<svg version="1.1" id="Layer_1" xmlns="http://www.w3.org/2000/svg" xmlns:xlink="http://www.w3.org/1999/xlink" x="0px" y="0px"
	 width="481.891px" height="155.91px" viewBox="0 0 481.891 155.91" enable-background="new 0 0 481.891 155.91"
	 xml:space="preserve">
<path fill="none" stroke="#A7A9AC" stroke-width="3" stroke-linecap="round" stroke-linejoin="round" stroke-miterlimit="10" d="
	M11.736,19.786c0,0,81.816,51.27,219.192,51.224c145.031-0.047,221.785-48.063,239.784-56.088"/>
<rect x="340.32" y="72.263" transform="matrix(-0.9755 0.2199 -0.2199 -0.9755 735.9467 118.7361)" fill="#FFFFFF" stroke="#D1D3D4" stroke-width="2" stroke-linecap="round" stroke-linejoin="round" stroke-miterlimit="10" width="42.092" height="56.121"/>
<rect x="97.382" y="71.632" transform="matrix(-0.975 -0.2221 0.2221 -0.975 211.7496 223.1999)" fill="#FFFFFF" stroke="#D1D3D4" stroke-width="2" stroke-linecap="round" stroke-linejoin="round" stroke-miterlimit="10" width="42.09" height="56.12"/>
<g>
	<path d="M127.195,104.134c-2.065,9.07-6.572,13.311-12.48,11.964c-5.211-1.187-7.628-6.874-5.701-15.716
		c2.038-8.947,7.018-12.992,12.434-11.759C127.069,89.904,129.129,95.64,127.195,104.134z M112.615,101.244
		c-1.58,6.937-0.343,11.362,2.939,12.109c3.693,0.842,6.439-3.064,7.991-9.877c1.495-6.566,0.794-11.259-2.94-12.109
		C117.445,90.648,114.269,93.98,112.615,101.244z"/>
</g>
<g>
	<path d="M359.035,93.108l-0.082,0.019l-4.074,3.549l-1.317-2.592l5.126-4.436l3.078-0.694l6.018,26.688l-3.491,0.787
		L359.035,93.108z"/>
</g>
<polygon fill="#A7A9AC" points="123.69,64.456 124.008,63.024 128.623,64.047 132.432,46.86 125.749,45.378 118.129,79.753 
	124.813,81.234 128.305,65.479 "/>
<polygon fill="#A7A9AC" points="349.839,65.068 349.446,63.655 354,62.387 349.279,45.429 342.684,47.264 352.126,81.184 
	358.721,79.348 354.394,63.801 "/>
</svg>
