<svg id="Camada_1" data-name="Camada 1" xmlns="http://www.w3.org/2000/svg" viewBox="0 0 249.55 278.53"><defs><style>.cls-1{fill:#95d4e9;opacity:0.3;}.cls-2,.cls-4,.cls-6{fill:none;stroke:#000;}.cls-2,.cls-6{stroke-miterlimit:10;}.cls-2,.cls-4{stroke-width:0.4px;}.cls-3{fill:#e6164d;}.cls-4{stroke-linecap:round;stroke-linejoin:round;}.cls-5{font-size:14.35px;font-family:CMR12;}.cls-6{stroke-width:0.99px;}</style></defs><rect class="cls-1" x="45.15" y="30.3" width="159.45" height="15.95"/><path class="cls-2" d="M45.15,46.25v0Z"/><path class="cls-2" d="M204.6,46.25V30.3m-31.89,16V30.3m-31.89,16V30.3m-31.89,16V30.3M77,46.25V30.3m-31.89,16V30.3m0,16H204.6"/><line class="cls-2" x1="45.15" y1="30.3" x2="204.6" y2="30.3"/><rect class="cls-1" x="77.04" y="54.22" width="127.56" height="15.95"/><rect class="cls-3" x="45.15" y="54.22" width="31.89" height="15.95"/><rect class="cls-2" x="45.15" y="54.22" width="31.89" height="15.95"/><path class="cls-2" d="M204.6,70.16V54.22M172.71,70.16V54.22M140.82,70.16V54.22M108.93,70.16V54.22M77,70.16V54.22M45.15,70.16V54.22m0,15.94H204.6"/><line class="cls-2" x1="45.15" y1="54.22" x2="204.6" y2="54.22"/><rect class="cls-1" x="108.93" y="78.14" width="95.67" height="15.95"/><rect class="cls-3" x="45.15" y="78.14" width="63.78" height="15.95"/><rect class="cls-2" x="45.15" y="78.14" width="63.78" height="15.95"/><path class="cls-2" d="M204.6,94.08V78.14M172.71,94.08V78.14M140.82,94.08V78.14M108.93,94.08V78.14M77,94.08V78.14M45.15,94.08V78.14m0,15.94H204.6"/><line class="cls-2" x1="45.15" y1="78.14" x2="204.6" y2="78.14"/><rect class="cls-1" x="140.82" y="102.05" width="63.78" height="15.95"/><rect class="cls-3" x="45.15" y="102.05" width="95.67" height="15.95"/><rect class="cls-2" x="45.15" y="102.05" width="95.67" height="15.95"/><path class="cls-2" d="M204.6,118v-16m-31.89,16v-16m-31.89,16v-16m-31.89,16v-16M77,118v-16M45.15,118v-16m0,16H204.6"/><line class="cls-2" x1="45.15" y1="102.05" x2="204.6" y2="102.05"/><rect class="cls-1" x="172.71" y="125.97" width="31.89" height="15.95"/><rect class="cls-3" x="45.15" y="125.97" width="127.56" height="15.95"/><rect class="cls-2" x="45.15" y="125.97" width="127.56" height="15.95"/><path class="cls-2" d="M204.6,141.91V126m-31.89,15.94V126m-31.89,15.94V126m-31.89,15.94V126M77,141.91V126M45.15,141.91V126m0,15.94H204.6"/><line class="cls-2" x1="45.15" y1="125.97" x2="204.6" y2="125.97"/><rect class="cls-3" x="45.15" y="149.89" width="159.45" height="15.95"/><rect class="cls-2" x="45.15" y="149.89" width="159.45" height="15.95"/><path class="cls-2" d="M204.6,165.83V149.89m-31.89,15.94V149.89m-31.89,15.94V149.89m-31.89,15.94V149.89M77,165.83V149.89M45.15,165.83V149.89m0,15.94H204.6"/><line class="cls-2" x1="45.15" y1="149.89" x2="204.6" y2="149.89"/><line class="cls-2" x1="29.21" y1="189.75" x2="220.15" y2="189.75"/><path class="cls-4" d="M218.28,187.36a3.15,3.15,0,0,0,2.07,2.39,3.17,3.17,0,0,0-2.07,2.39"/><line class="cls-2" x1="45.15" y1="186.76" x2="45.15" y2="192.74"/><text class="cls-5" transform="translate(41.64 206.97)">0</text><line class="cls-2" x1="204.6" y1="186.76" x2="204.6" y2="192.74"/><text class="cls-5" transform="translate(201.09 206.97)">1</text><line class="cls-2" x1="77.04" y1="186.76" x2="77.04" y2="192.74"/><path d="M85.27,213.59c0,.79-.08.86-.89.86H69.68c-.82,0-.89-.09-.89-.89V198.3c0-.79.1-.87.87-.87H84.4c.79,0,.87.1.87.87Zm-15.49-.13h14.5v-15H69.78Z"/><line class="cls-6" x1="67.4" y1="225.03" x2="86.68" y2="225.03"/><path d="M85.27,247.36c0,.79-.08.87-.89.87H69.68c-.82,0-.89-.1-.89-.9V232.07c0-.79.1-.87.87-.87H84.4c.79,0,.87.1.87.87Zm-15.49-.13h14.5v-15H69.78Z"/><line class="cls-2" x1="108.93" y1="186.76" x2="108.93" y2="192.74"/><path d="M117.16,213.59c0,.79-.08.86-.89.86h-14.7c-.82,0-.89-.09-.89-.89V198.3c0-.79.1-.87.87-.87h14.74c.79,0,.87.1.87.87Zm-15.49-.13h14.5v-15h-14.5Z"/><line class="cls-6" x1="99.29" y1="225.03" x2="118.57" y2="225.03"/><path d="M117.16,247.36c0,.79-.08.87-.89.87h-14.7c-.82,0-.89-.1-.89-.9V232.07c0-.79.1-.87.87-.87h14.74c.79,0,.87.1.87.87Zm-15.49-.13h14.5v-15h-14.5Z"/><line class="cls-2" x1="140.82" y1="186.76" x2="140.82" y2="192.74"/><path d="M149.05,213.59c0,.79-.07.86-.89.86h-14.7c-.81,0-.89-.09-.89-.89V198.3c0-.79.1-.87.87-.87h14.74c.8,0,.87.1.87.87Zm-15.49-.13h14.5v-15h-14.5Z"/><line class="cls-6" x1="131.18" y1="225.03" x2="150.46" y2="225.03"/><path d="M149.05,247.36c0,.79-.07.87-.89.87h-14.7c-.81,0-.89-.1-.89-.9V232.07c0-.79.1-.87.87-.87h14.74c.8,0,.87.1.87.87Zm-15.49-.13h14.5v-15h-14.5Z"/><line class="cls-2" x1="172.71" y1="186.76" x2="172.71" y2="192.74"/><path d="M180.94,213.59c0,.79-.07.86-.89.86h-14.7c-.81,0-.89-.09-.89-.89V198.3c0-.79.1-.87.87-.87h14.74c.8,0,.87.1.87.87Zm-15.49-.13H180v-15h-14.5Z"/><line class="cls-6" x1="163.07" y1="225.03" x2="182.35" y2="225.03"/><path d="M180.94,247.36c0,.79-.07.87-.89.87h-14.7c-.81,0-.89-.1-.89-.9V232.07c0-.79.1-.87.87-.87h14.74c.8,0,.87.1.87.87Zm-15.49-.13H180v-15h-14.5Z"/></svg>