<svg id="Camada_1" data-name="Camada 1" xmlns="http://www.w3.org/2000/svg" viewBox="0 0 407.27 126.37"><defs><style>.cls-1{fill:#f28c5e;}.cls-1,.cls-8{opacity:0.8;}.cls-2,.cls-3,.cls-4,.cls-6,.cls-7{fill:none;stroke:#000;stroke-miterlimit:10;}.cls-2{stroke-width:1.2px;}.cls-3{stroke-width:0.4px;}.cls-4{stroke-width:0.4px;}.cls-5{font-size:14.35px;font-family:CMR12;}.cls-6{stroke-width:0.57px;}.cls-7{stroke-width:0.2px;}.cls-8{fill:#95d4e9;}</style></defs><path class="cls-1" d="M45.79,74.15,70.33,60A28.34,28.34,0,0,0,45.79,45.8Z"/><line class="cls-2" x1="70.33" y1="59.98" x2="21.24" y2="88.32"/><line class="cls-2" x1="45.79" y1="45.8" x2="45.79" y2="102.5"/><line class="cls-2" x1="21.24" y1="59.98" x2="70.33" y2="88.32"/><path class="cls-3" d="M76.32,56.17A35.2,35.2,0,0,0,46.08,38.72"/><line class="cls-4" x1="78.36" y1="55.11" x2="74.39" y2="57.41"/><line class="cls-3" x1="45.98" y1="41.01" x2="45.98" y2="36.42"/><text class="cls-5" transform="translate(70.19 28.79)">1</text><line class="cls-6" x1="70.19" y1="34.91" x2="77.22" y2="34.91"/><text class="cls-5" transform="translate(70.19 48.34)">6</text><text class="cls-5" transform="translate(82.4 38.5)">=</text><text class="cls-5" transform="translate(102.01 28.79)">4</text><line class="cls-6" x1="98.5" y1="34.91" x2="112.55" y2="34.91"/><text class="cls-5" transform="translate(98.5 48.34)">24</text><circle class="cls-3" cx="45.79" cy="74.15" r="28.35" transform="translate(-17.5 14.24) rotate(-14.87)"/><line class="cls-3" x1="45.79" y1="74.15" x2="70.33" y2="59.98"/><line class="cls-3" x1="45.79" y1="74.15" x2="59.96" y2="49.6"/><line class="cls-3" x1="45.79" y1="74.15" x2="45.79" y2="45.8"/><line class="cls-3" x1="45.79" y1="74.15" x2="31.61" y2="49.6"/><line class="cls-3" x1="45.79" y1="74.15" x2="21.24" y2="59.98"/><line class="cls-3" x1="45.79" y1="74.15" x2="17.44" y2="74.15"/><line class="cls-3" x1="45.79" y1="74.15" x2="21.24" y2="88.32"/><line class="cls-3" x1="45.79" y1="74.15" x2="31.61" y2="98.7"/><line class="cls-3" x1="45.79" y1="74.15" x2="45.79" y2="102.5"/><line class="cls-3" x1="45.79" y1="74.15" x2="59.96" y2="98.7"/><line class="cls-3" x1="45.79" y1="74.15" x2="70.33" y2="88.32"/><line class="cls-7" x1="45.79" y1="74.15" x2="74.13" y2="74.15"/><line class="cls-7" x1="45.79" y1="74.15" x2="73.17" y2="66.81"/><line class="cls-7" x1="45.79" y1="74.15" x2="70.33" y2="59.98"/><line class="cls-7" x1="45.79" y1="74.15" x2="65.83" y2="54.11"/><line class="cls-7" x1="45.79" y1="74.15" x2="59.96" y2="49.6"/><line class="cls-7" x1="45.79" y1="74.15" x2="53.12" y2="46.77"/><line class="cls-7" x1="45.79" y1="74.15" x2="45.79" y2="45.8"/><line class="cls-7" x1="45.79" y1="74.15" x2="38.45" y2="46.77"/><line class="cls-7" x1="45.79" y1="74.15" x2="31.61" y2="49.6"/><line class="cls-7" x1="45.79" y1="74.15" x2="25.74" y2="54.11"/><line class="cls-7" x1="45.79" y1="74.15" x2="21.24" y2="59.98"/><line class="cls-7" x1="45.79" y1="74.15" x2="18.4" y2="66.81"/><line class="cls-7" x1="45.79" y1="74.15" x2="17.44" y2="74.15"/><line class="cls-7" x1="45.79" y1="74.15" x2="18.4" y2="81.49"/><line class="cls-7" x1="45.79" y1="74.15" x2="21.24" y2="88.32"/><line class="cls-7" x1="45.79" y1="74.15" x2="25.74" y2="94.19"/><line class="cls-7" x1="45.79" y1="74.15" x2="31.61" y2="98.7"/><line class="cls-7" x1="45.79" y1="74.15" x2="38.45" y2="101.53"/><line class="cls-7" x1="45.79" y1="74.15" x2="45.79" y2="102.5"/><line class="cls-7" x1="45.79" y1="74.15" x2="53.12" y2="101.53"/><line class="cls-7" x1="45.79" y1="74.15" x2="59.96" y2="98.7"/><line class="cls-7" x1="45.79" y1="74.15" x2="65.83" y2="94.19"/><line class="cls-7" x1="45.79" y1="74.15" x2="70.33" y2="88.32"/><line class="cls-7" x1="45.79" y1="74.15" x2="73.17" y2="81.49"/><path class="cls-8" d="M163.11,74.15H134.77A28.35,28.35,0,1,0,163.11,45.8Z"/><line class="cls-2" x1="191.46" y1="74.15" x2="134.77" y2="74.15"/><line class="cls-2" x1="163.11" y1="45.8" x2="163.11" y2="102.5"/><path class="cls-3" d="M163.41,38.72a35.43,35.43,0,1,1-35.73,35.73"/><line class="cls-3" x1="163.31" y1="41.01" x2="163.31" y2="36.42"/><line class="cls-3" x1="125.39" y1="74.35" x2="129.97" y2="74.35"/><text class="cls-5" transform="translate(187.52 28.79)">3</text><line class="cls-6" x1="187.52" y1="34.91" x2="194.54" y2="34.91"/><text class="cls-5" transform="translate(187.52 48.34)">4</text><text class="cls-5" transform="translate(199.72 38.5)">=</text><text class="cls-5" transform="translate(215.83 28.79)">18</text><line class="cls-6" x1="215.83" y1="34.91" x2="229.88" y2="34.91"/><text class="cls-5" transform="translate(215.83 48.34)">24</text><circle class="cls-3" cx="163.11" cy="74.15" r="28.35" transform="translate(-13.57 44.35) rotate(-14.87)"/><line class="cls-3" x1="163.11" y1="74.15" x2="191.46" y2="74.15"/><line class="cls-3" x1="163.11" y1="74.15" x2="187.66" y2="59.98"/><line class="cls-3" x1="163.11" y1="74.15" x2="177.29" y2="49.6"/><line class="cls-3" x1="163.11" y1="74.15" x2="163.11" y2="45.8"/><line class="cls-3" x1="163.11" y1="74.15" x2="148.94" y2="49.6"/><line class="cls-3" x1="163.11" y1="74.15" x2="138.56" y2="59.98"/><line class="cls-3" x1="163.11" y1="74.15" x2="134.77" y2="74.15"/><line class="cls-3" x1="163.11" y1="74.15" x2="138.56" y2="88.32"/><line class="cls-3" x1="163.11" y1="74.15" x2="148.94" y2="98.7"/><line class="cls-3" x1="163.11" y1="74.15" x2="163.11" y2="102.5"/><line class="cls-3" x1="163.11" y1="74.15" x2="177.29" y2="98.7"/><line class="cls-3" x1="163.11" y1="74.15" x2="187.66" y2="88.32"/><line class="cls-7" x1="163.11" y1="74.15" x2="191.46" y2="74.15"/><line class="cls-7" x1="163.11" y1="74.15" x2="190.49" y2="66.81"/><line class="cls-7" x1="163.11" y1="74.15" x2="187.66" y2="59.98"/><line class="cls-7" x1="163.11" y1="74.15" x2="183.16" y2="54.11"/><line class="cls-7" x1="163.11" y1="74.15" x2="177.29" y2="49.6"/><line class="cls-7" x1="163.11" y1="74.15" x2="170.45" y2="46.77"/><line class="cls-7" x1="163.11" y1="74.15" x2="163.11" y2="45.8"/><line class="cls-7" x1="163.11" y1="74.15" x2="155.78" y2="46.77"/><line class="cls-7" x1="163.11" y1="74.15" x2="148.94" y2="49.6"/><line class="cls-7" x1="163.11" y1="74.15" x2="143.07" y2="54.11"/><line class="cls-7" x1="163.11" y1="74.15" x2="138.56" y2="59.98"/><line class="cls-7" x1="163.11" y1="74.15" x2="135.73" y2="66.81"/><line class="cls-7" x1="163.11" y1="74.15" x2="134.77" y2="74.15"/><line class="cls-7" x1="163.11" y1="74.15" x2="135.73" y2="81.49"/><line class="cls-7" x1="163.11" y1="74.15" x2="138.56" y2="88.32"/><line class="cls-7" x1="163.11" y1="74.15" x2="143.07" y2="94.19"/><line class="cls-7" x1="163.11" y1="74.15" x2="148.94" y2="98.7"/><line class="cls-7" x1="163.11" y1="74.15" x2="155.78" y2="101.53"/><line class="cls-7" x1="163.11" y1="74.15" x2="163.11" y2="102.5"/><line class="cls-7" x1="163.11" y1="74.15" x2="170.45" y2="101.53"/><line class="cls-7" x1="163.11" y1="74.15" x2="177.29" y2="98.7"/><line class="cls-7" x1="163.11" y1="74.15" x2="183.16" y2="94.19"/><line class="cls-7" x1="163.11" y1="74.15" x2="187.66" y2="88.32"/><line class="cls-7" x1="163.11" y1="74.15" x2="190.49" y2="81.49"/><path class="cls-8" d="M280.84,74.15H252.49A28.35,28.35,0,1,0,280.84,45.8Z"/><path class="cls-1" d="M280.84,74.15,266.67,49.6a28.35,28.35,0,0,0-14.18,24.55Z"/><line class="cls-2" x1="309.19" y1="74.15" x2="252.49" y2="74.15"/><line class="cls-2" x1="280.84" y1="45.8" x2="280.84" y2="102.5"/><path class="cls-3" d="M281.14,38.72a35.43,35.43,0,1,1-35.73,35.73"/><line class="cls-3" x1="281.04" y1="41.01" x2="281.04" y2="36.42"/><line class="cls-3" x1="243.11" y1="74.35" x2="247.7" y2="74.35"/><path class="cls-3" d="M262.86,43.61a35.2,35.2,0,0,0-17.45,30.24"/><line class="cls-4" x1="261.8" y1="41.58" x2="264.1" y2="45.55"/><line class="cls-3" x1="247.7" y1="73.95" x2="243.11" y2="73.95"/><text class="cls-5" transform="translate(309.64 28.79)">4</text><line class="cls-6" x1="306.13" y1="34.91" x2="320.17" y2="34.91"/><text class="cls-5" transform="translate(306.13 48.34)">24</text><text class="cls-5" transform="translate(324.56 38.5)">+</text><text class="cls-5" transform="translate(339.87 28.79)">18</text><line class="cls-6" x1="339.87" y1="34.91" x2="353.91" y2="34.91"/><text class="cls-5" transform="translate(339.87 48.34)">24</text><text class="cls-5" transform="translate(359.09 38.5)">=</text><text class="cls-5" transform="translate(375.2 28.79)">22</text><line class="cls-6" x1="375.2" y1="34.91" x2="389.25" y2="34.91"/><text class="cls-5" transform="translate(375.2 48.34)">24</text><circle class="cls-3" cx="280.84" cy="74.15" r="28.35" transform="translate(-8.95 54.45) rotate(-10.9)"/><line class="cls-2" x1="280.84" y1="74.15" x2="266.67" y2="49.6"/><line class="cls-3" x1="280.84" y1="74.15" x2="309.19" y2="74.15"/><line class="cls-3" x1="280.84" y1="74.15" x2="305.39" y2="59.98"/><line class="cls-3" x1="280.84" y1="74.15" x2="295.01" y2="49.6"/><line class="cls-3" x1="280.84" y1="74.15" x2="280.84" y2="45.8"/><line class="cls-3" x1="280.84" y1="74.15" x2="266.67" y2="49.6"/><line class="cls-3" x1="280.84" y1="74.15" x2="256.29" y2="59.98"/><line class="cls-3" x1="280.84" y1="74.15" x2="252.49" y2="74.15"/><line class="cls-3" x1="280.84" y1="74.15" x2="256.29" y2="88.32"/><line class="cls-3" x1="280.84" y1="74.15" x2="266.67" y2="98.7"/><line class="cls-3" x1="280.84" y1="74.15" x2="280.84" y2="102.5"/><line class="cls-3" x1="280.84" y1="74.15" x2="295.01" y2="98.7"/><line class="cls-3" x1="280.84" y1="74.15" x2="305.39" y2="88.32"/><line class="cls-7" x1="280.84" y1="74.15" x2="309.19" y2="74.15"/><line class="cls-7" x1="280.84" y1="74.15" x2="308.22" y2="66.81"/><line class="cls-7" x1="280.84" y1="74.15" x2="305.39" y2="59.98"/><line class="cls-7" x1="280.84" y1="74.15" x2="300.88" y2="54.11"/><line class="cls-7" x1="280.84" y1="74.15" x2="295.01" y2="49.6"/><line class="cls-7" x1="280.84" y1="74.15" x2="288.18" y2="46.77"/><line class="cls-7" x1="280.84" y1="74.15" x2="280.84" y2="45.8"/><line class="cls-7" x1="280.84" y1="74.15" x2="273.5" y2="46.77"/><line class="cls-7" x1="280.84" y1="74.15" x2="266.67" y2="49.6"/><line class="cls-7" x1="280.84" y1="74.15" x2="260.79" y2="54.11"/><line class="cls-7" x1="280.84" y1="74.15" x2="256.29" y2="59.98"/><line class="cls-7" x1="280.84" y1="74.15" x2="253.46" y2="66.81"/><line class="cls-7" x1="280.84" y1="74.15" x2="252.49" y2="74.15"/><line class="cls-7" x1="280.84" y1="74.15" x2="253.46" y2="81.49"/><line class="cls-7" x1="280.84" y1="74.15" x2="256.29" y2="88.32"/><line class="cls-7" x1="280.84" y1="74.15" x2="260.79" y2="94.19"/><line class="cls-7" x1="280.84" y1="74.15" x2="266.67" y2="98.7"/><line class="cls-7" x1="280.84" y1="74.15" x2="273.5" y2="101.53"/><line class="cls-7" x1="280.84" y1="74.15" x2="280.84" y2="102.5"/><line class="cls-7" x1="280.84" y1="74.15" x2="288.18" y2="101.53"/><line class="cls-7" x1="280.84" y1="74.15" x2="295.01" y2="98.7"/><line class="cls-7" x1="280.84" y1="74.15" x2="300.88" y2="94.19"/><line class="cls-7" x1="280.84" y1="74.15" x2="305.39" y2="88.32"/><line class="cls-7" x1="280.84" y1="74.15" x2="308.22" y2="81.49"/></svg>