<svg id="Camada_1" data-name="Camada 1" xmlns="http://www.w3.org/2000/svg" viewBox="0 0 266.27 164.65"><defs><style>.cls-1,.cls-2,.cls-3,.cls-6{fill:none;}.cls-1,.cls-2,.cls-6{stroke:#000;}.cls-1,.cls-3,.cls-6{stroke-miterlimit:10;}.cls-1,.cls-2{stroke-width:0.4px;}.cls-2{stroke-linecap:round;stroke-linejoin:round;}.cls-3{stroke:#e6164d;stroke-width:1.59px;}.cls-4{fill:#e6164d;}.cls-5{font-size:9.96px;font-family:CMR10;}.cls-6{stroke-width:0.57px;}.cls-7{font-size:14.35px;font-family:CMR12;}</style></defs><line class="cls-1" x1="32.74" y1="43.17" x2="225.1" y2="43.17"/><path class="cls-2" d="M223.23,40.78a3.15,3.15,0,0,0,2.07,2.39,3.15,3.15,0,0,0-2.07,2.39"/><line class="cls-3" x1="56.83" y1="43.17" x2="105.02" y2="43.17"/><path d="M62.6,28.14c.31,0,.46.17.46.49V35s0,0-.12.07a.73.73,0,0,1-.25,0c-.36,0-.56-.22-.61-.67,0-.25,0-.44,0-.56a3.1,3.1,0,0,1-1,1,2.64,2.64,0,0,1-1.39.36,2.4,2.4,0,0,1-2-.81,3.33,3.33,0,0,1-.66-2.17V28.63c0-.32.15-.49.46-.49h.11c.31,0,.46.17.46.49v3.52a2.41,2.41,0,0,0,.47,1.57,1.67,1.67,0,0,0,1.34.56,2.2,2.2,0,0,0,1.27-.37,2.34,2.34,0,0,0,.84-1V28.63c0-.32.15-.49.44-.49Zm5.65-.1a2.39,2.39,0,0,1,2,.81A3.23,3.23,0,0,1,70.88,31V34.6c0,.32-.15.49-.45.49H70.3c-.3,0-.45-.17-.45-.49V31.1a2.41,2.41,0,0,0-.47-1.57A1.61,1.61,0,0,0,68.05,29a2.29,2.29,0,0,0-1.28.37,2.37,2.37,0,0,0-.84,1V34.6c0,.32-.15.49-.45.49h-.12c-.31,0-.46-.17-.46-.49V28.26s0-.05.12-.07a.7.7,0,0,1,.25-.05c.4,0,.61.29.63.86v.41a2.64,2.64,0,0,1,1-1A2.58,2.58,0,0,1,68.25,28Zm4.35-2a.66.66,0,1,1,1.32,0,.62.62,0,0,1-.18.48.69.69,0,0,1-.49.16.66.66,0,0,1-.48-.16.65.65,0,0,1-.17-.48Zm.13,2.6c0-.34.15-.51.46-.51h.11c.31,0,.46.17.46.51v6c0,.32-.15.49-.46.49h-.11c-.31,0-.46-.17-.46-.49ZM78.4,35.2a3,3,0,0,1-1.63-.45,3.12,3.12,0,0,1-1.12-1.26,4.16,4.16,0,0,1-.41-1.88,4.09,4.09,0,0,1,.41-1.85,3.17,3.17,0,0,1,1.13-1.27A3,3,0,0,1,78.42,28a2.94,2.94,0,0,1,1.51.38,2.41,2.41,0,0,1,1,.94v-4s0-.05.11-.07a.66.66,0,0,1,.25,0c.45,0,.68.31.68.92V34.6c0,.32-.16.49-.46.49h-.1a.4.4,0,0,1-.45-.46c0-.19,0-.49,0-.89a2.9,2.9,0,0,1-1,1.07,2.79,2.79,0,0,1-1.5.39Zm2.49-4.65a2.52,2.52,0,0,0-.87-1.2,2.28,2.28,0,0,0-1.42-.43,2.13,2.13,0,0,0-1.68.74,2.89,2.89,0,0,0-.65,1.95,3.18,3.18,0,0,0,.3,1.41,2.27,2.27,0,0,0,.82,1,2.15,2.15,0,0,0,1.19.35,2.31,2.31,0,0,0,1.16-.3,2.09,2.09,0,0,0,.84-.8,2.12,2.12,0,0,0,.31-1.14Zm2.44,2.73a1.78,1.78,0,0,1,1.13-1.69A9,9,0,0,1,88,31h.16v-.29a1.79,1.79,0,0,0-.48-1.34,1.9,1.9,0,0,0-1.37-.47,2.39,2.39,0,0,0-1.3.33,2.22,2.22,0,0,0-.8.89.53.53,0,0,1-.19,0,.63.63,0,0,1-.3-.16.45.45,0,0,1-.14-.35.89.89,0,0,1,.11-.37,1.56,1.56,0,0,1,.31-.39,2.9,2.9,0,0,1,1-.59A3.93,3.93,0,0,1,86.39,28a2.84,2.84,0,0,1,2.08.72,2.69,2.69,0,0,1,.73,2V35s0,0-.12.07a.73.73,0,0,1-.25,0c-.36,0-.56-.22-.61-.66q0-.4,0-.63a2.43,2.43,0,0,1-1,1,3.09,3.09,0,0,1-1.52.38,2.6,2.6,0,0,1-1.7-.52,1.7,1.7,0,0,1-.63-1.39Zm4.85-1.58-.24,0a7.78,7.78,0,0,0-2.74.4,1.18,1.18,0,0,0-.84,1.13,1,1,0,0,0,.41.85,1.7,1.7,0,0,0,1.09.31A2.52,2.52,0,0,0,87,34.14a2.09,2.09,0,0,0,.84-.74,1.82,1.82,0,0,0,.31-1Zm5.52,3.5a3,3,0,0,1-1.62-.45A3.05,3.05,0,0,1,91,33.49a4,4,0,0,1-.41-1.88A4,4,0,0,1,91,29.76a3.17,3.17,0,0,1,1.13-1.27A3,3,0,0,1,93.73,28a2.94,2.94,0,0,1,1.51.38,2.41,2.41,0,0,1,1,.94v-4s0-.05.11-.07a.62.62,0,0,1,.25,0c.45,0,.67.31.67.92V34.6c0,.32-.15.49-.46.49h-.1a.4.4,0,0,1-.44-.46c0-.19,0-.49,0-.89A2.73,2.73,0,0,1,93.7,35.2Zm2.5-4.65a2.52,2.52,0,0,0-.87-1.2,2.31,2.31,0,0,0-1.43-.43,2.13,2.13,0,0,0-1.67.74,2.89,2.89,0,0,0-.65,1.95A3.32,3.32,0,0,0,91.87,33a2.36,2.36,0,0,0,.83,1,2.13,2.13,0,0,0,1.19.35,2.31,2.31,0,0,0,1.16-.3,2.09,2.09,0,0,0,.84-.8,2.12,2.12,0,0,0,.31-1.14Zm2.44,1.11a3.81,3.81,0,0,1,.44-1.86,3.25,3.25,0,0,1,1.2-1.29A3.29,3.29,0,0,1,102,28a3.09,3.09,0,0,1,1.66.43,2.85,2.85,0,0,1,1.1,1.18,3.8,3.8,0,0,1,.39,1.76v.1a.35.35,0,0,1-.08.26.43.43,0,0,1-.28.07H99.63a1.22,1.22,0,0,0,0,.21,2.55,2.55,0,0,0,.78,1.66,2.45,2.45,0,0,0,1.72.63,2.52,2.52,0,0,0,1.4-.34,2.43,2.43,0,0,0,.82-.92.44.44,0,0,1,.2,0,.8.8,0,0,1,.27.18.48.48,0,0,1,.12.33.72.72,0,0,1-.14.4,1.51,1.51,0,0,1-.4.45,2.94,2.94,0,0,1-1,.52,4,4,0,0,1-1.34.21,3.74,3.74,0,0,1-1.82-.44,3.15,3.15,0,0,1-1.22-1.26,3.71,3.71,0,0,1-.44-1.84Zm5.51-.56a2.46,2.46,0,0,0-.62-1.62,2,2,0,0,0-1.51-.61,2.19,2.19,0,0,0-1.57.62,2.66,2.66,0,0,0-.79,1.61Z"/><line class="cls-1" x1="56.83" y1="40.18" x2="56.83" y2="46.16"/><path d="M56.81,60.74a3.55,3.55,0,0,1-1.94-.53,3.34,3.34,0,0,1-1.27-1.49,5.46,5.46,0,0,1-.45-2.3v-1a5.49,5.49,0,0,1,.45-2.3,3.4,3.4,0,0,1,1.28-1.51,3.94,3.94,0,0,1,3.91,0,3.37,3.37,0,0,1,1.28,1.5,5.46,5.46,0,0,1,.44,2.3v.93a5.46,5.46,0,0,1-.45,2.3,3.49,3.49,0,0,1-1.28,1.52,3.63,3.63,0,0,1-2,.53Zm0-.92a2.27,2.27,0,0,0,1.91-.89,4,4,0,0,0,.68-2.5v-1A4,4,0,0,0,58.73,53a2.45,2.45,0,0,0-3.8,0,4,4,0,0,0-.69,2.49v1a4.06,4.06,0,0,0,.69,2.5,2.26,2.26,0,0,0,1.9.9Z"/><line class="cls-1" x1="105.02" y1="40.18" x2="105.02" y2="46.16"/><path d="M105.37,60.54c-.29,0-.44-.17-.44-.51V52.78a1.16,1.16,0,0,1-.44.38,1.39,1.39,0,0,1-.61.13,1.16,1.16,0,0,1-.81-.28.74.74,0,0,1-.23-.55.68.68,0,0,1,.06-.29A.78.78,0,0,1,103,52c.06,0,.09-.06.11-.06a1,1,0,0,0,.82.35,1.16,1.16,0,0,0,.8-.32,1.19,1.19,0,0,0,.36-.8h.39c.31,0,.47.17.47.5V60c0,.34-.16.51-.47.51Z"/><line class="cls-1" x1="153.21" y1="40.18" x2="153.21" y2="46.16"/><path d="M150.8,60.59a.79.79,0,0,1-.54-.14.58.58,0,0,1-.16-.47v-.36a3,3,0,0,1,.39-1.57,3.49,3.49,0,0,1,1-1.08,12.86,12.86,0,0,1,1.48-.88c.61-.32,1.05-.56,1.33-.73a2.89,2.89,0,0,0,.71-.64,1.42,1.42,0,0,0,.3-.91,1.56,1.56,0,0,0-.55-1.25,2.23,2.23,0,0,0-1.5-.47,2.25,2.25,0,0,0-1.59.54,2.65,2.65,0,0,0-.79,1.37s-.07,0-.2,0a.67.67,0,0,1-.36-.17.47.47,0,0,1-.16-.39,1.56,1.56,0,0,1,.19-.68,2.66,2.66,0,0,1,.54-.73,3.66,3.66,0,0,1,1-.65,3.59,3.59,0,0,1,1.39-.25,3.23,3.23,0,0,1,2.23.72,2.51,2.51,0,0,1,.81,2,2.31,2.31,0,0,1-.34,1.28,3.11,3.11,0,0,1-.89.88,14.15,14.15,0,0,1-1.44.79,14,14,0,0,0-1.3.72,3,3,0,0,0-.84.79,2.09,2.09,0,0,0-.37,1.08l0,.28H156c.34,0,.51.15.51.43v.09c0,.3-.17.44-.51.44Z"/><line class="cls-1" x1="201.4" y1="40.18" x2="201.4" y2="46.16"/><path d="M201.15,60.74a4.2,4.2,0,0,1-1.51-.25,3.1,3.1,0,0,1-1.09-.63,2.28,2.28,0,0,1-.5-.6,1.26,1.26,0,0,1-.17-.56.56.56,0,0,1,.14-.39.76.76,0,0,1,.31-.18q.16,0,.18,0a2.27,2.27,0,0,0,1,1.25,3.07,3.07,0,0,0,1.69.45,2.6,2.6,0,0,0,1.69-.5,1.63,1.63,0,0,0,.64-1.35,1.66,1.66,0,0,0-.61-1.37,2.69,2.69,0,0,0-1.72-.48h-.8c-.34,0-.5-.13-.5-.38v-.09c0-.27.15-.4.47-.4h1a2.15,2.15,0,0,0,1.44-.43,1.42,1.42,0,0,0,.52-1.18,1.45,1.45,0,0,0-.56-1.19,2.36,2.36,0,0,0-1.53-.44,2.49,2.49,0,0,0-2.36,1.46s-.07,0-.18,0a.67.67,0,0,1-.31-.19.48.48,0,0,1-.14-.35.92.92,0,0,1,.15-.44,2.22,2.22,0,0,1,.4-.48,3.18,3.18,0,0,1,1.07-.62,3.92,3.92,0,0,1,1.4-.24,3.66,3.66,0,0,1,2.3.65,2.18,2.18,0,0,1,.82,1.8,2,2,0,0,1-.43,1.3,2.23,2.23,0,0,1-1.22.73,2.7,2.7,0,0,1,1.41.87,2.36,2.36,0,0,1,.5,1.52,2.43,2.43,0,0,1-.91,2,3.93,3.93,0,0,1-2.49.73Z"/><line class="cls-1" x1="72.9" y1="40.18" x2="72.9" y2="46.16"/><line class="cls-1" x1="88.96" y1="40.18" x2="88.96" y2="46.16"/><circle class="cls-4" cx="56.83" cy="43.17" r="2.99" transform="translate(-7.14 11.53) rotate(-10.9)"/><circle class="cls-4" cx="105.02" cy="43.17" r="2.99" transform="translate(-5.56 17.38) rotate(-9.22)"/><line class="cls-1" x1="32.83" y1="111.91" x2="236.53" y2="111.91"/><path class="cls-2" d="M234.66,109.52a3.13,3.13,0,0,0,2.07,2.39,3.17,3.17,0,0,0-2.07,2.4"/><line class="cls-3" x1="58.34" y1="111.91" x2="75.35" y2="111.91"/><text class="cls-5" transform="translate(29.54 93.35)">1</text><line class="cls-6" x1="29.54" y1="95.41" x2="34.52" y2="95.41"/><text class="cls-5" transform="translate(29.54 103.94)">3</text><path d="M41.81,99.16a3,3,0,0,1-1.62-.46,3.05,3.05,0,0,1-1.12-1.26,4.45,4.45,0,0,1,0-3.73,3.07,3.07,0,0,1,1.13-1.26A3,3,0,0,1,41.84,92a2.94,2.94,0,0,1,1.51.37,2.44,2.44,0,0,1,1,.95v-4s0-.06.11-.08a.87.87,0,0,1,.25,0c.45,0,.67.31.67.92v8.42c0,.33-.15.49-.46.49h-.1c-.29,0-.44-.15-.44-.46s0-.49,0-.89a2.92,2.92,0,0,1-1,1.08,2.75,2.75,0,0,1-1.5.39Zm2.5-4.65a2.55,2.55,0,0,0-.87-1.21A2.38,2.38,0,0,0,42,92.87a2.12,2.12,0,0,0-1.68.75,2.88,2.88,0,0,0-.64,1.95A3.3,3.3,0,0,0,40,97a2.26,2.26,0,0,0,.83,1,2.12,2.12,0,0,0,1.19.34A2.4,2.4,0,0,0,43.16,98a2.33,2.33,0,0,0,.84-.81A2.12,2.12,0,0,0,44.31,96Zm2.44,2.72a1.76,1.76,0,0,1,1.12-1.68A9,9,0,0,1,51.44,95h.16v-.29a1.79,1.79,0,0,0-.48-1.34,1.89,1.89,0,0,0-1.37-.46,2.39,2.39,0,0,0-1.3.33,2.09,2.09,0,0,0-.8.89.42.42,0,0,1-.19,0,.61.61,0,0,1-.3-.15.47.47,0,0,1-.14-.36.85.85,0,0,1,.11-.36,1.4,1.4,0,0,1,.31-.4,2.84,2.84,0,0,1,1-.58A3.75,3.75,0,0,1,49.8,92a2.86,2.86,0,0,1,2.08.71,2.68,2.68,0,0,1,.74,2v4.23s0,0-.13.07a.69.69,0,0,1-.25,0q-.52,0-.6-.66,0-.39,0-.63a2.54,2.54,0,0,1-1,1,3.06,3.06,0,0,1-1.52.37,2.56,2.56,0,0,1-1.7-.52,1.71,1.71,0,0,1-.62-1.39Zm4.85-1.58-.25,0a8,8,0,0,0-2.73.4,1.19,1.19,0,0,0-.84,1.13,1,1,0,0,0,.4.85,1.72,1.72,0,0,0,1.09.32,2.48,2.48,0,0,0,1.18-.28,2.15,2.15,0,0,0,.84-.74,1.87,1.87,0,0,0,.31-1ZM62.31,92.1c.31,0,.46.16.46.48v6.36s0,0-.12.07a.69.69,0,0,1-.25,0c-.35,0-.56-.22-.6-.67,0-.25,0-.43,0-.56a2.9,2.9,0,0,1-1,1,2.64,2.64,0,0,1-1.38.37,2.35,2.35,0,0,1-2-.82,3.27,3.27,0,0,1-.67-2.17V92.58c0-.32.15-.48.46-.48h.11c.31,0,.46.16.46.48V96.1a2.36,2.36,0,0,0,.48,1.57,1.63,1.63,0,0,0,1.33.57,2.21,2.21,0,0,0,1.27-.38,2.26,2.26,0,0,0,.84-1V92.58c0-.32.15-.48.44-.48ZM68,92a2.36,2.36,0,0,1,2,.8A3.27,3.27,0,0,1,70.59,95v3.58c0,.33-.15.49-.44.49H70c-.31,0-.46-.16-.46-.49v-3.5a2.41,2.41,0,0,0-.47-1.57,1.61,1.61,0,0,0-1.33-.57,2.24,2.24,0,0,0-1.28.38,2.35,2.35,0,0,0-.84,1v4.26c0,.33-.15.49-.44.49h-.13c-.31,0-.46-.16-.46-.49V92.21s0,0,.12-.07a.73.73,0,0,1,.25,0c.4,0,.61.28.63.86v.4a2.79,2.79,0,0,1,1-1A2.7,2.7,0,0,1,68,92Zm4.34-2a.59.59,0,0,1,.66-.66.68.68,0,0,1,.49.17.65.65,0,0,1,.17.49.62.62,0,0,1-.18.48.69.69,0,0,1-.49.17.69.69,0,0,1-.48-.17.65.65,0,0,1-.17-.48Zm.13,2.6c0-.34.15-.5.46-.5H73c.3,0,.45.16.45.5v6c0,.33-.15.49-.45.49H72.9c-.31,0-.46-.16-.46-.49Zm5.67,6.56a3,3,0,0,1-1.62-.46,3.07,3.07,0,0,1-1.13-1.26,4.45,4.45,0,0,1,0-3.73A3,3,0,0,1,78.14,92a2.93,2.93,0,0,1,1.5.37,2.44,2.44,0,0,1,1,.95v-4s0-.06.11-.08a.93.93,0,0,1,.25,0c.45,0,.68.31.68.92v8.42c0,.33-.16.49-.46.49h-.1a.4.4,0,0,1-.45-.46c0-.19,0-.49,0-.89a3,3,0,0,1-1,1.08,2.79,2.79,0,0,1-1.5.39Zm2.49-4.65a2.6,2.6,0,0,0-.86-1.21,2.4,2.4,0,0,0-1.43-.43,2.11,2.11,0,0,0-1.68.75A2.88,2.88,0,0,0,76,95.57a3.16,3.16,0,0,0,.29,1.4,2.31,2.31,0,0,0,.82,1,2.18,2.18,0,0,0,1.2.34A2.43,2.43,0,0,0,79.46,98a2.33,2.33,0,0,0,.84-.81A2.21,2.21,0,0,0,80.6,96ZM83,97.23a1.77,1.77,0,0,1,1.13-1.68A9,9,0,0,1,87.73,95h.16v-.29a1.79,1.79,0,0,0-.48-1.34A1.89,1.89,0,0,0,86,92.89a2.41,2.41,0,0,0-1.3.33,2.07,2.07,0,0,0-.79.89.46.46,0,0,1-.2,0,.61.61,0,0,1-.3-.15.47.47,0,0,1-.13-.36.82.82,0,0,1,.1-.36,1.88,1.88,0,0,1,.31-.4,3,3,0,0,1,1-.58A3.72,3.72,0,0,1,86.1,92a2.88,2.88,0,0,1,2.08.71,2.67,2.67,0,0,1,.73,2v4.23s0,0-.12.07a.73.73,0,0,1-.25,0q-.54,0-.6-.66,0-.39,0-.63a2.54,2.54,0,0,1-1,1,3.08,3.08,0,0,1-1.52.37,2.54,2.54,0,0,1-1.7-.52A1.69,1.69,0,0,1,83,97.23Zm4.85-1.58-.24,0a8,8,0,0,0-2.73.4,1.19,1.19,0,0,0-.84,1.13,1,1,0,0,0,.4.85,1.72,1.72,0,0,0,1.09.32,2.48,2.48,0,0,0,1.18-.28,2.06,2.06,0,0,0,.83-.74,1.79,1.79,0,0,0,.31-1Zm5.53,3.51a3,3,0,0,1-1.63-.46,3.12,3.12,0,0,1-1.12-1.26,4.45,4.45,0,0,1,0-3.73,3.07,3.07,0,0,1,1.13-1.26A3,3,0,0,1,93.44,92a2.94,2.94,0,0,1,1.51.37,2.44,2.44,0,0,1,1,.95v-4s0-.06.11-.08a.93.93,0,0,1,.25,0c.45,0,.68.31.68.92v8.42c0,.33-.16.49-.46.49h-.1a.4.4,0,0,1-.45-.46c0-.19,0-.49,0-.89a3,3,0,0,1-1,1.08,2.79,2.79,0,0,1-1.5.39Zm2.49-4.65A2.55,2.55,0,0,0,95,93.3a2.35,2.35,0,0,0-1.42-.43,2.11,2.11,0,0,0-1.68.75,2.89,2.89,0,0,0-.65,1.95,3.16,3.16,0,0,0,.3,1.4,2.24,2.24,0,0,0,.82,1,2.15,2.15,0,0,0,1.19.34A2.4,2.4,0,0,0,94.76,98a2.18,2.18,0,0,0,.84-.81A2.12,2.12,0,0,0,95.91,96Zm2.44,1.1a3.93,3.93,0,0,1,.44-1.86,3.25,3.25,0,0,1,1.2-1.29,3.34,3.34,0,0,1,1.75-.46,3.16,3.16,0,0,1,1.65.42,2.85,2.85,0,0,1,1.1,1.18,3.85,3.85,0,0,1,.39,1.77v.1a.37.37,0,0,1-.08.26.47.47,0,0,1-.28.07H99.34a1,1,0,0,0,0,.2,2.44,2.44,0,0,0,.78,1.66,2.41,2.41,0,0,0,1.71.63A2.27,2.27,0,0,0,104.08,97a.35.35,0,0,1,.19,0,.59.59,0,0,1,.27.18.45.45,0,0,1,.12.33.81.81,0,0,1-.13.4,1.67,1.67,0,0,1-.41.44,3,3,0,0,1-1,.53,4,4,0,0,1-1.33.21,3.59,3.59,0,0,1-1.82-.45,3.08,3.08,0,0,1-1.23-1.25,3.86,3.86,0,0,1-.44-1.85Zm5.51-.56a2.37,2.37,0,0,0-.62-1.61,2,2,0,0,0-1.5-.61,2.17,2.17,0,0,0-1.58.62,2.68,2.68,0,0,0-.79,1.6Z"/><line class="cls-1" x1="58.34" y1="108.93" x2="58.34" y2="114.9"/><text class="cls-7" transform="translate(54.83 129.13)">0</text><line class="cls-1" x1="109.37" y1="108.93" x2="109.37" y2="114.9"/><text class="cls-7" transform="translate(105.86 129.13)">1</text><line class="cls-1" x1="160.39" y1="108.93" x2="160.39" y2="114.9"/><text class="cls-7" transform="translate(156.88 129.13)">2</text><line class="cls-1" x1="211.42" y1="108.93" x2="211.42" y2="114.9"/><text class="cls-7" transform="translate(207.91 129.13)">3</text><line class="cls-1" x1="92.36" y1="108.93" x2="92.36" y2="114.9"/><text class="cls-5" transform="translate(72.86 126.3)">1</text><line class="cls-6" x1="72.86" y1="128.37" x2="77.84" y2="128.37"/><text class="cls-5" transform="translate(72.86 136.9)">3</text><circle class="cls-4" cx="58.34" cy="111.91" r="2.99" transform="translate(-24.15 16.4) rotate(-13.28)"/><circle class="cls-4" cx="75.35" cy="111.91" r="2.99" transform="translate(-23.7 20.31) rotate(-13.28)"/></svg>