<svg id="Camada_1" data-name="Camada 1" xmlns="http://www.w3.org/2000/svg" viewBox="0 0 401.88 97.71"><defs><style>.cls-1,.cls-10,.cls-11,.cls-2,.cls-3{fill:none;}.cls-1,.cls-2{stroke:#000;stroke-width:0.4px;}.cls-1,.cls-10,.cls-11,.cls-3{stroke-miterlimit:10;}.cls-2{stroke-linecap:round;stroke-linejoin:round;}.cls-3{stroke:#95d4e9;stroke-width:1.7px;}.cls-4{fill:#95d4e9;}.cls-5{font-size:14.35px;font-family:CMMI12;}.cls-6{fill:#e6164d;}.cls-7,.cls-9{font-size:20.66px;}.cls-7{font-family:CMSY10;}.cls-8{fill:#557433;}.cls-9{font-family:CMR17;}.cls-10{stroke:#557433;}.cls-10,.cls-11{stroke-width:1.13px;}.cls-11{stroke:#e6164d;}</style></defs><line class="cls-1" x1="8.28" y1="34.55" x2="393.4" y2="34.55"/><path class="cls-2" d="M391.53,32.16a3.15,3.15,0,0,0,2.07,2.39,3.15,3.15,0,0,0-2.07,2.39"/><line class="cls-1" x1="32.37" y1="31.56" x2="32.37" y2="37.54"/><path d="M32.35,52.12a3.55,3.55,0,0,1-1.94-.53,3.42,3.42,0,0,1-1.27-1.5,5.41,5.41,0,0,1-.44-2.29v-.95a5.46,5.46,0,0,1,.44-2.3A3.35,3.35,0,0,1,30.42,43a3.94,3.94,0,0,1,3.91,0,3.37,3.37,0,0,1,1.28,1.5,5.46,5.46,0,0,1,.44,2.3v.93a5.46,5.46,0,0,1-.45,2.3,3.49,3.49,0,0,1-1.28,1.52,3.63,3.63,0,0,1-2,.53Zm0-.92a2.27,2.27,0,0,0,1.91-.89,4,4,0,0,0,.68-2.5v-1a4.11,4.11,0,0,0-.68-2.51,2.26,2.26,0,0,0-1.91-.91,2.23,2.23,0,0,0-1.9.9,4,4,0,0,0-.68,2.49v1a4.07,4.07,0,0,0,.68,2.49,2.24,2.24,0,0,0,1.9.91Z"/><line class="cls-1" x1="80.56" y1="31.56" x2="80.56" y2="37.54"/><path d="M80.92,51.92q-.45,0-.45-.51V44.15a1.08,1.08,0,0,1-.44.38,1.27,1.27,0,0,1-.61.14,1.12,1.12,0,0,1-.81-.29.7.7,0,0,1-.23-.54.68.68,0,0,1,.06-.29.78.78,0,0,1,.14-.2c.06-.05.09-.07.11-.06a1,1,0,0,0,.82.35,1.11,1.11,0,0,0,.8-.33,1.17,1.17,0,0,0,.36-.79h.39c.32,0,.47.17.47.5v8.39c0,.34-.15.51-.47.51Z"/><line class="cls-1" x1="128.75" y1="31.56" x2="128.75" y2="37.54"/><path d="M126.34,52a.77.77,0,0,1-.53-.14.6.6,0,0,1-.17-.47V51a3,3,0,0,1,.39-1.57,3.49,3.49,0,0,1,1-1.08,12.31,12.31,0,0,1,1.48-.88c.61-.32,1.06-.56,1.33-.73a3.1,3.1,0,0,0,.71-.64,1.44,1.44,0,0,0,.3-.91,1.55,1.55,0,0,0-.55-1.25,2.18,2.18,0,0,0-1.5-.47,2.3,2.3,0,0,0-1.59.53,2.81,2.81,0,0,0-.79,1.37s-.07,0-.2,0a.75.75,0,0,1-.36-.17.47.47,0,0,1-.16-.39,1.56,1.56,0,0,1,.19-.68,2.52,2.52,0,0,1,.54-.73,3.46,3.46,0,0,1,1-.65,3.59,3.59,0,0,1,1.39-.25,3.23,3.23,0,0,1,2.23.72,2.49,2.49,0,0,1,.81,1.95,2.27,2.27,0,0,1-.34,1.27,3,3,0,0,1-.89.89,12.25,12.25,0,0,1-1.44.79,14,14,0,0,0-1.3.72,3,3,0,0,0-.83.79,2.06,2.06,0,0,0-.38,1.07l0,.29h4.87c.34,0,.51.15.51.43v.09c0,.29-.17.44-.51.44Z"/><line class="cls-1" x1="176.94" y1="31.56" x2="176.94" y2="37.54"/><path d="M176.69,52.12a4.2,4.2,0,0,1-1.51-.25,3,3,0,0,1-1.08-.63,2.33,2.33,0,0,1-.51-.6,1.26,1.26,0,0,1-.17-.56.56.56,0,0,1,.14-.39.76.76,0,0,1,.31-.18q.16,0,.18,0a2.26,2.26,0,0,0,.95,1.24,3,3,0,0,0,1.69.46,2.65,2.65,0,0,0,1.7-.5,1.8,1.8,0,0,0,0-2.72,2.69,2.69,0,0,0-1.72-.48h-.8c-.34,0-.5-.13-.5-.39V47c0-.27.15-.4.47-.4h.95a2.2,2.2,0,0,0,1.45-.43,1.44,1.44,0,0,0,.51-1.18,1.42,1.42,0,0,0-.56-1.19,2.36,2.36,0,0,0-1.53-.45,2.57,2.57,0,0,0-1.45.41,2.48,2.48,0,0,0-.9,1.06s-.08,0-.19,0a.67.67,0,0,1-.31-.19.48.48,0,0,1-.14-.35.89.89,0,0,1,.15-.44,2.55,2.55,0,0,1,.4-.48,3.11,3.11,0,0,1,1.07-.62,3.92,3.92,0,0,1,1.4-.24,3.66,3.66,0,0,1,2.3.65,2.18,2.18,0,0,1,.82,1.8,2,2,0,0,1-.43,1.3,2.23,2.23,0,0,1-1.22.73,2.66,2.66,0,0,1,1.41.87,2.36,2.36,0,0,1,.5,1.52,2.43,2.43,0,0,1-.91,2,3.93,3.93,0,0,1-2.49.73Z"/><line class="cls-1" x1="225.13" y1="31.56" x2="225.13" y2="37.54"/><path d="M226.66,51.93a.42.42,0,0,1-.32-.14.56.56,0,0,1-.12-.36v-2.2h-4a.76.76,0,0,1-.5-.14.44.44,0,0,1-.19-.37v-.26a.81.81,0,0,1,.08-.34,2.65,2.65,0,0,1,.25-.41l3.61-4.66a1.63,1.63,0,0,1,.41-.42,1,1,0,0,1,.54-.11.94.94,0,0,1,.63.16.67.67,0,0,1,.19.54v5.11h1.18q.48,0,.48.42v.07c0,.27-.16.41-.48.41h-1.18v2.2c0,.33-.15.5-.46.5Zm-.4-3.6V43.45l-3.76,4.88Z"/><line class="cls-1" x1="273.32" y1="31.56" x2="273.32" y2="37.54"/><path d="M273.17,52a4.5,4.5,0,0,1-1.45-.23,3.26,3.26,0,0,1-1.1-.62,2,2,0,0,1-.44-.49.88.88,0,0,1-.16-.47.47.47,0,0,1,.12-.32.79.79,0,0,1,.26-.2c.1,0,.16,0,.18,0a2.47,2.47,0,0,0,1,1,3.11,3.11,0,0,0,1.58.39,2.58,2.58,0,0,0,1.74-.56,1.9,1.9,0,0,0,.64-1.52,1.85,1.85,0,0,0-.61-1.48,2.37,2.37,0,0,0-1.64-.54,3.61,3.61,0,0,0-2.24.67.64.64,0,0,1-.67-.7V43.15a.65.65,0,0,1,.16-.46.56.56,0,0,1,.43-.17h4.66c.33,0,.5.15.5.44V43c0,.28-.17.43-.5.43h-4.26v3.08a4.26,4.26,0,0,1,2.05-.5,3.34,3.34,0,0,1,2.3.78,2.68,2.68,0,0,1,.87,2.1,2.82,2.82,0,0,1-.92,2.22,3.69,3.69,0,0,1-2.51.81Z"/><line class="cls-1" x1="321.51" y1="31.56" x2="321.51" y2="37.54"/><path d="M321.77,52.12A3.26,3.26,0,0,1,319.13,51a4.71,4.71,0,0,1-.95-3.12v-1a5.66,5.66,0,0,1,.45-2.35,3.27,3.27,0,0,1,1.28-1.5,3.59,3.59,0,0,1,2-.52,4.15,4.15,0,0,1,1.34.2,2.76,2.76,0,0,1,1,.53,1.34,1.34,0,0,1,.36.44,1,1,0,0,1,.12.42.44.44,0,0,1-.1.3.67.67,0,0,1-.25.2c-.09,0-.14.07-.16.06a2.61,2.61,0,0,0-.9-.91,2.56,2.56,0,0,0-1.34-.34,2.4,2.4,0,0,0-1.84.74,3.38,3.38,0,0,0-.79,2.12c0,.18,0,.57,0,1.17a3.39,3.39,0,0,1,1.15-.91,3.57,3.57,0,0,1,1.59-.35,3.2,3.2,0,0,1,2.21.75,2.6,2.6,0,0,1,.84,2V49a3.14,3.14,0,0,1-.41,1.59,3,3,0,0,1-1.17,1.11,3.57,3.57,0,0,1-1.69.4Zm0-.88a2.25,2.25,0,0,0,1.63-.59A2,2,0,0,0,324,49.1V49a1.88,1.88,0,0,0-.58-1.48,2.32,2.32,0,0,0-1.62-.53,3,3,0,0,0-1.48.38,2.8,2.8,0,0,0-1,.94l0,.25a3.22,3.22,0,0,0,.77,2,2.16,2.16,0,0,0,1.67.69Z"/><line class="cls-1" x1="369.7" y1="31.56" x2="369.7" y2="37.54"/><path d="M368.28,51.86a.75.75,0,0,1-.54-.26c-.05-.07-.07-.11-.05-.14l4.14-7.94h-4.91a.52.52,0,0,1-.36-.12.42.42,0,0,1-.13-.34V43a.42.42,0,0,1,.13-.34.52.52,0,0,1,.36-.12h5.42a.72.72,0,0,1,.53.14A.46.46,0,0,1,373,43v.1a.83.83,0,0,1-.08.32,3.82,3.82,0,0,1-.23.47l-3.87,7.56a.59.59,0,0,1-.56.39Z"/><line class="cls-3" x1="176.94" y1="34.55" x2="369.7" y2="34.55"/><circle class="cls-4" cx="176.94" cy="34.55" r="2.99" transform="translate(-3.25 28.79) rotate(-9.22)"/><circle class="cls-4" cx="369.7" cy="34.55" r="2.99" transform="translate(-0.76 59.67) rotate(-9.22)"/><text class="cls-5" transform="translate(171.68 26.58)">A</text><text class="cls-5" transform="translate(364 26.58)">B</text><path class="cls-6" d="M244.52,70.46a.88.88,0,0,1-.44-.12.81.81,0,0,1-.33-.26c-.08-.09-.1-.16-.07-.2l5.95-11.43h-7.07a.77.77,0,0,1-.52-.17.66.66,0,0,1-.18-.49v-.12a.66.66,0,0,1,.18-.49.73.73,0,0,1,.52-.17h7.81a1.15,1.15,0,0,1,.77.19.72.72,0,0,1,.2.53v.14a1.2,1.2,0,0,1-.1.46c-.07.16-.18.39-.33.68L245.33,69.9a.87.87,0,0,1-.81.56Z"/><text class="cls-7" transform="translate(251.78 70.37)">−</text><path class="cls-8" d="M272.89,70.6a6.43,6.43,0,0,1-2.18-.35,4.53,4.53,0,0,1-1.56-.91,2.88,2.88,0,0,1-.72-.87,1.67,1.67,0,0,1-.25-.8.78.78,0,0,1,.2-.56,1,1,0,0,1,.45-.26c.16,0,.24,0,.26,0a3.22,3.22,0,0,0,1.36,1.8,4.39,4.39,0,0,0,2.44.66,3.83,3.83,0,0,0,2.44-.72,2.6,2.6,0,0,0,0-3.92,3.91,3.91,0,0,0-2.48-.69h-1.16c-.48,0-.72-.19-.72-.56v-.12c0-.39.23-.58.68-.58h1.36a3.19,3.19,0,0,0,2.09-.61,2.28,2.28,0,0,0-.06-3.42,3.46,3.46,0,0,0-2.21-.64,3.64,3.64,0,0,0-2.09.59,3.47,3.47,0,0,0-1.3,1.52s-.1,0-.27,0a1.22,1.22,0,0,1-.44-.28.69.69,0,0,1-.2-.51,1.22,1.22,0,0,1,.22-.63,3,3,0,0,1,.57-.69,4.76,4.76,0,0,1,1.53-.9,5.75,5.75,0,0,1,2-.34,5.22,5.22,0,0,1,3.32.94,3.12,3.12,0,0,1,1.18,2.59,2.8,2.8,0,0,1-.62,1.87,3.21,3.21,0,0,1-1.75,1,3.85,3.85,0,0,1,2,1.27,3.36,3.36,0,0,1,.73,2.19,3.49,3.49,0,0,1-1.32,2.87,5.57,5.57,0,0,1-3.58,1Z"/><text class="cls-9" transform="translate(278.65 70.37)">=</text><path class="cls-4" d="M301.61,70.46a.58.58,0,0,1-.47-.21.76.76,0,0,1-.17-.52V66.57h-5.75a1.2,1.2,0,0,1-.72-.2.65.65,0,0,1-.27-.54v-.37a1.21,1.21,0,0,1,.11-.49,5.9,5.9,0,0,1,.36-.59l5.21-6.71a2.14,2.14,0,0,1,.58-.61,1.48,1.48,0,0,1,.79-.16,1.33,1.33,0,0,1,.9.24,1,1,0,0,1,.27.77v7.36h1.7c.47,0,.7.2.7.6V66c0,.4-.23.6-.7.6h-1.7v3.16c0,.49-.22.73-.66.73ZM301,65.27v-7l-5.42,7Z"/><line class="cls-10" x1="33.23" y1="64.44" x2="176.09" y2="64.44"/><line class="cls-10" x1="32.94" y1="68.2" x2="32.94" y2="60.68"/><line class="cls-10" x1="176.38" y1="60.68" x2="176.38" y2="68.2"/><line class="cls-11" x1="33.23" y1="79.38" x2="368.85" y2="79.38"/><line class="cls-11" x1="32.94" y1="83.14" x2="32.94" y2="75.62"/><line class="cls-11" x1="369.14" y1="75.62" x2="369.14" y2="83.14"/></svg>