<svg id="Camada_1" data-name="Camada 1" xmlns="http://www.w3.org/2000/svg" viewBox="0 0 292.95 99.25"><defs><style>.cls-1,.cls-2,.cls-5{fill:none;stroke:#000;}.cls-1,.cls-5{stroke-miterlimit:10;}.cls-1,.cls-2{stroke-width:0.4px;}.cls-2{stroke-linecap:round;stroke-linejoin:round;}.cls-3{font-size:14.35px;font-family:CMR12;}.cls-4{font-size:9.96px;font-family:CMR10;}.cls-5{stroke-width:0.57px;}</style></defs><line class="cls-1" x1="12.72" y1="37.38" x2="267.45" y2="37.38"/><path class="cls-2" d="M265.57,35a3.17,3.17,0,0,0,2.07,2.39,3.17,3.17,0,0,0-2.07,2.39"/><line class="cls-1" x1="60.56" y1="34.39" x2="60.56" y2="40.37"/><text class="cls-3" transform="translate(57.04 54.6)">0</text><line class="cls-1" x1="220.01" y1="34.39" x2="220.01" y2="40.37"/><text class="cls-3" transform="translate(216.49 54.6)">1</text><line class="cls-1" x1="80.49" y1="34.39" x2="80.49" y2="40.37"/><line class="cls-1" x1="100.42" y1="34.39" x2="100.42" y2="40.37"/><line class="cls-1" x1="120.35" y1="34.39" x2="120.35" y2="40.37"/><line class="cls-1" x1="140.28" y1="34.39" x2="140.28" y2="40.37"/><line class="cls-1" x1="160.21" y1="34.39" x2="160.21" y2="40.37"/><line class="cls-1" x1="180.15" y1="34.39" x2="180.15" y2="40.37"/><line class="cls-1" x1="200.08" y1="34.39" x2="200.08" y2="40.37"/><text class="cls-4" transform="translate(97.93 51.77)">2</text><line class="cls-5" x1="97.93" y1="53.83" x2="102.91" y2="53.83"/><text class="cls-4" transform="translate(97.93 62.37)">8</text><text class="cls-4" transform="translate(137.79 51.77)">4</text><line class="cls-5" x1="137.79" y1="53.83" x2="142.77" y2="53.83"/><text class="cls-4" transform="translate(137.79 62.37)">8</text><text class="cls-4" transform="translate(177.65 51.77)">6</text><line class="cls-5" x1="177.66" y1="53.83" x2="182.64" y2="53.83"/><text class="cls-4" transform="translate(177.65 62.37)">8</text></svg>