<svg id="Camada_1" data-name="Camada 1" xmlns="http://www.w3.org/2000/svg" xmlns:xlink="http://www.w3.org/1999/xlink" viewBox="0 0 174.7 176.45"><defs><style>.cls-1,.cls-10,.cls-3,.cls-5,.cls-6,.cls-7{fill:none;}.cls-2{clip-path:url(#clip-path);}.cls-3,.cls-5{stroke:#95d4e9;}.cls-10,.cls-3,.cls-5,.cls-6,.cls-7{stroke-miterlimit:10;}.cls-3{stroke-width:0.34px;}.cls-4{clip-path:url(#clip-path-2);}.cls-5,.cls-7{stroke-width:0.33px;}.cls-6{stroke:#e6164d;stroke-width:1px;}.cls-10,.cls-7{stroke:#000;}.cls-8{fill:#95d4e9;}.cls-9{font-size:12.04px;font-family:CMR12;}.cls-10{stroke-width:0.48px;}</style><clipPath id="clip-path"><rect class="cls-1" x="16.02" y="-193.72" width="142.66" height="142.66"/></clipPath><clipPath id="clip-path-2"><rect class="cls-1" x="17.12" y="17.99" width="140.47" height="140.47"/></clipPath></defs><g class="cls-2"><line class="cls-3" x1="4.77" y1="-39.8" x2="4.77" y2="96.06"/><line class="cls-3" x1="14.38" y1="-49.41" x2="14.38" y2="86.46"/><line class="cls-3" x1="23.98" y1="-59.02" x2="23.98" y2="76.85"/><line class="cls-3" x1="33.59" y1="-68.63" x2="33.59" y2="67.24"/><line class="cls-3" x1="43.2" y1="-78.24" x2="43.2" y2="57.63"/><line class="cls-3" x1="52.81" y1="-87.84" x2="52.81" y2="48.02"/><line class="cls-3" x1="62.41" y1="-97.45" x2="62.42" y2="38.42"/><line class="cls-3" x1="72.02" y1="-107.06" x2="72.02" y2="28.81"/><line class="cls-3" x1="81.63" y1="-116.67" x2="81.63" y2="19.2"/><line class="cls-3" x1="91.24" y1="-126.28" x2="91.24" y2="9.59"/></g><g class="cls-4"><line class="cls-5" x1="6.04" y1="169.54" x2="-127.74" y2="169.54"/><line class="cls-5" x1="6.04" y1="169.54" x2="139.82" y2="169.54"/><line class="cls-5" x1="15.5" y1="160.08" x2="-118.28" y2="160.08"/><line class="cls-5" x1="15.5" y1="160.08" x2="149.28" y2="160.08"/><line class="cls-5" x1="24.96" y1="150.62" x2="-108.82" y2="150.62"/><line class="cls-5" x1="24.96" y1="150.62" x2="158.74" y2="150.62"/><line class="cls-5" x1="34.42" y1="141.16" x2="-99.36" y2="141.16"/><line class="cls-5" x1="34.42" y1="141.16" x2="168.2" y2="141.16"/><line class="cls-5" x1="43.88" y1="131.7" x2="-89.9" y2="131.7"/><line class="cls-5" x1="43.88" y1="131.7" x2="177.66" y2="131.7"/><line class="cls-5" x1="53.34" y1="122.24" x2="-80.44" y2="122.24"/><line class="cls-5" x1="53.34" y1="122.24" x2="187.12" y2="122.24"/><line class="cls-5" x1="62.8" y1="112.78" x2="-70.98" y2="112.78"/><line class="cls-5" x1="62.8" y1="112.78" x2="196.58" y2="112.78"/><line class="cls-5" x1="72.26" y1="103.32" x2="-61.52" y2="103.32"/><line class="cls-5" x1="72.26" y1="103.32" x2="206.04" y2="103.32"/><line class="cls-5" x1="81.72" y1="93.86" x2="-52.06" y2="93.86"/><line class="cls-5" x1="81.72" y1="93.86" x2="215.5" y2="93.86"/><line class="cls-5" x1="91.18" y1="84.4" x2="-42.6" y2="84.4"/><line class="cls-5" x1="91.18" y1="84.4" x2="224.96" y2="84.4"/><line class="cls-5" x1="100.64" y1="74.94" x2="-33.14" y2="74.94"/><line class="cls-5" x1="100.64" y1="74.94" x2="234.42" y2="74.94"/><line class="cls-5" x1="110.1" y1="65.48" x2="-23.68" y2="65.48"/><line class="cls-5" x1="110.1" y1="65.48" x2="243.88" y2="65.48"/><line class="cls-5" x1="119.56" y1="56.02" x2="-14.22" y2="56.02"/><line class="cls-5" x1="119.56" y1="56.02" x2="253.34" y2="56.02"/><line class="cls-5" x1="129.02" y1="46.56" x2="-4.76" y2="46.56"/><line class="cls-5" x1="129.02" y1="46.56" x2="262.8" y2="46.56"/><line class="cls-5" x1="138.48" y1="37.1" x2="4.7" y2="37.1"/><line class="cls-5" x1="138.48" y1="37.1" x2="272.26" y2="37.1"/><line class="cls-5" x1="147.94" y1="27.63" x2="14.16" y2="27.63"/><line class="cls-5" x1="147.94" y1="27.63" x2="281.72" y2="27.63"/><line class="cls-5" x1="157.4" y1="18.17" x2="23.62" y2="18.17"/><line class="cls-5" x1="157.4" y1="18.17" x2="291.18" y2="18.17"/><line class="cls-5" x1="166.86" y1="8.71" x2="33.08" y2="8.71"/><line class="cls-5" x1="166.86" y1="8.71" x2="300.64" y2="8.71"/><line class="cls-6" x1="24.95" y1="150.62" x2="157.39" y2="18.19"/><line class="cls-7" x1="42.1" y1="129.93" x2="45.65" y2="133.48"/><line class="cls-7" x1="51.56" y1="120.47" x2="55.11" y2="124.02"/><line class="cls-7" x1="61.02" y1="111.01" x2="64.56" y2="114.56"/><line class="cls-7" x1="70.48" y1="101.55" x2="74.02" y2="105.1"/><line class="cls-7" x1="79.94" y1="92.09" x2="83.48" y2="95.64"/><line class="cls-7" x1="89.39" y1="82.63" x2="92.94" y2="86.18"/><line class="cls-7" x1="98.85" y1="73.18" x2="102.4" y2="76.72"/><line class="cls-7" x1="108.31" y1="63.72" x2="111.86" y2="67.26"/><line class="cls-7" x1="117.77" y1="54.26" x2="121.32" y2="57.8"/><line class="cls-7" x1="127.23" y1="44.8" x2="130.78" y2="48.35"/><path class="cls-8" d="M64.56,111a2.51,2.51,0,1,0,0,3.55A2.5,2.5,0,0,0,64.56,111Z"/><text class="cls-9" transform="translate(59.85 124.72)">1</text><line class="cls-10" x1="59.85" y1="129.85" x2="65.74" y2="129.85"/><text class="cls-9" transform="translate(59.85 141.12)">2</text><circle class="cls-8" cx="100.63" cy="74.94" r="2.51"/><text class="cls-9" transform="translate(97.69 86.88)">3</text><line class="cls-10" x1="97.68" y1="92.01" x2="103.58" y2="92.01"/><text class="cls-9" transform="translate(97.69 103.28)">2</text></g></svg>