<svg id="Camada_1" data-name="Camada 1" xmlns="http://www.w3.org/2000/svg" xmlns:xlink="http://www.w3.org/1999/xlink" viewBox="0 0 88.9 34.53"><defs><style>.cls-1,.cls-2{fill:none;}.cls-2{stroke:#000;stroke-miterlimit:10;stroke-width:0.4px;}.cls-3{clip-path:url(#clip-path);}.cls-4{fill:#e6164d;}</style><clipPath id="clip-path"><polygon class="cls-1" points="31.84 9.89 19.07 2.52 6.3 9.89 6.3 24.64 19.07 32.01 31.84 24.64 44.6 32.01 57.37 24.64 70.13 32.01 82.9 24.64 82.9 9.89 70.13 2.52 57.37 9.89 44.6 2.52 31.84 9.89"/></clipPath></defs><polygon class="cls-2" points="31.84 9.89 19.07 2.52 6.3 9.89 6.3 24.64 19.07 32.01 31.84 24.64 44.6 32.01 57.37 24.64 70.13 32.01 82.9 24.64 82.9 9.89 70.13 2.52 57.37 9.89 44.6 2.52 31.84 9.89"/><g class="cls-3"><rect class="cls-4" x="4.33" y="2.53" width="91.33" height="29.48"/><rect class="cls-2" x="4.33" y="2.53" width="91.33" height="29.48"/></g></svg>