<svg id="Camada_1" data-name="Camada 1" xmlns="http://www.w3.org/2000/svg" viewBox="0 0 339.92 233.14"><defs><style>.cls-1{fill:#feede0;}.cls-2{fill:none;stroke:#000;stroke-miterlimit:10;stroke-width:0.24px;}.cls-3{fill:#933c4c;}.cls-4{fill:#e6164d;}.cls-5{fill:#557333;}.cls-6{fill:#7c2a79;}.cls-7{fill:#f8c175;}.cls-8,.cls-9{fill:#636663;}.cls-8{opacity:0.8;}.cls-11,.cls-9{opacity:0.3;}.cls-10,.cls-11{fill:#f28c5e;}</style></defs><rect class="cls-1" x="8.38" y="6.02" width="68.03" height="102.05"/><rect class="cls-2" x="8.38" y="6.02" width="17.01" height="102.05"/><rect class="cls-2" x="25.39" y="6.02" width="17.01" height="102.05"/><rect class="cls-2" x="42.4" y="6.02" width="17.01" height="102.05"/><rect class="cls-2" x="59.4" y="6.02" width="17.01" height="102.05"/><rect class="cls-3" x="93.42" y="57.04" width="68.03" height="51.02"/><rect class="cls-2" x="93.42" y="57.04" width="68.03" height="51.02"/><rect class="cls-3" x="93.42" y="6.02" width="68.03" height="51.02"/><rect class="cls-2" x="93.42" y="6.02" width="68.03" height="51.02"/><line class="cls-2" x1="93.42" y1="108.07" x2="161.45" y2="57.04"/><line class="cls-2" x1="93.42" y1="57.04" x2="161.45" y2="6.02"/><rect class="cls-4" x="178.46" y="6.02" width="68.03" height="102.05"/><rect class="cls-2" x="178.46" y="82.55" width="68.03" height="25.51"/><rect class="cls-2" x="178.46" y="57.04" width="68.03" height="25.51"/><rect class="cls-2" x="178.46" y="31.53" width="68.03" height="25.51"/><rect class="cls-2" x="178.46" y="6.02" width="68.03" height="25.51"/><rect class="cls-5" x="263.51" y="6.02" width="68.03" height="102.05"/><rect class="cls-2" x="263.51" y="57.04" width="68.03" height="51.02"/><rect class="cls-2" x="263.51" y="6.02" width="68.03" height="51.02"/><line class="cls-2" x1="297.52" y1="108.07" x2="297.52" y2="6.02"/><rect class="cls-6" x="8.38" y="125.08" width="68.03" height="102.05"/><rect class="cls-2" x="8.38" y="176.1" width="68.03" height="51.02"/><rect class="cls-2" x="8.38" y="125.08" width="68.03" height="51.02"/><line class="cls-2" x1="42.4" y1="227.12" x2="42.4" y2="176.1"/><line class="cls-2" x1="8.38" y1="150.59" x2="76.42" y2="150.59"/><rect class="cls-7" x="93.43" y="176.1" width="68.03" height="51.02"/><rect class="cls-2" x="93.43" y="176.1" width="68.03" height="51.02"/><rect class="cls-7" x="93.43" y="125.08" width="68.03" height="51.02"/><rect class="cls-2" x="93.43" y="125.08" width="68.03" height="51.02"/><line class="cls-2" x1="93.43" y1="201.61" x2="161.46" y2="201.61"/><line class="cls-2" x1="93.43" y1="176.1" x2="161.46" y2="125.08"/><rect class="cls-8" x="178.47" y="125.08" width="68.03" height="102.05"/><rect class="cls-9" x="178.47" y="176.1" width="68.03" height="51.02"/><rect class="cls-2" x="178.47" y="176.1" width="68.03" height="51.02"/><rect class="cls-9" x="178.47" y="125.08" width="68.03" height="51.02"/><rect class="cls-2" x="178.47" y="125.08" width="68.03" height="51.02"/><line class="cls-2" x1="212.48" y1="227.12" x2="212.48" y2="176.1"/><line class="cls-2" x1="178.47" y1="125.08" x2="246.5" y2="176.1"/><rect class="cls-10" x="263.5" y="125.08" width="68.03" height="102.05"/><rect class="cls-11" x="263.5" y="125.08" width="68.03" height="102.05"/><rect class="cls-2" x="263.5" y="125.08" width="68.03" height="102.05"/><line class="cls-2" x1="280.51" y1="227.12" x2="280.51" y2="125.08"/><line class="cls-2" x1="297.52" y1="227.12" x2="297.52" y2="125.08"/><line class="cls-2" x1="297.52" y1="176.1" x2="331.54" y2="176.1"/></svg>