<svg id="Camada_1" data-name="Camada 1" xmlns="http://www.w3.org/2000/svg" viewBox="0 0 448.47 379.1"><defs><style>.cls-1{fill:#542f12;}.cls-2,.cls-3,.cls-4,.cls-5,.cls-6{fill:none;stroke:#000;}.cls-2,.cls-3,.cls-4{stroke-miterlimit:10;}.cls-2{stroke-width:0.4px;}.cls-3{stroke-width:0.8px;stroke-dasharray:2.99 2.99;}.cls-4,.cls-6{stroke-width:1.2px;}.cls-5,.cls-6{stroke-linecap:round;stroke-linejoin:round;}.cls-5{stroke-width:1.2px;}</style></defs><rect class="cls-1" x="147.63" y="39.71" width="153.07" height="51.02"/><rect class="cls-2" x="147.63" y="39.71" width="153.07" height="51.02"/><rect class="cls-1" x="147.63" y="103.49" width="153.07" height="51.02"/><rect class="cls-2" x="147.63" y="103.49" width="153.07" height="51.02"/><line class="cls-3" x1="198.65" y1="26.95" x2="198.65" y2="167.27"/><line class="cls-3" x1="249.68" y1="26.95" x2="249.68" y2="167.27"/><line class="cls-4" x1="173.14" y1="159.62" x2="97.74" y2="184.75"/><path class="cls-5" d="M101.26,187.62a4.93,4.93,0,0,0-4.09-2.68,4.9,4.9,0,0,0,1.66-4.59"/><line class="cls-4" x1="224.16" y1="159.62" x2="224.16" y2="183.93"/><path class="cls-6" d="M228,181.5a4.94,4.94,0,0,0-3.83,3,4.91,4.91,0,0,0-3.83-3"/><line class="cls-4" x1="275.19" y1="159.62" x2="350.59" y2="184.75"/><path class="cls-5" d="M349.49,180.35a4.93,4.93,0,0,0,1.67,4.59,4.92,4.92,0,0,0-4.09,2.68"/><path d="M349.28,169.44a1.61,1.61,0,0,1-.28-.38.86.86,0,0,1-.09-.35.41.41,0,0,1,.09-.26.6.6,0,0,1,.2-.19c.07,0,.12-.07.14,0a2.52,2.52,0,0,0,.89.92,2.6,2.6,0,0,0,1.43.37,2.19,2.19,0,0,0,1.35-.38,1.24,1.24,0,0,0,.49-1,1,1,0,0,0-.27-.75,1.72,1.72,0,0,0-.67-.43c-.27-.1-.64-.2-1.11-.32a7.27,7.27,0,0,1-1.22-.4,2.22,2.22,0,0,1-.81-.65,1.8,1.8,0,0,1-.32-1.13,2,2,0,0,1,.33-1.12,2.27,2.27,0,0,1,.93-.76,3.24,3.24,0,0,1,1.34-.28,3.78,3.78,0,0,1,1.26.2,2.54,2.54,0,0,1,.88.5,1,1,0,0,1,.37.68.47.47,0,0,1-.09.28.77.77,0,0,1-.22.19c-.08.05-.12.06-.13,0a2.24,2.24,0,0,0-.81-.81,2.41,2.41,0,0,0-1.26-.32,2,2,0,0,0-1.25.37,1.23,1.23,0,0,0-.48,1,1.06,1.06,0,0,0,.23.71,1.53,1.53,0,0,0,.61.39c.24.09.61.19,1.08.31a5.22,5.22,0,0,1,1.83.76,1.74,1.74,0,0,1,.66,1.49,2,2,0,0,1-.73,1.61,3,3,0,0,1-2,.6,4.11,4.11,0,0,1-1.42-.22,2.76,2.76,0,0,1-1-.59Zm10.89-5.07c.25,0,.38.14.38.41v5.29s0,0-.1.06a.52.52,0,0,1-.21,0c-.3,0-.46-.19-.5-.56,0-.21,0-.37,0-.47a2.38,2.38,0,0,1-.8.81,2.2,2.2,0,0,1-1.16.3,2,2,0,0,1-1.63-.67,2.77,2.77,0,0,1-.55-1.81v-3c0-.27.12-.41.38-.41H356c.26,0,.39.14.39.41v2.93a2,2,0,0,0,.39,1.31,1.37,1.37,0,0,0,1.11.47,1.91,1.91,0,0,0,1.06-.31,2,2,0,0,0,.7-.85v-3.55c0-.27.12-.41.37-.41Zm3.74,8.26c-1.78,0-2.67-.52-2.67-1.55a1.31,1.31,0,0,1,.53-1,3.1,3.1,0,0,1,1.34-.58.64.64,0,0,1-.36-.57.72.72,0,0,1,.35-.61,2.13,2.13,0,0,1-1.06-.71,1.87,1.87,0,0,1-.39-1.17,2,2,0,0,1,.3-1.07,2.18,2.18,0,0,1,.83-.76,2.45,2.45,0,0,1,1.18-.28,2.38,2.38,0,0,1,1.35.39l.43-.64a.59.59,0,0,1,.5-.35.41.41,0,0,1,.25.08.93.93,0,0,1,.18.16c0,.06.06.11.05.14l-1,1a1.85,1.85,0,0,1,.52,1.29,1.89,1.89,0,0,1-.3,1,2.11,2.11,0,0,1-.83.73,2.6,2.6,0,0,1-1.19.27h-.31a.33.33,0,0,0-.14.31.35.35,0,0,0,.25.32,4.79,4.79,0,0,0,.86.25l.44.11q1.71.42,1.71,1.53a1.41,1.41,0,0,1-.75,1.26,4.18,4.18,0,0,1-2.12.45Zm0-.62a3.49,3.49,0,0,0,1.49-.26.83.83,0,0,0,.52-.77.65.65,0,0,0-.33-.57,2.84,2.84,0,0,0-.92-.36l-.71-.17a3.35,3.35,0,0,0-1.35.39.92.92,0,0,0-.55.8.75.75,0,0,0,.47.69,3,3,0,0,0,1.38.25Zm0-4.2a1.49,1.49,0,0,0,1.06-.39,1.39,1.39,0,0,0,.41-1,1.42,1.42,0,0,0-.41-1,1.62,1.62,0,0,0-2.13,0,1.42,1.42,0,0,0-.4,1,1.35,1.35,0,0,0,.41,1,1.47,1.47,0,0,0,1.06.39Zm3.2-.51a3.2,3.2,0,0,1,.37-1.55,2.59,2.59,0,0,1,1-1.07,2.74,2.74,0,0,1,1.45-.39,2.58,2.58,0,0,1,1.38.35,2.32,2.32,0,0,1,.92,1,3.25,3.25,0,0,1,.32,1.47v.08a.32.32,0,0,1-.06.22.38.38,0,0,1-.24.06H368a.71.71,0,0,0,0,.16,2.05,2.05,0,0,0,.65,1.39,2,2,0,0,0,1.43.53,2.1,2.1,0,0,0,1.16-.29,2,2,0,0,0,.69-.77l.16,0a.57.57,0,0,1,.23.15.39.39,0,0,1,.1.28.75.75,0,0,1-.11.33,1.45,1.45,0,0,1-.34.37,2.37,2.37,0,0,1-.79.44,3.5,3.5,0,0,1-1.11.17,3,3,0,0,1-1.52-.37,2.55,2.55,0,0,1-1-1,3.13,3.13,0,0,1-.37-1.54Zm4.59-.47a2,2,0,0,0-.51-1.34A1.65,1.65,0,0,0,370,165a1.83,1.83,0,0,0-1.31.51,2.25,2.25,0,0,0-.66,1.34Zm1.93,2.82a.8.8,0,0,1-.35-.57.38.38,0,0,1,.08-.23.8.8,0,0,1,.17-.15c.07,0,.11,0,.12,0a2,2,0,0,0,.78.65,2.45,2.45,0,0,0,1.16.25,1.84,1.84,0,0,0,1-.26.8.8,0,0,0,.38-.69.68.68,0,0,0-.18-.5,1.37,1.37,0,0,0-.49-.28c-.21-.07-.51-.14-.92-.23a6.86,6.86,0,0,1-1-.27,1.84,1.84,0,0,1-.7-.47,1.21,1.21,0,0,1-.28-.85,1.52,1.52,0,0,1,.59-1.24,2.41,2.41,0,0,1,1.57-.48,3.23,3.23,0,0,1,1.13.18,2,2,0,0,1,.74.46,1.07,1.07,0,0,1,.15.22.6.6,0,0,1,.06.24.34.34,0,0,1-.08.23.55.55,0,0,1-.18.16c-.06,0-.1.05-.11,0a1.79,1.79,0,0,0-.69-.61,2.15,2.15,0,0,0-1-.24,1.75,1.75,0,0,0-1,.26.81.81,0,0,0-.36.68.65.65,0,0,0,.18.48,1.37,1.37,0,0,0,.48.27,7,7,0,0,0,.88.23,10.25,10.25,0,0,1,1.05.3,1.77,1.77,0,0,1,.71.47,1.2,1.2,0,0,1,.3.86,1.5,1.5,0,0,1-.62,1.26,2.61,2.61,0,0,1-1.65.47,3.59,3.59,0,0,1-1.15-.16,2.42,2.42,0,0,1-.8-.44Zm7.31.6a1.46,1.46,0,0,1-1.17-.44,2,2,0,0,1-.39-1.35v-3.31h-.56c-.25,0-.37-.11-.37-.33v-.08c0-.21.12-.32.37-.32h.56v-1c0-.27.13-.41.38-.41h.1c.24,0,.37.14.37.41v1h1.44c.25,0,.37.11.37.32v.07c0,.23-.12.34-.38.34h-1.45v3.18a1.52,1.52,0,0,0,.21.91.72.72,0,0,0,.64.28,1,1,0,0,0,.85-.44s.05,0,.09,0a.32.32,0,0,1,.1.14.41.41,0,0,1,.05.23.63.63,0,0,1-.21.44,1.42,1.42,0,0,1-1,.33Zm1.81-1.6a1.45,1.45,0,0,1,.94-1.4,7.5,7.5,0,0,1,3-.48h.13v-.24a1.47,1.47,0,0,0-.4-1.11,1.58,1.58,0,0,0-1.14-.39,2,2,0,0,0-1.08.27,1.77,1.77,0,0,0-.67.74.3.3,0,0,1-.16,0,.57.57,0,0,1-.25-.14.34.34,0,0,1-.11-.29.64.64,0,0,1,.09-.3,1.11,1.11,0,0,1,.25-.33,2.41,2.41,0,0,1,.82-.49,3.17,3.17,0,0,1,1.16-.19,2.42,2.42,0,0,1,1.73.59,2.23,2.23,0,0,1,.61,1.67v3.52s0,0-.1.06a.52.52,0,0,1-.21,0c-.3,0-.46-.18-.5-.55,0-.22,0-.4,0-.53a2.08,2.08,0,0,1-.85.84,2.5,2.5,0,0,1-1.26.31,2.15,2.15,0,0,1-1.42-.43,1.42,1.42,0,0,1-.52-1.16Zm4-1.31h-.2a6.57,6.57,0,0,0-2.28.33,1,1,0,0,0-.7.95.84.84,0,0,0,.33.7,1.43,1.43,0,0,0,.91.26,2.11,2.11,0,0,0,1-.22,1.76,1.76,0,0,0,.7-.62,1.55,1.55,0,0,0,.26-.86Zm-2.85-4a.43.43,0,0,1-.27-.1.88.88,0,0,1,0-.3,1.41,1.41,0,0,1,.3-.75.78.78,0,0,1,.62-.29.82.82,0,0,1,.44.11,3.62,3.62,0,0,1,.43.29,3.28,3.28,0,0,0,.64.51.48.48,0,0,0,.18-.17,1.12,1.12,0,0,0,.14-.29,2.4,2.4,0,0,1,.15-.29.23.23,0,0,1,.19-.09.33.33,0,0,1,.26.1.93.93,0,0,1,.05.32,1.33,1.33,0,0,1-.29.73.81.81,0,0,1-.63.28.92.92,0,0,1-.44-.1,2.28,2.28,0,0,1-.42-.29l-.29-.25a1.65,1.65,0,0,0-.35-.25.45.45,0,0,0-.16.15,2.4,2.4,0,0,0-.15.29,1.87,1.87,0,0,1-.16.3.25.25,0,0,1-.2.09Zm4.82,3.91a3.21,3.21,0,0,1,.37-1.53,2.69,2.69,0,0,1,1-1.06,2.9,2.9,0,0,1,1.51-.38,2.85,2.85,0,0,1,1.49.38,2.7,2.7,0,0,1,1,1.07,3.17,3.17,0,0,1,.37,1.55,3.08,3.08,0,0,1-.37,1.52,2.76,2.76,0,0,1-1,1.06,3.13,3.13,0,0,1-3,0,2.63,2.63,0,0,1-1-1.06,3.17,3.17,0,0,1-.37-1.55Zm4.95,0a2.64,2.64,0,0,0-.26-1.17,2,2,0,0,0-.73-.81,1.89,1.89,0,0,0-1-.29,2,2,0,0,0-1.06.28,2,2,0,0,0-.74.8,2.48,2.48,0,0,0-.27,1.16,2.45,2.45,0,0,0,.27,1.16,2,2,0,0,0,1.8,1.1,2,2,0,0,0,1-.28,2,2,0,0,0,.73-.8,2.53,2.53,0,0,0,.26-1.15Zm6.33,3a2.44,2.44,0,0,1-1.35-.37,2.61,2.61,0,0,1-.94-1.06,3.38,3.38,0,0,1-.34-1.56,3.32,3.32,0,0,1,.34-1.54,2.47,2.47,0,0,1,2.31-1.43,2.45,2.45,0,0,1,1.26.31,2.17,2.17,0,0,1,.8.79v-3.33s0,0,.09-.06a.66.66,0,0,1,.21,0c.37,0,.56.25.56.76v7c0,.27-.13.41-.39.41h-.08c-.25,0-.37-.13-.37-.39s0-.4,0-.74a2.52,2.52,0,0,1-.84.9,2.39,2.39,0,0,1-1.25.32Zm2.08-3.87a2.12,2.12,0,0,0-.73-1,2,2,0,0,0-1.19-.35,1.75,1.75,0,0,0-1.4.62,2.41,2.41,0,0,0-.53,1.62,2.8,2.8,0,0,0,.24,1.18,1.93,1.93,0,0,0,.69.8,1.79,1.79,0,0,0,1,.28,2,2,0,0,0,1-.24,2,2,0,0,0,.7-.67,1.81,1.81,0,0,0,.26-1Zm2,2.27a1.45,1.45,0,0,1,.94-1.4,7.5,7.5,0,0,1,3-.48h.13v-.24a1.47,1.47,0,0,0-.4-1.11,1.58,1.58,0,0,0-1.14-.39,2,2,0,0,0-1.08.27,1.77,1.77,0,0,0-.67.74.3.3,0,0,1-.16,0,.57.57,0,0,1-.25-.14.34.34,0,0,1-.11-.29.64.64,0,0,1,.09-.3,1.11,1.11,0,0,1,.25-.33,2.41,2.41,0,0,1,.82-.49,3.17,3.17,0,0,1,1.16-.19,2.42,2.42,0,0,1,1.73.59,2.23,2.23,0,0,1,.61,1.67v3.52s0,0-.1.06a.52.52,0,0,1-.21,0c-.3,0-.46-.18-.5-.55,0-.22,0-.4,0-.53a2.08,2.08,0,0,1-.85.84,2.5,2.5,0,0,1-1.26.31,2.15,2.15,0,0,1-1.42-.43,1.42,1.42,0,0,1-.52-1.16Zm4-1.31H408a6.57,6.57,0,0,0-2.28.33,1,1,0,0,0-.7.95.84.84,0,0,0,.33.7,1.43,1.43,0,0,0,.91.26,2.11,2.11,0,0,0,1-.22,1.76,1.76,0,0,0,.7-.62,1.55,1.55,0,0,0,.26-.86Zm4.22,2.82a.68.68,0,0,1-.32-.11c-.1-.06-.14-.12-.12-.16l2.77-7.26a.42.42,0,0,1,.2-.23,1.06,1.06,0,0,1,.45-.07,1,1,0,0,1,.44.07.42.42,0,0,1,.2.23l2.79,7.26s0,.1-.13.16a.76.76,0,0,1-.34.11.53.53,0,0,1-.56-.42l-.81-2.11h-3.21l-.82,2.12a.61.61,0,0,1-.22.34.52.52,0,0,1-.32.07Zm4.33-3.27-1.37-3.63-1.37,3.63Zm5.8-2.6a2,2,0,0,1,1.63.67,2.71,2.71,0,0,1,.55,1.8v3c0,.27-.12.41-.37.41h-.1c-.26,0-.39-.14-.39-.41v-2.92a2,2,0,0,0-.39-1.31,1.34,1.34,0,0,0-1.1-.47,1.92,1.92,0,0,0-1.07.31,2,2,0,0,0-.7.84v3.55c0,.27-.12.41-.37.41h-.11c-.25,0-.38-.14-.38-.41v-5.28s0,0,.1-.06a.52.52,0,0,1,.21,0c.33,0,.51.24.53.72v.33a2.16,2.16,0,0,1,2-1.13Zm3.31,4.36a1.45,1.45,0,0,1,.94-1.4,7.5,7.5,0,0,1,3-.48h.13v-.24a1.47,1.47,0,0,0-.4-1.11,1.58,1.58,0,0,0-1.14-.39,2.07,2.07,0,0,0-1.09.27,1.81,1.81,0,0,0-.66.74.3.3,0,0,1-.16,0,.52.52,0,0,1-.25-.14.34.34,0,0,1-.12-.29.64.64,0,0,1,.09-.3,1.15,1.15,0,0,1,.26-.33,2.46,2.46,0,0,1,.81-.49,3.25,3.25,0,0,1,1.16-.19,2.43,2.43,0,0,1,1.74.59,2.27,2.27,0,0,1,.61,1.67v3.52s0,0-.1.06a.52.52,0,0,1-.21,0c-.3,0-.47-.18-.51-.55,0-.22,0-.4,0-.53a2.08,2.08,0,0,1-.85.84,2.54,2.54,0,0,1-1.27.31,2.12,2.12,0,0,1-1.41-.43,1.42,1.42,0,0,1-.52-1.16Zm4-1.31h-.2a6.52,6.52,0,0,0-2.28.33,1,1,0,0,0-.7.95.84.84,0,0,0,.33.7,1.43,1.43,0,0,0,.91.26,2.11,2.11,0,0,0,1-.22,1.76,1.76,0,0,0,.7-.62,1.55,1.55,0,0,0,.26-.86Z"/><rect class="cls-1" x="64.16" y="192.78" width="51.02" height="51.02"/><rect class="cls-2" x="64.16" y="192.78" width="51.02" height="51.02"/><rect class="cls-1" x="64.16" y="256.56" width="51.02" height="51.02"/><rect class="cls-2" x="64.16" y="256.56" width="51.02" height="51.02"/><rect class="cls-1" x="198.65" y="192.78" width="51.02" height="51.02"/><rect class="cls-2" x="198.65" y="192.78" width="51.02" height="51.02"/><rect class="cls-1" x="198.65" y="256.56" width="51.02" height="51.02"/><rect class="cls-2" x="198.65" y="256.56" width="51.02" height="51.02"/><rect class="cls-1" x="333.15" y="192.78" width="51.02" height="51.02"/><rect class="cls-2" x="333.15" y="192.78" width="51.02" height="51.02"/><rect class="cls-1" x="333.15" y="256.56" width="51.02" height="51.02"/><rect class="cls-2" x="333.15" y="256.56" width="51.02" height="51.02"/><path d="M18.89,332.17s0,.05-.05.12a.64.64,0,0,1-.19.17.5.5,0,0,1-.27.08.75.75,0,0,1-.47-.25l-.51-.53a3.5,3.5,0,0,1-2.27.78,3.78,3.78,0,0,1-2-.51,3.45,3.45,0,0,1-1.33-1.4,4.45,4.45,0,0,1-.47-2.07,4.34,4.34,0,0,1,.48-2.08,3.55,3.55,0,0,1,1.34-1.43,3.78,3.78,0,0,1,2-.51,3.72,3.72,0,0,1,2,.51,3.45,3.45,0,0,1,1.32,1.41,4.33,4.33,0,0,1,.48,2.07,4.46,4.46,0,0,1-.25,1.48,3.7,3.7,0,0,1-.69,1.21Zm-6.61-3.63a3.64,3.64,0,0,0,.37,1.68,2.77,2.77,0,0,0,1,1.13,2.72,2.72,0,0,0,1.48.41,2.59,2.59,0,0,0,1.73-.56l-1.47-1.51a.44.44,0,0,1-.14-.31.34.34,0,0,1,.12-.26l0,0a.34.34,0,0,1,.23-.1.4.4,0,0,1,.32.16l1.43,1.45a3.38,3.38,0,0,0,.61-2.06,3.71,3.71,0,0,0-.36-1.66,2.76,2.76,0,0,0-1-1.15,2.69,2.69,0,0,0-1.49-.41,2.77,2.77,0,0,0-1.49.4,2.74,2.74,0,0,0-1,1.14,3.77,3.77,0,0,0-.36,1.68Zm12.48-1.89c.26,0,.39.14.39.41v5.3l-.11.06a.66.66,0,0,1-.21,0c-.29,0-.46-.18-.5-.56,0-.21,0-.36,0-.47a2.41,2.41,0,0,1-.81.81,2.17,2.17,0,0,1-1.15.31,2,2,0,0,1-1.63-.68,2.76,2.76,0,0,1-.56-1.81v-3c0-.27.13-.41.38-.41h.1c.25,0,.38.14.38.41V330a2,2,0,0,0,.4,1.31,1.37,1.37,0,0,0,1.11.47,1.83,1.83,0,0,0,1.06-.31,2,2,0,0,0,.7-.85v-3.55c0-.27.12-.41.37-.41Zm1.34,4.28a1.47,1.47,0,0,1,.94-1.4,7.42,7.42,0,0,1,3-.47h.13v-.24a1.48,1.48,0,0,0-.4-1.12,1.56,1.56,0,0,0-1.14-.39,1.93,1.93,0,0,0-1.08.28,1.75,1.75,0,0,0-.66.74.42.42,0,0,1-.17,0,.55.55,0,0,1-.25-.13.4.4,0,0,1-.11-.29.71.71,0,0,1,.09-.31,1.25,1.25,0,0,1,.26-.33,2.27,2.27,0,0,1,.81-.49,3.17,3.17,0,0,1,1.16-.19,2.35,2.35,0,0,1,1.73.6,2.2,2.2,0,0,1,.61,1.66v3.53s0,0-.1.06l-.21,0c-.29,0-.46-.18-.5-.55,0-.22,0-.4,0-.52a2,2,0,0,1-.84.83,2.57,2.57,0,0,1-1.27.31,2.15,2.15,0,0,1-1.42-.43,1.43,1.43,0,0,1-.52-1.16Zm4-1.31h-.2a6.81,6.81,0,0,0-2.28.34,1,1,0,0,0-.7.94.85.85,0,0,0,.34.71,1.45,1.45,0,0,0,.91.26,2.17,2.17,0,0,0,1-.23,1.88,1.88,0,0,0,.7-.61,1.55,1.55,0,0,0,.25-.87Zm5.13-3.05a2,2,0,0,1,1.63.67,2.76,2.76,0,0,1,.56,1.81v3c0,.28-.12.41-.37.41H37c-.25,0-.38-.13-.38-.41v-2.91a2,2,0,0,0-.39-1.31,1.34,1.34,0,0,0-1.11-.47,1.87,1.87,0,0,0-1.76,1.14V332c0,.28-.13.41-.38.41h-.1c-.26,0-.39-.13-.39-.41v-5.28s0,0,.11-.06a.65.65,0,0,1,.21,0c.33,0,.51.24.52.72v.34a2.28,2.28,0,0,1,.8-.83,2.14,2.14,0,0,1,1.16-.31Zm5.61,6a1.47,1.47,0,0,1-1.18-.45,2,2,0,0,1-.39-1.35v-3.31h-.56c-.25,0-.37-.11-.37-.32V327c0-.22.12-.33.37-.33h.56v-1q0-.42.39-.42h.09c.25,0,.37.14.37.42v1h1.45c.25,0,.37.11.37.33v.07c0,.22-.13.33-.38.33H40.15v3.18a1.67,1.67,0,0,0,.2.92.77.77,0,0,0,.65.28,1,1,0,0,0,.85-.45l.08,0a.4.4,0,0,1,.11.14.56.56,0,0,1,.05.23.61.61,0,0,1-.22.44,1.41,1.41,0,0,1-1,.34ZM43,324.91a.54.54,0,0,1,.15-.41.56.56,0,0,1,.4-.14.56.56,0,0,1,.41.14.54.54,0,0,1,.14.41.56.56,0,0,1-.14.4.61.61,0,0,1-.42.14.55.55,0,0,1-.39-.14.52.52,0,0,1-.15-.4Zm.11,2.16q0-.42.39-.42h.09c.26,0,.38.14.38.42v5c0,.28-.12.41-.38.41h-.09c-.26,0-.39-.13-.39-.41Zm4.72,5.47a2.5,2.5,0,0,1-1.35-.38,2.57,2.57,0,0,1-.93-1.05,3.63,3.63,0,0,1,0-3.11,2.52,2.52,0,0,1,2.31-1.43,2.39,2.39,0,0,1,1.25.31,2.12,2.12,0,0,1,.81.79v-3.32s0-.05.08-.07a.66.66,0,0,1,.21,0c.38,0,.57.26.57.77v7c0,.28-.13.41-.39.41H50.3a.33.33,0,0,1-.37-.38c0-.16,0-.41,0-.74a2.43,2.43,0,0,1-.85.89,2.26,2.26,0,0,1-1.25.33Zm2.09-3.88a2.16,2.16,0,0,0-.73-1A1.93,1.93,0,0,0,48,327.3a1.79,1.79,0,0,0-1.4.62,2.41,2.41,0,0,0-.53,1.63,2.72,2.72,0,0,0,.24,1.17,1.86,1.86,0,0,0,.69.8,1.77,1.77,0,0,0,1,.29,1.92,1.92,0,0,0,1-.25,1.83,1.83,0,0,0,1-1.62Zm2,2.27a1.47,1.47,0,0,1,.94-1.4,7.36,7.36,0,0,1,3-.47H56v-.24a1.51,1.51,0,0,0-.4-1.12,1.58,1.58,0,0,0-1.14-.39,2,2,0,0,0-1.09.28,1.75,1.75,0,0,0-.66.74.37.37,0,0,1-.16,0,.5.5,0,0,1-.25-.13.37.37,0,0,1-.12-.29.71.71,0,0,1,.09-.31,1.5,1.5,0,0,1,.26-.33,2.46,2.46,0,0,1,.81-.49,3.25,3.25,0,0,1,1.16-.19,2.39,2.39,0,0,1,1.74.6,2.24,2.24,0,0,1,.61,1.66v3.53l-.1.06-.21,0c-.3,0-.47-.18-.51-.55,0-.22,0-.4,0-.52a2,2,0,0,1-.85.83,2.54,2.54,0,0,1-1.27.31,2.12,2.12,0,0,1-1.41-.43,1.4,1.4,0,0,1-.52-1.16Zm4-1.31h-.2a6.72,6.72,0,0,0-2.28.34,1,1,0,0,0-.7.94.86.86,0,0,0,.33.71,1.49,1.49,0,0,0,.91.26,2.11,2.11,0,0,0,1-.23,1.74,1.74,0,0,0,.7-.61,1.56,1.56,0,0,0,.26-.87Zm4.6,2.92a2.5,2.5,0,0,1-1.35-.38,2.59,2.59,0,0,1-.94-1.05,3.73,3.73,0,0,1,0-3.11,2.55,2.55,0,0,1,1-1.05,2.52,2.52,0,0,1,1.37-.38,2.44,2.44,0,0,1,1.25.31,2,2,0,0,1,.8.79v-3.32s0-.05.09-.07a.66.66,0,0,1,.21,0c.37,0,.56.26.56.77v7c0,.28-.13.41-.38.41h-.08a.33.33,0,0,1-.37-.38c0-.16,0-.41,0-.74a2.33,2.33,0,0,1-.84.89,2.28,2.28,0,0,1-1.25.33Zm2.08-3.88a2.14,2.14,0,0,0-.72-1,1.93,1.93,0,0,0-1.19-.36,1.77,1.77,0,0,0-1.4.62,2.41,2.41,0,0,0-.54,1.63,2.58,2.58,0,0,0,.25,1.17,1.91,1.91,0,0,0,.68.8,1.83,1.83,0,0,0,1,.29,1.86,1.86,0,0,0,1-.25,1.74,1.74,0,0,0,.7-.67,1.72,1.72,0,0,0,.26-.95Zm2,.92a3.25,3.25,0,0,1,.37-1.54,2.82,2.82,0,0,1,3.84-1.12,2.42,2.42,0,0,1,.91,1,3.12,3.12,0,0,1,.32,1.47v.08a.3.3,0,0,1-.06.22.37.37,0,0,1-.24.06H65.52a.81.81,0,0,0,0,.17,2.09,2.09,0,0,0,.65,1.38,2,2,0,0,0,1.43.53,2.11,2.11,0,0,0,1.17-.29,1.92,1.92,0,0,0,.68-.76.32.32,0,0,1,.17,0,.51.51,0,0,1,.22.15.36.36,0,0,1,.1.27.64.64,0,0,1-.11.34,1.63,1.63,0,0,1-.34.37,2.36,2.36,0,0,1-.79.43,3.23,3.23,0,0,1-1.11.18,3.11,3.11,0,0,1-1.52-.37,2.58,2.58,0,0,1-1-1.05,3.22,3.22,0,0,1-.37-1.54Zm4.59-.46a2,2,0,0,0-.51-1.35,1.64,1.64,0,0,0-1.25-.51,1.86,1.86,0,0,0-1.32.52,2.22,2.22,0,0,0-.66,1.34Zm6.56,3.42a2.45,2.45,0,0,1-1.35-.38,2.52,2.52,0,0,1-.94-1.05,3.73,3.73,0,0,1,0-3.11,2.52,2.52,0,0,1,2.31-1.43,2.45,2.45,0,0,1,1.26.31,2.17,2.17,0,0,1,.8.79v-3.32s0-.05.09-.07a.66.66,0,0,1,.21,0c.37,0,.56.26.56.77v7c0,.28-.13.41-.39.41h-.08a.33.33,0,0,1-.37-.38c0-.16,0-.41,0-.74a2.48,2.48,0,0,1-.84.89,2.31,2.31,0,0,1-1.25.33Zm2.08-3.88a2.09,2.09,0,0,0-.73-1A1.93,1.93,0,0,0,76,327.3a1.79,1.79,0,0,0-1.4.62,2.46,2.46,0,0,0-.53,1.63,2.72,2.72,0,0,0,.24,1.17,1.86,1.86,0,0,0,.69.8,1.77,1.77,0,0,0,1,.29,1.92,1.92,0,0,0,1-.25,1.83,1.83,0,0,0,1-1.62Zm2,.92a3.24,3.24,0,0,1,.36-1.54,2.77,2.77,0,0,1,1-1.08,2.71,2.71,0,0,1,1.45-.39,2.67,2.67,0,0,1,1.38.35,2.44,2.44,0,0,1,.92,1,3.25,3.25,0,0,1,.32,1.47v.08a.26.26,0,0,1-.07.22.33.33,0,0,1-.23.06H80.77a.72.72,0,0,0,0,.17,2,2,0,0,0,.65,1.38,2,2,0,0,0,1.43.53,2.1,2.1,0,0,0,1.16-.29,2,2,0,0,0,.69-.76.29.29,0,0,1,.16,0,.54.54,0,0,1,.23.15.41.41,0,0,1,.1.27.74.74,0,0,1-.11.34,1.49,1.49,0,0,1-.35.37,2.3,2.3,0,0,1-.78.43,3.25,3.25,0,0,1-1.12.18,3.07,3.07,0,0,1-1.51-.37,2.67,2.67,0,0,1-1-1.05,3.21,3.21,0,0,1-.36-1.54Zm4.59-.46a2,2,0,0,0-.51-1.35,1.65,1.65,0,0,0-1.26-.51,1.86,1.86,0,0,0-1.32.52,2.27,2.27,0,0,0-.65,1.34Zm3.94.42a3.1,3.1,0,0,1,.38-1.53,2.67,2.67,0,0,1,1-1.06,3,3,0,0,1,1.49-.38,2.92,2.92,0,0,1,1.1.19,2.79,2.79,0,0,1,.8.5,1.9,1.9,0,0,1,.34.45,1,1,0,0,1,.12.42.31.31,0,0,1-.12.26.55.55,0,0,1-.26.14c-.1,0-.15,0-.17,0a1.77,1.77,0,0,0-1.8-1.22,2,2,0,0,0-1,.29,1.92,1.92,0,0,0-.73.79,2.41,2.41,0,0,0-.27,1.15,2.6,2.6,0,0,0,.26,1.16,1.89,1.89,0,0,0,.72.81,2,2,0,0,0,1.07.29,1.85,1.85,0,0,0,1.15-.34,2,2,0,0,0,.65-.88s.06,0,.16,0a.59.59,0,0,1,.27.14.35.35,0,0,1,.12.28.86.86,0,0,1-.12.39,1.57,1.57,0,0,1-.34.45,2.06,2.06,0,0,1-.79.52,3.22,3.22,0,0,1-1.13.19,2.78,2.78,0,0,1-1.47-.39,2.57,2.57,0,0,1-1-1.07,3.14,3.14,0,0,1-.38-1.54Zm9.17-3a2,2,0,0,1,1.64.68,2.7,2.7,0,0,1,.56,1.81v3c0,.28-.12.41-.37.41h-.1c-.26,0-.39-.13-.39-.41v-2.91a2,2,0,0,0-.39-1.31,1.36,1.36,0,0,0-1.11-.46,1.68,1.68,0,0,0-1.76,1.76V332c0,.28-.12.41-.37.41h-.11c-.25,0-.38-.13-.38-.41v-7.68s0,0,.09-.06a.54.54,0,0,1,.22,0c.37,0,.55.26.55.77v2.72a2.14,2.14,0,0,1,.77-.86,2.11,2.11,0,0,1,1.15-.31Zm3.33,3a3.11,3.11,0,0,1,.37-1.54,2.76,2.76,0,0,1,1-1.06,3,3,0,0,1,1.5-.38,2.92,2.92,0,0,1,1.49.38,2.69,2.69,0,0,1,1,1.07,3.2,3.2,0,0,1,.37,1.55,3.09,3.09,0,0,1-.37,1.53,2.64,2.64,0,0,1-1,1,3.08,3.08,0,0,1-3,0,2.69,2.69,0,0,1-1-1.06,3.24,3.24,0,0,1-.36-1.54Zm5,0a2.45,2.45,0,0,0-.27-1.16,1.94,1.94,0,0,0-.73-.82,2,2,0,0,0-1.05-.29,2,2,0,0,0-1.8,1.09,2.45,2.45,0,0,0-.27,1.16,2.48,2.48,0,0,0,.27,1.16,2,2,0,0,0,.74.8,2,2,0,0,0,1.06.3,2,2,0,0,0,1.05-.29,1.92,1.92,0,0,0,.73-.79,2.45,2.45,0,0,0,.27-1.16Zm1.66,0A3.09,3.09,0,0,1,108,328a2.76,2.76,0,0,1,1-1.06,3.16,3.16,0,0,1,2.58-.19,2.54,2.54,0,0,1,.8.5,2,2,0,0,1,.35.45,1,1,0,0,1,.12.42.31.31,0,0,1-.12.26.59.59,0,0,1-.27.14c-.09,0-.15,0-.16,0a1.78,1.78,0,0,0-1.81-1.22,2,2,0,0,0-1,.29,2.06,2.06,0,0,0-.73.79,2.53,2.53,0,0,0-.26,1.15,2.6,2.6,0,0,0,.25,1.16,1.95,1.95,0,0,0,1.79,1.1,1.9,1.9,0,0,0,1.16-.34,2.07,2.07,0,0,0,.65-.88s.06,0,.16,0a.59.59,0,0,1,.27.14.35.35,0,0,1,.12.28.86.86,0,0,1-.12.39,1.61,1.61,0,0,1-.35.45,2.09,2.09,0,0,1-.78.52,3.22,3.22,0,0,1-1.13.19,2.85,2.85,0,0,1-1.48-.39,2.7,2.7,0,0,1-1-1.07,3.13,3.13,0,0,1-.37-1.54Zm6,0A3.22,3.22,0,0,1,114,328a2.76,2.76,0,0,1,1-1.06,3,3,0,0,1,1.51-.38A3,3,0,0,1,118,327a2.84,2.84,0,0,1,1,1.07,3.2,3.2,0,0,1,.37,1.55,3.09,3.09,0,0,1-.37,1.53,2.67,2.67,0,0,1-1,1,2.86,2.86,0,0,1-1.49.39,2.89,2.89,0,0,1-1.5-.39,2.57,2.57,0,0,1-1-1.06,3.25,3.25,0,0,1-.37-1.54Zm5,0a2.45,2.45,0,0,0-.26-1.16,2,2,0,0,0-.73-.82,2,2,0,0,0-1-.29,2,2,0,0,0-1.8,1.09,2.45,2.45,0,0,0-.27,1.16,2.48,2.48,0,0,0,.27,1.16,2,2,0,0,0,.74.8,2,2,0,0,0,1.06.3,2,2,0,0,0,1.78-1.08,2.45,2.45,0,0,0,.26-1.16Zm2.47,2.87c-.26,0-.39-.13-.39-.41v-7.68s0,0,.1-.06a.46.46,0,0,1,.21,0c.37,0,.55.26.55.77v7c0,.28-.12.41-.38.41Zm1.71-1.51a1.48,1.48,0,0,1,.93-1.4,7.45,7.45,0,0,1,3-.47h.13v-.24a1.51,1.51,0,0,0-.4-1.12,1.59,1.59,0,0,0-1.15-.39,1.93,1.93,0,0,0-1.08.28,1.75,1.75,0,0,0-.66.74.37.37,0,0,1-.16,0,.5.5,0,0,1-.25-.13.37.37,0,0,1-.12-.29.71.71,0,0,1,.09-.31,1.5,1.5,0,0,1,.26-.33,2.46,2.46,0,0,1,.81-.49,3.21,3.21,0,0,1,1.16-.19,2.39,2.39,0,0,1,1.74.6,2.24,2.24,0,0,1,.61,1.66v3.53l-.11.06a.66.66,0,0,1-.21,0c-.29,0-.46-.18-.5-.55,0-.22,0-.4,0-.52a2.06,2.06,0,0,1-.85.83,2.54,2.54,0,0,1-1.27.31,2.12,2.12,0,0,1-1.41-.43,1.4,1.4,0,0,1-.52-1.16Zm4-1.31h-.21a6.7,6.7,0,0,0-2.27.34,1,1,0,0,0-.7.94.86.86,0,0,0,.33.71,1.47,1.47,0,0,0,.91.26,2.11,2.11,0,0,0,1-.23,1.74,1.74,0,0,0,.7-.61,1.56,1.56,0,0,0,.26-.87Zm4.21,2.92a1.47,1.47,0,0,1-1.18-.45,2,2,0,0,1-.39-1.35v-3.31h-.56c-.25,0-.37-.11-.37-.32V327c0-.22.12-.33.37-.33h.56v-1c0-.28.13-.42.38-.42h.1c.24,0,.37.14.37.42v1h1.44c.25,0,.38.11.38.33v.07q0,.33-.39.33h-1.44v3.18a1.59,1.59,0,0,0,.2.92.75.75,0,0,0,.64.28,1,1,0,0,0,.85-.45l.09,0a.39.39,0,0,1,.1.14.43.43,0,0,1,.05.23.59.59,0,0,1-.21.44,1.41,1.41,0,0,1-1,.34Zm1.8-3a3.13,3.13,0,0,1,.37-1.54,2.67,2.67,0,0,1,1-1.08,2.74,2.74,0,0,1,1.45-.39,2.67,2.67,0,0,1,1.38.35,2.44,2.44,0,0,1,.92,1,3.25,3.25,0,0,1,.32,1.47v.08a.26.26,0,0,1-.07.22.33.33,0,0,1-.23.06h-4.31a.81.81,0,0,0,0,.17,2,2,0,0,0,.65,1.38,2,2,0,0,0,1.43.53,2.1,2.1,0,0,0,1.16-.29,2,2,0,0,0,.69-.76.29.29,0,0,1,.16,0,.49.49,0,0,1,.23.15.36.36,0,0,1,.1.27.74.74,0,0,1-.11.34,1.63,1.63,0,0,1-.34.37,2.46,2.46,0,0,1-.79.43,3.23,3.23,0,0,1-1.11.18,3.11,3.11,0,0,1-1.52-.37,2.58,2.58,0,0,1-1-1.05,3.11,3.11,0,0,1-.37-1.54Zm4.59-.46a2,2,0,0,0-.51-1.35,1.65,1.65,0,0,0-1.26-.51,1.84,1.84,0,0,0-1.31.52,2.22,2.22,0,0,0-.66,1.34Z"/><path d="M34.07,344a1,1,0,0,1,.62.17.53.53,0,0,1,.23.45.67.67,0,0,1-.05.26.43.43,0,0,1-.13.16c-.05,0-.08.05-.08,0a.93.93,0,0,0-.69-.24,1.1,1.1,0,0,0-1,.63,3.71,3.71,0,0,0-.34,1.73v2.26c0,.27-.12.41-.37.41h-.09a.36.36,0,0,1-.4-.41v-5.28s0,0,.1-.06a.46.46,0,0,1,.21,0c.3,0,.46.19.5.57s0,.48,0,.63a1.74,1.74,0,0,1,.55-1,1.35,1.35,0,0,1,.93-.32Zm1.15,3a3.28,3.28,0,0,1,.36-1.55,2.77,2.77,0,0,1,1-1.08A2.8,2.8,0,0,1,38,344a2.58,2.58,0,0,1,1.38.35,2.33,2.33,0,0,1,.91,1,3.19,3.19,0,0,1,.33,1.48v.08a.25.25,0,0,1-.07.21.33.33,0,0,1-.23.06H36c0,.08,0,.13,0,.17a2.11,2.11,0,0,0,.66,1.39,2,2,0,0,0,1.42.52A2.11,2.11,0,0,0,39.3,349a2.06,2.06,0,0,0,.69-.77.29.29,0,0,1,.16,0,.65.65,0,0,1,.23.15.41.41,0,0,1,.1.28.67.67,0,0,1-.12.33,1.16,1.16,0,0,1-.34.37,2.37,2.37,0,0,1-.79.44,3.41,3.41,0,0,1-1.11.17,3,3,0,0,1-1.52-.37,2.64,2.64,0,0,1-1-1.05,3.2,3.2,0,0,1-.36-1.53Zm4.59-.47a2,2,0,0,0-.52-1.34A1.61,1.61,0,0,0,38,344.7a1.85,1.85,0,0,0-1.32.51,2.3,2.3,0,0,0-.65,1.34Zm1.65.42a3.06,3.06,0,0,1,.37-1.52,2.69,2.69,0,0,1,1-1.06,2.84,2.84,0,0,1,1.48-.38,2.92,2.92,0,0,1,1.1.19,2.23,2.23,0,0,1,.8.5,1.61,1.61,0,0,1,.35.45.9.9,0,0,1,.12.41.34.34,0,0,1-.12.27.7.7,0,0,1-.27.14c-.09,0-.15,0-.16,0a1.77,1.77,0,0,0-1.81-1.22,2,2,0,0,0-1.05.28,2.09,2.09,0,0,0-.73.8,2.39,2.39,0,0,0-.26,1.14,2.64,2.64,0,0,0,.25,1.17,2,2,0,0,0,.73.8,2,2,0,0,0,1.06.29,1.9,1.9,0,0,0,1.16-.33,2.11,2.11,0,0,0,.65-.89s.06,0,.16,0a.59.59,0,0,1,.27.14.37.37,0,0,1,.12.29.93.93,0,0,1-.12.39,2,2,0,0,1-.35.45,2.2,2.2,0,0,1-.78.51,3,3,0,0,1-1.13.19,2.94,2.94,0,0,1-1.48-.38,2.77,2.77,0,0,1-1-1.07,3.2,3.2,0,0,1-.37-1.55Zm6,0a3.29,3.29,0,0,1,.37-1.55,2.74,2.74,0,0,1,1-1.08,2.84,2.84,0,0,1,1.46-.38,2.62,2.62,0,0,1,1.38.35,2.33,2.33,0,0,1,.91,1,3.19,3.19,0,0,1,.32,1.48v.08a.29.29,0,0,1-.06.21.37.37,0,0,1-.24.06H48.31a.76.76,0,0,0,0,.17,2.1,2.1,0,0,0,.65,1.39,2,2,0,0,0,1.43.52,2.11,2.11,0,0,0,1.17-.28,2,2,0,0,0,.68-.77.32.32,0,0,1,.17,0,.62.62,0,0,1,.22.15.37.37,0,0,1,.1.28.64.64,0,0,1-.11.33,1.45,1.45,0,0,1-.34.37,2.37,2.37,0,0,1-.79.44,3.5,3.5,0,0,1-1.11.17,3,3,0,0,1-1.52-.37,2.52,2.52,0,0,1-1-1.05,3.21,3.21,0,0,1-.37-1.53Zm4.59-.47a2,2,0,0,0-.51-1.34,1.64,1.64,0,0,0-1.25-.51,1.85,1.85,0,0,0-1.32.51,2.25,2.25,0,0,0-.66,1.34Zm2.86,3c0,.24-.13.37-.36.37h-.09a.4.4,0,0,1-.28-.1.42.42,0,0,1-.1-.33v-7.67s0,0,.08-.06a.66.66,0,0,1,.21,0c.37,0,.55.25.55.76v2.74A2.33,2.33,0,0,1,57.05,344a2.47,2.47,0,0,1,2.26,1.41,3.37,3.37,0,0,1,.34,1.55,3.44,3.44,0,0,1-.34,1.56,2.49,2.49,0,0,1-.94,1.06A2.46,2.46,0,0,1,57,350a2.43,2.43,0,0,1-1.29-.33,2,2,0,0,1-.78-.85ZM58.81,347a2.54,2.54,0,0,0-.26-1.16,1.91,1.91,0,0,0-.68-.8,1.76,1.76,0,0,0-1-.28,2,2,0,0,0-1.2.36,2.23,2.23,0,0,0-.75,1v1.29a1.76,1.76,0,0,0,.26.93,2,2,0,0,0,.7.67,2,2,0,0,0,1,.24,1.76,1.76,0,0,0,1.41-.62,2.4,2.4,0,0,0,.54-1.64Zm2-4.64a.56.56,0,0,1,.14-.4.54.54,0,0,1,.41-.15.52.52,0,0,1,.55.55.51.51,0,0,1-.15.4.55.55,0,0,1-.41.14.53.53,0,0,1-.4-.14.54.54,0,0,1-.14-.4Zm.11,2.17c0-.28.12-.42.38-.42h.09q.39,0,.39.42v5c0,.27-.13.41-.39.41h-.09c-.26,0-.38-.14-.38-.41ZM65.61,350a2.42,2.42,0,0,1-1.35-.38,2.59,2.59,0,0,1-.94-1,3.73,3.73,0,0,1,0-3.11,2.59,2.59,0,0,1,.94-1.05,2.56,2.56,0,0,1,1.37-.37,2.45,2.45,0,0,1,1.26.31,2,2,0,0,1,.8.79v-3.33s0,0,.09-.06a.66.66,0,0,1,.21,0c.37,0,.56.25.56.76v7c0,.27-.13.41-.38.41h-.09c-.24,0-.37-.13-.37-.39s0-.4,0-.74a2.6,2.6,0,0,1-.84.9,2.39,2.39,0,0,1-1.25.32Zm2.08-3.87a2.12,2.12,0,0,0-.73-1,1.9,1.9,0,0,0-1.18-.35,1.74,1.74,0,0,0-1.4.62,2.37,2.37,0,0,0-.54,1.62,2.72,2.72,0,0,0,.24,1.17,2,2,0,0,0,.69.81,1.81,1.81,0,0,0,1,.28,2,2,0,0,0,1-.24,1.88,1.88,0,0,0,.7-.67,1.83,1.83,0,0,0,.26-.95Zm2,2.27a1.48,1.48,0,0,1,.94-1.41,7.73,7.73,0,0,1,3-.47h.13v-.24a1.45,1.45,0,0,0-.4-1.11,1.58,1.58,0,0,0-1.14-.39,2,2,0,0,0-1.08.27,1.84,1.84,0,0,0-.67.74.3.3,0,0,1-.16,0,.57.57,0,0,1-.25-.14.37.37,0,0,1-.11-.29A.64.64,0,0,1,70,345a1.11,1.11,0,0,1,.25-.33,2.27,2.27,0,0,1,.82-.49,3.17,3.17,0,0,1,1.16-.19,2.4,2.4,0,0,1,1.73.59,2.23,2.23,0,0,1,.61,1.67v3.52s0,0-.1.06a.52.52,0,0,1-.21,0c-.3,0-.46-.19-.5-.55s0-.4,0-.53a2.08,2.08,0,0,1-.85.84,2.5,2.5,0,0,1-1.26.31,2.15,2.15,0,0,1-1.42-.43,1.42,1.42,0,0,1-.52-1.16Zm4-1.32-.2,0a6.61,6.61,0,0,0-2.28.33,1,1,0,0,0-.7,1,.83.83,0,0,0,.34.7,1.38,1.38,0,0,0,.9.26,2.11,2.11,0,0,0,1-.22,1.76,1.76,0,0,0,.7-.62,1.48,1.48,0,0,0,.26-.87ZM82,344a2.49,2.49,0,0,1,1.35.37,2.44,2.44,0,0,1,.94,1,3.37,3.37,0,0,1,.34,1.55,3.44,3.44,0,0,1-.34,1.56,2.49,2.49,0,0,1-.94,1.06A2.46,2.46,0,0,1,82,350a2.3,2.3,0,0,1-1.27-.34,2,2,0,0,1-.79-.85v3c0,.27-.12.41-.37.41h-.09c-.26,0-.38-.14-.38-.41v-7.55s0,0,.09-.06a.45.45,0,0,1,.2,0c.32,0,.5.21.53.65v.49a2.38,2.38,0,0,1,.85-.9A2.29,2.29,0,0,1,82,344Zm-.17,5.23a1.78,1.78,0,0,0,1.42-.62,2.4,2.4,0,0,0,.54-1.64,2.54,2.54,0,0,0-.26-1.16,1.86,1.86,0,0,0-.69-.8,1.76,1.76,0,0,0-1-.28,2,2,0,0,0-1.19.36,2.23,2.23,0,0,0-.75,1v1.27a1.86,1.86,0,0,0,1,1.62,2,2,0,0,0,1,.24ZM85.48,347a3.09,3.09,0,0,1,.37-1.53,2.69,2.69,0,0,1,1-1.06,2.86,2.86,0,0,1,1.5-.38,2.83,2.83,0,0,1,1.49.38,2.57,2.57,0,0,1,1,1.07,3.17,3.17,0,0,1,.37,1.55,3.08,3.08,0,0,1-.37,1.52,2.74,2.74,0,0,1-1,1.06,3.15,3.15,0,0,1-3,0,2.72,2.72,0,0,1-1-1.07,3.21,3.21,0,0,1-.36-1.54Zm5,0a2.52,2.52,0,0,0-.27-1.17,1.85,1.85,0,0,0-.73-.81,1.89,1.89,0,0,0-1.05-.29,2,2,0,0,0-1.8,1.08,2.48,2.48,0,0,0-.27,1.16,2.45,2.45,0,0,0,.27,1.16,2.07,2.07,0,0,0,.74.81,2,2,0,0,0,1.06.29,2,2,0,0,0,1.05-.28,1.94,1.94,0,0,0,.73-.8,2.41,2.41,0,0,0,.27-1.15Zm4.34-3a1,1,0,0,1,.61.17.52.52,0,0,1,.24.45.53.53,0,0,1-.06.26.42.42,0,0,1-.12.16s-.08.05-.09,0a.91.91,0,0,0-.68-.24,1.1,1.1,0,0,0-1,.63,3.59,3.59,0,0,0-.34,1.73v2.26c0,.27-.13.41-.37.41h-.1c-.26,0-.39-.14-.39-.41v-5.28s0,0,.09-.06a.54.54,0,0,1,.22,0c.29,0,.46.19.5.57s0,.48,0,.63a1.87,1.87,0,0,1,.55-1,1.39,1.39,0,0,1,.94-.32Zm4.64,5.87a.76.76,0,0,1-.33-.11c-.09-.07-.13-.12-.12-.16l2.78-7.27a.36.36,0,0,1,.2-.22,1,1,0,0,1,.44-.07,1,1,0,0,1,.44.07.38.38,0,0,1,.21.22l2.78,7.27s0,.09-.12.16a.8.8,0,0,1-.34.11.53.53,0,0,1-.56-.42l-.82-2.11h-3.2l-.83,2.12a.51.51,0,0,1-.22.33.44.44,0,0,1-.31.08Zm4.32-3.27L102.37,343,101,346.61Zm5.8-2.6a2,2,0,0,1,1.63.67,2.71,2.71,0,0,1,.56,1.8v3c0,.27-.12.41-.37.41h-.11c-.25,0-.38-.14-.38-.41v-2.92a2,2,0,0,0-.39-1.31,1.37,1.37,0,0,0-1.11-.47,1.87,1.87,0,0,0-1.07.31,2.06,2.06,0,0,0-.7.84v3.55c0,.27-.12.41-.37.41h-.1c-.26,0-.39-.14-.39-.41v-5.28s0,0,.11-.06a.45.45,0,0,1,.2,0c.34,0,.51.24.53.72v.33a2.28,2.28,0,0,1,.8-.83,2.23,2.23,0,0,1,1.16-.3Zm3.31,4.36a1.49,1.49,0,0,1,.94-1.41,7.8,7.8,0,0,1,3-.47h.13v-.24a1.45,1.45,0,0,0-.4-1.11,1.54,1.54,0,0,0-1.14-.39,2,2,0,0,0-1.08.27,1.81,1.81,0,0,0-.66.74.34.34,0,0,1-.17,0,.57.57,0,0,1-.25-.14.37.37,0,0,1-.11-.29.64.64,0,0,1,.09-.3,1.15,1.15,0,0,1,.26-.33,2.22,2.22,0,0,1,.81-.49,3.17,3.17,0,0,1,1.16-.19,2.39,2.39,0,0,1,1.73.59,2.23,2.23,0,0,1,.61,1.67v3.52s0,0-.1.06a.52.52,0,0,1-.21,0c-.29,0-.46-.19-.5-.55s0-.4,0-.53a2.21,2.21,0,0,1-.85.84,2.57,2.57,0,0,1-1.27.31,2.15,2.15,0,0,1-1.42-.43,1.45,1.45,0,0,1-.52-1.16Zm4-1.32-.2,0a6.61,6.61,0,0,0-2.28.33,1,1,0,0,0-.7,1,.85.85,0,0,0,.34.7,1.39,1.39,0,0,0,.91.26,2.14,2.14,0,0,0,1-.22,1.83,1.83,0,0,0,.7-.62,1.55,1.55,0,0,0,.25-.87Z"/><path d="M168.33,332.17s0,.05-.05.12a.74.74,0,0,1-.18.17.54.54,0,0,1-.28.08.75.75,0,0,1-.47-.25l-.51-.53a3.48,3.48,0,0,1-2.27.78,3.78,3.78,0,0,1-2-.51,3.45,3.45,0,0,1-1.33-1.4,4.45,4.45,0,0,1-.47-2.07,4.34,4.34,0,0,1,.48-2.08,3.62,3.62,0,0,1,1.34-1.43,3.78,3.78,0,0,1,2-.51,3.72,3.72,0,0,1,2,.51,3.45,3.45,0,0,1,1.32,1.41,4.33,4.33,0,0,1,.48,2.07,4.46,4.46,0,0,1-.25,1.48,3.7,3.7,0,0,1-.69,1.21Zm-6.61-3.63a3.64,3.64,0,0,0,.37,1.68,2.77,2.77,0,0,0,1,1.13,2.72,2.72,0,0,0,1.48.41,2.57,2.57,0,0,0,1.73-.56l-1.47-1.51a.44.44,0,0,1-.14-.31.34.34,0,0,1,.12-.26l0,0a.3.3,0,0,1,.22-.1.44.44,0,0,1,.33.16l1.42,1.45a3.38,3.38,0,0,0,.61-2.06,3.71,3.71,0,0,0-.36-1.66,2.76,2.76,0,0,0-1-1.15,2.69,2.69,0,0,0-1.49-.41,2.77,2.77,0,0,0-1.49.4,2.74,2.74,0,0,0-1,1.14,3.77,3.77,0,0,0-.36,1.68Zm12.48-1.89c.26,0,.39.14.39.41v5.3l-.1.06-.21,0c-.3,0-.47-.18-.51-.56,0-.21,0-.36,0-.47a2.41,2.41,0,0,1-.81.81,2.17,2.17,0,0,1-1.15.31,2,2,0,0,1-1.63-.68,2.76,2.76,0,0,1-.56-1.81v-3c0-.27.13-.41.38-.41h.1c.25,0,.38.14.38.41V330a2,2,0,0,0,.4,1.31,1.37,1.37,0,0,0,1.11.47,1.83,1.83,0,0,0,1.06-.31,2,2,0,0,0,.7-.85v-3.55c0-.27.12-.41.37-.41Zm1.34,4.28a1.49,1.49,0,0,1,.94-1.4,7.42,7.42,0,0,1,3-.47h.13v-.24a1.48,1.48,0,0,0-.4-1.12,1.54,1.54,0,0,0-1.14-.39,1.93,1.93,0,0,0-1.08.28,1.75,1.75,0,0,0-.66.74.42.42,0,0,1-.17,0,.55.55,0,0,1-.25-.13.4.4,0,0,1-.11-.29.71.71,0,0,1,.09-.31,1.5,1.5,0,0,1,.26-.33,2.36,2.36,0,0,1,.81-.49,3.17,3.17,0,0,1,1.16-.19,2.35,2.35,0,0,1,1.73.6,2.2,2.2,0,0,1,.61,1.66v3.53s0,0-.1.06l-.21,0c-.29,0-.46-.18-.5-.55,0-.22,0-.4,0-.52a2.12,2.12,0,0,1-.85.83,2.57,2.57,0,0,1-1.27.31,2.15,2.15,0,0,1-1.42-.43,1.43,1.43,0,0,1-.52-1.16Zm4-1.31h-.2a6.81,6.81,0,0,0-2.28.34,1,1,0,0,0-.7.94.87.87,0,0,0,.34.71,1.45,1.45,0,0,0,.91.26,2.14,2.14,0,0,0,1-.23,1.81,1.81,0,0,0,.7-.61,1.55,1.55,0,0,0,.25-.87Zm5.13-3.05a2,2,0,0,1,1.63.67,2.7,2.7,0,0,1,.56,1.81v3c0,.28-.12.41-.37.41h-.11c-.25,0-.38-.13-.38-.41v-2.91a2,2,0,0,0-.39-1.31,1.33,1.33,0,0,0-1.1-.47,1.82,1.82,0,0,0-1.07.31,1.9,1.9,0,0,0-.7.83V332c0,.28-.13.41-.37.41h-.11c-.26,0-.38-.13-.38-.41v-5.28s0,0,.1-.06a.65.65,0,0,1,.21,0c.33,0,.51.24.52.72v.34a2.28,2.28,0,0,1,.8-.83,2.14,2.14,0,0,1,1.16-.31Zm5.61,6a1.47,1.47,0,0,1-1.18-.45,2,2,0,0,1-.39-1.35v-3.31h-.56c-.25,0-.37-.11-.37-.32V327c0-.22.12-.33.37-.33h.56v-1q0-.42.39-.42h.09c.25,0,.37.14.37.42v1h1.45c.25,0,.37.11.37.33v.07c0,.22-.13.33-.38.33h-1.45v3.18a1.67,1.67,0,0,0,.2.92.77.77,0,0,0,.65.28,1,1,0,0,0,.85-.45l.08,0a.4.4,0,0,1,.11.14.56.56,0,0,1,.05.23.57.57,0,0,1-.22.44,1.41,1.41,0,0,1-1,.34Zm2.12-7.63a.54.54,0,0,1,.14-.41.58.58,0,0,1,.41-.14.56.56,0,0,1,.4.14.54.54,0,0,1,.15.41.52.52,0,0,1-.15.4.61.61,0,0,1-.42.14.56.56,0,0,1-.39-.14.52.52,0,0,1-.14-.4Zm.1,2.16q0-.42.39-.42H193c.26,0,.38.14.38.42v5c0,.28-.12.41-.38.41h-.09c-.26,0-.39-.13-.39-.41Zm4.73,5.47a2.45,2.45,0,0,1-1.35-.38,2.52,2.52,0,0,1-.94-1.05,3.73,3.73,0,0,1,0-3.11,2.52,2.52,0,0,1,2.31-1.43,2.45,2.45,0,0,1,1.26.31,2.17,2.17,0,0,1,.8.79v-3.32s0-.05.09-.07a.66.66,0,0,1,.21,0c.37,0,.56.26.56.77v7c0,.28-.13.41-.39.41h-.08a.33.33,0,0,1-.37-.38c0-.16,0-.41,0-.74a2.48,2.48,0,0,1-.84.89,2.31,2.31,0,0,1-1.25.33Zm2.08-3.88a2.09,2.09,0,0,0-.73-1,1.93,1.93,0,0,0-1.19-.36,1.79,1.79,0,0,0-1.4.62,2.46,2.46,0,0,0-.53,1.63,2.72,2.72,0,0,0,.24,1.17,1.86,1.86,0,0,0,.69.8,1.77,1.77,0,0,0,1,.29,1.92,1.92,0,0,0,1-.25,1.83,1.83,0,0,0,1-1.62Zm2,2.27a1.47,1.47,0,0,1,.94-1.4,7.36,7.36,0,0,1,3-.47h.13v-.24a1.48,1.48,0,0,0-.4-1.12,1.58,1.58,0,0,0-1.14-.39,1.93,1.93,0,0,0-1.08.28,1.71,1.71,0,0,0-.67.74.38.38,0,0,1-.16,0,.5.5,0,0,1-.25-.13.36.36,0,0,1-.11-.29.71.71,0,0,1,.09-.31,1.44,1.44,0,0,1,.25-.33,2.41,2.41,0,0,1,.82-.49,3.15,3.15,0,0,1,1.15-.19,2.39,2.39,0,0,1,1.74.6,2.24,2.24,0,0,1,.61,1.66v3.53l-.1.06-.21,0c-.3,0-.47-.18-.5-.55,0-.22,0-.4,0-.52a2,2,0,0,1-.85.83,2.5,2.5,0,0,1-1.26.31,2.15,2.15,0,0,1-1.42-.43,1.4,1.4,0,0,1-.52-1.16Zm4-1.31h-.2a6.72,6.72,0,0,0-2.28.34,1,1,0,0,0-.7.94.86.86,0,0,0,.33.71,1.49,1.49,0,0,0,.91.26,2.11,2.11,0,0,0,1-.23,1.74,1.74,0,0,0,.7-.61,1.56,1.56,0,0,0,.26-.87Zm4.6,2.92a2.5,2.5,0,0,1-1.35-.38,2.59,2.59,0,0,1-.94-1.05,3.73,3.73,0,0,1,0-3.11,2.55,2.55,0,0,1,2.32-1.43,2.44,2.44,0,0,1,1.25.31,2,2,0,0,1,.8.79v-3.32s0-.05.09-.07a.66.66,0,0,1,.21,0c.38,0,.56.26.56.77v7c0,.28-.12.41-.38.41h-.08a.33.33,0,0,1-.37-.38c0-.16,0-.41,0-.74a2.33,2.33,0,0,1-.84.89,2.28,2.28,0,0,1-1.25.33Zm2.08-3.88a2.14,2.14,0,0,0-.72-1,1.93,1.93,0,0,0-1.19-.36,1.79,1.79,0,0,0-1.4.62,2.41,2.41,0,0,0-.54,1.63,2.58,2.58,0,0,0,.25,1.17,1.86,1.86,0,0,0,.69.8,1.77,1.77,0,0,0,1,.29,1.92,1.92,0,0,0,1-.25,1.87,1.87,0,0,0,.7-.67,1.8,1.8,0,0,0,.25-.95Zm2,.92a3.25,3.25,0,0,1,.37-1.54,2.82,2.82,0,0,1,3.84-1.12,2.42,2.42,0,0,1,.91,1,3.12,3.12,0,0,1,.32,1.47v.08a.3.3,0,0,1-.06.22.35.35,0,0,1-.23.06H215a.81.81,0,0,0,0,.17,2.09,2.09,0,0,0,.65,1.38,2,2,0,0,0,1.43.53,2.11,2.11,0,0,0,1.17-.29,1.92,1.92,0,0,0,.68-.76.32.32,0,0,1,.17,0,.46.46,0,0,1,.22.15.36.36,0,0,1,.1.27.64.64,0,0,1-.11.34,1.43,1.43,0,0,1-.34.37,2.36,2.36,0,0,1-.79.43,3.23,3.23,0,0,1-1.11.18,3.14,3.14,0,0,1-1.52-.37,2.58,2.58,0,0,1-1-1.05,3.22,3.22,0,0,1-.37-1.54Zm4.6-.46a2.06,2.06,0,0,0-.52-1.35,1.64,1.64,0,0,0-1.25-.51,1.86,1.86,0,0,0-1.32.52,2.22,2.22,0,0,0-.66,1.34Zm6.55,3.42a2.45,2.45,0,0,1-1.35-.38,2.52,2.52,0,0,1-.94-1.05,3.73,3.73,0,0,1,0-3.11,2.52,2.52,0,0,1,2.31-1.43,2.45,2.45,0,0,1,1.26.31,2.17,2.17,0,0,1,.8.79v-3.32s0-.05.09-.07a.66.66,0,0,1,.21,0c.37,0,.56.26.56.77v7c0,.28-.13.41-.38.41h-.09a.33.33,0,0,1-.37-.38c0-.16,0-.41,0-.74a2.48,2.48,0,0,1-.84.89,2.31,2.31,0,0,1-1.25.33Zm2.08-3.88a2.09,2.09,0,0,0-.73-1,1.93,1.93,0,0,0-1.19-.36,1.75,1.75,0,0,0-1.39.62,2.41,2.41,0,0,0-.54,1.63,2.72,2.72,0,0,0,.24,1.17,2,2,0,0,0,.69.8,1.79,1.79,0,0,0,1,.29,1.9,1.9,0,0,0,1-.25,1.74,1.74,0,0,0,.7-.67,1.81,1.81,0,0,0,.26-.95Zm2,.92a3.24,3.24,0,0,1,.36-1.54,2.77,2.77,0,0,1,1-1.08,2.71,2.71,0,0,1,1.45-.39,2.67,2.67,0,0,1,1.38.35,2.44,2.44,0,0,1,.92,1,3.25,3.25,0,0,1,.32,1.47v.08a.26.26,0,0,1-.07.22.33.33,0,0,1-.23.06h-4.32a.72.72,0,0,0,0,.17,2,2,0,0,0,.65,1.38,2,2,0,0,0,1.43.53,2.1,2.1,0,0,0,1.16-.29,2,2,0,0,0,.69-.76.29.29,0,0,1,.16,0,.54.54,0,0,1,.23.15.36.36,0,0,1,.1.27.74.74,0,0,1-.11.34,1.63,1.63,0,0,1-.34.37,2.46,2.46,0,0,1-.79.43,3.25,3.25,0,0,1-1.12.18,3.07,3.07,0,0,1-1.51-.37,2.67,2.67,0,0,1-1-1.05,3.21,3.21,0,0,1-.36-1.54Zm4.59-.46a2,2,0,0,0-.51-1.35,1.65,1.65,0,0,0-1.26-.51,1.82,1.82,0,0,0-1.31.52,2.22,2.22,0,0,0-.66,1.34Zm4,.42a3.09,3.09,0,0,1,.37-1.53,2.74,2.74,0,0,1,1-1.06,3,3,0,0,1,1.49-.38,2.92,2.92,0,0,1,1.1.19,2.66,2.66,0,0,1,.8.5,1.9,1.9,0,0,1,.34.45,1,1,0,0,1,.12.42.31.31,0,0,1-.12.26.55.55,0,0,1-.26.14c-.09,0-.15,0-.17,0a1.77,1.77,0,0,0-1.8-1.22,2,2,0,0,0-1.78,1.08,2.41,2.41,0,0,0-.27,1.15,2.6,2.6,0,0,0,.26,1.16,1.89,1.89,0,0,0,.72.81,2,2,0,0,0,1.07.29,1.85,1.85,0,0,0,1.15-.34,2,2,0,0,0,.65-.88s.07,0,.17,0a.6.6,0,0,1,.26.14.35.35,0,0,1,.12.28.86.86,0,0,1-.12.39,1.57,1.57,0,0,1-.34.45,2.06,2.06,0,0,1-.79.52,3.18,3.18,0,0,1-1.13.19,2.78,2.78,0,0,1-1.47-.39,2.57,2.57,0,0,1-1-1.07,3.13,3.13,0,0,1-.37-1.54Zm9.17-3a2,2,0,0,1,1.63.68,2.7,2.7,0,0,1,.56,1.81v3c0,.28-.12.41-.37.41h-.1c-.26,0-.39-.13-.39-.41v-2.91a2,2,0,0,0-.39-1.31,1.36,1.36,0,0,0-1.11-.46,1.74,1.74,0,0,0-1.26.48,1.79,1.79,0,0,0-.5,1.28V332c0,.28-.12.41-.37.41h-.11c-.25,0-.38-.13-.38-.41v-7.68s0,0,.1-.06a.46.46,0,0,1,.21,0c.37,0,.55.26.55.77v2.72a2.06,2.06,0,0,1,1.93-1.17Zm3.32,3a3.11,3.11,0,0,1,.37-1.54,2.76,2.76,0,0,1,1-1.06,3,3,0,0,1,1.5-.38,2.92,2.92,0,0,1,1.49.38,2.69,2.69,0,0,1,1,1.07,3.2,3.2,0,0,1,.38,1.55,3.1,3.1,0,0,1-.38,1.53,2.64,2.64,0,0,1-1,1,3.08,3.08,0,0,1-3,0,2.69,2.69,0,0,1-1-1.06,3.24,3.24,0,0,1-.36-1.54Zm5,0a2.57,2.57,0,0,0-.26-1.16,2.08,2.08,0,0,0-.73-.82,2,2,0,0,0-1.06-.29,2,2,0,0,0-1,.29,2,2,0,0,0-.75.8,2.57,2.57,0,0,0-.26,1.16,2.6,2.6,0,0,0,.26,1.16,2,2,0,0,0,.75.8,1.89,1.89,0,0,0,1,.3,2,2,0,0,0,1.06-.29,2.06,2.06,0,0,0,.73-.79,2.57,2.57,0,0,0,.26-1.16Zm1.66,0a3.09,3.09,0,0,1,.37-1.53,2.76,2.76,0,0,1,1-1.06,2.94,2.94,0,0,1,1.48-.38,2.88,2.88,0,0,1,1.1.19,2.54,2.54,0,0,1,.8.5,2,2,0,0,1,.35.45,1,1,0,0,1,.12.42.31.31,0,0,1-.12.26.6.6,0,0,1-.26.14c-.1,0-.16,0-.17,0a1.77,1.77,0,0,0-1.81-1.22,2,2,0,0,0-1.05.29,2.06,2.06,0,0,0-.73.79,2.53,2.53,0,0,0-.26,1.15,2.47,2.47,0,0,0,.26,1.16,1.89,1.89,0,0,0,.72.81,2,2,0,0,0,1.06.29,1.88,1.88,0,0,0,1.16-.34,2.07,2.07,0,0,0,.65-.88s.06,0,.16,0a.59.59,0,0,1,.27.14.35.35,0,0,1,.12.28.86.86,0,0,1-.12.39,1.61,1.61,0,0,1-.35.45,2.09,2.09,0,0,1-.78.52,3.22,3.22,0,0,1-1.13.19,2.85,2.85,0,0,1-1.48-.39,2.7,2.7,0,0,1-1-1.07,3.13,3.13,0,0,1-.37-1.54Zm6,0a3.11,3.11,0,0,1,.37-1.54,2.74,2.74,0,0,1,1-1.06,3,3,0,0,1,1.51-.38,3,3,0,0,1,1.49.38,2.84,2.84,0,0,1,1,1.07,3.2,3.2,0,0,1,.37,1.55,3.09,3.09,0,0,1-.37,1.53,2.67,2.67,0,0,1-1,1,2.86,2.86,0,0,1-1.49.39,2.89,2.89,0,0,1-1.5-.39,2.63,2.63,0,0,1-1-1.06,3.24,3.24,0,0,1-.36-1.54Zm4.94,0a2.45,2.45,0,0,0-.26-1.16,2,2,0,0,0-.73-.82,2,2,0,0,0-1.05-.29,2,2,0,0,0-1.8,1.09,2.45,2.45,0,0,0-.27,1.16,2.48,2.48,0,0,0,.27,1.16,2,2,0,0,0,.74.8,2,2,0,0,0,1.06.3,2,2,0,0,0,1.78-1.08,2.45,2.45,0,0,0,.26-1.16Zm2.47,2.87c-.26,0-.39-.13-.39-.41v-7.68s0,0,.1-.06a.51.51,0,0,1,.22,0c.36,0,.55.26.55.77v7c0,.28-.13.41-.39.41Zm1.71-1.51a1.47,1.47,0,0,1,.94-1.4,7.36,7.36,0,0,1,3-.47h.13v-.24a1.51,1.51,0,0,0-.4-1.12,1.58,1.58,0,0,0-1.14-.39,2,2,0,0,0-1.09.28,1.75,1.75,0,0,0-.66.74.37.37,0,0,1-.16,0,.5.5,0,0,1-.25-.13.37.37,0,0,1-.12-.29.71.71,0,0,1,.09-.31,1.5,1.5,0,0,1,.26-.33,2.46,2.46,0,0,1,.81-.49,3.25,3.25,0,0,1,1.16-.19,2.39,2.39,0,0,1,1.74.6,2.24,2.24,0,0,1,.61,1.66v3.53l-.1.06-.21,0c-.3,0-.47-.18-.51-.55,0-.22,0-.4,0-.52a2,2,0,0,1-.85.83,2.54,2.54,0,0,1-1.27.31,2.12,2.12,0,0,1-1.41-.43,1.4,1.4,0,0,1-.52-1.16Zm4-1.31H276a6.7,6.7,0,0,0-2.27.34,1,1,0,0,0-.7.94.86.86,0,0,0,.33.71,1.49,1.49,0,0,0,.91.26,2.11,2.11,0,0,0,1-.23,1.74,1.74,0,0,0,.7-.61,1.56,1.56,0,0,0,.26-.87Zm4.21,2.92a1.47,1.47,0,0,1-1.18-.45,2,2,0,0,1-.39-1.35v-3.31h-.56c-.25,0-.37-.11-.37-.32V327c0-.22.12-.33.37-.33h.56v-1c0-.28.13-.42.38-.42h.1c.25,0,.37.14.37.42v1h1.45c.24,0,.37.11.37.33v.07q0,.33-.39.33H279.7v3.18a1.59,1.59,0,0,0,.2.92.77.77,0,0,0,.65.28.94.94,0,0,0,.84-.45l.09,0a.57.57,0,0,1,.11.14.56.56,0,0,1,0,.23.59.59,0,0,1-.21.44,1.41,1.41,0,0,1-1,.34Zm1.8-3a3.13,3.13,0,0,1,.37-1.54,2.67,2.67,0,0,1,1-1.08,2.74,2.74,0,0,1,1.45-.39,2.67,2.67,0,0,1,1.38.35,2.44,2.44,0,0,1,.92,1,3.25,3.25,0,0,1,.32,1.47v.08a.3.3,0,0,1-.06.22.38.38,0,0,1-.24.06h-4.31a.81.81,0,0,0,0,.17,2,2,0,0,0,.65,1.38,2,2,0,0,0,1.43.53,2.1,2.1,0,0,0,1.16-.29,2,2,0,0,0,.69-.76.28.28,0,0,1,.16,0,.49.49,0,0,1,.23.15.36.36,0,0,1,.1.27.74.74,0,0,1-.11.34,1.63,1.63,0,0,1-.34.37,2.36,2.36,0,0,1-.79.43,3.23,3.23,0,0,1-1.11.18,3.11,3.11,0,0,1-1.52-.37,2.58,2.58,0,0,1-1-1.05,3.11,3.11,0,0,1-.37-1.54Zm4.59-.46a2,2,0,0,0-.51-1.35,1.65,1.65,0,0,0-1.26-.51,1.84,1.84,0,0,0-1.31.52,2.22,2.22,0,0,0-.66,1.34Z"/><path d="M175.86,344a1,1,0,0,1,.61.17.52.52,0,0,1,.24.45.53.53,0,0,1-.06.26.42.42,0,0,1-.12.16c-.05,0-.08.05-.09,0a.91.91,0,0,0-.68-.24,1.1,1.1,0,0,0-1,.63,3.59,3.59,0,0,0-.34,1.73v2.26c0,.27-.13.41-.37.41h-.1c-.26,0-.39-.14-.39-.41v-5.28s0,0,.09-.06a.54.54,0,0,1,.22,0c.29,0,.46.19.5.57s0,.48,0,.63a1.87,1.87,0,0,1,.55-1,1.39,1.39,0,0,1,.94-.32Zm1.16,3a3.28,3.28,0,0,1,.36-1.55,2.7,2.7,0,0,1,1-1.08,2.8,2.8,0,0,1,1.45-.38,2.62,2.62,0,0,1,1.38.35,2.33,2.33,0,0,1,.91,1,3.19,3.19,0,0,1,.33,1.48v.08a.29.29,0,0,1-.07.21.33.33,0,0,1-.23.06h-4.32c0,.08,0,.13,0,.17a2.11,2.11,0,0,0,.66,1.39,2,2,0,0,0,1.42.52,2.11,2.11,0,0,0,1.17-.28,2.06,2.06,0,0,0,.69-.77s.07,0,.16,0a.65.65,0,0,1,.23.15.41.41,0,0,1,.1.28.67.67,0,0,1-.12.33,1.29,1.29,0,0,1-.34.37,2.37,2.37,0,0,1-.79.44,3.41,3.41,0,0,1-1.11.17,3,3,0,0,1-1.52-.37,2.52,2.52,0,0,1-1-1.05A3.2,3.2,0,0,1,177,347Zm4.59-.47a2,2,0,0,0-.52-1.34,1.63,1.63,0,0,0-1.25-.51,1.85,1.85,0,0,0-1.32.51,2.24,2.24,0,0,0-.65,1.34Zm1.65.42a3.06,3.06,0,0,1,.37-1.52,2.63,2.63,0,0,1,1-1.06,2.81,2.81,0,0,1,1.48-.38,2.92,2.92,0,0,1,1.1.19,2.32,2.32,0,0,1,.8.5,1.61,1.61,0,0,1,.35.45.9.9,0,0,1,.12.41.34.34,0,0,1-.12.27.7.7,0,0,1-.27.14c-.09,0-.15,0-.16,0a1.78,1.78,0,0,0-1.81-1.22,2,2,0,0,0-1.05.28,2,2,0,0,0-.73.8,2.39,2.39,0,0,0-.26,1.14,2.64,2.64,0,0,0,.25,1.17,2,2,0,0,0,.73.8,2,2,0,0,0,1.06.29,1.85,1.85,0,0,0,1.15-.33A2.13,2.13,0,0,0,188,348s.06,0,.16,0a.59.59,0,0,1,.27.14.37.37,0,0,1,.12.29.93.93,0,0,1-.12.39,2,2,0,0,1-.35.45,2.2,2.2,0,0,1-.78.51,3,3,0,0,1-1.13.19,2.91,2.91,0,0,1-1.48-.38,2.7,2.7,0,0,1-1-1.07,3.2,3.2,0,0,1-.37-1.55Zm6,0a3.17,3.17,0,0,1,.37-1.55,2.74,2.74,0,0,1,1-1.08,2.83,2.83,0,0,1,1.45-.38,2.58,2.58,0,0,1,1.38.35,2.35,2.35,0,0,1,.92,1,3.32,3.32,0,0,1,.32,1.48v.08a.29.29,0,0,1-.06.21.38.38,0,0,1-.24.06h-4.31a.76.76,0,0,0,0,.17,2.1,2.1,0,0,0,.65,1.39,2,2,0,0,0,1.43.52,2.13,2.13,0,0,0,1.17-.28,2,2,0,0,0,.68-.77.28.28,0,0,1,.16,0,.57.57,0,0,1,.23.15.37.37,0,0,1,.1.28.64.64,0,0,1-.11.33,1.45,1.45,0,0,1-.34.37,2.37,2.37,0,0,1-.79.44,3.5,3.5,0,0,1-1.11.17,3,3,0,0,1-1.52-.37,2.52,2.52,0,0,1-1-1.05,3.09,3.09,0,0,1-.37-1.53Zm4.59-.47a2,2,0,0,0-.51-1.34,1.65,1.65,0,0,0-1.26-.51,1.84,1.84,0,0,0-1.31.51,2.25,2.25,0,0,0-.66,1.34Zm2.86,3c0,.24-.13.37-.36.37h-.09a.4.4,0,0,1-.28-.1.42.42,0,0,1-.11-.33v-7.67s0,0,.09-.06a.66.66,0,0,1,.21,0c.37,0,.55.25.55.76v2.74a2.33,2.33,0,0,1,2.11-1.18,2.41,2.41,0,0,1,1.32.37,2.44,2.44,0,0,1,.94,1,3.37,3.37,0,0,1,.34,1.55,3.44,3.44,0,0,1-.34,1.56,2.49,2.49,0,0,1-.94,1.06,2.46,2.46,0,0,1-1.37.38,2.43,2.43,0,0,1-1.29-.33,2,2,0,0,1-.78-.85ZM200.6,347a2.54,2.54,0,0,0-.25-1.16,1.91,1.91,0,0,0-.68-.8,1.79,1.79,0,0,0-1-.28,2,2,0,0,0-1.2.36,2.23,2.23,0,0,0-.75,1v1.29a1.76,1.76,0,0,0,.26.93,2,2,0,0,0,.7.67,2,2,0,0,0,1,.24,1.76,1.76,0,0,0,1.41-.62,2.45,2.45,0,0,0,.53-1.64Zm2-4.64a.52.52,0,0,1,.14-.4.54.54,0,0,1,.41-.15.52.52,0,0,1,.55.55.51.51,0,0,1-.15.4.56.56,0,0,1-.42.14.52.52,0,0,1-.39-.14.5.5,0,0,1-.14-.4Zm.1,2.17q0-.42.39-.42h.09q.39,0,.39.42v5c0,.27-.13.41-.39.41h-.09c-.26,0-.39-.14-.39-.41Zm4.73,5.46a2.37,2.37,0,0,1-1.35-.38,2.52,2.52,0,0,1-.94-1,3.73,3.73,0,0,1,0-3.11,2.49,2.49,0,0,1,2.31-1.42,2.45,2.45,0,0,1,1.26.31,2.09,2.09,0,0,1,.8.79v-3.33s0,0,.09-.06a.66.66,0,0,1,.21,0c.37,0,.56.25.56.76v7c0,.27-.13.41-.38.41h-.09c-.25,0-.37-.13-.37-.39s0-.4,0-.74a2.6,2.6,0,0,1-.84.9,2.39,2.39,0,0,1-1.25.32Zm2.08-3.87a2.12,2.12,0,0,0-.73-1,1.93,1.93,0,0,0-1.19-.35,1.72,1.72,0,0,0-1.39.62,2.37,2.37,0,0,0-.54,1.62,2.72,2.72,0,0,0,.24,1.17,2,2,0,0,0,.69.81,1.79,1.79,0,0,0,1,.28,2,2,0,0,0,1-.24,1.88,1.88,0,0,0,.7-.67,1.83,1.83,0,0,0,.26-.95Zm2,2.27a1.48,1.48,0,0,1,.94-1.41,7.73,7.73,0,0,1,3-.47h.13v-.24a1.45,1.45,0,0,0-.4-1.11,1.58,1.58,0,0,0-1.14-.39,2,2,0,0,0-1.08.27,1.77,1.77,0,0,0-.67.74.3.3,0,0,1-.16,0,.57.57,0,0,1-.25-.14.34.34,0,0,1-.11-.29.64.64,0,0,1,.09-.3,1.11,1.11,0,0,1,.25-.33,2.27,2.27,0,0,1,.82-.49,3.17,3.17,0,0,1,1.16-.19,2.42,2.42,0,0,1,1.73.59,2.23,2.23,0,0,1,.61,1.67v3.52s0,0-.1.06a.52.52,0,0,1-.21,0c-.3,0-.46-.19-.5-.55s0-.4,0-.53a2.08,2.08,0,0,1-.85.84,2.5,2.5,0,0,1-1.26.31,2.15,2.15,0,0,1-1.42-.43,1.42,1.42,0,0,1-.52-1.16Zm4-1.32-.2,0a6.57,6.57,0,0,0-2.28.33,1,1,0,0,0-.7,1,.84.84,0,0,0,.33.7,1.43,1.43,0,0,0,.91.26,2.11,2.11,0,0,0,1-.22,1.76,1.76,0,0,0,.7-.62,1.56,1.56,0,0,0,.26-.87Zm8-3a2.53,2.53,0,0,1,2.29,1.41,3.5,3.5,0,0,1,.34,1.55,3.57,3.57,0,0,1-.34,1.56,2.51,2.51,0,0,1-.95,1.06,2.46,2.46,0,0,1-1.37.38,2.32,2.32,0,0,1-1.27-.34,2,2,0,0,1-.78-.85v3c0,.27-.13.41-.37.41H221c-.25,0-.38-.14-.38-.41v-7.55s0,0,.09-.06a.52.52,0,0,1,.21,0c.32,0,.49.21.52.65l0,.49a2.28,2.28,0,0,1,.84-.9,2.33,2.33,0,0,1,1.25-.32Zm-.18,5.23a1.77,1.77,0,0,0,1.42-.62,2.4,2.4,0,0,0,.54-1.64,2.54,2.54,0,0,0-.25-1.16,2,2,0,0,0-.69-.8,1.82,1.82,0,0,0-1-.28,2,2,0,0,0-1.19.36,2.14,2.14,0,0,0-.74,1v1.27a1.81,1.81,0,0,0,.25.94,1.9,1.9,0,0,0,.7.68,2,2,0,0,0,1,.24ZM227,347a3.09,3.09,0,0,1,.37-1.53,2.69,2.69,0,0,1,1-1.06,2.9,2.9,0,0,1,1.51-.38,2.81,2.81,0,0,1,1.48.38,2.66,2.66,0,0,1,1,1.07,3.29,3.29,0,0,1,.37,1.55,3.19,3.19,0,0,1-.37,1.52,2.76,2.76,0,0,1-1,1.06,3,3,0,0,1-1.5.38,3,3,0,0,1-1.5-.38,2.63,2.63,0,0,1-1-1.07A3.11,3.11,0,0,1,227,347Zm4.95,0a2.64,2.64,0,0,0-.26-1.17A2,2,0,0,0,231,345a1.89,1.89,0,0,0-1.05-.29,2,2,0,0,0-1.06.28,2,2,0,0,0-.74.8,2.48,2.48,0,0,0-.27,1.16,2.45,2.45,0,0,0,.27,1.16,2,2,0,0,0,1.8,1.1A2,2,0,0,0,231,349a2.09,2.09,0,0,0,.73-.8A2.53,2.53,0,0,0,232,347Zm4.34-3a1,1,0,0,1,.62.17.53.53,0,0,1,.23.45.67.67,0,0,1,0,.26.43.43,0,0,1-.13.16c-.05,0-.08.05-.08,0a.93.93,0,0,0-.69-.24,1.1,1.1,0,0,0-1,.63,3.71,3.71,0,0,0-.34,1.73v2.26c0,.27-.12.41-.37.41h-.09a.36.36,0,0,1-.4-.41v-5.28s0,0,.1-.06a.46.46,0,0,1,.21,0c.3,0,.46.19.5.57s0,.48,0,.63a1.74,1.74,0,0,1,.55-1,1.35,1.35,0,0,1,.93-.32Zm5.12,5.83a.49.49,0,0,1-.36-.14.56.56,0,0,1-.13-.39v-6.68a.52.52,0,0,1,.13-.38.45.45,0,0,1,.36-.14h2.44a2.94,2.94,0,0,1,1.86.51,1.77,1.77,0,0,1,.65,1.47,1.6,1.6,0,0,1-.36,1.08,2.09,2.09,0,0,1-1.05.62,2.34,2.34,0,0,1,1.31.67,1.82,1.82,0,0,1,.43,1.24,1.87,1.87,0,0,1-.7,1.61,3.5,3.5,0,0,1-2.12.53Zm2.38-4.28a1.78,1.78,0,0,0,1.2-.38,1.24,1.24,0,0,0,.43-1c0-.9-.55-1.34-1.67-1.34h-1.94v2.71Zm0,3.54a2.45,2.45,0,0,0,1.47-.34,1.3,1.3,0,0,0,.46-1.12,1.21,1.21,0,0,0-.48-1.05,2.45,2.45,0,0,0-1.43-.35h-2v2.86Zm3.73-2.08a3.29,3.29,0,0,1,.37-1.55,2.74,2.74,0,0,1,1-1.08,2.84,2.84,0,0,1,1.46-.38,2.62,2.62,0,0,1,1.38.35,2.33,2.33,0,0,1,.91,1,3.19,3.19,0,0,1,.32,1.48v.08a.29.29,0,0,1-.06.21.35.35,0,0,1-.23.06h-4.32a.76.76,0,0,0,0,.17,2.1,2.1,0,0,0,.65,1.39,2,2,0,0,0,1.43.52,2.11,2.11,0,0,0,1.17-.28,2,2,0,0,0,.68-.77.32.32,0,0,1,.17,0,.54.54,0,0,1,.22.15.37.37,0,0,1,.1.28.64.64,0,0,1-.11.33,1.29,1.29,0,0,1-.34.37,2.37,2.37,0,0,1-.79.44,3.5,3.5,0,0,1-1.11.17,3,3,0,0,1-1.52-.37,2.52,2.52,0,0,1-1-1.05,3.21,3.21,0,0,1-.37-1.53Zm4.6-.47a2,2,0,0,0-.52-1.34,1.64,1.64,0,0,0-1.25-.51,1.85,1.85,0,0,0-1.32.51,2.25,2.25,0,0,0-.66,1.34Zm1.64,1.82a1.49,1.49,0,0,1,.94-1.41,7.8,7.8,0,0,1,3-.47h.14v-.24a1.49,1.49,0,0,0-.4-1.11,1.59,1.59,0,0,0-1.15-.39,2,2,0,0,0-1.08.27,1.81,1.81,0,0,0-.66.74.3.3,0,0,1-.16,0,.48.48,0,0,1-.25-.14.34.34,0,0,1-.12-.29.64.64,0,0,1,.09-.3,1.15,1.15,0,0,1,.26-.33,2.31,2.31,0,0,1,.81-.49,3.21,3.21,0,0,1,1.16-.19,2.39,2.39,0,0,1,1.73.59,2.23,2.23,0,0,1,.61,1.67v3.52s0,0-.1.06a.46.46,0,0,1-.21,0c-.29,0-.46-.19-.5-.55s0-.4,0-.53a2.15,2.15,0,0,1-.85.84,2.57,2.57,0,0,1-1.27.31,2.15,2.15,0,0,1-1.42-.43,1.45,1.45,0,0,1-.52-1.16Zm4.05-1.32-.21,0a6.5,6.5,0,0,0-2.27.33,1,1,0,0,0-.7,1,.84.84,0,0,0,.33.7,1.41,1.41,0,0,0,.91.26,2.14,2.14,0,0,0,1-.22,1.83,1.83,0,0,0,.7-.62,1.56,1.56,0,0,0,.26-.87Zm4.2,2.92a1.49,1.49,0,0,1-1.17-.44,2,2,0,0,1-.39-1.35v-3.31h-.56c-.25,0-.37-.11-.37-.33v-.08c0-.22.12-.32.37-.32h.56v-1c0-.28.13-.42.38-.42h.1c.24,0,.37.14.37.42v1h1.44c.25,0,.37.1.37.32v.07c0,.23-.12.34-.38.34h-1.45v3.18a1.55,1.55,0,0,0,.21.91.72.72,0,0,0,.64.28,1,1,0,0,0,.85-.44s.05,0,.09,0a.32.32,0,0,1,.1.14.4.4,0,0,1,.05.22.63.63,0,0,1-.21.45,1.42,1.42,0,0,1-1,.33Zm4.49-6a1,1,0,0,1,.61.17.52.52,0,0,1,.24.45.53.53,0,0,1-.06.26.42.42,0,0,1-.12.16s-.08.05-.09,0a.91.91,0,0,0-.68-.24,1.1,1.1,0,0,0-1,.63,3.59,3.59,0,0,0-.34,1.73v2.26c0,.27-.12.41-.37.41h-.1c-.26,0-.39-.14-.39-.41v-5.28s0,0,.09-.06a.54.54,0,0,1,.22,0c.29,0,.46.19.5.57s0,.48,0,.63a1.87,1.87,0,0,1,.55-1,1.39,1.39,0,0,1,.94-.32Zm1.73-1.67a.5.5,0,0,1,.55-.55.54.54,0,0,1,.41.15.56.56,0,0,1,.14.4.51.51,0,0,1-.15.4.55.55,0,0,1-.41.14.53.53,0,0,1-.4-.14.54.54,0,0,1-.14-.4Zm.11,2.17c0-.28.13-.42.38-.42h.1c.25,0,.38.14.38.42v5c0,.27-.13.41-.38.41h-.1c-.25,0-.38-.14-.38-.41Zm2.1,4.9a.41.41,0,0,1,.06-.23,1.87,1.87,0,0,1,.22-.31l3.23-4H270.9c-.26,0-.39-.1-.39-.32v-.08c0-.21.13-.31.39-.31h3.8q.39,0,.39.33v.06a.42.42,0,0,1-.06.21,1.66,1.66,0,0,1-.21.31l-3.29,4.07h3.24c.28,0,.41.11.41.33v.07c0,.21-.13.32-.41.32h-3.9a.37.37,0,0,1-.29-.1.3.3,0,0,1-.1-.25Z"/><path d="M317.78,332.17a.28.28,0,0,1-.06.12.59.59,0,0,1-.18.17.51.51,0,0,1-.28.08.71.71,0,0,1-.46-.25l-.52-.53a3.48,3.48,0,0,1-2.27.78,3.78,3.78,0,0,1-2-.51,3.37,3.37,0,0,1-1.32-1.4,4.73,4.73,0,0,1,0-4.15,3.62,3.62,0,0,1,1.34-1.43,3.81,3.81,0,0,1,2-.51,3.69,3.69,0,0,1,2,.51,3.54,3.54,0,0,1,1.33,1.41,4.45,4.45,0,0,1,.47,2.07,4.22,4.22,0,0,1-.25,1.48,3.87,3.87,0,0,1-.68,1.21Zm-6.61-3.63a3.77,3.77,0,0,0,.36,1.68,2.77,2.77,0,0,0,1,1.13,2.72,2.72,0,0,0,1.48.41,2.62,2.62,0,0,0,1.74-.56l-1.47-1.51a.42.42,0,0,1-.15-.31.34.34,0,0,1,.12-.26l0,0a.3.3,0,0,1,.22-.1.44.44,0,0,1,.33.16l1.42,1.45a3.32,3.32,0,0,0,.61-2.06,3.71,3.71,0,0,0-.36-1.66,2.7,2.7,0,0,0-1-1.15,2.67,2.67,0,0,0-1.49-.41,2.77,2.77,0,0,0-1.49.4,2.74,2.74,0,0,0-1,1.14,3.77,3.77,0,0,0-.35,1.68Zm12.48-1.89c.25,0,.38.14.38.41v5.3l-.1.06-.21,0c-.3,0-.46-.18-.5-.56,0-.21,0-.36,0-.47a2.33,2.33,0,0,1-.81.81,2.17,2.17,0,0,1-1.15.31,2,2,0,0,1-1.63-.68,2.76,2.76,0,0,1-.56-1.81v-3c0-.27.13-.41.39-.41h.09c.26,0,.38.14.38.41V330a2,2,0,0,0,.4,1.31,1.37,1.37,0,0,0,1.11.47,1.83,1.83,0,0,0,1.06-.31,2,2,0,0,0,.7-.85v-3.55c0-.27.12-.41.37-.41Zm1.34,4.28a1.48,1.48,0,0,1,.93-1.4,7.42,7.42,0,0,1,3-.47H329v-.24a1.51,1.51,0,0,0-.4-1.12,1.59,1.59,0,0,0-1.15-.39,1.93,1.93,0,0,0-1.08.28,1.75,1.75,0,0,0-.66.74.37.37,0,0,1-.16,0,.5.5,0,0,1-.25-.13.37.37,0,0,1-.12-.29.71.71,0,0,1,.09-.31,1.5,1.5,0,0,1,.26-.33,2.46,2.46,0,0,1,.81-.49,3.21,3.21,0,0,1,1.16-.19,2.39,2.39,0,0,1,1.74.6,2.24,2.24,0,0,1,.6,1.66v3.53s0,0-.1.06a.66.66,0,0,1-.21,0c-.29,0-.46-.18-.5-.55,0-.22,0-.4,0-.52a2.06,2.06,0,0,1-.85.83,2.57,2.57,0,0,1-1.27.31,2.1,2.1,0,0,1-1.41-.43,1.4,1.4,0,0,1-.52-1.16Zm4-1.31h-.21a6.7,6.7,0,0,0-2.27.34,1,1,0,0,0-.7.94.86.86,0,0,0,.33.71,1.47,1.47,0,0,0,.91.26,2.14,2.14,0,0,0,1-.23,1.81,1.81,0,0,0,.7-.61,1.56,1.56,0,0,0,.26-.87Zm5.12-3.05a2,2,0,0,1,1.64.67,2.75,2.75,0,0,1,.55,1.81v3c0,.28-.12.41-.37.41h-.11c-.25,0-.38-.13-.38-.41v-2.91a2,2,0,0,0-.39-1.31,1.32,1.32,0,0,0-1.1-.47,1.82,1.82,0,0,0-1.07.31,1.9,1.9,0,0,0-.7.83V332c0,.28-.13.41-.37.41h-.11c-.26,0-.38-.13-.38-.41v-5.28s0,0,.1-.06a.78.78,0,0,1,.21,0c.33,0,.51.24.52.72v.34a2.23,2.23,0,0,1,.81-.83,2.11,2.11,0,0,1,1.15-.31Zm5.61,6a1.49,1.49,0,0,1-1.18-.45,2,2,0,0,1-.38-1.35v-3.31h-.57c-.24,0-.37-.11-.37-.32V327c0-.22.13-.33.37-.33h.57v-1c0-.28.12-.42.38-.42h.09c.25,0,.37.14.37.42v1h1.45c.25,0,.37.11.37.33v.07c0,.22-.13.33-.38.33H339v3.18a1.58,1.58,0,0,0,.21.92.75.75,0,0,0,.64.28,1,1,0,0,0,.85-.45l.08,0a.4.4,0,0,1,.11.14.56.56,0,0,1,.05.23.57.57,0,0,1-.22.44,1.4,1.4,0,0,1-1,.34Zm2.12-7.63a.49.49,0,0,1,.55-.55.56.56,0,0,1,.4.14.54.54,0,0,1,.15.41.52.52,0,0,1-.15.4.6.6,0,0,1-.41.14.57.57,0,0,1-.4-.14.56.56,0,0,1-.14-.4Zm.11,2.16c0-.28.12-.42.38-.42h.09q.39,0,.39.42v5c0,.28-.13.41-.39.41h-.09c-.26,0-.38-.13-.38-.41Zm4.72,5.47a2.5,2.5,0,0,1-1.35-.38,2.59,2.59,0,0,1-.94-1.05,3.73,3.73,0,0,1,0-3.11,2.59,2.59,0,0,1,.94-1.05,2.57,2.57,0,0,1,1.37-.38,2.45,2.45,0,0,1,1.26.31,2.09,2.09,0,0,1,.8.79v-3.32s0-.05.09-.07a.66.66,0,0,1,.21,0c.37,0,.56.26.56.77v7c0,.28-.13.41-.38.41h-.09a.34.34,0,0,1-.37-.38c0-.16,0-.41,0-.74a2.48,2.48,0,0,1-.84.89,2.31,2.31,0,0,1-1.25.33Zm2.08-3.88a2.09,2.09,0,0,0-.73-1,1.9,1.9,0,0,0-1.18-.36,1.77,1.77,0,0,0-1.4.62,2.41,2.41,0,0,0-.54,1.63,2.72,2.72,0,0,0,.24,1.17,2,2,0,0,0,.69.8,1.82,1.82,0,0,0,1,.29,1.9,1.9,0,0,0,1-.25,1.74,1.74,0,0,0,.7-.67,1.81,1.81,0,0,0,.26-.95Zm2,2.27a1.47,1.47,0,0,1,.94-1.4,7.36,7.36,0,0,1,3-.47h.13v-.24a1.48,1.48,0,0,0-.4-1.12,1.58,1.58,0,0,0-1.14-.39,1.93,1.93,0,0,0-1.08.28,1.77,1.77,0,0,0-.67.74.38.38,0,0,1-.16,0,.55.55,0,0,1-.25-.13.4.4,0,0,1-.11-.29.71.71,0,0,1,.09-.31,1.44,1.44,0,0,1,.25-.33,2.41,2.41,0,0,1,.82-.49,3.17,3.17,0,0,1,1.16-.19,2.36,2.36,0,0,1,1.73.6,2.2,2.2,0,0,1,.61,1.66v3.53s0,0-.1.06l-.21,0c-.3,0-.46-.18-.5-.55,0-.22,0-.4,0-.52a2,2,0,0,1-.85.83,2.5,2.5,0,0,1-1.26.31,2.15,2.15,0,0,1-1.42-.43,1.4,1.4,0,0,1-.52-1.16Zm4-1.31h-.2a6.81,6.81,0,0,0-2.28.34,1,1,0,0,0-.7.94.85.85,0,0,0,.34.71,1.44,1.44,0,0,0,.9.26,2.11,2.11,0,0,0,1-.23,1.74,1.74,0,0,0,.7-.61,1.48,1.48,0,0,0,.26-.87Zm4.6,2.92a2.5,2.5,0,0,1-1.35-.38,2.59,2.59,0,0,1-.94-1.05,3.73,3.73,0,0,1,0-3.11,2.62,2.62,0,0,1,.95-1.05,2.54,2.54,0,0,1,1.37-.38,2.42,2.42,0,0,1,1.25.31,2,2,0,0,1,.8.79v-3.32s0-.05.09-.07a.66.66,0,0,1,.21,0c.38,0,.57.26.57.77v7c0,.28-.13.41-.39.41h-.08a.33.33,0,0,1-.37-.38c0-.16,0-.41,0-.74a2.43,2.43,0,0,1-.85.89,2.26,2.26,0,0,1-1.25.33Zm2.08-3.88a2.14,2.14,0,0,0-.72-1,1.93,1.93,0,0,0-1.19-.36,1.79,1.79,0,0,0-1.4.62,2.41,2.41,0,0,0-.54,1.63,2.72,2.72,0,0,0,.25,1.17,1.86,1.86,0,0,0,.69.8,1.77,1.77,0,0,0,1,.29,1.92,1.92,0,0,0,1-.25,1.8,1.8,0,0,0,1-1.62Zm2,.92a3.24,3.24,0,0,1,.36-1.54,2.82,2.82,0,0,1,3.84-1.12,2.42,2.42,0,0,1,.91,1,3.12,3.12,0,0,1,.33,1.47v.08a.3.3,0,0,1-.07.22.33.33,0,0,1-.23.06H364.4c0,.07,0,.13,0,.17a2.1,2.1,0,0,0,.66,1.38,2,2,0,0,0,1.42.53,2.11,2.11,0,0,0,1.17-.29,2,2,0,0,0,.69-.76s.07,0,.16,0a.54.54,0,0,1,.23.15.41.41,0,0,1,.1.27.67.67,0,0,1-.12.34,1.43,1.43,0,0,1-.34.37,2.36,2.36,0,0,1-.79.43,3.39,3.39,0,0,1-2.63-.19,2.64,2.64,0,0,1-1-1.05,3.21,3.21,0,0,1-.36-1.54Zm4.59-.46a2.06,2.06,0,0,0-.52-1.35,1.63,1.63,0,0,0-1.25-.51,1.86,1.86,0,0,0-1.32.52,2.21,2.21,0,0,0-.65,1.34Zm6.55,3.42a2.5,2.5,0,0,1-1.35-.38,2.59,2.59,0,0,1-.94-1.05,3.73,3.73,0,0,1,0-3.11,2.59,2.59,0,0,1,.94-1.05,2.57,2.57,0,0,1,1.37-.38,2.45,2.45,0,0,1,1.26.31,2.09,2.09,0,0,1,.8.79v-3.32s0-.05.09-.07a.66.66,0,0,1,.21,0c.37,0,.56.26.56.77v7c0,.28-.13.41-.38.41h-.09a.34.34,0,0,1-.37-.38c0-.16,0-.41,0-.74a2.33,2.33,0,0,1-.84.89,2.28,2.28,0,0,1-1.25.33Zm2.08-3.88a2.14,2.14,0,0,0-.72-1,2,2,0,0,0-1.19-.36,1.77,1.77,0,0,0-1.4.62,2.41,2.41,0,0,0-.54,1.63,2.72,2.72,0,0,0,.24,1.17,2,2,0,0,0,.69.8,1.82,1.82,0,0,0,1,.29,1.87,1.87,0,0,0,1-.25,1.74,1.74,0,0,0,.7-.67,1.81,1.81,0,0,0,.26-.95Zm2,.92a3.13,3.13,0,0,1,.37-1.54,2.67,2.67,0,0,1,1-1.08,2.74,2.74,0,0,1,1.45-.39,2.67,2.67,0,0,1,1.38.35,2.44,2.44,0,0,1,.92,1,3.25,3.25,0,0,1,.32,1.47v.08a.3.3,0,0,1-.06.22.38.38,0,0,1-.24.06h-4.31a.81.81,0,0,0,0,.17,2,2,0,0,0,.65,1.38,2,2,0,0,0,1.43.53,2.1,2.1,0,0,0,1.16-.29,2,2,0,0,0,.69-.76.28.28,0,0,1,.16,0,.49.49,0,0,1,.23.15.36.36,0,0,1,.1.27.74.74,0,0,1-.11.34,1.63,1.63,0,0,1-.34.37,2.36,2.36,0,0,1-.79.43,3.23,3.23,0,0,1-1.11.18,3.11,3.11,0,0,1-1.52-.37,2.58,2.58,0,0,1-1-1.05,3.11,3.11,0,0,1-.37-1.54Zm4.59-.46a2,2,0,0,0-.51-1.35,1.65,1.65,0,0,0-1.26-.51,1.84,1.84,0,0,0-1.31.52,2.22,2.22,0,0,0-.66,1.34Zm3.95.42a3.09,3.09,0,0,1,.37-1.53,2.76,2.76,0,0,1,1-1.06,3.16,3.16,0,0,1,2.58-.19,2.66,2.66,0,0,1,.8.5,2,2,0,0,1,.35.45,1,1,0,0,1,.12.42.31.31,0,0,1-.12.26.59.59,0,0,1-.27.14c-.09,0-.15,0-.16,0a1.78,1.78,0,0,0-1.81-1.22,2,2,0,0,0-1.78,1.08,2.41,2.41,0,0,0-.26,1.15,2.6,2.6,0,0,0,.25,1.16,1.92,1.92,0,0,0,.73.81,2,2,0,0,0,1.06.29,1.85,1.85,0,0,0,1.15-.34,2,2,0,0,0,.66-.88s.06,0,.16,0a.59.59,0,0,1,.27.14.35.35,0,0,1,.12.28.86.86,0,0,1-.12.39,1.61,1.61,0,0,1-.35.45,2.09,2.09,0,0,1-.78.52,3.26,3.26,0,0,1-1.13.19,2.82,2.82,0,0,1-1.48-.39,2.7,2.7,0,0,1-1-1.07,3.13,3.13,0,0,1-.37-1.54Zm9.17-3a2,2,0,0,1,1.64.68,2.76,2.76,0,0,1,.56,1.81v3c0,.28-.13.41-.37.41h-.11c-.26,0-.38-.13-.38-.41v-2.91a2,2,0,0,0-.4-1.31,1.36,1.36,0,0,0-1.11-.46,1.74,1.74,0,0,0-1.26.48,1.79,1.79,0,0,0-.5,1.28V332c0,.28-.12.41-.37.41h-.11c-.25,0-.38-.13-.38-.41v-7.68s0,0,.1-.06a.46.46,0,0,1,.21,0c.37,0,.55.26.55.77v2.72a2.21,2.21,0,0,1,.77-.86,2.12,2.12,0,0,1,1.16-.31Zm3.32,3a3.11,3.11,0,0,1,.37-1.54,2.76,2.76,0,0,1,1-1.06,3,3,0,0,1,1.51-.38,2.91,2.91,0,0,1,1.48.38,2.79,2.79,0,0,1,1,1.07,3.32,3.32,0,0,1,.37,1.55,3.21,3.21,0,0,1-.37,1.53,2.67,2.67,0,0,1-1,1,2.89,2.89,0,0,1-1.5.39,2.94,2.94,0,0,1-1.5-.39,2.6,2.6,0,0,1-1-1.06,3.13,3.13,0,0,1-.37-1.54Zm4.95,0a2.57,2.57,0,0,0-.26-1.16,2.08,2.08,0,0,0-.73-.82,2,2,0,0,0-1.05-.29,2,2,0,0,0-1.06.29,2,2,0,0,0-.74.8,2.45,2.45,0,0,0-.27,1.16,2.48,2.48,0,0,0,.27,1.16,2,2,0,0,0,.74.8,1.93,1.93,0,0,0,1.06.3,2,2,0,0,0,1.05-.29,2.06,2.06,0,0,0,.73-.79,2.57,2.57,0,0,0,.26-1.16Zm1.66,0a3.21,3.21,0,0,1,.37-1.53,2.76,2.76,0,0,1,1-1.06,2.94,2.94,0,0,1,1.48-.38,2.88,2.88,0,0,1,1.1.19,2.54,2.54,0,0,1,.8.5,1.72,1.72,0,0,1,.35.45,1,1,0,0,1,.12.42.31.31,0,0,1-.12.26.6.6,0,0,1-.26.14c-.1,0-.15,0-.17,0a1.77,1.77,0,0,0-1.8-1.22,2,2,0,0,0-1.06.29,2.06,2.06,0,0,0-.73.79,2.53,2.53,0,0,0-.26,1.15,2.6,2.6,0,0,0,.26,1.16,1.89,1.89,0,0,0,.72.81,2,2,0,0,0,1.07.29,1.87,1.87,0,0,0,1.15-.34,2,2,0,0,0,.65-.88s.06,0,.16,0a.59.59,0,0,1,.27.14.35.35,0,0,1,.12.28.86.86,0,0,1-.12.39,1.45,1.45,0,0,1-.35.45,2.09,2.09,0,0,1-.78.52,3.22,3.22,0,0,1-1.13.19,2.85,2.85,0,0,1-1.48-.39,2.7,2.7,0,0,1-1-1.07,3.25,3.25,0,0,1-.37-1.54Zm6,0a3.11,3.11,0,0,1,.37-1.54,2.69,2.69,0,0,1,1-1.06,3,3,0,0,1,1.5-.38,2.92,2.92,0,0,1,1.49.38,2.69,2.69,0,0,1,1,1.07,3.2,3.2,0,0,1,.37,1.55,3.09,3.09,0,0,1-.37,1.53,2.6,2.6,0,0,1-1,1,2.83,2.83,0,0,1-1.49.39,2.89,2.89,0,0,1-1.5-.39,2.63,2.63,0,0,1-1-1.06,3.24,3.24,0,0,1-.36-1.54Zm4.95,0a2.45,2.45,0,0,0-.27-1.16,1.94,1.94,0,0,0-.73-.82,2,2,0,0,0-1.05-.29,2,2,0,0,0-1.8,1.09,2.45,2.45,0,0,0-.27,1.16,2.48,2.48,0,0,0,.27,1.16,2,2,0,0,0,.74.8,2,2,0,0,0,1.06.3,2,2,0,0,0,1.05-.29,1.92,1.92,0,0,0,.73-.79,2.45,2.45,0,0,0,.27-1.16Zm2.46,2.87c-.26,0-.38-.13-.38-.41v-7.68s0,0,.09-.06a.54.54,0,0,1,.22,0c.36,0,.55.26.55.77v7c0,.28-.13.41-.38.41Zm1.71-1.51a1.47,1.47,0,0,1,.94-1.4,7.36,7.36,0,0,1,3-.47h.13v-.24a1.48,1.48,0,0,0-.4-1.12,1.58,1.58,0,0,0-1.14-.39,1.93,1.93,0,0,0-1.08.28,1.71,1.71,0,0,0-.67.74.38.38,0,0,1-.16,0,.55.55,0,0,1-.25-.13.36.36,0,0,1-.11-.29.71.71,0,0,1,.09-.31,1.44,1.44,0,0,1,.25-.33,2.41,2.41,0,0,1,.82-.49,3.17,3.17,0,0,1,1.16-.19,2.38,2.38,0,0,1,1.73.6,2.2,2.2,0,0,1,.61,1.66v3.53l-.1.06-.21,0c-.3,0-.46-.18-.5-.55,0-.22,0-.4,0-.52a2,2,0,0,1-.85.83,2.5,2.5,0,0,1-1.26.31,2.15,2.15,0,0,1-1.42-.43,1.4,1.4,0,0,1-.52-1.16Zm4-1.31h-.2a6.76,6.76,0,0,0-2.28.34,1,1,0,0,0-.7.94.86.86,0,0,0,.33.71,1.49,1.49,0,0,0,.91.26,2.11,2.11,0,0,0,1-.23,1.74,1.74,0,0,0,.7-.61,1.56,1.56,0,0,0,.26-.87Zm4.21,2.92a1.47,1.47,0,0,1-1.18-.45,2,2,0,0,1-.39-1.35v-3.31h-.56c-.25,0-.37-.11-.37-.32V327c0-.22.12-.33.37-.33h.56v-1c0-.28.13-.42.38-.42h.1c.25,0,.37.14.37.42v1h1.45c.24,0,.37.11.37.33v.07c0,.22-.13.33-.38.33h-1.45v3.18a1.67,1.67,0,0,0,.2.92.77.77,0,0,0,.65.28,1,1,0,0,0,.85-.45l.08,0a.4.4,0,0,1,.11.14.56.56,0,0,1,.05.23.61.61,0,0,1-.22.44,1.41,1.41,0,0,1-1,.34Zm1.8-3A3.13,3.13,0,0,1,432,328a2.82,2.82,0,0,1,3.84-1.12,2.42,2.42,0,0,1,.91,1,3.12,3.12,0,0,1,.32,1.47v.08a.3.3,0,0,1-.06.22.37.37,0,0,1-.24.06H432.5a.81.81,0,0,0,0,.17,2.09,2.09,0,0,0,.65,1.38,2,2,0,0,0,1.43.53,2.11,2.11,0,0,0,1.17-.29,1.92,1.92,0,0,0,.68-.76.32.32,0,0,1,.17,0,.51.51,0,0,1,.22.15.36.36,0,0,1,.1.27.64.64,0,0,1-.11.34,1.63,1.63,0,0,1-.34.37,2.36,2.36,0,0,1-.79.43,3.23,3.23,0,0,1-1.11.18,3.11,3.11,0,0,1-1.52-.37,2.58,2.58,0,0,1-1-1.05,3.11,3.11,0,0,1-.37-1.54Zm4.59-.46a2,2,0,0,0-.51-1.35,1.65,1.65,0,0,0-1.26-.51,1.85,1.85,0,0,0-1.31.52,2.22,2.22,0,0,0-.66,1.34Z"/><path d="M329.78,344a1,1,0,0,1,.62.17.51.51,0,0,1,.23.45.67.67,0,0,1-.05.26.43.43,0,0,1-.13.16s-.07.05-.08,0a.92.92,0,0,0-.68-.24,1.08,1.08,0,0,0-1,.63,3.59,3.59,0,0,0-.34,1.73v2.26c0,.27-.13.41-.38.41h-.09a.36.36,0,0,1-.4-.41v-5.28s0,0,.1-.06a.51.51,0,0,1,.22,0c.29,0,.46.19.5.57s0,.48,0,.63a1.8,1.8,0,0,1,.55-1,1.39,1.39,0,0,1,.93-.32Zm1.16,3a3.29,3.29,0,0,1,.37-1.55,2.74,2.74,0,0,1,1-1.08,2.84,2.84,0,0,1,1.46-.38,2.62,2.62,0,0,1,1.38.35,2.33,2.33,0,0,1,.91,1,3.19,3.19,0,0,1,.32,1.48v.08a.29.29,0,0,1-.06.21.37.37,0,0,1-.24.06h-4.31a.76.76,0,0,0,0,.17,2.1,2.1,0,0,0,.65,1.39,2,2,0,0,0,1.43.52A2.11,2.11,0,0,0,335,349a2,2,0,0,0,.68-.77.32.32,0,0,1,.17,0,.62.62,0,0,1,.22.15.37.37,0,0,1,.1.28.64.64,0,0,1-.11.33,1.45,1.45,0,0,1-.34.37,2.37,2.37,0,0,1-.79.44,3.5,3.5,0,0,1-1.11.17,3,3,0,0,1-1.52-.37,2.52,2.52,0,0,1-1-1.05,3.21,3.21,0,0,1-.37-1.53Zm4.59-.47a2,2,0,0,0-.51-1.34,1.64,1.64,0,0,0-1.25-.51,1.85,1.85,0,0,0-1.32.51,2.25,2.25,0,0,0-.66,1.34Zm1.65.42a3.17,3.17,0,0,1,.37-1.52,2.69,2.69,0,0,1,1-1.06,2.87,2.87,0,0,1,1.49-.38,2.92,2.92,0,0,1,1.1.19,2.41,2.41,0,0,1,.8.5,1.57,1.57,0,0,1,.34.45.9.9,0,0,1,.12.41.34.34,0,0,1-.12.27.66.66,0,0,1-.26.14c-.1,0-.15,0-.17,0a1.76,1.76,0,0,0-1.8-1.22A2,2,0,0,0,339,345a1.94,1.94,0,0,0-.73.8A2.4,2.4,0,0,0,338,347a2.64,2.64,0,0,0,.26,1.17,1.93,1.93,0,0,0,.72.8,2,2,0,0,0,1.07.29,1.85,1.85,0,0,0,1.15-.33,2,2,0,0,0,.65-.89s.06,0,.16,0a.59.59,0,0,1,.27.14.37.37,0,0,1,.12.29.93.93,0,0,1-.12.39,1.9,1.9,0,0,1-.34.45,2.16,2.16,0,0,1-.79.51,3,3,0,0,1-1.13.19,2.87,2.87,0,0,1-1.47-.38,2.72,2.72,0,0,1-1-1.07,3.32,3.32,0,0,1-.37-1.55Zm6,0a3.28,3.28,0,0,1,.36-1.55,2.77,2.77,0,0,1,1-1.08A2.8,2.8,0,0,1,346,344a2.58,2.58,0,0,1,1.38.35,2.35,2.35,0,0,1,.92,1,3.32,3.32,0,0,1,.32,1.48v.08a.25.25,0,0,1-.07.21.33.33,0,0,1-.23.06H344a.65.65,0,0,0,0,.17,2.05,2.05,0,0,0,.65,1.39,2,2,0,0,0,1.43.52,2.1,2.1,0,0,0,1.16-.28,2.06,2.06,0,0,0,.69-.77.29.29,0,0,1,.16,0,.65.65,0,0,1,.23.15.37.37,0,0,1,.1.28.75.75,0,0,1-.11.33,1.45,1.45,0,0,1-.34.37,2.47,2.47,0,0,1-.79.44,3.51,3.51,0,0,1-1.12.17,3,3,0,0,1-1.51-.37,2.6,2.6,0,0,1-1-1.05,3.2,3.2,0,0,1-.36-1.53Zm4.59-.47a2,2,0,0,0-.51-1.34,1.65,1.65,0,0,0-1.26-.51,1.81,1.81,0,0,0-1.31.51,2.25,2.25,0,0,0-.66,1.34Zm2.86,3c0,.24-.13.37-.36.37h-.1a.41.41,0,0,1-.28-.1.42.42,0,0,1-.1-.33v-7.67s0,0,.09-.06a.66.66,0,0,1,.21,0c.37,0,.55.25.55.76v2.74a2.33,2.33,0,0,1,2.1-1.18,2.45,2.45,0,0,1,1.33.37,2.5,2.5,0,0,1,.94,1,3.37,3.37,0,0,1,.34,1.55,3.44,3.44,0,0,1-.34,1.56,2.51,2.51,0,0,1-1,1.06,2.67,2.67,0,0,1-2.66.05,2.08,2.08,0,0,1-.77-.85Zm3.87-2.53a2.54,2.54,0,0,0-.25-1.16,2,2,0,0,0-.69-.8,1.75,1.75,0,0,0-1-.28,2,2,0,0,0-1.21.36,2.21,2.21,0,0,0-.74,1v1.29a1.76,1.76,0,0,0,.26.93,2,2,0,0,0,.7.67,2,2,0,0,0,1,.24,1.76,1.76,0,0,0,1.41-.62,2.4,2.4,0,0,0,.54-1.64Zm2-4.64a.52.52,0,0,1,.55-.55.54.54,0,0,1,.41.15.52.52,0,0,1,.14.4.51.51,0,0,1-.15.4.54.54,0,0,1-.41.14.49.49,0,0,1-.39-.14.51.51,0,0,1-.15-.4Zm.11,2.17c0-.28.13-.42.38-.42h.1c.25,0,.38.14.38.42v5c0,.27-.13.41-.38.41H357c-.25,0-.38-.14-.38-.41Zm4.72,5.46a2.42,2.42,0,0,1-1.35-.38,2.59,2.59,0,0,1-.94-1,3.73,3.73,0,0,1,0-3.11,2.62,2.62,0,0,1,.95-1.05,2.54,2.54,0,0,1,1.37-.37,2.42,2.42,0,0,1,1.25.31,2,2,0,0,1,.8.79v-3.33s0,0,.09-.06a.66.66,0,0,1,.21,0c.38,0,.56.25.56.76v7c0,.27-.12.41-.38.41h-.08c-.25,0-.37-.13-.37-.39s0-.4,0-.74a2.54,2.54,0,0,1-.85.9,2.34,2.34,0,0,1-1.25.32Zm2.08-3.87a2.17,2.17,0,0,0-.72-1,1.93,1.93,0,0,0-1.19-.35,1.75,1.75,0,0,0-1.4.62,2.37,2.37,0,0,0-.54,1.62,2.72,2.72,0,0,0,.25,1.17,1.89,1.89,0,0,0,.69.81,1.76,1.76,0,0,0,1,.28,2,2,0,0,0,1-.24,2,2,0,0,0,.7-.67,1.82,1.82,0,0,0,.25-.95Zm2,2.27a1.48,1.48,0,0,1,.93-1.41,7.82,7.82,0,0,1,3-.47h.13v-.24a1.49,1.49,0,0,0-.4-1.11,1.59,1.59,0,0,0-1.15-.39,2,2,0,0,0-1.08.27,1.81,1.81,0,0,0-.66.74.3.3,0,0,1-.16,0,.52.52,0,0,1-.25-.14.34.34,0,0,1-.12-.29.64.64,0,0,1,.09-.3,1.15,1.15,0,0,1,.26-.33,2.31,2.31,0,0,1,.81-.49A3.21,3.21,0,0,1,368,344a2.43,2.43,0,0,1,1.74.59,2.27,2.27,0,0,1,.61,1.67v3.52s0,0-.11.06a.45.45,0,0,1-.2,0c-.3,0-.47-.19-.51-.55s0-.4,0-.53a2.15,2.15,0,0,1-.85.84,2.54,2.54,0,0,1-1.27.31,2.12,2.12,0,0,1-1.41-.43,1.42,1.42,0,0,1-.52-1.16Zm4-1.32-.21,0a6.5,6.5,0,0,0-2.27.33,1,1,0,0,0-.7,1,.84.84,0,0,0,.33.7,1.41,1.41,0,0,0,.91.26,2.11,2.11,0,0,0,1-.22,1.76,1.76,0,0,0,.7-.62,1.56,1.56,0,0,0,.26-.87Zm8.15-3a2.54,2.54,0,0,1,1.35.37,2.5,2.5,0,0,1,.94,1,3.37,3.37,0,0,1,.34,1.55,3.44,3.44,0,0,1-.34,1.56,2.56,2.56,0,0,1-.94,1.06,2.48,2.48,0,0,1-1.37.38,2.36,2.36,0,0,1-1.28-.34,2,2,0,0,1-.78-.85v3c0,.27-.12.41-.37.41h-.1c-.25,0-.38-.14-.38-.41v-7.55s0,0,.1-.06a.45.45,0,0,1,.2,0c.32,0,.49.21.53.65v.49a2.31,2.31,0,0,1,.85-.9,2.27,2.27,0,0,1,1.24-.32Zm-.18,5.23a1.75,1.75,0,0,0,1.42-.62,2.4,2.4,0,0,0,.54-1.64,2.54,2.54,0,0,0-.25-1.16,2,2,0,0,0-.69-.8,1.81,1.81,0,0,0-1-.28,2,2,0,0,0-1.19.36,2.16,2.16,0,0,0-.75,1v1.27a1.73,1.73,0,0,0,.26.94,1.88,1.88,0,0,0,.69.68,2,2,0,0,0,1,.24Zm3.62-2.26a3.21,3.21,0,0,1,.37-1.53,2.69,2.69,0,0,1,1-1.06A2.9,2.9,0,0,1,384,344a2.85,2.85,0,0,1,1.49.38,2.7,2.7,0,0,1,1,1.07,3.17,3.17,0,0,1,.37,1.55,3.08,3.08,0,0,1-.37,1.52,2.76,2.76,0,0,1-1,1.06,3.13,3.13,0,0,1-3,0,2.59,2.59,0,0,1-1-1.07,3.22,3.22,0,0,1-.37-1.54Zm4.95,0a2.51,2.51,0,0,0-.26-1.17A2,2,0,0,0,385,345a1.89,1.89,0,0,0-1.05-.29,2,2,0,0,0-1.8,1.08,2.48,2.48,0,0,0-.27,1.16,2.45,2.45,0,0,0,.27,1.16,2.07,2.07,0,0,0,.74.81,2,2,0,0,0,1.06.29A2,2,0,0,0,385,349a2.09,2.09,0,0,0,.73-.8A2.41,2.41,0,0,0,386,347Zm4.34-3a1,1,0,0,1,.62.17.53.53,0,0,1,.23.45.67.67,0,0,1-.05.26.43.43,0,0,1-.13.16c-.05,0-.07.05-.08,0a.92.92,0,0,0-.68-.24,1.08,1.08,0,0,0-1,.63,3.58,3.58,0,0,0-.35,1.73v2.26c0,.27-.12.41-.37.41h-.09a.36.36,0,0,1-.4-.41v-5.28s0,0,.1-.06a.46.46,0,0,1,.21,0q.45,0,.51.57c0,.27,0,.48,0,.63a1.8,1.8,0,0,1,.55-1,1.39,1.39,0,0,1,.93-.32Zm4.46,2a4.4,4.4,0,0,1,.48-2.08,3.53,3.53,0,0,1,1.34-1.42,3.69,3.69,0,0,1,2-.52,3.84,3.84,0,0,1,1.36.23,3,3,0,0,1,1,.57,1.75,1.75,0,0,1,.38.45.87.87,0,0,1,.14.4.45.45,0,0,1-.12.33.56.56,0,0,1-.27.17c-.1,0-.16,0-.17,0a2.3,2.3,0,0,0-.93-1,2.59,2.59,0,0,0-1.37-.38,2.72,2.72,0,0,0-1.48.41,2.77,2.77,0,0,0-1,1.13,3.77,3.77,0,0,0-.36,1.68,3.72,3.72,0,0,0,.37,1.66,2.69,2.69,0,0,0,1,1.14,2.74,2.74,0,0,0,1.48.4,2.53,2.53,0,0,0,1.5-.43,2.2,2.2,0,0,0,.85-1.11s.06,0,.17,0a.64.64,0,0,1,.29.16.41.41,0,0,1,.13.32,1,1,0,0,1-.15.47,2.13,2.13,0,0,1-.43.54,3.06,3.06,0,0,1-1,.59,4,4,0,0,1-1.38.23,3.87,3.87,0,0,1-2-.5,3.54,3.54,0,0,1-1.33-1.41,4.51,4.51,0,0,1-.47-2.07Zm8.34,3.89c-.26,0-.39-.14-.39-.41v-7.69s0,0,.1-.06a.66.66,0,0,1,.21,0c.37,0,.55.25.55.76v7c0,.27-.12.41-.38.41Zm1.7-1.51a1.49,1.49,0,0,1,.94-1.41,7.8,7.8,0,0,1,3-.47h.14v-.24a1.49,1.49,0,0,0-.4-1.11,1.59,1.59,0,0,0-1.15-.39,2,2,0,0,0-1.08.27,1.81,1.81,0,0,0-.66.74.3.3,0,0,1-.16,0,.48.48,0,0,1-.25-.14.34.34,0,0,1-.12-.29.64.64,0,0,1,.09-.3,1.15,1.15,0,0,1,.26-.33,2.31,2.31,0,0,1,.81-.49,3.21,3.21,0,0,1,1.16-.19,2.39,2.39,0,0,1,1.73.59,2.23,2.23,0,0,1,.61,1.67v3.52s0,0-.1.06a.49.49,0,0,1-.21,0c-.29,0-.46-.19-.5-.55s0-.4,0-.53a2.15,2.15,0,0,1-.85.84,2.57,2.57,0,0,1-1.27.31,2.15,2.15,0,0,1-1.42-.43,1.45,1.45,0,0,1-.52-1.16Zm4.05-1.32-.21,0a6.61,6.61,0,0,0-2.28.33,1,1,0,0,0-.69,1,.84.84,0,0,0,.33.7,1.41,1.41,0,0,0,.91.26,2.14,2.14,0,0,0,1-.22,1.83,1.83,0,0,0,.7-.62,1.56,1.56,0,0,0,.26-.87Zm4.65-3a1,1,0,0,1,.61.17.51.51,0,0,1,.23.45.53.53,0,0,1-.05.26.42.42,0,0,1-.12.16c-.05,0-.08.05-.09,0a.91.91,0,0,0-.68-.24,1.1,1.1,0,0,0-1,.63,3.59,3.59,0,0,0-.34,1.73v2.26c0,.27-.13.41-.37.41h-.1c-.26,0-.39-.14-.39-.41v-5.28s0,0,.09-.06a.54.54,0,0,1,.22,0c.29,0,.46.19.5.57s0,.48,0,.63a1.87,1.87,0,0,1,.55-1,1.39,1.39,0,0,1,.94-.32Zm1.34,4.36a1.48,1.48,0,0,1,.93-1.41,7.8,7.8,0,0,1,3-.47H419v-.24a1.49,1.49,0,0,0-.4-1.11,1.59,1.59,0,0,0-1.15-.39,2,2,0,0,0-1.08.27,1.81,1.81,0,0,0-.66.74.3.3,0,0,1-.16,0,.52.52,0,0,1-.25-.14.34.34,0,0,1-.12-.29.64.64,0,0,1,.09-.3,1.15,1.15,0,0,1,.26-.33,2.31,2.31,0,0,1,.81-.49,3.21,3.21,0,0,1,1.16-.19,2.43,2.43,0,0,1,1.74.59,2.26,2.26,0,0,1,.6,1.67v3.52s0,0-.1.06a.46.46,0,0,1-.21,0c-.29,0-.46-.19-.5-.55s0-.4,0-.53a2.15,2.15,0,0,1-.85.84,2.57,2.57,0,0,1-1.27.31,2.1,2.1,0,0,1-1.41-.43,1.42,1.42,0,0,1-.52-1.16Zm4-1.32-.21,0a6.5,6.5,0,0,0-2.27.33,1,1,0,0,0-.7,1,.84.84,0,0,0,.33.7,1.41,1.41,0,0,0,.91.26,2.14,2.14,0,0,0,1-.22,1.83,1.83,0,0,0,.7-.62,1.56,1.56,0,0,0,.26-.87Z"/></svg>