<svg id="Camada_1" data-name="Camada 1" xmlns="http://www.w3.org/2000/svg" viewBox="0 0 431.4 130.04"><defs><style>.cls-1,.cls-3{fill:none;stroke:#000;stroke-miterlimit:10;stroke-width:0.4px;}.cls-1{stroke-dasharray:2.99 2.99;}.cls-2{fill:#95d4e9;}</style></defs><path class="cls-1" d="M63.23,110.38A45.36,45.36,0,1,0,17.88,65a45.36,45.36,0,0,0,45.35,45.36"/><path class="cls-2" d="M63.23,65,40.56,25.74a45.36,45.36,0,0,0,0,78.56Z"/><path class="cls-3" d="M63.23,65,40.56,25.74a45.36,45.36,0,0,0,0,78.56Z"/><line class="cls-1" x1="63.23" y1="65.02" x2="108.59" y2="65.02"/><line class="cls-1" x1="63.23" y1="65.02" x2="85.91" y2="25.74"/><line class="cls-1" x1="63.23" y1="65.02" x2="85.91" y2="104.3"/><line class="cls-3" x1="63.23" y1="65.02" x2="17.88" y2="65.02"/><path class="cls-1" d="M217.92,110.38A45.36,45.36,0,1,0,172.56,65a45.35,45.35,0,0,0,45.36,45.36"/><path class="cls-2" d="M217.92,65,185.85,33a45.34,45.34,0,0,0,0,64.14Z"/><path class="cls-3" d="M217.92,65,185.85,33a45.34,45.34,0,0,0,0,64.14Z"/><line class="cls-1" x1="217.92" y1="65.02" x2="263.27" y2="65.02"/><line class="cls-1" x1="217.92" y1="65.02" x2="249.99" y2="32.95"/><line class="cls-1" x1="217.92" y1="65.02" x2="217.92" y2="19.67"/><line class="cls-1" x1="217.92" y1="65.02" x2="185.85" y2="32.95"/><line class="cls-1" x1="217.92" y1="65.02" x2="172.56" y2="65.02"/><line class="cls-1" x1="217.92" y1="65.02" x2="185.85" y2="97.09"/><line class="cls-1" x1="217.92" y1="65.02" x2="217.92" y2="110.38"/><line class="cls-1" x1="217.92" y1="65.02" x2="249.99" y2="97.09"/><line class="cls-3" x1="217.92" y1="65.02" x2="185.85" y2="32.95"/><line class="cls-3" x1="217.92" y1="65.02" x2="172.56" y2="65.02"/><line class="cls-3" x1="217.92" y1="65.02" x2="185.85" y2="97.09"/><path class="cls-1" d="M368.17,110.38A45.36,45.36,0,1,0,322.82,65a45.36,45.36,0,0,0,45.35,45.36"/><path class="cls-2" d="M368.17,110.38V65H322.82a45.35,45.35,0,0,0,45.35,45.36"/><path class="cls-3" d="M368.17,110.38V65H322.82a45.35,45.35,0,0,0,45.35,45.36"/><line class="cls-1" x1="368.17" y1="65.02" x2="413.53" y2="65.02"/><line class="cls-1" x1="368.17" y1="65.02" x2="368.17" y2="19.67"/><line class="cls-3" x1="368.17" y1="65.02" x2="322.82" y2="65.02"/><line class="cls-3" x1="368.17" y1="65.02" x2="368.17" y2="110.38"/></svg>