<svg id="Camada_1" data-name="Camada 1" xmlns="http://www.w3.org/2000/svg" viewBox="0 0 407.36 120.28"><defs><style>.cls-1{fill:#f28c5e;}.cls-1,.cls-7{opacity:0.8;}.cls-2,.cls-3,.cls-4,.cls-6{fill:none;stroke:#000;stroke-miterlimit:10;}.cls-2{stroke-width:1.2px;}.cls-3{stroke-width:0.4px;}.cls-4{stroke-width:0.4px;}.cls-5{font-size:14.35px;font-family:CMR12;}.cls-6{stroke-width:0.57px;}.cls-7{fill:#95d4e9;}</style></defs><path class="cls-1" d="M56.93,70.23,81.48,56.06A28.35,28.35,0,0,0,56.93,41.88Z"/><line class="cls-2" x1="81.48" y1="56.06" x2="32.39" y2="84.4"/><line class="cls-2" x1="56.93" y1="41.88" x2="56.93" y2="98.58"/><line class="cls-2" x1="32.39" y1="56.06" x2="81.48" y2="84.4"/><path class="cls-3" d="M87.47,52.26A35.19,35.19,0,0,0,57.23,34.8"/><line class="cls-4" x1="89.51" y1="51.2" x2="85.54" y2="53.49"/><line class="cls-3" x1="57.13" y1="37.09" x2="57.13" y2="32.51"/><text class="cls-5" transform="translate(91.63 26.62)">1</text><line class="cls-6" x1="91.63" y1="32.74" x2="98.65" y2="32.74"/><text class="cls-5" transform="translate(91.63 46.16)">6</text><circle class="cls-3" cx="56.93" cy="70.23" r="28.35"/><path class="cls-7" d="M174.26,70.23H145.92a28.35,28.35,0,1,0,28.34-28.35Z"/><line class="cls-2" x1="202.61" y1="70.23" x2="145.92" y2="70.23"/><line class="cls-2" x1="174.26" y1="41.88" x2="174.26" y2="98.58"/><path class="cls-3" d="M174.56,34.8a35.43,35.43,0,1,1-35.73,35.73"/><line class="cls-3" x1="174.46" y1="37.09" x2="174.46" y2="32.51"/><line class="cls-3" x1="136.54" y1="70.43" x2="141.12" y2="70.43"/><text class="cls-5" transform="translate(214.99 35.02)">3</text><line class="cls-6" x1="214.99" y1="41.13" x2="222.01" y2="41.13"/><text class="cls-5" transform="translate(214.99 54.56)">4</text><circle class="cls-3" cx="174.26" cy="70.23" r="28.35" transform="translate(-2.24 5.84) rotate(-1.91)"/><path class="cls-7" d="M292,70.23H263.64A28.35,28.35,0,1,0,292,41.88Z"/><path class="cls-1" d="M292,70.23,277.82,45.68a28.37,28.37,0,0,0-14.18,24.55Z"/><line class="cls-2" x1="320.34" y1="70.23" x2="263.64" y2="70.23"/><line class="cls-2" x1="291.99" y1="41.88" x2="291.99" y2="98.58"/><path class="cls-3" d="M292.29,34.8a35.43,35.43,0,1,1-35.73,35.73"/><line class="cls-3" x1="292.19" y1="37.09" x2="292.19" y2="32.51"/><line class="cls-3" x1="254.26" y1="70.43" x2="258.85" y2="70.43"/><path class="cls-3" d="M274,39.69a35.2,35.2,0,0,0-17.45,30.24"/><line class="cls-4" x1="272.95" y1="37.66" x2="275.25" y2="41.63"/><line class="cls-3" x1="258.85" y1="70.03" x2="254.26" y2="70.03"/><text class="cls-5" transform="translate(325.47 34.19)">1</text><line class="cls-6" x1="325.47" y1="40.31" x2="332.5" y2="40.31"/><text class="cls-5" transform="translate(325.47 53.74)">6</text><text class="cls-5" transform="translate(336.88 43.89)">+</text><text class="cls-5" transform="translate(352.19 34.19)">3</text><line class="cls-6" x1="352.19" y1="40.31" x2="359.21" y2="40.31"/><text class="cls-5" transform="translate(352.19 53.74)">4</text><text class="cls-5" transform="translate(364.39 43.89)">=?</text><circle class="cls-3" cx="291.99" cy="70.23" r="28.35" transform="translate(-2.18 9.76) rotate(-1.91)"/><line class="cls-2" x1="291.99" y1="70.23" x2="277.82" y2="45.68"/></svg>