<?xml version="1.0" encoding="utf-8"?>
<!-- Generator: Adobe Illustrator 16.0.0, SVG Export Plug-In . SVG Version: 6.00 Build 0)  -->
<!DOCTYPE svg PUBLIC "-//W3C//DTD SVG 1.1//EN" "http://www.w3.org/Graphics/SVG/1.1/DTD/svg11.dtd">
<svg version="1.1" id="Layer_1" xmlns="http://www.w3.org/2000/svg" xmlns:xlink="http://www.w3.org/1999/xlink" x="0px" y="0px"
	 width="396.85px" height="283.464px" viewBox="0 0 396.85 283.464" enable-background="new 0 0 396.85 283.464"
	 xml:space="preserve">
<g>
	
		<path fill="#F9BF76" stroke="#231F20" stroke-width="1.5" stroke-linecap="round" stroke-linejoin="round" stroke-miterlimit="10" d="
		M327.115,106.859c0,0-1.188,12.756-2.278,16.305c-1.181,3.828-1.156,7.084-2.219,7.521c-1.06,0.436-4.162,0.92-6.515,3.287
		c-3.078,3.099-5.379,5.569-3.478,10.125c0.824,1.975,2.931,2.66,3.713,1.084c0.777-1.574,1.388-4.896,1.898-7.162
		c0.427-1.894,4.114-4.146,5.612-2.734c1.501,1.408,0.278,6.434,2.522,7.367c2.247,0.934,3.205-0.902,3.082-2.314
		c-0.123-1.418-0.924-4.168-2.027-5.773c-1.105-1.608-1.452-1.725-1.188-2.553c1.789-5.633,6.219-24.332,6.215-25.707
		L327.115,106.859z"/>
	<rect x="24.966" y="135.982" fill="#FFFFFF" width="365" height="38.35"/>
	<path fill="none" stroke="#231F20" stroke-width="1.5" stroke-linecap="round" stroke-linejoin="round" stroke-miterlimit="10" d="
		M370.551,136.732H167.503c0,0-67.132,0.295-88.524,0c-21.396-0.293-49.023,0-49.023,0"/>
	<polygon fill="#231F20" stroke="#231F20" stroke-width="1.5" stroke-miterlimit="10" points="330.583,132.855 329.695,144.378 
		353.421,142.888 350.205,132.746 	"/>
	<path fill="none" stroke="#231F20" stroke-width="1.5" stroke-linecap="round" stroke-linejoin="round" stroke-miterlimit="10" d="
		M388.72,180.732H174.576c0,0-70.585,0.295-93.082,0c-22.494-0.293-51.229,0-51.229,0"/>
	<path fill="none" stroke="#231F20" stroke-width="1.5" stroke-linecap="round" stroke-linejoin="round" stroke-miterlimit="10" d="
		M388.72,175.732H174.576c0,0-70.585,0.295-93.082,0c-22.494-0.293-51.229,0-51.229,0"/>
	<g>
		
			<ellipse fill="none" stroke="#231F20" stroke-width="1.3" stroke-miterlimit="10" cx="248.37" cy="149.878" rx="50.18" ry="14.566"/>
		<path fill="#8B5E3C" d="M283.97,130.833c-24.164-7.816-72.325-1.739-73.895,0.144c-3.479,4.174-2.556,14.199,0.182,17.338
			c0.381,0.438,5.103,7.262,37.797,7.455c20.752,0.125,35.717-3.277,37.239-7.443c0.043-0.039,0.095-0.078,0.13-0.115
			C288.375,145.259,287.996,132.134,283.97,130.833z"/>
		<ellipse fill="#8B5E3C" stroke="#AA8B65" stroke-miterlimit="10" cx="247.562" cy="131.774" rx="37.242" ry="7.725"/>
	</g>
	<path fill="none" stroke="#231F20" stroke-width="2" stroke-linecap="round" stroke-linejoin="round" stroke-miterlimit="10" d="
		M298.039,55.023c12.764-12.117,24.28-0.961,24.28-0.961s2.141-5.096,5.088-6.121"/>
	<path fill="none" stroke="#231F20" stroke-width="2" stroke-linecap="round" stroke-linejoin="round" stroke-miterlimit="10" d="
		M293.537,53.369c14.446-9.795,28.782,0.693,28.782,0.693c2.771-2.279,5.079-1.535,6.87,0.092"/>
	<path fill="none" stroke="#231F20" stroke-width="1.5" stroke-linecap="round" stroke-linejoin="round" stroke-miterlimit="10" d="
		M29.931,98.732h204.074c0,0,67.276,0.295,88.721,0c21.441-0.293,48.841,0,48.841,0"/>
	<path fill="none" stroke="#231F20" stroke-width="1.5" stroke-linecap="round" stroke-linejoin="round" stroke-miterlimit="10" d="
		M371.142,106.732H167.49c0,0-67.274,0.295-88.72,0c-21.44-0.293-49.052,0-49.052,0"/>
	
		<line fill="none" stroke="#231F20" stroke-width="1.5" stroke-linecap="round" stroke-linejoin="round" stroke-miterlimit="10" x1="157.72" y1="11.732" x2="157.72" y2="98.732"/>
	
		<line fill="none" stroke="#231F20" stroke-width="1.5" stroke-linecap="round" stroke-linejoin="round" stroke-miterlimit="10" x1="290.72" y1="11.732" x2="290.72" y2="98.732"/>
	
		<line fill="none" stroke="#231F20" stroke-width="1.5" stroke-linecap="round" stroke-linejoin="round" stroke-miterlimit="10" x1="221.72" y1="11.732" x2="221.72" y2="98.732"/>
	
		<line fill="none" stroke="#231F20" stroke-width="1.5" stroke-linecap="round" stroke-linejoin="round" stroke-miterlimit="10" x1="226.72" y1="11.732" x2="226.72" y2="98.732"/>
	<rect x="209.72" y="40.732" fill="#231F20" width="3" height="19"/>
	<rect x="233.72" y="40.732" fill="#231F20" width="3" height="19"/>
	<path fill="none" stroke="#231F20" stroke-width="2" stroke-linecap="round" stroke-linejoin="round" stroke-miterlimit="10" d="
		M330.419,100.845"/>
	
		<ellipse transform="matrix(-0.9797 -0.2006 0.2006 -0.9797 643.3704 210.3572)" fill="#F9BF76" stroke="#231F20" stroke-width="1.5" stroke-linecap="round" stroke-linejoin="round" stroke-miterlimit="10" cx="332.343" cy="72.582" rx="4.98" ry="5.093"/>
	<path fill="#F9BF76" d="M297.881,86.505c1.099,1.996,2.55,4.084,6.354,6.543c6.104,3.941,23.778,0.881,27.664-10.584
		c2.521-7.434,0.783-18.58-6.342-25.818c-10.096-10.258-25.185-2.184-28.544,4.199C296.426,61.958,289.222,70.722,297.881,86.505z"
		/>
	<path fill="#231F20" d="M307.816,70.062c0.072,1.918-0.618,3.494-1.54,3.527c-0.919,0.035-1.724-1.486-1.795-3.406
		c-0.068-1.912,0.619-3.485,1.541-3.521C306.941,66.628,307.745,68.15,307.816,70.062z"/>
	<path fill="#231F20" d="M298.816,70.062c0.072,1.918-0.618,3.494-1.54,3.527c-0.919,0.035-1.724-1.486-1.795-3.406
		c-0.068-1.912,0.619-3.485,1.541-3.521C297.941,66.628,298.745,68.15,298.816,70.062z"/>
	<path fill="none" stroke="#231F20" stroke-width="1.5" stroke-linecap="round" stroke-linejoin="round" stroke-miterlimit="10" d="
		M305.641,88.398c8.854,2.744,14.798-1.282,16.682-3.336"/>
	
		<ellipse transform="matrix(-0.9797 -0.2005 0.2005 -0.9797 573.5236 222.3088)" fill="#F9BF76" cx="298.021" cy="82.108" rx="5.769" ry="4.509"/>
	<path fill="none" stroke="#231F20" stroke-width="1.5" stroke-linecap="round" stroke-linejoin="round" stroke-miterlimit="10" d="
		M300.233,75.697c0,0-8.104,1.049-8.174,5.389c-0.104,6.355,8.479,5.584,9.87,4.807"/>
	<path fill="none" stroke="#231F20" stroke-width="2" stroke-linecap="round" stroke-linejoin="round" stroke-miterlimit="10" d="
		M304.207,57.814c10.896-10.521,24.408-1.039,24.408-1.039"/>
	<path fill="none" stroke="#231F20" stroke-width="1.5" stroke-linecap="round" stroke-linejoin="round" stroke-miterlimit="10" d="
		M321.202,83.017c0,0,2.063,3.127,4.115,3.648"/>
	<path fill="none" stroke="#231F20" stroke-width="1.5" stroke-linecap="round" stroke-linejoin="round" stroke-miterlimit="10" d="
		M297.818,60.845c1.447-7.067,18.449-14.457,28.545-4.199c7.125,7.238,8.859,18.388,6.344,25.818
		c-3.889,11.465-21.563,14.525-27.665,10.584c-3.807-2.459-6.354-6.543-6.354-6.543"/>
	
		<path fill="#FFFFFF" stroke="#231F20" stroke-width="1.5" stroke-linecap="round" stroke-linejoin="round" stroke-miterlimit="10" d="
		M324.364,92.417c0.752,6.219-5.721,20.021-5.721,20.021s6.72,3.074,8.479,2.586c0.458-0.125,3.332-5.23,3.332-5.23
		s1.188,1.223,2.7,2.676c3.409,3.269-1.571,20.385-1.571,20.385s19.622,2.06,19.622-0.106c0.001-24.563-18.547-41.229-20.652-42.979
		C328.446,88.019,324.15,90.656,324.364,92.417z"/>
	<rect x="207.72" y="221.732" fill="#231F20" width="3" height="19"/>
	
		<line fill="none" stroke="#231F20" stroke-width="1.5" stroke-linecap="round" stroke-linejoin="round" stroke-miterlimit="10" x1="83.72" y1="11.732" x2="83.72" y2="98.732"/>
	
		<line fill="none" stroke="#231F20" stroke-width="1.5" stroke-linecap="round" stroke-linejoin="round" stroke-miterlimit="10" x1="88.72" y1="11.732" x2="88.72" y2="98.732"/>
	<rect x="71.72" y="40.732" fill="#231F20" width="3" height="19"/>
	<rect x="95.72" y="40.732" fill="#231F20" width="3" height="19"/>
	<g>
		<path fill="#8B5E3C" stroke="#231F20" stroke-width="1.5" stroke-miterlimit="10" d="M64.863,119.472
			c0,0-1.591,10.438,5.648,13.354c3.969,1.603,16.113,5.442,17.987,4.123c0,0,2.718-4.039,6.052-5.02
			c3.336-0.977,5.034,0.051,4.941,2.047c-0.059,1.242,0.811,0.049,1.523,1.492c0.714,1.441,0.026,2.527-0.236,2.924
			c-0.284,0.424,1.722,0.213,0.822,2.23c-1.249,2.809-6.494,3.214-9.925-0.641c-1.062-1.191-11.892-1.049-14.709-1.822
			c-6.806-1.863-14.042-6.789-14.818-11.57C61.531,122.771,64.863,119.472,64.863,119.472z"/>
		
			<ellipse fill="#8B5E3C" stroke="#231F20" stroke-width="1.5" stroke-miterlimit="10" cx="56.886" cy="91.216" rx="5.545" ry="5.033"/>
		
			<ellipse fill="#8B5E3C" stroke="#231F20" stroke-width="1.5" stroke-miterlimit="10" cx="77.979" cy="88.914" rx="18.684" ry="20.643"/>
		
			<path fill="#615375" stroke="#231F20" stroke-width="1.5" stroke-linecap="round" stroke-linejoin="round" stroke-miterlimit="10" d="
			M68.421,108.691l-1.386,17.154l-3.888-0.516l-0.854,18.825c0,0-12.262,0.922-14.276-0.98c-1.91-1.796,3.321-19.595,3.321-19.595
			l-2.279-1.135l14.499-18.029L68.421,108.691z"/>
		<path fill="none" stroke="#231F20" stroke-width="2" stroke-linecap="round" stroke-linejoin="round" stroke-miterlimit="10" d="
			M93.121,126.904"/>
		
			<path fill="none" stroke="#231F20" stroke-width="1.5" stroke-linecap="round" stroke-linejoin="round" stroke-miterlimit="10" d="
			M95.197,134.031c0,0-1.741,2.934,0.65,3.344c0.604,0.105,3.119-0.941,3.76-2.84"/>
		<path fill="#8B5E3C" stroke="#231F20" stroke-width="1.5" stroke-miterlimit="10" d="M96.453,137.855c0,0-1.111,2.375,0.604,2.664
			c0.604,0.104,2.791-0.66,3.808-2.16"/>
		
			<ellipse transform="matrix(0.9475 0.3199 -0.3199 0.9475 47.1707 -21.3703)" fill="#8B5E3C" stroke="#231F20" stroke-width="1.5" stroke-miterlimit="10" cx="88.643" cy="132.917" rx="2.705" ry="2.858"/>
		<path fill="#231F20" d="M89.843,83.41c0,1.41,0.675,2.559,1.51,2.559c0.836,0,1.513-1.147,1.513-2.559
			c0-1.412-0.677-2.553-1.513-2.553C90.518,80.857,89.843,81.998,89.843,83.41z"/>
		<path fill="#231F20" d="M77.843,83.41c0,1.41,0.675,2.559,1.51,2.559c0.836,0,1.513-1.147,1.513-2.559
			c0-1.412-0.677-2.553-1.513-2.553C78.518,80.857,77.843,81.998,77.843,83.41z"/>
		
			<line fill="none" stroke="#231F20" stroke-width="2" stroke-linecap="round" stroke-linejoin="round" stroke-miterlimit="10" x1="81.287" y1="78.164" x2="75.085" y2="77.943"/>
		
			<line fill="none" stroke="#231F20" stroke-width="2" stroke-linecap="round" stroke-linejoin="round" stroke-miterlimit="10" x1="95.399" y1="77.728" x2="89.227" y2="78.378"/>
		
			<path fill="none" stroke="#231F20" stroke-width="1.5" stroke-linecap="round" stroke-linejoin="round" stroke-miterlimit="10" d="
			M84.887,104.421c-6.59,3.354-14.313-2.393-14.521-6.83"/>
		
			<polyline fill="none" stroke="#231F20" stroke-width="2" stroke-linecap="round" stroke-linejoin="round" stroke-miterlimit="10" points="
			88.843,67.55 86.968,69.781 79.386,64.498 76.434,68.273 71.143,65.572 		"/>
		
			<polyline fill="none" stroke="#231F20" stroke-width="2" stroke-linecap="round" stroke-linejoin="round" stroke-miterlimit="10" points="
			67.72,66.732 67.72,70.671 61.345,71.474 62.256,74.695 56.448,81.851 		"/>
		<ellipse fill="#8B5E3C" cx="95.531" cy="93.924" rx="5.493" ry="4.306"/>
		
			<path fill="none" stroke="#231F20" stroke-width="1.5" stroke-linecap="round" stroke-linejoin="round" stroke-miterlimit="10" d="
			M90.036,89.292c0,0,10.96-2.295,10.987,4.799c0.025,6.348-10.016,4.123-10.987,4.123"/>
		
			<polyline fill="none" stroke="#231F20" stroke-width="1.5" stroke-linecap="round" stroke-linejoin="round" stroke-miterlimit="10" points="
			63.673,110.261 57.433,125.601 51.176,123.5 		"/>
	</g>
	<rect x="255.72" y="198.732" fill="#231F20" width="19" height="3"/>
	<rect x="255.72" y="228.732" fill="#231F20" width="19" height="3"/>
	<rect x="255.72" y="257.732" fill="#231F20" width="19" height="3"/>
	<rect x="320.72" y="221.732" fill="#231F20" width="3" height="19"/>
	
		<polygon fill="none" stroke="#231F20" stroke-width="1.5" stroke-linecap="round" stroke-linejoin="round" stroke-miterlimit="10" points="
		231.017,190.029 230.346,211.732 301.72,211.732 301.72,189.732 	"/>
	
		<polygon fill="none" stroke="#231F20" stroke-width="1.5" stroke-linecap="round" stroke-linejoin="round" stroke-miterlimit="10" points="
		315.017,189.958 314.346,271.732 385.72,271.732 385.72,189.732 	"/>
	
		<polygon fill="none" stroke="#231F20" stroke-width="1.5" stroke-linecap="round" stroke-linejoin="round" stroke-miterlimit="10" points="
		147.017,189.958 146.346,271.732 217.72,271.732 217.72,189.732 	"/>
	<rect x="75.72" y="221.732" fill="#231F20" width="3" height="19"/>
	<rect x="50.72" y="221.732" fill="#231F20" width="3" height="19"/>
	
		<polygon fill="none" stroke="#231F20" stroke-width="1.5" stroke-linecap="round" stroke-linejoin="round" stroke-miterlimit="10" points="
		139.048,189.958 139.719,271.732 68.345,271.732 68.345,189.732 	"/>
	
		<polyline fill="none" stroke="#231F20" stroke-width="1.5" stroke-linecap="round" stroke-linejoin="round" stroke-miterlimit="10" points="
		29.411,271.732 60.72,271.732 60.72,189.732 29.18,189.958 	"/>
	<path fill="none" stroke="#231F20" stroke-width="1.5" stroke-linecap="round" stroke-linejoin="round" stroke-miterlimit="10" d="
		M65.346,271.732"/>
	
		<polygon fill="none" stroke="#231F20" stroke-width="1.5" stroke-linecap="round" stroke-linejoin="round" stroke-miterlimit="10" points="
		231.017,248.029 230.346,269.732 301.72,269.732 301.72,247.732 	"/>
	
		<polygon fill="none" stroke="#231F20" stroke-width="1.5" stroke-linecap="round" stroke-linejoin="round" stroke-miterlimit="10" points="
		231.017,220.029 230.346,241.732 301.72,241.732 301.72,219.732 	"/>
	<g>
		<ellipse opacity="0.7" fill="#FFFFFF" enable-background="new    " cx="177.46" cy="136.99" rx="6.494" ry="1.461"/>
		<path fill="none" stroke="#231F20" stroke-width="1.2" stroke-miterlimit="10" d="M169.939,123.009c0,0,0.553,15.615,2.625,19.614
			c1.467,2.819,8.15,3.031,9.643,0.211c1.855-3.514,3.08-20.357,3.08-20.357"/>
		<path fill="none" stroke="#231F20" stroke-width="1.2" stroke-miterlimit="10" d="M169.939,122.626
			c0,1.184,2.773,2.143,7.64,2.143s7.708-0.959,7.708-2.143c0-1.182-2.842-2.143-7.708-2.143
			C172.713,120.484,169.939,121.445,169.939,122.626z"/>
		<path fill="none" stroke="#231F20" stroke-width="1.2" stroke-miterlimit="10" d="M171.109,131.685
			c0,1.017,2.38,1.836,6.549,1.836c4.171,0,6.604-0.819,6.604-1.836c0-1.012-2.438-1.834-6.604-1.834
			S171.109,130.673,171.109,131.685z"/>
	</g>
	<path fill="#DD9F5B" stroke="#231F20" stroke-width="1.5" stroke-miterlimit="10" d="M8.13,122.962"/>
	<g>
		<path fill="#58595B" stroke="#231F20" stroke-miterlimit="10" d="M71.217,100.371c1.014,2.418-0.245,3.625-2.664,4.641
			l-0.46,0.191c-2.42,1.014-5.086,1.451-6.102-0.969L54.843,87.17c-1.016-2.418,1.555-3.092,3.973-4.104l0.464-0.192
			c2.42-1.015,3.774-1.985,4.79,0.435L71.217,100.371z"/>
		
			<ellipse transform="matrix(0.9224 -0.3863 0.3863 0.9224 -29.1711 30.1985)" fill="#231F20" cx="60.546" cy="87.674" rx="1.106" ry="1.119"/>
	</g>
	<path fill="#8B5E3C" stroke="#231F20" stroke-width="1.5" stroke-miterlimit="10" d="M72.94,100.576
		c-0.512-3.271-3.696-0.787-3.771,0.777c-0.072,1.563-1.915,2.533-4.272,1.807c-2.354-0.727-3.595-7.66-4.685-9.082
		c-1.092-1.42-2.412-1.293-3.635,1.875c-1.223,3.166,7.955,10.863,8.111,11.516c0.158,0.65-5.264,9.92-8.394,16.461
		c-1.124,2.351-1.192,2.207-1.698,0.58l-4.734-1.547c-0.375,0.217,0.438,0.488,0.741,0.826c2.237,2.488,2.771,10.068,7.405,5.086
		c4.056-4.361,10.646-22.129,10.646-22.129S73.439,103.771,72.94,100.576z"/>
	<g>
		<path fill="#BCBEC0" stroke="#939598" stroke-linecap="round" stroke-linejoin="round" stroke-miterlimit="10" d="
			M257.192,152.238l41.358-13.911l-7.494-2.765c0,0-16.363,4.228-25.68,8.338C256.175,147.962,257.192,152.238,257.192,152.238z"/>
		<path fill="#8B5E3C" stroke="#754C29" stroke-linecap="round" stroke-linejoin="round" stroke-miterlimit="10" d="
			M300.339,137.275l13.534-5.645c0,0-2.993-3.303-3.517-3.059c-0.521,0.244-0.78,1.195-3.254,2.676
			c-2.472,1.48-2.73,2.115-6.768,2.748c-4.033,0.635-7.025,1.059-7.025,1.059L300.339,137.275z"/>
	</g>
	<g>
		
			<path fill="#F9BF76" stroke="#231F20" stroke-width="1.5" stroke-linecap="round" stroke-linejoin="round" stroke-miterlimit="10" d="
			M306.49,131.794c0,0-7.563-3.395-9.429-2.828c-2.465,0.75-2.319,2.359-1.248,3.107c1.07,0.744,2.914,0.957,4.701,1.557
			c1.788,0.598,2.271,2.994,0.916,3.619c-1.354,0.623-4.926,2.553-5.739,2.938c-0.813,0.388-3.396,2.455-1.699,3.547
			c1.692,1.09,6.609,0.293,6.609,0.293c0.226-0.389,0.898,1.82,3.615,0.023c2.716-1.793,5.119-5.634,3.896-9.367
			c-0.551-1.683,8.127-1.943,11.145-6.601c3.339-5.151,7.375-13.008,7.375-13.008l-5.82-1.712c0,0-5.021,14.442-6.73,15.203
			C312.37,129.322,306.49,131.794,306.49,131.794z"/>
		
			<path fill="none" stroke="#231F20" stroke-width="1.5" stroke-linecap="round" stroke-linejoin="round" stroke-miterlimit="10" d="
			M295.539,144.271c0,0,4.837,1.199,9.706-4.879"/>
	</g>
	
		<path fill="#8B5E3C" stroke="#AA8B65" stroke-width="1.5" stroke-linecap="round" stroke-linejoin="round" stroke-miterlimit="10" d="
		M239.347,148.173c22.902,3.184,47.845-9.365,47.845-9.365"/>
	<path fill="#8B5E3C" d="M254.011,146.904c1.284-2.863,15.102-7.188,15.102-7.188l14.452-3.629l3.14-0.756
		c0,0,0.861,2.205,0.487,2.813C284.946,141.789,253.441,148.173,254.011,146.904z"/>
</g>
</svg>
