<svg id="Camada_1" data-name="Camada 1" xmlns="http://www.w3.org/2000/svg" xmlns:xlink="http://www.w3.org/1999/xlink" viewBox="0 0 88.9 37.47"><defs><style>.cls-1,.cls-2{fill:none;}.cls-2{stroke:#000;stroke-miterlimit:10;stroke-width:0.4px;}.cls-3{clip-path:url(#clip-path);}.cls-4{fill:#e6164d;}.cls-5{fill:#95d4e9;opacity:0.3;}</style><clipPath id="clip-path"><polygon class="cls-1" points="31.84 11.37 19.07 3.99 6.3 11.37 6.3 26.11 19.07 33.48 31.84 26.11 44.6 33.48 57.37 26.11 70.13 33.48 82.9 26.11 82.9 11.37 70.13 3.99 57.37 11.37 44.6 3.99 31.84 11.37"/></clipPath></defs><polygon class="cls-2" points="31.84 11.37 19.07 3.99 6.3 11.37 6.3 26.11 19.07 33.48 31.84 26.11 44.6 33.48 57.37 26.11 70.13 33.48 82.9 26.11 82.9 11.37 70.13 3.99 57.37 11.37 44.6 3.99 31.84 11.37"/><g class="cls-3"><rect class="cls-4" x="4.33" y="3.99" width="14.74" height="29.48"/><rect class="cls-2" x="4.33" y="3.99" width="14.74" height="29.48"/><rect class="cls-5" x="19.07" y="3.99" width="73.7" height="29.48"/><rect class="cls-2" x="19.07" y="3.99" width="73.7" height="29.48"/></g></svg>