<svg id="Camada_1" data-name="Camada 1" xmlns="http://www.w3.org/2000/svg" viewBox="0 0 462.33 71.51"><defs><style>.cls-1{fill:none;stroke:#000;stroke-miterlimit:10;stroke-width:0.4px;}.cls-2{fill:#94d4e9;opacity:0.3;}</style></defs><line class="cls-1" x1="10.84" y1="6.8" x2="451.49" y2="6.8"/><line class="cls-1" x1="11.04" y1="24.43" x2="11.04" y2="7"/><path d="M24.63,10.55a.63.63,0,0,1,.16-.46.56.56,0,0,1,.43-.17h5c.33,0,.5.14.5.43v.08c0,.3-.17.45-.5.45H25.71v3.43h3.35c.34,0,.51.14.51.43v.07a.39.39,0,0,1-.13.33.56.56,0,0,1-.38.1H25.72v3.52a.48.48,0,0,1-.12.35.45.45,0,0,1-.35.13h-.16c-.31,0-.46-.18-.46-.54ZM34.77,12.2a1.18,1.18,0,0,1,.74.21.64.64,0,0,1,.28.54.75.75,0,0,1-.06.31.42.42,0,0,1-.15.19c-.06.05-.09.06-.1.05a1.12,1.12,0,0,0-.82-.28,1.33,1.33,0,0,0-1.23.74A4.41,4.41,0,0,0,33,16v2.72c0,.32-.14.48-.44.48h-.12a.42.42,0,0,1-.47-.48V12.41s0,0,.12-.07a.66.66,0,0,1,.25,0c.36,0,.56.23.61.69s0,.57,0,.74a2.1,2.1,0,0,1,.66-1.14,1.64,1.64,0,0,1,1.11-.39Zm1.6,5.24a1.77,1.77,0,0,1,1.12-1.69,9,9,0,0,1,3.57-.57h.16V14.9a1.81,1.81,0,0,0-.48-1.35,1.91,1.91,0,0,0-1.37-.46,2.39,2.39,0,0,0-1.3.33,2.15,2.15,0,0,0-.8.89.52.52,0,0,1-.19,0,.73.73,0,0,1-.3-.16.42.42,0,0,1-.14-.35.85.85,0,0,1,.11-.37,1.24,1.24,0,0,1,.31-.39,2.71,2.71,0,0,1,1-.59,4,4,0,0,1,1.39-.23,2.83,2.83,0,0,1,2.08.72,2.64,2.64,0,0,1,.73,2v4.23s0,.05-.12.07a.7.7,0,0,1-.25.05q-.53,0-.6-.66,0-.41,0-.63a2.52,2.52,0,0,1-1,1,3.06,3.06,0,0,1-1.52.37,2.61,2.61,0,0,1-1.7-.51,1.71,1.71,0,0,1-.62-1.39Zm4.85-1.58H41a8,8,0,0,0-2.73.4,1.2,1.2,0,0,0-.84,1.14,1,1,0,0,0,.4.84,1.72,1.72,0,0,0,1.09.32,2.59,2.59,0,0,0,1.18-.27,2.32,2.32,0,0,0,.84-.74,1.89,1.89,0,0,0,.31-1Zm5.42,6.5a1.67,1.67,0,0,1-.73-.15,1.29,1.29,0,0,1-.49-.38.68.68,0,0,1-.17-.43.39.39,0,0,1,.36-.45,1.16,1.16,0,0,0,.93.56.93.93,0,0,0,.61-.19.68.68,0,0,0,.23-.58,1.29,1.29,0,0,0-.41-.87,2.67,2.67,0,0,0-.9-.64A3.07,3.07,0,0,1,44.26,18,4,4,0,0,1,44,13.93a3.2,3.2,0,0,1,1.23-1.27A3.45,3.45,0,0,1,47,12.2a3.58,3.58,0,0,1,1.32.23,2.9,2.9,0,0,1,1,.6,2.08,2.08,0,0,1,.42.54,1.19,1.19,0,0,1,.14.49.42.42,0,0,1-.14.33.81.81,0,0,1-.32.16c-.11,0-.18,0-.2,0a2.12,2.12,0,0,0-2.17-1.46,2.31,2.31,0,0,0-2.13,1.3,2.91,2.91,0,0,0-.32,1.37,3.09,3.09,0,0,0,.31,1.4,2.34,2.34,0,0,0,2.14,1.31,2.27,2.27,0,0,0,1.39-.4A2.39,2.39,0,0,0,49.22,17s.08,0,.19,0a.73.73,0,0,1,.33.16.47.47,0,0,1,.14.35,1,1,0,0,1-.14.46,2.25,2.25,0,0,1-.39.53,2.88,2.88,0,0,1-1.59.8,3.08,3.08,0,0,1-.53,0,2.56,2.56,0,0,1,.71.72,1.6,1.6,0,0,1,.29.93,1.19,1.19,0,0,1-.47,1,1.87,1.87,0,0,1-1.12.35Zm4.16-4.92a1.76,1.76,0,0,1,1.13-1.69,9,9,0,0,1,3.56-.57h.16V14.9a1.81,1.81,0,0,0-.48-1.35,1.89,1.89,0,0,0-1.37-.46,2.39,2.39,0,0,0-1.3.33,2.15,2.15,0,0,0-.8.89.52.52,0,0,1-.19,0,.73.73,0,0,1-.3-.16.45.45,0,0,1-.14-.35.85.85,0,0,1,.11-.37,1.24,1.24,0,0,1,.31-.39,2.8,2.8,0,0,1,1-.59,4,4,0,0,1,1.4-.23,2.86,2.86,0,0,1,2.08.72,2.67,2.67,0,0,1,.73,2v4.23s0,.05-.13.07a.7.7,0,0,1-.25.05q-.52,0-.6-.66,0-.41,0-.63a2.52,2.52,0,0,1-1,1,3.06,3.06,0,0,1-1.52.37,2.63,2.63,0,0,1-1.7-.51,1.74,1.74,0,0,1-.62-1.39Zm4.85-1.58H55.4a8,8,0,0,0-2.73.4,1.2,1.2,0,0,0-.84,1.14,1,1,0,0,0,.4.84,1.74,1.74,0,0,0,1.09.32,2.56,2.56,0,0,0,1.18-.27,2.32,2.32,0,0,0,.84-.74,1.82,1.82,0,0,0,.31-1Zm-3.42-4.78A.51.51,0,0,1,51.9,11a1.25,1.25,0,0,1,0-.36,1.66,1.66,0,0,1,.35-.89A.94.94,0,0,1,53,9.34a1.14,1.14,0,0,1,.52.13,3.46,3.46,0,0,1,.51.36,3.77,3.77,0,0,0,.77.6.44.44,0,0,0,.22-.19,2.3,2.3,0,0,0,.17-.35,2.15,2.15,0,0,1,.18-.35.27.27,0,0,1,.22-.11.42.42,0,0,1,.32.12,1,1,0,0,1,.06.38,1.56,1.56,0,0,1-.36.88.92.92,0,0,1-.75.34,1.11,1.11,0,0,1-.52-.12,2.74,2.74,0,0,1-.51-.35l-.35-.3a1.83,1.83,0,0,0-.41-.3.43.43,0,0,0-.2.18,2.69,2.69,0,0,0-.18.35,1.85,1.85,0,0,1-.2.36.27.27,0,0,1-.23.11ZM58,15.77a3.71,3.71,0,0,1,.44-1.84,3.27,3.27,0,0,1,1.23-1.27,3.51,3.51,0,0,1,1.81-.46,3.43,3.43,0,0,1,1.79.46,3.14,3.14,0,0,1,1.22,1.28A3.82,3.82,0,0,1,65,15.8a3.7,3.7,0,0,1-.45,1.83,3.2,3.2,0,0,1-1.23,1.27,3.56,3.56,0,0,1-1.79.46,3.6,3.6,0,0,1-1.8-.46,3.18,3.18,0,0,1-1.24-1.28A3.86,3.86,0,0,1,58,15.77Zm5.93,0a3.06,3.06,0,0,0-.31-1.4,2.36,2.36,0,0,0-.88-1,2.26,2.26,0,0,0-1.26-.36,2.4,2.4,0,0,0-1.27.35,2.43,2.43,0,0,0-.89,1,3.18,3.18,0,0,0,0,2.78,2.46,2.46,0,0,0,.89,1,2.39,2.39,0,0,0,3.41-.95A2.92,2.92,0,0,0,64,15.8Zm7.59,3.56a3,3,0,0,1-1.62-.45,3.14,3.14,0,0,1-1.12-1.27,4,4,0,0,1-.41-1.87,4,4,0,0,1,.41-1.86,3.07,3.07,0,0,1,1.13-1.26,3,3,0,0,1,1.64-.45,2.94,2.94,0,0,1,1.51.37,2.5,2.5,0,0,1,1,.95v-4s0,0,.11-.08a.9.9,0,0,1,.25,0c.45,0,.67.3.67.91v8.43c0,.32-.15.48-.46.48h-.1c-.29,0-.44-.15-.44-.46s0-.48,0-.89A2.84,2.84,0,0,1,73,19a2.75,2.75,0,0,1-1.5.39ZM74,14.71a2.55,2.55,0,0,0-.87-1.21,2.38,2.38,0,0,0-1.43-.43,2.1,2.1,0,0,0-1.67.75,2.89,2.89,0,0,0-.65,1.95,3.32,3.32,0,0,0,.29,1.41,2.36,2.36,0,0,0,.83,1,2.12,2.12,0,0,0,1.19.34,2.4,2.4,0,0,0,1.16-.29,2.23,2.23,0,0,0,.84-.8A2.13,2.13,0,0,0,74,16.24Zm2.44,2.73a1.76,1.76,0,0,1,1.13-1.69,9,9,0,0,1,3.56-.57h.16V14.9a1.81,1.81,0,0,0-.48-1.35,1.89,1.89,0,0,0-1.37-.46,2.39,2.39,0,0,0-1.3.33,2.15,2.15,0,0,0-.8.89.52.52,0,0,1-.19,0,.73.73,0,0,1-.3-.16.45.45,0,0,1-.14-.35.85.85,0,0,1,.11-.37,1.24,1.24,0,0,1,.31-.39,2.8,2.8,0,0,1,1-.59,4,4,0,0,1,1.39-.23,2.83,2.83,0,0,1,2.08.72,2.64,2.64,0,0,1,.74,2v4.23s0,.05-.13.07a.7.7,0,0,1-.25.05q-.52,0-.6-.66,0-.41,0-.63a2.52,2.52,0,0,1-1,1,3.06,3.06,0,0,1-1.52.37,2.63,2.63,0,0,1-1.7-.51,1.74,1.74,0,0,1-.62-1.39Zm4.85-1.58h-.25a8,8,0,0,0-2.73.4,1.2,1.2,0,0,0-.84,1.14,1,1,0,0,0,.4.84,1.72,1.72,0,0,0,1.09.32,2.56,2.56,0,0,0,1.18-.27,2.32,2.32,0,0,0,.84-.74,1.82,1.82,0,0,0,.31-1ZM92,12.3c.31,0,.46.16.46.49v6.35s0,.05-.12.07a.7.7,0,0,1-.25.05c-.35,0-.55-.23-.6-.68,0-.25,0-.43,0-.56a2.81,2.81,0,0,1-1,1,2.55,2.55,0,0,1-1.38.37,2.39,2.39,0,0,1-2-.81,3.3,3.3,0,0,1-.67-2.18V12.79c0-.33.15-.49.46-.49h.12c.3,0,.45.16.45.49V16.3A2.34,2.34,0,0,0,88,17.87a1.63,1.63,0,0,0,1.33.57,2.2,2.2,0,0,0,1.27-.37,2.34,2.34,0,0,0,.84-1V12.79c0-.33.15-.49.45-.49Zm5.66-.1a2.43,2.43,0,0,1,2,.8,3.33,3.33,0,0,1,.66,2.17v3.59c0,.32-.15.48-.44.48h-.13c-.31,0-.46-.16-.46-.48V15.25a2.43,2.43,0,0,0-.47-1.57,1.63,1.63,0,0,0-1.32-.56,2.25,2.25,0,0,0-1.29.37,2.35,2.35,0,0,0-.84,1v4.27c0,.32-.15.48-.44.48H94.8c-.31,0-.46-.16-.46-.48V12.41s0,0,.12-.07a.73.73,0,0,1,.25,0c.4,0,.62.29.63.86v.4a2.74,2.74,0,0,1,1-1,2.64,2.64,0,0,1,1.39-.36Zm4.34-2a.61.61,0,0,1,.66-.65.64.64,0,0,1,.49.17.61.61,0,0,1,.17.48.63.63,0,0,1-.18.49.69.69,0,0,1-.49.16.64.64,0,0,1-.47-.16.63.63,0,0,1-.18-.49Zm.13,2.6c0-.33.16-.5.46-.5h.12c.3,0,.46.17.46.5v6a.42.42,0,0,1-.46.48h-.12a.42.42,0,0,1-.46-.48Zm5.67,6.56a3,3,0,0,1-1.62-.45,3.24,3.24,0,0,1-1.13-1.27,4.45,4.45,0,0,1,0-3.73,3.1,3.1,0,0,1,1.14-1.26,3,3,0,0,1,1.64-.45,3,3,0,0,1,1.51.37,2.5,2.5,0,0,1,1,.95v-4s0,0,.1-.08a1,1,0,0,1,.25,0c.45,0,.68.3.68.91v8.43c0,.32-.15.48-.46.48h-.1a.4.4,0,0,1-.45-.46c0-.19,0-.48,0-.89a2.92,2.92,0,0,1-1,1.08,2.79,2.79,0,0,1-1.5.39Zm2.5-4.65a2.62,2.62,0,0,0-.87-1.21,2.38,2.38,0,0,0-1.43-.43,2.11,2.11,0,0,0-1.68.75,2.88,2.88,0,0,0-.64,1.95,3.17,3.17,0,0,0,.29,1.41,2.29,2.29,0,0,0,.83,1,2.12,2.12,0,0,0,1.19.34,2.43,2.43,0,0,0,1.16-.29,2.39,2.39,0,0,0,.84-.8,2.22,2.22,0,0,0,.31-1.15Zm2.44,2.73a1.77,1.77,0,0,1,1.12-1.69,9,9,0,0,1,3.57-.57h.15V14.9a1.81,1.81,0,0,0-.48-1.35,1.88,1.88,0,0,0-1.37-.46,2.35,2.35,0,0,0-1.29.33,2.15,2.15,0,0,0-.8.89.51.51,0,0,1-.19,0,.77.77,0,0,1-.31-.16.45.45,0,0,1-.13-.35.73.73,0,0,1,.11-.37,1.36,1.36,0,0,1,.3-.39,2.84,2.84,0,0,1,1-.59,3.93,3.93,0,0,1,1.39-.23,2.84,2.84,0,0,1,2.08.72,2.64,2.64,0,0,1,.73,2v4.23s0,.05-.12.07a.7.7,0,0,1-.25.05c-.35,0-.56-.22-.6-.66q0-.41,0-.63a2.52,2.52,0,0,1-1,1,3.08,3.08,0,0,1-1.52.37,2.61,2.61,0,0,1-1.7-.51,1.71,1.71,0,0,1-.62-1.39Zm4.84-1.58h-.24a8,8,0,0,0-2.73.4,1.2,1.2,0,0,0-.84,1.14,1,1,0,0,0,.4.84,1.72,1.72,0,0,0,1.09.32,2.59,2.59,0,0,0,1.18-.27,2.32,2.32,0,0,0,.84-.74,1.89,1.89,0,0,0,.3-1Zm5.53,3.5a3,3,0,0,1-1.62-.45,3.17,3.17,0,0,1-1.13-1.27,4.45,4.45,0,0,1,0-3.73,3,3,0,0,1,2.78-1.71,2.93,2.93,0,0,1,1.5.37,2.5,2.5,0,0,1,1,.95v-4s0,0,.11-.08a1,1,0,0,1,.25,0c.45,0,.68.3.68.91v8.43a.42.42,0,0,1-.46.48h-.1a.4.4,0,0,1-.45-.46c0-.19,0-.48,0-.89a3,3,0,0,1-1,1.08,2.79,2.79,0,0,1-1.5.39Zm2.49-4.65a2.6,2.6,0,0,0-.86-1.21,2.4,2.4,0,0,0-1.43-.43,2.11,2.11,0,0,0-1.68.75,2.89,2.89,0,0,0-.65,1.95,3.18,3.18,0,0,0,.3,1.41,2.27,2.27,0,0,0,.82,1,2.15,2.15,0,0,0,1.19.34,2.47,2.47,0,0,0,1.17-.29,2.39,2.39,0,0,0,.84-.8,2.22,2.22,0,0,0,.3-1.15Zm2.44,1.1a3.92,3.92,0,0,1,.44-1.85,3.39,3.39,0,0,1,4.61-1.34,2.86,2.86,0,0,1,1.09,1.19,3.77,3.77,0,0,1,.39,1.76v.1a.35.35,0,0,1-.08.26.39.39,0,0,1-.28.07h-5.18a1,1,0,0,0,0,.2,2.46,2.46,0,0,0,.78,1.67,2.41,2.41,0,0,0,1.71.63,2.5,2.5,0,0,0,1.4-.35,2.38,2.38,0,0,0,.83-.92l.19,0a.59.59,0,0,1,.27.18.48.48,0,0,1,.12.33.81.81,0,0,1-.13.4,1.86,1.86,0,0,1-.41.45,2.94,2.94,0,0,1-.95.52,3.91,3.91,0,0,1-1.33.21,3.59,3.59,0,0,1-1.82-.45,3,3,0,0,1-1.23-1.25,3.86,3.86,0,0,1-.44-1.85Zm5.51-.56a2.41,2.41,0,0,0-.62-1.61,2,2,0,0,0-1.5-.61,2.21,2.21,0,0,0-1.58.62,2.68,2.68,0,0,0-.79,1.6Z"/><line class="cls-1" x1="147.63" y1="24.43" x2="147.63" y2="7"/><path d="M155.29,19.24c-.29,0-.43-.16-.43-.48V10.52a.73.73,0,0,1,.13-.47.47.47,0,0,1,.4-.17h.2a.65.65,0,0,1,.38.1,1.39,1.39,0,0,1,.31.35l5,7.16V10.36a.49.49,0,0,1,.11-.36.42.42,0,0,1,.33-.12h.13q.45,0,.45.48v8.25a.72.72,0,0,1-.14.46.44.44,0,0,1-.38.17h-.09a.63.63,0,0,1-.35-.07.84.84,0,0,1-.26-.29l-5.24-7.44v7.32c0,.32-.15.48-.44.48Zm8.56-3.47a3.72,3.72,0,0,1,.45-1.84,3.13,3.13,0,0,1,1.23-1.27,3.51,3.51,0,0,1,1.81-.46,3.4,3.4,0,0,1,1.78.46,3.16,3.16,0,0,1,1.23,1.28,3.82,3.82,0,0,1,.45,1.86,3.7,3.7,0,0,1-.45,1.83,3.34,3.34,0,0,1-1.23,1.27,3.75,3.75,0,0,1-3.6,0,3.16,3.16,0,0,1-1.23-1.28,3.86,3.86,0,0,1-.44-1.85Zm5.94,0a3.06,3.06,0,0,0-.31-1.4,2.51,2.51,0,0,0-.88-1,2.26,2.26,0,0,0-1.26-.36,2.4,2.4,0,0,0-1.27.35,2.36,2.36,0,0,0-.89,1,3.18,3.18,0,0,0,0,2.78,2.39,2.39,0,0,0,.89,1,2.49,2.49,0,0,0,2.53,0,2.48,2.48,0,0,0,.88-1,2.92,2.92,0,0,0,.31-1.38Zm10.26-3.6a2.36,2.36,0,0,1,1.89.75,3.17,3.17,0,0,1,.65,2.13v3.68a.42.42,0,0,1-.46.48H182a.42.42,0,0,1-.46-.48V15.17a2.33,2.33,0,0,0-.43-1.52,1.55,1.55,0,0,0-1.29-.53,2,2,0,0,0-1.14.36,2.12,2.12,0,0,0-.76,1v4.28a.42.42,0,0,1-.46.48h-.12a.42.42,0,0,1-.46-.48V15.08a2.11,2.11,0,0,0-.44-1.45,1.59,1.59,0,0,0-1.28-.51,2,2,0,0,0-1.13.36,2.39,2.39,0,0,0-.79,1v4.28q0,.48-.45.48h-.13q-.45,0-.45-.48V12.41s0,0,.12-.07a.69.69,0,0,1,.25,0c.4,0,.61.28.63.85v.34a2.82,2.82,0,0,1,.91-.94,2.39,2.39,0,0,1,1.26-.35,2.46,2.46,0,0,1,1.43.4,2.28,2.28,0,0,1,.84,1.12,2.66,2.66,0,0,1,.94-1.1,2.49,2.49,0,0,1,1.44-.42Zm3.89,3.61a3.91,3.91,0,0,1,.43-1.85,3.34,3.34,0,0,1,1.21-1.29,3.47,3.47,0,0,1,3.4-.05,2.88,2.88,0,0,1,1.1,1.19,3.9,3.9,0,0,1,.38,1.76v.1a.31.31,0,0,1-.08.26.38.38,0,0,1-.27.07h-5.18a1.09,1.09,0,0,0,0,.2,2.55,2.55,0,0,0,.78,1.67,2.45,2.45,0,0,0,1.72.63,2.52,2.52,0,0,0,1.4-.35,2.44,2.44,0,0,0,.82-.92l.19,0a.61.61,0,0,1,.28.18.48.48,0,0,1,.12.33.84.84,0,0,1-.14.4,1.86,1.86,0,0,1-.41.45,2.89,2.89,0,0,1-.94.52,4,4,0,0,1-1.34.21,3.61,3.61,0,0,1-1.82-.45,3.08,3.08,0,0,1-1.23-1.25,3.86,3.86,0,0,1-.43-1.85Zm5.51-.56a2.46,2.46,0,0,0-.62-1.61,2,2,0,0,0-1.51-.61,2.21,2.21,0,0,0-1.58.62,2.68,2.68,0,0,0-.79,1.6ZM197,19.36a3,3,0,0,1-1.62-.45,3.14,3.14,0,0,1-1.12-1.27,4,4,0,0,1-.41-1.87,4,4,0,0,1,.41-1.86,3.07,3.07,0,0,1,1.13-1.26,3,3,0,0,1,1.64-.45,2.94,2.94,0,0,1,1.51.37,2.5,2.5,0,0,1,1,.95v-4s0,0,.11-.08a.9.9,0,0,1,.25,0c.45,0,.67.3.67.91v8.43c0,.32-.15.48-.46.48H200c-.29,0-.44-.15-.44-.46s0-.48,0-.89a3,3,0,0,1-1,1.08,2.75,2.75,0,0,1-1.5.39Zm2.5-4.65a2.55,2.55,0,0,0-.87-1.21,2.35,2.35,0,0,0-1.42-.43,2.11,2.11,0,0,0-1.68.75,2.89,2.89,0,0,0-.65,1.95,3.18,3.18,0,0,0,.3,1.41,2.27,2.27,0,0,0,.82,1,2.12,2.12,0,0,0,1.19.34,2.4,2.4,0,0,0,1.16-.29,2.23,2.23,0,0,0,.84-.8,2.13,2.13,0,0,0,.31-1.15ZM202,17.44a1.76,1.76,0,0,1,1.13-1.69,9,9,0,0,1,3.56-.57h.16V14.9a1.81,1.81,0,0,0-.48-1.35,1.89,1.89,0,0,0-1.37-.46,2.39,2.39,0,0,0-1.3.33,2.15,2.15,0,0,0-.8.89.52.52,0,0,1-.19,0,.73.73,0,0,1-.3-.16.45.45,0,0,1-.14-.35.85.85,0,0,1,.11-.37,1.24,1.24,0,0,1,.31-.39,2.8,2.8,0,0,1,1-.59,4,4,0,0,1,1.4-.23,2.86,2.86,0,0,1,2.08.72,2.67,2.67,0,0,1,.73,2v4.23s0,.05-.12.07a.8.8,0,0,1-.26.05q-.53,0-.6-.66,0-.41,0-.63a2.52,2.52,0,0,1-1,1,3.06,3.06,0,0,1-1.52.37,2.63,2.63,0,0,1-1.7-.51,1.74,1.74,0,0,1-.62-1.39Zm4.85-1.58h-.25a8,8,0,0,0-2.73.4,1.2,1.2,0,0,0-.84,1.14,1,1,0,0,0,.4.84,1.74,1.74,0,0,0,1.09.32,2.56,2.56,0,0,0,1.18-.27,2.32,2.32,0,0,0,.84-.74,1.82,1.82,0,0,0,.31-1Zm5.87-2.63h-1a.47.47,0,0,1-.35-.1.4.4,0,0,1-.1-.3v-.09a.37.37,0,0,1,.1-.29.53.53,0,0,1,.35-.09h1v-.69a2.68,2.68,0,0,1,.51-1.78,1.86,1.86,0,0,1,1.48-.6,1.69,1.69,0,0,1,1.16.34.59.59,0,0,1,.23.49.51.51,0,0,1-.06.25.34.34,0,0,1-.12.16s-.07.06-.08.05a1.26,1.26,0,0,0-.44-.3,1.52,1.52,0,0,0-.59-.12,1,1,0,0,0-.83.38,2.15,2.15,0,0,0-.27,1.21v.61H215c.3,0,.46.13.46.38v.09c0,.27-.16.4-.46.4h-1.3v5.53c0,.32-.14.48-.44.48h-.11c-.31,0-.46-.16-.46-.48Zm6.8-1a1.22,1.22,0,0,1,.74.21.65.65,0,0,1,.27.54.75.75,0,0,1-.06.31.42.42,0,0,1-.15.19c-.06.05-.09.06-.1.05a1.1,1.1,0,0,0-.82-.28,1.34,1.34,0,0,0-1.23.74,4.42,4.42,0,0,0-.4,2.08v2.72q0,.48-.45.48h-.11a.42.42,0,0,1-.48-.48V12.41s0,0,.12-.07a.68.68,0,0,1,.26,0q.53,0,.6.69c0,.32,0,.57,0,.74a2.1,2.1,0,0,1,.66-1.14,1.66,1.66,0,0,1,1.12-.39Zm1.6,5.24a1.78,1.78,0,0,1,1.13-1.69,9,9,0,0,1,3.56-.57h.16V14.9a1.81,1.81,0,0,0-.48-1.35,1.89,1.89,0,0,0-1.37-.46,2.39,2.39,0,0,0-1.3.33,2.12,2.12,0,0,0-.79.89.57.57,0,0,1-.2,0,.73.73,0,0,1-.3-.16.45.45,0,0,1-.13-.35.82.82,0,0,1,.1-.37,1.4,1.4,0,0,1,.31-.39,2.84,2.84,0,0,1,1-.59,3.93,3.93,0,0,1,1.39-.23,2.84,2.84,0,0,1,2.08.72,2.64,2.64,0,0,1,.73,2v4.23s0,.05-.12.07a.74.74,0,0,1-.25.05q-.54,0-.6-.66,0-.41,0-.63a2.52,2.52,0,0,1-1,1,3.08,3.08,0,0,1-1.52.37,2.59,2.59,0,0,1-1.7-.51,1.71,1.71,0,0,1-.63-1.39Zm4.85-1.58h-.24a8,8,0,0,0-2.73.4,1.2,1.2,0,0,0-.84,1.14,1,1,0,0,0,.4.84,1.72,1.72,0,0,0,1.09.32,2.52,2.52,0,0,0,1.17-.27,2.17,2.17,0,0,0,.84-.74,1.82,1.82,0,0,0,.31-1Zm5.43,6.5a1.72,1.72,0,0,1-.74-.15,1.25,1.25,0,0,1-.48-.38.69.69,0,0,1-.18-.43.39.39,0,0,1,.36-.45,1.18,1.18,0,0,0,.93.56.91.91,0,0,0,.61-.19.69.69,0,0,0,.24-.58,1.31,1.31,0,0,0-.42-.87,2.49,2.49,0,0,0-.9-.64A3.1,3.1,0,0,1,229,18a3.71,3.71,0,0,1-.67-2.24,3.81,3.81,0,0,1,.44-1.83A3.22,3.22,0,0,1,230,12.66a3.42,3.42,0,0,1,1.78-.46,3.65,3.65,0,0,1,1.32.23,2.9,2.9,0,0,1,1,.6,1.84,1.84,0,0,1,.41.54,1.08,1.08,0,0,1,.15.49.4.4,0,0,1-.15.33.77.77,0,0,1-.31.16c-.12,0-.18,0-.2,0a2.14,2.14,0,0,0-2.17-1.46,2.33,2.33,0,0,0-1.26.34,2.4,2.4,0,0,0-.88,1,2.91,2.91,0,0,0-.31,1.37,3.09,3.09,0,0,0,.31,1.4,2.29,2.29,0,0,0,.86,1,2.41,2.41,0,0,0,1.28.35,2.29,2.29,0,0,0,1.39-.4A2.47,2.47,0,0,0,234,17s.07,0,.19,0a.65.65,0,0,1,.32.16.44.44,0,0,1,.15.35,1.16,1.16,0,0,1-.14.46,2.25,2.25,0,0,1-.39.53,2.91,2.91,0,0,1-1.6.8,3.08,3.08,0,0,1-.53,0,2.47,2.47,0,0,1,.72.72A1.67,1.67,0,0,1,233,21a1.18,1.18,0,0,1-.48,1,1.81,1.81,0,0,1-1.11.35Zm4.16-4.92a1.77,1.77,0,0,1,1.12-1.69,9,9,0,0,1,3.57-.57h.15V14.9a1.81,1.81,0,0,0-.48-1.35,1.88,1.88,0,0,0-1.37-.46,2.35,2.35,0,0,0-1.29.33,2.15,2.15,0,0,0-.8.89.52.52,0,0,1-.19,0,.84.84,0,0,1-.31-.16.45.45,0,0,1-.13-.35.73.73,0,0,1,.11-.37,1.36,1.36,0,0,1,.3-.39,2.84,2.84,0,0,1,1-.59,4,4,0,0,1,1.39-.23,2.84,2.84,0,0,1,2.08.72,2.64,2.64,0,0,1,.73,2v4.23s0,.05-.12.07a.7.7,0,0,1-.25.05q-.53,0-.6-.66,0-.41,0-.63a2.52,2.52,0,0,1-1,1,3.08,3.08,0,0,1-1.52.37,2.61,2.61,0,0,1-1.7-.51,1.71,1.71,0,0,1-.62-1.39Zm4.84-1.58h-.24a8,8,0,0,0-2.73.4,1.2,1.2,0,0,0-.84,1.14,1,1,0,0,0,.4.84,1.72,1.72,0,0,0,1.09.32,2.59,2.59,0,0,0,1.18-.27,2.32,2.32,0,0,0,.84-.74,1.89,1.89,0,0,0,.3-1ZM237,11.08a.51.51,0,0,1-.33-.13,1,1,0,0,1,0-.36,1.58,1.58,0,0,1,.35-.89.92.92,0,0,1,.75-.36,1.19,1.19,0,0,1,.53.13,4,4,0,0,1,.5.36,4.05,4.05,0,0,0,.78.6.39.39,0,0,0,.21-.19,2.25,2.25,0,0,0,.18-.35,1.23,1.23,0,0,1,.18-.35.25.25,0,0,1,.22-.11.4.4,0,0,1,.31.12,1,1,0,0,1,.06.38,1.55,1.55,0,0,1-.35.88,1,1,0,0,1-.75.34A1.18,1.18,0,0,1,239,11a3.61,3.61,0,0,1-.51-.35l-.34-.3a1.66,1.66,0,0,0-.42-.3.41.41,0,0,0-.19.18,2.69,2.69,0,0,0-.18.35,2.59,2.59,0,0,1-.2.36.28.28,0,0,1-.23.11Zm5.78,4.69a3.72,3.72,0,0,1,.45-1.84,3.13,3.13,0,0,1,1.23-1.27,3.51,3.51,0,0,1,1.81-.46,3.4,3.4,0,0,1,1.78.46,3.16,3.16,0,0,1,1.23,1.28,3.82,3.82,0,0,1,.45,1.86,3.7,3.7,0,0,1-.45,1.83A3.34,3.34,0,0,1,248,18.9a3.75,3.75,0,0,1-3.6,0,3.16,3.16,0,0,1-1.23-1.28,3.86,3.86,0,0,1-.44-1.85Zm5.94,0a3.06,3.06,0,0,0-.31-1.4,2.51,2.51,0,0,0-.88-1,2.26,2.26,0,0,0-1.26-.36,2.4,2.4,0,0,0-1.27.35,2.36,2.36,0,0,0-.89,1,3.18,3.18,0,0,0,0,2.78,2.39,2.39,0,0,0,.89,1,2.49,2.49,0,0,0,2.53,0,2.48,2.48,0,0,0,.88-1,2.92,2.92,0,0,0,.31-1.38Zm7.59,3.56a3,3,0,0,1-1.62-.45,3.24,3.24,0,0,1-1.13-1.27,4.45,4.45,0,0,1,0-3.73,3.1,3.1,0,0,1,1.14-1.26,3,3,0,0,1,1.64-.45,3,3,0,0,1,1.51.37,2.5,2.5,0,0,1,1,.95v-4s0,0,.1-.08a1,1,0,0,1,.25,0c.45,0,.68.3.68.91v8.43c0,.32-.15.48-.46.48h-.1c-.3,0-.44-.15-.44-.46s0-.48,0-.89a2.92,2.92,0,0,1-1,1.08,2.79,2.79,0,0,1-1.5.39Zm2.5-4.65a2.62,2.62,0,0,0-.87-1.21,2.38,2.38,0,0,0-1.43-.43,2.11,2.11,0,0,0-1.68.75,2.88,2.88,0,0,0-.64,1.95,3.17,3.17,0,0,0,.29,1.41,2.29,2.29,0,0,0,.83,1,2.12,2.12,0,0,0,1.19.34,2.43,2.43,0,0,0,1.16-.29,2.39,2.39,0,0,0,.84-.8,2.22,2.22,0,0,0,.31-1.15Zm2.44,2.73a1.77,1.77,0,0,1,1.12-1.69,9,9,0,0,1,3.57-.57h.15V14.9a1.81,1.81,0,0,0-.48-1.35,1.88,1.88,0,0,0-1.37-.46,2.35,2.35,0,0,0-1.29.33,2.15,2.15,0,0,0-.8.89.52.52,0,0,1-.19,0,.77.77,0,0,1-.31-.16.45.45,0,0,1-.13-.35.73.73,0,0,1,.11-.37,1.36,1.36,0,0,1,.3-.39,2.84,2.84,0,0,1,1-.59,3.93,3.93,0,0,1,1.39-.23,2.84,2.84,0,0,1,2.08.72,2.64,2.64,0,0,1,.73,2v4.23s0,.05-.12.07a.7.7,0,0,1-.25.05c-.35,0-.56-.22-.6-.66q0-.41,0-.63a2.52,2.52,0,0,1-1,1,3.08,3.08,0,0,1-1.52.37,2.61,2.61,0,0,1-1.7-.51,1.71,1.71,0,0,1-.62-1.39Zm4.84-1.58h-.24a8,8,0,0,0-2.73.4,1.2,1.2,0,0,0-.84,1.14,1,1,0,0,0,.4.84,1.72,1.72,0,0,0,1.09.32,2.59,2.59,0,0,0,1.18-.27,2.32,2.32,0,0,0,.84-.74,1.89,1.89,0,0,0,.3-1Zm10.72-3.56c.31,0,.46.16.46.49v6.35s0,.05-.12.07a.74.74,0,0,1-.25.05c-.36,0-.56-.23-.61-.68,0-.25,0-.43,0-.56a2.9,2.9,0,0,1-1,1,2.56,2.56,0,0,1-1.39.37,2.4,2.4,0,0,1-2-.81,3.36,3.36,0,0,1-.66-2.18V12.79c0-.33.15-.49.46-.49h.11c.31,0,.46.16.46.49V16.3a2.39,2.39,0,0,0,.47,1.57,1.65,1.65,0,0,0,1.34.57,2.2,2.2,0,0,0,1.27-.37,2.34,2.34,0,0,0,.84-1V12.79c0-.33.15-.49.44-.49Zm5.65-.1a2.41,2.41,0,0,1,2,.8,3.27,3.27,0,0,1,.67,2.17v3.59q0,.48-.45.48h-.13q-.45,0-.45-.48V15.25a2.43,2.43,0,0,0-.47-1.57,1.64,1.64,0,0,0-1.33-.56,2.21,2.21,0,0,0-1.28.37,2.35,2.35,0,0,0-.84,1v4.27q0,.48-.45.48h-.12c-.31,0-.46-.16-.46-.48V12.41s0,0,.12-.07a.69.69,0,0,1,.25,0c.4,0,.61.29.63.86v.4a2.79,2.79,0,0,1,1-1,2.67,2.67,0,0,1,1.39-.36Zm4.35-2a.66.66,0,1,1,1.32,0,.63.63,0,0,1-.18.49.69.69,0,0,1-.49.16.58.58,0,0,1-.65-.65Zm.13,2.6c0-.33.15-.5.46-.5h.11c.31,0,.46.17.46.5v6c0,.32-.15.48-.46.48h-.11c-.31,0-.46-.16-.46-.48Zm5.67,6.56a3,3,0,0,1-1.62-.45,3.17,3.17,0,0,1-1.13-1.27,4.45,4.45,0,0,1,0-3.73,3,3,0,0,1,2.77-1.71,2.94,2.94,0,0,1,1.51.37,2.5,2.5,0,0,1,1,.95v-4s0,0,.11-.08a1,1,0,0,1,.25,0c.45,0,.68.3.68.91v8.43a.42.42,0,0,1-.46.48h-.1a.4.4,0,0,1-.45-.46c0-.19,0-.48,0-.89a3,3,0,0,1-1,1.08,2.79,2.79,0,0,1-1.5.39Zm2.49-4.65a2.55,2.55,0,0,0-.87-1.21,2.35,2.35,0,0,0-1.42-.43,2.11,2.11,0,0,0-1.68.75,2.89,2.89,0,0,0-.65,1.95,3.18,3.18,0,0,0,.3,1.41,2.27,2.27,0,0,0,.82,1,2.15,2.15,0,0,0,1.19.34,2.4,2.4,0,0,0,1.16-.29,2.23,2.23,0,0,0,.84-.8,2.13,2.13,0,0,0,.31-1.15Zm2.44,2.73a1.78,1.78,0,0,1,1.13-1.69,9,9,0,0,1,3.56-.57h.16V14.9a1.81,1.81,0,0,0-.48-1.35,1.89,1.89,0,0,0-1.37-.46,2.39,2.39,0,0,0-1.3.33,2.22,2.22,0,0,0-.8.89.53.53,0,0,1-.19,0,.73.73,0,0,1-.3-.16.45.45,0,0,1-.14-.35.85.85,0,0,1,.11-.37,1.4,1.4,0,0,1,.31-.39,2.75,2.75,0,0,1,1-.59,3.93,3.93,0,0,1,1.39-.23,2.84,2.84,0,0,1,2.08.72,2.67,2.67,0,0,1,.73,2v4.23s0,.05-.12.07a.74.74,0,0,1-.25.05c-.36,0-.56-.22-.61-.66q0-.41,0-.63a2.43,2.43,0,0,1-1,1,3.08,3.08,0,0,1-1.52.37,2.59,2.59,0,0,1-1.7-.51,1.71,1.71,0,0,1-.63-1.39Zm4.85-1.58h-.24a8,8,0,0,0-2.74.4,1.2,1.2,0,0,0-.84,1.14,1,1,0,0,0,.41.84,1.7,1.7,0,0,0,1.09.32,2.52,2.52,0,0,0,1.17-.27,2.17,2.17,0,0,0,.84-.74,1.82,1.82,0,0,0,.31-1Zm5.52,3.5a3,3,0,0,1-1.62-.45,3.14,3.14,0,0,1-1.12-1.27,4,4,0,0,1-.41-1.87,4,4,0,0,1,.41-1.86,3.07,3.07,0,0,1,1.13-1.26,3,3,0,0,1,1.64-.45,2.94,2.94,0,0,1,1.51.37,2.5,2.5,0,0,1,1,.95v-4s0,0,.11-.08a.9.9,0,0,1,.25,0c.45,0,.67.3.67.91v8.43c0,.32-.15.48-.46.48h-.1c-.29,0-.44-.15-.44-.46s0-.48,0-.89a2.84,2.84,0,0,1-1,1.08,2.75,2.75,0,0,1-1.5.39Zm2.5-4.65a2.55,2.55,0,0,0-.87-1.21,2.38,2.38,0,0,0-1.43-.43,2.1,2.1,0,0,0-1.67.75,2.89,2.89,0,0,0-.65,1.95,3.32,3.32,0,0,0,.29,1.41,2.36,2.36,0,0,0,.83,1,2.12,2.12,0,0,0,1.19.34,2.4,2.4,0,0,0,1.16-.29,2.23,2.23,0,0,0,.84-.8,2.13,2.13,0,0,0,.31-1.15Zm2.44,1.1a3.8,3.8,0,0,1,.44-1.85,3.25,3.25,0,0,1,1.2-1.29,3.47,3.47,0,0,1,3.4-.05,2.88,2.88,0,0,1,1.1,1.19,3.77,3.77,0,0,1,.39,1.76v.1a.35.35,0,0,1-.08.26A.43.43,0,0,1,319,16H313.8a1.09,1.09,0,0,0,0,.2,2.55,2.55,0,0,0,.78,1.67,2.45,2.45,0,0,0,1.72.63,2.52,2.52,0,0,0,1.4-.35,2.36,2.36,0,0,0,.82-.92.82.82,0,0,1,.2,0,.59.59,0,0,1,.27.18.48.48,0,0,1,.12.33.74.74,0,0,1-.14.4,1.8,1.8,0,0,1-.4.45,2.94,2.94,0,0,1-.95.52,4,4,0,0,1-1.34.21,3.64,3.64,0,0,1-1.82-.45,3.06,3.06,0,0,1-1.22-1.25,3.75,3.75,0,0,1-.44-1.85Zm5.51-.56a2.46,2.46,0,0,0-.62-1.61,2,2,0,0,0-1.51-.61,2.19,2.19,0,0,0-1.57.62,2.63,2.63,0,0,0-.79,1.6Z"/><line class="cls-1" x1="325.99" y1="24.43" x2="325.99" y2="7"/><path d="M364.22,10.36c0-.32.15-.48.46-.48h.16a.42.42,0,0,1,.47.48v5.17c0,1.9.84,2.85,2.51,2.85a2.34,2.34,0,0,0,1.88-.71,3.22,3.22,0,0,0,.62-2.16V10.36c0-.32.15-.48.46-.48H371a.39.39,0,0,1,.33.11.55.55,0,0,1,.1.37v5.15a4.07,4.07,0,0,1-.91,2.87,3.54,3.54,0,0,1-2.69,1,3.48,3.48,0,0,1-2.66-1,4,4,0,0,1-.91-2.85Zm12.37,1.84a2.43,2.43,0,0,1,2,.8,3.33,3.33,0,0,1,.66,2.17v3.59c0,.32-.15.48-.44.48h-.13c-.31,0-.46-.16-.46-.48V15.25a2.43,2.43,0,0,0-.47-1.57,1.63,1.63,0,0,0-1.32-.56,2.25,2.25,0,0,0-1.29.37,2.42,2.42,0,0,0-.84,1v4.27c0,.32-.14.48-.44.48h-.13c-.31,0-.46-.16-.46-.48V12.41s0,0,.12-.07a.73.73,0,0,1,.25,0c.41,0,.62.29.64.86v.4a2.59,2.59,0,0,1,2.35-1.36Zm4.34-2a.66.66,0,1,1,1.32,0,.66.66,0,0,1-.17.49.72.72,0,0,1-.5.16.64.64,0,0,1-.47-.16.63.63,0,0,1-.18-.49Zm.13,2.6c0-.33.16-.5.46-.5h.12c.3,0,.46.17.46.5v6a.42.42,0,0,1-.46.48h-.12a.42.42,0,0,1-.46-.48Zm5.67,6.56a3,3,0,0,1-1.62-.45A3.24,3.24,0,0,1,384,17.64a4.45,4.45,0,0,1,0-3.73,3.1,3.1,0,0,1,1.14-1.26,3,3,0,0,1,1.64-.45,3,3,0,0,1,1.51.37,2.5,2.5,0,0,1,1,.95v-4s0,0,.1-.08a1,1,0,0,1,.26,0c.45,0,.67.3.67.91v8.43c0,.32-.15.48-.46.48h-.1c-.3,0-.44-.15-.44-.46s0-.48,0-.89a2.92,2.92,0,0,1-1,1.08,2.79,2.79,0,0,1-1.5.39Zm2.5-4.65a2.55,2.55,0,0,0-.87-1.21,2.38,2.38,0,0,0-1.43-.43,2.11,2.11,0,0,0-1.68.75,2.88,2.88,0,0,0-.64,1.95,3.32,3.32,0,0,0,.29,1.41,2.29,2.29,0,0,0,.83,1,2.12,2.12,0,0,0,1.19.34,2.31,2.31,0,0,0,2-1.09,2.22,2.22,0,0,0,.31-1.15Zm2.44,2.73a1.77,1.77,0,0,1,1.12-1.69,9,9,0,0,1,3.57-.57h.15V14.9a1.81,1.81,0,0,0-.48-1.35,1.88,1.88,0,0,0-1.37-.46,2.35,2.35,0,0,0-1.29.33,2.15,2.15,0,0,0-.8.89.52.52,0,0,1-.19,0,.84.84,0,0,1-.31-.16.45.45,0,0,1-.13-.35.73.73,0,0,1,.11-.37,1.36,1.36,0,0,1,.3-.39,2.84,2.84,0,0,1,1-.59,4,4,0,0,1,1.39-.23,2.84,2.84,0,0,1,2.08.72,2.64,2.64,0,0,1,.73,2v4.23s0,.05-.12.07a.7.7,0,0,1-.25.05q-.53,0-.6-.66,0-.41,0-.63a2.52,2.52,0,0,1-1,1,3.08,3.08,0,0,1-1.52.37,2.61,2.61,0,0,1-1.7-.51,1.71,1.71,0,0,1-.62-1.39Zm4.84-1.58h-.24a8,8,0,0,0-2.73.4,1.2,1.2,0,0,0-.84,1.14,1,1,0,0,0,.4.84,1.72,1.72,0,0,0,1.09.32,2.59,2.59,0,0,0,1.18-.27,2.32,2.32,0,0,0,.84-.74,1.89,1.89,0,0,0,.3-1Zm5.53,3.5a3,3,0,0,1-1.62-.45,3.17,3.17,0,0,1-1.13-1.27,4.45,4.45,0,0,1,0-3.73,3,3,0,0,1,2.78-1.71,2.93,2.93,0,0,1,1.5.37,2.5,2.5,0,0,1,1,.95v-4s0,0,.11-.08a1,1,0,0,1,.25,0c.45,0,.68.3.68.91v8.43a.42.42,0,0,1-.46.48H405a.4.4,0,0,1-.45-.46c0-.19,0-.48,0-.89a3,3,0,0,1-1,1.08,2.79,2.79,0,0,1-1.5.39Zm2.49-4.65a2.6,2.6,0,0,0-.86-1.21,2.4,2.4,0,0,0-1.43-.43,2.11,2.11,0,0,0-1.68.75,2.89,2.89,0,0,0-.65,1.95,3.18,3.18,0,0,0,.3,1.41,2.27,2.27,0,0,0,.82,1,2.15,2.15,0,0,0,1.19.34,2.44,2.44,0,0,0,1.17-.29,2.39,2.39,0,0,0,.84-.8,2.22,2.22,0,0,0,.3-1.15Zm2.44,1.1a3.92,3.92,0,0,1,.44-1.85A3.39,3.39,0,0,1,412,12.62a2.79,2.79,0,0,1,1.09,1.19,3.77,3.77,0,0,1,.39,1.76v.1a.35.35,0,0,1-.08.26.39.39,0,0,1-.28.07H408a1,1,0,0,0,0,.2,2.46,2.46,0,0,0,.78,1.67,2.42,2.42,0,0,0,1.71.63,2.5,2.5,0,0,0,1.4-.35,2.38,2.38,0,0,0,.83-.92l.19,0a.59.59,0,0,1,.27.18.49.49,0,0,1,.13.33.84.84,0,0,1-.14.4,1.86,1.86,0,0,1-.41.45,2.84,2.84,0,0,1-.95.52,3.91,3.91,0,0,1-1.33.21,3.59,3.59,0,0,1-1.82-.45,3,3,0,0,1-1.23-1.25,3.86,3.86,0,0,1-.44-1.85Zm5.51-.56a2.45,2.45,0,0,0-.61-1.61,2,2,0,0,0-1.51-.61,2.21,2.21,0,0,0-1.58.62,2.68,2.68,0,0,0-.79,1.6Z"/><line class="cls-1" x1="451.29" y1="24.43" x2="451.29" y2="7"/><line class="cls-1" x1="10.84" y1="24.63" x2="451.49" y2="24.63"/><line class="cls-1" x1="11.04" y1="64.51" x2="11.04" y2="24.83"/><path class="cls-2" d="M87.84,50.66a17,17,0,0,0-17-17v17Z"/><path class="cls-1" d="M87.84,50.66a17,17,0,0,0-17-17v17Z"/><line class="cls-1" x1="147.63" y1="64.51" x2="147.63" y2="24.83"/><path d="M223.12,41.26A2.36,2.36,0,0,1,225,42a3.17,3.17,0,0,1,.64,2.13v3.67c0,.33-.15.49-.45.49h-.12c-.31,0-.46-.16-.46-.49V44.23a2.28,2.28,0,0,0-.44-1.52,1.54,1.54,0,0,0-1.28-.53,2,2,0,0,0-1.14.36,2.14,2.14,0,0,0-.77,1v4.27c0,.33-.15.49-.46.49h-.11c-.31,0-.46-.16-.46-.49V44.14a2.19,2.19,0,0,0-.44-1.46,1.62,1.62,0,0,0-1.28-.5,2,2,0,0,0-1.13.36,2.31,2.31,0,0,0-.79,1v4.27c0,.33-.15.49-.45.49h-.13c-.3,0-.46-.16-.46-.49V41.47s0,0,.12-.07a.78.78,0,0,1,.26,0q.6,0,.63.84v.35a2.65,2.65,0,0,1,.91-.94,2.3,2.3,0,0,1,1.26-.35,2.4,2.4,0,0,1,1.42.4,2.22,2.22,0,0,1,.84,1.12,2.77,2.77,0,0,1,1-1.11,2.56,2.56,0,0,1,1.44-.41ZM227,44.87a3.93,3.93,0,0,1,.44-1.86,3.2,3.2,0,0,1,1.21-1.29,3.28,3.28,0,0,1,1.74-.46,3.23,3.23,0,0,1,1.66.42,2.83,2.83,0,0,1,1.09,1.18,3.85,3.85,0,0,1,.39,1.77v.1a.37.37,0,0,1-.08.26.39.39,0,0,1-.28.07H228a1,1,0,0,0,0,.2,2.48,2.48,0,0,0,.78,1.66,2.43,2.43,0,0,0,1.71.64,2.5,2.5,0,0,0,1.4-.35,2.38,2.38,0,0,0,.83-.92.47.47,0,0,1,.19,0,.59.59,0,0,1,.27.18.45.45,0,0,1,.13.33.84.84,0,0,1-.14.4,1.67,1.67,0,0,1-.41.44,2.85,2.85,0,0,1-1,.53,3.91,3.91,0,0,1-1.33.21,3.59,3.59,0,0,1-1.82-.45,3.08,3.08,0,0,1-1.23-1.25,3.86,3.86,0,0,1-.44-1.85Zm5.51-.56a2.43,2.43,0,0,0-.61-1.61,2,2,0,0,0-1.51-.61,2.17,2.17,0,0,0-1.58.62,2.68,2.68,0,0,0-.79,1.6Zm4.74,4.11a1.81,1.81,0,0,1-1.42-.53,2.44,2.44,0,0,1-.46-1.63v-4h-.68c-.29,0-.44-.13-.44-.39v-.1c0-.26.15-.39.44-.39h.68v-1.2c0-.33.15-.5.46-.5h.11c.3,0,.45.17.45.5v1.2h1.73q.45,0,.45.39v.09c0,.27-.16.4-.46.4h-1.74v3.82a1.83,1.83,0,0,0,.25,1.09.87.87,0,0,0,.77.34,1.17,1.17,0,0,0,1-.53s.05,0,.1,0a.36.36,0,0,1,.13.16.6.6,0,0,1,.06.27.73.73,0,0,1-.26.53,1.69,1.69,0,0,1-1.19.41Zm2.16-1.93a1.77,1.77,0,0,1,1.13-1.68,9,9,0,0,1,3.56-.57h.16V44a1.79,1.79,0,0,0-.48-1.34,1.89,1.89,0,0,0-1.37-.46,2.39,2.39,0,0,0-1.3.33,2.07,2.07,0,0,0-.79.89.46.46,0,0,1-.2,0,.61.61,0,0,1-.3-.15.45.45,0,0,1-.13-.35.82.82,0,0,1,.1-.37,1.6,1.6,0,0,1,.31-.4,3,3,0,0,1,1-.58,3.72,3.72,0,0,1,1.39-.23,2.88,2.88,0,0,1,2.08.71,2.67,2.67,0,0,1,.73,2V48.2s0,0-.12.07a.74.74,0,0,1-.25,0c-.36,0-.56-.22-.61-.66,0-.27,0-.48,0-.64a2.48,2.48,0,0,1-1,1,3.08,3.08,0,0,1-1.52.37,2.59,2.59,0,0,1-1.7-.51,1.72,1.72,0,0,1-.63-1.4Zm4.85-1.57H244a8,8,0,0,0-2.73.4,1.19,1.19,0,0,0-.84,1.13,1,1,0,0,0,.4.85,1.72,1.72,0,0,0,1.09.32,2.41,2.41,0,0,0,1.17-.28,2.07,2.07,0,0,0,.84-.73,1.84,1.84,0,0,0,.31-1Zm5.53,3.5a2.93,2.93,0,0,1-1.63-.46A3.12,3.12,0,0,1,247,46.7,4.45,4.45,0,0,1,247,43a3.07,3.07,0,0,1,1.13-1.26,3,3,0,0,1,1.64-.45,2.94,2.94,0,0,1,1.51.37,2.44,2.44,0,0,1,1,.95v-4s0-.06.11-.08a.87.87,0,0,1,.25,0c.45,0,.67.31.67.92v8.42c0,.33-.15.49-.45.49h-.11c-.29,0-.44-.15-.44-.46s0-.49,0-.89a3,3,0,0,1-1,1.08,2.73,2.73,0,0,1-1.49.39Zm2.49-4.65a2.55,2.55,0,0,0-.87-1.21,2.35,2.35,0,0,0-1.42-.43,2.11,2.11,0,0,0-1.68.75,2.89,2.89,0,0,0-.65,1.95,3.21,3.21,0,0,0,.3,1.41,2.27,2.27,0,0,0,.82,1,2.12,2.12,0,0,0,1.19.34,2.4,2.4,0,0,0,1.16-.29,2.18,2.18,0,0,0,.84-.81,2.12,2.12,0,0,0,.31-1.14Zm2.44,1.1a3.93,3.93,0,0,1,.44-1.86,3.25,3.25,0,0,1,1.2-1.29,3.32,3.32,0,0,1,1.75-.46,3.16,3.16,0,0,1,1.65.42,2.85,2.85,0,0,1,1.1,1.18,3.85,3.85,0,0,1,.39,1.77v.1a.37.37,0,0,1-.08.26.41.41,0,0,1-.28.07h-5.18a1.15,1.15,0,0,0,0,.2,2.49,2.49,0,0,0,.79,1.66,2.41,2.41,0,0,0,1.71.64,2.52,2.52,0,0,0,1.4-.35,2.36,2.36,0,0,0,.82-.92.51.51,0,0,1,.2,0,.59.59,0,0,1,.27.18.45.45,0,0,1,.12.33.81.81,0,0,1-.13.4,1.67,1.67,0,0,1-.41.44,3,3,0,0,1-.95.53,4,4,0,0,1-1.33.21,3.65,3.65,0,0,1-1.83-.45,3.12,3.12,0,0,1-1.22-1.25,3.86,3.86,0,0,1-.44-1.85Zm5.51-.56a2.44,2.44,0,0,0-.62-1.61,2,2,0,0,0-1.5-.61,2.16,2.16,0,0,0-1.58.62,2.63,2.63,0,0,0-.79,1.6Z"/><line class="cls-1" x1="325.99" y1="64.51" x2="325.99" y2="24.83"/><line class="cls-1" x1="451.29" y1="64.51" x2="451.29" y2="24.83"/><line class="cls-1" x1="10.84" y1="64.71" x2="451.49" y2="64.71"/></svg>