<svg id="Camada_1" data-name="Camada 1" xmlns="http://www.w3.org/2000/svg" viewBox="0 0 103.12 21.28"><defs><style>.cls-1{fill:#e6164d;}.cls-2{fill:none;stroke:#000;stroke-miterlimit:10;stroke-width:0.4px;}.cls-3{fill:#fff;}.cls-4{fill:#95d4e9;opacity:0.3;}</style></defs><path class="cls-1" d="M11.35,11.42l5.33,7.34-1-5.94L20,8.61l-8.63,2.81m0,0L6,18.76l5-2.82,5.65,2.82-5.33-7.34m0,0L2.72,8.61,7,12.51,6,18.76l5.33-7.34m0,0V2.35L8.68,7.75l-6,.86,8.63,2.81m0,0L20,8.61l-6-.86-2.66-5.4v9.07"/><path class="cls-2" d="M16.68,18.76l-1-5.94L20,8.61M6,18.76l5-2.82,5.65,2.82M2.72,8.61,7,12.51,6,18.76M11.35,2.35,8.68,7.75l-6,.86M20,8.61l-6-.86-2.66-5.4"/><path class="cls-1" d="M31.45,11.42l5.34,7.34-1-5.94,4.31-4.21-8.63,2.81m0,0-5.33,7.34,5-2.82,5.65,2.82-5.34-7.34m0,0L22.83,8.61l4.22,3.9-.93,6.25,5.33-7.34m0,0V2.35l-2.66,5.4-6,.86,8.62,2.81m0,0,8.63-2.81-6-.86-2.67-5.4v9.07"/><path class="cls-2" d="M36.79,18.76l-1-5.94,4.31-4.21m-14,10.15,5-2.82,5.65,2.82m-14-10.15,4.22,3.9-.93,6.25M31.45,2.35l-2.66,5.4-6,.86m17.25,0-6-.86-2.67-5.4"/><path class="cls-1" d="M51.56,11.42l5.33,7.34-1-5.94,4.32-4.21-8.63,2.81m0,0-5.33,7.34,5-2.82,5.65,2.82-5.33-7.34m0,0L42.93,8.61l4.23,3.9-.93,6.25,5.33-7.34m0,0V2.35l-2.67,5.4-6,.86,8.63,2.81m0,0,8.63-2.81-6-.86-2.67-5.4v9.07"/><path class="cls-2" d="M56.89,18.76l-1-5.94,4.32-4.21m-14,10.15,5-2.82,5.65,2.82m-14-10.15,4.23,3.9-.93,6.25M51.56,2.35l-2.67,5.4-6,.86m17.26,0-6-.86-2.67-5.4"/><path class="cls-1" d="M71.67,11.42,77,18.76l-1-5.94,4.31-4.21-8.62,2.81m0,0-5.34,7.34,5-2.82L77,18.76l-5.33-7.34m0,0L63,8.61l4.22,3.9-.93,6.25,5.34-7.34m0,0V2.35L69,7.75l-6,.86,8.63,2.81m0,0,8.62-2.81-6-.86-2.66-5.4v9.07"/><path class="cls-2" d="M77,18.76l-1-5.94,4.31-4.21m-14,10.15,5-2.82L77,18.76M63,8.61l4.22,3.9-.93,6.25M71.67,2.35,69,7.75l-6,.86m17.25,0-6-.86-2.66-5.4"/><path class="cls-1" d="M91.77,11.42l5.33,7.34-1-5.94,4.31-4.21-8.63,2.81m0,0-5.33,7.34,5-2.82,5.64,2.82-5.33-7.34m0,0L83.14,8.61l4.23,3.9-.93,6.25,5.33-7.34m0,0V2.35l-2.66,5.4-6,.86,8.63,2.81m0,0,8.63-2.81-6-.86-2.67-5.4v9.07"/><polygon class="cls-3" points="91.77 2.35 91.77 15.95 96.84 18.94 96.08 12.82 100.4 8.61 94.31 7.66 91.77 2.35"/><polygon class="cls-4" points="91.77 2.35 91.77 15.95 96.84 18.94 96.08 12.82 100.4 8.61 94.31 7.66 91.77 2.35"/><path class="cls-2" d="M97.1,18.76l-1-5.94,4.31-4.21m-14,10.15,5-2.82,5.64,2.82m-14-10.15,4.23,3.9-.93,6.25M91.77,2.35l-2.66,5.4-6,.86m17.26,0-6-.86-2.67-5.4"/></svg>