<svg id="Camada_1" data-name="Camada 1" xmlns="http://www.w3.org/2000/svg" viewBox="0 0 105.22 68.33"><defs><style>.cls-1,.cls-3{font-size:14.35px;}.cls-1{font-family:CMR12;}.cls-2{fill:none;stroke:#000;stroke-miterlimit:10;stroke-width:0.57px;}.cls-3{font-family:CMMI12;}</style></defs><text class="cls-1" transform="translate(11.47 29.69)">5</text><line class="cls-2" x1="11.47" y1="35.81" x2="18.49" y2="35.81"/><text class="cls-1" transform="translate(11.47 49.24)">4</text><text class="cls-1" transform="translate(22.88 39.4)">+</text><path d="M53.08,29c0,.66-.06.72-.74.72H40.09c-.69,0-.75-.08-.75-.74V16.22c0-.66.09-.72.73-.72H52.36c.66,0,.72.08.72.72Zm-12.91-.1H52.26V16.33H40.17Z"/><line class="cls-2" x1="38.19" y1="35.81" x2="54.26" y2="35.81"/><path d="M53.08,51.05c0,.66-.06.72-.74.72H40.09c-.69,0-.75-.08-.75-.74V38.3c0-.66.09-.72.73-.72H52.36c.66,0,.72.08.72.72Zm-12.91-.11H52.26V38.4H40.17Z"/><text class="cls-3" transform="translate(59.44 39.4)">&lt;</text><text class="cls-1" transform="translate(75.54 29.69)">11</text><line class="cls-2" x1="75.54" y1="35.81" x2="89.59" y2="35.81"/><text class="cls-1" transform="translate(79.05 49.24)">6</text><text class="cls-3" transform="translate(90.79 39.4)">.</text></svg>