<?xml version="1.0" encoding="utf-8"?>
<!-- Generator: Adobe Illustrator 16.0.0, SVG Export Plug-In . SVG Version: 6.00 Build 0)  -->
<!DOCTYPE svg PUBLIC "-//W3C//DTD SVG 1.1//EN" "http://www.w3.org/Graphics/SVG/1.1/DTD/svg11.dtd">
<svg version="1.1" id="Layer_1" xmlns="http://www.w3.org/2000/svg" xmlns:xlink="http://www.w3.org/1999/xlink" x="0px" y="0px"
	 width="510.236px" height="141.732px" viewBox="0 0 510.236 141.732" enable-background="new 0 0 510.236 141.732"
	 xml:space="preserve">
<g>
	<g>
		<path fill="#F7C434" d="M275.626,73.574l20.091-38.63c11.201,6.959,21.086,19.646,21.086,38.761
			c0,16.329-10.934,30.89-23.248,37.564L275.626,73.574z"/>
	</g>
	<g>
		<path fill="#F9BF76" d="M293.555,111.269c13.834-7.418,23.267-22.018,23.267-38.78c0-15.875-8.457-29.813-21.104-37.545
			l4.115-7.913c15.492,9.231,25.896,26.148,25.896,45.458c0,20.308-11.514,37.969-28.35,46.828L293.555,111.269z"/>
	</g>
	<g>
		<path fill="#F7C434" d="M258.884,63.046l17.65-37.105c-4.646-2.167-11.68-3.466-17.021-3.466c-6.2,0-13.885,1.686-19.107,4.557
			L258.884,63.046z"/>
	</g>
	<path fill="#F9BF76" d="M30.564,64.294C31.175,41.576,49.087,23.109,71.58,21.62v-8.934c-27.407,1.506-49.309,23.976-49.925,51.606
		L30.564,64.294L30.564,64.294z"/>
	<path fill="#F7C434" d="M71.58,64.294V21.832c-22.272,1.641-39.912,19.911-40.584,42.461H71.58z"/>
	<circle fill="#D1313D" cx="55.007" cy="42.385" r="4.205"/>
	<circle fill="#D1313D" cx="65.186" cy="53.967" r="4.205"/>
	<circle fill="#D1313D" cx="45.173" cy="58.217" r="5.207"/>
	<line fill="none" x1="71.58" y1="125.294" x2="75.58" y2="125.294"/>
	<circle fill="#D1313D" cx="298.978" cy="88.147" r="4.205"/>
	<circle fill="#D1313D" cx="302.43" cy="73.705" r="2.698"/>
	<circle fill="#D1313D" cx="301.925" cy="61.226" r="3.71"/>
	<circle fill="#D1313D" cx="258.538" cy="36.785" r="3.202"/>
	<g>
		<path fill="#F9BF76" d="M240.144,27.018c5.85-2.883,12.42-4.509,19.369-4.509c6.031,0,11.781,1.224,17.021,3.431l3.828-8.048
			c-6.4-2.759-13.447-4.291-20.851-4.291c-8.429,0-16.396,1.99-23.478,5.515L240.144,27.018z"/>
	</g>
	<g>
		<path fill="#F7C434" d="M258.884,81.599l17.65,37.107c-4.646,1.923-11.68,3.429-17.021,3.429c-6.2,0-14.146-1.96-19.369-4.507
			L258.884,81.599z"/>
	</g>
	<circle fill="#D1313D" cx="251.194" cy="110.206" r="5.078"/>
	<g>
		<path fill="#F9BF76" d="M240.144,117.629c5.85,2.881,12.42,4.507,19.369,4.507c6.031,0,11.781-1.222,17.021-3.429l3.828,8.048
			c-6.4,2.757-13.447,4.291-20.851,4.291c-8.429,0-16.396-1.992-23.478-5.516L240.144,117.629z"/>
	</g>
	<g>
		<path fill="#F7C434" d="M245.73,73.574l-20.092-38.63c-11.201,6.959-21.883,19.662-21.085,38.761
			c0.732,17.531,10.931,30.89,23.248,37.564L245.73,73.574z"/>
	</g>
	<g>
		<path fill="#F9BF76" d="M227.8,111.269c-13.834-7.418-23.266-22.018-23.266-38.78c0-15.875,8.458-29.813,21.104-37.545
			l-4.115-7.913c-15.491,9.231-25.896,26.148-25.896,45.458c0,20.308,11.514,37.969,28.349,46.828L227.8,111.269z"/>
	</g>
	<g>
		<g>
			<path fill="#F7C434" d="M435.767,74.294l-28.801,30.262c7.717,6.848,17.822,11.006,28.894,11.006
				c23.186,0,42.156-18.207,43.758-41.27L435.767,74.294L435.767,74.294z"/>
		</g>
		<g>
			<path fill="#F9BF76" d="M479.391,74.294c-1.451,22.945-20.571,41.173-43.879,41.173c-11.156,0-21.35-4.183-29.108-11.053
				l-6.188,6.42c9.369,8.413,21.744,13.543,35.297,13.543c28.221,0,51.351-22.22,52.813-50.083H479.391z"/>
			<path fill="#F9BF76" d="M398.058,108.79c0.235,0.235,0.481,0.463,0.723,0.695L398.058,108.79z"/>
		</g>
		<circle fill="#D1313D" cx="458.977" cy="86.147" r="4.205"/>
		<circle fill="#D1313D" cx="448.452" cy="95.078" r="3.018"/>
		<circle fill="#D1313D" cx="430.762" cy="101.34" r="5.73"/>
		<circle fill="#D1313D" cx="440.124" cy="81.218" r="5.731"/>
	</g>
	<g>
		<g>
			<path fill="#F7C434" d="M379.036,73.294c0.752,9.285,5.612,20.93,12.496,27.335l26.342-27.335H379.036z"/>
		</g>
		<g>
			<path fill="#F9BF76" d="M391.532,100.629c-6.828-7.241-11.23-16.787-11.898-27.335H370.7
				c0.688,13.063,6.145,24.877,14.646,33.752L391.532,100.629z"/>
		</g>
		<circle fill="#D1313D" cx="408.553" cy="78.089" r="3.188"/>
		<circle fill="#D1313D" cx="398.805" cy="87.034" r="4.024"/>
	</g>
	<line fill="none" x1="435.581" y1="70.294" x2="431.581" y2="70.294"/>
	<path fill="#D1313D" d="M71.58,33.586c-0.201-0.002-0.405,0.011-0.61,0.048c-1.74,0.314-2.896,1.98-2.581,3.723
		c0.281,1.563,1.654,2.644,3.191,2.623V33.586z"/>
	<path fill="#D1313D" d="M261.221,86.944c-0.256,0.127-0.504,0.272-0.735,0.452c-1.994,1.518-2.377,4.359-0.861,6.354
		c1.361,1.79,3.787,2.27,5.711,1.254L261.221,86.944z"/>
	<path fill="#F9BF76" d="M125.67,64.294c-0.611-22.718-18.09-41.185-41.09-42.674v-8.934c27,1.506,49.382,23.976,50,51.606
		L125.67,64.294L125.67,64.294z"/>
	<path fill="#F7C434" d="M84.58,64.294V21.679c22.451,1.646,40.362,19.982,41.04,42.614H84.58z"/>
	<circle fill="#D1313D" cx="101.227" cy="42.385" r="4.205"/>
	<circle fill="#D1313D" cx="92.048" cy="56.967" r="4.205"/>
	<circle fill="#D1313D" cx="110.557" cy="55.458" r="2.715"/>
	<path fill="#D1313D" d="M84.656,33.586c0.199-0.002,0.403,0.011,0.607,0.048c1.74,0.314,2.896,1.98,2.581,3.723
		c-0.281,1.563-1.654,2.644-3.188,2.623V33.586z"/>
	<path fill="#F9BF76" d="M384.565,62.294c0.608-22.718,18.521-41.185,41.016-42.674v-8.934
		c-27.408,1.506-49.309,23.976-49.926,51.606L384.565,62.294L384.565,62.294z"/>
	<path fill="#F7C434" d="M425.581,62.294v-43.27c-22.946,1.673-41.122,20.29-41.813,43.27H425.581z"/>
	<circle fill="#D1313D" cx="409.007" cy="40.385" r="4.205"/>
	<circle fill="#D1313D" cx="419.187" cy="51.967" r="4.205"/>
	<circle fill="#D1313D" cx="399.173" cy="56.217" r="5.207"/>
	<path fill="#D1313D" d="M425.581,31.586c-0.201-0.002-0.406,0.011-0.611,0.048c-1.737,0.314-2.895,1.98-2.579,3.723
		c0.28,1.563,1.653,2.644,3.19,2.623V31.586L425.581,31.586z"/>
	<path fill="#F9BF76" d="M479.671,62.294c-0.61-22.718-18.09-41.185-41.09-42.674v-8.934c27,1.506,49.381,23.976,50,51.606
		L479.671,62.294L479.671,62.294z"/>
	<path fill="#F7C434" d="M438.581,62.294V19.252c22.531,1.663,40.503,20.183,41.185,43.042H438.581z"/>
	<circle fill="#D1313D" cx="455.227" cy="40.385" r="4.205"/>
	<circle fill="#D1313D" cx="446.048" cy="54.967" r="4.205"/>
	<circle fill="#D1313D" cx="464.557" cy="53.458" r="2.715"/>
	<path fill="#D1313D" d="M438.655,31.586c0.2-0.002,0.403,0.011,0.608,0.048c1.74,0.314,2.896,1.98,2.58,3.723
		c-0.279,1.563-1.652,2.644-3.188,2.623V31.586L438.655,31.586z"/>
	<path fill="#F9BF76" d="M30.564,76.294c0.611,23,18.523,41.577,41.017,43.066v8.934c-27.407-1.506-49.309-24-49.925-52H30.564z"/>
	<path fill="#F7C434" d="M71.58,76.294v43.245c-22.401-1.656-40.143-19.673-40.819-43.245H71.58z"/>
	<circle fill="#D1313D" cx="52.007" cy="94.593" r="4.205"/>
	<circle fill="#D1313D" cx="58.448" cy="82.272" r="3.465"/>
	<path fill="#D1313D" d="M71.607,106.726c-0.366,0.004-0.74-0.021-1.115-0.087c-3.185-0.575-5.297-3.622-4.723-6.807
		c0.516-2.856,3.026-4.836,5.837-4.796L71.607,106.726L71.607,106.726z"/>
	<path fill="#F9BF76" d="M125.67,76.294c-0.611,23-18.09,41.577-41.09,43.066v8.934c27-1.506,49.382-24,50-52H125.67z"/>
	<path fill="#F7C434" d="M84.58,76.294v43.374c22.69-1.661,40.792-19.731,41.477-43.374H84.58z"/>
	<circle fill="#D1313D" cx="99.656" cy="96.368" r="2.808"/>
	<circle fill="#D1313D" cx="107.769" cy="87.461" r="3.985"/>
	<path fill="#D1313D" d="M84.809,79.586c0.45-0.004,0.906,0.024,1.364,0.105c3.89,0.703,6.472,4.428,5.769,8.314
		c-0.628,3.493-3.695,5.909-7.132,5.861L84.809,79.586L84.809,79.586z"/>
	<circle fill="#D1313D" cx="228.007" cy="50.385" r="4.205"/>
	<circle fill="#D1313D" cx="216.173" cy="70.217" r="5.207"/>
	<circle fill="#D1313D" cx="233.553" cy="81.089" r="3.188"/>
	<circle fill="#D1313D" cx="222.805" cy="90.034" r="4.024"/>
	<path fill="#D1313D" d="M237.201,57.771c-0.251-0.001,0.495,0.013,0.236,0.06c-2.283,0.413-3.803,2.6-3.391,4.885
		c0.414,2.286,2.601,3.806,4.886,3.393c0.996-0.182,1.831-0.709,2.439-1.424L237.201,57.771z"/>
	<path fill="#D1313D" d="M284.155,57.771c0.25-0.001-0.496,0.013-0.238,0.06c2.285,0.413,3.803,2.6,3.391,4.885
		c-0.414,2.286-2.6,3.806-4.885,3.393c-0.996-0.182-1.83-0.709-2.439-1.424L284.155,57.771z"/>
	<path fill="#D1313D" d="M291.095,43.831c2.285,0.413,3.625,2.6,3.213,4.885c-0.414,2.286-2.6,3.806-4.885,3.393
		c-0.996-0.182-1.28-0.599-1.89-1.314C287.533,50.794,290.837,43.784,291.095,43.831z"/>
	<path fill="#D1313D" d="M281.112,84.088c0.258-0.12,0.51-0.261,0.748-0.434c2.033-1.464,2.49-4.298,1.026-6.327
		c-1.313-1.825-3.729-2.368-5.676-1.403L281.112,84.088z"/>
	<path fill="none" stroke="#000000" stroke-miterlimit="10" d="M84.58,119.668c15.663-0.927,41.04-13.552,41.477-43.374"/>
	<path fill="none" stroke="#000000" stroke-miterlimit="10" d="M84.58,21.679c0,0,37.372,1.687,41.04,42.614"/>
	<path fill="none" stroke="#000000" stroke-miterlimit="10" d="M72.057,119.668c-15.663-0.927-41.04-13.552-41.477-43.374"/>
	<path fill="none" stroke="#000000" stroke-miterlimit="10" d="M72.057,21.679c0,0-37.372,1.687-41.04,42.614"/>
	<path fill="none" stroke="#000000" stroke-miterlimit="10" d="M240.144,27.018c0,0,16.224-9.652,36.39-1.078"/>
	<path fill="none" stroke="#000000" stroke-miterlimit="10" d="M240.144,117.39c0,0,16.224,9.652,36.39,1.078"/>
	<path fill="none" stroke="#000000" stroke-miterlimit="10" d="M174.618,0"/>
</g>
<path fill="none" stroke="#000000" stroke-miterlimit="10" d="M225.638,34.944c-9.465,1.546-42.43,44.826,2.162,76.325"/>
<path fill="none" stroke="#000000" stroke-miterlimit="10" d="M295.509,34.944c6.921,1.546,45.528,44.826-2.162,76.325"/>
<path fill="none" stroke="#000000" stroke-miterlimit="10" d="M425.581,19.024c-30.8,1.286-41.813,28.227-41.813,43.27"/>
<path fill="none" stroke="#000000" stroke-miterlimit="10" d="M438.769,19.024c29.968,3.367,41.813,28.227,41.813,43.27"/>
<path fill="none" stroke="#000000" stroke-miterlimit="10" d="M406.403,104.414c39.645,31.094,74.179-10.543,72.987-30.12"/>
<path fill="none" stroke="#000000" stroke-miterlimit="10" d="M379.634,73.294c0,8.669,7.598,22.316,11.898,27.335"/>
</svg>
