<svg id="Camada_1" data-name="Camada 1" xmlns="http://www.w3.org/2000/svg" viewBox="0 0 254.18 65.47"><defs><style>.cls-1{fill:#95d4e9;opacity:0.3;}.cls-2{fill:none;stroke:#000;stroke-miterlimit:10;stroke-width:0.4px;}</style></defs><rect class="cls-1" x="47.36" y="24.76" width="31.89" height="15.95"/><rect class="cls-2" x="47.36" y="24.76" width="31.89" height="15.95"/><path class="cls-2" d="M206.81,40.71V24.76m-31.89,16V24.76M143,40.71V24.76m-31.89,16V24.76m-31.89,16V24.76m-31.89,16V24.76m0,16H206.81"/><line class="cls-2" x1="47.36" y1="24.76" x2="206.81" y2="24.76"/><rect class="cls-1" x="79.25" y="24.76" width="31.89" height="15.95"/><rect class="cls-2" x="79.25" y="24.76" width="31.89" height="15.95"/><path class="cls-2" d="M206.81,40.71V24.76m-31.89,16V24.76M143,40.71V24.76m-31.89,16V24.76m-31.89,16V24.76m-31.89,16V24.76m0,16H206.81"/><line class="cls-2" x1="47.36" y1="24.76" x2="206.81" y2="24.76"/><rect class="cls-1" x="111.14" y="24.76" width="31.89" height="15.95"/><rect class="cls-2" x="111.14" y="24.76" width="31.89" height="15.95"/><path class="cls-2" d="M206.81,40.71V24.76m-31.89,16V24.76M143,40.71V24.76m-31.89,16V24.76m-31.89,16V24.76m-31.89,16V24.76m0,16H206.81"/><line class="cls-2" x1="47.36" y1="24.76" x2="206.81" y2="24.76"/><rect class="cls-1" x="143.03" y="24.76" width="31.89" height="15.95"/><rect class="cls-2" x="143.03" y="24.76" width="31.89" height="15.95"/><path class="cls-2" d="M206.81,40.71V24.76m-31.89,16V24.76M143,40.71V24.76m-31.89,16V24.76m-31.89,16V24.76m-31.89,16V24.76m0,16H206.81"/><line class="cls-2" x1="47.36" y1="24.76" x2="206.81" y2="24.76"/><rect class="cls-1" x="174.92" y="24.76" width="31.89" height="15.95"/><rect class="cls-2" x="174.92" y="24.76" width="31.89" height="15.95"/><path class="cls-2" d="M206.81,40.71V24.76m-31.89,16V24.76M143,40.71V24.76m-31.89,16V24.76m-31.89,16V24.76m-31.89,16V24.76m0,16H206.81"/><line class="cls-2" x1="47.36" y1="24.76" x2="206.81" y2="24.76"/></svg>