<?xml version="1.0" encoding="utf-8"?>
<!-- Generator: Adobe Illustrator 16.0.0, SVG Export Plug-In . SVG Version: 6.00 Build 0)  -->
<!DOCTYPE svg PUBLIC "-//W3C//DTD SVG 1.1//EN" "http://www.w3.org/Graphics/SVG/1.1/DTD/svg11.dtd">
<svg version="1.1" id="Layer_1" xmlns="http://www.w3.org/2000/svg" xmlns:xlink="http://www.w3.org/1999/xlink" x="0px" y="0px"
	 width="396.85px" height="311.81px" viewBox="0 0 396.85 311.81" enable-background="new 0 0 396.85 311.81" xml:space="preserve">
<linearGradient id="SVGID_1_" gradientUnits="userSpaceOnUse" x1="340.022" y1="82.4175" x2="21.9668" y2="82.4175">
	<stop  offset="0" style="stop-color:#FFFFFF"/>
	<stop  offset="0.154" style="stop-color:#F5F5F5"/>
	<stop  offset="0.4178" style="stop-color:#D9DADB"/>
	<stop  offset="0.5882" style="stop-color:#C4C5C7"/>
	<stop  offset="0.6405" style="stop-color:#CCCDCF"/>
	<stop  offset="0.7356" style="stop-color:#D2D4D5"/>
	<stop  offset="1" style="stop-color:#D4D6D7"/>
</linearGradient>
<path fill="url(#SVGID_1_)" stroke="#6D6E70" stroke-miterlimit="10" d="M335.917,31.531c-0.719-0.308-0.939-1.031-1.092-1.031
	h5.197l-7.733-6.124c-1.445-1.626-3.805-3.759-7.762-5.895c-8.151-4.4-18.811-2.405-26.287,2.952
	c-11.338,8.125-17.954,22.335-17.954,22.335l-258.319,86.78l7.498,18.217l77-24.258l93.977-30.775l83.664-28.379
	C284.105,65.354,338.739,32.74,335.917,31.531z"/>
<linearGradient id="SVGID_2_" gradientUnits="userSpaceOnUse" x1="346.8403" y1="91.4185" x2="24.042" y2="91.4185">
	<stop  offset="0" style="stop-color:#FFFFFF"/>
	<stop  offset="0.154" style="stop-color:#F5F5F5"/>
	<stop  offset="0.4178" style="stop-color:#D9DADB"/>
	<stop  offset="0.5882" style="stop-color:#C4C5C7"/>
	<stop  offset="0.6405" style="stop-color:#CCCDCF"/>
	<stop  offset="0.7356" style="stop-color:#D2D4D5"/>
	<stop  offset="1" style="stop-color:#D4D6D7"/>
</linearGradient>
<path fill="url(#SVGID_2_)" stroke="#6D6E70" stroke-miterlimit="10" d="M24.042,143.953c0,0,0.536,6.886,1.548,8.906
	c0.955,1.909,5.86,6.209,5.86,6.209l255.444-89.124c0,0,5.161-1.89,8.437-1.653c4.58,0.331,8.338,2.909,14.41,3.776
	c4.896,0.699,21.974,5.183,30.073-6.502c10.464-15.095,7.064-27.729,3.624-32.325c-9.272-12.39-25.224-11.99-35.974-2.49
	c-7.796,6.89-11.719,17.133-16,23.25c-3.38,4.829-190.077,64.554-190.077,64.554L24.042,143.953z"/>
<linearGradient id="SVGID_3_" gradientUnits="userSpaceOnUse" x1="17.8179" y1="144.957" x2="36.0098" y2="144.957">
	<stop  offset="0" style="stop-color:#FFFFFF"/>
	<stop  offset="0.154" style="stop-color:#F5F5F5"/>
	<stop  offset="0.4178" style="stop-color:#D9DADB"/>
	<stop  offset="0.5882" style="stop-color:#C4C5C7"/>
	<stop  offset="0.6405" style="stop-color:#CCCDCF"/>
	<stop  offset="0.7356" style="stop-color:#D2D4D5"/>
	<stop  offset="1" style="stop-color:#D4D6D7"/>
</linearGradient>
<path fill="url(#SVGID_3_)" stroke="#6D6E70" stroke-miterlimit="10" d="M34.545,142.342c2.732,7.976,1.531,15.611-2.685,17.055
	c-4.215,1.445-9.847-3.85-12.578-11.824c-2.732-7.976-1.531-15.611,2.684-17.055C26.181,129.072,31.813,134.367,34.545,142.342z"/>
<path fill="#929497" d="M343.419,43.257c2.796,9.983-1.631,21.523-13.744,24.915c-12.111,3.392-24.195-1.953-26.99-11.938
	c-2.799-9.983,4.755-20.827,16.865-24.219C331.663,28.624,340.623,33.272,343.419,43.257z"/>
<path fill="none" stroke="#BE1E2D" stroke-miterlimit="10" d="M362.88,57.311"/>
<linearGradient id="SVGID_4_" gradientUnits="userSpaceOnUse" x1="306.3071" y1="60.3389" x2="365.7261" y2="60.3389">
	<stop  offset="0" style="stop-color:#FFFFFF"/>
	<stop  offset="0.154" style="stop-color:#F5F5F5"/>
	<stop  offset="0.4178" style="stop-color:#D9DADB"/>
	<stop  offset="0.5882" style="stop-color:#C4C5C7"/>
	<stop  offset="0.6405" style="stop-color:#CCCDCF"/>
	<stop  offset="0.7356" style="stop-color:#D2D4D5"/>
	<stop  offset="1" style="stop-color:#D4D6D7"/>
</linearGradient>
<path fill="url(#SVGID_4_)" stroke="#6D6E70" stroke-miterlimit="10" d="M365.726,59.862c0,0-23.717-20.442-25.271-21.603
	l-0.04-0.041l-0.011,0.005c-0.322-0.24-0.644-0.481-0.981-0.701c-4.88-3.181-11.251-4.299-17.542-2.537
	c-11.138,3.119-17.806,14.086-14.89,24.494c0.617,2.203,1.632,4.19,2.926,5.947l-0.014,0.018l0.055,0.037
	c2.605,3.512,27.173,21.044,27.173,21.044L365.726,59.862z"/>
<linearGradient id="SVGID_5_" gradientUnits="userSpaceOnUse" x1="20.4644" y1="252.7832" x2="68.7212" y2="252.7832">
	<stop  offset="0" style="stop-color:#FFFFFF"/>
	<stop  offset="1" style="stop-color:#838587"/>
</linearGradient>
<path fill="url(#SVGID_5_)" stroke="#6D6E70" stroke-miterlimit="10" d="M68.464,225.5H20.7l-0.235,48h0.004
	c0,0.013-0.004,0.026-0.004,0.039c0,3.604,10.803,6.527,24.129,6.527c13.325,0,24.128-2.923,24.128-6.527
	C68.721,273.217,68.464,225.5,68.464,225.5z"/>
<linearGradient id="SVGID_6_" gradientUnits="userSpaceOnUse" x1="73.4644" y1="255.7188" x2="116.8755" y2="255.7188">
	<stop  offset="0" style="stop-color:#FFFFFF"/>
	<stop  offset="1" style="stop-color:#838587"/>
</linearGradient>
<path fill="url(#SVGID_6_)" stroke="#6D6E70" stroke-miterlimit="10" d="M116.464,230.5H73.585v44h-0.117
	c0,0-0.004,0.277-0.004,0.288c0,3.326,9.758,6.149,21.796,6.149c12.037,0,21.615-2.634,21.615-5.96
	C116.875,274.681,116.464,230.5,116.464,230.5z"/>
<linearGradient id="SVGID_7_" gradientUnits="userSpaceOnUse" x1="120.4644" y1="255.1719" x2="161.4644" y2="255.1719">
	<stop  offset="0" style="stop-color:#FFFFFF"/>
	<stop  offset="1" style="stop-color:#838587"/>
</linearGradient>
<path fill="url(#SVGID_7_)" stroke="#6D6E70" stroke-miterlimit="10" d="M161.283,231.5l-40.651,0.226l-0.167,40.774h0.004
	c0,0-0.004,0.45-0.004,0.46c0,3.131,9.372,5.884,20.705,5.884c11.331,0,20.295-2.545,20.295-5.676
	C161.464,272.887,161.283,231.5,161.283,231.5z"/>
<linearGradient id="SVGID_8_" gradientUnits="userSpaceOnUse" x1="165.4644" y1="256.9023" x2="203.6489" y2="256.9023">
	<stop  offset="0" style="stop-color:#FFFFFF"/>
	<stop  offset="1" style="stop-color:#838587"/>
</linearGradient>
<path fill="url(#SVGID_8_)" stroke="#6D6E70" stroke-miterlimit="10" d="M203.333,235.199l-37.705-0.129l-0.164,37.43h0.004
	c0,0-0.004,0.637-0.004,0.646c0,2.916,8.729,5.588,19.283,5.588c10.553,0,18.901-2.211,18.901-5.127
	C203.649,273.347,203.333,235.199,203.333,235.199z"/>
<linearGradient id="SVGID_9_" gradientUnits="userSpaceOnUse" x1="207.4644" y1="257.332" x2="243.6724" y2="257.332">
	<stop  offset="0" style="stop-color:#FFFFFF"/>
	<stop  offset="1" style="stop-color:#838587"/>
</linearGradient>
<path fill="url(#SVGID_9_)" stroke="#6D6E70" stroke-miterlimit="10" d="M243.512,235.964l-35.9,0.233l-0.147,36.303h0.004
	c0,0-0.004,0.693-0.004,0.703c0,2.85,8.276,5.496,18.285,5.496c10.006,0,17.923-2.143,17.923-4.992
	C243.672,273.452,243.512,235.964,243.512,235.964z"/>
<linearGradient id="SVGID_10_" gradientUnits="userSpaceOnUse" x1="247.4644" y1="258.0801" x2="280.1011" y2="258.0801">
	<stop  offset="0" style="stop-color:#FFFFFF"/>
	<stop  offset="1" style="stop-color:#838587"/>
</linearGradient>
<path fill="url(#SVGID_10_)" stroke="#6D6E70" stroke-miterlimit="10" d="M279.957,237.5h-32.346l-0.146,35h0.004
	c0,0-0.004,0.752-0.004,0.762c0,2.779,7.46,5.399,16.481,5.399c9.02,0,16.155-1.831,16.155-4.61
	C280.101,273.803,279.957,237.5,279.957,237.5z"/>
<linearGradient id="SVGID_11_" gradientUnits="userSpaceOnUse" x1="283.4644" y1="258.5557" x2="313.7837" y2="258.5557">
	<stop  offset="0" style="stop-color:#FFFFFF"/>
	<stop  offset="1" style="stop-color:#838587"/>
</linearGradient>
<path fill="url(#SVGID_11_)" stroke="#6D6E70" stroke-miterlimit="10" d="M313.509,239.325l-29.96-0.825l-0.085,34h0.004
	c0,0-0.004,0.826-0.004,0.836c0,2.69,6.931,5.275,15.312,5.275c8.379,0,15.008-1.91,15.008-4.601
	C313.784,273.771,313.509,239.325,313.509,239.325z"/>
<linearGradient id="SVGID_12_" gradientUnits="userSpaceOnUse" x1="317.7241" y1="259.3809" x2="344.8335" y2="259.3809">
	<stop  offset="0" style="stop-color:#FFFFFF"/>
	<stop  offset="1" style="stop-color:#838587"/>
</linearGradient>
<path fill="url(#SVGID_12_)" stroke="#6D6E70" stroke-miterlimit="10" d="M344.371,240.484l-26.646-0.376v32.503h0.005
	c0,0-0.004,0.927-0.004,0.936c0,2.568,6.196,5.105,13.69,5.105c7.491,0,13.418-1.854,13.418-4.423
	C344.833,274.001,344.371,240.484,344.371,240.484z"/>
<g>
	<linearGradient id="SVGID_13_" gradientUnits="userSpaceOnUse" x1="348.4644" y1="274.5449" x2="348.4683" y2="274.5449">
		<stop  offset="0" style="stop-color:#FFFFFF"/>
		<stop  offset="1" style="stop-color:#838587"/>
	</linearGradient>
	<path fill="url(#SVGID_13_)" stroke="#6D6E70" stroke-miterlimit="10" d="M348.468,274.711l-0.001-0.318
		c0-0.005-0.003-0.01-0.003-0.014C348.464,274.373,348.468,274.711,348.468,274.711z"/>
	<linearGradient id="SVGID_14_" gradientUnits="userSpaceOnUse" x1="348.5278" y1="259.6074" x2="375.5874" y2="259.6074">
		<stop  offset="0" style="stop-color:#FFFFFF"/>
		<stop  offset="1" style="stop-color:#838587"/>
	</linearGradient>
	<path fill="url(#SVGID_14_)" stroke="#6D6E70" stroke-miterlimit="10" d="M375.453,254.52c0,0-0.902-0.376-2.606-0.798
		c-0.022-6.729-0.103-12.884-0.103-12.884l-22.158-0.164v13.144c-1,0.325-2,0.586-2,0.586v18.412l-0.058,1.577
		c0.035,1.61,6.185,4.147,13.657,4.147c7.491,0,13.402-2.103,13.402-3.713C375.587,274.685,375.453,254.52,375.453,254.52z"/>
</g>
<linearGradient id="SVGID_15_" gradientUnits="userSpaceOnUse" x1="20.6626" y1="225.1133" x2="68.4644" y2="225.1133">
	<stop  offset="0" style="stop-color:#FFFFFF"/>
	<stop  offset="1" style="stop-color:#838587"/>
</linearGradient>
<ellipse fill="url(#SVGID_15_)" stroke="#6D6E70" stroke-miterlimit="10" cx="44.563" cy="225.113" rx="23.901" ry="6.953"/>
<path fill="#404041" d="M24.033,226.807c0,0,3.516-1.693,4.374-2.531c0.938-0.916,2.673-2.98,2.673-2.98s6.403,0.449,10.566,0.223
	c4.521-0.246,9.875-1.707,9.875-1.707s3.032,1.802,5.002,2.451c2.66,0.877,8.992,1.377,8.992,1.377s-4.031,1.956-5.604,2.782
	c-0.983,0.517-3.616,2.819-3.616,2.819s-8.982-0.24-11.521-0.184c-2.659,0.059-9.748,0.797-9.748,0.797
	c-3.575-1.461-3.549-1.53-5.577-2.084C28.123,227.407,24.033,226.807,24.033,226.807z"/>
<linearGradient id="SVGID_16_" gradientUnits="userSpaceOnUse" x1="73.4644" y1="230.0566" x2="116.8237" y2="230.0566">
	<stop  offset="0" style="stop-color:#FFFFFF"/>
	<stop  offset="1" style="stop-color:#838587"/>
</linearGradient>
<path fill="url(#SVGID_16_)" stroke="#6D6E70" stroke-miterlimit="10" d="M116.824,230.058c0,3.704-9.667,6.707-21.59,6.707
	c-11.924,0-21.77-3.004-21.77-6.708c0-3.705,9.846-6.707,21.77-6.707C107.157,223.35,116.824,226.353,116.824,230.058z"/>
<path fill="#404041" d="M76.688,231.691c0,0,3.176-1.634,3.951-2.442c0.848-0.883,2.414-2.875,2.414-2.875s5.784,0.434,9.545,0.215
	c4.083-0.237,8.92-1.646,8.92-1.646s2.739,1.738,4.519,2.364c2.403,0.847,8.123,1.328,8.123,1.328s-3.642,1.888-5.063,2.685
	c-0.888,0.498-3.266,2.72-3.266,2.72s-8.114-0.232-10.408-0.178c-2.402,0.057-8.806,0.769-8.806,0.769
	c-3.229-1.409-3.205-1.476-5.038-2.01C80.382,232.271,76.688,231.691,76.688,231.691z"/>
<linearGradient id="SVGID_17_" gradientUnits="userSpaceOnUse" x1="120.6323" y1="231.9805" x2="161.2827" y2="231.9805">
	<stop  offset="0" style="stop-color:#FFFFFF"/>
	<stop  offset="1" style="stop-color:#838587"/>
</linearGradient>
<ellipse fill="url(#SVGID_17_)" stroke="#6D6E70" stroke-miterlimit="10" cx="140.958" cy="231.981" rx="20.325" ry="6.313"/>
<path fill="#404041" d="M123.5,233.52c0,0,2.989-1.538,3.719-2.3c0.798-0.831,2.272-2.706,2.272-2.706s5.445,0.408,8.985,0.202
	c3.844-0.224,8.397-1.55,8.397-1.55s2.579,1.637,4.254,2.226c2.263,0.797,7.646,1.25,7.646,1.25s-3.428,1.777-4.766,2.527
	c-0.835,0.469-3.074,2.561-3.074,2.561s-7.639-0.219-9.798-0.167c-2.262,0.053-8.289,0.723-8.289,0.723
	c-3.041-1.326-3.018-1.389-4.743-1.892C126.977,234.064,123.5,233.52,123.5,233.52z"/>
<linearGradient id="SVGID_18_" gradientUnits="userSpaceOnUse" x1="165.6206" y1="235.1992" x2="203.48" y2="235.1992">
	<stop  offset="0" style="stop-color:#FFFFFF"/>
	<stop  offset="1" style="stop-color:#838587"/>
</linearGradient>
<ellipse fill="url(#SVGID_18_)" stroke="#6D6E70" stroke-miterlimit="10" cx="184.55" cy="235.199" rx="18.93" ry="5.88"/>
<path fill="#404041" d="M168.292,236.632c0,0,2.784-1.433,3.463-2.142c0.743-0.774,2.116-2.521,2.116-2.521s5.072,0.38,8.369,0.188
	c3.579-0.208,7.82-1.443,7.82-1.443s2.402,1.524,3.962,2.072c2.107,0.742,7.121,1.164,7.121,1.164s-3.192,1.655-4.438,2.354
	c-0.777,0.437-2.863,2.385-2.863,2.385s-7.113-0.204-9.125-0.156c-2.105,0.05-7.72,0.674-7.72,0.674
	c-2.832-1.235-2.81-1.294-4.417-1.762C171.53,237.14,168.292,236.632,168.292,236.632z"/>
<linearGradient id="SVGID_19_" gradientUnits="userSpaceOnUse" x1="207.772" y1="236.0938" x2="243.6724" y2="236.0938">
	<stop  offset="0" style="stop-color:#FFFFFF"/>
	<stop  offset="1" style="stop-color:#838587"/>
</linearGradient>
<ellipse fill="url(#SVGID_19_)" stroke="#6D6E70" stroke-miterlimit="10" cx="225.722" cy="236.094" rx="17.95" ry="5.745"/>
<path fill="#404041" d="M210.146,237.597c0,0,2.639-1.399,3.283-2.093c0.704-0.757,2.006-2.463,2.006-2.463s4.811,0.371,7.936,0.185
	c3.396-0.203,7.416-1.41,7.416-1.41s2.277,1.489,3.757,2.024c1.999,0.726,6.753,1.138,6.753,1.138s-3.027,1.617-4.209,2.301
	c-0.737,0.426-2.715,2.33-2.715,2.33s-6.745-0.2-8.653-0.153c-1.995,0.049-7.32,0.658-7.32,0.658
	c-2.685-1.207-2.664-1.264-4.188-1.721C213.216,238.093,210.146,237.597,210.146,237.597z"/>
<linearGradient id="SVGID_20_" gradientUnits="userSpaceOnUse" x1="247.5972" y1="237.2461" x2="279.9565" y2="237.2461">
	<stop  offset="0" style="stop-color:#FFFFFF"/>
	<stop  offset="1" style="stop-color:#838587"/>
</linearGradient>
<ellipse fill="url(#SVGID_20_)" stroke="#6D6E70" stroke-miterlimit="10" cx="263.777" cy="237.246" rx="16.18" ry="5.604"/>
<path fill="#404041" d="M249.881,238.611c0,0,2.378-1.365,2.96-2.042c0.635-0.737,1.808-2.401,1.808-2.401s4.336,0.361,7.153,0.18
	c3.06-0.198,6.685-1.375,6.685-1.375s2.052,1.452,3.385,1.974c1.803,0.708,6.088,1.11,6.088,1.11s-2.729,1.577-3.794,2.244
	c-0.664,0.415-2.447,2.272-2.447,2.272s-6.08-0.195-7.8-0.149c-1.799,0.047-6.598,0.642-6.598,0.642
	c-2.421-1.178-2.402-1.232-3.774-1.679C252.65,239.095,249.881,238.611,249.881,238.611z"/>
<linearGradient id="SVGID_21_" gradientUnits="userSpaceOnUse" x1="283.4644" y1="238.5811" x2="313.6499" y2="238.5811">
	<stop  offset="0" style="stop-color:#FFFFFF"/>
	<stop  offset="1" style="stop-color:#838587"/>
</linearGradient>
<path fill="url(#SVGID_21_)" stroke="#6D6E70" stroke-miterlimit="10" d="M313.65,238.582c0,2.995-6.73,5.422-15.031,5.422
	s-15.154-2.428-15.154-5.423s6.854-5.423,15.154-5.423S313.65,235.586,313.65,238.582z"/>
<path fill="#404041" d="M285.709,239.903c0,0,2.209-1.321,2.75-1.976c0.59-0.714,1.68-2.325,1.68-2.325s4.028,0.351,6.645,0.175
	c2.843-0.191,6.211-1.33,6.211-1.33s1.905,1.404,3.144,1.909c1.676,0.685,5.656,1.074,5.656,1.074s-2.535,1.526-3.524,2.172
	c-0.617,0.402-2.274,2.199-2.274,2.199s-5.647-0.188-7.245-0.145c-1.672,0.045-6.13,0.621-6.13,0.621
	c-2.249-1.14-2.231-1.193-3.506-1.625C288.282,240.371,285.709,239.903,285.709,239.903z"/>
<linearGradient id="SVGID_22_" gradientUnits="userSpaceOnUse" x1="317.5737" y1="240.3906" x2="344.4526" y2="240.3906">
	<stop  offset="0" style="stop-color:#FFFFFF"/>
	<stop  offset="1" style="stop-color:#838587"/>
</linearGradient>
<ellipse fill="url(#SVGID_22_)" stroke="#6D6E70" stroke-miterlimit="10" cx="331.013" cy="240.392" rx="13.439" ry="5.178"/>
<path fill="#404041" d="M319.472,241.653c0,0,1.975-1.262,2.458-1.887c0.528-0.681,1.502-2.219,1.502-2.219s3.603,0.334,5.94,0.166
	c2.543-0.184,5.554-1.27,5.554-1.27s1.704,1.341,2.811,1.823c1.498,0.653,5.058,1.025,5.058,1.025s-2.267,1.457-3.151,2.072
	c-0.552,0.385-2.033,2.101-2.033,2.101s-5.05-0.181-6.479-0.138c-1.494,0.043-5.48,0.594-5.48,0.594
	c-2.011-1.089-1.994-1.14-3.134-1.552C321.772,242.101,319.472,241.653,319.472,241.653z"/>
<linearGradient id="SVGID_23_" gradientUnits="userSpaceOnUse" x1="350.4644" y1="241.0215" x2="372.8032" y2="241.0215">
	<stop  offset="0" style="stop-color:#FFFFFF"/>
	<stop  offset="1" style="stop-color:#838587"/>
</linearGradient>
<ellipse fill="url(#SVGID_23_)" stroke="#6D6E70" stroke-miterlimit="10" cx="361.634" cy="241.023" rx="11.169" ry="4.576"/>
<path fill="#404041" d="M352.126,242.138c0,0,1.635-1.114,2.034-1.668c0.438-0.602,1.243-1.961,1.243-1.961s2.982,0.295,4.917,0.146
	c2.104-0.161,4.597-1.122,4.597-1.122s1.41,1.186,2.326,1.612c1.241,0.577,4.187,0.906,4.187,0.906s-1.876,1.288-2.608,1.833
	c-0.456,0.34-1.683,1.856-1.683,1.856s-4.18-0.159-5.362-0.121c-1.236,0.038-4.536,0.523-4.536,0.523
	c-1.665-0.963-1.651-1.006-2.594-1.371C354.03,242.532,352.126,242.138,352.126,242.138z"/>
<linearGradient id="SVGID_24_" gradientUnits="userSpaceOnUse" x1="331.354" y1="71.9976" x2="368.5435" y2="71.9976">
	<stop  offset="0" style="stop-color:#FFFFFF"/>
	<stop  offset="0.154" style="stop-color:#F5F5F5"/>
	<stop  offset="0.4178" style="stop-color:#D9DADB"/>
	<stop  offset="0.5882" style="stop-color:#C4C5C7"/>
	<stop  offset="0.6405" style="stop-color:#CCCDCF"/>
	<stop  offset="0.7356" style="stop-color:#D2D4D5"/>
	<stop  offset="1" style="stop-color:#D4D6D7"/>
</linearGradient>
<path fill="url(#SVGID_24_)" stroke="#6D6E70" stroke-miterlimit="10" d="M367.019,60.737c4.064,6.164-0.279,16.202-9.708,22.422
	c-9.427,6.219-20.365,6.264-24.431,0.099c-4.068-6.162,0.277-16.202,9.704-22.421c5.323-3.512,11.13-5.055,15.908-4.624
	C362.175,56.547,365.248,58.054,367.019,60.737z"/>
<path fill="#E6E7E8" stroke="#231F20" stroke-miterlimit="10" d="M364.854,63.056c3.265,4.947-0.599,13.253-8.63,18.552
	c-3.011,1.986-6.181,3.268-9.139,3.832c-4.93,0.941-9.271-0.107-11.312-3.201c-1.701-2.577-1.468-6.067,0.282-9.569
	c0.168-0.335,0.35-0.67,0.545-1.005c1.677-2.878,4.354-5.704,7.8-7.977c4.535-2.992,9.43-4.384,13.419-4.14
	C360.895,59.737,363.431,60.9,364.854,63.056z"/>
<line fill="#E6E7E8" stroke="#D0D2D3" stroke-miterlimit="10" x1="336.419" y1="73.646" x2="347.73" y2="85.708"/>
<line fill="#E6E7E8" stroke="#D0D2D3" stroke-miterlimit="10" x1="351.537" y1="61.339" x2="364.05" y2="73.838"/>
<path fill="none" stroke="#231F20" stroke-miterlimit="10" d="M364.854,63.056c3.265,4.947-0.599,13.253-8.63,18.552
	c-3.011,1.986-6.181,3.268-9.139,3.832c-4.93,0.941-9.271-0.107-11.312-3.201c-1.701-2.577-1.468-6.067,0.282-9.569
	c0.168-0.335,0.35-0.67,0.545-1.005c1.677-2.878,4.354-5.704,7.8-7.977c4.535-2.992,9.43-4.384,13.419-4.14
	C360.895,59.737,363.431,60.9,364.854,63.056z"/>
<path fill="#E6E7E8" stroke="#D0D2D3" stroke-width="2" stroke-miterlimit="10" d="M338.817,69.571"/>
<polygon fill="#A6A8AB" points="336.419,74.184 338.519,69.924 340.906,67.857 343.419,65.906 358.05,81.297 353.336,84.277 
	348.02,86.237 "/>
<polygon fill="#A6A8AB" points="343.419,65.646 346.601,63.375 348.906,62.857 351.419,60.906 364.344,74.059 360.874,78.756 
	358.05,81.297 "/>
<line fill="#E6E7E8" stroke="#E6E7E8" stroke-width="2" stroke-miterlimit="10" x1="343.419" y1="65.646" x2="358.05" y2="80.838"/>
<polygon fill="#A6A8AB" points="335.285,75.491 345.468,86.237 341.553,86.604 336.503,84.157 334.617,79.296 "/>
<polyline fill="#BBBDBF" points="353.882,59.906 365.248,71.065 365.726,68.117 365.624,64.646 364.05,62.063 361.451,60.339 
	357.82,59.548 "/>
<path fill="none" stroke="#6D6E70" stroke-miterlimit="10" d="M364.854,63.056c3.265,4.947-0.599,13.253-8.63,18.552
	c-3.011,1.986-6.181,3.268-9.139,3.832c-4.93,0.941-9.271-0.107-11.312-3.201c-1.701-2.577-1.468-6.067,0.282-9.569
	c0.168-0.335,0.35-0.67,0.545-1.005c1.677-2.878,4.354-5.704,7.8-7.977c4.535-2.992,9.43-4.384,13.419-4.14
	C360.895,59.737,363.431,60.9,364.854,63.056z"/>
<path fill="#D0D2D3" d="M355.718,59.849c0.356,0.139,0.142,0.846-0.14,1.509c-0.282,0.664-0.557,1.688-1.423,2.334
	c-2.619,1.955-4.606,3.896-5.515,5.794c-0.188,0.392-0.661,0.554-0.991,0.813c-0.26,0.205-0.486,0.484-0.804,0.615
	c-2.618,1.083-6.081,2.924-8.425,4.867c-1.358,1.126-2.229,0.833-2.586,0.291c-0.942-1.427,3.509-7.979,7.898-11.405
	C348.553,60.906,355.42,59.732,355.718,59.849z"/>
<path fill="#58595B" d="M354.665,60.15c-0.155,0.852-0.409,2.147-0.409,2.147s-2.795,1.941-4.359,3.492
	c-1.703,1.686-3.16,4.34-3.16,4.34s-2.508,0.393-4.186,1.331c-2.956,1.653-5.28,4.303-5.28,4.303s-1.156-0.165-1.253-1.082
	c-0.063-0.601,0.88-1.933,0.974-2.33c0.147-0.626,2.435-3.834,3.81-4.967c0.399-0.329,1.619-1.578,2.99-2.557
	c2.854-2.037,4.832-2.95,6.667-3.535C352.533,60.632,354.701,59.952,354.665,60.15z"/>
<g>
	<path fill="#221F1F" d="M174.558,202.205l1.688-0.164c0.102,0.566,0.308,0.982,0.618,1.248s0.729,0.398,1.257,0.398
		c0.559,0,0.979-0.118,1.263-0.354s0.425-0.513,0.425-0.829c0-0.203-0.06-0.376-0.179-0.519s-0.327-0.267-0.624-0.372
		c-0.203-0.07-0.666-0.195-1.389-0.375c-0.93-0.23-1.582-0.514-1.957-0.85c-0.527-0.473-0.791-1.049-0.791-1.729
		c0-0.438,0.124-0.847,0.372-1.228s0.605-0.671,1.072-0.87s1.03-0.299,1.69-0.299c1.078,0,1.89,0.236,2.435,0.709
		s0.831,1.104,0.858,1.893l-1.734,0.076c-0.074-0.441-0.233-0.759-0.478-0.952s-0.61-0.29-1.099-0.29
		c-0.504,0-0.898,0.104-1.184,0.311c-0.184,0.133-0.275,0.311-0.275,0.533c0,0.203,0.086,0.377,0.258,0.521
		c0.219,0.184,0.75,0.375,1.594,0.574s1.468,0.405,1.872,0.618s0.721,0.504,0.949,0.873s0.343,0.825,0.343,1.368
		c0,0.492-0.137,0.953-0.41,1.383s-0.66,0.749-1.16,0.958s-1.123,0.313-1.869,0.313c-1.086,0-1.92-0.251-2.502-0.753
		S174.671,203.166,174.558,202.205z"/>
	<path fill="#221F1F" d="M182.65,200.758c0-0.875,0.131-1.609,0.393-2.203c0.195-0.438,0.462-0.83,0.8-1.178s0.708-0.605,1.11-0.773
		c0.535-0.227,1.152-0.34,1.852-0.34c1.266,0,2.278,0.393,3.038,1.178s1.14,1.877,1.14,3.275c0,1.387-0.377,2.472-1.131,3.255
		s-1.762,1.175-3.023,1.175c-1.277,0-2.293-0.39-3.047-1.169S182.65,202.125,182.65,200.758z M184.437,200.699
		c0,0.973,0.225,1.71,0.674,2.212s1.02,0.753,1.711,0.753s1.259-0.249,1.702-0.747s0.665-1.245,0.665-2.241
		c0-0.984-0.216-1.719-0.647-2.203s-1.005-0.727-1.72-0.727s-1.291,0.245-1.729,0.735S184.437,199.711,184.437,200.699z"/>
	<path fill="#221F1F" d="M199.25,203.91c0.426,0.305,0.889,0.547,1.389,0.727L200,205.861c-0.262-0.078-0.518-0.186-0.768-0.322
		c-0.055-0.027-0.439-0.281-1.154-0.762c-0.563,0.246-1.186,0.369-1.869,0.369c-1.32,0-2.354-0.389-3.103-1.166
		s-1.122-1.869-1.122-3.275c0-1.402,0.375-2.493,1.125-3.272s1.768-1.169,3.053-1.169c1.273,0,2.283,0.39,3.029,1.169
		s1.119,1.87,1.119,3.272c0,0.742-0.104,1.395-0.311,1.957C199.843,203.092,199.593,203.508,199.25,203.91z M197.855,202.932
		c0.223-0.262,0.39-0.578,0.501-0.949s0.167-0.797,0.167-1.277c0-0.992-0.219-1.733-0.656-2.224s-1.01-0.735-1.717-0.735
		s-1.28,0.246-1.72,0.738s-0.659,1.232-0.659,2.221c0,1.004,0.22,1.755,0.659,2.253s0.995,0.747,1.667,0.747
		c0.25,0,0.486-0.041,0.709-0.123c-0.352-0.23-0.709-0.41-1.072-0.539l0.486-0.99C196.791,202.248,197.335,202.541,197.855,202.932z
		"/>
	<path fill="#221F1F" d="M201.658,196.41h1.734v4.652c0,0.738,0.021,1.217,0.064,1.436c0.074,0.352,0.251,0.634,0.53,0.847
		s0.661,0.319,1.146,0.319c0.492,0,0.863-0.101,1.113-0.302s0.4-0.448,0.451-0.741s0.076-0.779,0.076-1.459v-4.752h1.734v4.512
		c0,1.031-0.047,1.76-0.141,2.186s-0.267,0.785-0.519,1.078s-0.589,0.526-1.011,0.7s-0.973,0.261-1.652,0.261
		c-0.82,0-1.442-0.095-1.866-0.284s-0.759-0.436-1.005-0.738s-0.408-0.62-0.486-0.952c-0.113-0.492-0.17-1.219-0.17-2.18V196.41z"/>
	<path fill="#221F1F" d="M210.335,205v-8.59h6.369v1.453h-4.635v1.904h4.313v1.447h-4.313v2.338h4.799V205H210.335z"/>
	<path fill="#221F1F" d="M220.273,205v-7.137h-2.549v-1.453h6.826v1.453h-2.543V205H220.273z"/>
	<path fill="#221F1F" d="M225.669,205v-8.59h6.369v1.453h-4.635v1.904h4.313v1.447h-4.313v2.338h4.799V205H225.669z"/>
	<path fill="#221F1F" d="M233.234,202.205l1.688-0.164c0.102,0.566,0.308,0.982,0.618,1.248s0.729,0.398,1.257,0.398
		c0.559,0,0.979-0.118,1.263-0.354s0.425-0.513,0.425-0.829c0-0.203-0.06-0.376-0.179-0.519s-0.327-0.267-0.624-0.372
		c-0.203-0.07-0.666-0.195-1.389-0.375c-0.93-0.23-1.582-0.514-1.957-0.85c-0.527-0.473-0.791-1.049-0.791-1.729
		c0-0.438,0.124-0.847,0.372-1.228s0.605-0.671,1.072-0.87s1.03-0.299,1.69-0.299c1.078,0,1.89,0.236,2.435,0.709
		s0.831,1.104,0.858,1.893l-1.734,0.076c-0.074-0.441-0.233-0.759-0.478-0.952s-0.61-0.29-1.099-0.29
		c-0.504,0-0.898,0.104-1.184,0.311c-0.184,0.133-0.275,0.311-0.275,0.533c0,0.203,0.086,0.377,0.258,0.521
		c0.219,0.184,0.75,0.375,1.594,0.574s1.468,0.405,1.872,0.618s0.721,0.504,0.949,0.873s0.343,0.825,0.343,1.368
		c0,0.492-0.137,0.953-0.41,1.383s-0.66,0.749-1.16,0.958s-1.123,0.313-1.869,0.313c-1.086,0-1.92-0.251-2.502-0.753
		S233.347,203.166,233.234,202.205z"/>
</g>
<g>
	<path fill="#221F1F" d="M106.344,58.998h3.434c0.68,0,1.187,0.028,1.521,0.085s0.633,0.175,0.896,0.354s0.483,0.419,0.659,0.718
		s0.264,0.634,0.264,1.005c0,0.402-0.108,0.771-0.325,1.107s-0.511,0.588-0.882,0.756c0.523,0.152,0.926,0.412,1.207,0.779
		s0.422,0.799,0.422,1.295c0,0.391-0.091,0.771-0.272,1.14s-0.43,0.664-0.744,0.885s-0.702,0.356-1.163,0.407
		c-0.289,0.031-0.986,0.051-2.092,0.059h-2.924V58.998z M108.079,60.428v1.986h1.137c0.676,0,1.096-0.01,1.26-0.029
		c0.297-0.035,0.53-0.138,0.7-0.308s0.255-0.394,0.255-0.671c0-0.266-0.073-0.481-0.22-0.647s-0.364-0.267-0.653-0.302
		c-0.172-0.02-0.666-0.029-1.482-0.029H108.079z M108.079,63.844v2.297h1.605c0.625,0,1.021-0.018,1.189-0.053
		c0.258-0.047,0.468-0.161,0.63-0.343s0.243-0.425,0.243-0.729c0-0.258-0.063-0.477-0.188-0.656s-0.306-0.311-0.542-0.393
		s-0.749-0.123-1.538-0.123H108.079z"/>
	<path fill="#221F1F" d="M115.01,67.588v-8.59h3.65c0.918,0,1.585,0.077,2.001,0.231s0.749,0.429,0.999,0.823
		s0.375,0.846,0.375,1.354c0,0.645-0.189,1.177-0.568,1.597s-0.945,0.685-1.699,0.794c0.375,0.219,0.685,0.459,0.929,0.721
		s0.573,0.727,0.987,1.395l1.049,1.676h-2.074l-1.254-1.869c-0.445-0.668-0.75-1.089-0.914-1.263s-0.338-0.293-0.521-0.357
		s-0.475-0.097-0.873-0.097h-0.352v3.586H115.01z M116.745,62.631h1.283c0.832,0,1.352-0.035,1.559-0.105s0.369-0.191,0.486-0.363
		s0.176-0.387,0.176-0.645c0-0.289-0.077-0.522-0.231-0.7s-0.372-0.29-0.653-0.337c-0.141-0.02-0.563-0.029-1.266-0.029h-1.354
		V62.631z"/>
	<path fill="#221F1F" d="M131.417,67.588h-1.887l-0.75-1.951h-3.434l-0.709,1.951h-1.84l3.346-8.59h1.834L131.417,67.588z
		 M128.223,64.189l-1.184-3.188l-1.16,3.188H128.223z"/>
	<path fill="#221F1F" d="M137.833,64.43l1.682,0.533c-0.258,0.938-0.687,1.634-1.286,2.089s-1.36,0.683-2.282,0.683
		c-1.141,0-2.078-0.39-2.813-1.169s-1.102-1.845-1.102-3.196c0-1.43,0.369-2.54,1.107-3.331s1.709-1.187,2.912-1.187
		c1.051,0,1.904,0.311,2.561,0.932c0.391,0.367,0.684,0.895,0.879,1.582l-1.717,0.41c-0.102-0.445-0.313-0.797-0.636-1.055
		s-0.714-0.387-1.175-0.387c-0.637,0-1.153,0.229-1.55,0.686s-0.595,1.197-0.595,2.221c0,1.086,0.195,1.859,0.586,2.32
		s0.898,0.691,1.523,0.691c0.461,0,0.857-0.146,1.189-0.439S137.688,65.059,137.833,64.43z M134.188,69.949v-0.691
		c0.402,0.043,0.771,0.064,1.107,0.064c0.348,0,0.605-0.063,0.773-0.188c0.129-0.094,0.193-0.215,0.193-0.363
		c0-0.133-0.061-0.248-0.182-0.346s-0.309-0.146-0.563-0.146c-0.25,0-0.506,0.039-0.768,0.117l0.152-0.58
		c0.305-0.105,0.633-0.158,0.984-0.158c0.488,0,0.859,0.107,1.113,0.322s0.381,0.477,0.381,0.785c0,0.344-0.141,0.623-0.422,0.838
		c-0.379,0.293-0.922,0.439-1.629,0.439C134.827,70.043,134.446,70.012,134.188,69.949z"/>
	<path fill="#221F1F" d="M140.651,63.346c0-0.875,0.131-1.609,0.393-2.203c0.195-0.438,0.462-0.83,0.8-1.178s0.708-0.605,1.11-0.773
		c0.535-0.227,1.152-0.34,1.852-0.34c1.266,0,2.278,0.393,3.038,1.178s1.14,1.877,1.14,3.275c0,1.387-0.377,2.472-1.131,3.255
		s-1.762,1.175-3.023,1.175c-1.277,0-2.293-0.39-3.047-1.169S140.651,64.713,140.651,63.346z M142.438,63.287
		c0,0.973,0.225,1.71,0.674,2.212s1.02,0.753,1.711,0.753s1.259-0.249,1.702-0.747s0.665-1.245,0.665-2.241
		c0-0.984-0.216-1.719-0.647-2.203s-1.005-0.727-1.72-0.727s-1.291,0.245-1.729,0.735S142.438,62.299,142.438,63.287z"/>
</g>
<g>
	<path fill="#221F1F" d="M341.972,224.973v-7.158h1.426l1.694,5.068c0.156,0.472,0.271,0.825,0.342,1.06
		c0.081-0.261,0.208-0.643,0.381-1.147l1.714-4.98h1.274v7.158h-0.913v-5.991l-2.08,5.991h-0.854l-2.07-6.094v6.094H341.972z"/>
	<path fill="#221F1F" d="M350.351,224.973v-7.158h5.176v0.845h-4.229v2.192h3.96v0.84h-3.96v2.437h4.395v0.845H350.351z"/>
	<path fill="#221F1F" d="M356.992,224.973v-7.158h0.972l3.76,5.62v-5.62h0.908v7.158h-0.972l-3.76-5.625v5.625H356.992z"/>
	<path fill="#221F1F" d="M363.935,221.486c0-1.188,0.319-2.118,0.957-2.791c0.638-0.672,1.462-1.008,2.471-1.008
		c0.661,0,1.257,0.158,1.787,0.474s0.936,0.756,1.213,1.321c0.279,0.564,0.418,1.205,0.418,1.921c0,0.726-0.146,1.375-0.439,1.948
		s-0.708,1.007-1.245,1.301c-0.537,0.295-1.116,0.442-1.738,0.442c-0.674,0-1.276-0.163-1.807-0.488s-0.933-0.77-1.206-1.333
		S363.935,222.114,363.935,221.486z M364.912,221.501c0,0.862,0.232,1.542,0.695,2.038c0.465,0.497,1.046,0.745,1.746,0.745
		c0.713,0,1.3-0.251,1.76-0.752c0.461-0.501,0.691-1.213,0.691-2.134c0-0.583-0.099-1.092-0.295-1.525
		c-0.197-0.436-0.485-0.771-0.865-1.012c-0.379-0.238-0.805-0.358-1.276-0.358c-0.671,0-1.247,0.23-1.731,0.69
		C365.154,219.654,364.912,220.424,364.912,221.501z"/>
	<path fill="#221F1F" d="M372.016,224.973v-7.158h3.174c0.638,0,1.123,0.064,1.455,0.193c0.332,0.128,0.598,0.355,0.796,0.681
		s0.298,0.686,0.298,1.079c0,0.508-0.164,0.936-0.493,1.284s-0.837,0.569-1.523,0.664c0.251,0.12,0.441,0.239,0.571,0.356
		c0.276,0.254,0.539,0.571,0.786,0.952l1.245,1.948h-1.191l-0.947-1.489c-0.276-0.43-0.505-0.759-0.684-0.986
		s-0.339-0.388-0.481-0.479c-0.141-0.091-0.285-0.154-0.432-0.19c-0.107-0.022-0.283-0.034-0.527-0.034h-1.099v3.179H372.016z
		 M372.963,220.974H375c0.433,0,0.771-0.045,1.016-0.134c0.244-0.09,0.43-0.233,0.557-0.43c0.127-0.197,0.19-0.411,0.19-0.643
		c0-0.339-0.123-0.617-0.368-0.835c-0.246-0.218-0.635-0.327-1.165-0.327h-2.266V220.974z"/>
</g>
<g>
	<path fill="#221F1F" d="M28.916,205v-7.158h1.426l1.694,5.068c0.156,0.472,0.271,0.825,0.342,1.06
		c0.081-0.261,0.208-0.643,0.381-1.147l1.714-4.98h1.274V205h-0.913v-5.991L32.753,205h-0.854l-2.07-6.094V205H28.916z"/>
	<path fill="#221F1F" d="M36.489,205l2.749-7.158h1.021l2.93,7.158h-1.079l-0.835-2.168h-2.993L37.495,205H36.489z M38.554,202.061
		h2.427l-0.747-1.982c-0.228-0.603-0.397-1.097-0.508-1.484c-0.091,0.459-0.22,0.915-0.386,1.367L38.554,202.061z"/>
	<path fill="#221F1F" d="M44.106,205v-7.158h0.947V205H44.106z"/>
	<path fill="#221F1F" d="M46.435,201.514c0-1.188,0.319-2.118,0.957-2.791c0.638-0.672,1.462-1.008,2.471-1.008
		c0.661,0,1.257,0.158,1.787,0.474s0.936,0.756,1.213,1.321c0.279,0.564,0.418,1.205,0.418,1.921c0,0.726-0.146,1.375-0.439,1.948
		s-0.708,1.007-1.245,1.301c-0.537,0.295-1.116,0.442-1.738,0.442c-0.674,0-1.276-0.163-1.807-0.488s-0.933-0.77-1.206-1.333
		S46.435,202.142,46.435,201.514z M47.412,201.528c0,0.862,0.232,1.542,0.695,2.038c0.465,0.497,1.046,0.745,1.746,0.745
		c0.713,0,1.3-0.251,1.76-0.752c0.461-0.501,0.691-1.213,0.691-2.134c0-0.583-0.099-1.092-0.295-1.525
		c-0.197-0.436-0.485-0.771-0.865-1.012c-0.379-0.238-0.805-0.358-1.276-0.358c-0.671,0-1.247,0.23-1.731,0.69
		C47.654,199.682,47.412,200.451,47.412,201.528z"/>
	<path fill="#221F1F" d="M54.516,205v-7.158h3.174c0.638,0,1.123,0.064,1.455,0.193c0.332,0.128,0.598,0.355,0.796,0.681
		s0.298,0.686,0.298,1.079c0,0.508-0.164,0.936-0.493,1.284s-0.837,0.569-1.523,0.664c0.251,0.12,0.441,0.239,0.571,0.356
		c0.276,0.254,0.539,0.571,0.786,0.952L60.825,205h-1.191l-0.947-1.489c-0.276-0.43-0.505-0.759-0.684-0.986
		s-0.339-0.388-0.481-0.479c-0.141-0.091-0.285-0.154-0.432-0.19c-0.107-0.022-0.283-0.034-0.527-0.034h-1.099V205H54.516z
		 M55.463,201.001H57.5c0.433,0,0.771-0.045,1.016-0.134c0.244-0.09,0.43-0.233,0.557-0.43c0.127-0.197,0.19-0.411,0.19-0.643
		c0-0.339-0.123-0.617-0.368-0.835c-0.246-0.218-0.635-0.327-1.165-0.327h-2.266V201.001z"/>
</g>
<g>
	<path fill="#231F20" d="M38.425,297.573c-0.582-0.734-1.074-1.594-1.477-2.578s-0.604-2.004-0.604-3.059
		c0-0.93,0.15-1.82,0.451-2.672c0.352-0.988,0.895-1.973,1.629-2.953h0.756c-0.473,0.813-0.785,1.393-0.938,1.74
		c-0.238,0.539-0.426,1.102-0.563,1.688c-0.168,0.73-0.252,1.465-0.252,2.203c0,1.879,0.584,3.756,1.752,5.631H38.425z"/>
	<path fill="#231F20" d="M39.597,295.048l3.299-8.59h1.225l3.516,8.59h-1.295l-1.002-2.602h-3.592l-0.943,2.602H39.597z
		 M42.076,291.521h2.912l-0.896-2.379c-0.273-0.723-0.477-1.316-0.609-1.781c-0.109,0.551-0.264,1.098-0.463,1.641L42.076,291.521z"
		/>
	<path fill="#231F20" d="M49.101,297.573h-0.756c1.168-1.875,1.752-3.752,1.752-5.631c0-0.734-0.084-1.463-0.252-2.186
		c-0.133-0.586-0.318-1.148-0.557-1.688c-0.152-0.352-0.467-0.938-0.943-1.758h0.756c0.734,0.98,1.277,1.965,1.629,2.953
		c0.301,0.852,0.451,1.742,0.451,2.672c0,1.055-0.202,2.074-0.606,3.059S49.679,296.839,49.101,297.573z"/>
</g>
<g>
	<path fill="#231F20" d="M90.425,297.573c-0.582-0.734-1.074-1.594-1.477-2.578s-0.604-2.004-0.604-3.059
		c0-0.93,0.15-1.82,0.451-2.672c0.352-0.988,0.895-1.973,1.629-2.953h0.756c-0.473,0.813-0.785,1.393-0.938,1.74
		c-0.238,0.539-0.426,1.102-0.563,1.688c-0.168,0.73-0.252,1.465-0.252,2.203c0,1.879,0.584,3.756,1.752,5.631H90.425z"/>
	<path fill="#231F20" d="M92.494,295.048v-8.59h3.223c0.656,0,1.183,0.087,1.579,0.261s0.707,0.441,0.932,0.803
		s0.337,0.739,0.337,1.134c0,0.367-0.1,0.713-0.299,1.037s-0.5,0.586-0.902,0.785c0.52,0.152,0.919,0.412,1.198,0.779
		s0.419,0.801,0.419,1.301c0,0.402-0.085,0.776-0.255,1.122s-0.38,0.612-0.63,0.8s-0.563,0.329-0.94,0.425s-0.839,0.144-1.386,0.144
		H92.494z M93.63,290.067h1.857c0.504,0,0.865-0.033,1.084-0.1c0.289-0.086,0.507-0.229,0.653-0.428s0.22-0.449,0.22-0.75
		c0-0.285-0.068-0.536-0.205-0.753s-0.332-0.365-0.586-0.445s-0.689-0.12-1.307-0.12H93.63V290.067z M93.63,294.034h2.139
		c0.367,0,0.625-0.014,0.773-0.041c0.262-0.047,0.48-0.125,0.656-0.234s0.32-0.269,0.434-0.478s0.17-0.45,0.17-0.724
		c0-0.32-0.082-0.599-0.246-0.835s-0.392-0.402-0.683-0.498s-0.71-0.144-1.257-0.144H93.63V294.034z"/>
	<path fill="#231F20" d="M101.101,297.573h-0.756c1.168-1.875,1.752-3.752,1.752-5.631c0-0.734-0.084-1.463-0.252-2.186
		c-0.133-0.586-0.318-1.148-0.557-1.688c-0.152-0.352-0.467-0.938-0.943-1.758h0.756c0.734,0.98,1.277,1.965,1.629,2.953
		c0.301,0.852,0.451,1.742,0.451,2.672c0,1.055-0.202,2.074-0.606,3.059S101.679,296.839,101.101,297.573z"/>
</g>
<g>
	<path fill="#231F20" d="M135.425,297.573c-0.582-0.734-1.074-1.594-1.477-2.578s-0.604-2.004-0.604-3.059
		c0-0.93,0.15-1.82,0.451-2.672c0.352-0.988,0.895-1.973,1.629-2.953h0.756c-0.473,0.813-0.785,1.393-0.938,1.74
		c-0.238,0.539-0.426,1.102-0.563,1.688c-0.168,0.73-0.252,1.465-0.252,2.203c0,1.879,0.584,3.756,1.752,5.631H135.425z"/>
	<path fill="#231F20" d="M143.669,292.036l1.137,0.287c-0.238,0.934-0.667,1.646-1.286,2.136s-1.376,0.735-2.271,0.735
		c-0.926,0-1.679-0.188-2.259-0.565s-1.021-0.923-1.324-1.638s-0.454-1.482-0.454-2.303c0-0.895,0.171-1.675,0.513-2.341
		s0.828-1.172,1.459-1.518s1.325-0.519,2.083-0.519c0.859,0,1.582,0.219,2.168,0.656s0.994,1.053,1.225,1.846l-1.119,0.264
		c-0.199-0.625-0.488-1.08-0.867-1.365s-0.855-0.428-1.43-0.428c-0.66,0-1.212,0.158-1.655,0.475s-0.755,0.741-0.935,1.274
		s-0.27,1.083-0.27,1.649c0,0.73,0.106,1.368,0.319,1.913s0.544,0.952,0.993,1.222s0.936,0.404,1.459,0.404
		c0.637,0,1.176-0.184,1.617-0.551S143.513,292.759,143.669,292.036z"/>
	<path fill="#231F20" d="M146.763,297.573h-0.756c1.168-1.875,1.752-3.752,1.752-5.631c0-0.734-0.084-1.463-0.252-2.186
		c-0.133-0.586-0.318-1.148-0.557-1.688c-0.152-0.352-0.467-0.938-0.943-1.758h0.756c0.734,0.98,1.277,1.965,1.629,2.953
		c0.301,0.852,0.451,1.742,0.451,2.672c0,1.055-0.202,2.074-0.606,3.059S147.341,296.839,146.763,297.573z"/>
</g>
<g>
	<path fill="#231F20" d="M179.425,297.573c-0.582-0.734-1.074-1.594-1.477-2.578s-0.604-2.004-0.604-3.059
		c0-0.93,0.15-1.82,0.451-2.672c0.352-0.988,0.895-1.973,1.629-2.953h0.756c-0.473,0.813-0.785,1.393-0.938,1.74
		c-0.238,0.539-0.426,1.102-0.563,1.688c-0.168,0.73-0.252,1.465-0.252,2.203c0,1.879,0.584,3.756,1.752,5.631H179.425z"/>
	<path fill="#231F20" d="M181.541,295.048v-8.59h2.959c0.668,0,1.178,0.041,1.529,0.123c0.492,0.113,0.912,0.318,1.26,0.615
		c0.453,0.383,0.792,0.872,1.017,1.468s0.337,1.276,0.337,2.042c0,0.652-0.076,1.23-0.229,1.734s-0.348,0.921-0.586,1.251
		s-0.499,0.59-0.782,0.779s-0.625,0.333-1.025,0.431s-0.86,0.146-1.38,0.146H181.541z M182.677,294.034h1.834
		c0.566,0,1.011-0.053,1.333-0.158s0.579-0.254,0.771-0.445c0.27-0.27,0.479-0.632,0.63-1.087s0.226-1.007,0.226-1.655
		c0-0.898-0.147-1.589-0.442-2.071s-0.653-0.806-1.075-0.97c-0.305-0.117-0.795-0.176-1.471-0.176h-1.805V294.034z"/>
	<path fill="#231F20" d="M190.763,297.573h-0.756c1.168-1.875,1.752-3.752,1.752-5.631c0-0.734-0.084-1.463-0.252-2.186
		c-0.133-0.586-0.318-1.148-0.557-1.688c-0.152-0.352-0.467-0.938-0.943-1.758h0.756c0.734,0.98,1.277,1.965,1.629,2.953
		c0.301,0.852,0.451,1.742,0.451,2.672c0,1.055-0.202,2.074-0.606,3.059S191.341,296.839,190.763,297.573z"/>
</g>
<g>
	<path fill="#231F20" d="M219.425,297.573c-0.582-0.734-1.074-1.594-1.477-2.578s-0.604-2.004-0.604-3.059
		c0-0.93,0.15-1.82,0.451-2.672c0.352-0.988,0.895-1.973,1.629-2.953h0.756c-0.473,0.813-0.785,1.393-0.938,1.74
		c-0.238,0.539-0.426,1.102-0.563,1.688c-0.168,0.73-0.252,1.465-0.252,2.203c0,1.879,0.584,3.756,1.752,5.631H219.425z"/>
	<path fill="#231F20" d="M221.564,295.048v-8.59h6.211v1.014h-5.074v2.631h4.752v1.008h-4.752v2.924h5.273v1.014H221.564z"/>
	<path fill="#231F20" d="M230.101,297.573h-0.756c1.168-1.875,1.752-3.752,1.752-5.631c0-0.734-0.084-1.463-0.252-2.186
		c-0.133-0.586-0.318-1.148-0.557-1.688c-0.152-0.352-0.467-0.938-0.943-1.758h0.756c0.734,0.98,1.277,1.965,1.629,2.953
		c0.301,0.852,0.451,1.742,0.451,2.672c0,1.055-0.202,2.074-0.606,3.059S230.679,296.839,230.101,297.573z"/>
</g>
<g>
	<path fill="#231F20" d="M258.425,297.573c-0.582-0.734-1.074-1.594-1.477-2.578s-0.604-2.004-0.604-3.059
		c0-0.93,0.15-1.82,0.451-2.672c0.352-0.988,0.895-1.973,1.629-2.953h0.756c-0.473,0.813-0.785,1.393-0.938,1.74
		c-0.238,0.539-0.426,1.102-0.563,1.688c-0.168,0.73-0.252,1.465-0.252,2.203c0,1.879,0.584,3.756,1.752,5.631H258.425z"/>
	<path fill="#231F20" d="M260.599,295.048v-8.59h5.795v1.014h-4.658v2.66h4.031v1.014h-4.031v3.902H260.599z"/>
	<path fill="#231F20" d="M268.427,297.573h-0.756c1.168-1.875,1.752-3.752,1.752-5.631c0-0.734-0.084-1.463-0.252-2.186
		c-0.133-0.586-0.318-1.148-0.557-1.688c-0.152-0.352-0.467-0.938-0.943-1.758h0.756c0.734,0.98,1.277,1.965,1.629,2.953
		c0.301,0.852,0.451,1.742,0.451,2.672c0,1.055-0.202,2.074-0.606,3.059S269.005,296.839,268.427,297.573z"/>
</g>
<g>
	<path fill="#231F20" d="M293.425,297.573c-0.582-0.734-1.074-1.594-1.477-2.578s-0.604-2.004-0.604-3.059
		c0-0.93,0.15-1.82,0.451-2.672c0.352-0.988,0.895-1.973,1.629-2.953h0.756c-0.473,0.813-0.785,1.393-0.938,1.74
		c-0.238,0.539-0.426,1.102-0.563,1.688c-0.168,0.73-0.252,1.465-0.252,2.203c0,1.879,0.584,3.756,1.752,5.631H293.425z"/>
	<path fill="#231F20" d="M299.56,291.679v-1.008l3.639-0.006v3.188c-0.559,0.445-1.135,0.78-1.729,1.005s-1.203,0.337-1.828,0.337
		c-0.844,0-1.61-0.181-2.3-0.542s-1.21-0.884-1.562-1.567s-0.527-1.447-0.527-2.291c0-0.836,0.175-1.616,0.524-2.341
		s0.853-1.263,1.509-1.614s1.412-0.527,2.268-0.527c0.621,0,1.183,0.101,1.685,0.302s0.896,0.481,1.181,0.841
		s0.502,0.828,0.65,1.406l-1.025,0.281c-0.129-0.438-0.289-0.781-0.48-1.031s-0.465-0.45-0.82-0.601s-0.75-0.226-1.184-0.226
		c-0.52,0-0.969,0.079-1.348,0.237s-0.685,0.366-0.917,0.624s-0.413,0.541-0.542,0.85c-0.219,0.531-0.328,1.107-0.328,1.729
		c0,0.766,0.132,1.406,0.396,1.922s0.647,0.898,1.151,1.148s1.039,0.375,1.605,0.375c0.492,0,0.973-0.095,1.441-0.284
		s0.824-0.392,1.066-0.606v-1.6H299.56z"/>
	<path fill="#231F20" d="M305.431,297.573h-0.756c1.168-1.875,1.752-3.752,1.752-5.631c0-0.734-0.084-1.463-0.252-2.186
		c-0.133-0.586-0.318-1.148-0.557-1.688c-0.152-0.352-0.467-0.938-0.943-1.758h0.756c0.734,0.98,1.277,1.965,1.629,2.953
		c0.301,0.852,0.451,1.742,0.451,2.672c0,1.055-0.202,2.074-0.606,3.059S306.009,296.839,305.431,297.573z"/>
</g>
<g>
	<path fill="#231F20" d="M326.425,297.573c-0.582-0.734-1.074-1.594-1.477-2.578s-0.604-2.004-0.604-3.059
		c0-0.93,0.15-1.82,0.451-2.672c0.352-0.988,0.895-1.973,1.629-2.953h0.756c-0.473,0.813-0.785,1.393-0.938,1.74
		c-0.238,0.539-0.426,1.102-0.563,1.688c-0.168,0.73-0.252,1.465-0.252,2.203c0,1.879,0.584,3.756,1.752,5.631H326.425z"/>
	<path fill="#231F20" d="M328.576,295.048v-8.59h1.137v3.527h4.465v-3.527h1.137v8.59h-1.137v-4.049h-4.465v4.049H328.576z"/>
	<path fill="#231F20" d="M337.763,297.573h-0.756c1.168-1.875,1.752-3.752,1.752-5.631c0-0.734-0.084-1.463-0.252-2.186
		c-0.133-0.586-0.318-1.148-0.557-1.688c-0.152-0.352-0.467-0.938-0.943-1.758h0.756c0.734,0.98,1.277,1.965,1.629,2.953
		c0.301,0.852,0.451,1.742,0.451,2.672c0,1.055-0.202,2.074-0.606,3.059S338.341,296.839,337.763,297.573z"/>
</g>
<g>
	<path fill="#231F20" d="M360.425,297.573c-0.582-0.734-1.074-1.594-1.477-2.578s-0.604-2.004-0.604-3.059
		c0-0.93,0.15-1.82,0.451-2.672c0.352-0.988,0.895-1.973,1.629-2.953h0.756c-0.473,0.813-0.785,1.393-0.938,1.74
		c-0.238,0.539-0.426,1.102-0.563,1.688c-0.168,0.73-0.252,1.465-0.252,2.203c0,1.879,0.584,3.756,1.752,5.631H360.425z"/>
	<path fill="#231F20" d="M362.734,295.048v-8.59h1.137v8.59H362.734z"/>
	<path fill="#231F20" d="M366.431,297.573h-0.756c1.168-1.875,1.752-3.752,1.752-5.631c0-0.734-0.084-1.463-0.252-2.186
		c-0.133-0.586-0.318-1.148-0.557-1.688c-0.152-0.352-0.467-0.938-0.943-1.758h0.756c0.734,0.98,1.277,1.965,1.629,2.953
		c0.301,0.852,0.451,1.742,0.451,2.672c0,1.055-0.202,2.074-0.606,3.059S367.009,296.839,366.431,297.573z"/>
</g>
</svg>
