<svg id="Camada_1" data-name="Camada 1" xmlns="http://www.w3.org/2000/svg" viewBox="0 0 421.71 135.18"><defs><style>.cls-1{fill:#f8c175;}.cls-1,.cls-7,.cls-8{opacity:0.8;}.cls-2,.cls-3,.cls-4,.cls-6{fill:none;stroke:#000;stroke-miterlimit:10;}.cls-2{stroke-width:0.4px;}.cls-3{stroke-width:1.2px;}.cls-4{stroke-width:0.4px;}.cls-5{font-size:14.35px;font-family:CMR12;}.cls-6{stroke-width:0.57px;}.cls-7{fill:#95d4e9;}.cls-8{fill:#feeee0;}</style></defs><path class="cls-1" d="M55.5,79.07,89.87,59.22A39.7,39.7,0,0,0,55.5,39.38Z"/><line class="cls-2" x1="95.19" y1="79.07" x2="15.82" y2="79.07"/><line class="cls-2" x1="75.34" y1="44.7" x2="35.66" y2="113.43"/><line class="cls-2" x1="35.66" y1="44.7" x2="75.34" y2="113.43"/><line class="cls-3" x1="89.87" y1="59.22" x2="21.13" y2="98.91"/><line class="cls-3" x1="55.5" y1="39.38" x2="55.5" y2="118.75"/><line class="cls-3" x1="21.13" y1="59.22" x2="89.87" y2="98.91"/><path class="cls-2" d="M98.31,54A49.38,49.38,0,0,0,55.8,29.46"/><line class="cls-4" x1="100.35" y1="52.94" x2="96.38" y2="55.24"/><line class="cls-2" x1="55.7" y1="31.75" x2="55.7" y2="27.17"/><text class="cls-5" transform="translate(94.08 23.76)">1</text><line class="cls-6" x1="94.08" y1="29.87" x2="101.1" y2="29.87"/><text class="cls-5" transform="translate(94.08 43.3)">6</text><circle class="cls-2" cx="55.5" cy="79.07" r="39.69" transform="translate(-26.03 27.26) rotate(-22.5)"/><path class="cls-7" d="M203.4,83.75H163.71A39.69,39.69,0,1,0,203.4,44.07Z"/><line class="cls-2" x1="243.08" y1="83.75" x2="163.71" y2="83.75"/><line class="cls-2" x1="237.77" y1="63.91" x2="169.03" y2="103.59"/><line class="cls-2" x1="223.24" y1="49.38" x2="183.56" y2="118.12"/><line class="cls-2" x1="183.56" y1="49.38" x2="223.24" y2="118.12"/><line class="cls-2" x1="169.03" y1="63.91" x2="237.77" y2="103.59"/><line class="cls-3" x1="243.08" y1="83.75" x2="163.71" y2="83.75"/><line class="cls-3" x1="203.4" y1="44.07" x2="203.4" y2="123.44"/><path class="cls-2" d="M253,83.45A49.48,49.48,0,0,0,203.7,34.14"/><line class="cls-2" x1="255.3" y1="83.55" x2="250.71" y2="83.55"/><line class="cls-2" x1="203.6" y1="36.44" x2="203.6" y2="31.85"/><text class="cls-5" transform="translate(241.98 36.51)">1</text><line class="cls-6" x1="241.98" y1="42.63" x2="249" y2="42.63"/><text class="cls-5" transform="translate(241.98 56.05)">4</text><circle class="cls-2" cx="203.4" cy="83.75" r="39.69" transform="translate(-16.57 84.21) rotate(-22.5)"/><path class="cls-8" d="M350.5,76.54,316.13,96.38A39.69,39.69,0,1,0,350.5,36.86Z"/><line class="cls-2" x1="390.18" y1="76.54" x2="310.81" y2="76.54"/><line class="cls-2" x1="384.87" y1="56.7" x2="316.13" y2="96.38"/><line class="cls-2" x1="370.34" y1="42.17" x2="330.66" y2="110.91"/><line class="cls-2" x1="350.5" y1="36.86" x2="350.5" y2="116.23"/><line class="cls-2" x1="330.66" y1="42.17" x2="370.34" y2="110.91"/><line class="cls-2" x1="316.13" y1="56.7" x2="384.87" y2="96.38"/><line class="cls-3" x1="350.5" y1="76.54" x2="384.87" y2="96.38"/><line class="cls-3" x1="350.5" y1="76.54" x2="350.5" y2="36.86"/><line class="cls-3" x1="350.5" y1="76.54" x2="316.13" y2="96.38"/><path class="cls-2" d="M393.61,101.09A49.6,49.6,0,0,0,350.8,26.94"/><line class="cls-4" x1="395.54" y1="102.32" x2="391.57" y2="100.03"/><line class="cls-2" x1="350.7" y1="29.23" x2="350.7" y2="24.64"/><text class="cls-5" transform="translate(398.54 41.63)">1</text><line class="cls-6" x1="398.54" y1="47.75" x2="405.56" y2="47.75"/><text class="cls-5" transform="translate(398.54 61.17)">3</text><circle class="cls-2" cx="350.5" cy="76.54" r="39.69" transform="translate(-2.61 139.96) rotate(-22.5)"/></svg>