<svg id="Camada_1" data-name="Camada 1" xmlns="http://www.w3.org/2000/svg" viewBox="0 0 94.04 40.41"><defs><style>.cls-1{fill:#95d4e9;opacity:0.3;}.cls-2{fill:none;stroke:#000;stroke-miterlimit:10;stroke-width:0.4px;}</style></defs><polygon class="cls-1" points="32.98 12.83 20.21 5.46 7.45 12.83 7.45 27.57 20.21 34.94 32.98 27.57 45.74 34.94 58.51 27.57 71.28 34.94 84.04 27.57 84.04 12.83 71.28 5.46 58.51 12.83 45.74 5.46 32.98 12.83"/><polygon class="cls-2" points="32.98 12.83 20.21 5.46 7.45 12.83 7.45 27.57 20.21 34.94 32.98 27.57 45.74 34.94 58.51 27.57 71.28 34.94 84.04 27.57 84.04 12.83 71.28 5.46 58.51 12.83 45.74 5.46 32.98 12.83"/></svg>