<svg id="Camada_1" data-name="Camada 1" xmlns="http://www.w3.org/2000/svg" viewBox="0 0 290.2 224.16"><defs><style>.cls-1{fill:#95d4e9;opacity:0.3;}.cls-2,.cls-3,.cls-5,.cls-6{fill:none;stroke:#000;}.cls-2,.cls-3,.cls-5{stroke-miterlimit:10;}.cls-2,.cls-3,.cls-6{stroke-width:0.4px;}.cls-3{stroke-dasharray:2.99 2.99;}.cls-4{font-size:9.96px;font-family:CMR10;}.cls-5{stroke-width:0.57px;}.cls-6{stroke-linecap:round;stroke-linejoin:round;}</style></defs><rect class="cls-1" x="53.18" y="33.6" width="191.34" height="47.83"/><rect class="cls-2" x="53.18" y="33.6" width="191.34" height="47.83"/><line class="cls-2" x1="53.18" y1="57.51" x2="244.52" y2="57.51"/><line class="cls-3" x1="148.85" y1="81.43" x2="148.85" y2="33.6"/><line class="cls-2" x1="212.63" y1="54.53" x2="212.63" y2="60.5"/><path d="M213,74.88c-.29,0-.44-.17-.44-.5V67.12a1.27,1.27,0,0,1-.45.38,1.33,1.33,0,0,1-.6.14,1.19,1.19,0,0,1-.82-.29.76.76,0,0,1-.23-.55.53.53,0,0,1,.07-.28.54.54,0,0,1,.14-.2s.09-.07.11-.06a1,1,0,0,0,.82.34,1.08,1.08,0,0,0,.79-.32,1.14,1.14,0,0,0,.37-.8h.39c.31,0,.47.17.47.51v8.39c0,.33-.16.5-.47.5Z"/><path d="M57.94,70.29A3.55,3.55,0,0,1,56,69.76a3.35,3.35,0,0,1-1.27-1.5A5.41,5.41,0,0,1,54.28,66V65a5.46,5.46,0,0,1,.45-2.3A3.29,3.29,0,0,1,56,61.21a3.94,3.94,0,0,1,3.91,0,3.37,3.37,0,0,1,1.28,1.5,5.62,5.62,0,0,1,.44,2.3v.93a5.46,5.46,0,0,1-.45,2.3,3.49,3.49,0,0,1-1.28,1.52,3.63,3.63,0,0,1-2,.53Zm0-.92a2.27,2.27,0,0,0,1.91-.89,4,4,0,0,0,.68-2.5V65a4,4,0,0,0-.69-2.51,2.45,2.45,0,0,0-3.8,0A4,4,0,0,0,55.37,65v1a4,4,0,0,0,.69,2.49,2.24,2.24,0,0,0,1.9.91Z"/><text class="cls-4" transform="translate(151.14 63.4)">1</text><line class="cls-5" x1="151.14" y1="65.46" x2="156.13" y2="65.46"/><text class="cls-4" transform="translate(151.14 74)">2</text><path d="M92.12,87.56a.61.61,0,0,1,.18-.45.65.65,0,0,1,.46-.17h.29a.71.71,0,0,1,.47.13,1.61,1.61,0,0,1,.29.48l2.51,5.25,2.51-5.25a1.28,1.28,0,0,1,.28-.48.71.71,0,0,1,.45-.13h.28a.65.65,0,0,1,.48.17.58.58,0,0,1,.18.45v8.26c0,.33-.15.49-.45.49h-.13c-.29,0-.44-.16-.44-.49V88.25L97,93.38a1,1,0,0,1-.27.4.72.72,0,0,1-.46.12.77.77,0,0,1-.48-.12,1.25,1.25,0,0,1-.27-.4l-2.44-5.12,0,5v2.55c0,.33-.15.49-.45.49h-.16c-.27,0-.41-.16-.41-.49Zm9.93,6.94a1.76,1.76,0,0,1,1.12-1.68,9,9,0,0,1,3.57-.57h.16V92a1.79,1.79,0,0,0-.49-1.34,1.88,1.88,0,0,0-1.37-.46,2.38,2.38,0,0,0-1.29.33,2.09,2.09,0,0,0-.8.89.42.42,0,0,1-.19,0,.69.69,0,0,1-.31-.15.45.45,0,0,1-.13-.36.73.73,0,0,1,.11-.36,1.55,1.55,0,0,1,.3-.4,3,3,0,0,1,1-.58,3.75,3.75,0,0,1,1.39-.23,2.88,2.88,0,0,1,2.08.71,2.67,2.67,0,0,1,.73,2v4.23s0,0-.12.07a.7.7,0,0,1-.25,0q-.53,0-.6-.66c0-.27,0-.48,0-.64a2.54,2.54,0,0,1-1,1,3.08,3.08,0,0,1-1.52.37,2.56,2.56,0,0,1-1.7-.52,1.68,1.68,0,0,1-.62-1.39Zm4.85-1.57h-.25a8,8,0,0,0-2.73.4,1.19,1.19,0,0,0-.84,1.13,1,1,0,0,0,.4.85,1.72,1.72,0,0,0,1.09.32,2.48,2.48,0,0,0,1.18-.28,2.21,2.21,0,0,0,.84-.73,1.93,1.93,0,0,0,.31-1Zm5.58-3.66a1.24,1.24,0,0,1,.73.2.64.64,0,0,1,.28.54.76.76,0,0,1-.06.32.49.49,0,0,1-.15.19c-.06,0-.09.06-.1,0a1.12,1.12,0,0,0-.82-.28,1.33,1.33,0,0,0-1.23.74,4.42,4.42,0,0,0-.4,2.08v2.71c0,.33-.15.49-.45.49h-.11a.43.43,0,0,1-.48-.49V89.48s0,0,.12-.07a.68.68,0,0,1,.26,0q.53,0,.6.69c0,.32,0,.57,0,.74a2.13,2.13,0,0,1,.66-1.15,1.71,1.71,0,0,1,1.12-.38Zm1.37,3.55A3.69,3.69,0,0,1,114.3,91a3.2,3.2,0,0,1,1.23-1.27,3.45,3.45,0,0,1,1.78-.46,3.38,3.38,0,0,1,1.32.23,2.9,2.9,0,0,1,1,.6,2.08,2.08,0,0,1,.42.54,1.15,1.15,0,0,1,.14.49.4.4,0,0,1-.14.32.71.71,0,0,1-.32.17c-.11,0-.18,0-.2,0a2.11,2.11,0,0,0-2.17-1.46,2.38,2.38,0,0,0-1.26.34,2.42,2.42,0,0,0-.87,1,3,3,0,0,0-.32,1.37,3,3,0,0,0,.31,1.4,2.35,2.35,0,0,0,.87,1,2.38,2.38,0,0,0,1.27.35,2.21,2.21,0,0,0,1.39-.41,2.34,2.34,0,0,0,.78-1.06s.08,0,.19,0a.64.64,0,0,1,.33.16.46.46,0,0,1,.14.34A1.15,1.15,0,0,1,120,95a2.08,2.08,0,0,1-.42.54,2.57,2.57,0,0,1-.94.62,3.74,3.74,0,0,1-1.35.23,3.55,3.55,0,0,1-1.78-.46,3.23,3.23,0,0,1-1.22-1.29,3.82,3.82,0,0,1-.45-1.86Zm7.23,1.68a1.77,1.77,0,0,1,1.13-1.68,9,9,0,0,1,3.56-.57h.16V92a1.79,1.79,0,0,0-.48-1.34,1.89,1.89,0,0,0-1.37-.46,2.41,2.41,0,0,0-1.3.33,2.07,2.07,0,0,0-.79.89.46.46,0,0,1-.2,0,.61.61,0,0,1-.3-.15.45.45,0,0,1-.13-.36.82.82,0,0,1,.1-.36,1.88,1.88,0,0,1,.31-.4,3,3,0,0,1,1-.58,3.72,3.72,0,0,1,1.39-.23,2.88,2.88,0,0,1,2.08.71,2.67,2.67,0,0,1,.73,2v4.23s0,0-.12.07a.74.74,0,0,1-.25,0q-.54,0-.6-.66c0-.27,0-.48,0-.64a2.54,2.54,0,0,1-1,1,3.08,3.08,0,0,1-1.52.37,2.54,2.54,0,0,1-1.7-.52,1.69,1.69,0,0,1-.63-1.39Zm4.85-1.57h-.24a8,8,0,0,0-2.73.4,1.19,1.19,0,0,0-.84,1.13,1,1,0,0,0,.4.85,1.72,1.72,0,0,0,1.09.32,2.41,2.41,0,0,0,1.17-.28,2.07,2.07,0,0,0,.84-.73,1.85,1.85,0,0,0,.31-1Zm5.43,6.49a1.72,1.72,0,0,1-.74-.15,1.23,1.23,0,0,1-.48-.37.7.7,0,0,1-.18-.44.38.38,0,0,1,.36-.44,1.19,1.19,0,0,0,.94.56.9.9,0,0,0,.6-.19.69.69,0,0,0,.24-.59,1.34,1.34,0,0,0-.41-.86,2.61,2.61,0,0,0-.91-.64A3.1,3.1,0,0,1,129,95.07a3.74,3.74,0,0,1-.67-2.25,3.8,3.8,0,0,1,.44-1.82A3.22,3.22,0,0,1,130,89.73a3.77,3.77,0,0,1,3.1-.23,2.9,2.9,0,0,1,1,.6,1.84,1.84,0,0,1,.41.54,1,1,0,0,1,.15.49.38.38,0,0,1-.15.32.68.68,0,0,1-.31.17c-.12,0-.18,0-.2,0a2.13,2.13,0,0,0-2.17-1.46,2.33,2.33,0,0,0-1.26.34,2.44,2.44,0,0,0-.88,1,3,3,0,0,0-.31,1.37,3,3,0,0,0,.31,1.4,2.26,2.26,0,0,0,.86,1,2.41,2.41,0,0,0,1.28.35,2.21,2.21,0,0,0,1.39-.41,2.34,2.34,0,0,0,.78-1.06s.07,0,.19,0a.58.58,0,0,1,.32.16.43.43,0,0,1,.15.34,1.08,1.08,0,0,1-.14.46,1.9,1.9,0,0,1-.39.53,2.89,2.89,0,0,1-1.6.81,3,3,0,0,1-.53,0,2.47,2.47,0,0,1,.72.72,1.67,1.67,0,0,1,.29.93,1.18,1.18,0,0,1-.48,1,1.81,1.81,0,0,1-1.11.34Zm4.16-4.92a1.76,1.76,0,0,1,1.12-1.68,9,9,0,0,1,3.57-.57h.16V92a1.79,1.79,0,0,0-.49-1.34,1.88,1.88,0,0,0-1.37-.46,2.38,2.38,0,0,0-1.29.33,2.09,2.09,0,0,0-.8.89.42.42,0,0,1-.19,0,.69.69,0,0,1-.31-.15.45.45,0,0,1-.13-.36.73.73,0,0,1,.11-.36,1.55,1.55,0,0,1,.3-.4,3,3,0,0,1,1-.58,3.75,3.75,0,0,1,1.39-.23,2.88,2.88,0,0,1,2.08.71,2.67,2.67,0,0,1,.73,2v4.23s0,0-.12.07a.7.7,0,0,1-.25,0q-.52,0-.6-.66c0-.27,0-.48,0-.64a2.54,2.54,0,0,1-1,1,3.08,3.08,0,0,1-1.52.37,2.56,2.56,0,0,1-1.7-.52,1.68,1.68,0,0,1-.62-1.39Zm4.85-1.57h-.25a8,8,0,0,0-2.73.4,1.19,1.19,0,0,0-.84,1.13,1,1,0,0,0,.4.85,1.72,1.72,0,0,0,1.09.32,2.48,2.48,0,0,0,1.18-.28,2.21,2.21,0,0,0,.84-.73,1.93,1.93,0,0,0,.31-1ZM137,88.15a.58.58,0,0,1-.33-.13,1,1,0,0,1,0-.36,1.65,1.65,0,0,1,.35-.9,1,1,0,0,1,.75-.35,1.07,1.07,0,0,1,.53.13,5,5,0,0,1,.51.36,3.77,3.77,0,0,0,.77.6.5.5,0,0,0,.22-.19c0-.09.11-.21.17-.35a1.11,1.11,0,0,1,.18-.35.23.23,0,0,1,.22-.11.43.43,0,0,1,.31.11,1.14,1.14,0,0,1,.06.39,1.58,1.58,0,0,1-.35.88,1,1,0,0,1-.75.34,1.18,1.18,0,0,1-.53-.12,3.61,3.61,0,0,1-.51-.35l-.34-.31a2.38,2.38,0,0,0-.42-.3.54.54,0,0,0-.19.18,3.56,3.56,0,0,0-.18.35,1.77,1.77,0,0,1-.2.36.27.27,0,0,1-.23.12Zm5.78,4.69a3.72,3.72,0,0,1,.45-1.84,3.13,3.13,0,0,1,1.23-1.27,3.51,3.51,0,0,1,1.81-.46,3.4,3.4,0,0,1,1.78.46A3.16,3.16,0,0,1,149.23,91a3.82,3.82,0,0,1,.45,1.86,3.7,3.7,0,0,1-.45,1.83A3.34,3.34,0,0,1,148,96a3.75,3.75,0,0,1-3.6,0,3.22,3.22,0,0,1-1.23-1.28,3.89,3.89,0,0,1-.44-1.85Zm5.94,0a3,3,0,0,0-.31-1.4,2.46,2.46,0,0,0-.88-1,2.34,2.34,0,0,0-1.26-.35,2.4,2.4,0,0,0-1.27.35,2.36,2.36,0,0,0-.89,1,3.18,3.18,0,0,0,0,2.78,2.45,2.45,0,0,0,.89,1,2.4,2.4,0,0,0,1.27.35,2.33,2.33,0,0,0,1.26-.34,2.4,2.4,0,0,0,.88-1,3,3,0,0,0,.31-1.38Zm7.59,3.56a3,3,0,0,1-1.62-.46,3.15,3.15,0,0,1-1.13-1.26,4.45,4.45,0,0,1,0-3.73,3.1,3.1,0,0,1,1.14-1.26,3,3,0,0,1,1.64-.45,3,3,0,0,1,1.51.37,2.44,2.44,0,0,1,1,1v-4s0-.06.1-.08a1,1,0,0,1,.26,0c.44,0,.67.31.67.92v8.42c0,.33-.15.49-.46.49h-.1c-.3,0-.44-.15-.44-.46s0-.49,0-.89a2.92,2.92,0,0,1-1,1.08,2.79,2.79,0,0,1-1.5.39Zm2.5-4.65a2.55,2.55,0,0,0-.87-1.21,2.38,2.38,0,0,0-1.43-.43,2.11,2.11,0,0,0-1.68.75,2.88,2.88,0,0,0-.64,2,3.27,3.27,0,0,0,.29,1.4,2.26,2.26,0,0,0,.83,1,2.12,2.12,0,0,0,1.19.34,2.4,2.4,0,0,0,1.16-.29,2.33,2.33,0,0,0,.84-.81,2.21,2.21,0,0,0,.31-1.14Zm2.44,1.1a3.92,3.92,0,0,1,.43-1.86,3.23,3.23,0,0,1,3-1.75,3.23,3.23,0,0,1,1.66.42,2.91,2.91,0,0,1,1.1,1.18,4,4,0,0,1,.38,1.77v.1a.33.33,0,0,1-.08.26.45.45,0,0,1-.28.07h-5.17a1.15,1.15,0,0,0,0,.2,2.53,2.53,0,0,0,.78,1.66,2.49,2.49,0,0,0,3.94-.63.34.34,0,0,1,.19,0,.67.67,0,0,1,.28.18.45.45,0,0,1,.12.33.84.84,0,0,1-.14.4,1.67,1.67,0,0,1-.41.44,2.9,2.9,0,0,1-.94.53,4,4,0,0,1-1.34.21,3.61,3.61,0,0,1-1.82-.45,3.08,3.08,0,0,1-1.23-1.25,3.86,3.86,0,0,1-.43-1.85Zm5.5-.56a2.38,2.38,0,0,0-.61-1.61,2,2,0,0,0-1.51-.61,2.17,2.17,0,0,0-1.58.62,2.68,2.68,0,0,0-.79,1.6Zm5.46,4c-.31,0-.46-.16-.46-.49v-8.2a.63.63,0,0,1,.16-.46.52.52,0,0,1,.43-.17h2.35a3.85,3.85,0,0,1,2.54.74,2.63,2.63,0,0,1,.89,2.12,2.68,2.68,0,0,1-.89,2.17,4,4,0,0,1-2.6.75h-1.81v3a.5.5,0,0,1-.12.35.42.42,0,0,1-.35.14Zm2.45-4.43a2.61,2.61,0,0,0,1.76-.52,1.82,1.82,0,0,0,.61-1.48,1.8,1.8,0,0,0-.6-1.47,2.64,2.64,0,0,0-1.76-.51h-1.85v4Zm4.39,1a3.93,3.93,0,0,1,.44-1.86,3.25,3.25,0,0,1,1.2-1.29,3.29,3.29,0,0,1,1.75-.46,3.16,3.16,0,0,1,1.65.42,2.85,2.85,0,0,1,1.1,1.18,3.85,3.85,0,0,1,.39,1.77v.1a.37.37,0,0,1-.08.26.47.47,0,0,1-.28.07H180a1.15,1.15,0,0,0,0,.2,2.49,2.49,0,0,0,.79,1.66,2.41,2.41,0,0,0,1.71.63,2.52,2.52,0,0,0,1.4-.34,2.43,2.43,0,0,0,.82-.92.37.37,0,0,1,.2,0,.59.59,0,0,1,.27.18.45.45,0,0,1,.12.33.81.81,0,0,1-.13.4,1.85,1.85,0,0,1-.41.44,3,3,0,0,1-1,.53,4,4,0,0,1-1.33.21,3.65,3.65,0,0,1-1.83-.45,3.12,3.12,0,0,1-1.22-1.25,3.86,3.86,0,0,1-.44-1.85Zm5.51-.56a2.44,2.44,0,0,0-.62-1.61,2,2,0,0,0-1.5-.61,2.16,2.16,0,0,0-1.58.62,2.63,2.63,0,0,0-.79,1.6Zm5.13,4.11A3,3,0,0,1,188,96a3.05,3.05,0,0,1-1.12-1.26,4.45,4.45,0,0,1,0-3.73A3.07,3.07,0,0,1,188,89.72a3,3,0,0,1,1.64-.45,2.94,2.94,0,0,1,1.51.37,2.44,2.44,0,0,1,1,1v-4s0-.06.11-.08a.87.87,0,0,1,.25,0c.45,0,.67.31.67.92v8.42c0,.33-.15.49-.46.49h-.1c-.29,0-.44-.15-.44-.46s0-.49,0-.89a3,3,0,0,1-1,1.08,2.75,2.75,0,0,1-1.5.39Zm2.5-4.65a2.55,2.55,0,0,0-.87-1.21,2.35,2.35,0,0,0-1.42-.43,2.11,2.11,0,0,0-1.68.75,2.89,2.89,0,0,0-.65,2,3.13,3.13,0,0,0,.3,1.4,2.24,2.24,0,0,0,.82,1,2.12,2.12,0,0,0,1.19.34,2.4,2.4,0,0,0,1.16-.29,2.18,2.18,0,0,0,.84-.81,2.12,2.12,0,0,0,.31-1.14Zm5.67-2.51a1.29,1.29,0,0,1,.74.2.66.66,0,0,1,.28.54.76.76,0,0,1-.07.32.49.49,0,0,1-.15.19c-.06,0-.09.06-.1,0a1.1,1.1,0,0,0-.82-.28,1.3,1.3,0,0,0-1.22.74,4.29,4.29,0,0,0-.41,2.08v2.71c0,.33-.15.49-.45.49h-.11a.43.43,0,0,1-.48-.49V89.48s0,0,.12-.07a.71.71,0,0,1,.26,0q.53,0,.6.69c0,.32,0,.57,0,.74a2.13,2.13,0,0,1,.66-1.15,1.71,1.71,0,0,1,1.12-.38Zm1.39,3.57a3.82,3.82,0,0,1,.44-1.84,3.22,3.22,0,0,1,1.24-1.27,3.48,3.48,0,0,1,1.81-.46,3.42,3.42,0,0,1,1.78.46A3.23,3.23,0,0,1,205.7,91a3.93,3.93,0,0,1,.44,1.86,3.81,3.81,0,0,1-.44,1.83A3.29,3.29,0,0,1,204.46,96a3.53,3.53,0,0,1-1.79.46,3.6,3.6,0,0,1-1.8-.46,3.22,3.22,0,0,1-1.23-1.28,3.78,3.78,0,0,1-.44-1.85Zm5.94,0a3,3,0,0,0-.32-1.4,2.44,2.44,0,0,0-.87-1,2.46,2.46,0,0,0-2.53,0,2.36,2.36,0,0,0-.89,1,3.09,3.09,0,0,0,0,2.78,2.45,2.45,0,0,0,.89,1,2.37,2.37,0,0,0,3.4-1,3,3,0,0,0,.32-1.38Z"/><line class="cls-2" x1="37.23" y1="57.51" x2="44.81" y2="57.51"/><path class="cls-6" d="M42.94,55.12A3.12,3.12,0,0,0,45,57.51a3.15,3.15,0,0,0-2.07,2.4"/><rect class="cls-1" x="53.18" y="133.23" width="191.34" height="47.83"/><rect class="cls-2" x="53.18" y="133.23" width="191.34" height="47.83"/><line class="cls-2" x1="53.18" y1="157.14" x2="244.52" y2="157.14"/><line class="cls-3" x1="132.91" y1="181.06" x2="132.91" y2="133.23"/><line class="cls-2" x1="212.63" y1="154.15" x2="212.63" y2="160.13"/><path d="M213,174.51c-.29,0-.44-.17-.44-.5v-7.26a1.27,1.27,0,0,1-.45.38,1.32,1.32,0,0,1-.6.13,1.18,1.18,0,0,1-.82-.28.78.78,0,0,1-.23-.55.53.53,0,0,1,.07-.28.7.7,0,0,1,.14-.21s.09-.06.11-.05a1,1,0,0,0,.82.34,1.12,1.12,0,0,0,.79-.32,1.16,1.16,0,0,0,.37-.8h.39c.31,0,.47.17.47.5V174c0,.33-.16.5-.47.5Z"/><path d="M57.94,169.91a3.54,3.54,0,0,1-1.94-.52,3.35,3.35,0,0,1-1.27-1.5,5.41,5.41,0,0,1-.45-2.29v-.95a5.46,5.46,0,0,1,.45-2.3A3.29,3.29,0,0,1,56,160.84a3.94,3.94,0,0,1,3.91,0,3.37,3.37,0,0,1,1.28,1.5,5.62,5.62,0,0,1,.44,2.3v.93a5.46,5.46,0,0,1-.45,2.3,3.41,3.41,0,0,1-1.28,1.51,3.54,3.54,0,0,1-2,.53Zm0-.91a2.27,2.27,0,0,0,1.91-.89,4,4,0,0,0,.68-2.5v-1a4.08,4.08,0,0,0-.69-2.52,2.46,2.46,0,0,0-3.8,0,4,4,0,0,0-.69,2.49v1a4,4,0,0,0,.69,2.49A2.24,2.24,0,0,0,58,169Z"/><text class="cls-4" transform="translate(135.2 163.03)">1</text><line class="cls-5" x1="135.2" y1="165.09" x2="140.18" y2="165.09"/><text class="cls-4" transform="translate(135.2 173.62)">2</text><path d="M91,187.19a.61.61,0,0,1,.18-.45.68.68,0,0,1,.47-.17h.28a.66.66,0,0,1,.47.13,1.73,1.73,0,0,1,.3.47l2.51,5.25,2.51-5.25a1.11,1.11,0,0,1,.28-.47.65.65,0,0,1,.45-.13h.27a.69.69,0,0,1,.49.17.61.61,0,0,1,.17.45v8.26c0,.33-.15.49-.44.49H98.8c-.3,0-.45-.16-.45-.49v-2.52l0-5.05L95.91,193a1,1,0,0,1-.26.4.76.76,0,0,1-.47.12.72.72,0,0,1-.47-.12,1.07,1.07,0,0,1-.27-.4L92,187.89v7.56c0,.33-.15.49-.44.49h-.16c-.28,0-.42-.16-.42-.49Zm9.93,6.94a1.76,1.76,0,0,1,1.13-1.68,9,9,0,0,1,3.56-.57h.16v-.29a1.79,1.79,0,0,0-.48-1.34,1.9,1.9,0,0,0-1.37-.47,2.39,2.39,0,0,0-1.3.33,2.22,2.22,0,0,0-.8.89.35.35,0,0,1-.19,0,.55.55,0,0,1-.3-.16.44.44,0,0,1-.14-.35.85.85,0,0,1,.11-.36,1.4,1.4,0,0,1,.31-.4,3,3,0,0,1,1-.59,4,4,0,0,1,1.4-.23,2.86,2.86,0,0,1,2.08.72,2.71,2.71,0,0,1,.73,2v4.23s0,0-.12.07a.78.78,0,0,1-.26,0q-.52,0-.6-.66,0-.39,0-.63a2.54,2.54,0,0,1-1,1,3.14,3.14,0,0,1-1.52.37,2.58,2.58,0,0,1-1.7-.52,1.72,1.72,0,0,1-.62-1.39Zm4.85-1.58-.24,0a8,8,0,0,0-2.74.4,1.19,1.19,0,0,0-.84,1.13,1,1,0,0,0,.4.85,1.74,1.74,0,0,0,1.09.31,2.53,2.53,0,0,0,1.18-.27,2.16,2.16,0,0,0,.84-.74,1.79,1.79,0,0,0,.31-1Zm5.58-3.66a1.2,1.2,0,0,1,.74.21.64.64,0,0,1,.28.54.63.63,0,0,1-.07.32.49.49,0,0,1-.15.19c-.05,0-.09.06-.1,0a1.1,1.1,0,0,0-.81-.29,1.32,1.32,0,0,0-1.23.75,4.41,4.41,0,0,0-.41,2.08v2.71c0,.33-.15.49-.45.49H109c-.32,0-.47-.16-.47-.49v-6.34s0,0,.11-.07a.71.71,0,0,1,.26,0c.35,0,.55.22.6.68s0,.58,0,.75a2.13,2.13,0,0,1,.66-1.15,1.68,1.68,0,0,1,1.12-.39Zm1.38,3.56a3.81,3.81,0,0,1,.44-1.83,3.29,3.29,0,0,1,1.24-1.27,3.48,3.48,0,0,1,1.77-.46,3.58,3.58,0,0,1,1.32.23,3,3,0,0,1,1,.61,2,2,0,0,1,.41.53,1.12,1.12,0,0,1,.15.5.39.39,0,0,1-.15.32.79.79,0,0,1-.31.17c-.12,0-.19,0-.2,0a2.14,2.14,0,0,0-2.17-1.47,2.34,2.34,0,0,0-1.26.35,2.37,2.37,0,0,0-.88,1,3,3,0,0,0-.31,1.37,3.16,3.16,0,0,0,.3,1.4,2.35,2.35,0,0,0,.87,1,2.4,2.4,0,0,0,1.28.34,2.2,2.2,0,0,0,1.38-.4,2.49,2.49,0,0,0,.79-1.06s.07,0,.19,0a.67.67,0,0,1,.32.17.42.42,0,0,1,.15.34,1,1,0,0,1-.15.47,2,2,0,0,1-.41.54,2.51,2.51,0,0,1-.94.61,3.56,3.56,0,0,1-1.36.23,3.39,3.39,0,0,1-1.77-.46,3.23,3.23,0,0,1-1.23-1.28,3.93,3.93,0,0,1-.44-1.86Zm7.23,1.68a1.75,1.75,0,0,1,1.12-1.68,9,9,0,0,1,3.57-.57h.16v-.29a1.79,1.79,0,0,0-.48-1.34,1.9,1.9,0,0,0-1.37-.47,2.39,2.39,0,0,0-1.3.33,2.15,2.15,0,0,0-.8.89.35.35,0,0,1-.19,0,.55.55,0,0,1-.3-.16.44.44,0,0,1-.14-.35.85.85,0,0,1,.11-.36,1.4,1.4,0,0,1,.31-.4,2.85,2.85,0,0,1,1-.59,4,4,0,0,1,1.39-.23,2.83,2.83,0,0,1,2.08.72,2.68,2.68,0,0,1,.74,2v4.23s0,0-.13.07a.69.69,0,0,1-.25,0q-.53,0-.6-.66,0-.39,0-.63a2.54,2.54,0,0,1-1,1,3.17,3.17,0,0,1-1.52.37,2.56,2.56,0,0,1-1.7-.52,1.72,1.72,0,0,1-.62-1.39Zm4.85-1.58-.25,0a8,8,0,0,0-2.73.4,1.19,1.19,0,0,0-.84,1.13,1,1,0,0,0,.4.85,1.72,1.72,0,0,0,1.09.31,2.56,2.56,0,0,0,1.18-.27,2.23,2.23,0,0,0,.84-.74,1.87,1.87,0,0,0,.31-1Zm5.42,6.5a1.67,1.67,0,0,1-.73-.15,1.27,1.27,0,0,1-.49-.37.76.76,0,0,1-.17-.44c0-.27.12-.42.36-.44a1.16,1.16,0,0,0,.93.56,1,1,0,0,0,.61-.19.71.71,0,0,0,.24-.59,1.29,1.29,0,0,0-.42-.86,2.71,2.71,0,0,0-.9-.65,3.1,3.1,0,0,1-1.81-1.22,3.77,3.77,0,0,1-.68-2.25,3.7,3.7,0,0,1,.45-1.83,3.26,3.26,0,0,1,1.23-1.27,3.77,3.77,0,0,1,3.1-.23,3.1,3.1,0,0,1,1,.61,2.22,2.22,0,0,1,.42.53,1.23,1.23,0,0,1,.14.5.42.42,0,0,1-.14.32.83.83,0,0,1-.32.17c-.11,0-.18,0-.2,0a2.12,2.12,0,0,0-2.16-1.47,2.36,2.36,0,0,0-2.14,1.3,3,3,0,0,0-.32,1.37,3.17,3.17,0,0,0,.31,1.4,2.35,2.35,0,0,0,.87,1,2.38,2.38,0,0,0,1.28.34,2.2,2.2,0,0,0,1.38-.4,2.39,2.39,0,0,0,.78-1.06s.08,0,.2,0a.71.71,0,0,1,.32.17.44.44,0,0,1,.14.34,1,1,0,0,1-.13.46,2.38,2.38,0,0,1-.4.53,3,3,0,0,1-1.59.81,4.55,4.55,0,0,1-.53,0,2.74,2.74,0,0,1,.72.72,1.62,1.62,0,0,1,.28.93,1.19,1.19,0,0,1-.47,1,1.86,1.86,0,0,1-1.12.34Zm4.16-4.92a1.76,1.76,0,0,1,1.13-1.68,9,9,0,0,1,3.56-.57h.16v-.29a1.79,1.79,0,0,0-.48-1.34,1.9,1.9,0,0,0-1.37-.47,2.39,2.39,0,0,0-1.3.33,2.22,2.22,0,0,0-.8.89.35.35,0,0,1-.19,0,.55.55,0,0,1-.3-.16.44.44,0,0,1-.14-.35.85.85,0,0,1,.11-.36,1.4,1.4,0,0,1,.31-.4,3,3,0,0,1,1-.59,4,4,0,0,1,1.4-.23,2.86,2.86,0,0,1,2.08.72,2.71,2.71,0,0,1,.73,2v4.23s0,0-.12.07a.78.78,0,0,1-.26,0q-.52,0-.6-.66,0-.39,0-.63a2.54,2.54,0,0,1-1,1,3.14,3.14,0,0,1-1.52.37,2.58,2.58,0,0,1-1.7-.52,1.72,1.72,0,0,1-.62-1.39Zm4.85-1.58-.24,0a8,8,0,0,0-2.74.4,1.19,1.19,0,0,0-.84,1.13,1,1,0,0,0,.4.85,1.74,1.74,0,0,0,1.09.31,2.53,2.53,0,0,0,1.18-.27,2.16,2.16,0,0,0,.84-.74,1.79,1.79,0,0,0,.31-1Zm-3.42-4.77a.58.58,0,0,1-.33-.13,1.25,1.25,0,0,1,0-.36,1.69,1.69,0,0,1,.35-.9,1,1,0,0,1,.76-.35,1,1,0,0,1,.52.13,2.84,2.84,0,0,1,.51.36,4.69,4.69,0,0,0,.77.6.5.5,0,0,0,.22-.19,2.3,2.3,0,0,0,.17-.35,2.35,2.35,0,0,1,.18-.36.26.26,0,0,1,.22-.1.42.42,0,0,1,.32.11,1.14,1.14,0,0,1,.06.39,1.56,1.56,0,0,1-.36.87.93.93,0,0,1-.75.35,1.14,1.14,0,0,1-.52-.12,2.84,2.84,0,0,1-.51-.36l-.35-.3a2.79,2.79,0,0,0-.41-.3.57.57,0,0,0-.2.18,2.3,2.3,0,0,0-.17.35,2,2,0,0,1-.21.36.26.26,0,0,1-.23.12Zm5.79,4.69a3.75,3.75,0,0,1,.44-1.85,3.34,3.34,0,0,1,1.23-1.27,3.61,3.61,0,0,1,1.81-.46,3.53,3.53,0,0,1,1.79.46,3.32,3.32,0,0,1,1.23,1.29,3.93,3.93,0,0,1,.44,1.86,3.8,3.8,0,0,1-.44,1.82,3.16,3.16,0,0,1-1.24,1.27,3.43,3.43,0,0,1-1.79.46,3.5,3.5,0,0,1-1.8-.46,3.22,3.22,0,0,1-1.24-1.27,3.88,3.88,0,0,1-.43-1.85Zm5.94,0a3,3,0,0,0-.32-1.4,2.39,2.39,0,0,0-.88-1,2.34,2.34,0,0,0-1.26-.35,2.35,2.35,0,0,0-2.16,1.31,3.18,3.18,0,0,0,0,2.78,2.52,2.52,0,0,0,.89,1,2.4,2.4,0,0,0,1.27.35,2.34,2.34,0,0,0,1.26-.35,2.31,2.31,0,0,0,.88-1,3,3,0,0,0,.32-1.38Zm7.58,3.55a3,3,0,0,1-1.62-.45,3.12,3.12,0,0,1-1.12-1.26,4,4,0,0,1-.41-1.87,4,4,0,0,1,.41-1.86,3,3,0,0,1,2.77-1.72,2.94,2.94,0,0,1,1.51.38,2.48,2.48,0,0,1,1,.94v-4s0-.06.11-.08a.62.62,0,0,1,.25,0c.45,0,.67.31.67.92v8.42c0,.33-.15.49-.46.49h-.1c-.29,0-.44-.15-.44-.46s0-.49,0-.89a3,3,0,0,1-1,1.08,2.83,2.83,0,0,1-1.5.38Zm2.5-4.64a2.55,2.55,0,0,0-.87-1.21,2.28,2.28,0,0,0-1.42-.43,2.11,2.11,0,0,0-1.68.75,2.85,2.85,0,0,0-.65,1.95,3.16,3.16,0,0,0,.3,1.4,2.27,2.27,0,0,0,.82,1,2.13,2.13,0,0,0,1.19.35,2.31,2.31,0,0,0,1.16-.3,2.09,2.09,0,0,0,.84-.8,2.12,2.12,0,0,0,.31-1.14Zm2.44,1.1a3.93,3.93,0,0,1,.44-1.86,3.25,3.25,0,0,1,1.2-1.29,3.3,3.3,0,0,1,1.75-.47,3.17,3.17,0,0,1,1.65.43,2.79,2.79,0,0,1,1.1,1.18,3.85,3.85,0,0,1,.39,1.77v.1a.32.32,0,0,1-.08.25.41.41,0,0,1-.28.08h-5.18a1.15,1.15,0,0,0,0,.2,2.49,2.49,0,0,0,.79,1.66,2.41,2.41,0,0,0,1.71.63,2.52,2.52,0,0,0,1.4-.34,2.43,2.43,0,0,0,.82-.92.37.37,0,0,1,.2,0,.59.59,0,0,1,.27.18.45.45,0,0,1,.12.33.84.84,0,0,1-.13.4,1.85,1.85,0,0,1-.41.44,3,3,0,0,1-1,.53,4.22,4.22,0,0,1-1.33.2,3.65,3.65,0,0,1-1.83-.44,3.15,3.15,0,0,1-1.22-1.26,3.82,3.82,0,0,1-.44-1.84Zm5.51-.56a2.41,2.41,0,0,0-.62-1.61,2,2,0,0,0-1.5-.61,2.19,2.19,0,0,0-1.58.61,2.68,2.68,0,0,0-.79,1.61Zm5-4.76a.61.61,0,0,1,.18-.45.68.68,0,0,1,.47-.17h.28a.66.66,0,0,1,.47.13,1.53,1.53,0,0,1,.29.47l2.51,5.25,2.52-5.25a1.12,1.12,0,0,1,.27-.47.7.7,0,0,1,.46-.13h.27a.69.69,0,0,1,.49.17.61.61,0,0,1,.17.45v8.26c0,.33-.15.49-.45.49h-.12c-.3,0-.45-.16-.45-.49v-2.52l0-5.05L175.49,193a1,1,0,0,1-.26.4.76.76,0,0,1-.47.12.72.72,0,0,1-.47-.12,1.21,1.21,0,0,1-.28-.4l-2.43-5.12v7.56c0,.33-.15.49-.44.49H171c-.28,0-.42-.16-.42-.49Zm10.3-.29a.66.66,0,1,1,1.32,0,.62.62,0,0,1-.18.48.69.69,0,0,1-.49.17.69.69,0,0,1-.48-.17.65.65,0,0,1-.17-.48Zm.13,2.6c0-.34.15-.5.46-.5h.11c.31,0,.46.16.46.5v5.95c0,.33-.15.49-.46.49h-.11c-.31,0-.46-.16-.46-.49Zm5.22,9.41c-2.13,0-3.2-.62-3.2-1.87a1.54,1.54,0,0,1,.64-1.24,3.5,3.5,0,0,1,1.6-.69.81.81,0,0,1-.43-.69.85.85,0,0,1,.42-.73,2.47,2.47,0,0,1-1.26-.86,2.18,2.18,0,0,1-.48-1.4,2.4,2.4,0,0,1,.36-1.28,2.54,2.54,0,0,1,1-.92,3,3,0,0,1,1.41-.34,2.81,2.81,0,0,1,1.62.48l.52-.78a.73.73,0,0,1,.6-.41.49.49,0,0,1,.3.09.81.81,0,0,1,.21.2.23.23,0,0,1,.06.17l-1.13,1.2a2.28,2.28,0,0,1,.62,1.55,2.25,2.25,0,0,1-.36,1.25,2.45,2.45,0,0,1-1,.88,3,3,0,0,1-1.43.32h-.37a.43.43,0,0,0-.17.37.46.46,0,0,0,.3.39,5.69,5.69,0,0,0,1,.3l.53.13c1.37.34,2.06.95,2.06,1.84a1.68,1.68,0,0,1-.91,1.5,4.86,4.86,0,0,1-2.54.55Zm0-.75a4.06,4.06,0,0,0,1.78-.31,1,1,0,0,0,.63-.92.78.78,0,0,0-.4-.69,3.71,3.71,0,0,0-1.1-.43l-.85-.2a4,4,0,0,0-1.62.46,1.12,1.12,0,0,0-.66,1,.93.93,0,0,0,.56.84,3.8,3.8,0,0,0,1.66.29Zm0-5a1.74,1.74,0,0,0,1.27-.48,1.63,1.63,0,0,0,.5-1.24,1.71,1.71,0,0,0-.49-1.26,1.77,1.77,0,0,0-1.29-.48,1.74,1.74,0,0,0-1.27.48,1.7,1.7,0,0,0-.48,1.26,1.63,1.63,0,0,0,.49,1.24,1.74,1.74,0,0,0,1.27.48ZM196,189c.31,0,.46.16.46.48v6.36s0,0-.12.07a.73.73,0,0,1-.25,0c-.36,0-.56-.22-.6-.67,0-.25,0-.44,0-.56a3.1,3.1,0,0,1-1,1,2.64,2.64,0,0,1-1.39.36,2.37,2.37,0,0,1-2-.81,3.27,3.27,0,0,1-.67-2.17v-3.59c0-.32.15-.48.46-.48h.11c.31,0,.46.16.46.48V193a2.41,2.41,0,0,0,.47,1.57,1.66,1.66,0,0,0,1.34.57,2.21,2.21,0,0,0,1.27-.38,2.34,2.34,0,0,0,.84-1v-4.26c0-.32.15-.48.44-.48Zm1.74,3.51a3.81,3.81,0,0,1,.44-1.86,3.25,3.25,0,0,1,1.2-1.29,3.29,3.29,0,0,1,1.74-.47,3.2,3.2,0,0,1,1.66.43,2.85,2.85,0,0,1,1.1,1.18,3.85,3.85,0,0,1,.39,1.77v.1a.32.32,0,0,1-.08.25.43.43,0,0,1-.28.08h-5.18a1.15,1.15,0,0,0,0,.2,2.53,2.53,0,0,0,.78,1.66,2.45,2.45,0,0,0,1.72.63,2.52,2.52,0,0,0,1.4-.34,2.43,2.43,0,0,0,.82-.92.38.38,0,0,1,.2,0,.59.59,0,0,1,.27.18.45.45,0,0,1,.12.33.87.87,0,0,1-.14.4,1.51,1.51,0,0,1-.41.44,2.79,2.79,0,0,1-.94.53,4.24,4.24,0,0,1-1.34.2,3.63,3.63,0,0,1-1.82-.44,3.15,3.15,0,0,1-1.22-1.26,3.71,3.71,0,0,1-.44-1.84Zm5.51-.56a2.41,2.41,0,0,0-.62-1.61,2,2,0,0,0-1.51-.61,2.18,2.18,0,0,0-1.57.61,2.63,2.63,0,0,0-.79,1.61Zm2.94,4c-.31,0-.46-.16-.46-.49v-9.22s0,0,.11-.08a1.09,1.09,0,0,1,.26,0c.44,0,.66.31.66.92v8.42c0,.33-.15.49-.46.49Z"/><line class="cls-2" x1="37.23" y1="157.14" x2="44.81" y2="157.14"/><path class="cls-6" d="M42.94,154.75A3.13,3.13,0,0,0,45,157.14a3.15,3.15,0,0,0-2.07,2.39"/></svg>