<svg id="Camada_1" data-name="Camada 1" xmlns="http://www.w3.org/2000/svg" viewBox="0 0 423.18 103.22"><defs><style>.cls-1,.cls-2{fill:none;stroke:#000;stroke-width:0.4px;}.cls-1{stroke-miterlimit:10;}.cls-2{stroke-linecap:round;stroke-linejoin:round;}</style></defs><line class="cls-1" x1="24.6" y1="45.82" x2="398.38" y2="45.82"/><path class="cls-2" d="M396.51,43.42a3.17,3.17,0,0,0,2.07,2.4,3.13,3.13,0,0,0-2.07,2.39"/><line class="cls-1" x1="55.78" y1="42.83" x2="55.78" y2="48.8"/><line class="cls-1" x1="180.51" y1="42.83" x2="180.51" y2="48.8"/><path d="M55.76,60.39a3.54,3.54,0,0,1-1.94-.52,3.42,3.42,0,0,1-1.27-1.5,5.41,5.41,0,0,1-.45-2.29v-.95a5.46,5.46,0,0,1,.45-2.3,3.35,3.35,0,0,1,1.28-1.51,3.94,3.94,0,0,1,3.91,0A3.37,3.37,0,0,1,59,52.82a5.46,5.46,0,0,1,.44,2.3v.93a5.46,5.46,0,0,1-.45,2.3,3.41,3.41,0,0,1-1.28,1.51,3.54,3.54,0,0,1-2,.53Zm0-.91a2.27,2.27,0,0,0,1.91-.89,4,4,0,0,0,.68-2.5v-1a4.08,4.08,0,0,0-.69-2.52,2.46,2.46,0,0,0-3.8,0,4,4,0,0,0-.69,2.49v1a4,4,0,0,0,.69,2.49,2.24,2.24,0,0,0,1.9.91Z"/><path d="M178.1,60.25a.85.85,0,0,1-.54-.14.62.62,0,0,1-.16-.48v-.35a3.13,3.13,0,0,1,.38-1.58,3.6,3.6,0,0,1,1-1.07,10.91,10.91,0,0,1,1.48-.88c.61-.32,1-.56,1.32-.74a2.68,2.68,0,0,0,.71-.63,1.4,1.4,0,0,0,.31-.92,1.57,1.57,0,0,0-.55-1.24,2.6,2.6,0,0,0-3.09.06,2.82,2.82,0,0,0-.8,1.37s-.06,0-.19,0a.75.75,0,0,1-.36-.17.47.47,0,0,1-.16-.39,1.64,1.64,0,0,1,.19-.69,2.61,2.61,0,0,1,.54-.72,3.29,3.29,0,0,1,1-.65,3.68,3.68,0,0,1,1.4-.25,3.25,3.25,0,0,1,2.23.72,2.47,2.47,0,0,1,.81,1.94,2.29,2.29,0,0,1-.35,1.28,2.84,2.84,0,0,1-.88.88,14,14,0,0,1-1.44.8,12.8,12.8,0,0,0-1.3.72,3,3,0,0,0-.84.79,2,2,0,0,0-.37,1.07l0,.29h4.86c.35,0,.52.14.52.43v.09c0,.29-.17.44-.52.44Z"/></svg>