<svg id="Camada_1" data-name="Camada 1" xmlns="http://www.w3.org/2000/svg" viewBox="0 0 372.49 400.9"><defs><style>.cls-1,.cls-7{fill:none;stroke:#000;stroke-miterlimit:10;stroke-width:0.4px;}.cls-2{fill:#ab9781;}.cls-3{fill:#9d8e80;}.cls-4{fill:#fff;}.cls-4,.cls-7{opacity:0.7;}.cls-5{fill:#b0deee;}.cls-6{fill:#95d4e9;}</style></defs><line class="cls-1" x1="4.26" y1="26.9" x2="368.22" y2="26.9"/><line class="cls-1" x1="4.46" y1="196.53" x2="4.46" y2="27.1"/><polygon class="cls-2" points="48 119.14 172.72 119.14 142.71 149.15 17.99 149.15 48 119.14"/><polygon class="cls-1" points="48 119.14 172.72 119.14 142.71 149.15 17.99 149.15 48 119.14"/><polyline class="cls-3" points="172.72 119.14 172.72 123.03 142.71 153.05 142.71 149.15"/><polyline class="cls-1" points="172.72 119.14 172.72 123.03 142.71 153.05 142.71 149.15"/><polyline class="cls-3" points="142.71 149.15 142.71 153.05 17.99 153.05 17.99 149.15"/><polyline class="cls-1" points="142.71 149.15 142.71 153.05 17.99 153.05 17.99 149.15"/><polygon class="cls-1" points="71.38 119.14 149.34 119.14 119.33 149.15 41.37 149.15 71.38 119.14"/><line class="cls-1" x1="71.38" y1="119.14" x2="71.38" y2="41.18"/><polygon class="cls-4" points="71.38 41.18 149.34 41.18 119.33 71.19 41.37 71.19 71.38 41.18"/><polygon class="cls-1" points="71.38 41.18 149.34 41.18 119.33 71.19 41.37 71.19 71.38 41.18"/><rect class="cls-4" x="41.37" y="71.19" width="77.95" height="77.95"/><rect class="cls-1" x="41.37" y="71.19" width="77.95" height="77.95"/><polygon class="cls-5" points="71.38 99.65 149.34 99.65 119.33 129.66 41.37 129.66 71.38 99.65"/><rect class="cls-6" x="41.37" y="129.66" width="77.95" height="19.49"/><polygon class="cls-6" points="149.34 119.14 119.33 149.15 119.33 129.66 149.34 99.65 149.34 119.14"/><line class="cls-1" x1="119.33" y1="149.15" x2="119.33" y2="71.19"/><line class="cls-1" x1="149.34" y1="119.14" x2="149.34" y2="41.18"/><line class="cls-1" x1="41.37" y1="149.15" x2="41.37" y2="71.19"/><polyline class="cls-1" points="149.34 119.14 119.33 149.15 41.37 149.15"/><path d="M63.36,169a.57.57,0,0,1,.18-.44.63.63,0,0,1,.47-.17h.28a.72.72,0,0,1,.47.12,1.82,1.82,0,0,1,.3.48l2.51,5.25L70.08,169a1.16,1.16,0,0,1,.28-.48.71.71,0,0,1,.45-.12h.27a.69.69,0,0,1,.49.16.61.61,0,0,1,.17.45v8.27c0,.32-.15.48-.44.48h-.13q-.45,0-.45-.48v-2.53l0-5.05-2.46,5.14a.92.92,0,0,1-.26.39.76.76,0,0,1-.47.12.72.72,0,0,1-.47-.12,1,1,0,0,1-.27-.39l-2.44-5.12v7.56c0,.32-.15.48-.44.48h-.16q-.42,0-.42-.48Zm9.93,5.28a3.82,3.82,0,0,1,.44-1.84A3.29,3.29,0,0,1,75,171.17a3.48,3.48,0,0,1,1.81-.46,3.4,3.4,0,0,1,1.78.46,3.29,3.29,0,0,1,1.23,1.28,3.93,3.93,0,0,1,.44,1.86,3.81,3.81,0,0,1-.44,1.83,3.29,3.29,0,0,1-1.24,1.27,3.43,3.43,0,0,1-1.79.46,3.5,3.5,0,0,1-1.8-.46,3.16,3.16,0,0,1-1.23-1.28,3.86,3.86,0,0,1-.44-1.85Zm5.94,0a3.07,3.07,0,0,0-.32-1.4,2.41,2.41,0,0,0-.87-1,2.29,2.29,0,0,0-1.26-.36,2.4,2.4,0,0,0-2.16,1.31,3.09,3.09,0,0,0,0,2.78,2.39,2.39,0,0,0,.89,1,2.29,2.29,0,0,0,1.27.35,2.36,2.36,0,0,0,1.26-.34,2.42,2.42,0,0,0,.87-1,3,3,0,0,0,.32-1.39Zm10.26-3.6a2.36,2.36,0,0,1,1.89.75,3.21,3.21,0,0,1,.65,2.13v3.68a.42.42,0,0,1-.46.48h-.12a.42.42,0,0,1-.46-.48v-3.59a2.33,2.33,0,0,0-.43-1.52,1.57,1.57,0,0,0-1.29-.53,2,2,0,0,0-1.14.36,2.2,2.2,0,0,0-.77,1v4.28c0,.32-.15.48-.46.48h-.11c-.31,0-.46-.16-.46-.48v-3.68a2.17,2.17,0,0,0-.44-1.45,1.59,1.59,0,0,0-1.28-.51,2,2,0,0,0-1.13.36,2.31,2.31,0,0,0-.79,1v4.28q0,.48-.45.48h-.13a.42.42,0,0,1-.46-.48v-6.35s0,0,.13-.07a.69.69,0,0,1,.25,0c.4,0,.61.28.63.85V172a2.82,2.82,0,0,1,.91-.94,2.39,2.39,0,0,1,1.26-.35,2.46,2.46,0,0,1,1.43.4,2.34,2.34,0,0,1,.84,1.12,2.58,2.58,0,0,1,.94-1.1,2.49,2.49,0,0,1,1.44-.42Zm3.88,3.61a3.92,3.92,0,0,1,.44-1.85,3.27,3.27,0,0,1,3-1.76,3.23,3.23,0,0,1,1.66.42,2.85,2.85,0,0,1,1.09,1.19,3.77,3.77,0,0,1,.39,1.76v.1a.31.31,0,0,1-.08.26.39.39,0,0,1-.28.07H94.36a1,1,0,0,0,0,.2,2.55,2.55,0,0,0,.78,1.67,2.42,2.42,0,0,0,1.71.63,2.5,2.5,0,0,0,1.4-.35,2.43,2.43,0,0,0,.83-.91.4.4,0,0,1,.19,0,.59.59,0,0,1,.27.18.44.44,0,0,1,.13.33.8.8,0,0,1-.14.4,1.69,1.69,0,0,1-.41.45,2.84,2.84,0,0,1-1,.52,3.91,3.91,0,0,1-1.33.21,3.59,3.59,0,0,1-1.82-.45,3,3,0,0,1-1.23-1.25,3.86,3.86,0,0,1-.44-1.85Zm5.51-.55a2.46,2.46,0,0,0-.61-1.62,2,2,0,0,0-1.51-.61,2.21,2.21,0,0,0-1.58.62,2.71,2.71,0,0,0-.79,1.61Zm5.77-3.06a2.43,2.43,0,0,1,2,.8,3.33,3.33,0,0,1,.67,2.17v3.59q0,.48-.45.48h-.13a.42.42,0,0,1-.46-.48v-3.5a2.44,2.44,0,0,0-.46-1.58,1.65,1.65,0,0,0-1.33-.56,2.19,2.19,0,0,0-1.28.37,2.32,2.32,0,0,0-.84,1v4.26q0,.48-.45.48h-.13a.42.42,0,0,1-.46-.48v-6.35s0,0,.13-.07a.69.69,0,0,1,.25,0c.4,0,.61.29.63.86v.4a2.68,2.68,0,0,1,1-1,2.56,2.56,0,0,1,1.39-.37Zm6.73,7.16a1.79,1.79,0,0,1-1.41-.53,2.37,2.37,0,0,1-.47-1.62v-4h-.67c-.3,0-.45-.13-.45-.38v-.11c0-.25.15-.38.45-.38h.67v-1.21c0-.33.15-.5.46-.5h.11c.3,0,.45.17.45.5v1.21h1.73c.3,0,.45.13.45.38v.09c0,.27-.15.4-.46.4H110.5v3.82a1.86,1.86,0,0,0,.25,1.1.89.89,0,0,0,.77.33,1.15,1.15,0,0,0,1-.53s0,0,.1,0a.43.43,0,0,1,.13.16.61.61,0,0,1,.06.28.75.75,0,0,1-.26.53,1.71,1.71,0,0,1-1.19.4Zm2.17-3.59a3.71,3.71,0,0,1,.44-1.84,3.34,3.34,0,0,1,1.23-1.27,3.51,3.51,0,0,1,1.81-.46,3.43,3.43,0,0,1,1.79.46,3.2,3.2,0,0,1,1.22,1.28,3.82,3.82,0,0,1,.45,1.86,3.7,3.7,0,0,1-.45,1.83,3.2,3.2,0,0,1-1.23,1.27,3.46,3.46,0,0,1-1.79.46,3.5,3.5,0,0,1-1.8-.46,3.18,3.18,0,0,1-1.24-1.28,3.86,3.86,0,0,1-.43-1.85Zm5.93,0a3.06,3.06,0,0,0-.31-1.4,2.36,2.36,0,0,0-.88-1,2.26,2.26,0,0,0-1.26-.36,2.4,2.4,0,0,0-1.27.35,2.43,2.43,0,0,0-.89,1,3.18,3.18,0,0,0,0,2.78,2.46,2.46,0,0,0,.89,1,2.49,2.49,0,0,0,2.53,0,2.37,2.37,0,0,0,.88-1,3,3,0,0,0,.31-1.39Zm6.79,3.46c-.3,0-.44-.17-.44-.5V170a1.27,1.27,0,0,1-.45.38,1.32,1.32,0,0,1-.6.13,1.17,1.17,0,0,1-.82-.28.78.78,0,0,1-.23-.55.59.59,0,0,1,.07-.29.78.78,0,0,1,.14-.2s.09-.06.11,0a1,1,0,0,0,.81.34,1.13,1.13,0,0,0,.8-.32,1.16,1.16,0,0,0,.37-.8h.38c.32,0,.48.17.48.5v8.4c0,.33-.16.5-.48.5Z"/><line class="cls-1" x1="186.24" y1="196.53" x2="186.24" y2="27.1"/><polygon class="cls-2" points="229.78 119.11 354.5 119.11 324.49 149.12 199.77 149.12 229.78 119.11"/><polygon class="cls-1" points="229.78 119.11 354.5 119.11 324.49 149.12 199.77 149.12 229.78 119.11"/><polyline class="cls-3" points="354.5 119.11 354.5 123.01 324.49 153.02 324.49 149.12"/><polyline class="cls-1" points="354.5 119.11 354.5 123.01 324.49 153.02 324.49 149.12"/><polyline class="cls-3" points="324.49 149.12 324.49 153.02 199.77 153.02 199.77 149.12"/><polyline class="cls-1" points="324.49 149.12 324.49 153.02 199.77 153.02 199.77 149.12"/><polygon class="cls-1" points="253.16 119.11 331.12 119.11 301.11 149.12 223.15 149.12 253.16 119.11"/><line class="cls-1" x1="253.16" y1="119.11" x2="253.16" y2="41.15"/><polygon class="cls-4" points="253.16 41.15 331.12 41.15 301.11 71.17 223.15 71.17 253.16 41.15"/><polygon class="cls-7" points="253.16 41.15 331.12 41.15 301.11 71.17 223.15 71.17 253.16 41.15"/><rect class="cls-4" x="223.15" y="71.17" width="77.95" height="77.95"/><rect class="cls-7" x="223.15" y="71.17" width="77.95" height="77.95"/><polygon class="cls-5" points="253.16 80.13 331.12 80.13 301.11 110.14 223.15 110.14 253.16 80.13"/><rect class="cls-6" x="223.15" y="110.14" width="77.95" height="38.98"/><polygon class="cls-6" points="331.12 119.11 301.11 149.12 301.11 110.14 331.12 80.13 331.12 119.11"/><line class="cls-1" x1="301.11" y1="149.12" x2="301.11" y2="71.17"/><line class="cls-1" x1="331.12" y1="119.11" x2="331.12" y2="41.15"/><line class="cls-1" x1="223.15" y1="149.12" x2="223.15" y2="71.17"/><polyline class="cls-1" points="331.12 119.11 301.11 149.12 223.15 149.12"/><polygon class="cls-1" points="253.16 41.15 331.12 41.15 301.11 71.17 223.15 71.17 253.16 41.15"/><path d="M243.93,169a.57.57,0,0,1,.18-.44.64.64,0,0,1,.47-.18h.28a.71.71,0,0,1,.47.13,1.61,1.61,0,0,1,.29.48l2.51,5.25,2.52-5.25a1.16,1.16,0,0,1,.27-.48.76.76,0,0,1,.46-.13h.27a.69.69,0,0,1,.49.17.61.61,0,0,1,.17.45v8.26c0,.33-.15.49-.45.49h-.12c-.3,0-.45-.16-.45-.49v-2.52l0-5.05-2.46,5.14a.92.92,0,0,1-.26.39.76.76,0,0,1-.47.12.72.72,0,0,1-.47-.12,1.15,1.15,0,0,1-.28-.39l-2.43-5.13v7.56c0,.33-.15.49-.44.49h-.16c-.28,0-.42-.16-.42-.49Zm9.93,5.28a3.82,3.82,0,0,1,.44-1.84,3.22,3.22,0,0,1,1.24-1.27,3.47,3.47,0,0,1,1.8-.46,3.43,3.43,0,0,1,1.79.46,3.23,3.23,0,0,1,1.23,1.28,3.93,3.93,0,0,1,.44,1.86,3.81,3.81,0,0,1-.44,1.83,3.29,3.29,0,0,1-1.24,1.27,3.53,3.53,0,0,1-1.79.46,3.6,3.6,0,0,1-1.8-.46,3.16,3.16,0,0,1-1.23-1.28,3.75,3.75,0,0,1-.44-1.85Zm5.94,0a3.07,3.07,0,0,0-.32-1.4,2.44,2.44,0,0,0-.87-1,2.4,2.4,0,0,0-1.27-.35,2.4,2.4,0,0,0-2.15,1.31,3.09,3.09,0,0,0,0,2.78,2.39,2.39,0,0,0,4.29,0,2.93,2.93,0,0,0,.32-1.38Zm10.26-3.6a2.36,2.36,0,0,1,1.89.75,3.17,3.17,0,0,1,.64,2.13v3.67c0,.33-.15.49-.45.49H272c-.31,0-.46-.16-.46-.49v-3.58a2.28,2.28,0,0,0-.44-1.52,1.54,1.54,0,0,0-1.28-.53,2,2,0,0,0-1.14.36,2.14,2.14,0,0,0-.77,1v4.27c0,.33-.15.49-.46.49h-.11c-.31,0-.46-.16-.46-.49v-3.67a2.15,2.15,0,0,0-.44-1.45,1.59,1.59,0,0,0-1.28-.51,2,2,0,0,0-1.13.36,2.31,2.31,0,0,0-.79,1v4.27c0,.33-.15.49-.45.49h-.13c-.3,0-.46-.16-.46-.49V171s0,0,.12-.07a.78.78,0,0,1,.26,0q.6,0,.63.84V172a2.65,2.65,0,0,1,.91-.94,2.3,2.3,0,0,1,1.26-.35,2.4,2.4,0,0,1,1.42.4,2.22,2.22,0,0,1,.84,1.12,2.77,2.77,0,0,1,.95-1.11,2.56,2.56,0,0,1,1.44-.41Zm3.88,3.61a3.89,3.89,0,0,1,.44-1.85,3.23,3.23,0,0,1,1.21-1.3,3.28,3.28,0,0,1,1.74-.46,3.23,3.23,0,0,1,1.66.42,2.83,2.83,0,0,1,1.09,1.18,3.85,3.85,0,0,1,.39,1.77v.1a.37.37,0,0,1-.08.26.39.39,0,0,1-.28.07h-5.18a1,1,0,0,0,0,.2,2.48,2.48,0,0,0,.78,1.66,2.39,2.39,0,0,0,1.71.64,2.5,2.5,0,0,0,1.4-.35,2.38,2.38,0,0,0,.83-.92.47.47,0,0,1,.19,0,.59.59,0,0,1,.27.18.45.45,0,0,1,.13.33.84.84,0,0,1-.14.4,1.67,1.67,0,0,1-.41.44,2.68,2.68,0,0,1-.95.53,3.91,3.91,0,0,1-1.33.21,3.59,3.59,0,0,1-1.82-.45,3,3,0,0,1-1.23-1.25,3.86,3.86,0,0,1-.44-1.85Zm5.51-.56a2.43,2.43,0,0,0-.61-1.61,2,2,0,0,0-1.51-.61,2.21,2.21,0,0,0-1.58.62,2.68,2.68,0,0,0-.79,1.6Zm5.77-3a2.43,2.43,0,0,1,2,.8,3.33,3.33,0,0,1,.66,2.17v3.58c0,.33-.14.49-.44.49h-.13c-.31,0-.46-.16-.46-.49v-3.5a2.41,2.41,0,0,0-.46-1.57,1.63,1.63,0,0,0-1.33-.56,2.25,2.25,0,0,0-1.29.37,2.4,2.4,0,0,0-.83,1v4.26c0,.33-.15.49-.45.49h-.13c-.3,0-.46-.16-.46-.49V171s0,0,.12-.07a.78.78,0,0,1,.26,0c.4,0,.61.29.63.86v.4a2.79,2.79,0,0,1,1-1,2.64,2.64,0,0,1,1.39-.36ZM292,177.9a1.83,1.83,0,0,1-1.42-.53,2.44,2.44,0,0,1-.46-1.63v-4h-.68c-.29,0-.44-.13-.44-.39v-.1c0-.26.15-.38.44-.38h.68v-1.21c0-.33.15-.5.46-.5h.11c.3,0,.45.17.45.5v1.21h1.73c.3,0,.45.12.45.38v.09c0,.27-.16.4-.46.4h-1.74v3.82a1.83,1.83,0,0,0,.25,1.09.87.87,0,0,0,.77.34,1.17,1.17,0,0,0,1-.53s.05,0,.1,0a.36.36,0,0,1,.13.16.6.6,0,0,1,.06.27.71.71,0,0,1-.26.53,1.69,1.69,0,0,1-1.19.41Zm2.16-3.59a3.72,3.72,0,0,1,.45-1.84,3.27,3.27,0,0,1,1.23-1.27,3.51,3.51,0,0,1,1.81-.46,3.43,3.43,0,0,1,1.79.46,3.14,3.14,0,0,1,1.22,1.28,3.82,3.82,0,0,1,.45,1.86,3.7,3.7,0,0,1-.45,1.83,3.2,3.2,0,0,1-1.23,1.27,3.56,3.56,0,0,1-1.79.46,3.6,3.6,0,0,1-1.8-.46,3.12,3.12,0,0,1-1.24-1.28,3.86,3.86,0,0,1-.44-1.85Zm5.94,0a3.06,3.06,0,0,0-.31-1.4,2.39,2.39,0,0,0-.88-1,2.34,2.34,0,0,0-1.26-.35,2.4,2.4,0,0,0-1.27.35,2.43,2.43,0,0,0-.89,1,3.18,3.18,0,0,0,0,2.78,2.46,2.46,0,0,0,.89,1,2.4,2.4,0,0,0,1.27.35,2.34,2.34,0,0,0,2.14-1.3,2.92,2.92,0,0,0,.31-1.38Zm5.24,3.4a.85.85,0,0,1-.54-.14.62.62,0,0,1-.16-.48v-.36a3.12,3.12,0,0,1,.38-1.57,3.6,3.6,0,0,1,1-1.07,10.86,10.86,0,0,1,1.48-.89c.61-.31,1.05-.56,1.32-.73a2.55,2.55,0,0,0,.71-.64,1.36,1.36,0,0,0,.31-.91,1.61,1.61,0,0,0-.55-1.25,2.62,2.62,0,0,0-3.09.07,2.78,2.78,0,0,0-.8,1.37s-.06,0-.19,0a.73.73,0,0,1-.36-.16.48.48,0,0,1-.16-.4,1.6,1.6,0,0,1,.19-.68,2.61,2.61,0,0,1,.54-.72,3.12,3.12,0,0,1,1-.65,3.68,3.68,0,0,1,1.4-.26A3.25,3.25,0,0,1,310,169a2.47,2.47,0,0,1,.81,1.94,2.29,2.29,0,0,1-.35,1.28,3,3,0,0,1-.88.88,14,14,0,0,1-1.44.8,12.8,12.8,0,0,0-1.3.72,3.15,3.15,0,0,0-.84.78,2.09,2.09,0,0,0-.37,1.08l0,.29h4.86c.35,0,.52.14.52.43v.08c0,.3-.17.45-.52.45Z"/><line class="cls-1" x1="368.03" y1="196.53" x2="368.03" y2="27.1"/><line class="cls-1" x1="4.26" y1="196.73" x2="368.22" y2="196.73"/><line class="cls-1" x1="4.46" y1="366.36" x2="4.46" y2="196.93"/><polygon class="cls-2" points="48 288.94 172.72 288.94 142.71 318.95 17.99 318.95 48 288.94"/><polygon class="cls-1" points="48 288.94 172.72 288.94 142.71 318.95 17.99 318.95 48 288.94"/><polyline class="cls-3" points="172.72 288.94 172.72 292.83 142.71 322.85 142.71 318.95"/><polyline class="cls-1" points="172.72 288.94 172.72 292.83 142.71 322.85 142.71 318.95"/><polyline class="cls-3" points="142.71 318.95 142.71 322.85 17.99 322.85 17.99 318.95"/><polyline class="cls-1" points="142.71 318.95 142.71 322.85 17.99 322.85 17.99 318.95"/><polygon class="cls-1" points="71.38 288.94 149.34 288.94 119.33 318.95 41.37 318.95 71.38 288.94"/><line class="cls-1" x1="71.38" y1="288.94" x2="71.38" y2="210.98"/><polygon class="cls-4" points="71.38 210.98 149.34 210.98 119.33 241 41.37 241 71.38 210.98"/><polygon class="cls-7" points="71.38 210.98 149.34 210.98 119.33 241 41.37 241 71.38 210.98"/><rect class="cls-4" x="41.37" y="240.99" width="77.95" height="77.95"/><rect class="cls-7" x="41.37" y="240.99" width="77.95" height="77.95"/><polygon class="cls-5" points="71.38 230.47 149.34 230.47 119.33 260.48 41.37 260.48 71.38 230.47"/><rect class="cls-6" x="41.37" y="260.48" width="77.95" height="58.47"/><polygon class="cls-6" points="149.34 288.94 119.33 318.95 119.33 260.48 149.34 230.47 149.34 288.94"/><line class="cls-1" x1="119.33" y1="318.95" x2="119.33" y2="240.99"/><line class="cls-1" x1="149.34" y1="288.94" x2="149.34" y2="210.98"/><line class="cls-1" x1="41.37" y1="318.95" x2="41.37" y2="240.99"/><polyline class="cls-1" points="149.34 288.94 119.33 318.95 41.37 318.95"/><polygon class="cls-1" points="71.38 210.98 149.34 210.98 119.33 241 41.37 241 71.38 210.98"/><path d="M62.09,338.85a.57.57,0,0,1,.17-.44.63.63,0,0,1,.47-.17H63a.69.69,0,0,1,.46.12,1.82,1.82,0,0,1,.3.48l2.51,5.25,2.51-5.25a1.28,1.28,0,0,1,.28-.48.71.71,0,0,1,.45-.12h.27a.67.67,0,0,1,.49.16.57.57,0,0,1,.17.45v8.27c0,.32-.15.48-.44.48h-.13q-.45,0-.45-.48v-2.53l0-5L67,344.68a1,1,0,0,1-.27.39.76.76,0,0,1-.47.12.74.74,0,0,1-.47-.12,1.15,1.15,0,0,1-.27-.39l-2.44-5.12v7.56c0,.32-.14.48-.44.48H62.5c-.28,0-.41-.16-.41-.48ZM72,344.13a3.72,3.72,0,0,1,.45-1.84A3.26,3.26,0,0,1,73.69,341a3.51,3.51,0,0,1,1.81-.46,3.4,3.4,0,0,1,1.78.46,3.16,3.16,0,0,1,1.23,1.28,3.82,3.82,0,0,1,.45,1.86,3.7,3.7,0,0,1-.45,1.83,3.26,3.26,0,0,1-1.23,1.27,3.75,3.75,0,0,1-3.6,0A3.16,3.16,0,0,1,72.45,346a3.86,3.86,0,0,1-.44-1.85Zm5.94,0a3.06,3.06,0,0,0-.31-1.4,2.43,2.43,0,0,0-.88-1,2.26,2.26,0,0,0-1.26-.36,2.4,2.4,0,0,0-1.27.35,2.36,2.36,0,0,0-.89,1,3.18,3.18,0,0,0,0,2.78,2.39,2.39,0,0,0,.89,1,2.49,2.49,0,0,0,2.53,0,2.44,2.44,0,0,0,.88-.95,3,3,0,0,0,.31-1.39Zm10.26-3.6a2.36,2.36,0,0,1,1.89.75,3.21,3.21,0,0,1,.65,2.13v3.68c0,.32-.15.48-.46.48h-.12q-.45,0-.45-.48v-3.59a2.33,2.33,0,0,0-.44-1.52,1.58,1.58,0,0,0-1.29-.53,2,2,0,0,0-1.14.36,2.12,2.12,0,0,0-.76,1v4.28a.42.42,0,0,1-.46.48h-.12a.42.42,0,0,1-.46-.48v-3.68a2.16,2.16,0,0,0-.43-1.45,1.62,1.62,0,0,0-1.29-.51,1.91,1.91,0,0,0-1.12.36,2.33,2.33,0,0,0-.8,1v4.28q0,.48-.45.48h-.12c-.31,0-.46-.16-.46-.48v-6.35s0,0,.12-.07a.69.69,0,0,1,.25,0c.4,0,.61.28.63.85l0,.34a2.64,2.64,0,0,1,.91-.94,2.33,2.33,0,0,1,1.25-.35A2.43,2.43,0,0,1,85,341a2.22,2.22,0,0,1,.84,1.12,2.66,2.66,0,0,1,.94-1.1,2.51,2.51,0,0,1,1.44-.42Zm3.89,3.62a3.92,3.92,0,0,1,.43-1.86A3.34,3.34,0,0,1,93.74,341a3.29,3.29,0,0,1,1.74-.47,3.2,3.2,0,0,1,1.66.42,2.94,2.94,0,0,1,1.1,1.19,3.77,3.77,0,0,1,.38,1.76v.1a.35.35,0,0,1-.07.26.43.43,0,0,1-.28.07H93.09a1.09,1.09,0,0,0,0,.2,2.55,2.55,0,0,0,.78,1.67,2.45,2.45,0,0,0,1.72.63,2.52,2.52,0,0,0,1.4-.35,2.4,2.4,0,0,0,.82-.91.45.45,0,0,1,.2,0,.59.59,0,0,1,.27.18.48.48,0,0,1,.12.33.8.8,0,0,1-.14.4,1.54,1.54,0,0,1-.41.45,2.78,2.78,0,0,1-.94.52,4,4,0,0,1-1.34.21,3.61,3.61,0,0,1-1.82-.45A3.15,3.15,0,0,1,92.53,346a3.84,3.84,0,0,1-.43-1.84Zm5.51-.56A2.46,2.46,0,0,0,97,342a2,2,0,0,0-1.51-.61,2.23,2.23,0,0,0-1.58.62,2.65,2.65,0,0,0-.78,1.61Zm5.76-3.06a2.41,2.41,0,0,1,2,.8,3.27,3.27,0,0,1,.67,2.17v3.59q0,.48-.45.48h-.12c-.31,0-.46-.16-.46-.48v-3.5a2.44,2.44,0,0,0-.47-1.58,1.64,1.64,0,0,0-1.33-.56,2.21,2.21,0,0,0-1.28.37,2.32,2.32,0,0,0-.84,1v4.26q0,.48-.45.48h-.12c-.31,0-.46-.16-.46-.48v-6.35s0,0,.12-.07a.69.69,0,0,1,.25,0c.4,0,.61.29.63.86v.4a2.68,2.68,0,0,1,1-1,2.58,2.58,0,0,1,1.39-.37Zm6.73,7.16a1.79,1.79,0,0,1-1.41-.53,2.43,2.43,0,0,1-.47-1.62v-4h-.67c-.3,0-.45-.13-.45-.38v-.11c0-.25.15-.38.45-.38h.67v-1.21c0-.33.16-.5.46-.5h.12c.29,0,.44.17.44.5v1.21H111c.29,0,.44.13.44.38v.09c0,.27-.15.4-.46.4h-1.73v3.82a2,2,0,0,0,.24,1.1.9.9,0,0,0,.78.33,1.13,1.13,0,0,0,1-.53s.06,0,.1,0a.35.35,0,0,1,.13.16.61.61,0,0,1,.06.28.75.75,0,0,1-.26.53,1.69,1.69,0,0,1-1.19.4Zm2.17-3.59a3.82,3.82,0,0,1,.44-1.84A3.29,3.29,0,0,1,114,341a3.47,3.47,0,0,1,1.8-.46,3.43,3.43,0,0,1,1.79.46,3.29,3.29,0,0,1,1.23,1.28,3.93,3.93,0,0,1,.44,1.86,3.81,3.81,0,0,1-.44,1.83,3.29,3.29,0,0,1-1.24,1.27,3.43,3.43,0,0,1-1.79.46,3.5,3.5,0,0,1-1.8-.46,3.16,3.16,0,0,1-1.23-1.28,3.75,3.75,0,0,1-.44-1.85Zm5.94,0a3.07,3.07,0,0,0-.32-1.4,2.41,2.41,0,0,0-.87-1,2.32,2.32,0,0,0-1.27-.36,2.37,2.37,0,0,0-2.15,1.31,3.09,3.09,0,0,0,0,2.78,2.43,2.43,0,0,0,.88,1,2.34,2.34,0,0,0,1.27.35,2.39,2.39,0,0,0,1.27-.34,2.42,2.42,0,0,0,.87-.95,3,3,0,0,0,.32-1.39Zm7.46,3.56a4.25,4.25,0,0,1-1.52-.25,3.14,3.14,0,0,1-1.08-.63,2.1,2.1,0,0,1-.5-.6,1.14,1.14,0,0,1-.17-.56.52.52,0,0,1,.14-.39.76.76,0,0,1,.31-.18q.16,0,.18,0a2.3,2.3,0,0,0,.94,1.25,3.1,3.1,0,0,0,1.7.45,2.6,2.6,0,0,0,1.69-.5A1.62,1.62,0,0,0,128,345a1.66,1.66,0,0,0-.6-1.37,2.71,2.71,0,0,0-1.72-.48h-.81c-.33,0-.5-.13-.5-.38v-.09c0-.27.16-.4.48-.4h.94a2.24,2.24,0,0,0,1.45-.42,1.58,1.58,0,0,0,0-2.38,2.39,2.39,0,0,0-1.54-.44,2.61,2.61,0,0,0-1.45.4,2.48,2.48,0,0,0-.9,1.06s-.07,0-.19,0a.7.7,0,0,1-.3-.19.45.45,0,0,1-.14-.35.92.92,0,0,1,.15-.44,2.42,2.42,0,0,1,.39-.48,3.38,3.38,0,0,1,1.07-.62,4,4,0,0,1,1.4-.24,3.64,3.64,0,0,1,2.3.65,2.19,2.19,0,0,1,.83,1.8,2,2,0,0,1-.43,1.3,2.27,2.27,0,0,1-1.22.73,2.74,2.74,0,0,1,1.41.87,2.36,2.36,0,0,1,.5,1.52,2.46,2.46,0,0,1-.91,2,3.93,3.93,0,0,1-2.49.73Z"/><line class="cls-1" x1="186.24" y1="366.36" x2="186.24" y2="196.93"/><polygon class="cls-2" points="229.78 288.96 354.5 288.96 324.49 318.97 199.77 318.97 229.78 288.96"/><polygon class="cls-1" points="229.78 288.96 354.5 288.96 324.49 318.97 199.77 318.97 229.78 288.96"/><polyline class="cls-3" points="354.5 288.96 354.5 292.86 324.49 322.87 324.49 318.97"/><polyline class="cls-1" points="354.5 288.96 354.5 292.86 324.49 322.87 324.49 318.97"/><polyline class="cls-3" points="324.49 318.97 324.49 322.87 199.77 322.87 199.77 318.97"/><polyline class="cls-1" points="324.49 318.97 324.49 322.87 199.77 322.87 199.77 318.97"/><polygon class="cls-1" points="253.16 288.96 331.12 288.96 301.11 318.97 223.15 318.97 253.16 288.96"/><line class="cls-1" x1="253.16" y1="288.96" x2="253.16" y2="211"/><polygon class="cls-4" points="253.16 211 331.12 211 301.11 241.02 223.15 241.02 253.16 211"/><polygon class="cls-7" points="253.16 211 331.12 211 301.11 241.02 223.15 241.02 253.16 211"/><rect class="cls-4" x="223.15" y="241.02" width="77.95" height="77.95"/><rect class="cls-7" x="223.15" y="241.02" width="77.95" height="77.95"/><polygon class="cls-5" points="253.16 211 331.12 211 301.11 241.02 223.15 241.02 253.16 211"/><rect class="cls-6" x="223.15" y="241.02" width="77.95" height="77.95"/><polygon class="cls-6" points="331.12 288.96 301.11 318.97 301.11 241.02 331.12 211 331.12 288.96"/><line class="cls-1" x1="301.11" y1="318.97" x2="301.11" y2="241.02"/><line class="cls-1" x1="331.12" y1="288.96" x2="331.12" y2="211"/><line class="cls-1" x1="223.15" y1="318.97" x2="223.15" y2="241.02"/><polyline class="cls-1" points="331.12 288.96 301.11 318.97 223.15 318.97"/><polygon class="cls-1" points="253.16 211 331.12 211 301.11 241.02 223.15 241.02 253.16 211"/><path d="M243.54,338.83a.57.57,0,0,1,.18-.44.6.6,0,0,1,.46-.18h.29a.68.68,0,0,1,.46.13,1.59,1.59,0,0,1,.3.48l2.51,5.25,2.51-5.25a1.28,1.28,0,0,1,.28-.48.71.71,0,0,1,.45-.13h.27a.68.68,0,0,1,.49.17.57.57,0,0,1,.17.45v8.26c0,.33-.14.49-.44.49h-.13c-.3,0-.44-.16-.44-.49v-7.57l-2.45,5.14a1,1,0,0,1-.27.39.72.72,0,0,1-.46.12.77.77,0,0,1-.48-.12,1.31,1.31,0,0,1-.27-.39l-2.44-5.13v7.56c0,.33-.14.49-.44.49H244c-.28,0-.41-.16-.41-.49Zm9.92,5.28a3.72,3.72,0,0,1,.45-1.84,3.2,3.2,0,0,1,1.23-1.27,3.51,3.51,0,0,1,1.81-.46,3.46,3.46,0,0,1,1.79.46,3.14,3.14,0,0,1,1.22,1.28,3.82,3.82,0,0,1,.45,1.86A3.7,3.7,0,0,1,260,346a3.26,3.26,0,0,1-1.23,1.27,3.73,3.73,0,0,1-3.59,0A3.12,3.12,0,0,1,253.9,346a3.86,3.86,0,0,1-.44-1.85Zm5.94,0a3.06,3.06,0,0,0-.31-1.4,2.3,2.3,0,0,0-.88-1,2.26,2.26,0,0,0-1.26-.36,2.4,2.4,0,0,0-1.27.35,2.43,2.43,0,0,0-.89,1,3.18,3.18,0,0,0,0,2.78,2.46,2.46,0,0,0,.89,1,2.39,2.39,0,0,0,3.41-1,2.92,2.92,0,0,0,.31-1.38Zm10.26-3.6a2.36,2.36,0,0,1,1.89.75,3.17,3.17,0,0,1,.65,2.13v3.67c0,.33-.15.49-.46.49h-.11c-.31,0-.46-.16-.46-.49v-3.58a2.33,2.33,0,0,0-.44-1.52,1.54,1.54,0,0,0-1.28-.53,2,2,0,0,0-1.15.36,2.18,2.18,0,0,0-.76,1v4.27c0,.33-.16.49-.46.49H267c-.3,0-.46-.16-.46-.49v-3.67a2.16,2.16,0,0,0-.43-1.45,1.62,1.62,0,0,0-1.29-.51,1.94,1.94,0,0,0-1.12.36,2.33,2.33,0,0,0-.8,1v4.27c0,.33-.15.49-.44.49h-.13c-.31,0-.46-.16-.46-.49v-6.34s0,0,.12-.07a.69.69,0,0,1,.25,0c.4,0,.61.28.63.85l0,.34a2.65,2.65,0,0,1,.91-.94,2.33,2.33,0,0,1,1.25-.35,2.43,2.43,0,0,1,1.43.4,2.22,2.22,0,0,1,.84,1.12,2.7,2.7,0,0,1,1-1.11,2.55,2.55,0,0,1,1.43-.41Zm3.89,3.61a3.8,3.8,0,0,1,.44-1.85,3.34,3.34,0,0,1,1.2-1.3,3.28,3.28,0,0,1,1.74-.46,3.17,3.17,0,0,1,1.66.42,2.88,2.88,0,0,1,1.1,1.19,3.77,3.77,0,0,1,.39,1.76v.1a.37.37,0,0,1-.08.26.43.43,0,0,1-.28.07h-5.18a1.09,1.09,0,0,0,0,.2,2.58,2.58,0,0,0,.78,1.67,2.45,2.45,0,0,0,1.72.63,2.52,2.52,0,0,0,1.4-.35,2.36,2.36,0,0,0,.82-.92.51.51,0,0,1,.2,0,.59.59,0,0,1,.27.18.48.48,0,0,1,.12.33.74.74,0,0,1-.14.4,1.8,1.8,0,0,1-.4.45,2.94,2.94,0,0,1-.95.52,4,4,0,0,1-1.34.21,3.64,3.64,0,0,1-1.82-.45A3.06,3.06,0,0,1,274,346a3.75,3.75,0,0,1-.44-1.85Zm5.51-.56a2.46,2.46,0,0,0-.62-1.61,2,2,0,0,0-1.51-.61,2.19,2.19,0,0,0-1.57.62,2.63,2.63,0,0,0-.79,1.6Zm5.76-3a2.4,2.4,0,0,1,2,.8,3.27,3.27,0,0,1,.67,2.17v3.58c0,.33-.15.49-.44.49h-.13c-.31,0-.46-.16-.46-.49v-3.5A2.43,2.43,0,0,0,286,342a1.64,1.64,0,0,0-1.33-.56,2.24,2.24,0,0,0-1.28.37,2.35,2.35,0,0,0-.84,1v4.26c0,.33-.15.49-.44.49h-.13c-.31,0-.46-.16-.46-.49v-6.34s0,0,.12-.07a.69.69,0,0,1,.25,0c.4,0,.61.29.63.86v.4a2.79,2.79,0,0,1,1-1,2.67,2.67,0,0,1,1.39-.36Zm6.73,7.16a1.79,1.79,0,0,1-1.41-.53,2.43,2.43,0,0,1-.47-1.62v-4H289q-.45,0-.45-.39v-.1c0-.25.15-.38.45-.38h.67v-1.21c0-.33.16-.5.46-.5h.12c.29,0,.44.17.44.5v1.21h1.74c.29,0,.44.13.44.38v.09c0,.27-.15.4-.46.4h-1.73v3.82a2,2,0,0,0,.24,1.1.9.9,0,0,0,.78.33,1.12,1.12,0,0,0,1-.53s.06,0,.11,0a.42.42,0,0,1,.12.16.6.6,0,0,1,.06.27.71.71,0,0,1-.26.54,1.69,1.69,0,0,1-1.19.4Zm2.17-3.59a3.82,3.82,0,0,1,.44-1.84A3.22,3.22,0,0,1,295.4,341a3.48,3.48,0,0,1,1.81-.46A3.42,3.42,0,0,1,299,341a3.23,3.23,0,0,1,1.23,1.28,3.93,3.93,0,0,1,.44,1.86,3.81,3.81,0,0,1-.44,1.83,3.29,3.29,0,0,1-1.24,1.27,3.53,3.53,0,0,1-1.79.46,3.6,3.6,0,0,1-1.8-.46,3.16,3.16,0,0,1-1.23-1.28,3.75,3.75,0,0,1-.44-1.85Zm5.94,0a3.07,3.07,0,0,0-.32-1.4,2.35,2.35,0,0,0-.87-1,2.31,2.31,0,0,0-1.26-.36,2.4,2.4,0,0,0-2.16,1.31,3.09,3.09,0,0,0,0,2.78,2.39,2.39,0,0,0,.89,1,2.29,2.29,0,0,0,1.27.35,2.31,2.31,0,0,0,2.13-1.3,2.93,2.93,0,0,0,.32-1.38Zm9.57,3.46a.41.41,0,0,1-.33-.15.52.52,0,0,1-.12-.36V344.9h-4a.85.85,0,0,1-.5-.14.46.46,0,0,1-.18-.38v-.25a.8.8,0,0,1,.07-.34,3.25,3.25,0,0,1,.26-.41l3.61-4.66a1.9,1.9,0,0,1,.4-.43,1.12,1.12,0,0,1,.55-.1,1,1,0,0,1,.63.16.7.7,0,0,1,.19.54V344H311c.33,0,.49.13.49.41v.07c0,.28-.16.42-.49.42h-1.17v2.19c0,.34-.16.51-.46.51Zm-.4-3.6v-4.88L305.07,344Z"/><line class="cls-1" x1="368.03" y1="366.36" x2="368.03" y2="196.93"/><line class="cls-1" x1="4.26" y1="366.55" x2="368.22" y2="366.55"/></svg>