<svg id="Camada_1" data-name="Camada 1" xmlns="http://www.w3.org/2000/svg" viewBox="0 0 120.36 89.14"><defs><style>.cls-1{fill:#e6164d;}.cls-2,.cls-4{fill:none;stroke:#000;stroke-miterlimit:10;}.cls-2{stroke-width:0.4px;}.cls-3{font-size:9.96px;font-family:CMR10;}.cls-4{stroke-width:0.57px;}</style></defs><circle class="cls-1" cx="58.66" cy="33.4" r="28.35" transform="translate(-8.8 35.83) rotate(-31.72)"/><circle class="cls-2" cx="58.66" cy="33.4" r="28.35" transform="translate(-8.8 35.83) rotate(-31.72)"/><line class="cls-2" x1="58.66" y1="33.4" x2="58.66" y2="61.75"/><line class="cls-2" x1="58.66" y1="33.4" x2="83.21" y2="19.23"/><line class="cls-2" x1="58.66" y1="33.4" x2="34.11" y2="19.23"/><text class="cls-3" transform="translate(6.21 71)">3</text><line class="cls-4" x1="6.21" y1="73.06" x2="11.19" y2="73.06"/><text class="cls-3" transform="translate(6.21 81.6)">3</text><path d="M18.48,76.81a2.92,2.92,0,0,1-1.62-.46,3.15,3.15,0,0,1-1.13-1.26,4.45,4.45,0,0,1,0-3.73,3.1,3.1,0,0,1,1.14-1.26,3,3,0,0,1,1.64-.45A3,3,0,0,1,20,70a2.5,2.5,0,0,1,1,1V67s0-.06.1-.08a1,1,0,0,1,.26,0c.44,0,.67.31.67.92V76.2c0,.33-.15.49-.46.49h-.1c-.3,0-.44-.15-.44-.46s0-.48,0-.89a2.92,2.92,0,0,1-1,1.08,2.79,2.79,0,0,1-1.5.39ZM21,72.16A2.55,2.55,0,0,0,20.11,71a2.38,2.38,0,0,0-1.43-.43,2.11,2.11,0,0,0-1.68.75,2.88,2.88,0,0,0-.64,2,3.35,3.35,0,0,0,.29,1.41,2.29,2.29,0,0,0,.83,1,2.12,2.12,0,0,0,1.19.34,2.4,2.4,0,0,0,1.16-.29,2.33,2.33,0,0,0,.84-.81A2.21,2.21,0,0,0,21,73.69Zm2.44,2.72a1.76,1.76,0,0,1,1.12-1.68,9,9,0,0,1,3.57-.57h.15v-.29A1.79,1.79,0,0,0,27.78,71a1.88,1.88,0,0,0-1.37-.46,2.35,2.35,0,0,0-1.29.33,2.09,2.09,0,0,0-.8.89.52.52,0,0,1-.19,0,.84.84,0,0,1-.31-.16.45.45,0,0,1-.13-.35.73.73,0,0,1,.11-.37,1.36,1.36,0,0,1,.3-.39,2.84,2.84,0,0,1,1-.59,3.75,3.75,0,0,1,1.39-.23,2.84,2.84,0,0,1,2.08.72,2.64,2.64,0,0,1,.73,2v4.23s0,0-.12.07a.7.7,0,0,1-.25,0q-.53,0-.6-.66,0-.4,0-.63a2.52,2.52,0,0,1-1,1,3.08,3.08,0,0,1-1.52.37,2.61,2.61,0,0,1-1.7-.51,1.71,1.71,0,0,1-.62-1.4Zm4.84-1.57H28a8,8,0,0,0-2.73.4,1.2,1.2,0,0,0-.84,1.14,1,1,0,0,0,.4.84,1.72,1.72,0,0,0,1.09.32,2.59,2.59,0,0,0,1.18-.27A2.32,2.32,0,0,0,28,75a1.89,1.89,0,0,0,.3-1Zm7.58,3.5a1.79,1.79,0,0,1-1.41-.53A2.44,2.44,0,0,1,34,74.65v-4h-.67q-.45,0-.45-.39v-.1c0-.26.15-.38.45-.38H34V68.6c0-.33.15-.5.46-.5h.11c.3,0,.45.17.45.5v1.21h1.73c.3,0,.45.12.45.38v.09c0,.27-.15.4-.46.4H35V74.5a1.9,1.9,0,0,0,.25,1.09.87.87,0,0,0,.77.34,1.17,1.17,0,0,0,1-.53s0,0,.1,0a.43.43,0,0,1,.13.16.6.6,0,0,1,.06.27.71.71,0,0,1-.26.53,1.67,1.67,0,0,1-1.19.41ZM38,73.22a3.71,3.71,0,0,1,.44-1.84,3.27,3.27,0,0,1,1.23-1.27,3.51,3.51,0,0,1,1.81-.46,3.43,3.43,0,0,1,1.79.46,3.14,3.14,0,0,1,1.22,1.28A3.82,3.82,0,0,1,45,73.25a3.7,3.7,0,0,1-.45,1.83,3.2,3.2,0,0,1-1.23,1.27,3.56,3.56,0,0,1-1.79.46,3.6,3.6,0,0,1-1.8-.46,3.18,3.18,0,0,1-1.24-1.28A3.86,3.86,0,0,1,38,73.22Zm5.94,0a3.07,3.07,0,0,0-.32-1.4,2.39,2.39,0,0,0-.88-1,2.34,2.34,0,0,0-1.26-.35,2.4,2.4,0,0,0-1.27.35,2.43,2.43,0,0,0-.89,1,3.18,3.18,0,0,0,0,2.78,2.46,2.46,0,0,0,.89,1,2.4,2.4,0,0,0,1.27.35,2.34,2.34,0,0,0,2.14-1.3A2.93,2.93,0,0,0,44,73.25Zm5.2-3.6a1.18,1.18,0,0,1,.74.21.61.61,0,0,1,.28.53.76.76,0,0,1-.06.32.63.63,0,0,1-.15.19c-.06,0-.09.06-.1,0a1.13,1.13,0,0,0-.82-.28,1.32,1.32,0,0,0-1.23.74,4.41,4.41,0,0,0-.41,2.08V76.2c0,.33-.15.49-.44.49h-.12c-.31,0-.47-.16-.47-.49V69.86s0,0,.11-.07a.75.75,0,0,1,.26,0c.36,0,.56.23.61.69s0,.57,0,.74A2.23,2.23,0,0,1,48,70a1.68,1.68,0,0,1,1.12-.39Zm4.51,7.16a1.83,1.83,0,0,1-1.42-.53,2.44,2.44,0,0,1-.46-1.63v-4H51.1c-.29,0-.44-.13-.44-.39v-.1c0-.26.15-.38.44-.38h.68V68.6c0-.33.15-.5.46-.5h.11c.3,0,.45.17.45.5v1.21h1.73c.3,0,.45.12.45.38v.09c0,.27-.16.4-.46.4H52.78V74.5A1.83,1.83,0,0,0,53,75.59a.87.87,0,0,0,.77.34,1.17,1.17,0,0,0,1-.53s0,0,.1,0a.43.43,0,0,1,.13.16.6.6,0,0,1,.06.27.71.71,0,0,1-.26.53,1.69,1.69,0,0,1-1.19.41Zm2.16-1.93A1.77,1.77,0,0,1,57,73.2a9,9,0,0,1,3.57-.57h.15v-.29A1.79,1.79,0,0,0,60.19,71a1.88,1.88,0,0,0-1.37-.46,2.41,2.41,0,0,0-1.3.33,2.07,2.07,0,0,0-.79.89.57.57,0,0,1-.2,0,.73.73,0,0,1-.3-.16.45.45,0,0,1-.13-.35.82.82,0,0,1,.1-.37,1.61,1.61,0,0,1,.31-.39,2.84,2.84,0,0,1,1-.59,3.72,3.72,0,0,1,1.39-.23,2.84,2.84,0,0,1,2.08.72,2.64,2.64,0,0,1,.73,2v4.23s0,0-.12.07a.74.74,0,0,1-.25,0q-.54,0-.6-.66,0-.4,0-.63a2.52,2.52,0,0,1-1,1,3.08,3.08,0,0,1-1.52.37,2.59,2.59,0,0,1-1.7-.51,1.72,1.72,0,0,1-.63-1.4Zm4.85-1.57h-.24a8,8,0,0,0-2.73.4,1.2,1.2,0,0,0-.84,1.14,1,1,0,0,0,.4.84,1.72,1.72,0,0,0,1.09.32,2.59,2.59,0,0,0,1.18-.27,2.21,2.21,0,0,0,.83-.74,1.82,1.82,0,0,0,.31-1Zm5.54-1.54c-.31,0-.46-.14-.46-.41v-.11c0-.27.15-.41.46-.41h5.08a.5.5,0,0,1,.37.11.4.4,0,0,1,.1.3v.11c0,.27-.16.41-.47.41Zm0,3.23c-.31,0-.46-.14-.46-.42v-.1c0-.27.15-.41.46-.41h5.08a.55.55,0,0,1,.37.1.45.45,0,0,1,.1.31v.1c0,.28-.16.42-.47.42Zm11.56,1.71c-.29,0-.44-.17-.44-.51V68.94a1.22,1.22,0,0,1-.45.39,1.32,1.32,0,0,1-.6.13,1.14,1.14,0,0,1-.82-.29.74.74,0,0,1-.23-.54.69.69,0,0,1,.07-.29.78.78,0,0,1,.14-.2c.06,0,.09-.07.11-.06a1,1,0,0,0,.82.35,1.12,1.12,0,0,0,.79-.32,1.16,1.16,0,0,0,.37-.8h.39c.31,0,.47.17.47.5V76.2c0,.34-.16.51-.47.51Zm7.82.1a1.79,1.79,0,0,1-1.41-.53,2.44,2.44,0,0,1-.47-1.63v-4H83q-.45,0-.45-.39v-.1c0-.26.15-.38.45-.38h.67V68.6c0-.33.16-.5.46-.5h.12c.29,0,.44.17.44.5v1.21h1.74c.29,0,.44.12.44.38v.09c0,.27-.15.4-.46.4H84.72V74.5A1.91,1.91,0,0,0,85,75.59a.88.88,0,0,0,.78.34,1.14,1.14,0,0,0,1-.53s.06,0,.11,0a.42.42,0,0,1,.12.16.6.6,0,0,1,.06.27.68.68,0,0,1-.26.53,1.65,1.65,0,0,1-1.19.41Zm2.17-3.59a3.82,3.82,0,0,1,.44-1.84,3.22,3.22,0,0,1,1.24-1.27,3.48,3.48,0,0,1,1.81-.46,3.42,3.42,0,0,1,1.78.46,3.23,3.23,0,0,1,1.23,1.28,3.93,3.93,0,0,1,.44,1.86,3.81,3.81,0,0,1-.44,1.83A3.29,3.29,0,0,1,93,76.35a3.53,3.53,0,0,1-1.79.46,3.6,3.6,0,0,1-1.8-.46,3.16,3.16,0,0,1-1.23-1.28,3.75,3.75,0,0,1-.44-1.85Zm5.94,0a3.07,3.07,0,0,0-.32-1.4,2.44,2.44,0,0,0-.87-1,2.46,2.46,0,0,0-2.53,0,2.36,2.36,0,0,0-.89,1,3.09,3.09,0,0,0,0,2.78,2.39,2.39,0,0,0,4.29,0,2.93,2.93,0,0,0,.32-1.38Zm5.21-3.6a1.17,1.17,0,0,1,.73.21.61.61,0,0,1,.28.53.76.76,0,0,1-.06.32.42.42,0,0,1-.15.19c-.06,0-.09.06-.1,0a1.12,1.12,0,0,0-.82-.28,1.34,1.34,0,0,0-1.23.74,4.42,4.42,0,0,0-.4,2.08V76.2c0,.33-.15.49-.45.49H96.6a.43.43,0,0,1-.48-.49V69.86s0,0,.12-.07a.68.68,0,0,1,.26,0q.52,0,.6.69c0,.32,0,.57,0,.74A2.1,2.1,0,0,1,97.79,70a1.66,1.66,0,0,1,1.12-.39Zm4.5,7.16a1.79,1.79,0,0,1-1.41-.53,2.44,2.44,0,0,1-.47-1.63v-4h-.67q-.45,0-.45-.39v-.1c0-.26.15-.38.45-.38h.67V68.6c0-.33.15-.5.46-.5h.12c.29,0,.44.17.44.5v1.21h1.74c.29,0,.44.12.44.38v.09c0,.27-.15.4-.46.4h-1.73V74.5a1.91,1.91,0,0,0,.24,1.09.87.87,0,0,0,.77.34,1.17,1.17,0,0,0,1-.53s.06,0,.1,0a.43.43,0,0,1,.13.16.6.6,0,0,1,.06.27.71.71,0,0,1-.26.53,1.67,1.67,0,0,1-1.19.41Zm2.17-1.93a1.76,1.76,0,0,1,1.12-1.68,9,9,0,0,1,3.57-.57h.16v-.29A1.79,1.79,0,0,0,110,71a1.91,1.91,0,0,0-1.37-.46,2.39,2.39,0,0,0-1.3.33,2.09,2.09,0,0,0-.8.89.52.52,0,0,1-.19,0,.73.73,0,0,1-.3-.16.42.42,0,0,1-.14-.35.85.85,0,0,1,.11-.37,1.24,1.24,0,0,1,.31-.39,2.71,2.71,0,0,1,1-.59,3.75,3.75,0,0,1,1.39-.23,2.83,2.83,0,0,1,2.08.72,2.64,2.64,0,0,1,.73,2v4.23s0,0-.12.07a.7.7,0,0,1-.25,0q-.52,0-.6-.66,0-.4,0-.63a2.52,2.52,0,0,1-1,1,3.06,3.06,0,0,1-1.52.37,2.61,2.61,0,0,1-1.7-.51,1.71,1.71,0,0,1-.62-1.4Zm4.85-1.57h-.25a8,8,0,0,0-2.73.4,1.2,1.2,0,0,0-.84,1.14,1,1,0,0,0,.4.84,1.72,1.72,0,0,0,1.09.32,2.59,2.59,0,0,0,1.18-.27,2.32,2.32,0,0,0,.84-.74,1.89,1.89,0,0,0,.31-1Z"/></svg>