<svg id="Camada_1" data-name="Camada 1" xmlns="http://www.w3.org/2000/svg" xmlns:xlink="http://www.w3.org/1999/xlink" viewBox="0 0 88.9 36.73"><defs><style>.cls-1,.cls-2{fill:none;}.cls-2{stroke:#000;stroke-miterlimit:10;stroke-width:0.4px;}.cls-3{clip-path:url(#clip-path);}.cls-4{fill:#e6164d;}.cls-5{fill:#95d4e9;opacity:0.3;}</style><clipPath id="clip-path"><polygon class="cls-1" points="31.84 10.02 19.07 2.65 6.3 10.02 6.3 24.76 19.07 32.13 31.84 24.76 44.6 32.13 57.37 24.76 70.13 32.13 82.9 24.76 82.9 10.02 70.13 2.65 57.37 10.02 44.6 2.65 31.84 10.02"/></clipPath></defs><polygon class="cls-2" points="31.84 10.02 19.07 2.65 6.3 10.02 6.3 24.76 19.07 32.13 31.84 24.76 44.6 32.13 57.37 24.76 70.13 32.13 82.9 24.76 82.9 10.02 70.13 2.65 57.37 10.02 44.6 2.65 31.84 10.02"/><g class="cls-3"><rect class="cls-4" x="4.33" y="2.65" width="40.27" height="29.48"/><rect class="cls-2" x="4.33" y="2.65" width="40.27" height="29.48"/><rect class="cls-5" x="44.6" y="2.65" width="38.3" height="29.48"/><rect class="cls-2" x="44.6" y="2.65" width="38.3" height="29.48"/></g></svg>