<svg id="Camada_1" data-name="Camada 1" xmlns="http://www.w3.org/2000/svg" xmlns:xlink="http://www.w3.org/1999/xlink" viewBox="0 0 96.98 41.14"><defs><style>.cls-1,.cls-2{fill:none;}.cls-2{stroke:#000;stroke-miterlimit:10;stroke-width:0.4px;}.cls-3{clip-path:url(#clip-path);}.cls-4{fill:#e6164d;}.cls-5{fill:#95d4e9;opacity:0.3;}</style><clipPath id="clip-path"><polygon class="cls-1" points="33.76 12.07 19.03 3.56 4.3 12.07 4.3 29.07 19.03 37.58 33.76 29.07 48.49 37.58 63.22 29.07 77.95 37.58 92.68 29.07 92.68 12.07 77.95 3.56 63.22 12.07 48.49 3.56 33.76 12.07"/></clipPath></defs><polygon class="cls-2" points="33.76 12.07 19.03 3.56 4.3 12.07 4.3 29.07 19.03 37.58 33.76 29.07 48.49 37.58 63.22 29.07 77.95 37.58 92.68 29.07 92.68 12.07 77.95 3.56 63.22 12.07 48.49 3.56 33.76 12.07"/><g class="cls-3"><rect class="cls-4" x="2.02" y="3.56" width="46.47" height="34.02"/><rect class="cls-2" x="2.02" y="3.56" width="46.47" height="34.02"/><rect class="cls-5" x="48.49" y="3.56" width="58.92" height="34.02"/><rect class="cls-2" x="48.49" y="3.56" width="58.92" height="34.02"/></g></svg>