<svg id="Camada_1" data-name="Camada 1" xmlns="http://www.w3.org/2000/svg" viewBox="0 0 365.2 66.86"><defs><style>.cls-1,.cls-2,.cls-3,.cls-7{fill:none;}.cls-1,.cls-2,.cls-7{stroke:#000;}.cls-1,.cls-3,.cls-7{stroke-miterlimit:10;}.cls-1,.cls-2{stroke-width:0.4px;}.cls-2{stroke-linecap:round;stroke-linejoin:round;}.cls-3{stroke:#95d4e9;stroke-width:1.13px;}.cls-4{fill:#95d4e9;}.cls-5{font-size:14.35px;font-family:CMMI12;}.cls-6{font-size:9.96px;font-family:CMR10;}.cls-7{stroke-width:0.57px;}</style></defs><line class="cls-1" x1="5.53" y1="29.68" x2="359.47" y2="29.68"/><path class="cls-2" d="M357.6,27.29a3.15,3.15,0,0,0,2.07,2.39,3.15,3.15,0,0,0-2.07,2.39"/><line class="cls-1" x1="40.97" y1="26.69" x2="40.97" y2="32.67"/><path d="M40.94,47.25A3.55,3.55,0,0,1,39,46.72a3.42,3.42,0,0,1-1.27-1.5,5.41,5.41,0,0,1-.44-2.29V42a5.46,5.46,0,0,1,.44-2.3A3.35,3.35,0,0,1,39,38.17a3.94,3.94,0,0,1,3.91,0,3.37,3.37,0,0,1,1.28,1.5,5.46,5.46,0,0,1,.45,2.3v.93a5.45,5.45,0,0,1-.46,2.3,3.49,3.49,0,0,1-1.28,1.52,3.63,3.63,0,0,1-2,.53Zm0-.92a2.27,2.27,0,0,0,1.91-.89,4,4,0,0,0,.68-2.5V42a4,4,0,0,0-.68-2.51,2.46,2.46,0,0,0-3.81,0,4,4,0,0,0-.68,2.49v1a4.07,4.07,0,0,0,.68,2.49,2.24,2.24,0,0,0,1.9.91Z"/><line class="cls-1" x1="182.7" y1="26.69" x2="182.7" y2="32.67"/><path d="M183.05,47.05c-.3,0-.44-.17-.44-.51V39.28a1.18,1.18,0,0,1-.45.38,1.21,1.21,0,0,1-.6.14,1.13,1.13,0,0,1-.82-.29.74.74,0,0,1-.23-.54.57.57,0,0,1,.07-.29.78.78,0,0,1,.14-.2c.05,0,.09-.07.11-.06a1,1,0,0,0,.81.35,1.09,1.09,0,0,0,.8-.33,1.13,1.13,0,0,0,.37-.79h.38c.32,0,.48.17.48.5v8.39q0,.51-.48.51Z"/><line class="cls-1" x1="324.43" y1="26.69" x2="324.43" y2="32.67"/><path d="M322,47.1a.75.75,0,0,1-.53-.14.6.6,0,0,1-.17-.47v-.36a3,3,0,0,1,.39-1.57,3.49,3.49,0,0,1,1-1.08,12.31,12.31,0,0,1,1.48-.88c.61-.32,1.06-.56,1.33-.73a3.1,3.1,0,0,0,.71-.64,1.44,1.44,0,0,0,.3-.91,1.55,1.55,0,0,0-.55-1.25,2.18,2.18,0,0,0-1.5-.47,2.3,2.3,0,0,0-1.59.53,2.81,2.81,0,0,0-.79,1.37s-.07,0-.2,0a.75.75,0,0,1-.36-.17.47.47,0,0,1-.16-.39,1.56,1.56,0,0,1,.19-.68,2.52,2.52,0,0,1,.54-.73,3.66,3.66,0,0,1,1.05-.65,3.59,3.59,0,0,1,1.39-.25,3.23,3.23,0,0,1,2.23.72,2.49,2.49,0,0,1,.81,2,2.27,2.27,0,0,1-.34,1.27,3,3,0,0,1-.89.89,13.14,13.14,0,0,1-1.44.79,14,14,0,0,0-1.3.72,3,3,0,0,0-.84.79,2.05,2.05,0,0,0-.37,1.07l0,.29h4.87c.34,0,.51.15.51.43v.09c0,.29-.17.44-.51.44Z"/><line class="cls-3" x1="218.13" y1="29.68" x2="300.81" y2="29.68"/><circle class="cls-4" cx="218.13" cy="29.68" r="2.99" transform="translate(-1.94 35.32) rotate(-9.22)"/><circle class="cls-4" cx="300.81" cy="29.68" r="2.99" transform="translate(-0.87 48.57) rotate(-9.22)"/><text class="cls-5" transform="translate(212.59 21.71)">C</text><text class="cls-5" transform="translate(294.78 21.71)">D</text><text class="cls-6" transform="translate(215.64 44.07)">5</text><line class="cls-7" x1="215.64" y1="46.13" x2="220.62" y2="46.13"/><text class="cls-6" transform="translate(215.64 54.67)">4</text><text class="cls-6" transform="translate(295.83 44.07)">11</text><line class="cls-7" x1="295.83" y1="46.13" x2="305.79" y2="46.13"/><text class="cls-6" transform="translate(298.32 54.67)">6</text></svg>