<svg id="Camada_1" data-name="Camada 1" xmlns="http://www.w3.org/2000/svg" viewBox="0 0 427.1 284.08"><defs><style>.cls-1,.cls-2,.cls-7{fill:none;stroke:#000;}.cls-1,.cls-7{stroke-miterlimit:10;}.cls-1,.cls-2{stroke-width:0.4px;}.cls-2{stroke-linecap:round;stroke-linejoin:round;}.cls-3{fill:#95d4e9;}.cls-4,.cls-6{font-size:14.35px;font-family:CMR12;}.cls-4{letter-spacing:0.22em;}.cls-5{letter-spacing:0em;}.cls-7{stroke-width:0.57px;}</style></defs><path d="M31.41,27.8a2.21,2.21,0,0,1-1-.28,3.7,3.7,0,0,1-1.06-.81,5.9,5.9,0,0,1-1.27-2.12,8.65,8.65,0,0,1,0-5.71,6,6,0,0,1,1.28-2.12,3.91,3.91,0,0,1,1.05-.83,2.14,2.14,0,0,1,1-.28c.31,0,.46.14.46.4a.53.53,0,0,1-.06.24c0,.08-.07.13-.1.14a3.11,3.11,0,0,0-1.61,1A5.29,5.29,0,0,0,29,19.28a7.68,7.68,0,0,0-.38,2.43A7.85,7.85,0,0,0,29,24.18a5.12,5.12,0,0,0,1.08,1.89,3.24,3.24,0,0,0,1.61,1s.06,0,.1.13a.57.57,0,0,1,.06.24c0,.27-.15.4-.46.4ZM32.69,25a.73.73,0,0,1-.39-.13c-.11-.07-.16-.13-.14-.18L35.48,16a.49.49,0,0,1,.25-.28,1.8,1.8,0,0,1,1.06,0A.45.45,0,0,1,37,16l3.35,8.72q0,.08-.15.18a.83.83,0,0,1-.41.13c-.32,0-.54-.13-.68-.5l-1-2.52H34.32l-1,2.54a.66.66,0,0,1-.26.4.57.57,0,0,1-.38.08Zm5.19-3.91-1.63-4.36L34.6,21.12Zm2.7,6.68c-.32,0-.48-.13-.48-.4a.59.59,0,0,1,.07-.24.32.32,0,0,1,.09-.13,3.26,3.26,0,0,0,1.63-1A5.11,5.11,0,0,0,43,24.18a7.85,7.85,0,0,0,.37-2.47A7.7,7.7,0,0,0,43,19.27a5.23,5.23,0,0,0-1.07-1.88,3.12,3.12,0,0,0-1.63-1s-.06-.06-.1-.14a.53.53,0,0,1-.06-.24c0-.26.16-.4.48-.4a2.21,2.21,0,0,1,1,.3,4.27,4.27,0,0,1,1.08.88,6.07,6.07,0,0,1,1.23,2.1,8,8,0,0,1,.47,2.79,8.16,8.16,0,0,1-.46,2.81,5.88,5.88,0,0,1-1.23,2.11,4.25,4.25,0,0,1-1.09.87,2.31,2.31,0,0,1-1,.29Z"/><path d="M178.91,27.8a2.21,2.21,0,0,1-1-.28,3.7,3.7,0,0,1-1.06-.81,5.9,5.9,0,0,1-1.27-2.12,8.19,8.19,0,0,1-.48-2.87,8,8,0,0,1,.49-2.84,6,6,0,0,1,1.28-2.12,3.91,3.91,0,0,1,1-.83,2.14,2.14,0,0,1,1-.28c.3,0,.46.14.46.4a.53.53,0,0,1-.06.24c0,.08-.07.13-.1.14a3.11,3.11,0,0,0-1.61,1,5.15,5.15,0,0,0-1.08,1.89,7.68,7.68,0,0,0-.38,2.43,7.85,7.85,0,0,0,.38,2.47,5,5,0,0,0,1.08,1.89,3.24,3.24,0,0,0,1.61,1s.06,0,.1.13a.57.57,0,0,1,.06.24c0,.27-.16.4-.46.4ZM181.13,25a.58.58,0,0,1-.43-.17.69.69,0,0,1-.16-.46v-8a.69.69,0,0,1,.16-.46.58.58,0,0,1,.43-.17h2.93a3.49,3.49,0,0,1,2.24.62,2.14,2.14,0,0,1,.77,1.76,1.92,1.92,0,0,1-.43,1.3,2.52,2.52,0,0,1-1.26.74,2.71,2.71,0,0,1,1.57.81,2.16,2.16,0,0,1,.52,1.48,2.27,2.27,0,0,1-.84,1.94,4.2,4.2,0,0,1-2.54.63ZM184,19.85a2.14,2.14,0,0,0,1.44-.45,1.49,1.49,0,0,0,.52-1.19c0-1.08-.67-1.61-2-1.61h-2.32v3.25Zm0,4.25a2.92,2.92,0,0,0,1.77-.41,1.57,1.57,0,0,0,.54-1.34,1.46,1.46,0,0,0-.57-1.26,2.91,2.91,0,0,0-1.72-.42h-2.44V24.1Zm4.28,3.7c-.32,0-.47-.13-.47-.4a.57.57,0,0,1,.06-.24A.32.32,0,0,1,188,27a3.22,3.22,0,0,0,1.63-1,5,5,0,0,0,1.07-1.89,7.85,7.85,0,0,0,.37-2.47,7.7,7.7,0,0,0-.37-2.44,5.09,5.09,0,0,0-1.07-1.88,3.08,3.08,0,0,0-1.63-1,.37.37,0,0,1-.1-.14.69.69,0,0,1-.05-.24c0-.26.15-.4.47-.4a2.18,2.18,0,0,1,1,.3,4.1,4.1,0,0,1,1.08.88,5.78,5.78,0,0,1,1.23,2.1,8,8,0,0,1,.48,2.79,8.41,8.41,0,0,1-.46,2.81,6,6,0,0,1-1.24,2.11,4.09,4.09,0,0,1-1.09.87,2.27,2.27,0,0,1-1,.29Z"/><path d="M326.41,27.8a2.18,2.18,0,0,1-1-.28,3.7,3.7,0,0,1-1.06-.81,5.92,5.92,0,0,1-1.28-2.12,8.43,8.43,0,0,1-.47-2.87,8,8,0,0,1,.49-2.84,5.88,5.88,0,0,1,1.28-2.12,3.91,3.91,0,0,1,1.05-.83,2.14,2.14,0,0,1,1-.28c.3,0,.46.14.46.4a.53.53,0,0,1-.06.24c0,.08-.07.13-.1.14a3.17,3.17,0,0,0-1.62,1A5.27,5.27,0,0,0,324,19.28a7.41,7.41,0,0,0-.38,2.43,7.57,7.57,0,0,0,.38,2.47,5.11,5.11,0,0,0,1.07,1.89,3.32,3.32,0,0,0,1.62,1s.06,0,.1.13a.57.57,0,0,1,.06.24c0,.27-.16.4-.46.4Zm1.23-7.43a5.26,5.26,0,0,1,.57-2.49,4.28,4.28,0,0,1,1.61-1.71,4.55,4.55,0,0,1,2.37-.62,4.6,4.6,0,0,1,1.63.27,3.89,3.89,0,0,1,1.17.69,2,2,0,0,1,.45.53,1,1,0,0,1,.16.49.61.61,0,0,1-.14.4.78.78,0,0,1-.32.2c-.12,0-.19,0-.21,0a2.79,2.79,0,0,0-1.11-1.2,3.1,3.1,0,0,0-1.65-.45,3.24,3.24,0,0,0-1.78.49,3.32,3.32,0,0,0-1.2,1.36,4.44,4.44,0,0,0-.43,2,4.28,4.28,0,0,0,.44,2,3.26,3.26,0,0,0,3,1.85,3,3,0,0,0,1.8-.52,2.58,2.58,0,0,0,1-1.33s.08,0,.21,0a.82.82,0,0,1,.35.2.46.46,0,0,1,.16.38,1.24,1.24,0,0,1-.18.57,2.57,2.57,0,0,1-.52.64,3.62,3.62,0,0,1-1.21.71,5,5,0,0,1-4-.32,4.14,4.14,0,0,1-1.59-1.7,5.24,5.24,0,0,1-.57-2.48Zm9.14,7.43c-.32,0-.47-.13-.47-.4a.57.57,0,0,1,.06-.24.32.32,0,0,1,.09-.13,3.26,3.26,0,0,0,1.63-1,5,5,0,0,0,1.07-1.89,7.85,7.85,0,0,0,.37-2.47,7.7,7.7,0,0,0-.37-2.44,5.09,5.09,0,0,0-1.07-1.88,3.12,3.12,0,0,0-1.63-1s-.06-.06-.1-.14a.52.52,0,0,1-.05-.24c0-.26.15-.4.47-.4a2.21,2.21,0,0,1,1,.3,4.27,4.27,0,0,1,1.08.88,5.92,5.92,0,0,1,1.23,2.1,8,8,0,0,1,.47,2.79,8.41,8.41,0,0,1-.45,2.81,6,6,0,0,1-1.24,2.11,4.25,4.25,0,0,1-1.09.87,2.31,2.31,0,0,1-1,.29Z"/><line class="cls-1" x1="101.52" y1="248.69" x2="101.52" y2="50.66"/><path class="cls-2" d="M99.13,52.53a3.15,3.15,0,0,0,2.39-2.07,3.17,3.17,0,0,0,2.39,2.07"/><line class="cls-1" x1="98.53" y1="228.85" x2="104.51" y2="228.85"/><path d="M94.53,233.64a3.55,3.55,0,0,1-2-.52,3.42,3.42,0,0,1-1.27-1.5,5.57,5.57,0,0,1-.44-2.29v-1a5.62,5.62,0,0,1,.44-2.3,3.35,3.35,0,0,1,1.28-1.51,3.55,3.55,0,0,1,2-.52,3.62,3.62,0,0,1,2,.52,3.35,3.35,0,0,1,1.27,1.5,5.46,5.46,0,0,1,.45,2.3v.93a5.46,5.46,0,0,1-.45,2.3,3.43,3.43,0,0,1-1.29,1.51,3.51,3.51,0,0,1-2,.53Zm0-.91a2.3,2.3,0,0,0,1.92-.89,4.08,4.08,0,0,0,.68-2.5v-1a4.08,4.08,0,0,0-.69-2.52,2.28,2.28,0,0,0-1.91-.9,2.25,2.25,0,0,0-1.9.9,4,4,0,0,0-.68,2.49v1a4,4,0,0,0,.69,2.49,2.23,2.23,0,0,0,1.89.91Z"/><line class="cls-1" x1="98.53" y1="189.16" x2="104.51" y2="189.16"/><path d="M94.9,193.86c-.3,0-.45-.17-.45-.5V186.1a1.16,1.16,0,0,1-.44.38,1.32,1.32,0,0,1-.6.13,1.17,1.17,0,0,1-.82-.28.78.78,0,0,1-.23-.55.64.64,0,0,1,.06-.28,1,1,0,0,1,.15-.21c.05,0,.09-.06.11,0a1,1,0,0,0,.81.34,1.14,1.14,0,0,0,.8-.32,1.2,1.2,0,0,0,.37-.8H95c.32,0,.48.17.48.5v8.4c0,.33-.16.5-.48.5Z"/><line class="cls-1" x1="98.53" y1="149.47" x2="104.51" y2="149.47"/><path d="M92.14,154.2a.85.85,0,0,1-.54-.14.61.61,0,0,1-.17-.48v-.35a3,3,0,0,1,.39-1.57,3.52,3.52,0,0,1,1-1.08,10.91,10.91,0,0,1,1.48-.88c.61-.32,1-.56,1.32-.73a3.1,3.1,0,0,0,.71-.64,1.44,1.44,0,0,0,.3-.91,1.57,1.57,0,0,0-.54-1.25,2.6,2.6,0,0,0-3.09.06,2.75,2.75,0,0,0-.8,1.37s-.06,0-.19,0a.75.75,0,0,1-.36-.17.48.48,0,0,1-.17-.39,1.6,1.6,0,0,1,.2-.68,2.52,2.52,0,0,1,.54-.73,3.29,3.29,0,0,1,1-.65,3.62,3.62,0,0,1,1.39-.25,3.23,3.23,0,0,1,2.23.72,2.5,2.5,0,0,1,.82,1.95,2.28,2.28,0,0,1-.35,1.27,3,3,0,0,1-.88.89,14.15,14.15,0,0,1-1.44.79,12.8,12.8,0,0,0-1.3.72,3,3,0,0,0-.84.79A1.94,1.94,0,0,0,92.5,153l0,.29h4.86c.35,0,.52.14.52.43v.09c0,.29-.17.44-.52.44Z"/><line class="cls-1" x1="98.53" y1="109.79" x2="104.51" y2="109.79"/><path d="M94.3,114.59a4.25,4.25,0,0,1-1.52-.25,3.14,3.14,0,0,1-1.08-.63,2.1,2.1,0,0,1-.5-.6,1.14,1.14,0,0,1-.17-.56.52.52,0,0,1,.14-.39.7.7,0,0,1,.31-.18q.17,0,.18,0a2.2,2.2,0,0,0,.94,1.24,3,3,0,0,0,1.7.46,2.62,2.62,0,0,0,1.69-.5,1.62,1.62,0,0,0,.63-1.35,1.66,1.66,0,0,0-.6-1.37A2.71,2.71,0,0,0,94.3,110h-.81c-.33,0-.5-.13-.5-.38v-.09c0-.27.16-.4.47-.4h1a2.18,2.18,0,0,0,1.45-.43,1.57,1.57,0,0,0,0-2.37,2.41,2.41,0,0,0-1.54-.44,2.59,2.59,0,0,0-1.45.4,2.48,2.48,0,0,0-.9,1.06s-.07,0-.19,0a.79.79,0,0,1-.31-.19.48.48,0,0,1-.13-.35.89.89,0,0,1,.15-.44,2.16,2.16,0,0,1,.39-.48,3.21,3.21,0,0,1,1.07-.62,4,4,0,0,1,1.4-.24,3.64,3.64,0,0,1,2.3.65,2.19,2.19,0,0,1,.83,1.8,2,2,0,0,1-.43,1.3,2.31,2.31,0,0,1-1.22.73,2.67,2.67,0,0,1,1.4.87,2.31,2.31,0,0,1,.51,1.52,2.46,2.46,0,0,1-.91,2,3.93,3.93,0,0,1-2.49.73Z"/><line class="cls-1" x1="98.53" y1="70.1" x2="104.51" y2="70.1"/><path d="M96.08,74.81a.42.42,0,0,1-.33-.14.56.56,0,0,1-.12-.36v-2.2h-4a.85.85,0,0,1-.5-.14A.47.47,0,0,1,91,71.6v-.26A.81.81,0,0,1,91,71a4.56,4.56,0,0,1,.25-.41l3.62-4.66a1.63,1.63,0,0,1,.4-.42,1,1,0,0,1,.55-.11,1,1,0,0,1,.63.16.7.7,0,0,1,.18.54v5.11h1.18c.33,0,.49.14.49.41v.08c0,.27-.16.41-.49.41H96.66v2.2c0,.33-.15.5-.45.5Zm-.41-3.6V66.33l-3.75,4.88Z"/><line class="cls-1" x1="99.53" y1="99.87" x2="103.51" y2="99.87"/><line class="cls-1" x1="99.53" y1="89.95" x2="103.51" y2="89.95"/><line class="cls-1" x1="99.53" y1="80.03" x2="103.51" y2="80.03"/><circle class="cls-3" cx="101.52" cy="99.87" r="2.99"/><line class="cls-1" x1="66.65" y1="99.87" x2="92.16" y2="99.87"/><path class="cls-2" d="M90.28,97.48a3.18,3.18,0,0,0,2.08,2.39,3.16,3.16,0,0,0-2.08,2.39"/><text class="cls-4" transform="translate(31.64 104.42)">3<tspan class="cls-5" x="10.54" y="0">+</tspan></text><text class="cls-6" transform="translate(57.16 94.72)">1</text><line class="cls-7" x1="57.16" y1="100.84" x2="64.19" y2="100.84"/><text class="cls-6" transform="translate(57.16 114.26)">4</text><line class="cls-1" x1="249.02" y1="268.53" x2="249.02" y2="30.82"/><path class="cls-2" d="M246.63,32.69A3.17,3.17,0,0,0,249,30.62a3.17,3.17,0,0,0,2.39,2.07"/><line class="cls-1" x1="246.03" y1="248.69" x2="252.01" y2="248.69"/><path d="M242,253.49a3.55,3.55,0,0,1-1.94-.53,3.42,3.42,0,0,1-1.27-1.5,5.41,5.41,0,0,1-.44-2.29v-.95a5.46,5.46,0,0,1,.44-2.3,3.35,3.35,0,0,1,1.28-1.51,3.94,3.94,0,0,1,3.91,0,3.37,3.37,0,0,1,1.28,1.5,5.46,5.46,0,0,1,.45,2.3v.93a5.3,5.3,0,0,1-.46,2.3A3.49,3.49,0,0,1,244,253a3.6,3.6,0,0,1-2,.53Zm0-.92a2.27,2.27,0,0,0,1.91-.89,4,4,0,0,0,.69-2.5v-1a4,4,0,0,0-.69-2.51,2.46,2.46,0,0,0-3.81,0,4,4,0,0,0-.68,2.49v1a4,4,0,0,0,.69,2.49,2.22,2.22,0,0,0,1.89.91Z"/><line class="cls-1" x1="246.03" y1="209" x2="252.01" y2="209"/><path d="M242.4,213.7c-.3,0-.45-.17-.45-.5v-7.26a1.16,1.16,0,0,1-.44.38,1.36,1.36,0,0,1-.6.14,1.17,1.17,0,0,1-.82-.29.73.73,0,0,1-.23-.55.64.64,0,0,1,.06-.28.55.55,0,0,1,.15-.2c.05,0,.08-.07.1-.06a1,1,0,0,0,.82.34,1.1,1.1,0,0,0,.8-.32,1.17,1.17,0,0,0,.36-.8h.39c.32,0,.47.17.47.51v8.39c0,.33-.15.5-.47.5Z"/><line class="cls-1" x1="246.03" y1="169.32" x2="252.01" y2="169.32"/><path d="M239.64,174a.79.79,0,0,1-.54-.14.6.6,0,0,1-.17-.47v-.36a3,3,0,0,1,.39-1.57,3.4,3.4,0,0,1,1-1.08,12.64,12.64,0,0,1,1.47-.88c.62-.32,1.06-.56,1.33-.73a2.89,2.89,0,0,0,.71-.64,1.42,1.42,0,0,0,.3-.91,1.58,1.58,0,0,0-.54-1.25,2.22,2.22,0,0,0-1.51-.47,2.3,2.3,0,0,0-1.59.53,2.81,2.81,0,0,0-.79,1.37s-.07,0-.19,0a.75.75,0,0,1-.36-.17.48.48,0,0,1-.17-.39,1.6,1.6,0,0,1,.2-.68,2.43,2.43,0,0,1,.53-.73,3.66,3.66,0,0,1,1.05-.65,3.62,3.62,0,0,1,1.39-.25,3.23,3.23,0,0,1,2.23.72,2.51,2.51,0,0,1,.81,1.95,2.25,2.25,0,0,1-.34,1.27,3,3,0,0,1-.88.89,13.42,13.42,0,0,1-1.45.79,13.68,13.68,0,0,0-1.29.72,3,3,0,0,0-.84.79,2.06,2.06,0,0,0-.38,1.08l0,.28h4.86c.34,0,.52.15.52.43v.09c0,.3-.18.44-.52.44Z"/><line class="cls-1" x1="246.03" y1="129.63" x2="252.01" y2="129.63"/><path d="M241.79,134.43a4.47,4.47,0,0,1-1.51-.24,3.22,3.22,0,0,1-1.08-.64,2.1,2.1,0,0,1-.5-.6,1.14,1.14,0,0,1-.18-.56.49.49,0,0,1,.15-.38.55.55,0,0,1,.31-.18c.11,0,.16,0,.17,0a2.31,2.31,0,0,0,.95,1.25,3.07,3.07,0,0,0,1.69.46,2.63,2.63,0,0,0,1.7-.51,1.62,1.62,0,0,0,.63-1.34,1.64,1.64,0,0,0-.6-1.37,2.68,2.68,0,0,0-1.73-.49H241c-.33,0-.5-.12-.5-.38v-.09c0-.27.16-.4.47-.4h.95a2.26,2.26,0,0,0,1.45-.42,1.47,1.47,0,0,0,.51-1.19,1.44,1.44,0,0,0-.56-1.19,2.42,2.42,0,0,0-1.53-.44,2.52,2.52,0,0,0-1.45.41,2.4,2.4,0,0,0-.9,1s-.07,0-.19,0a.87.87,0,0,1-.31-.2.48.48,0,0,1-.13-.35.92.92,0,0,1,.15-.44,2.74,2.74,0,0,1,.39-.48,3.28,3.28,0,0,1,1.07-.62,4,4,0,0,1,1.4-.24,3.66,3.66,0,0,1,2.3.65,2.19,2.19,0,0,1,.83,1.81,2,2,0,0,1-.43,1.29,2.31,2.31,0,0,1-1.22.73,2.67,2.67,0,0,1,1.4.87,2.3,2.3,0,0,1,.5,1.52,2.42,2.42,0,0,1-.91,2,3.83,3.83,0,0,1-2.49.73Z"/><line class="cls-1" x1="246.03" y1="89.95" x2="252.01" y2="89.95"/><path d="M243.57,94.65a.42.42,0,0,1-.32-.14.56.56,0,0,1-.12-.36V92h-4a.76.76,0,0,1-.5-.14.43.43,0,0,1-.19-.37v-.26a.81.81,0,0,1,.08-.34,3.79,3.79,0,0,1,.25-.41l3.62-4.66a1.48,1.48,0,0,1,.4-.42,1.06,1.06,0,0,1,.54-.11,1,1,0,0,1,.64.17.68.68,0,0,1,.18.53v5.11h1.18c.32,0,.49.14.49.42v.07c0,.28-.17.41-.49.41h-1.18v2.2c0,.33-.15.5-.46.5Zm-.4-3.6V86.17l-3.76,4.88Z"/><line class="cls-1" x1="246.03" y1="50.26" x2="252.01" y2="50.26"/><path d="M241.9,55a4.45,4.45,0,0,1-1.45-.23,3.31,3.31,0,0,1-1.11-.62,2.18,2.18,0,0,1-.44-.48.91.91,0,0,1-.16-.48.47.47,0,0,1,.12-.32.61.61,0,0,1,.27-.19c.09,0,.15,0,.17,0a2.49,2.49,0,0,0,1,1,3.09,3.09,0,0,0,1.58.39,2.52,2.52,0,0,0,1.73-.56,2.1,2.1,0,0,0,0-3A2.41,2.41,0,0,0,242,50a3.58,3.58,0,0,0-2.23.67.65.65,0,0,1-.68-.7V46.17a.65.65,0,0,1,.16-.46.58.58,0,0,1,.43-.17h4.66c.34,0,.51.15.51.44v.08c0,.28-.17.43-.51.43H240.1v3.08a4.26,4.26,0,0,1,2.05-.5,3.32,3.32,0,0,1,2.3.78,2.68,2.68,0,0,1,.87,2.1,2.78,2.78,0,0,1-.92,2.22,3.67,3.67,0,0,1-2.5.81Z"/><line class="cls-1" x1="247.03" y1="70.1" x2="251.01" y2="70.1"/><circle class="cls-3" cx="249.02" cy="70.1" r="2.99"/><line class="cls-1" x1="214.15" y1="70.1" x2="239.65" y2="70.1"/><path class="cls-2" d="M237.78,67.71a3.15,3.15,0,0,0,2.07,2.39,3.17,3.17,0,0,0-2.07,2.39"/><text class="cls-4" transform="translate(179.14 74.66)">4<tspan class="cls-5" x="10.54" y="0">+</tspan></text><text class="cls-6" transform="translate(204.66 64.95)">1</text><line class="cls-7" x1="204.66" y1="71.07" x2="211.69" y2="71.07"/><text class="cls-6" transform="translate(204.66 84.5)">2</text><line class="cls-1" x1="396.52" y1="228.85" x2="396.52" y2="70.5"/><path class="cls-2" d="M394.13,72.37a3.15,3.15,0,0,0,2.39-2.07,3.15,3.15,0,0,0,2.39,2.07"/><line class="cls-1" x1="393.53" y1="209" x2="399.51" y2="209"/><path d="M389.52,213.8a3.54,3.54,0,0,1-1.94-.52,3.42,3.42,0,0,1-1.27-1.5,5.46,5.46,0,0,1-.44-2.3v-.94a5.54,5.54,0,0,1,.44-2.31,3.37,3.37,0,0,1,1.28-1.5,3.87,3.87,0,0,1,3.91,0,3.37,3.37,0,0,1,1.28,1.5,5.41,5.41,0,0,1,.44,2.29v.93a5.54,5.54,0,0,1-.45,2.31,3.47,3.47,0,0,1-1.28,1.51,3.63,3.63,0,0,1-2,.53Zm0-.92a2.24,2.24,0,0,0,1.91-.89,4,4,0,0,0,.68-2.49v-1a4.11,4.11,0,0,0-.68-2.51,2.28,2.28,0,0,0-1.91-.9,2.25,2.25,0,0,0-1.9.89,4,4,0,0,0-.68,2.49v1a4,4,0,0,0,.68,2.5,2.26,2.26,0,0,0,1.9.9Z"/><line class="cls-1" x1="393.53" y1="169.32" x2="399.51" y2="169.32"/><path d="M389.9,174q-.45,0-.45-.51v-7.26a1.18,1.18,0,0,1-.44.39,1.39,1.39,0,0,1-.61.13,1.12,1.12,0,0,1-.81-.29.7.7,0,0,1-.23-.54.68.68,0,0,1,.06-.29.78.78,0,0,1,.14-.2c.06,0,.09-.07.11-.06a1,1,0,0,0,.82.35,1.14,1.14,0,0,0,.8-.32,1.19,1.19,0,0,0,.36-.8H390c.32,0,.47.17.47.5v8.39c0,.34-.15.51-.47.51Z"/><line class="cls-1" x1="393.53" y1="129.63" x2="399.51" y2="129.63"/><path d="M387.13,134.36a.84.84,0,0,1-.53-.14.62.62,0,0,1-.17-.48v-.36a3,3,0,0,1,.39-1.57,3.56,3.56,0,0,1,1-1.07,12.25,12.25,0,0,1,1.48-.89c.61-.31,1.06-.56,1.33-.73a2.7,2.7,0,0,0,.71-.64,1.4,1.4,0,0,0,.3-.91,1.6,1.6,0,0,0-.54-1.25,2.63,2.63,0,0,0-3.1.07,2.81,2.81,0,0,0-.79,1.37s-.07,0-.2,0a.7.7,0,0,1-.35-.16.49.49,0,0,1-.17-.4,1.6,1.6,0,0,1,.19-.68,2.61,2.61,0,0,1,.54-.72,3.27,3.27,0,0,1,1.05-.65,3.59,3.59,0,0,1,1.39-.26,3.24,3.24,0,0,1,2.23.73,2.47,2.47,0,0,1,.81,1.94,2.29,2.29,0,0,1-.34,1.28,3.07,3.07,0,0,1-.88.88,13.24,13.24,0,0,1-1.45.8,12.51,12.51,0,0,0-1.29.72,3.15,3.15,0,0,0-.84.78,2.1,2.1,0,0,0-.38,1.08l0,.29h4.87c.34,0,.51.14.51.43v.08q0,.45-.51.45Z"/><line class="cls-1" x1="393.53" y1="89.95" x2="399.51" y2="89.95"/><path d="M389.29,94.74a4.43,4.43,0,0,1-1.51-.24,3.05,3.05,0,0,1-1.08-.63,2.33,2.33,0,0,1-.51-.6,1.26,1.26,0,0,1-.17-.56.51.51,0,0,1,.15-.39.53.53,0,0,1,.3-.18c.11,0,.17,0,.18,0a2.24,2.24,0,0,0,1,1.25,3,3,0,0,0,1.69.46,2.69,2.69,0,0,0,1.7-.5,1.8,1.8,0,0,0,0-2.72,2.69,2.69,0,0,0-1.72-.48h-.8c-.34,0-.5-.13-.5-.39v-.08c0-.27.16-.41.47-.41h1a2.26,2.26,0,0,0,1.45-.42,1.45,1.45,0,0,0,.51-1.18,1.41,1.41,0,0,0-.56-1.19,2.36,2.36,0,0,0-1.53-.45,2.57,2.57,0,0,0-1.45.41,2.43,2.43,0,0,0-.9,1.06s-.08,0-.19,0a.77.77,0,0,1-.31-.19.48.48,0,0,1-.14-.35.91.91,0,0,1,.16-.44,2.16,2.16,0,0,1,.39-.48,3.29,3.29,0,0,1,1.07-.63,4.15,4.15,0,0,1,1.4-.23,3.6,3.6,0,0,1,2.3.65,2.19,2.19,0,0,1,.83,1.8,2,2,0,0,1-.44,1.3,2.17,2.17,0,0,1-1.21.72,2.75,2.75,0,0,1,1.4.88,2.3,2.3,0,0,1,.5,1.52,2.4,2.4,0,0,1-.91,2,3.85,3.85,0,0,1-2.49.73Z"/><line class="cls-1" x1="394.53" y1="105.82" x2="398.51" y2="105.82"/><line class="cls-1" x1="394.53" y1="121.69" x2="398.51" y2="121.69"/><line class="cls-1" x1="394.53" y1="113.76" x2="398.51" y2="113.76"/><line class="cls-1" x1="394.53" y1="105.82" x2="398.51" y2="105.82"/><line class="cls-1" x1="394.53" y1="97.88" x2="398.51" y2="97.88"/><circle class="cls-3" cx="396.52" cy="105.82" r="2.99"/><line class="cls-1" x1="361.65" y1="105.82" x2="387.15" y2="105.82"/><path class="cls-2" d="M385.28,103.43a3.17,3.17,0,0,0,2.07,2.39,3.17,3.17,0,0,0-2.07,2.39"/><text class="cls-4" transform="translate(326.64 110.37)">2<tspan class="cls-5" x="10.54" y="0">+</tspan></text><text class="cls-6" transform="translate(352.16 100.67)">3</text><line class="cls-7" x1="352.16" y1="106.79" x2="359.18" y2="106.79"/><text class="cls-6" transform="translate(352.16 120.22)">5</text></svg>