<svg id="Camada_1" data-name="Camada 1" xmlns="http://www.w3.org/2000/svg" viewBox="0 0 273.99 224.16"><defs><style>.cls-1,.cls-2,.cls-3,.cls-5{fill:none;}.cls-1,.cls-2,.cls-5{stroke:#000;}.cls-1,.cls-3,.cls-5{stroke-miterlimit:10;}.cls-1,.cls-2{stroke-width:0.4px;}.cls-2{stroke-linecap:round;stroke-linejoin:round;}.cls-3{stroke:#e6164d;stroke-width:1.59px;}.cls-4{font-size:9.96px;font-family:CMR10;}.cls-5{stroke-width:0.57px;}.cls-6{fill:#e6164d;}</style></defs><line class="cls-1" x1="35" y1="39.34" x2="238.7" y2="39.34"/><path class="cls-2" d="M236.82,37a3.18,3.18,0,0,0,2.08,2.39,3.18,3.18,0,0,0-2.08,2.39"/><line class="cls-3" x1="60.51" y1="39.34" x2="111.53" y2="39.34"/><line class="cls-1" x1="60.51" y1="36.35" x2="60.51" y2="42.33"/><path d="M60.49,56.91a3.56,3.56,0,0,1-2-.53,3.26,3.26,0,0,1-1.26-1.49,5.46,5.46,0,0,1-.45-2.3v-1a5.49,5.49,0,0,1,.45-2.3,3.38,3.38,0,0,1,1.27-1.51,4,4,0,0,1,3.92,0,3.44,3.44,0,0,1,1.28,1.5,5.62,5.62,0,0,1,.44,2.3v.93a5.46,5.46,0,0,1-.45,2.3,3.45,3.45,0,0,1-1.29,1.52,3.59,3.59,0,0,1-2,.53Zm0-.92a2.29,2.29,0,0,0,1.92-.89,4,4,0,0,0,.68-2.5v-1a4,4,0,0,0-.69-2.51,2.46,2.46,0,0,0-3.81,0,4.07,4.07,0,0,0-.68,2.49v1a4.06,4.06,0,0,0,.69,2.5,2.25,2.25,0,0,0,1.89.9Z"/><line class="cls-1" x1="162.56" y1="36.35" x2="162.56" y2="42.33"/><path d="M160.15,56.76a.79.79,0,0,1-.54-.14.58.58,0,0,1-.16-.47v-.36a3.09,3.09,0,0,1,.38-1.57,3.52,3.52,0,0,1,1-1.08,12,12,0,0,1,1.48-.88c.61-.32,1.05-.56,1.32-.73a2.72,2.72,0,0,0,.71-.64,1.43,1.43,0,0,0,.31-.91,1.59,1.59,0,0,0-.55-1.25,2.2,2.2,0,0,0-1.51-.47,2.23,2.23,0,0,0-1.58.54,2.74,2.74,0,0,0-.8,1.37s-.06,0-.19,0a.67.67,0,0,1-.36-.17.48.48,0,0,1-.17-.39,1.6,1.6,0,0,1,.2-.68,2.66,2.66,0,0,1,.54-.73,3.47,3.47,0,0,1,1-.65,3.64,3.64,0,0,1,1.4-.25,3.25,3.25,0,0,1,2.23.72,2.51,2.51,0,0,1,.81,1.95,2.31,2.31,0,0,1-.35,1.28,3.07,3.07,0,0,1-.88.88,14.15,14.15,0,0,1-1.44.79,12.8,12.8,0,0,0-1.3.72,3,3,0,0,0-.84.79,2.09,2.09,0,0,0-.37,1.08l0,.28h4.86c.35,0,.52.15.52.43v.09c0,.3-.17.44-.52.44Z"/><line class="cls-1" x1="213.58" y1="36.35" x2="213.58" y2="42.33"/><path d="M213.33,56.91a4.2,4.2,0,0,1-1.51-.25,3,3,0,0,1-1.08-.63,2.15,2.15,0,0,1-.51-.6,1.26,1.26,0,0,1-.17-.56.56.56,0,0,1,.14-.39.76.76,0,0,1,.31-.18q.17,0,.18,0a2.27,2.27,0,0,0,.95,1.25,3.07,3.07,0,0,0,1.69.45,2.6,2.6,0,0,0,1.69-.5,1.61,1.61,0,0,0,.64-1.35,1.66,1.66,0,0,0-.61-1.37,2.69,2.69,0,0,0-1.72-.48h-.8c-.34,0-.5-.13-.5-.38v-.09c0-.27.15-.4.47-.4h.95A2.2,2.2,0,0,0,214.9,51a1.44,1.44,0,0,0,.51-1.18,1.42,1.42,0,0,0-.56-1.19,2.36,2.36,0,0,0-1.53-.44A2.49,2.49,0,0,0,211,49.65s-.07,0-.18,0a.67.67,0,0,1-.31-.19.48.48,0,0,1-.14-.35.92.92,0,0,1,.15-.44,2.22,2.22,0,0,1,.4-.48,3.28,3.28,0,0,1,1.07-.62,3.92,3.92,0,0,1,1.4-.24,3.66,3.66,0,0,1,2.3.65,2.18,2.18,0,0,1,.82,1.8,2,2,0,0,1-.43,1.3,2.23,2.23,0,0,1-1.22.73,2.7,2.7,0,0,1,1.41.87,2.36,2.36,0,0,1,.5,1.52,2.43,2.43,0,0,1-.91,2,3.93,3.93,0,0,1-2.49.73Z"/><line class="cls-1" x1="94.53" y1="36.35" x2="94.53" y2="42.33"/><text class="cls-4" transform="translate(75.03 53.73)">1</text><line class="cls-5" x1="75.03" y1="55.79" x2="80.01" y2="55.79"/><text class="cls-4" transform="translate(75.03 64.33)">3</text><text class="cls-4" transform="translate(92.03 53.73)">2</text><line class="cls-5" x1="92.03" y1="55.79" x2="97.02" y2="55.79"/><text class="cls-4" transform="translate(92.03 64.33)">3</text><text class="cls-4" transform="translate(109.04 53.73)">3</text><line class="cls-5" x1="109.04" y1="55.79" x2="114.03" y2="55.79"/><text class="cls-4" transform="translate(109.04 64.33)">3</text><text class="cls-4" transform="translate(48.71 20.78)">3</text><line class="cls-5" x1="48.71" y1="22.84" x2="53.69" y2="22.84"/><text class="cls-4" transform="translate(48.71 31.37)">3</text><path d="M61,26.58a3,3,0,0,1-1.62-.45,3.07,3.07,0,0,1-1.13-1.26A4.16,4.16,0,0,1,57.83,23a4.09,4.09,0,0,1,.41-1.85,3.17,3.17,0,0,1,1.13-1.27A3.06,3.06,0,0,1,61,19.42a2.94,2.94,0,0,1,1.51.38,2.41,2.41,0,0,1,1,.94v-4s0-.05.11-.07a.66.66,0,0,1,.25,0c.45,0,.68.31.68.92V26c0,.32-.16.49-.46.49H64a.4.4,0,0,1-.45-.46c0-.19,0-.49,0-.89a2.9,2.9,0,0,1-1,1.07,2.79,2.79,0,0,1-1.5.39Zm2.49-4.65a2.52,2.52,0,0,0-.87-1.2,2.28,2.28,0,0,0-1.42-.43,2.13,2.13,0,0,0-1.68.74A2.89,2.89,0,0,0,58.86,23a3.18,3.18,0,0,0,.3,1.41,2.27,2.27,0,0,0,.82,1,2.15,2.15,0,0,0,1.19.35,2.31,2.31,0,0,0,1.16-.3,2.09,2.09,0,0,0,.84-.8,2.12,2.12,0,0,0,.31-1.14Zm2.44,2.73A1.78,1.78,0,0,1,67.05,23a9,9,0,0,1,3.56-.56h.16v-.29a1.79,1.79,0,0,0-.48-1.34,1.9,1.9,0,0,0-1.37-.47,2.39,2.39,0,0,0-1.3.33,2.12,2.12,0,0,0-.79.89.57.57,0,0,1-.2,0,.63.63,0,0,1-.3-.16.45.45,0,0,1-.14-.35.89.89,0,0,1,.11-.37,1.56,1.56,0,0,1,.31-.39,2.9,2.9,0,0,1,1-.59A3.93,3.93,0,0,1,69,19.42a2.84,2.84,0,0,1,2.08.72,2.69,2.69,0,0,1,.73,2v4.24s0,0-.12.07a.73.73,0,0,1-.25,0c-.36,0-.56-.22-.61-.66q0-.41,0-.63a2.38,2.38,0,0,1-1,1,3.09,3.09,0,0,1-1.52.38,2.6,2.6,0,0,1-1.7-.52,1.7,1.7,0,0,1-.63-1.39Zm4.85-1.58-.24,0a7.78,7.78,0,0,0-2.74.4A1.18,1.18,0,0,0,67,24.63a1,1,0,0,0,.41.85,1.7,1.7,0,0,0,1.09.31,2.52,2.52,0,0,0,1.17-.27,2.09,2.09,0,0,0,.84-.74,1.82,1.82,0,0,0,.31-1Zm10.72-3.56c.3,0,.46.17.46.49v6.36s0,0-.13.07a.69.69,0,0,1-.25,0c-.35,0-.55-.22-.6-.67,0-.25,0-.44,0-.56a3,3,0,0,1-1,1,2.6,2.6,0,0,1-1.38.36,2.4,2.4,0,0,1-2-.81A3.33,3.33,0,0,1,76,23.6V20c0-.32.16-.49.46-.49h.12c.3,0,.46.17.46.49v3.52a2.35,2.35,0,0,0,.47,1.57,1.66,1.66,0,0,0,1.33.56,2.18,2.18,0,0,0,1.27-.37,2.34,2.34,0,0,0,.84-1V20c0-.32.15-.49.45-.49Zm5.65-.1a2.4,2.4,0,0,1,2,.81,3.28,3.28,0,0,1,.66,2.16V26c0,.32-.14.49-.44.49h-.13c-.31,0-.46-.17-.46-.49v-3.5a2.41,2.41,0,0,0-.46-1.57,1.64,1.64,0,0,0-1.33-.57,2.25,2.25,0,0,0-1.29.37,2.43,2.43,0,0,0-.83,1V26c0,.32-.15.49-.45.49h-.13c-.3,0-.46-.17-.46-.49V19.64s0-.05.12-.07a.8.8,0,0,1,.26-.05c.4,0,.61.29.63.86v.41a2.64,2.64,0,0,1,1-1,2.56,2.56,0,0,1,1.39-.37Zm4.35-2a.65.65,0,0,1,.17-.49.68.68,0,0,1,.49-.17.61.61,0,0,1,.66.66.62.62,0,0,1-.18.48.72.72,0,0,1-.5.16.64.64,0,0,1-.47-.16.61.61,0,0,1-.17-.48ZM91.62,20c0-.33.15-.5.45-.5h.12c.31,0,.46.17.46.5v6c0,.32-.15.49-.46.49h-.12c-.3,0-.45-.17-.45-.49Zm5.66,6.56a3,3,0,0,1-1.62-.45,3.15,3.15,0,0,1-1.13-1.26,4.16,4.16,0,0,1-.4-1.88,4.09,4.09,0,0,1,.4-1.85,3.27,3.27,0,0,1,1.14-1.27,3,3,0,0,1,1.64-.45,3,3,0,0,1,1.51.38,2.41,2.41,0,0,1,1,.94v-4s0-.05.11-.07a.62.62,0,0,1,.25,0c.45,0,.67.31.67.92V26c0,.32-.15.49-.46.49h-.1a.4.4,0,0,1-.44-.46c0-.19,0-.49,0-.89a2.82,2.82,0,0,1-1,1.07,2.75,2.75,0,0,1-1.5.39Zm2.5-4.65a2.52,2.52,0,0,0-.87-1.2,2.31,2.31,0,0,0-1.43-.43A2.15,2.15,0,0,0,95.8,21,2.88,2.88,0,0,0,95.16,23a3.32,3.32,0,0,0,.29,1.41,2.29,2.29,0,0,0,.83,1,2.13,2.13,0,0,0,1.19.35,2.31,2.31,0,0,0,1.16-.3,2.22,2.22,0,0,0,.84-.8,2.12,2.12,0,0,0,.31-1.14Zm2.44,2.73A1.77,1.77,0,0,1,103.34,23a9,9,0,0,1,3.57-.56h.16v-.29a1.79,1.79,0,0,0-.48-1.34,1.9,1.9,0,0,0-1.37-.47,2.39,2.39,0,0,0-1.3.33,2.15,2.15,0,0,0-.8.89.52.52,0,0,1-.19,0,.63.63,0,0,1-.3-.16.45.45,0,0,1-.14-.35.89.89,0,0,1,.11-.37,1.36,1.36,0,0,1,.31-.39,2.85,2.85,0,0,1,1-.59,4,4,0,0,1,1.39-.23,2.83,2.83,0,0,1,2.08.72,2.65,2.65,0,0,1,.73,2v4.24s0,0-.12.07a.69.69,0,0,1-.25,0q-.52,0-.6-.66,0-.41,0-.63a2.46,2.46,0,0,1-1,1,3.06,3.06,0,0,1-1.52.38,2.61,2.61,0,0,1-1.7-.52,1.72,1.72,0,0,1-.62-1.39Zm4.85-1.58-.25,0a7.76,7.76,0,0,0-2.73.4,1.18,1.18,0,0,0-.84,1.13,1,1,0,0,0,.4.85,1.72,1.72,0,0,0,1.09.31,2.59,2.59,0,0,0,1.18-.27,2.23,2.23,0,0,0,.84-.74,1.89,1.89,0,0,0,.31-1Zm5.52,3.5a3,3,0,0,1-1.62-.45,3.07,3.07,0,0,1-1.13-1.26,4.16,4.16,0,0,1-.41-1.88,4.09,4.09,0,0,1,.41-1.85A3.12,3.12,0,0,1,111,19.87a3,3,0,0,1,1.64-.45,2.93,2.93,0,0,1,1.5.38,2.38,2.38,0,0,1,1,.94v-4s0-.05.1-.07a.69.69,0,0,1,.25,0c.45,0,.68.31.68.92V26c0,.32-.15.49-.46.49h-.1a.4.4,0,0,1-.45-.46c0-.19,0-.49,0-.89a2.9,2.9,0,0,1-1,1.07,2.79,2.79,0,0,1-1.5.39Zm2.5-4.65a2.59,2.59,0,0,0-.87-1.2,2.33,2.33,0,0,0-1.43-.43,2.13,2.13,0,0,0-1.68.74,2.88,2.88,0,0,0-.64,1.95,3.17,3.17,0,0,0,.29,1.41,2.29,2.29,0,0,0,.83,1,2.13,2.13,0,0,0,1.19.35,2.33,2.33,0,0,0,1.16-.3,2.18,2.18,0,0,0,1.15-1.94ZM117.52,23a3.93,3.93,0,0,1,.44-1.86,3.27,3.27,0,0,1,3-1.76,3.14,3.14,0,0,1,1.66.43A2.77,2.77,0,0,1,123.66,21a3.8,3.8,0,0,1,.39,1.76v.1a.31.31,0,0,1-.08.26.39.39,0,0,1-.28.07h-5.18a1.06,1.06,0,0,0,0,.21,2.55,2.55,0,0,0,.78,1.66,2.43,2.43,0,0,0,1.72.63,2.49,2.49,0,0,0,1.39-.34,2.46,2.46,0,0,0,.83-.92.4.4,0,0,1,.19,0,1,1,0,0,1,.28.18.48.48,0,0,1,.12.33.8.8,0,0,1-.14.4,1.55,1.55,0,0,1-.41.45,2.89,2.89,0,0,1-.94.52,4,4,0,0,1-1.34.21,3.69,3.69,0,0,1-1.82-.44A3.11,3.11,0,0,1,118,24.88a3.82,3.82,0,0,1-.44-1.84Zm5.51-.56a2.46,2.46,0,0,0-.61-1.62,2,2,0,0,0-1.51-.61,2.21,2.21,0,0,0-1.58.62,2.71,2.71,0,0,0-.79,1.61Z"/><line class="cls-1" x1="77.52" y1="42.33" x2="77.52" y2="36.35"/><path class="cls-6" d="M63.5,39.34a3,3,0,1,0-3,3A3,3,0,0,0,63.5,39.34Z"/><path class="cls-6" d="M114.52,39.34a3,3,0,1,0-3,3A3,3,0,0,0,114.52,39.34Z"/><line class="cls-1" x1="35" y1="115.5" x2="238.7" y2="115.5"/><path class="cls-2" d="M236.82,113.11a3.16,3.16,0,0,0,2.08,2.39,3.18,3.18,0,0,0-2.08,2.39"/><line class="cls-3" x1="60.51" y1="115.5" x2="128.54" y2="115.5"/><line class="cls-1" x1="60.51" y1="112.51" x2="60.51" y2="118.49"/><path d="M60.49,133.07a3.55,3.55,0,0,1-2-.52,3.33,3.33,0,0,1-1.26-1.5,5.46,5.46,0,0,1-.45-2.3v-.94a5.54,5.54,0,0,1,.45-2.31,3.35,3.35,0,0,1,1.27-1.5,3.89,3.89,0,0,1,3.92,0,3.44,3.44,0,0,1,1.28,1.5,5.57,5.57,0,0,1,.44,2.29v.93a5.54,5.54,0,0,1-.45,2.31,3.42,3.42,0,0,1-1.29,1.51,3.59,3.59,0,0,1-2,.53Zm0-.92a2.26,2.26,0,0,0,1.92-.89,4,4,0,0,0,.68-2.49v-1a4,4,0,0,0-.69-2.51,2.47,2.47,0,0,0-3.81,0,4.07,4.07,0,0,0-.68,2.49v1a4,4,0,0,0,.69,2.5,2.25,2.25,0,0,0,1.89.9Z"/><line class="cls-1" x1="111.53" y1="112.51" x2="111.53" y2="118.49"/><path d="M111.89,132.87c-.3,0-.45-.17-.45-.5v-7.26a1.16,1.16,0,0,1-.44.38,1.36,1.36,0,0,1-.61.13,1.16,1.16,0,0,1-.81-.28.73.73,0,0,1-.23-.55.64.64,0,0,1,.06-.28.46.46,0,0,1,.15-.2s.08-.07.1-.06a1,1,0,0,0,.82.34,1.14,1.14,0,0,0,.8-.32,1.19,1.19,0,0,0,.36-.8H112c.32,0,.47.17.47.51v8.39c0,.33-.15.5-.47.5Z"/><line class="cls-1" x1="162.56" y1="112.51" x2="162.56" y2="118.49"/><path d="M160.15,132.93a.79.79,0,0,1-.54-.15.58.58,0,0,1-.16-.47V132a3.12,3.12,0,0,1,.38-1.57,3.76,3.76,0,0,1,1-1.08,12,12,0,0,1,1.48-.88c.61-.31,1.05-.56,1.32-.73a2.55,2.55,0,0,0,.71-.64,1.41,1.41,0,0,0,.31-.91,1.61,1.61,0,0,0-.55-1.25,2.26,2.26,0,0,0-1.51-.47A2.23,2.23,0,0,0,161,125a2.78,2.78,0,0,0-.8,1.37s-.06,0-.19,0a.73.73,0,0,1-.36-.16.49.49,0,0,1-.17-.4,1.6,1.6,0,0,1,.2-.68,2.61,2.61,0,0,1,.54-.72,3.31,3.31,0,0,1,1-.66,3.84,3.84,0,0,1,1.4-.25,3.21,3.21,0,0,1,2.23.73,2.47,2.47,0,0,1,.81,1.94,2.31,2.31,0,0,1-.35,1.28,3,3,0,0,1-.88.88,14,14,0,0,1-1.44.8,13,13,0,0,0-1.3.71,3.18,3.18,0,0,0-.84.79,2.09,2.09,0,0,0-.37,1.08l0,.29h4.86c.35,0,.52.14.52.43v.08c0,.3-.17.45-.52.45Z"/><line class="cls-1" x1="213.58" y1="112.51" x2="213.58" y2="118.49"/><path d="M213.33,133.07a4.43,4.43,0,0,1-1.51-.24,3.28,3.28,0,0,1-1.08-.63,2.33,2.33,0,0,1-.51-.61,1.23,1.23,0,0,1-.17-.56.52.52,0,0,1,.14-.38.59.59,0,0,1,.31-.18c.11,0,.17,0,.18,0a2.23,2.23,0,0,0,.95,1.25,3.07,3.07,0,0,0,1.69.46,2.66,2.66,0,0,0,1.69-.5,1.63,1.63,0,0,0,.64-1.35,1.65,1.65,0,0,0-.61-1.37,2.69,2.69,0,0,0-1.72-.48h-.8c-.34,0-.5-.13-.5-.39V128c0-.27.15-.4.47-.4h.95a2.26,2.26,0,0,0,1.45-.42,1.46,1.46,0,0,0,.51-1.19,1.44,1.44,0,0,0-.56-1.19,2.42,2.42,0,0,0-1.53-.44,2.53,2.53,0,0,0-2.36,1.46s-.07,0-.18,0a.79.79,0,0,1-.31-.2.47.47,0,0,1-.14-.35.92.92,0,0,1,.15-.44,2.83,2.83,0,0,1,.4-.48,3.46,3.46,0,0,1,1.07-.62,3.92,3.92,0,0,1,1.4-.24,3.6,3.6,0,0,1,2.3.66,2.15,2.15,0,0,1,.82,1.8,2,2,0,0,1-.43,1.3,2.22,2.22,0,0,1-1.22.72,2.7,2.7,0,0,1,1.41.87,2.38,2.38,0,0,1,.5,1.53,2.41,2.41,0,0,1-.91,2,3.87,3.87,0,0,1-2.49.73Z"/><line class="cls-1" x1="77.52" y1="118.49" x2="77.52" y2="112.51"/><line class="cls-1" x1="94.53" y1="112.51" x2="94.53" y2="118.49"/><text class="cls-4" transform="translate(75.03 129.89)">1</text><line class="cls-5" x1="75.03" y1="131.96" x2="80.01" y2="131.96"/><text class="cls-4" transform="translate(75.03 140.49)">3</text><text class="cls-4" transform="translate(92.03 129.89)">2</text><line class="cls-5" x1="92.03" y1="131.96" x2="97.02" y2="131.96"/><text class="cls-4" transform="translate(92.03 140.49)">3</text><text class="cls-4" transform="translate(126.05 129.89)">4</text><line class="cls-5" x1="126.05" y1="131.96" x2="131.03" y2="131.96"/><text class="cls-4" transform="translate(126.05 140.49)">3</text><text class="cls-4" transform="translate(57.22 96.94)">4</text><line class="cls-5" x1="57.22" y1="99" x2="62.2" y2="99"/><text class="cls-4" transform="translate(57.22 107.53)">3</text><path d="M69.49,102.74a3,3,0,0,1-1.62-.45A3.15,3.15,0,0,1,66.74,101a4.45,4.45,0,0,1,0-3.73A3.1,3.1,0,0,1,67.88,96a3,3,0,0,1,1.64-.45A3,3,0,0,1,71,96a2.44,2.44,0,0,1,1,1v-4s0-.06.1-.08a.71.71,0,0,1,.26,0c.44,0,.67.31.67.92v8.42c0,.33-.15.49-.46.49h-.1c-.3,0-.44-.15-.44-.46s0-.49,0-.89a2.92,2.92,0,0,1-1,1.08,2.79,2.79,0,0,1-1.5.38ZM72,98.1a2.55,2.55,0,0,0-.87-1.21,2.31,2.31,0,0,0-1.43-.43,2.11,2.11,0,0,0-1.68.75,2.85,2.85,0,0,0-.64,2,3.16,3.16,0,0,0,.29,1.4,2.23,2.23,0,0,0,.83,1,2.13,2.13,0,0,0,1.19.35,2.33,2.33,0,0,0,1.16-.3A2.18,2.18,0,0,0,72,99.63Zm2.44,2.72a1.75,1.75,0,0,1,1.12-1.68,9,9,0,0,1,3.57-.57h.15v-.29a1.79,1.79,0,0,0-.48-1.34,1.88,1.88,0,0,0-1.37-.47,2.35,2.35,0,0,0-1.29.33,2.15,2.15,0,0,0-.8.89.35.35,0,0,1-.19,0,.58.58,0,0,1-.31-.16.43.43,0,0,1-.13-.35.73.73,0,0,1,.11-.36,1.55,1.55,0,0,1,.3-.4,3,3,0,0,1,1-.59,3.94,3.94,0,0,1,1.39-.22,2.84,2.84,0,0,1,2.08.71,2.67,2.67,0,0,1,.73,2v4.23s0,0-.12.07a.69.69,0,0,1-.25,0q-.53,0-.6-.66,0-.39,0-.63a2.54,2.54,0,0,1-1,1,3.08,3.08,0,0,1-1.52.37,2.56,2.56,0,0,1-1.7-.52,1.68,1.68,0,0,1-.62-1.39Zm4.84-1.58-.24,0a8,8,0,0,0-2.73.4,1.19,1.19,0,0,0-.84,1.13,1,1,0,0,0,.4.85A1.72,1.72,0,0,0,77,102a2.6,2.6,0,0,0,1.18-.28,2.23,2.23,0,0,0,.84-.74,1.86,1.86,0,0,0,.3-1ZM90,95.69c.31,0,.46.16.46.48v6.36s0,0-.12.07a.73.73,0,0,1-.25,0c-.36,0-.56-.22-.61-.67,0-.25,0-.44,0-.56a3.1,3.1,0,0,1-1,1,2.64,2.64,0,0,1-1.39.36,2.4,2.4,0,0,1-2-.81,3.33,3.33,0,0,1-.66-2.17V96.17c0-.32.15-.48.46-.48H85c.31,0,.46.16.46.48v3.52a2.41,2.41,0,0,0,.47,1.57,1.65,1.65,0,0,0,1.34.57,2.21,2.21,0,0,0,1.27-.38,2.34,2.34,0,0,0,.84-1V96.17c0-.32.15-.48.44-.48Zm5.65-.1a2.38,2.38,0,0,1,2,.8,3.26,3.26,0,0,1,.67,2.17v3.58c0,.33-.15.49-.45.49h-.13c-.3,0-.45-.16-.45-.49v-3.5a2.41,2.41,0,0,0-.47-1.57,1.61,1.61,0,0,0-1.33-.57,2.22,2.22,0,0,0-1.28.38,2.35,2.35,0,0,0-.84,1v4.26c0,.33-.15.49-.45.49h-.12c-.31,0-.46-.16-.46-.49V95.8s0,0,.12-.07a.69.69,0,0,1,.25,0c.4,0,.61.28.63.86V97a2.79,2.79,0,0,1,1-1,2.67,2.67,0,0,1,1.39-.36Zm4.35-2a.66.66,0,1,1,1.32,0,.62.62,0,0,1-.18.48.69.69,0,0,1-.49.17.69.69,0,0,1-.48-.17.65.65,0,0,1-.17-.48Zm.13,2.6c0-.34.15-.5.46-.5h.11c.31,0,.46.16.46.5v6c0,.33-.15.49-.46.49h-.11c-.31,0-.46-.16-.46-.49Zm5.67,6.55a3,3,0,0,1-1.62-.45A3.07,3.07,0,0,1,103,101a4.45,4.45,0,0,1,0-3.73,3,3,0,0,1,2.77-1.71,2.94,2.94,0,0,1,1.51.37,2.44,2.44,0,0,1,1,1v-4s0-.06.11-.08a.66.66,0,0,1,.25,0c.45,0,.68.31.68.92v8.42c0,.33-.16.49-.46.49h-.1a.4.4,0,0,1-.45-.46c0-.19,0-.49,0-.89a3,3,0,0,1-1,1.08,2.79,2.79,0,0,1-1.5.38Zm2.49-4.64a2.55,2.55,0,0,0-.87-1.21,2.28,2.28,0,0,0-1.42-.43,2.11,2.11,0,0,0-1.68.75,2.85,2.85,0,0,0-.65,2,3.16,3.16,0,0,0,.3,1.4,2.21,2.21,0,0,0,.82,1,2.15,2.15,0,0,0,1.19.35,2.31,2.31,0,0,0,1.16-.3,2.09,2.09,0,0,0,.84-.8,2.12,2.12,0,0,0,.31-1.14Zm2.44,2.72a1.76,1.76,0,0,1,1.13-1.68,9,9,0,0,1,3.56-.57h.16v-.29a1.79,1.79,0,0,0-.48-1.34,1.9,1.9,0,0,0-1.37-.47,2.39,2.39,0,0,0-1.3.33,2.12,2.12,0,0,0-.79.89.39.39,0,0,1-.2,0,.55.55,0,0,1-.3-.16.44.44,0,0,1-.14-.35.85.85,0,0,1,.11-.36,1.6,1.6,0,0,1,.31-.4,2.9,2.9,0,0,1,1-.59,3.94,3.94,0,0,1,1.39-.22,2.84,2.84,0,0,1,2.08.71,2.67,2.67,0,0,1,.73,2v4.23s0,0-.12.07a.73.73,0,0,1-.25,0c-.36,0-.56-.22-.61-.66q0-.39,0-.63a2.46,2.46,0,0,1-1,1,3.08,3.08,0,0,1-1.52.37,2.54,2.54,0,0,1-1.7-.52,1.69,1.69,0,0,1-.63-1.39Zm4.85-1.58-.24,0a8,8,0,0,0-2.74.4,1.19,1.19,0,0,0-.84,1.13,1,1,0,0,0,.41.85,1.7,1.7,0,0,0,1.09.32,2.53,2.53,0,0,0,1.17-.28,2.09,2.09,0,0,0,.84-.74,1.79,1.79,0,0,0,.31-1Zm5.52,3.5a3,3,0,0,1-1.62-.45,3.05,3.05,0,0,1-1.12-1.26,4.45,4.45,0,0,1,0-3.73A3.07,3.07,0,0,1,119.48,96a3,3,0,0,1,1.64-.45,2.94,2.94,0,0,1,1.51.37,2.44,2.44,0,0,1,1,1v-4s0-.06.11-.08a.62.62,0,0,1,.25,0c.45,0,.67.31.67.92v8.42c0,.33-.15.49-.46.49h-.1c-.29,0-.44-.15-.44-.46s0-.49,0-.89a2.84,2.84,0,0,1-1,1.08,2.74,2.74,0,0,1-1.5.38Zm2.5-4.64a2.55,2.55,0,0,0-.87-1.21,2.31,2.31,0,0,0-1.43-.43,2.1,2.1,0,0,0-1.67.75,2.85,2.85,0,0,0-.65,2,3.3,3.3,0,0,0,.29,1.4,2.3,2.3,0,0,0,.83,1,2.13,2.13,0,0,0,1.19.35,2.31,2.31,0,0,0,1.16-.3,2.09,2.09,0,0,0,.84-.8,2.12,2.12,0,0,0,.31-1.14ZM126,99.2a3.81,3.81,0,0,1,.44-1.86,3.2,3.2,0,0,1,2.94-1.75,3.17,3.17,0,0,1,1.66.42,2.91,2.91,0,0,1,1.1,1.18,3.85,3.85,0,0,1,.39,1.77v.1a.37.37,0,0,1-.08.26.5.5,0,0,1-.28.07H127a1.15,1.15,0,0,0,0,.2,2.53,2.53,0,0,0,.78,1.66,2.45,2.45,0,0,0,1.72.63,2.52,2.52,0,0,0,1.4-.34,2.43,2.43,0,0,0,.82-.92.37.37,0,0,1,.2,0,.59.59,0,0,1,.27.18.45.45,0,0,1,.12.33.77.77,0,0,1-.14.4,1.61,1.61,0,0,1-.4.44,3,3,0,0,1-1,.53,4.24,4.24,0,0,1-1.34.2,3.63,3.63,0,0,1-1.82-.44,3.15,3.15,0,0,1-1.22-1.26A3.71,3.71,0,0,1,126,99.2Zm5.51-.56a2.41,2.41,0,0,0-.62-1.61,2,2,0,0,0-1.51-.61,2.18,2.18,0,0,0-1.57.61,2.68,2.68,0,0,0-.79,1.61Z"/><path class="cls-6" d="M63.5,115.5a3,3,0,1,0-3,3A3,3,0,0,0,63.5,115.5Z"/><path class="cls-6" d="M131.53,115.5a3,3,0,1,0-3,3A3,3,0,0,0,131.53,115.5Z"/><line class="cls-1" x1="35.1" y1="184.25" x2="238.8" y2="184.25"/><path class="cls-2" d="M236.92,181.86a3.17,3.17,0,0,0,2.07,2.39,3.15,3.15,0,0,0-2.07,2.39"/><path d="M60.59,176.28a3.56,3.56,0,0,1-2-.53,3.34,3.34,0,0,1-1.27-1.49,5.62,5.62,0,0,1-.44-2.3v-1a5.65,5.65,0,0,1,.44-2.3,3.47,3.47,0,0,1,1.28-1.51,4,4,0,0,1,3.92,0,3.35,3.35,0,0,1,1.27,1.5,5.46,5.46,0,0,1,.45,2.3v.93a5.46,5.46,0,0,1-.45,2.3,3.45,3.45,0,0,1-1.29,1.52,3.59,3.59,0,0,1-2,.53Zm0-.92a2.3,2.3,0,0,0,1.92-.89,4,4,0,0,0,.68-2.5v-1a4,4,0,0,0-.69-2.51,2.46,2.46,0,0,0-3.81,0A4.07,4.07,0,0,0,58,171v1a4.06,4.06,0,0,0,.69,2.5,2.25,2.25,0,0,0,1.89.9Z"/><path d="M112,176.28c-.3,0-.45-.17-.45-.5v-7.26a1.16,1.16,0,0,1-.44.38,1.39,1.39,0,0,1-.61.13,1.16,1.16,0,0,1-.81-.28.74.74,0,0,1-.23-.55.72.72,0,0,1,.06-.29.78.78,0,0,1,.14-.2c.06,0,.09-.06.11-.05a1,1,0,0,0,.82.34,1.14,1.14,0,0,0,.8-.32,1.19,1.19,0,0,0,.36-.8h.39c.31,0,.47.17.47.5v8.4c0,.33-.16.5-.47.5Z"/><path d="M160.25,176.28a.79.79,0,0,1-.54-.15.58.58,0,0,1-.16-.47v-.36a3,3,0,0,1,.38-1.57,3.76,3.76,0,0,1,1-1.08,12,12,0,0,1,1.48-.88c.61-.31,1.05-.56,1.32-.73a2.55,2.55,0,0,0,.71-.64,1.4,1.4,0,0,0,.3-.91,1.6,1.6,0,0,0-.54-1.25,2.26,2.26,0,0,0-1.51-.47,2.21,2.21,0,0,0-1.58.54,2.71,2.71,0,0,0-.8,1.37s-.06,0-.19,0a.73.73,0,0,1-.36-.16.49.49,0,0,1-.17-.4,1.6,1.6,0,0,1,.2-.68,2.61,2.61,0,0,1,.54-.72,3.31,3.31,0,0,1,1-.66,3.82,3.82,0,0,1,1.39-.25,3.23,3.23,0,0,1,2.24.73,2.47,2.47,0,0,1,.81,1.94,2.31,2.31,0,0,1-.35,1.28,3,3,0,0,1-.88.88,14,14,0,0,1-1.44.8,13,13,0,0,0-1.3.71,3.18,3.18,0,0,0-.84.79,2.09,2.09,0,0,0-.37,1.08l0,.29h4.86c.35,0,.52.14.52.43v.08c0,.3-.17.45-.52.45Z"/><path d="M213.43,176.28a4.2,4.2,0,0,1-1.51-.25,3.1,3.1,0,0,1-1.09-.63,2.28,2.28,0,0,1-.5-.6,1.26,1.26,0,0,1-.17-.56.56.56,0,0,1,.14-.39.76.76,0,0,1,.31-.18q.16,0,.18,0a2.27,2.27,0,0,0,1,1.25,3.07,3.07,0,0,0,1.69.45,2.6,2.6,0,0,0,1.69-.5,1.62,1.62,0,0,0,.63-1.35,1.66,1.66,0,0,0-.6-1.37,2.69,2.69,0,0,0-1.72-.48h-.8c-.34,0-.5-.13-.5-.38v-.09c0-.27.15-.4.47-.4h1a2.15,2.15,0,0,0,1.44-.43,1.42,1.42,0,0,0,.52-1.18A1.45,1.45,0,0,0,215,168a2.36,2.36,0,0,0-1.53-.44,2.57,2.57,0,0,0-1.45.4,2.51,2.51,0,0,0-.91,1.06s-.07,0-.18,0a.67.67,0,0,1-.31-.19.48.48,0,0,1-.14-.35.92.92,0,0,1,.15-.44,2,2,0,0,1,.4-.48,3.18,3.18,0,0,1,1.07-.62,3.92,3.92,0,0,1,1.4-.24,3.66,3.66,0,0,1,2.3.65,2.18,2.18,0,0,1,.82,1.8,2,2,0,0,1-.43,1.3,2.23,2.23,0,0,1-1.22.73,2.7,2.7,0,0,1,1.41.87,2.36,2.36,0,0,1,.5,1.52,2.43,2.43,0,0,1-.91,2,3.93,3.93,0,0,1-2.49.73Z"/><line class="cls-1" x1="60.61" y1="187.24" x2="60.61" y2="181.26"/><text class="cls-4" transform="translate(58.12 198.64)">0</text><line class="cls-5" x1="58.12" y1="200.7" x2="63.1" y2="200.7"/><text class="cls-4" transform="translate(58.12 209.23)">3</text><line class="cls-1" x1="77.62" y1="187.24" x2="77.62" y2="181.26"/><text class="cls-4" transform="translate(75.13 198.64)">1</text><line class="cls-5" x1="75.13" y1="200.7" x2="80.11" y2="200.7"/><text class="cls-4" transform="translate(75.13 209.23)">3</text><line class="cls-1" x1="94.62" y1="187.24" x2="94.62" y2="181.26"/><text class="cls-4" transform="translate(92.13 198.64)">2</text><line class="cls-5" x1="92.13" y1="200.7" x2="97.12" y2="200.7"/><text class="cls-4" transform="translate(92.13 209.23)">3</text><line class="cls-1" x1="111.63" y1="187.24" x2="111.63" y2="181.26"/><text class="cls-4" transform="translate(109.14 198.64)">3</text><line class="cls-5" x1="109.14" y1="200.7" x2="114.12" y2="200.7"/><text class="cls-4" transform="translate(109.14 209.23)">3</text><line class="cls-1" x1="128.64" y1="187.24" x2="128.64" y2="181.26"/><text class="cls-4" transform="translate(126.15 198.64)">4</text><line class="cls-5" x1="126.15" y1="200.7" x2="131.13" y2="200.7"/><text class="cls-4" transform="translate(126.15 209.23)">3</text><line class="cls-1" x1="145.65" y1="187.24" x2="145.65" y2="181.26"/><text class="cls-4" transform="translate(143.16 198.64)">5</text><line class="cls-5" x1="143.16" y1="200.7" x2="148.14" y2="200.7"/><text class="cls-4" transform="translate(143.16 209.23)">3</text><line class="cls-1" x1="162.66" y1="187.24" x2="162.66" y2="181.26"/><text class="cls-4" transform="translate(160.17 198.64)">6</text><line class="cls-5" x1="160.17" y1="200.7" x2="165.15" y2="200.7"/><text class="cls-4" transform="translate(160.17 209.23)">3</text><line class="cls-1" x1="179.67" y1="187.24" x2="179.67" y2="181.26"/><text class="cls-4" transform="translate(177.17 198.64)">7</text><line class="cls-5" x1="177.17" y1="200.7" x2="182.16" y2="200.7"/><text class="cls-4" transform="translate(177.17 209.23)">3</text><line class="cls-1" x1="196.67" y1="187.24" x2="196.67" y2="181.26"/><text class="cls-4" transform="translate(194.18 198.64)">8</text><line class="cls-5" x1="194.18" y1="200.7" x2="199.16" y2="200.7"/><text class="cls-4" transform="translate(194.18 209.23)">3</text><line class="cls-1" x1="213.68" y1="187.24" x2="213.68" y2="181.26"/><text class="cls-4" transform="translate(211.19 198.64)">9</text><line class="cls-5" x1="211.19" y1="200.7" x2="216.17" y2="200.7"/><text class="cls-4" transform="translate(211.19 209.23)">3</text><line class="cls-1" x1="230.69" y1="187.24" x2="230.69" y2="181.26"/><text class="cls-4" transform="translate(225.71 198.64)">10</text><line class="cls-5" x1="225.71" y1="200.7" x2="235.67" y2="200.7"/><text class="cls-4" transform="translate(228.2 209.23)">3</text></svg>