<?xml version="1.0" encoding="utf-8"?>
<!-- Generator: Adobe Illustrator 16.0.0, SVG Export Plug-In . SVG Version: 6.00 Build 0)  -->
<!DOCTYPE svg PUBLIC "-//W3C//DTD SVG 1.1//EN" "http://www.w3.org/Graphics/SVG/1.1/DTD/svg11.dtd">
<svg version="1.1" id="Layer_1" xmlns="http://www.w3.org/2000/svg" xmlns:xlink="http://www.w3.org/1999/xlink" x="0px" y="0px"
	 width="325.98px" height="170.08px" viewBox="0 0 325.98 170.08" enable-background="new 0 0 325.98 170.08" xml:space="preserve">
<rect x="11.159" y="32.44" transform="matrix(0.8836 -0.4682 0.4682 0.8836 -10.6931 26.6471)" fill="#231F20" width="74.192" height="4.787"/>
<rect x="11.157" y="67.544" transform="matrix(0.8836 0.4682 -0.4682 0.8836 38.3609 -14.4528)" fill="#231F20" width="74.192" height="4.787"/>
<rect x="14.354" y="50.105" fill="#231F20" width="3.981" height="4.525"/>
<circle fill="none" stroke="#231F20" stroke-miterlimit="10" cx="49.099" cy="40.255" r="2.753"/>
<circle fill="none" stroke="#231F20" stroke-miterlimit="10" cx="49.099" cy="46.255" r="2.753"/>
<circle fill="none" stroke="#231F20" stroke-miterlimit="10" cx="49.099" cy="52.256" r="2.753"/>
<circle fill="none" stroke="#231F20" stroke-miterlimit="10" cx="49.099" cy="58.256" r="2.753"/>
<circle fill="none" stroke="#231F20" stroke-miterlimit="10" cx="49.099" cy="64.256" r="2.753"/>
<circle fill="none" stroke="#231F20" stroke-miterlimit="10" cx="70.099" cy="46.255" r="2.753"/>
<circle fill="none" stroke="#231F20" stroke-miterlimit="10" cx="70.099" cy="52.256" r="2.753"/>
<circle fill="none" stroke="#231F20" stroke-miterlimit="10" cx="70.099" cy="58.256" r="2.753"/>
<circle fill="none" stroke="#231F20" stroke-miterlimit="10" cx="70.099" cy="28.255" r="2.753"/>
<circle fill="none" stroke="#231F20" stroke-miterlimit="10" cx="70.099" cy="34.256" r="2.753"/>
<circle fill="none" stroke="#231F20" stroke-miterlimit="10" cx="70.099" cy="40.256" r="2.753"/>
<circle fill="none" stroke="#231F20" stroke-miterlimit="10" cx="70.099" cy="64.256" r="2.753"/>
<circle fill="none" stroke="#231F20" stroke-miterlimit="10" cx="146.099" cy="45.255" r="2.753"/>
<circle fill="none" stroke="#231F20" stroke-miterlimit="10" cx="146.099" cy="51.256" r="2.753"/>
<circle fill="none" stroke="#231F20" stroke-miterlimit="10" cx="146.099" cy="57.256" r="2.753"/>
<circle fill="none" stroke="#231F20" stroke-miterlimit="10" cx="146.099" cy="63.256" r="2.753"/>
<circle fill="none" stroke="#231F20" stroke-miterlimit="10" cx="176.099" cy="45.255" r="2.753"/>
<circle fill="none" stroke="#231F20" stroke-miterlimit="10" cx="176.099" cy="51.256" r="2.753"/>
<circle fill="none" stroke="#231F20" stroke-miterlimit="10" cx="176.099" cy="57.256" r="2.753"/>
<circle fill="none" stroke="#231F20" stroke-miterlimit="10" cx="176.099" cy="63.256" r="2.753"/>
<circle fill="none" stroke="#231F20" stroke-miterlimit="10" cx="70.099" cy="70.256" r="2.753"/>
<circle fill="none" stroke="#231F20" stroke-miterlimit="10" cx="70.099" cy="76.256" r="2.753"/>
<g>
	
		<rect x="237.933" y="32.436" transform="matrix(-0.8836 -0.4682 0.4682 -0.8836 501.7437 194.375)" fill="#231F20" width="74.193" height="4.787"/>
	
		<rect x="237.932" y="67.556" transform="matrix(-0.8836 0.4682 -0.4682 -0.8836 550.7997 2.9874)" fill="#231F20" width="74.193" height="4.787"/>
	<rect x="304.943" y="50.105" fill="#231F20" width="3.981" height="4.525"/>
	<circle fill="none" stroke="#231F20" stroke-miterlimit="10" cx="274.18" cy="40.255" r="2.753"/>
	<circle fill="none" stroke="#231F20" stroke-miterlimit="10" cx="274.18" cy="46.255" r="2.753"/>
	<circle fill="none" stroke="#231F20" stroke-miterlimit="10" cx="274.18" cy="52.256" r="2.753"/>
	<circle fill="none" stroke="#231F20" stroke-miterlimit="10" cx="274.18" cy="58.256" r="2.753"/>
	<circle fill="none" stroke="#231F20" stroke-miterlimit="10" cx="274.18" cy="64.256" r="2.753"/>
	<circle fill="none" stroke="#231F20" stroke-miterlimit="10" cx="253.18" cy="46.255" r="2.753"/>
	<circle fill="none" stroke="#231F20" stroke-miterlimit="10" cx="253.18" cy="52.256" r="2.753"/>
	<circle fill="none" stroke="#231F20" stroke-miterlimit="10" cx="253.18" cy="58.256" r="2.753"/>
	<circle fill="none" stroke="#231F20" stroke-miterlimit="10" cx="253.18" cy="28.255" r="2.753"/>
	<circle fill="none" stroke="#231F20" stroke-miterlimit="10" cx="253.18" cy="34.256" r="2.753"/>
	<circle fill="none" stroke="#231F20" stroke-miterlimit="10" cx="253.18" cy="40.256" r="2.753"/>
	<circle fill="none" stroke="#231F20" stroke-miterlimit="10" cx="253.18" cy="64.256" r="2.753"/>
	<circle fill="none" stroke="#231F20" stroke-miterlimit="10" cx="253.18" cy="70.256" r="2.753"/>
	<circle fill="none" stroke="#231F20" stroke-miterlimit="10" cx="253.18" cy="76.256" r="2.753"/>
</g>
<rect x="132" y="37.502" fill="#231F20" width="60" height="5"/>
<rect x="132" y="66.438" fill="#231F20" width="60" height="5"/>
<g>
	<path fill="#231F20" d="M18.178,118.89c-0.202-0.125-0.38-0.289-0.526-0.492c-0.148-0.202-0.26-0.435-0.334-0.69
		s-0.104-0.531-0.088-0.82c0.016-0.289,0.086-0.582,0.211-0.879c0.063-0.155,0.174-0.266,0.334-0.328
		c0.16-0.062,0.313-0.077,0.463-0.047c0.149,0.031,0.266,0.107,0.352,0.229c0.086,0.123,0.091,0.287,0.014,0.498
		c-0.134,0.328-0.164,0.606-0.096,0.838c0.07,0.23,0.203,0.433,0.398,0.604c0.125,0.109,0.184,0.244,0.176,0.404
		s-0.053,0.305-0.135,0.436c-0.082,0.129-0.193,0.225-0.334,0.285C18.471,118.988,18.327,118.976,18.178,118.89z M20.042,118.631
		c-0.203-0.125-0.379-0.289-0.525-0.491c-0.148-0.203-0.262-0.435-0.335-0.69c-0.073-0.259-0.104-0.531-0.089-0.82
		c0.018-0.289,0.087-0.582,0.212-0.879c0.063-0.156,0.175-0.267,0.334-0.328c0.159-0.063,0.313-0.078,0.464-0.047
		c0.147,0.031,0.266,0.106,0.352,0.229s0.09,0.287,0.012,0.498c-0.133,0.327-0.164,0.606-0.094,0.838
		c0.07,0.23,0.203,0.433,0.398,0.604c0.125,0.108,0.184,0.244,0.176,0.403s-0.053,0.306-0.135,0.435s-0.193,0.227-0.334,0.287
		C20.335,118.729,20.19,118.717,20.042,118.631z"/>
	<path fill="#231F20" d="M21.132,124.713c0.109-0.711,0.189-1.336,0.24-1.875s0.08-1.01,0.088-1.412
		c0.008-0.401,0.002-0.741-0.018-1.02c-0.021-0.278-0.045-0.515-0.076-0.71c-0.031-0.194-0.063-0.354-0.1-0.476
		c-0.037-0.12-0.059-0.225-0.064-0.311c-0.016-0.117-0.006-0.222,0.029-0.312c0.035-0.091,0.086-0.166,0.15-0.229
		c0.066-0.063,0.145-0.111,0.229-0.146c0.086-0.035,0.172-0.054,0.258-0.054c0.172,0,0.305,0.027,0.398,0.082
		c0.093,0.056,0.166,0.136,0.217,0.24c0.051,0.104,0.086,0.233,0.104,0.387c0.021,0.153,0.037,0.33,0.055,0.533
		c0.102-0.172,0.219-0.347,0.352-0.521c0.133-0.177,0.281-0.335,0.445-0.477c0.164-0.143,0.346-0.256,0.545-0.347
		s0.416-0.136,0.649-0.136c0.241,0,0.474,0.045,0.69,0.136c0.218,0.091,0.416,0.216,0.592,0.375
		c0.177,0.159,0.324,0.349,0.445,0.563c0.121,0.216,0.213,0.447,0.274,0.697c0.173-0.328,0.36-0.642,0.567-0.938
		c0.207-0.296,0.486-0.525,0.838-0.689c0.354-0.164,0.681-0.211,0.984-0.143c0.304,0.07,0.571,0.213,0.803,0.43
		c0.231,0.215,0.412,0.482,0.545,0.809s0.199,0.662,0.199,1.016c0,0.404-0.025,0.832-0.076,1.275
		c-0.051,0.445-0.096,0.859-0.135,1.242s-0.053,0.703-0.041,0.961s0.08,0.4,0.205,0.436c0.211,0.055,0.414-0.01,0.608-0.188
		c0.194-0.181,0.372-0.401,0.532-0.668s0.302-0.537,0.422-0.813c0.121-0.276,0.218-0.494,0.287-0.649
		c0.056-0.134,0.145-0.216,0.265-0.246c0.121-0.031,0.237-0.023,0.353,0.022c0.114,0.045,0.207,0.131,0.281,0.252
		c0.073,0.121,0.1,0.269,0.075,0.438c-0.095,0.383-0.224,0.767-0.388,1.147c-0.164,0.383-0.368,0.729-0.614,1.036
		c-0.245,0.31-0.541,0.561-0.886,0.75c-0.344,0.191-0.737,0.287-1.184,0.287c-0.297,0-0.541-0.08-0.732-0.239
		c-0.189-0.16-0.342-0.354-0.45-0.586c-0.108-0.23-0.185-0.476-0.224-0.731s-0.059-0.483-0.059-0.681c0-0.28,0.018-0.552,0.053-0.81
		s0.076-0.51,0.123-0.756s0.088-0.484,0.123-0.715c0.035-0.231,0.053-0.455,0.053-0.674c0-0.298-0.033-0.531-0.1-0.703
		c-0.067-0.172-0.162-0.259-0.287-0.259c-0.242,0-0.472,0.144-0.687,0.429c-0.216,0.285-0.41,0.651-0.587,1.102
		c-0.176,0.45-0.332,0.957-0.469,1.523c-0.137,0.565-0.244,1.131-0.322,1.692c-0.021,0.194-0.107,0.334-0.258,0.416
		c-0.148,0.082-0.307,0.112-0.475,0.095c-0.168-0.021-0.32-0.082-0.457-0.188c-0.138-0.105-0.205-0.248-0.205-0.429
		c0.016-0.103,0.041-0.287,0.076-0.558c0.034-0.271,0.064-0.575,0.094-0.92c0.027-0.345,0.043-0.7,0.047-1.071
		s-0.021-0.714-0.069-1.025c-0.051-0.312-0.138-0.567-0.259-0.768c-0.121-0.201-0.291-0.3-0.51-0.3c-0.18,0-0.353,0.084-0.517,0.252
		c-0.163,0.168-0.321,0.394-0.476,0.675c-0.152,0.28-0.291,0.604-0.416,0.973s-0.235,0.755-0.334,1.16
		c-0.098,0.406-0.18,0.815-0.246,1.229c-0.064,0.414-0.11,0.806-0.135,1.172c-0.022,0.194-0.115,0.332-0.274,0.41
		c-0.16,0.077-0.33,0.108-0.511,0.095c-0.18-0.016-0.34-0.074-0.479-0.177C21.175,125.005,21.116,124.877,21.132,124.713z"/>
	<path fill="#231F20" d="M36.226,119.498c-0.018,0.392-0.087,0.783-0.212,1.178c-0.125,0.396-0.31,0.75-0.552,1.066
		c-0.241,0.315-0.536,0.569-0.885,0.762c-0.348,0.192-0.744,0.271-1.188,0.24c0.009,0.241,0.034,0.478,0.082,0.703
		s0.123,0.42,0.229,0.579c0.106,0.16,0.248,0.272,0.428,0.341c0.182,0.067,0.406,0.057,0.682-0.029
		c0.271-0.078,0.534-0.207,0.784-0.387c0.25-0.181,0.476-0.388,0.675-0.621c0.197-0.233,0.366-0.481,0.504-0.744
		c0.137-0.262,0.234-0.519,0.299-0.769c0.031-0.133,0.104-0.215,0.223-0.246c0.118-0.03,0.24-0.026,0.369,0.013
		s0.238,0.106,0.328,0.205s0.119,0.209,0.088,0.334c-0.172,0.453-0.342,0.854-0.51,1.207s-0.354,0.662-0.558,0.933
		c-0.202,0.271-0.433,0.497-0.687,0.687c-0.254,0.188-0.553,0.344-0.896,0.469c-0.461,0.164-0.888,0.236-1.276,0.217
		c-0.391-0.019-0.73-0.123-1.021-0.311c-0.289-0.188-0.518-0.453-0.686-0.797c-0.168-0.345-0.264-0.763-0.287-1.255
		c-0.016-0.233-0.021-0.519-0.018-0.851c0.003-0.332,0.023-0.68,0.063-1.043c0.039-0.362,0.104-0.731,0.188-1.106
		s0.202-0.726,0.352-1.049c0.149-0.324,0.334-0.608,0.558-0.854s0.493-0.424,0.813-0.533c0.266-0.094,0.527-0.129,0.785-0.104
		c0.258,0.023,0.485,0.104,0.686,0.246s0.357,0.338,0.477,0.592C36.18,118.822,36.233,119.131,36.226,119.498z M34.749,119.192
		c-0.107-0.069-0.217-0.075-0.321-0.019c-0.104,0.06-0.205,0.156-0.3,0.293c-0.094,0.138-0.176,0.3-0.246,0.486
		c-0.068,0.188-0.129,0.381-0.176,0.58c-0.047,0.198-0.082,0.389-0.104,0.567c-0.023,0.18-0.027,0.323-0.014,0.435
		c0.359-0.07,0.646-0.22,0.855-0.445c0.21-0.226,0.355-0.469,0.438-0.727c0.082-0.259,0.109-0.5,0.082-0.728
		C34.938,119.41,34.866,119.265,34.749,119.192z"/>
	<path fill="#231F20" d="M37.01,119.438c0.038-0.259,0.134-0.444,0.28-0.563c0.148-0.118,0.306-0.17,0.47-0.158
		c0.163,0.013,0.312,0.088,0.438,0.229c0.128,0.142,0.197,0.341,0.205,0.599v0.259c0.141-0.188,0.297-0.375,0.469-0.563
		c0.172-0.188,0.357-0.354,0.558-0.498c0.199-0.145,0.421-0.25,0.661-0.316c0.242-0.064,0.505-0.07,0.785-0.018
		c0.289,0.063,0.521,0.186,0.697,0.368c0.176,0.184,0.307,0.405,0.393,0.668c0.087,0.263,0.139,0.55,0.152,0.86
		c0.016,0.313,0.014,0.627-0.006,0.943c-0.021,0.316-0.049,0.625-0.088,0.926s-0.072,0.568-0.102,0.803
		c-0.026,0.235-0.038,0.425-0.034,0.568c0.005,0.145,0.041,0.221,0.11,0.229c0.117,0.018,0.244-0.016,0.381-0.094
		c0.139-0.078,0.275-0.205,0.416-0.381c0.143-0.176,0.277-0.397,0.41-0.668c0.133-0.27,0.246-0.588,0.34-0.955
		c0.039-0.164,0.123-0.256,0.252-0.274c0.13-0.02,0.257,0.005,0.382,0.069c0.125,0.066,0.229,0.166,0.315,0.299
		c0.086,0.134,0.105,0.271,0.06,0.41c-0.147,0.445-0.321,0.861-0.521,1.248s-0.42,0.717-0.662,0.99s-0.506,0.479-0.791,0.615
		c-0.285,0.136-0.584,0.174-0.896,0.111c-0.313-0.063-0.555-0.184-0.723-0.357c-0.168-0.176-0.286-0.387-0.355-0.633
		c-0.07-0.246-0.104-0.517-0.095-0.81s0.03-0.593,0.069-0.896c0.039-0.305,0.082-0.603,0.129-0.891
		c0.048-0.289,0.074-0.553,0.082-0.785c0.009-0.234-0.012-0.434-0.059-0.593s-0.148-0.261-0.306-0.3
		c-0.211-0.055-0.413-0.012-0.608,0.13s-0.377,0.347-0.545,0.614s-0.322,0.58-0.463,0.934c-0.143,0.352-0.263,0.711-0.363,1.077
		s-0.182,0.726-0.24,1.071c-0.058,0.347-0.092,0.645-0.1,0.885c-0.023,0.109-0.103,0.205-0.234,0.287s-0.275,0.132-0.434,0.146
		c-0.157,0.016-0.308-0.017-0.451-0.095c-0.145-0.077-0.236-0.227-0.274-0.444c-0.009-0.142-0.005-0.303,0.013-0.485
		c0.016-0.183,0.039-0.453,0.068-0.81c0.031-0.355,0.064-0.83,0.102-1.424C36.936,121.174,36.971,120.399,37.01,119.438z"/>
	<path fill="#231F20" d="M47.206,118.045c0.359-0.116,0.674-0.142,0.943-0.069c0.269,0.07,0.494,0.207,0.674,0.409
		c0.18,0.203,0.322,0.455,0.428,0.757c0.106,0.302,0.179,0.618,0.217,0.955c0.018,0.155,0.025,0.327,0.029,0.517
		c0.004,0.188,0,0.375-0.012,0.563c-0.013,0.188-0.027,0.367-0.047,0.539c-0.021,0.172-0.045,0.328-0.076,0.47
		c0.188-0.009,0.354-0.033,0.504-0.076s0.285-0.095,0.41-0.151c0.125-0.058,0.244-0.123,0.355-0.192
		c0.113-0.069,0.229-0.138,0.348-0.199c0.146-0.077,0.271-0.088,0.368-0.028c0.099,0.059,0.164,0.146,0.198,0.264
		c0.035,0.118,0.043,0.244,0.023,0.382c-0.021,0.137-0.072,0.243-0.158,0.321c-0.375,0.344-0.785,0.592-1.229,0.744
		c-0.444,0.151-0.897,0.229-1.358,0.229c-0.305,0.539-0.695,0.946-1.172,1.226c-0.479,0.278-0.996,0.42-1.561,0.428
		c-0.521,0.008-0.965-0.099-1.322-0.315c-0.359-0.219-0.646-0.504-0.855-0.854s-0.35-0.752-0.416-1.201
		c-0.065-0.448-0.065-0.901,0-1.358c0.066-0.457,0.199-0.901,0.398-1.336c0.198-0.435,0.455-0.812,0.768-1.131
		c0.313-0.32,0.683-0.563,1.107-0.731C46.195,118.028,46.675,117.976,47.206,118.045z M46.362,119.394
		c-0.25,0.056-0.48,0.192-0.691,0.416s-0.391,0.487-0.539,0.797c-0.146,0.31-0.254,0.644-0.314,1.002
		c-0.063,0.358-0.068,0.697-0.02,1.015c0.051,0.315,0.17,0.592,0.357,0.826c0.187,0.233,0.457,0.387,0.809,0.457
		c0.125,0.021,0.268,0.012,0.423-0.035s0.31-0.117,0.456-0.211c0.148-0.095,0.283-0.205,0.404-0.334s0.213-0.261,0.275-0.394
		c-0.22-0.134-0.404-0.293-0.559-0.479c-0.151-0.188-0.282-0.396-0.393-0.621c-0.172-0.375-0.273-0.775-0.305-1.201
		C46.235,120.204,46.269,119.791,46.362,119.394z M47.815,119.451c-0.22,0.133-0.343,0.317-0.369,0.557
		c-0.027,0.24-0.006,0.479,0.063,0.729c0.07,0.245,0.169,0.467,0.294,0.661s0.229,0.315,0.315,0.362
		c0.047-0.038,0.084-0.131,0.111-0.273c0.025-0.146,0.045-0.313,0.053-0.498c0.008-0.188,0.004-0.384-0.012-0.586
		c-0.018-0.203-0.043-0.384-0.082-0.539c-0.039-0.156-0.091-0.275-0.152-0.357C47.975,119.423,47.901,119.403,47.815,119.451z"/>
	<path fill="#231F20" d="M50.71,125.019c-0.078,0.134-0.188,0.205-0.334,0.218c-0.145,0.012-0.285-0.013-0.422-0.07
		s-0.252-0.139-0.346-0.24c-0.095-0.101-0.121-0.198-0.082-0.293c0.055-0.133,0.125-0.305,0.211-0.516s0.19-0.519,0.315-0.92
		c0.125-0.402,0.269-0.935,0.429-1.595c0.16-0.659,0.342-1.502,0.545-2.524c0.03-0.25,0.119-0.431,0.264-0.539
		c0.146-0.109,0.303-0.156,0.477-0.142c0.102,0.009,0.197,0.033,0.293,0.076c0.094,0.043,0.174,0.104,0.238,0.188
		c0.066,0.083,0.115,0.18,0.146,0.293s0.031,0.24,0,0.381c0.141,0.164,0.278,0.303,0.416,0.416c0.137,0.113,0.281,0.209,0.434,0.287
		c0.153,0.078,0.316,0.146,0.492,0.205c0.176,0.059,0.377,0.119,0.604,0.182c0.155,0.103,0.259,0.203,0.306,0.306
		s0.063,0.209,0.047,0.321c-0.016,0.113-0.051,0.234-0.104,0.363c-0.055,0.129-0.104,0.269-0.151,0.416
		c-0.023,0.086-0.051,0.211-0.082,0.375s-0.058,0.346-0.076,0.545s-0.033,0.404-0.041,0.615s-0.002,0.403,0.019,0.58
		c0.021,0.176,0.058,0.323,0.11,0.444c0.055,0.121,0.133,0.188,0.234,0.205c0.328,0.063,0.637-0.134,0.926-0.587
		c0.289-0.452,0.566-1.194,0.832-2.227c0.039-0.188,0.123-0.313,0.252-0.375c0.129-0.063,0.262-0.082,0.398-0.061
		c0.136,0.023,0.254,0.082,0.352,0.177s0.131,0.207,0.1,0.341c-0.047,0.288-0.115,0.607-0.211,0.961
		c-0.094,0.353-0.217,0.7-0.368,1.049s-0.334,0.676-0.546,0.983c-0.211,0.309-0.456,0.562-0.736,0.757
		c-0.211,0.146-0.439,0.243-0.688,0.286s-0.484,0.031-0.721-0.034c-0.235-0.066-0.447-0.185-0.639-0.354
		c-0.192-0.168-0.33-0.385-0.416-0.648c-0.182-0.539-0.255-1.093-0.225-1.658c0.031-0.565,0.117-1.131,0.259-1.692
		c-0.181-0.078-0.38-0.162-0.599-0.252c-0.219-0.091-0.406-0.192-0.563-0.312c-0.273,0.858-0.488,1.543-0.646,2.051
		s-0.281,0.901-0.375,1.185c-0.094,0.281-0.162,0.478-0.205,0.586C50.79,124.881,50.749,124.963,50.71,125.019z"/>
	<path fill="#231F20" d="M63.694,118.231c0.219-0.009,0.403,0.026,0.557,0.104s0.279,0.174,0.381,0.287
		c0.104,0.113,0.178,0.231,0.225,0.356s0.073,0.229,0.082,0.315c-0.023,0.845-0.1,1.681-0.225,2.509
		c-0.125,0.827-0.223,1.676-0.293,2.543c0.268,0,0.502-0.076,0.709-0.229c0.207-0.153,0.391-0.356,0.545-0.615
		c0.156-0.258,0.296-0.553,0.416-0.885c0.121-0.332,0.232-0.68,0.334-1.037c0.048-0.143,0.137-0.227,0.266-0.252
		c0.129-0.026,0.258-0.021,0.387,0.019s0.244,0.103,0.346,0.188c0.104,0.086,0.148,0.168,0.143,0.246
		c-0.031,0.391-0.102,0.775-0.205,1.154c-0.105,0.379-0.24,0.727-0.404,1.043c-0.164,0.314-0.35,0.588-0.557,0.813
		s-0.429,0.383-0.662,0.47c0.141,0.22,0.252,0.485,0.334,0.804c0.082,0.315,0.127,0.645,0.135,0.982s-0.024,0.68-0.1,1.016
		c-0.076,0.336-0.191,0.639-0.354,0.907c-0.161,0.27-0.369,0.485-0.627,0.649s-0.564,0.246-0.926,0.246
		c-0.25,0-0.451-0.074-0.604-0.225c-0.152-0.147-0.274-0.328-0.368-0.539c-0.096-0.211-0.162-0.434-0.205-0.668
		c-0.043-0.232-0.072-0.439-0.088-0.621c-0.039-0.5-0.051-1.006-0.029-1.518c0.02-0.512,0.049-1.041,0.088-1.588
		c-0.164,0.156-0.336,0.297-0.516,0.422c-0.182,0.125-0.365,0.223-0.559,0.293c-0.19,0.07-0.385,0.104-0.58,0.1
		c-0.193-0.004-0.387-0.057-0.572-0.156c-0.281-0.156-0.52-0.332-0.71-0.527c-0.19-0.193-0.329-0.457-0.415-0.784
		c-0.07-0.25-0.111-0.526-0.123-0.831c-0.014-0.307,0.006-0.617,0.053-0.938s0.127-0.638,0.24-0.949
		c0.111-0.312,0.26-0.604,0.438-0.879c0.211-0.313,0.449-0.604,0.715-0.873c0.268-0.269,0.548-0.502,0.846-0.696
		c0.297-0.194,0.604-0.353,0.926-0.47C63.056,118.301,63.374,118.24,63.694,118.231z M61.116,123.799
		c0.07,0.181,0.19,0.281,0.363,0.306c0.154,0.022,0.332-0.026,0.525-0.151c0.203-0.133,0.387-0.334,0.545-0.604
		c0.16-0.271,0.301-0.567,0.416-0.896c0.096-0.267,0.176-0.537,0.24-0.814c0.066-0.276,0.121-0.541,0.164-0.791
		s0.072-0.475,0.088-0.674c0.018-0.198,0.021-0.356,0.013-0.475c-0.022,0.008-0.048,0.018-0.069,0.028
		c-0.023,0.011-0.047,0.019-0.07,0.019c-0.18,0.016-0.365,0.065-0.557,0.151c-0.192,0.086-0.377,0.201-0.559,0.347
		c-0.18,0.145-0.35,0.313-0.51,0.504c-0.16,0.19-0.299,0.399-0.416,0.627c-0.188,0.358-0.307,0.748-0.355,1.166
		C60.884,122.958,60.944,123.377,61.116,123.799z M64.456,128.416c0.117-0.108,0.209-0.289,0.275-0.539
		c0.064-0.25,0.1-0.512,0.1-0.785c0-0.271-0.041-0.524-0.123-0.756s-0.213-0.381-0.393-0.451c-0.018,0.423-0.018,0.845,0,1.268
		C64.331,127.573,64.378,127.994,64.456,128.416z"/>
	<path fill="#231F20" d="M67.022,118.549c0.107-0.194,0.239-0.33,0.393-0.403s0.301-0.095,0.445-0.06
		c0.144,0.035,0.268,0.121,0.369,0.258c0.101,0.138,0.15,0.318,0.15,0.546c-0.021,0.094-0.064,0.28-0.129,0.563
		c-0.063,0.28-0.131,0.604-0.205,0.973c-0.073,0.368-0.146,0.757-0.217,1.166c-0.071,0.41-0.117,0.787-0.141,1.131
		c-0.024,0.345-0.02,0.634,0.018,0.867c0.037,0.234,0.115,0.363,0.24,0.388c0.227,0.039,0.438-0.048,0.633-0.259
		s0.375-0.489,0.539-0.838c0.164-0.348,0.313-0.735,0.445-1.166c0.132-0.43,0.248-0.842,0.346-1.235
		c0.098-0.395,0.178-0.744,0.24-1.05c0.062-0.305,0.107-0.508,0.141-0.608c0.056-0.194,0.127-0.354,0.217-0.479
		c0.091-0.125,0.229-0.228,0.416-0.305c0.273-0.031,0.486,0.024,0.641,0.17c0.151,0.146,0.23,0.354,0.239,0.627
		c-0.063,0.306-0.134,0.629-0.212,0.974c-0.077,0.345-0.15,0.687-0.223,1.024s-0.129,0.668-0.176,0.983s-0.076,0.601-0.088,0.851
		c-0.014,0.25,0,0.461,0.034,0.633s0.106,0.281,0.218,0.328c0.25,0.039,0.475-0.09,0.674-0.388c0.199-0.297,0.412-0.78,0.639-1.452
		c0.07-0.173,0.177-0.277,0.316-0.316c0.14-0.038,0.271-0.027,0.393,0.029s0.216,0.162,0.281,0.312
		c0.066,0.148,0.063,0.328-0.006,0.539c-0.047,0.133-0.105,0.286-0.176,0.463c-0.071,0.177-0.154,0.356-0.252,0.545
		c-0.1,0.188-0.205,0.375-0.322,0.563s-0.242,0.355-0.375,0.504c-0.195,0.234-0.414,0.4-0.656,0.498
		c-0.242,0.099-0.479,0.131-0.715,0.101c-0.235-0.03-0.457-0.129-0.668-0.293s-0.383-0.396-0.516-0.69
		c-0.143,0.203-0.283,0.391-0.43,0.563c-0.145,0.172-0.305,0.318-0.479,0.443s-0.371,0.219-0.586,0.274
		c-0.216,0.059-0.468,0.08-0.756,0.063c-0.281-0.016-0.516-0.094-0.697-0.233c-0.184-0.141-0.326-0.319-0.428-0.539
		c-0.104-0.22-0.173-0.459-0.212-0.722c-0.038-0.262-0.06-0.523-0.06-0.791c0-0.266,0.01-0.518,0.029-0.756
		c0.019-0.238,0.037-0.438,0.053-0.604c0.023-0.211,0.062-0.457,0.111-0.738c0.049-0.281,0.104-0.568,0.164-0.861
		c0.059-0.293,0.118-0.578,0.182-0.854C66.93,119.008,66.983,118.76,67.022,118.549z"/>
	<path fill="#231F20" d="M76.608,119.498c-0.018,0.392-0.086,0.783-0.211,1.178c-0.125,0.396-0.311,0.75-0.552,1.066
		c-0.241,0.315-0.536,0.569-0.886,0.762c-0.348,0.192-0.744,0.271-1.188,0.24c0.008,0.241,0.034,0.478,0.082,0.703
		c0.047,0.225,0.123,0.42,0.229,0.579c0.106,0.16,0.248,0.272,0.429,0.341c0.181,0.067,0.405,0.057,0.681-0.029
		c0.271-0.078,0.535-0.207,0.785-0.387c0.25-0.181,0.475-0.388,0.674-0.621s0.367-0.481,0.504-0.744
		c0.137-0.262,0.236-0.519,0.299-0.769c0.031-0.133,0.105-0.215,0.223-0.246c0.118-0.03,0.24-0.026,0.369,0.013
		s0.238,0.106,0.328,0.205s0.119,0.209,0.088,0.334c-0.172,0.453-0.342,0.854-0.51,1.207s-0.354,0.662-0.557,0.933
		c-0.203,0.271-0.434,0.497-0.688,0.687c-0.254,0.188-0.553,0.344-0.896,0.469c-0.461,0.164-0.889,0.236-1.277,0.217
		c-0.39-0.019-0.729-0.123-1.021-0.311c-0.289-0.188-0.519-0.453-0.687-0.797c-0.168-0.345-0.264-0.763-0.287-1.255
		c-0.016-0.233-0.021-0.519-0.018-0.851s0.023-0.68,0.063-1.043c0.039-0.362,0.104-0.731,0.188-1.106s0.203-0.726,0.352-1.049
		c0.149-0.324,0.334-0.608,0.559-0.854c0.223-0.246,0.493-0.424,0.813-0.533c0.267-0.094,0.527-0.129,0.785-0.104
		c0.258,0.023,0.486,0.104,0.687,0.246c0.199,0.142,0.356,0.338,0.476,0.592C76.563,118.822,76.616,119.131,76.608,119.498z
		 M75.132,119.192c-0.107-0.069-0.217-0.075-0.32-0.019c-0.105,0.06-0.205,0.156-0.3,0.293c-0.095,0.138-0.177,0.3-0.245,0.486
		c-0.07,0.188-0.13,0.381-0.178,0.58c-0.047,0.198-0.082,0.389-0.104,0.567c-0.023,0.18-0.027,0.323-0.013,0.435
		c0.358-0.07,0.646-0.22,0.854-0.445c0.21-0.226,0.357-0.469,0.439-0.727c0.081-0.259,0.107-0.5,0.081-0.728
		C75.321,119.41,75.249,119.265,75.132,119.192z"/>
	<path fill="#231F20" d="M78.26,115.688c0.202,0.125,0.379,0.289,0.526,0.491c0.148,0.203,0.26,0.436,0.334,0.691
		s0.104,0.531,0.088,0.819c-0.016,0.289-0.086,0.582-0.211,0.88c-0.063,0.155-0.174,0.266-0.334,0.327
		c-0.16,0.063-0.313,0.078-0.463,0.048c-0.148-0.031-0.268-0.107-0.356-0.229c-0.09-0.122-0.093-0.286-0.007-0.498
		c0.134-0.326,0.164-0.605,0.096-0.838c-0.07-0.23-0.203-0.432-0.398-0.604c-0.125-0.108-0.184-0.243-0.176-0.403
		s0.053-0.306,0.135-0.435s0.193-0.226,0.334-0.287S78.112,115.604,78.26,115.688z M80.124,115.433
		c0.203,0.125,0.379,0.289,0.527,0.491c0.146,0.203,0.26,0.435,0.334,0.691c0.074,0.256,0.104,0.53,0.088,0.819
		c-0.017,0.288-0.086,0.582-0.211,0.879c-0.063,0.155-0.174,0.267-0.334,0.328c-0.16,0.063-0.314,0.077-0.463,0.047
		c-0.149-0.03-0.27-0.106-0.357-0.229s-0.092-0.287-0.006-0.498c0.133-0.328,0.164-0.606,0.094-0.838
		c-0.068-0.229-0.203-0.433-0.396-0.604c-0.125-0.108-0.186-0.244-0.177-0.403c0.009-0.16,0.054-0.306,0.136-0.435
		s0.191-0.226,0.334-0.287C79.832,115.333,79.976,115.347,80.124,115.433z"/>
	<path fill="#231F20" d="M31.997,138.498c-0.016,0.392-0.086,0.783-0.211,1.178c-0.125,0.396-0.309,0.75-0.551,1.066
		c-0.242,0.314-0.537,0.569-0.885,0.762c-0.35,0.192-0.744,0.271-1.189,0.24c0.008,0.241,0.035,0.478,0.082,0.702
		c0.047,0.227,0.123,0.421,0.229,0.58c0.105,0.16,0.248,0.272,0.429,0.341c0.18,0.067,0.405,0.057,0.68-0.029
		c0.273-0.078,0.535-0.207,0.785-0.387c0.25-0.181,0.475-0.388,0.674-0.621s0.367-0.481,0.504-0.744
		c0.138-0.262,0.236-0.519,0.299-0.769c0.031-0.133,0.105-0.215,0.225-0.246c0.118-0.03,0.239-0.026,0.369,0.013
		c0.129,0.039,0.236,0.106,0.327,0.205s0.118,0.209,0.089,0.334c-0.173,0.453-0.344,0.854-0.512,1.207s-0.354,0.662-0.557,0.933
		s-0.432,0.497-0.687,0.687c-0.254,0.188-0.554,0.344-0.896,0.469c-0.461,0.164-0.887,0.236-1.277,0.217
		c-0.39-0.02-0.729-0.123-1.02-0.311c-0.29-0.188-0.519-0.453-0.687-0.798c-0.169-0.344-0.265-0.762-0.287-1.254
		c-0.017-0.233-0.021-0.519-0.019-0.851s0.025-0.68,0.064-1.043c0.038-0.362,0.102-0.731,0.188-1.106s0.203-0.726,0.354-1.049
		c0.147-0.324,0.334-0.608,0.557-0.854s0.494-0.424,0.813-0.533c0.267-0.094,0.526-0.129,0.784-0.104
		c0.259,0.023,0.486,0.104,0.688,0.246c0.2,0.142,0.355,0.338,0.475,0.592S32.005,138.131,31.997,138.498z M30.521,138.192
		c-0.109-0.069-0.218-0.075-0.322-0.019c-0.104,0.06-0.205,0.156-0.299,0.293c-0.095,0.138-0.176,0.3-0.246,0.486
		s-0.129,0.381-0.176,0.58c-0.048,0.198-0.082,0.389-0.105,0.567c-0.021,0.179-0.026,0.323-0.012,0.435
		c0.358-0.07,0.645-0.22,0.854-0.445s0.357-0.469,0.439-0.727c0.082-0.259,0.108-0.5,0.082-0.729
		C30.71,138.41,30.637,138.265,30.521,138.192z"/>
	<path fill="#231F20" d="M32.278,137.679c0.008-0.212,0.082-0.365,0.223-0.464c0.143-0.098,0.291-0.141,0.451-0.129
		c0.16,0.013,0.299,0.076,0.416,0.192c0.117,0.117,0.16,0.285,0.129,0.505c-0.016,0.094-0.021,0.223-0.018,0.387
		s0.018,0.351,0.041,0.558c0.021,0.207,0.061,0.425,0.109,0.649c0.051,0.226,0.119,0.444,0.205,0.656
		c0.095,0.241,0.209,0.465,0.347,0.668c0.138,0.202,0.3,0.362,0.485,0.479l2.402-3.973c0.125-0.188,0.274-0.283,0.451-0.287
		c0.176-0.004,0.33,0.053,0.463,0.17s0.219,0.273,0.258,0.47c0.039,0.195-0.016,0.396-0.164,0.599l-2.461,3.809
		c0.297,0.259,0.594,0.438,0.891,0.533c0.298,0.097,0.582,0.119,0.855,0.063c0.358-0.063,0.684-0.246,0.973-0.552
		c0.289-0.305,0.521-0.727,0.691-1.266c0.016-0.125,0.076-0.207,0.182-0.246c0.106-0.039,0.217-0.039,0.334,0
		s0.225,0.115,0.316,0.229c0.093,0.113,0.141,0.265,0.141,0.45c-0.232,0.703-0.549,1.27-0.942,1.693
		c-0.395,0.425-0.838,0.705-1.329,0.838c-0.423,0.117-0.863,0.129-1.324,0.035s-0.935-0.306-1.418-0.633l-0.715,1.241
		c-0.117,0.194-0.271,0.3-0.464,0.312c-0.191,0.012-0.368-0.029-0.532-0.123s-0.285-0.219-0.363-0.375s-0.063-0.301,0.047-0.435
		l0.938-1.44c-0.32-0.297-0.58-0.606-0.779-0.932s-0.356-0.654-0.475-0.99c-0.182-0.508-0.289-0.998-0.328-1.472
		C32.275,138.427,32.262,138.021,32.278,137.679z"/>
	<path fill="#231F20" d="M40.259,142.317c-0.163-0.228-0.217-0.442-0.156-0.649c0.059-0.207,0.17-0.367,0.334-0.479
		s0.346-0.159,0.545-0.142c0.198,0.019,0.354,0.144,0.463,0.369c0.117,0.188,0.146,0.377,0.094,0.567
		c-0.054,0.19-0.152,0.347-0.293,0.463c-0.141,0.117-0.305,0.175-0.492,0.171C40.565,142.612,40.399,142.515,40.259,142.317z
		 M40.435,138.769c-0.134-0.134-0.214-0.269-0.24-0.403c-0.027-0.138-0.017-0.267,0.035-0.388c0.051-0.121,0.129-0.226,0.232-0.312
		c0.105-0.086,0.227-0.142,0.357-0.164s0.27-0.01,0.41,0.041c0.14,0.051,0.27,0.153,0.387,0.312c0.094,0.164,0.109,0.33,0.047,0.498
		c-0.062,0.168-0.162,0.306-0.299,0.41s-0.293,0.166-0.469,0.183C40.719,138.961,40.567,138.899,40.435,138.769z"/>
	<path fill="#231F20" d="M47.396,134.149c0.155-0.155,0.323-0.233,0.504-0.233c0.18,0,0.334,0.047,0.463,0.142
		s0.213,0.22,0.252,0.375s-0.004,0.313-0.129,0.47c-0.195,0.241-0.395,0.526-0.592,0.854c-0.199,0.328-0.38,0.666-0.539,1.015
		c-0.16,0.349-0.295,0.688-0.404,1.024s-0.168,0.634-0.176,0.892c0.146-0.125,0.295-0.226,0.438-0.299
		c0.146-0.074,0.295-0.123,0.451-0.146c0.445-0.063,0.844-0.033,1.195,0.088c0.351,0.121,0.651,0.305,0.901,0.551
		s0.446,0.535,0.593,0.867c0.145,0.332,0.232,0.682,0.27,1.049s0.015,0.732-0.063,1.097c-0.078,0.363-0.219,0.694-0.416,0.995
		c-0.199,0.302-0.459,0.556-0.779,0.763s-0.707,0.338-1.16,0.394c-0.438,0.056-0.822-0.012-1.154-0.199
		c-0.331-0.187-0.613-0.438-0.85-0.756c-0.236-0.317-0.418-0.672-0.551-1.065c-0.133-0.395-0.22-0.774-0.258-1.144
		c-0.063-0.555-0.061-1.151,0.012-1.793s0.195-1.269,0.375-1.881c0.18-0.613,0.406-1.188,0.68-1.724
		C46.733,134.946,47.044,134.502,47.396,134.149z M47.724,139.576c-0.229,0.055-0.404,0.176-0.533,0.362
		c-0.129,0.188-0.217,0.403-0.265,0.649s-0.056,0.504-0.022,0.773c0.032,0.269,0.1,0.514,0.205,0.73
		c0.104,0.218,0.244,0.396,0.416,0.533c0.172,0.138,0.371,0.192,0.598,0.17c0.306-0.022,0.558-0.133,0.756-0.328
		c0.199-0.194,0.346-0.428,0.436-0.696c0.09-0.27,0.125-0.554,0.104-0.851c-0.02-0.297-0.094-0.562-0.223-0.791
		s-0.316-0.403-0.563-0.521C48.385,139.493,48.083,139.481,47.724,139.576z"/>
	<path fill="#231F20" d="M56.31,139.451l1.857,1.817c0.118,0.108,0.166,0.258,0.146,0.444c-0.022,0.188-0.089,0.359-0.198,0.521
		c-0.109,0.16-0.244,0.271-0.403,0.334c-0.158,0.063-0.313,0.026-0.458-0.108l-2.323-2.324c-0.184-0.163-0.3-0.329-0.35-0.497
		c-0.05-0.17-0.06-0.334-0.026-0.492c0.031-0.159,0.102-0.301,0.204-0.424c0.104-0.123,0.223-0.222,0.351-0.296l2.666-1.709
		c0.173-0.09,0.335-0.088,0.483,0.009c0.15,0.097,0.269,0.226,0.351,0.39s0.118,0.338,0.107,0.52
		c-0.009,0.185-0.087,0.312-0.23,0.384L56.31,139.451z"/>
	<path fill="#231F20" d="M62.802,134.562c0.038-0.258,0.132-0.438,0.274-0.539c0.145-0.102,0.297-0.149,0.457-0.146
		s0.305,0.058,0.434,0.158c0.13,0.101,0.193,0.227,0.193,0.375c0.008,0.117,0.014,0.317,0.019,0.604s0.007,0.628,0.007,1.025
		s0.002,0.834,0.006,1.307c0.004,0.474,0.006,0.957,0.006,1.453s0,0.984,0,1.465c0,0.481,0.002,0.927,0.006,1.337
		c0.004,0.409,0.01,0.769,0.019,1.071c0.009,0.306,0.017,0.527,0.022,0.668c0.008,0.211-0.053,0.383-0.182,0.517
		c-0.13,0.134-0.275,0.213-0.439,0.239c-0.164,0.027-0.322-0.008-0.475-0.104c-0.153-0.097-0.252-0.271-0.3-0.521
		c-0.017-0.056-0.026-0.207-0.034-0.457c-0.009-0.25-0.016-0.563-0.02-0.942s-0.008-0.805-0.012-1.277
		c-0.004-0.472-0.006-0.961-0.006-1.465s0-1.008,0-1.512s0.002-0.972,0.006-1.4s0.008-0.807,0.012-1.131
		S62.802,134.717,62.802,134.562z"/>
	<path fill="#231F20" d="M67.606,135.592c-0.156,0.048-0.302,0.119-0.436,0.218c-0.133,0.099-0.26,0.207-0.381,0.328
		c-0.121,0.12-0.235,0.254-0.346,0.397c-0.111,0.143-0.215,0.286-0.316,0.428c-0.125,0.164-0.275,0.256-0.457,0.274
		c-0.18,0.02-0.346-0.008-0.498-0.082c-0.15-0.073-0.27-0.183-0.352-0.321s-0.092-0.281-0.029-0.422
		c0.07-0.22,0.211-0.463,0.422-0.731c0.211-0.27,0.455-0.524,0.732-0.769c0.276-0.244,0.567-0.451,0.873-0.627
		c0.305-0.177,0.582-0.283,0.832-0.322c0.336-0.055,0.66-0.039,0.973,0.047c0.313,0.087,0.592,0.229,0.838,0.436
		c0.246,0.202,0.445,0.457,0.6,0.762c0.151,0.305,0.229,0.647,0.229,1.031c0,0.344-0.061,0.704-0.182,1.084
		c-0.121,0.379-0.279,0.764-0.477,1.153c-0.194,0.39-0.418,0.778-0.668,1.166s-0.504,0.756-0.762,1.106
		c-0.258,0.35-0.508,0.678-0.75,0.979c-0.242,0.301-0.449,0.561-0.621,0.777l2.918-0.094c0.195,0,0.349,0.064,0.457,0.197
		c0.109,0.135,0.168,0.287,0.176,0.465c0.01,0.176-0.038,0.346-0.141,0.51s-0.262,0.271-0.479,0.328
		c-0.759,0.029-1.53,0.057-2.319,0.075c-0.789,0.02-1.518,0.041-2.181,0.063c-0.155,0.016-0.276-0.027-0.362-0.129
		s-0.145-0.23-0.17-0.387c-0.027-0.157-0.021-0.324,0.018-0.504s0.105-0.34,0.199-0.48c0.102-0.156,0.215-0.303,0.34-0.438
		s0.234-0.265,0.328-0.382c0.133-0.164,0.293-0.363,0.479-0.604c0.188-0.238,0.39-0.5,0.604-0.785s0.43-0.58,0.645-0.885
		c0.217-0.305,0.416-0.604,0.604-0.896c0.188-0.291,0.352-0.573,0.492-0.844c0.14-0.27,0.241-0.506,0.305-0.709
		c0.063-0.203,0.082-0.404,0.06-0.604c-0.022-0.2-0.087-0.369-0.188-0.51c-0.103-0.143-0.236-0.244-0.404-0.313
		S67.841,135.521,67.606,135.592z"/>
</g>
<g>
	<path fill="#231F20" d="M245.788,118.89c-0.203-0.125-0.379-0.289-0.526-0.492c-0.147-0.202-0.261-0.435-0.334-0.69
		c-0.073-0.257-0.104-0.531-0.089-0.82c0.018-0.289,0.086-0.582,0.211-0.879c0.063-0.155,0.176-0.266,0.334-0.328
		c0.16-0.062,0.314-0.077,0.464-0.047c0.148,0.031,0.267,0.107,0.353,0.229c0.086,0.123,0.09,0.287,0.012,0.498
		c-0.133,0.328-0.164,0.606-0.094,0.838c0.07,0.23,0.203,0.433,0.398,0.604c0.125,0.109,0.184,0.244,0.176,0.404
		s-0.054,0.305-0.136,0.436c-0.081,0.129-0.192,0.225-0.334,0.285S245.937,118.976,245.788,118.89z M247.651,118.631
		c-0.203-0.125-0.379-0.289-0.527-0.491c-0.146-0.203-0.26-0.435-0.334-0.69c-0.074-0.259-0.104-0.531-0.088-0.82
		c0.017-0.289,0.086-0.582,0.211-0.879c0.063-0.156,0.174-0.267,0.334-0.328s0.314-0.078,0.463-0.047
		c0.149,0.031,0.268,0.106,0.354,0.229s0.09,0.287,0.012,0.498c-0.133,0.327-0.164,0.606-0.094,0.838
		c0.068,0.23,0.203,0.433,0.396,0.604c0.125,0.108,0.186,0.244,0.177,0.403s-0.054,0.306-0.136,0.435s-0.191,0.227-0.334,0.287
		C247.944,118.729,247.8,118.717,247.651,118.631z"/>
	<path fill="#231F20" d="M248.741,124.713c0.109-0.711,0.188-1.336,0.24-1.875c0.051-0.539,0.08-1.01,0.088-1.412
		c0.008-0.401,0.002-0.741-0.02-1.02c-0.02-0.278-0.045-0.515-0.074-0.71c-0.031-0.194-0.064-0.354-0.102-0.476
		c-0.037-0.12-0.057-0.225-0.063-0.311c-0.018-0.117-0.007-0.222,0.027-0.312c0.035-0.091,0.086-0.166,0.152-0.229
		c0.065-0.063,0.143-0.111,0.229-0.146s0.173-0.054,0.259-0.054c0.172,0,0.305,0.027,0.396,0.082
		c0.094,0.056,0.166,0.136,0.217,0.24c0.053,0.104,0.087,0.233,0.105,0.387c0.018,0.154,0.037,0.33,0.053,0.533
		c0.104-0.172,0.22-0.347,0.354-0.521c0.133-0.177,0.279-0.335,0.443-0.477c0.164-0.143,0.348-0.256,0.545-0.347
		c0.199-0.091,0.416-0.136,0.65-0.136c0.242,0,0.473,0.045,0.69,0.136c0.219,0.091,0.416,0.216,0.593,0.375
		c0.176,0.159,0.323,0.349,0.444,0.563c0.12,0.216,0.213,0.447,0.274,0.697c0.172-0.328,0.361-0.642,0.568-0.938
		c0.207-0.296,0.484-0.525,0.838-0.689c0.352-0.164,0.68-0.211,0.983-0.143c0.305,0.07,0.571,0.213,0.804,0.43
		c0.229,0.215,0.411,0.482,0.545,0.809c0.133,0.326,0.198,0.662,0.198,1.016c0,0.404-0.024,0.832-0.075,1.275
		c-0.052,0.445-0.097,0.859-0.136,1.242s-0.054,0.703-0.041,0.961s0.08,0.4,0.205,0.436c0.211,0.055,0.413-0.01,0.608-0.188
		c0.195-0.181,0.373-0.401,0.533-0.668s0.301-0.537,0.422-0.813s0.217-0.494,0.287-0.649c0.055-0.134,0.143-0.216,0.264-0.246
		c0.121-0.031,0.238-0.023,0.354,0.022c0.112,0.045,0.207,0.131,0.279,0.252c0.074,0.121,0.102,0.269,0.076,0.438
		c-0.094,0.383-0.223,0.767-0.387,1.147c-0.164,0.383-0.369,0.729-0.615,1.036c-0.246,0.31-0.541,0.561-0.885,0.75
		c-0.344,0.191-0.738,0.287-1.185,0.287c-0.298,0-0.541-0.08-0.731-0.239c-0.191-0.16-0.342-0.354-0.451-0.586
		c-0.108-0.23-0.184-0.476-0.223-0.731s-0.061-0.483-0.061-0.681c0-0.28,0.02-0.552,0.055-0.81c0.034-0.258,0.075-0.51,0.122-0.756
		c0.048-0.246,0.089-0.484,0.123-0.715s0.054-0.455,0.054-0.674c0-0.298-0.033-0.531-0.101-0.703
		c-0.066-0.172-0.162-0.259-0.287-0.259c-0.241,0-0.472,0.144-0.687,0.429s-0.41,0.651-0.586,1.102s-0.332,0.957-0.469,1.523
		c-0.138,0.565-0.244,1.131-0.322,1.692c-0.022,0.194-0.108,0.334-0.258,0.416c-0.15,0.082-0.308,0.112-0.476,0.095
		c-0.169-0.021-0.319-0.082-0.457-0.188c-0.138-0.105-0.205-0.248-0.205-0.429c0.017-0.103,0.041-0.287,0.075-0.558
		c0.035-0.271,0.066-0.575,0.095-0.92c0.027-0.345,0.043-0.7,0.048-1.071c0.004-0.371-0.021-0.714-0.07-1.025
		c-0.049-0.311-0.137-0.567-0.258-0.768c-0.121-0.201-0.291-0.3-0.511-0.3c-0.181,0-0.353,0.084-0.517,0.252
		s-0.321,0.394-0.475,0.675c-0.153,0.28-0.291,0.604-0.416,0.973s-0.236,0.755-0.334,1.16c-0.099,0.406-0.181,0.815-0.246,1.229
		c-0.066,0.414-0.111,0.806-0.135,1.172c-0.023,0.194-0.115,0.332-0.275,0.41c-0.16,0.077-0.33,0.108-0.51,0.095
		c-0.181-0.015-0.34-0.074-0.48-0.177C248.784,125.005,248.726,124.877,248.741,124.713z"/>
	<path fill="#231F20" d="M261.655,124.912c-0.478,0-0.854-0.134-1.131-0.397c-0.277-0.266-0.472-0.606-0.58-1.024
		c-0.109-0.418-0.145-0.882-0.101-1.39c0.043-0.509,0.149-1.007,0.321-1.494s0.396-0.938,0.674-1.354
		c0.278-0.415,0.598-0.729,0.955-0.948c0.359-0.22,0.752-0.313,1.179-0.28c0.427,0.03,0.868,0.246,1.33,0.645
		c0.048-0.141,0.147-0.225,0.306-0.252c0.157-0.027,0.311-0.012,0.463,0.047c0.151,0.059,0.279,0.156,0.381,0.293
		c0.103,0.137,0.121,0.303,0.06,0.498c-0.056,0.219-0.125,0.486-0.212,0.803c-0.086,0.317-0.17,0.646-0.252,0.99
		s-0.15,0.689-0.211,1.037c-0.059,0.348-0.086,0.66-0.082,0.938c0.004,0.278,0.045,0.509,0.123,0.691
		c0.078,0.184,0.215,0.283,0.41,0.299c0.234,0.017,0.455-0.063,0.662-0.24c0.207-0.176,0.391-0.396,0.551-0.661
		c0.16-0.267,0.295-0.548,0.404-0.845c0.108-0.297,0.18-0.555,0.211-0.771c0.055-0.203,0.146-0.322,0.274-0.357
		c0.13-0.033,0.255-0.021,0.375,0.041c0.12,0.063,0.22,0.158,0.293,0.287s0.085,0.252,0.028,0.369
		c-0.055,0.313-0.164,0.67-0.328,1.071s-0.373,0.784-0.627,1.147s-0.541,0.67-0.859,0.92c-0.32,0.25-0.664,0.375-1.031,0.375
		c-0.164,0-0.334-0.028-0.51-0.088c-0.178-0.059-0.346-0.149-0.504-0.274c-0.16-0.125-0.305-0.284-0.43-0.479
		c-0.125-0.193-0.215-0.435-0.27-0.715c-0.07,0.086-0.168,0.192-0.293,0.321c-0.125,0.13-0.271,0.252-0.436,0.368
		c-0.164,0.117-0.344,0.221-0.539,0.307C262.068,124.871,261.866,124.912,261.655,124.912z M261.644,123.446
		c0.25,0.022,0.471-0.034,0.661-0.176s0.36-0.33,0.511-0.567c0.147-0.238,0.271-0.507,0.375-0.804
		c0.102-0.297,0.186-0.584,0.252-0.86c0.065-0.276,0.119-0.531,0.158-0.763c0.039-0.23,0.064-0.396,0.082-0.498
		c-0.25-0.211-0.484-0.319-0.703-0.327c-0.22-0.009-0.42,0.053-0.604,0.182c-0.184,0.13-0.346,0.313-0.484,0.545
		c-0.142,0.234-0.262,0.49-0.357,0.77c-0.097,0.276-0.17,0.561-0.217,0.85s-0.068,0.556-0.064,0.797
		c0.004,0.242,0.039,0.441,0.105,0.599C261.423,123.349,261.519,123.433,261.644,123.446z"/>
	<path fill="#231F20" d="M267.562,118.735c0.155-0.155,0.314-0.243,0.479-0.265c0.164-0.02,0.311,0.009,0.436,0.082
		c0.125,0.074,0.217,0.185,0.273,0.328c0.06,0.146,0.064,0.304,0.02,0.476c-0.078,0.164-0.152,0.379-0.225,0.646
		c-0.069,0.267-0.133,0.547-0.188,0.845c-0.056,0.297-0.099,0.603-0.129,0.913c-0.031,0.313-0.045,0.599-0.041,0.855
		c0.004,0.256,0.028,0.479,0.075,0.668c0.048,0.188,0.121,0.305,0.224,0.352c0.102,0.048,0.209,0.059,0.322,0.029
		c0.111-0.028,0.232-0.11,0.361-0.252c0.13-0.142,0.27-0.353,0.416-0.634c0.148-0.28,0.307-0.659,0.47-1.137
		c0.063-0.117,0.149-0.188,0.265-0.218c0.114-0.026,0.223-0.021,0.328,0.019c0.104,0.039,0.188,0.106,0.246,0.205
		c0.058,0.099,0.066,0.213,0.027,0.347c-0.068,0.272-0.186,0.603-0.346,0.983c-0.16,0.383-0.361,0.741-0.604,1.077
		c-0.242,0.337-0.521,0.604-0.831,0.804c-0.313,0.199-0.652,0.248-1.021,0.146c-0.328-0.094-0.586-0.283-0.772-0.567
		c-0.188-0.285-0.319-0.623-0.397-1.015c-0.078-0.391-0.109-0.813-0.094-1.271c0.015-0.457,0.057-0.899,0.123-1.33
		c0.064-0.43,0.15-0.829,0.258-1.2S267.452,118.955,267.562,118.735z M267.901,117.67c-0.156-0.211-0.217-0.414-0.183-0.608
		s0.12-0.347,0.259-0.45c0.137-0.105,0.301-0.15,0.491-0.136c0.19,0.016,0.368,0.133,0.532,0.353
		c0.109,0.18,0.141,0.356,0.088,0.533c-0.051,0.176-0.141,0.314-0.27,0.422c-0.129,0.104-0.281,0.157-0.457,0.157
		S268.034,117.851,267.901,117.67z"/>
	<path fill="#231F20" d="M273.596,118.045c0.358-0.116,0.675-0.142,0.942-0.069c0.271,0.07,0.494,0.207,0.674,0.409
		c0.182,0.203,0.322,0.455,0.43,0.757c0.104,0.302,0.178,0.618,0.217,0.955c0.016,0.155,0.023,0.327,0.028,0.517
		c0.005,0.188,0,0.375-0.013,0.563c-0.012,0.188-0.026,0.367-0.047,0.539c-0.02,0.172-0.045,0.328-0.076,0.47
		c0.188-0.009,0.355-0.033,0.504-0.076c0.149-0.043,0.285-0.095,0.41-0.151c0.125-0.058,0.244-0.123,0.357-0.192
		c0.112-0.069,0.229-0.138,0.346-0.199c0.148-0.077,0.271-0.088,0.369-0.028c0.098,0.059,0.164,0.146,0.199,0.264
		c0.034,0.118,0.043,0.244,0.021,0.382c-0.02,0.137-0.071,0.243-0.157,0.321c-0.375,0.344-0.784,0.592-1.229,0.744
		c-0.445,0.151-0.898,0.229-1.359,0.229c-0.305,0.539-0.693,0.946-1.172,1.226c-0.477,0.278-0.996,0.42-1.559,0.428
		c-0.523,0.008-0.965-0.099-1.324-0.315c-0.359-0.219-0.646-0.504-0.854-0.854s-0.351-0.752-0.416-1.201
		c-0.065-0.448-0.065-0.901,0-1.358s0.198-0.901,0.397-1.336s0.455-0.812,0.769-1.131c0.313-0.32,0.683-0.563,1.106-0.731
		C272.586,118.028,273.065,117.976,273.596,118.045z M272.753,119.394c-0.25,0.056-0.479,0.192-0.689,0.416
		s-0.393,0.487-0.539,0.797c-0.148,0.31-0.254,0.644-0.316,1.002c-0.062,0.358-0.066,0.697-0.018,1.015s0.17,0.592,0.355,0.826
		c0.188,0.233,0.457,0.387,0.811,0.457c0.125,0.021,0.266,0.012,0.422-0.035s0.309-0.117,0.457-0.211
		c0.146-0.095,0.283-0.205,0.403-0.334s0.214-0.261,0.274-0.394c-0.219-0.134-0.404-0.293-0.557-0.479
		c-0.153-0.188-0.283-0.396-0.395-0.621c-0.172-0.375-0.271-0.775-0.305-1.201S272.659,119.791,272.753,119.394z M274.206,119.451
		c-0.219,0.133-0.342,0.317-0.369,0.557c-0.025,0.239-0.006,0.479,0.064,0.729c0.069,0.245,0.168,0.467,0.293,0.661
		s0.229,0.315,0.315,0.362c0.048-0.038,0.084-0.131,0.11-0.273c0.027-0.146,0.045-0.313,0.053-0.498
		c0.01-0.188,0.005-0.384-0.012-0.586c-0.016-0.203-0.043-0.384-0.082-0.539c-0.039-0.156-0.09-0.275-0.151-0.357
		C274.366,119.423,274.292,119.403,274.206,119.451z"/>
	<path fill="#231F20" d="M277.101,125.019c-0.078,0.134-0.189,0.205-0.334,0.218c-0.146,0.012-0.285-0.013-0.423-0.07
		c-0.138-0.06-0.253-0.139-0.347-0.24c-0.094-0.101-0.121-0.198-0.082-0.293c0.056-0.133,0.125-0.305,0.211-0.516
		s0.191-0.519,0.316-0.92c0.125-0.402,0.268-0.935,0.428-1.595c0.16-0.659,0.342-1.502,0.545-2.524
		c0.031-0.25,0.119-0.431,0.266-0.539c0.145-0.109,0.303-0.156,0.475-0.142c0.102,0.009,0.199,0.033,0.293,0.076
		s0.174,0.104,0.24,0.188c0.064,0.083,0.114,0.18,0.146,0.293s0.031,0.24,0,0.381c0.143,0.164,0.279,0.303,0.416,0.416
		c0.139,0.113,0.281,0.209,0.436,0.287c0.151,0.078,0.314,0.146,0.491,0.205c0.177,0.059,0.378,0.119,0.604,0.182
		c0.156,0.103,0.258,0.203,0.305,0.306s0.063,0.209,0.047,0.321c-0.016,0.113-0.051,0.234-0.104,0.363s-0.105,0.269-0.152,0.416
		c-0.021,0.086-0.051,0.211-0.082,0.375c-0.029,0.164-0.057,0.346-0.076,0.545c-0.019,0.199-0.031,0.404-0.04,0.615
		s-0.003,0.403,0.019,0.58c0.02,0.176,0.057,0.323,0.111,0.444c0.054,0.121,0.133,0.188,0.232,0.205
		c0.328,0.063,0.638-0.134,0.926-0.587c0.289-0.452,0.566-1.194,0.832-2.227c0.039-0.188,0.123-0.313,0.252-0.375
		c0.131-0.063,0.264-0.082,0.398-0.061c0.136,0.023,0.254,0.082,0.352,0.177c0.1,0.095,0.133,0.207,0.102,0.341
		c-0.047,0.288-0.117,0.607-0.211,0.961c-0.094,0.353-0.217,0.7-0.369,1.049s-0.334,0.676-0.545,0.983
		c-0.211,0.309-0.457,0.562-0.738,0.757c-0.211,0.146-0.438,0.243-0.686,0.286s-0.486,0.031-0.723-0.034
		c-0.233-0.066-0.445-0.185-0.639-0.354c-0.193-0.168-0.33-0.385-0.416-0.648c-0.18-0.539-0.254-1.093-0.223-1.658
		c0.029-0.565,0.117-1.131,0.258-1.692c-0.18-0.078-0.379-0.162-0.598-0.252c-0.221-0.091-0.406-0.192-0.563-0.312
		c-0.271,0.858-0.488,1.543-0.645,2.051c-0.157,0.508-0.281,0.901-0.375,1.185c-0.096,0.281-0.162,0.478-0.205,0.586
		C277.18,124.881,277.14,124.963,277.101,125.019z"/>
	<path fill="#231F20" d="M290.085,118.231c0.22-0.009,0.404,0.026,0.559,0.104c0.151,0.078,0.277,0.174,0.381,0.287
		c0.102,0.113,0.176,0.231,0.223,0.356s0.074,0.229,0.082,0.315c-0.021,0.845-0.098,1.681-0.223,2.509
		c-0.125,0.827-0.225,1.676-0.293,2.543c0.266,0,0.502-0.076,0.709-0.229c0.207-0.153,0.389-0.356,0.545-0.615
		c0.156-0.258,0.295-0.553,0.416-0.885s0.23-0.68,0.334-1.037c0.047-0.143,0.135-0.227,0.264-0.252
		c0.129-0.026,0.258-0.021,0.388,0.019c0.13,0.039,0.243,0.103,0.347,0.188c0.102,0.086,0.146,0.168,0.141,0.246
		c-0.031,0.391-0.1,0.775-0.205,1.154c-0.104,0.379-0.239,0.727-0.402,1.043c-0.164,0.314-0.352,0.588-0.559,0.813
		s-0.428,0.383-0.662,0.47c0.143,0.22,0.252,0.485,0.334,0.804c0.082,0.315,0.127,0.645,0.137,0.982
		c0.008,0.339-0.025,0.68-0.102,1.016s-0.189,0.639-0.352,0.907c-0.161,0.27-0.369,0.485-0.627,0.649
		c-0.259,0.164-0.566,0.246-0.927,0.246c-0.25,0-0.45-0.074-0.604-0.225c-0.153-0.147-0.275-0.328-0.369-0.539
		s-0.162-0.434-0.205-0.668c-0.043-0.232-0.071-0.439-0.088-0.621c-0.039-0.5-0.049-1.006-0.029-1.518
		c0.021-0.512,0.051-1.041,0.089-1.588c-0.163,0.156-0.336,0.297-0.517,0.422c-0.18,0.125-0.365,0.223-0.557,0.293
		c-0.192,0.07-0.386,0.104-0.58,0.1c-0.195-0.004-0.388-0.057-0.574-0.156c-0.281-0.156-0.518-0.332-0.709-0.527
		c-0.19-0.193-0.33-0.457-0.416-0.784c-0.07-0.25-0.111-0.526-0.123-0.831c-0.012-0.307,0.006-0.617,0.053-0.938
		c0.048-0.321,0.128-0.638,0.24-0.949c0.113-0.312,0.26-0.604,0.439-0.879c0.211-0.313,0.448-0.604,0.715-0.873
		c0.266-0.269,0.547-0.502,0.844-0.696s0.605-0.353,0.926-0.47C289.446,118.301,289.765,118.24,290.085,118.231z M287.507,123.799
		c0.07,0.181,0.191,0.281,0.363,0.306c0.156,0.022,0.332-0.026,0.527-0.151c0.203-0.133,0.385-0.334,0.545-0.604
		s0.299-0.567,0.416-0.896c0.094-0.267,0.174-0.537,0.239-0.814c0.065-0.276,0.121-0.541,0.164-0.791s0.071-0.475,0.089-0.674
		c0.016-0.198,0.02-0.356,0.012-0.475c-0.023,0.008-0.047,0.018-0.07,0.028c-0.021,0.011-0.047,0.019-0.069,0.019
		c-0.181,0.016-0.364,0.065-0.558,0.151c-0.191,0.086-0.377,0.201-0.557,0.347c-0.181,0.145-0.352,0.313-0.511,0.504
		c-0.159,0.19-0.3,0.399-0.416,0.627c-0.188,0.358-0.308,0.748-0.356,1.166S287.335,123.377,287.507,123.799z M290.846,128.416
		c0.116-0.108,0.209-0.289,0.274-0.539c0.066-0.25,0.101-0.512,0.101-0.785c0-0.271-0.041-0.524-0.122-0.756
		c-0.082-0.231-0.214-0.381-0.395-0.451c-0.016,0.423-0.016,0.845,0,1.268C290.721,127.573,290.769,127.994,290.846,128.416z"/>
	<path fill="#231F20" d="M293.413,118.549c0.109-0.194,0.24-0.33,0.395-0.403c0.151-0.073,0.301-0.095,0.443-0.06
		c0.146,0.035,0.27,0.121,0.369,0.258c0.102,0.138,0.152,0.318,0.152,0.546c-0.023,0.094-0.066,0.28-0.129,0.563
		c-0.063,0.28-0.132,0.604-0.205,0.973c-0.074,0.368-0.146,0.757-0.218,1.166c-0.07,0.41-0.116,0.787-0.142,1.131
		c-0.023,0.345-0.018,0.634,0.02,0.867c0.036,0.234,0.113,0.363,0.238,0.388c0.229,0.039,0.438-0.048,0.634-0.259
		c0.194-0.211,0.375-0.489,0.539-0.838c0.163-0.348,0.313-0.735,0.444-1.166c0.131-0.43,0.248-0.842,0.347-1.235
		c0.099-0.395,0.179-0.744,0.239-1.05c0.063-0.305,0.109-0.508,0.143-0.608c0.055-0.194,0.127-0.354,0.217-0.479
		s0.229-0.228,0.416-0.305c0.271-0.031,0.484,0.024,0.639,0.17s0.232,0.354,0.24,0.627c-0.063,0.306-0.133,0.629-0.211,0.974
		s-0.152,0.687-0.224,1.024c-0.07,0.339-0.13,0.668-0.177,0.983s-0.076,0.601-0.088,0.851s0,0.461,0.035,0.633
		s0.106,0.281,0.217,0.328c0.25,0.039,0.477-0.09,0.674-0.388c0.199-0.297,0.412-0.78,0.641-1.452
		c0.068-0.173,0.176-0.277,0.314-0.316c0.142-0.038,0.271-0.027,0.395,0.029s0.215,0.162,0.28,0.312
		c0.065,0.148,0.063,0.328-0.007,0.539c-0.047,0.133-0.104,0.286-0.176,0.463c-0.071,0.177-0.154,0.356-0.252,0.545
		s-0.205,0.375-0.322,0.563c-0.115,0.188-0.24,0.355-0.375,0.504c-0.193,0.234-0.414,0.4-0.654,0.498
		c-0.242,0.099-0.48,0.131-0.717,0.101c-0.233-0.03-0.456-0.129-0.668-0.293c-0.211-0.164-0.383-0.396-0.516-0.69
		c-0.141,0.203-0.283,0.391-0.428,0.563c-0.146,0.172-0.307,0.318-0.48,0.443s-0.371,0.219-0.586,0.274
		c-0.215,0.059-0.467,0.08-0.756,0.063c-0.281-0.016-0.514-0.094-0.697-0.233c-0.183-0.141-0.325-0.319-0.428-0.539
		c-0.102-0.22-0.172-0.459-0.211-0.722c-0.039-0.262-0.06-0.523-0.06-0.791c0-0.266,0.011-0.518,0.028-0.756
		c0.021-0.238,0.037-0.438,0.054-0.604c0.022-0.211,0.062-0.457,0.11-0.738s0.105-0.568,0.164-0.861
		c0.06-0.293,0.119-0.578,0.183-0.854C293.322,119.008,293.374,118.76,293.413,118.549z"/>
	<path fill="#231F20" d="M302.999,119.498c-0.016,0.392-0.086,0.783-0.211,1.178c-0.125,0.396-0.309,0.75-0.551,1.066
		c-0.242,0.315-0.537,0.569-0.885,0.762c-0.35,0.192-0.744,0.271-1.189,0.24c0.008,0.241,0.035,0.478,0.082,0.703
		c0.047,0.225,0.123,0.42,0.229,0.579c0.104,0.16,0.247,0.272,0.428,0.341c0.18,0.067,0.406,0.057,0.68-0.029
		c0.273-0.078,0.535-0.207,0.785-0.387c0.25-0.181,0.475-0.388,0.674-0.621s0.367-0.481,0.504-0.744
		c0.139-0.262,0.236-0.519,0.3-0.769c0.03-0.133,0.104-0.215,0.224-0.246c0.118-0.03,0.24-0.026,0.369,0.013
		s0.236,0.106,0.327,0.205s0.118,0.209,0.089,0.334c-0.173,0.453-0.343,0.854-0.512,1.207c-0.168,0.353-0.354,0.662-0.557,0.933
		s-0.432,0.497-0.686,0.687c-0.255,0.188-0.555,0.344-0.896,0.469c-0.461,0.164-0.887,0.236-1.277,0.217
		c-0.39-0.019-0.729-0.123-1.02-0.311c-0.29-0.188-0.519-0.453-0.687-0.797c-0.168-0.345-0.265-0.763-0.286-1.255
		c-0.018-0.233-0.021-0.519-0.02-0.851s0.025-0.68,0.064-1.043c0.039-0.362,0.102-0.731,0.188-1.106s0.203-0.726,0.354-1.049
		c0.147-0.324,0.334-0.608,0.557-0.854s0.494-0.424,0.813-0.533c0.267-0.094,0.526-0.129,0.784-0.104
		c0.26,0.023,0.486,0.104,0.688,0.246c0.2,0.142,0.355,0.338,0.475,0.592C302.954,118.822,303.007,119.131,302.999,119.498z
		 M301.522,119.192c-0.109-0.069-0.218-0.075-0.322-0.019c-0.104,0.06-0.205,0.156-0.299,0.293c-0.095,0.138-0.176,0.3-0.246,0.486
		s-0.129,0.381-0.176,0.58c-0.047,0.198-0.082,0.389-0.105,0.567c-0.021,0.18-0.026,0.323-0.012,0.435
		c0.358-0.07,0.645-0.22,0.854-0.445c0.211-0.226,0.357-0.469,0.439-0.727c0.082-0.259,0.108-0.5,0.082-0.728
		C301.711,119.41,301.64,119.265,301.522,119.192z"/>
	<path fill="#231F20" d="M304.651,115.688c0.203,0.125,0.379,0.289,0.526,0.491c0.147,0.203,0.261,0.436,0.334,0.691
		c0.073,0.257,0.104,0.531,0.089,0.819c-0.018,0.289-0.086,0.582-0.211,0.88c-0.063,0.155-0.176,0.266-0.335,0.327
		c-0.159,0.063-0.313,0.078-0.464,0.048c-0.147-0.031-0.268-0.107-0.355-0.229s-0.092-0.286-0.006-0.498
		c0.133-0.326,0.164-0.605,0.094-0.838s-0.203-0.432-0.398-0.604c-0.125-0.108-0.184-0.243-0.176-0.403s0.054-0.306,0.135-0.435
		c0.082-0.129,0.193-0.226,0.335-0.287C304.359,115.59,304.503,115.604,304.651,115.688z M306.515,115.433
		c0.202,0.125,0.379,0.289,0.525,0.491c0.148,0.203,0.261,0.435,0.334,0.691c0.074,0.257,0.104,0.53,0.088,0.819
		c-0.016,0.288-0.086,0.582-0.211,0.879c-0.063,0.155-0.174,0.267-0.334,0.328c-0.159,0.063-0.313,0.077-0.463,0.047
		c-0.147-0.03-0.268-0.106-0.355-0.229c-0.089-0.123-0.094-0.287-0.007-0.498c0.134-0.328,0.163-0.606,0.095-0.838
		c-0.07-0.229-0.203-0.433-0.398-0.604c-0.125-0.108-0.184-0.244-0.176-0.403c0.008-0.16,0.053-0.306,0.135-0.435
		s0.193-0.226,0.334-0.287C306.222,115.333,306.366,115.347,306.515,115.433z"/>
	<path fill="#231F20" d="M258.997,138.498c-0.016,0.392-0.086,0.783-0.211,1.178c-0.125,0.396-0.309,0.75-0.551,1.066
		c-0.242,0.314-0.537,0.569-0.885,0.762c-0.35,0.192-0.744,0.271-1.189,0.24c0.008,0.241,0.035,0.478,0.082,0.702
		c0.047,0.227,0.123,0.421,0.229,0.58c0.105,0.16,0.248,0.272,0.429,0.341c0.18,0.067,0.406,0.057,0.68-0.029
		c0.273-0.078,0.535-0.207,0.785-0.387c0.25-0.181,0.475-0.388,0.674-0.621s0.367-0.481,0.504-0.744
		c0.139-0.262,0.236-0.519,0.3-0.769c0.03-0.133,0.104-0.215,0.224-0.246c0.118-0.03,0.239-0.026,0.369,0.013
		c0.129,0.039,0.236,0.106,0.327,0.205s0.118,0.209,0.089,0.334c-0.173,0.453-0.344,0.854-0.512,1.207s-0.354,0.662-0.557,0.933
		s-0.432,0.497-0.687,0.687c-0.254,0.188-0.554,0.344-0.896,0.469c-0.461,0.164-0.887,0.236-1.277,0.217
		c-0.39-0.02-0.729-0.123-1.02-0.311c-0.29-0.188-0.519-0.453-0.688-0.798c-0.168-0.344-0.264-0.762-0.286-1.254
		c-0.017-0.233-0.021-0.519-0.019-0.851s0.025-0.68,0.064-1.043c0.039-0.362,0.102-0.731,0.188-1.106s0.203-0.726,0.354-1.049
		c0.147-0.324,0.334-0.608,0.557-0.854s0.494-0.424,0.813-0.533c0.267-0.094,0.526-0.129,0.784-0.104
		c0.259,0.023,0.486,0.104,0.688,0.246c0.2,0.142,0.355,0.338,0.475,0.592S259.005,138.131,258.997,138.498z M257.521,138.192
		c-0.109-0.069-0.218-0.075-0.322-0.019c-0.104,0.06-0.205,0.156-0.299,0.293c-0.095,0.138-0.176,0.3-0.246,0.486
		s-0.129,0.381-0.176,0.58c-0.048,0.198-0.082,0.389-0.105,0.567c-0.021,0.179-0.026,0.323-0.012,0.435
		c0.358-0.07,0.645-0.22,0.854-0.445c0.211-0.227,0.357-0.469,0.439-0.727c0.082-0.259,0.108-0.5,0.082-0.729
		C257.71,138.41,257.637,138.265,257.521,138.192z"/>
	<path fill="#231F20" d="M259.278,137.679c0.008-0.212,0.082-0.365,0.223-0.464c0.143-0.098,0.291-0.141,0.451-0.129
		c0.16,0.013,0.299,0.076,0.416,0.192c0.117,0.117,0.16,0.285,0.129,0.505c-0.016,0.094-0.021,0.223-0.018,0.387
		s0.018,0.351,0.041,0.558c0.021,0.207,0.061,0.425,0.109,0.649c0.051,0.226,0.119,0.444,0.205,0.656
		c0.095,0.241,0.209,0.465,0.347,0.668c0.138,0.202,0.3,0.362,0.485,0.479l2.402-3.973c0.125-0.188,0.273-0.283,0.451-0.287
		c0.176-0.004,0.329,0.053,0.463,0.17c0.133,0.117,0.219,0.273,0.258,0.47c0.039,0.195-0.017,0.396-0.164,0.599l-2.461,3.809
		c0.297,0.259,0.594,0.438,0.891,0.533c0.298,0.097,0.582,0.119,0.855,0.063c0.358-0.063,0.684-0.246,0.973-0.552
		c0.289-0.305,0.521-0.727,0.691-1.266c0.016-0.125,0.075-0.207,0.182-0.246s0.217-0.039,0.334,0s0.224,0.115,0.316,0.229
		c0.093,0.113,0.141,0.265,0.141,0.45c-0.233,0.703-0.549,1.27-0.942,1.693c-0.395,0.425-0.839,0.705-1.329,0.838
		c-0.423,0.117-0.863,0.129-1.324,0.035s-0.935-0.306-1.418-0.633l-0.715,1.241c-0.117,0.194-0.271,0.3-0.464,0.312
		c-0.191,0.012-0.368-0.029-0.532-0.123s-0.285-0.219-0.363-0.375s-0.063-0.301,0.047-0.435l0.938-1.44
		c-0.32-0.297-0.58-0.606-0.779-0.932s-0.357-0.654-0.476-0.99c-0.181-0.508-0.288-0.998-0.327-1.472
		C259.275,138.427,259.262,138.021,259.278,137.679z"/>
	<path fill="#231F20" d="M267.259,142.317c-0.163-0.228-0.217-0.442-0.156-0.649c0.059-0.207,0.17-0.367,0.334-0.479
		s0.346-0.159,0.545-0.142c0.198,0.019,0.354,0.144,0.463,0.369c0.117,0.188,0.147,0.377,0.094,0.567s-0.151,0.347-0.293,0.463
		c-0.141,0.117-0.305,0.175-0.492,0.171C267.565,142.612,267.399,142.515,267.259,142.317z M267.435,138.769
		c-0.134-0.134-0.214-0.269-0.24-0.403c-0.027-0.138-0.017-0.267,0.035-0.388c0.051-0.121,0.129-0.226,0.232-0.312
		c0.105-0.086,0.227-0.142,0.357-0.164s0.27-0.01,0.41,0.041c0.14,0.051,0.27,0.153,0.387,0.312c0.094,0.164,0.109,0.33,0.047,0.498
		c-0.062,0.168-0.162,0.306-0.299,0.41s-0.293,0.166-0.469,0.183C267.719,138.961,267.567,138.899,267.435,138.769z"/>
	<path fill="#231F20" d="M272.649,134.562c0.039-0.258,0.131-0.438,0.273-0.539c0.146-0.102,0.298-0.149,0.457-0.146
		c0.16,0.004,0.307,0.058,0.436,0.158s0.191,0.227,0.191,0.375c0.009,0.117,0.016,0.317,0.02,0.604s0.006,0.628,0.006,1.025
		s0.002,0.834,0.006,1.307c0.004,0.474,0.006,0.957,0.006,1.453s0,0.984,0,1.465c0,0.481,0.002,0.927,0.006,1.337
		c0.005,0.409,0.012,0.769,0.02,1.071c0.008,0.306,0.016,0.527,0.021,0.668c0.01,0.211-0.053,0.383-0.182,0.517
		s-0.274,0.213-0.438,0.239c-0.163,0.027-0.321-0.008-0.476-0.104c-0.154-0.097-0.252-0.271-0.299-0.521
		c-0.017-0.056-0.027-0.207-0.035-0.457s-0.014-0.563-0.018-0.942c-0.005-0.379-0.009-0.805-0.014-1.277
		c-0.004-0.473-0.006-0.961-0.006-1.465s0-1.008,0-1.512s0.002-0.972,0.006-1.4c0.005-0.43,0.009-0.807,0.014-1.131
		C272.647,134.962,272.649,134.717,272.649,134.562z"/>
	<path fill="#231F20" d="M277.454,135.592c-0.156,0.048-0.301,0.119-0.434,0.218c-0.134,0.099-0.261,0.207-0.382,0.328
		c-0.12,0.12-0.235,0.254-0.347,0.397c-0.108,0.144-0.215,0.286-0.314,0.428c-0.125,0.164-0.277,0.256-0.457,0.274
		c-0.182,0.02-0.348-0.008-0.498-0.082c-0.152-0.073-0.271-0.183-0.354-0.321s-0.092-0.281-0.027-0.422
		c0.068-0.22,0.211-0.463,0.422-0.731c0.211-0.27,0.455-0.524,0.73-0.769c0.277-0.243,0.568-0.451,0.873-0.627
		c0.306-0.177,0.582-0.283,0.832-0.322c0.336-0.055,0.66-0.039,0.974,0.047c0.313,0.087,0.593,0.229,0.839,0.436
		c0.246,0.202,0.443,0.457,0.598,0.762s0.229,0.647,0.229,1.031c0,0.344-0.062,0.704-0.183,1.084
		c-0.121,0.379-0.278,0.764-0.475,1.153s-0.418,0.778-0.668,1.166s-0.504,0.756-0.764,1.106c-0.258,0.351-0.508,0.678-0.75,0.979
		c-0.24,0.301-0.447,0.561-0.62,0.777l2.918-0.094c0.194,0,0.349,0.064,0.457,0.197c0.108,0.135,0.168,0.287,0.177,0.465
		c0.008,0.176-0.039,0.346-0.143,0.51c-0.102,0.164-0.262,0.271-0.479,0.328c-0.758,0.029-1.531,0.057-2.32,0.075
		c-0.789,0.02-1.516,0.041-2.18,0.063c-0.156,0.016-0.277-0.027-0.363-0.129s-0.143-0.23-0.17-0.387
		c-0.027-0.157-0.021-0.324,0.019-0.504c0.038-0.18,0.104-0.34,0.198-0.48c0.104-0.156,0.215-0.303,0.34-0.438
		s0.234-0.265,0.328-0.382c0.134-0.164,0.293-0.363,0.48-0.604c0.187-0.238,0.389-0.5,0.604-0.785
		c0.216-0.285,0.432-0.58,0.646-0.885s0.416-0.604,0.604-0.896c0.188-0.291,0.354-0.573,0.492-0.844
		c0.141-0.27,0.242-0.506,0.305-0.709c0.063-0.203,0.082-0.404,0.061-0.604c-0.023-0.2-0.086-0.369-0.188-0.51
		c-0.102-0.143-0.234-0.244-0.402-0.313S277.688,135.521,277.454,135.592z"/>
	<path fill="#231F20" d="M284.416,138.017c-0.146-0.071-0.224-0.199-0.231-0.383c-0.01-0.182,0.026-0.354,0.108-0.52
		s0.198-0.293,0.35-0.389c0.149-0.098,0.312-0.1,0.484-0.01l2.666,1.709c0.128,0.074,0.245,0.173,0.35,0.296
		c0.104,0.123,0.173,0.265,0.204,0.425c0.033,0.157,0.022,0.321-0.026,0.491c-0.05,0.168-0.166,0.334-0.35,0.497l-2.323,2.324
		c-0.146,0.136-0.3,0.173-0.458,0.107c-0.159-0.063-0.294-0.174-0.403-0.334c-0.108-0.159-0.176-0.332-0.197-0.52
		s0.025-0.336,0.145-0.445l1.858-1.816L284.416,138.017z"/>
	<path fill="#231F20" d="M294.196,134.149c0.156-0.155,0.324-0.233,0.504-0.233s0.334,0.047,0.463,0.142s0.213,0.22,0.252,0.375
		s-0.004,0.313-0.129,0.47c-0.195,0.241-0.393,0.526-0.592,0.854c-0.199,0.328-0.379,0.666-0.539,1.015s-0.295,0.688-0.404,1.024
		c-0.107,0.336-0.168,0.634-0.176,0.892c0.148-0.125,0.295-0.226,0.439-0.299c0.144-0.074,0.295-0.123,0.449-0.146
		c0.445-0.063,0.846-0.033,1.195,0.088c0.352,0.121,0.652,0.305,0.902,0.551s0.446,0.535,0.592,0.867s0.234,0.682,0.27,1.049
		c0.036,0.367,0.016,0.732-0.063,1.097c-0.078,0.363-0.217,0.694-0.416,0.995c-0.199,0.302-0.459,0.556-0.779,0.763
		c-0.318,0.207-0.707,0.338-1.16,0.394c-0.438,0.056-0.82-0.012-1.152-0.199c-0.332-0.187-0.615-0.438-0.852-0.756
		c-0.233-0.317-0.418-0.672-0.551-1.065c-0.133-0.395-0.219-0.774-0.258-1.144c-0.063-0.555-0.06-1.151,0.012-1.793
		s0.195-1.269,0.375-1.881c0.181-0.613,0.406-1.188,0.681-1.724C293.533,134.946,293.844,134.502,294.196,134.149z M294.524,139.576
		c-0.229,0.055-0.404,0.176-0.533,0.362c-0.129,0.188-0.217,0.403-0.264,0.649c-0.048,0.246-0.057,0.504-0.023,0.773
		c0.032,0.269,0.101,0.514,0.205,0.73c0.104,0.218,0.244,0.396,0.416,0.533c0.172,0.138,0.371,0.192,0.598,0.17
		c0.307-0.022,0.559-0.133,0.757-0.328c0.198-0.194,0.345-0.428,0.435-0.696c0.09-0.27,0.125-0.554,0.104-0.851
		c-0.02-0.297-0.094-0.562-0.223-0.791s-0.315-0.403-0.563-0.521C295.184,139.49,294.884,139.481,294.524,139.576z"/>
</g>
<g>
	<path fill="#231F20" d="M141.68,118.89c-0.202-0.125-0.379-0.289-0.526-0.492c-0.148-0.202-0.26-0.435-0.334-0.69
		s-0.104-0.531-0.088-0.82c0.016-0.289,0.086-0.582,0.211-0.879c0.063-0.155,0.174-0.266,0.334-0.328
		c0.16-0.062,0.313-0.077,0.463-0.047c0.149,0.031,0.266,0.107,0.352,0.229c0.087,0.123,0.092,0.287,0.014,0.498
		c-0.134,0.328-0.164,0.606-0.095,0.838c0.069,0.23,0.202,0.433,0.397,0.604c0.125,0.109,0.184,0.244,0.176,0.404
		s-0.053,0.305-0.135,0.436c-0.082,0.129-0.193,0.225-0.334,0.285C141.974,118.988,141.829,118.976,141.68,118.89z M143.544,118.631
		c-0.203-0.125-0.379-0.289-0.525-0.491c-0.148-0.203-0.262-0.435-0.334-0.69c-0.074-0.259-0.104-0.531-0.089-0.82
		c0.017-0.289,0.087-0.582,0.212-0.879c0.063-0.156,0.174-0.267,0.334-0.328c0.158-0.063,0.313-0.078,0.463-0.047
		c0.147,0.031,0.266,0.106,0.352,0.229s0.09,0.287,0.012,0.498c-0.133,0.327-0.163,0.606-0.094,0.838
		c0.07,0.23,0.203,0.433,0.398,0.604c0.125,0.108,0.184,0.244,0.176,0.403s-0.053,0.306-0.135,0.435s-0.193,0.227-0.334,0.287
		C143.837,118.729,143.692,118.717,143.544,118.631z"/>
	<path fill="#231F20" d="M145.407,118.735c0.156-0.155,0.315-0.243,0.479-0.265c0.163-0.02,0.31,0.009,0.435,0.082
		c0.125,0.074,0.217,0.185,0.274,0.328c0.059,0.146,0.063,0.304,0.019,0.476c-0.078,0.164-0.152,0.379-0.223,0.646
		c-0.071,0.267-0.135,0.547-0.188,0.845c-0.055,0.297-0.098,0.603-0.129,0.913c-0.031,0.313-0.045,0.599-0.041,0.855
		c0.004,0.256,0.029,0.479,0.076,0.668c0.047,0.188,0.121,0.305,0.223,0.352c0.104,0.048,0.209,0.059,0.322,0.029
		s0.233-0.11,0.363-0.252c0.129-0.142,0.268-0.353,0.416-0.634c0.146-0.28,0.305-0.659,0.469-1.137
		c0.063-0.117,0.149-0.188,0.264-0.218c0.114-0.026,0.225-0.021,0.328,0.019c0.105,0.039,0.188,0.106,0.246,0.205
		s0.068,0.213,0.029,0.347c-0.07,0.272-0.188,0.603-0.348,0.983c-0.159,0.383-0.359,0.741-0.604,1.077
		c-0.244,0.337-0.521,0.604-0.832,0.804c-0.313,0.199-0.652,0.248-1.021,0.146c-0.327-0.094-0.586-0.283-0.771-0.567
		c-0.188-0.285-0.32-0.623-0.398-1.015c-0.077-0.391-0.107-0.813-0.094-1.271c0.016-0.457,0.058-0.899,0.123-1.33
		c0.066-0.43,0.152-0.829,0.258-1.2C145.189,119.25,145.298,118.955,145.407,118.735z M145.747,117.67
		c-0.156-0.211-0.217-0.414-0.182-0.608s0.121-0.347,0.258-0.45c0.137-0.105,0.301-0.15,0.492-0.136
		c0.189,0.016,0.369,0.133,0.532,0.353c0.108,0.18,0.14,0.356,0.089,0.533c-0.053,0.176-0.143,0.314-0.271,0.422
		c-0.129,0.104-0.281,0.157-0.457,0.157S145.88,117.851,145.747,117.67z"/>
	<path fill="#231F20" d="M151.512,118.549c0.03-0.102,0.108-0.187,0.233-0.252s0.256-0.086,0.394-0.06s0.261,0.113,0.368,0.259
		c0.109,0.146,0.164,0.369,0.164,0.674c-0.008,0.117-0.021,0.317-0.041,0.604c-0.02,0.285-0.041,0.604-0.063,0.961
		c-0.023,0.354-0.049,0.729-0.076,1.119c-0.027,0.39-0.053,0.743-0.076,1.061c-0.021,0.316-0.043,0.578-0.059,0.785
		c-0.018,0.207-0.021,0.311-0.013,0.311c0.086-0.031,0.192-0.082,0.321-0.152c0.129-0.068,0.273-0.186,0.436-0.346
		c0.161-0.16,0.334-0.369,0.521-0.627c0.188-0.258,0.383-0.59,0.586-0.996c0.07-0.094,0.166-0.135,0.287-0.123
		c0.121,0.013,0.234,0.057,0.34,0.129c0.106,0.074,0.188,0.175,0.24,0.3s0.055,0.255,0,0.388c-0.328,0.703-0.725,1.278-1.188,1.729
		c-0.465,0.449-0.979,0.821-1.541,1.119c0.009,0.297-0.007,0.64-0.041,1.024c-0.034,0.386-0.095,0.782-0.177,1.188
		c-0.082,0.405-0.188,0.801-0.321,1.185c-0.134,0.383-0.3,0.717-0.497,1.002c-0.199,0.285-0.434,0.504-0.697,0.655
		c-0.266,0.151-0.57,0.197-0.914,0.136c-0.398-0.07-0.699-0.236-0.902-0.498c-0.203-0.263-0.323-0.578-0.361-0.949
		c-0.039-0.37,0-0.771,0.115-1.207c0.117-0.434,0.298-0.854,0.539-1.26c0.242-0.406,0.535-0.776,0.879-1.113
		c0.346-0.336,0.73-0.598,1.16-0.784v-0.28c-0.193,0.155-0.422,0.289-0.68,0.396c-0.258,0.109-0.521,0.177-0.791,0.199
		c-0.271,0.022-0.529-0.004-0.779-0.082s-0.461-0.228-0.633-0.444c-0.289-0.367-0.477-0.828-0.563-1.384
		c-0.086-0.555-0.081-1.116,0.013-1.688c0.086-0.53,0.252-1.011,0.498-1.437s0.543-0.777,0.891-1.055
		c0.349-0.278,0.73-0.463,1.148-0.557C150.648,118.385,151.075,118.408,151.512,118.549z M149.485,123.774
		c0.242,0.022,0.453-0.03,0.633-0.164c0.18-0.133,0.332-0.315,0.457-0.551c0.125-0.234,0.229-0.503,0.312-0.804
		c0.081-0.301,0.146-0.606,0.188-0.92s0.07-0.613,0.082-0.901c0.012-0.289,0.014-0.543,0.006-0.763
		c-0.539,0.063-0.992,0.275-1.358,0.64c-0.366,0.363-0.604,0.825-0.716,1.39c-0.016,0.094-0.032,0.25-0.053,0.469
		c-0.02,0.22-0.02,0.445,0,0.681c0.021,0.234,0.063,0.442,0.129,0.627C149.23,123.661,149.337,123.76,149.485,123.774z
		 M149.884,129.377c0.135,0.022,0.26-0.026,0.375-0.151c0.117-0.125,0.227-0.291,0.322-0.498c0.098-0.207,0.186-0.44,0.258-0.703
		c0.074-0.262,0.139-0.519,0.188-0.769s0.09-0.481,0.117-0.696c0.025-0.216,0.045-0.381,0.053-0.498
		c-0.164,0.086-0.328,0.228-0.492,0.422c-0.164,0.195-0.315,0.414-0.457,0.656c-0.141,0.241-0.264,0.489-0.369,0.743
		c-0.104,0.255-0.178,0.488-0.217,0.703s-0.045,0.396-0.018,0.545C149.671,129.28,149.751,129.36,149.884,129.377z"/>
	<path fill="#231F20" d="M154.735,118.549c0.108-0.194,0.24-0.33,0.393-0.403c0.153-0.073,0.302-0.095,0.445-0.06
		c0.143,0.035,0.268,0.121,0.369,0.258c0.101,0.138,0.151,0.318,0.151,0.546c-0.022,0.094-0.065,0.28-0.13,0.563
		c-0.063,0.28-0.131,0.604-0.204,0.973s-0.146,0.757-0.218,1.166c-0.07,0.41-0.117,0.787-0.141,1.131
		c-0.024,0.345-0.02,0.634,0.018,0.867c0.037,0.234,0.115,0.363,0.24,0.388c0.228,0.039,0.438-0.048,0.633-0.259
		s0.375-0.489,0.539-0.838c0.164-0.348,0.313-0.735,0.445-1.166c0.132-0.43,0.248-0.842,0.346-1.235
		c0.099-0.395,0.178-0.744,0.24-1.05c0.062-0.305,0.108-0.508,0.141-0.608c0.057-0.194,0.127-0.354,0.218-0.479
		s0.229-0.228,0.416-0.305c0.272-0.031,0.485,0.024,0.64,0.17c0.153,0.146,0.23,0.354,0.24,0.627
		c-0.063,0.306-0.135,0.629-0.212,0.974s-0.151,0.687-0.224,1.024c-0.07,0.339-0.129,0.668-0.176,0.983s-0.076,0.601-0.088,0.851
		s0,0.461,0.035,0.633c0.034,0.172,0.105,0.281,0.217,0.328c0.25,0.039,0.475-0.09,0.674-0.388c0.199-0.297,0.412-0.78,0.639-1.452
		c0.07-0.173,0.178-0.277,0.316-0.316c0.14-0.038,0.271-0.027,0.394,0.029c0.121,0.058,0.216,0.162,0.28,0.312
		c0.066,0.148,0.064,0.328-0.006,0.539c-0.047,0.133-0.104,0.286-0.176,0.463s-0.154,0.356-0.252,0.545
		c-0.099,0.188-0.205,0.375-0.322,0.563s-0.242,0.355-0.375,0.504c-0.195,0.234-0.414,0.4-0.656,0.498
		c-0.241,0.099-0.479,0.131-0.715,0.101c-0.234-0.03-0.457-0.129-0.668-0.293s-0.383-0.396-0.516-0.69
		c-0.143,0.203-0.283,0.391-0.429,0.563c-0.146,0.172-0.306,0.318-0.479,0.443s-0.371,0.219-0.586,0.274
		c-0.215,0.059-0.467,0.08-0.756,0.063c-0.281-0.016-0.516-0.094-0.697-0.233c-0.183-0.141-0.326-0.319-0.428-0.539
		c-0.104-0.22-0.172-0.459-0.211-0.722c-0.039-0.262-0.061-0.523-0.061-0.791c0-0.266,0.011-0.518,0.029-0.756
		c0.018-0.238,0.037-0.438,0.053-0.604c0.023-0.211,0.063-0.457,0.111-0.738s0.104-0.568,0.164-0.861
		c0.059-0.293,0.119-0.578,0.182-0.854C154.644,119.008,154.696,118.76,154.735,118.549z"/>
	<path fill="#231F20" d="M162.142,124.912c-0.479,0-0.854-0.134-1.132-0.397c-0.276-0.266-0.472-0.606-0.58-1.024
		s-0.144-0.882-0.101-1.39c0.043-0.509,0.15-1.007,0.322-1.494s0.396-0.938,0.674-1.354s0.596-0.729,0.955-0.948
		c0.358-0.22,0.752-0.313,1.178-0.28c0.427,0.03,0.869,0.246,1.33,0.645c0.047-0.141,0.148-0.225,0.306-0.252
		c0.156-0.027,0.312-0.012,0.464,0.047c0.15,0.059,0.277,0.156,0.381,0.293c0.102,0.137,0.121,0.303,0.059,0.498
		c-0.055,0.219-0.125,0.486-0.211,0.803c-0.086,0.317-0.17,0.646-0.252,0.99s-0.152,0.689-0.211,1.037
		c-0.06,0.348-0.086,0.66-0.082,0.938c0.004,0.278,0.045,0.509,0.123,0.691c0.078,0.184,0.215,0.283,0.41,0.299
		c0.232,0.017,0.455-0.063,0.662-0.24c0.207-0.176,0.391-0.396,0.551-0.661c0.16-0.267,0.295-0.548,0.404-0.845
		c0.107-0.297,0.18-0.555,0.211-0.771c0.055-0.203,0.146-0.322,0.273-0.357c0.129-0.033,0.254-0.021,0.375,0.041
		c0.121,0.063,0.22,0.158,0.293,0.287c0.074,0.129,0.084,0.252,0.029,0.369c-0.055,0.313-0.164,0.67-0.328,1.071
		s-0.373,0.784-0.627,1.147s-0.541,0.67-0.861,0.92c-0.318,0.25-0.663,0.375-1.029,0.375c-0.164,0-0.334-0.028-0.512-0.088
		c-0.176-0.059-0.344-0.149-0.504-0.274c-0.159-0.125-0.303-0.284-0.428-0.479c-0.125-0.193-0.215-0.435-0.27-0.715
		c-0.07,0.086-0.169,0.192-0.294,0.321c-0.125,0.13-0.271,0.252-0.435,0.368c-0.164,0.117-0.344,0.221-0.539,0.307
		C162.554,124.871,162.353,124.912,162.142,124.912z M162.13,123.446c0.25,0.022,0.473-0.034,0.662-0.176
		c0.191-0.142,0.361-0.33,0.511-0.567c0.148-0.238,0.272-0.507,0.375-0.804s0.187-0.584,0.252-0.86s0.118-0.531,0.157-0.763
		c0.039-0.23,0.066-0.396,0.082-0.498c-0.25-0.211-0.482-0.319-0.703-0.327c-0.219-0.009-0.42,0.053-0.604,0.182
		c-0.185,0.13-0.346,0.313-0.486,0.545c-0.14,0.234-0.26,0.49-0.355,0.77c-0.099,0.276-0.17,0.561-0.218,0.85
		s-0.067,0.556-0.063,0.797c0.004,0.242,0.039,0.441,0.104,0.599C161.909,123.349,162.005,123.433,162.13,123.446z"/>
	<path fill="#231F20" d="M170.907,114.963c0.313,0.078,0.527,0.269,0.646,0.568c0.117,0.3,0.159,0.672,0.129,1.112
		s-0.129,0.933-0.293,1.472c-0.163,0.538-0.377,1.092-0.64,1.657c-0.262,0.565-0.561,1.125-0.896,1.677
		c-0.335,0.551-0.688,1.057-1.057,1.518c0.063,0.289,0.16,0.498,0.293,0.627c0.135,0.13,0.287,0.199,0.464,0.212
		c0.177,0.012,0.36-0.024,0.558-0.11c0.197-0.087,0.391-0.207,0.586-0.363c0.25-0.203,0.481-0.438,0.697-0.709
		c0.215-0.271,0.381-0.537,0.498-0.803c0.021-0.087,0.096-0.146,0.217-0.177s0.248-0.032,0.381-0.006s0.25,0.086,0.352,0.176
		c0.104,0.091,0.146,0.214,0.13,0.369c-0.173,0.422-0.382,0.808-0.627,1.153c-0.245,0.347-0.519,0.646-0.813,0.896
		c-0.461,0.398-0.93,0.66-1.406,0.785c-0.469,0.125-0.883,0.121-1.242-0.012c-0.357-0.133-0.658-0.355-0.9-0.668
		s-0.427-0.697-0.552-1.154s-0.188-0.951-0.188-1.48c0-0.32,0.01-0.658,0.029-1.016c0.019-0.354,0.053-0.715,0.1-1.078
		c0.047-0.361,0.105-0.725,0.176-1.084c0.071-0.357,0.16-0.706,0.271-1.043c0.133-0.422,0.293-0.811,0.479-1.166
		c0.188-0.354,0.408-0.648,0.662-0.885c0.254-0.233,0.543-0.396,0.867-0.485C170.149,114.854,170.509,114.86,170.907,114.963z
		 M170.146,116.312c-0.095-0.009-0.191,0.043-0.293,0.151c-0.104,0.108-0.201,0.259-0.3,0.445s-0.192,0.407-0.286,0.661
		c-0.096,0.255-0.182,0.519-0.26,0.791c-0.086,0.281-0.161,0.565-0.229,0.854c-0.068,0.289-0.125,0.56-0.176,0.81
		c-0.052,0.25-0.091,0.476-0.117,0.675c-0.027,0.198-0.041,0.35-0.041,0.45c0.108-0.147,0.225-0.323,0.346-0.526
		s0.242-0.42,0.363-0.649s0.238-0.472,0.352-0.722c0.114-0.25,0.219-0.496,0.313-0.737c0.117-0.289,0.217-0.563,0.299-0.826
		s0.141-0.491,0.176-0.69s0.043-0.361,0.023-0.486C170.296,116.386,170.239,116.317,170.146,116.312z"/>
	<path fill="#231F20" d="M172.759,115.688c0.203,0.125,0.38,0.289,0.527,0.491c0.148,0.203,0.26,0.436,0.334,0.691
		s0.104,0.531,0.088,0.819c-0.016,0.289-0.086,0.582-0.211,0.88c-0.063,0.155-0.174,0.266-0.334,0.327
		c-0.16,0.063-0.313,0.078-0.463,0.048c-0.15-0.031-0.269-0.107-0.357-0.229s-0.092-0.286-0.006-0.498
		c0.134-0.326,0.164-0.605,0.096-0.838c-0.07-0.23-0.203-0.432-0.398-0.604c-0.125-0.108-0.184-0.243-0.176-0.403
		s0.053-0.306,0.135-0.435s0.193-0.226,0.334-0.287C172.467,115.59,172.61,115.604,172.759,115.688z M174.622,115.433
		c0.203,0.125,0.379,0.289,0.527,0.491c0.146,0.203,0.26,0.435,0.334,0.691c0.073,0.256,0.104,0.53,0.088,0.819
		c-0.017,0.288-0.086,0.582-0.211,0.879c-0.063,0.155-0.174,0.267-0.334,0.328c-0.16,0.063-0.314,0.077-0.463,0.047
		c-0.149-0.03-0.27-0.106-0.357-0.229s-0.092-0.287-0.006-0.498c0.133-0.328,0.164-0.606,0.094-0.838
		c-0.068-0.229-0.203-0.433-0.396-0.604c-0.125-0.108-0.186-0.244-0.177-0.403c0.009-0.16,0.054-0.306,0.136-0.435
		s0.191-0.226,0.334-0.287C174.33,115.333,174.474,115.347,174.622,115.433z"/>
	<path fill="#231F20" d="M141.053,138.498c-0.017,0.392-0.087,0.783-0.212,1.178c-0.125,0.396-0.309,0.75-0.551,1.066
		c-0.242,0.314-0.537,0.569-0.885,0.762c-0.348,0.193-0.744,0.271-1.188,0.24c0.009,0.241,0.034,0.478,0.081,0.702
		c0.048,0.227,0.123,0.421,0.229,0.58c0.105,0.16,0.248,0.272,0.428,0.341c0.181,0.067,0.406,0.057,0.681-0.029
		c0.272-0.078,0.534-0.207,0.784-0.387c0.25-0.181,0.477-0.388,0.675-0.621s0.366-0.481,0.505-0.744
		c0.137-0.262,0.234-0.519,0.299-0.769c0.03-0.133,0.104-0.215,0.223-0.246c0.118-0.03,0.24-0.026,0.369,0.013
		s0.238,0.106,0.328,0.205s0.119,0.209,0.088,0.334c-0.172,0.453-0.342,0.854-0.51,1.207s-0.354,0.662-0.559,0.933
		c-0.202,0.271-0.432,0.497-0.686,0.687c-0.254,0.188-0.553,0.344-0.896,0.469c-0.461,0.164-0.887,0.236-1.275,0.217
		c-0.392-0.02-0.73-0.123-1.021-0.311c-0.29-0.188-0.518-0.453-0.686-0.798c-0.168-0.344-0.265-0.762-0.287-1.254
		c-0.017-0.233-0.021-0.519-0.019-0.851s0.024-0.68,0.063-1.043c0.039-0.362,0.103-0.731,0.188-1.106s0.202-0.726,0.353-1.049
		c0.148-0.324,0.334-0.608,0.557-0.854c0.225-0.246,0.494-0.424,0.814-0.533c0.266-0.094,0.526-0.129,0.785-0.104
		c0.258,0.023,0.484,0.104,0.686,0.246c0.2,0.142,0.357,0.338,0.477,0.592C141.009,137.823,141.062,138.131,141.053,138.498z
		 M139.577,138.192c-0.109-0.069-0.217-0.075-0.322-0.019c-0.104,0.06-0.205,0.156-0.299,0.293c-0.094,0.138-0.176,0.3-0.246,0.486
		c-0.068,0.188-0.129,0.381-0.176,0.58c-0.047,0.198-0.082,0.389-0.104,0.567s-0.026,0.323-0.013,0.435
		c0.359-0.07,0.646-0.22,0.855-0.445s0.355-0.469,0.438-0.727c0.082-0.259,0.109-0.5,0.082-0.729
		C139.766,138.41,139.694,138.265,139.577,138.192z"/>
	<path fill="#231F20" d="M141.335,137.679c0.008-0.212,0.082-0.365,0.225-0.464c0.141-0.098,0.291-0.141,0.449-0.129
		c0.16,0.013,0.301,0.076,0.416,0.192c0.117,0.117,0.16,0.285,0.13,0.505c-0.017,0.094-0.021,0.223-0.019,0.387
		s0.019,0.351,0.041,0.558c0.023,0.207,0.062,0.425,0.111,0.649c0.049,0.226,0.119,0.444,0.205,0.656
		c0.094,0.241,0.209,0.465,0.346,0.668c0.137,0.202,0.299,0.362,0.486,0.479l2.4-3.973c0.125-0.188,0.275-0.283,0.451-0.287
		s0.33,0.053,0.463,0.17s0.219,0.273,0.258,0.47c0.039,0.195-0.016,0.396-0.164,0.599l-2.461,3.809
		c0.298,0.259,0.596,0.438,0.893,0.533s0.582,0.119,0.854,0.063c0.359-0.063,0.686-0.246,0.975-0.552
		c0.288-0.305,0.52-0.727,0.689-1.266c0.018-0.125,0.076-0.207,0.184-0.246c0.104-0.039,0.217-0.039,0.334,0
		c0.115,0.039,0.223,0.115,0.314,0.229c0.093,0.113,0.142,0.265,0.142,0.45c-0.233,0.703-0.55,1.27-0.942,1.693
		c-0.394,0.424-0.838,0.705-1.33,0.838c-0.422,0.117-0.863,0.129-1.324,0.035s-0.934-0.306-1.418-0.633l-0.715,1.241
		c-0.117,0.194-0.271,0.3-0.463,0.312c-0.192,0.012-0.369-0.029-0.533-0.123s-0.285-0.219-0.363-0.375
		c-0.076-0.156-0.063-0.301,0.049-0.435l0.938-1.44c-0.32-0.297-0.58-0.606-0.779-0.932c-0.197-0.325-0.355-0.654-0.475-0.99
		c-0.18-0.508-0.289-0.998-0.328-1.472C141.333,138.427,141.319,138.021,141.335,137.679z"/>
	<path fill="#231F20" d="M149.315,142.317c-0.164-0.228-0.218-0.442-0.158-0.649c0.059-0.207,0.17-0.367,0.334-0.479
		s0.346-0.159,0.545-0.142c0.199,0.019,0.354,0.144,0.463,0.369c0.117,0.188,0.148,0.377,0.094,0.567
		c-0.054,0.19-0.15,0.347-0.293,0.463c-0.141,0.117-0.305,0.175-0.49,0.171C149.621,142.612,149.456,142.515,149.315,142.317z
		 M149.491,138.769c-0.133-0.134-0.213-0.269-0.24-0.403c-0.025-0.138-0.016-0.267,0.035-0.388s0.129-0.226,0.234-0.312
		c0.104-0.086,0.225-0.142,0.355-0.164s0.271-0.01,0.41,0.041s0.271,0.153,0.387,0.312c0.096,0.164,0.109,0.33,0.048,0.498
		c-0.063,0.168-0.161,0.306-0.3,0.41c-0.137,0.104-0.293,0.166-0.469,0.183C149.776,138.961,149.624,138.899,149.491,138.769z"/>
	<path fill="#231F20" d="M156.452,134.149c0.156-0.155,0.324-0.233,0.504-0.233c0.181,0,0.334,0.047,0.463,0.142
		s0.213,0.22,0.252,0.375s-0.004,0.313-0.129,0.47c-0.194,0.241-0.393,0.526-0.592,0.854c-0.199,0.328-0.379,0.666-0.539,1.015
		s-0.295,0.688-0.404,1.024c-0.107,0.336-0.168,0.634-0.176,0.892c0.148-0.125,0.295-0.226,0.439-0.299
		c0.144-0.074,0.295-0.123,0.45-0.146c0.444-0.063,0.845-0.033,1.194,0.088c0.353,0.121,0.652,0.305,0.902,0.551
		s0.446,0.535,0.592,0.867s0.234,0.682,0.271,1.049c0.035,0.367,0.015,0.732-0.063,1.097c-0.078,0.363-0.217,0.694-0.416,0.995
		c-0.199,0.302-0.459,0.556-0.779,0.763c-0.318,0.207-0.707,0.338-1.159,0.394c-0.438,0.056-0.821-0.012-1.153-0.199
		c-0.332-0.187-0.615-0.438-0.852-0.756c-0.233-0.317-0.418-0.672-0.551-1.065c-0.133-0.395-0.219-0.774-0.258-1.144
		c-0.063-0.555-0.06-1.151,0.012-1.793s0.195-1.269,0.375-1.881c0.181-0.613,0.406-1.188,0.681-1.724
		C155.789,134.946,156.101,134.502,156.452,134.149z M156.78,139.576c-0.228,0.055-0.404,0.176-0.533,0.362
		c-0.129,0.188-0.217,0.403-0.264,0.649s-0.056,0.504-0.023,0.773c0.032,0.269,0.102,0.514,0.205,0.73
		c0.105,0.218,0.244,0.396,0.416,0.533c0.172,0.138,0.371,0.192,0.599,0.17c0.306-0.022,0.558-0.133,0.757-0.328
		c0.197-0.194,0.344-0.428,0.434-0.696c0.09-0.27,0.125-0.554,0.105-0.851c-0.021-0.297-0.096-0.562-0.225-0.791
		s-0.314-0.403-0.563-0.521C157.44,139.49,157.139,139.481,156.78,139.576z"/>
	<path fill="#231F20" d="M165.312,141.709c-0.143,0-0.25-0.069-0.328-0.211s-0.121-0.297-0.129-0.47
		c-0.009-0.172,0.023-0.327,0.1-0.469c0.075-0.142,0.197-0.212,0.369-0.212h4.371c0.108,0,0.203,0.033,0.281,0.102
		c0.077,0.067,0.141,0.146,0.188,0.245s0.074,0.205,0.082,0.322c0.008,0.116-0.008,0.228-0.047,0.327
		c-0.039,0.103-0.103,0.188-0.188,0.259c-0.087,0.069-0.194,0.104-0.327,0.104L165.312,141.709L165.312,141.709z M165.335,139.683
		c-0.141,0-0.25-0.069-0.328-0.211c-0.077-0.142-0.12-0.298-0.129-0.47c-0.008-0.172,0.025-0.328,0.102-0.469
		c0.074-0.142,0.195-0.211,0.368-0.211h4.371c0.108,0,0.202,0.032,0.28,0.1c0.078,0.068,0.143,0.147,0.188,0.246
		s0.073,0.205,0.082,0.322c0.008,0.116-0.009,0.227-0.048,0.327c-0.038,0.102-0.103,0.188-0.188,0.259
		c-0.086,0.069-0.195,0.104-0.328,0.104h-4.371V139.683z"/>
	<path fill="#231F20" d="M176.139,134.149c0.155-0.155,0.323-0.233,0.505-0.233c0.18,0,0.334,0.047,0.463,0.142
		s0.213,0.22,0.252,0.375s-0.004,0.313-0.129,0.47c-0.195,0.241-0.395,0.526-0.593,0.854c-0.198,0.328-0.38,0.666-0.538,1.015
		c-0.16,0.349-0.296,0.688-0.404,1.024c-0.109,0.336-0.168,0.634-0.176,0.892c0.146-0.125,0.295-0.226,0.438-0.299
		c0.146-0.074,0.295-0.123,0.451-0.146c0.445-0.063,0.844-0.033,1.195,0.088c0.351,0.121,0.65,0.305,0.9,0.551
		s0.447,0.535,0.593,0.867s0.233,0.682,0.271,1.049s0.014,0.732-0.063,1.097c-0.077,0.363-0.218,0.694-0.416,0.995
		c-0.198,0.302-0.459,0.556-0.778,0.763c-0.32,0.207-0.707,0.338-1.16,0.394c-0.438,0.056-0.822-0.012-1.154-0.199
		c-0.332-0.187-0.614-0.438-0.85-0.756c-0.236-0.317-0.418-0.672-0.551-1.065c-0.134-0.395-0.221-0.774-0.259-1.144
		c-0.063-0.555-0.06-1.151,0.013-1.793c0.069-0.642,0.193-1.269,0.375-1.881c0.18-0.613,0.405-1.188,0.68-1.724
		C175.477,134.946,175.788,134.502,176.139,134.149z M176.468,139.576c-0.227,0.055-0.402,0.176-0.531,0.362
		c-0.129,0.188-0.219,0.403-0.266,0.649s-0.055,0.504-0.021,0.773c0.031,0.269,0.1,0.514,0.205,0.73
		c0.104,0.218,0.243,0.396,0.416,0.533c0.172,0.138,0.371,0.192,0.598,0.17c0.305-0.022,0.557-0.133,0.756-0.328
		c0.199-0.194,0.344-0.428,0.436-0.696c0.09-0.27,0.125-0.554,0.104-0.851c-0.02-0.297-0.094-0.562-0.223-0.791
		s-0.316-0.403-0.563-0.521C177.13,139.49,176.827,139.481,176.468,139.576z"/>
</g>
</svg>
