<svg id="Camada_1" data-name="Camada 1" xmlns="http://www.w3.org/2000/svg" viewBox="0 0 94.04 38.94"><defs><style>.cls-1{fill:#95d4e9;opacity:0.3;}.cls-2{fill:none;stroke:#000;stroke-miterlimit:10;stroke-width:0.4px;}</style></defs><polygon class="cls-1" points="32.98 12.1 20.21 4.73 7.45 12.1 7.45 26.84 20.21 34.21 32.98 26.84 45.74 34.21 58.51 26.84 71.28 34.21 84.04 26.84 84.04 12.1 71.28 4.73 58.51 12.1 45.74 4.73 32.98 12.1"/><polygon class="cls-2" points="32.98 12.1 20.21 4.73 7.45 12.1 7.45 26.84 20.21 34.21 32.98 26.84 45.74 34.21 58.51 26.84 71.28 34.21 84.04 26.84 84.04 12.1 71.28 4.73 58.51 12.1 45.74 4.73 32.98 12.1"/></svg>