<svg id="Camada_1" data-name="Camada 1" xmlns="http://www.w3.org/2000/svg" viewBox="0 0 423.55 46.64"><defs><style>.cls-1,.cls-2{fill:none;stroke:#000;stroke-width:0.4px;}.cls-1{stroke-miterlimit:10;}.cls-2{stroke-linecap:round;stroke-linejoin:round;}.cls-3{font-size:14.35px;font-family:CMR12;}</style></defs><line class="cls-1" x1="12.47" y1="17.81" x2="408.92" y2="17.81"/><path class="cls-2" d="M407.05,15.42a3.15,3.15,0,0,0,2.07,2.39,3.17,3.17,0,0,0-2.07,2.39"/><line class="cls-1" x1="69.16" y1="14.82" x2="69.16" y2="20.8"/><text class="cls-3" transform="translate(65.65 35.03)">0</text><line class="cls-1" x1="125.85" y1="14.82" x2="125.85" y2="20.8"/><text class="cls-3" transform="translate(122.34 35.03)">1</text><line class="cls-1" x1="182.55" y1="14.82" x2="182.55" y2="20.8"/><text class="cls-3" transform="translate(179.04 35.03)">2</text><line class="cls-1" x1="239.24" y1="14.82" x2="239.24" y2="20.8"/><text class="cls-3" transform="translate(235.73 35.03)">3</text><line class="cls-1" x1="295.93" y1="14.82" x2="295.93" y2="20.8"/><text class="cls-3" transform="translate(292.42 35.03)">4</text><line class="cls-1" x1="352.63" y1="14.82" x2="352.63" y2="20.8"/><text class="cls-3" transform="translate(349.12 35.03)">5</text><line class="cls-1" x1="83.33" y1="15.82" x2="83.33" y2="19.8"/><line class="cls-1" x1="97.51" y1="15.82" x2="97.51" y2="19.8"/><line class="cls-1" x1="111.68" y1="15.82" x2="111.68" y2="19.8"/><line class="cls-1" x1="125.85" y1="15.82" x2="125.85" y2="19.8"/><line class="cls-1" x1="140.03" y1="15.82" x2="140.03" y2="19.8"/><line class="cls-1" x1="154.2" y1="15.82" x2="154.2" y2="19.8"/><line class="cls-1" x1="168.37" y1="15.82" x2="168.37" y2="19.8"/><line class="cls-1" x1="182.55" y1="15.82" x2="182.55" y2="19.8"/><line class="cls-1" x1="196.72" y1="15.82" x2="196.72" y2="19.8"/><line class="cls-1" x1="210.89" y1="15.82" x2="210.89" y2="19.8"/><line class="cls-1" x1="225.07" y1="15.82" x2="225.07" y2="19.8"/><line class="cls-1" x1="239.24" y1="15.82" x2="239.24" y2="19.8"/><line class="cls-1" x1="253.41" y1="15.82" x2="253.41" y2="19.8"/><line class="cls-1" x1="267.59" y1="15.82" x2="267.59" y2="19.8"/><line class="cls-1" x1="281.76" y1="15.82" x2="281.76" y2="19.8"/><line class="cls-1" x1="295.93" y1="15.82" x2="295.93" y2="19.8"/><line class="cls-1" x1="310.11" y1="15.82" x2="310.11" y2="19.8"/><line class="cls-1" x1="324.28" y1="15.82" x2="324.28" y2="19.8"/><line class="cls-1" x1="338.45" y1="15.82" x2="338.45" y2="19.8"/></svg>