<svg id="Camada_1" data-name="Camada 1" xmlns="http://www.w3.org/2000/svg" viewBox="0 0 372.49 682.61"><defs><style>.cls-1{fill:#e6164d;}.cls-2,.cls-4,.cls-7,.cls-8{fill:none;}.cls-2,.cls-4,.cls-7{stroke:#000;}.cls-2,.cls-7,.cls-8{stroke-miterlimit:10;}.cls-2,.cls-4,.cls-8{stroke-width:0.4px;}.cls-3{fill:#95d4e9;opacity:0.3;}.cls-4{stroke-linecap:round;stroke-linejoin:round;}.cls-5{font-size:14.35px;font-family:CMR12;}.cls-6{font-size:9.96px;font-family:CMR10;}.cls-7{stroke-width:0.57px;}.cls-8{stroke:#e6164d;}</style></defs><path d="M37,27.09a1.83,1.83,0,0,1,1.13-1.74,8.78,8.78,0,0,1,3.5-.6h.19v-.14a1.56,1.56,0,0,0-.44-1.21A1.75,1.75,0,0,0,40.15,23a2.11,2.11,0,0,0-2,1.18s-.08,0-.24,0a1,1,0,0,1-.44-.21.55.55,0,0,1-.19-.46,1.21,1.21,0,0,1,.47-.86,3.09,3.09,0,0,1,1-.57,4.62,4.62,0,0,1,1.46-.22,3.16,3.16,0,0,1,2.24.72,2.64,2.64,0,0,1,.78,2v4.23s-.06.07-.17.11a1.29,1.29,0,0,1-.35,0,.77.77,0,0,1-.82-.63,2.12,2.12,0,0,1,0-.48,2.77,2.77,0,0,1-1.06.88,3.22,3.22,0,0,1-1.43.31,2.57,2.57,0,0,1-1.72-.54A1.76,1.76,0,0,1,37,27.09Zm4.82-1.45h-.39a6.93,6.93,0,0,0-2.29.38,1,1,0,0,0-.75,1,.88.88,0,0,0,.35.73,1.52,1.52,0,0,0,1,.27,2.24,2.24,0,0,0,1.53-.52,1.73,1.73,0,0,0,.59-1.34Zm2.63,6.1c-.44,0-.66-.2-.66-.58a.71.71,0,0,1,.08-.31c.06-.11.1-.17.13-.18a3.13,3.13,0,0,0,1.63-.93,4.81,4.81,0,0,0,1-1.78,7.31,7.31,0,0,0,.36-2.34,7.07,7.07,0,0,0-.36-2.28,4.67,4.67,0,0,0-1.05-1.79A3.18,3.18,0,0,0,44,20.62a.73.73,0,0,1-.13-.2.75.75,0,0,1-.08-.31q0-.57.66-.57a2.47,2.47,0,0,1,1.22.36,4.4,4.4,0,0,1,1.19,1A6.8,6.8,0,0,1,48.07,23a7.64,7.64,0,0,1,.45,2.65,8.09,8.09,0,0,1-.43,2.65,6.89,6.89,0,0,1-1.15,2.07,4.25,4.25,0,0,1-1.21,1,2.54,2.54,0,0,1-1.24.36Z"/><path d="M71.46,20.24a.65.65,0,0,1,.16-.46.56.56,0,0,1,.43-.17h5c.34,0,.51.15.51.43v.09c0,.3-.17.44-.51.44H72.54V24h3.35c.34,0,.51.15.51.43v.07a.39.39,0,0,1-.13.33.56.56,0,0,1-.38.11H72.55v3.51a.52.52,0,0,1-.12.36.48.48,0,0,1-.35.13h-.16c-.31,0-.46-.18-.46-.55Zm7.3-.34a.59.59,0,0,1,.66-.66.68.68,0,0,1,.49.17.69.69,0,0,1,.17.49.62.62,0,0,1-.18.48.69.69,0,0,1-.49.17.69.69,0,0,1-.48-.17.65.65,0,0,1-.17-.48Zm.13,2.6c0-.34.15-.51.46-.51h.12q.45,0,.45.51v5.95c0,.33-.15.49-.45.49h-.12c-.31,0-.46-.16-.46-.49Zm5.21,9.41c-2.13,0-3.2-.62-3.2-1.87a1.54,1.54,0,0,1,.63-1.24,3.54,3.54,0,0,1,1.61-.69.79.79,0,0,1-.43-.69.86.86,0,0,1,.41-.73,2.55,2.55,0,0,1-1.26-.86,2.23,2.23,0,0,1-.47-1.4,2.38,2.38,0,0,1,.36-1.28,2.58,2.58,0,0,1,1-.92,3.07,3.07,0,0,1,1.42-.34,2.81,2.81,0,0,1,1.62.48l.51-.78a.75.75,0,0,1,.61-.41.53.53,0,0,1,.3.09,1.34,1.34,0,0,1,.21.2.23.23,0,0,1,.06.17l-1.13,1.2A2.27,2.27,0,0,1,87,24.39a2.33,2.33,0,0,1-.35,1.25,2.52,2.52,0,0,1-1,.88,3.07,3.07,0,0,1-1.43.32H83.8a.4.4,0,0,0-.17.37.46.46,0,0,0,.3.39,5.44,5.44,0,0,0,1,.3l.53.13c1.37.33,2.05.95,2.05,1.84a1.67,1.67,0,0,1-.9,1.5,4.86,4.86,0,0,1-2.54.55Zm0-.75a4.09,4.09,0,0,0,1.78-.31,1,1,0,0,0,.63-.92.8.8,0,0,0-.4-.69A3.67,3.67,0,0,0,85,28.81l-.84-.2a4,4,0,0,0-1.63.46,1.12,1.12,0,0,0-.66,1,.92.92,0,0,0,.57.84,3.8,3.8,0,0,0,1.66.29Zm0-5a1.76,1.76,0,0,0,1.27-.48,1.63,1.63,0,0,0,.49-1.25,1.66,1.66,0,0,0-.49-1.25,1.74,1.74,0,0,0-1.29-.48,1.72,1.72,0,0,0-1.26.48,1.66,1.66,0,0,0-.49,1.25,1.64,1.64,0,0,0,.5,1.25,1.74,1.74,0,0,0,1.27.48ZM93.9,22c.3,0,.46.17.46.49v6.36s0,0-.13.07A.69.69,0,0,1,94,29c-.35,0-.55-.22-.6-.67,0-.25,0-.44,0-.56a3,3,0,0,1-1,1,2.58,2.58,0,0,1-1.38.36,2.4,2.4,0,0,1-2-.81,3.33,3.33,0,0,1-.67-2.17V22.48c0-.32.16-.49.46-.49H89c.3,0,.46.17.46.49V26a2.41,2.41,0,0,0,.47,1.57,1.63,1.63,0,0,0,1.33.56,2.18,2.18,0,0,0,1.27-.37,2.34,2.34,0,0,0,.84-1V22.48c0-.32.15-.49.45-.49Zm5.08-.1a1.22,1.22,0,0,1,.74.21.65.65,0,0,1,.27.54.79.79,0,0,1-.06.32.49.49,0,0,1-.15.19c-.06,0-.09.06-.1.05a1.11,1.11,0,0,0-.82-.29,1.34,1.34,0,0,0-1.23.75,4.42,4.42,0,0,0-.4,2.08v2.71c0,.33-.15.49-.45.49h-.11a.43.43,0,0,1-.48-.49V22.11s0,0,.12-.07a.67.67,0,0,1,.26-.05q.53,0,.6.69,0,.5,0,.75a2.13,2.13,0,0,1,.66-1.15A1.66,1.66,0,0,1,99,21.89Zm1.59,5.24a1.78,1.78,0,0,1,1.12-1.69,9.27,9.27,0,0,1,3.57-.56h.16v-.29a1.79,1.79,0,0,0-.48-1.34,1.9,1.9,0,0,0-1.37-.47,2.39,2.39,0,0,0-1.3.33,2.15,2.15,0,0,0-.8.89.35.35,0,0,1-.19,0,.63.63,0,0,1-.3-.16.45.45,0,0,1-.14-.35.82.82,0,0,1,.11-.36,1.4,1.4,0,0,1,.31-.4,3,3,0,0,1,1-.59,4,4,0,0,1,1.39-.23,2.83,2.83,0,0,1,2.08.72,2.66,2.66,0,0,1,.74,2v4.23s0,0-.13.07a.69.69,0,0,1-.25,0q-.53,0-.6-.66,0-.41,0-.63a2.54,2.54,0,0,1-1,1,3.17,3.17,0,0,1-1.52.37,2.58,2.58,0,0,1-1.7-.52,1.72,1.72,0,0,1-.62-1.39Zm4.85-1.58-.25,0a8,8,0,0,0-2.73.4,1.18,1.18,0,0,0-.84,1.13,1,1,0,0,0,.4.85,1.72,1.72,0,0,0,1.09.31,2.56,2.56,0,0,0,1.18-.27,2.23,2.23,0,0,0,.84-.74,1.89,1.89,0,0,0,.31-1Zm5,3.39a.76.76,0,0,1-.39-.13c-.11-.08-.16-.14-.14-.19l3.33-8.72a.43.43,0,0,1,.24-.27,1.61,1.61,0,0,1,1.06,0,.43.43,0,0,1,.24.27l3.35,8.72c0,.05,0,.11-.15.19a.83.83,0,0,1-.41.13c-.32,0-.54-.14-.68-.5l-1-2.53H112.1l-1,2.54a.63.63,0,0,1-.26.4.53.53,0,0,1-.38.09ZM115.66,25,114,20.66,112.38,25Z"/><path d="M259.24,20.24a.69.69,0,0,1,.16-.46.58.58,0,0,1,.43-.17h5c.33,0,.5.15.5.43v.09c0,.3-.17.44-.5.44h-4.55V24h3.36c.33,0,.5.15.5.43v.07a.39.39,0,0,1-.12.33.59.59,0,0,1-.38.11h-3.35v3.51a.52.52,0,0,1-.12.36.48.48,0,0,1-.35.13h-.16c-.3,0-.46-.18-.46-.55Zm7.31-.34a.65.65,0,0,1,.17-.49.66.66,0,0,1,.49-.17.61.61,0,0,1,.66.66.62.62,0,0,1-.18.48.72.72,0,0,1-.5.17.64.64,0,0,1-.47-.17.61.61,0,0,1-.17-.48Zm.12,2.6c0-.34.16-.51.46-.51h.12c.3,0,.46.17.46.51v5.95c0,.33-.16.49-.46.49h-.12c-.3,0-.46-.16-.46-.49Zm5.21,9.41c-2.13,0-3.2-.62-3.2-1.87a1.54,1.54,0,0,1,.63-1.24,3.54,3.54,0,0,1,1.61-.69.79.79,0,0,1-.43-.69.85.85,0,0,1,.42-.73,2.54,2.54,0,0,1-1.27-.86,2.23,2.23,0,0,1-.47-1.4,2.38,2.38,0,0,1,.36-1.28,2.54,2.54,0,0,1,1-.92,3,3,0,0,1,1.41-.34,2.81,2.81,0,0,1,1.62.48l.52-.78a.73.73,0,0,1,.6-.41.53.53,0,0,1,.3.09.81.81,0,0,1,.21.2.23.23,0,0,1,.06.17l-1.13,1.2a2.28,2.28,0,0,1,.62,1.55,2.25,2.25,0,0,1-.36,1.25,2.45,2.45,0,0,1-1,.88,3,3,0,0,1-1.43.32h-.37a.43.43,0,0,0-.17.37.46.46,0,0,0,.3.39,5.69,5.69,0,0,0,1,.3l.53.13c1.37.33,2.06.95,2.06,1.84a1.68,1.68,0,0,1-.91,1.5,4.86,4.86,0,0,1-2.54.55Zm0-.75a4.06,4.06,0,0,0,1.78-.31,1,1,0,0,0,.63-.92.78.78,0,0,0-.4-.69,3.67,3.67,0,0,0-1.11-.43l-.84-.2a4,4,0,0,0-1.62.46,1.12,1.12,0,0,0-.66,1,.93.93,0,0,0,.56.84,3.8,3.8,0,0,0,1.66.29Zm0-5a1.74,1.74,0,0,0,1.27-.48,1.63,1.63,0,0,0,.49-1.25,1.7,1.7,0,0,0-.48-1.25,1.77,1.77,0,0,0-1.29-.48,1.74,1.74,0,0,0-1.27.48,1.7,1.7,0,0,0-.49,1.25,1.64,1.64,0,0,0,.5,1.25,1.74,1.74,0,0,0,1.27.48ZM281.68,22c.31,0,.46.17.46.49v6.36s0,0-.12.07a.73.73,0,0,1-.25,0c-.36,0-.56-.22-.61-.67,0-.25,0-.44,0-.56a3.1,3.1,0,0,1-1,1,2.64,2.64,0,0,1-1.39.36,2.4,2.4,0,0,1-2-.81,3.33,3.33,0,0,1-.66-2.17V22.48c0-.32.15-.49.46-.49h.11c.31,0,.46.17.46.49V26a2.41,2.41,0,0,0,.47,1.57,1.64,1.64,0,0,0,1.34.56,2.2,2.2,0,0,0,1.27-.37,2.34,2.34,0,0,0,.84-1V22.48c0-.32.14-.49.44-.49Zm5.08-.1a1.2,1.2,0,0,1,.74.21.66.66,0,0,1,.28.54.66.66,0,0,1-.07.32.49.49,0,0,1-.15.19c-.05,0-.09.06-.1.05a1.11,1.11,0,0,0-.82-.29,1.31,1.31,0,0,0-1.22.75,4.41,4.41,0,0,0-.41,2.08v2.71c0,.33-.15.49-.45.49h-.11c-.32,0-.47-.16-.47-.49V22.11s0,0,.11-.07a.71.71,0,0,1,.26-.05q.52,0,.6.69,0,.5,0,.75a2.13,2.13,0,0,1,.66-1.15,1.68,1.68,0,0,1,1.12-.39Zm1.61,5.24a1.78,1.78,0,0,1,1.12-1.69,9.23,9.23,0,0,1,3.57-.56h.15v-.29a1.79,1.79,0,0,0-.48-1.34,1.88,1.88,0,0,0-1.37-.47,2.38,2.38,0,0,0-1.29.33,2.15,2.15,0,0,0-.8.89.35.35,0,0,1-.19,0,.71.71,0,0,1-.31-.16.45.45,0,0,1-.13-.35.7.7,0,0,1,.11-.36,1.55,1.55,0,0,1,.3-.4,3,3,0,0,1,1-.59,4,4,0,0,1,1.39-.23,2.84,2.84,0,0,1,2.08.72,2.66,2.66,0,0,1,.73,2v4.23s0,0-.12.07a.69.69,0,0,1-.25,0q-.53,0-.6-.66,0-.41,0-.63a2.54,2.54,0,0,1-1,1,3.19,3.19,0,0,1-1.52.37,2.56,2.56,0,0,1-1.7-.52,1.69,1.69,0,0,1-.62-1.39Zm4.84-1.58-.24,0a8,8,0,0,0-2.73.4,1.18,1.18,0,0,0-.84,1.13,1,1,0,0,0,.4.85,1.72,1.72,0,0,0,1.09.31,2.59,2.59,0,0,0,1.18-.27,2.23,2.23,0,0,0,.84-.74,1.89,1.89,0,0,0,.3-1Zm6,3.34a.53.53,0,0,1-.43-.17.63.63,0,0,1-.16-.46v-8a.65.65,0,0,1,.16-.46.56.56,0,0,1,.43-.17h2.93a3.51,3.51,0,0,1,2.23.62,2.11,2.11,0,0,1,.78,1.76,2,2,0,0,1-.43,1.3,2.45,2.45,0,0,1-1.26.74,2.81,2.81,0,0,1,1.57.81,2.17,2.17,0,0,1,.52,1.49,2.25,2.25,0,0,1-.84,1.93,4.24,4.24,0,0,1-2.55.63ZM302,23.76a2.15,2.15,0,0,0,1.45-.45,1.53,1.53,0,0,0,.52-1.2c0-1.07-.67-1.61-2-1.61h-2.32v3.26Zm.06,4.25a3,3,0,0,0,1.77-.41,1.58,1.58,0,0,0,.54-1.34,1.47,1.47,0,0,0-.57-1.27,3,3,0,0,0-1.72-.41h-2.44V28Z"/><rect class="cls-1" x="62.49" y="34.32" width="63.78" height="42.52"/><rect class="cls-2" x="62.49" y="34.32" width="63.78" height="42.52"/><rect class="cls-3" x="250.24" y="34.32" width="63.78" height="42.52"/><rect class="cls-2" x="250.24" y="34.32" width="63.78" height="42.52"/><polygon class="cls-1" points="250.24 76.84 250.24 34.33 314.02 76.84 250.24 76.84"/><polygon class="cls-2" points="250.24 76.84 250.24 34.33 314.02 76.84 250.24 76.84"/><line class="cls-2" x1="78.44" y1="105.3" x2="333.16" y2="105.3"/><path class="cls-4" d="M331.29,102.91a3.13,3.13,0,0,0,2.07,2.39,3.17,3.17,0,0,0-2.07,2.4"/><line class="cls-2" x1="142.22" y1="102.32" x2="142.22" y2="108.29"/><text class="cls-5" transform="translate(138.71 122.52)">0</text><line class="cls-2" x1="269.78" y1="102.32" x2="269.78" y2="108.29"/><text class="cls-5" transform="translate(266.27 122.52)">1</text><line class="cls-2" x1="206" y1="102.32" x2="206" y2="108.29"/><text class="cls-6" transform="translate(203.51 119.69)">1</text><line class="cls-7" x1="203.51" y1="121.76" x2="208.49" y2="121.76"/><text class="cls-6" transform="translate(203.51 130.29)">2</text><path d="M38.85,151.89c0,.45-.21.67-.62.67h-.16c-.42,0-.63-.22-.63-.67v-9.08s.06-.06.16-.1a1,1,0,0,1,.36-.06.84.84,0,0,1,.64.27,1.35,1.35,0,0,1,.26,1v2.81a2.8,2.8,0,0,1,2.41-1.25,3.08,3.08,0,0,1,2.82,1.72,4.58,4.58,0,0,1,0,3.79,3.06,3.06,0,0,1-1.17,1.29,3.11,3.11,0,0,1-1.69.46,3,3,0,0,1-1.46-.34,2.3,2.3,0,0,1-.92-.88Zm4.27-2.83a2.87,2.87,0,0,0-.27-1.26,2.13,2.13,0,0,0-.75-.87,2,2,0,0,0-1.1-.32,2.18,2.18,0,0,0-2.15,1.44v1.53a1.84,1.84,0,0,0,.31,1,2,2,0,0,0,.77.7,2.31,2.31,0,0,0,1,.25,2,2,0,0,0,1.56-.68,2.57,2.57,0,0,0,.59-1.78Zm2.57,6.29c-.44,0-.66-.19-.66-.58a.61.61,0,0,1,.09-.31c.06-.11.1-.16.13-.17a3.25,3.25,0,0,0,1.63-.94,4.81,4.81,0,0,0,1-1.78,7.59,7.59,0,0,0,.35-2.33,7.37,7.37,0,0,0-.35-2.29,4.74,4.74,0,0,0-1.05-1.79,3.18,3.18,0,0,0-1.62-.93.62.62,0,0,1-.13-.19.67.67,0,0,1-.09-.31c0-.39.22-.58.66-.58a2.53,2.53,0,0,1,1.23.36,4.41,4.41,0,0,1,1.18,1,6.76,6.76,0,0,1,1.18,2.08,7.88,7.88,0,0,1,.44,2.65,7.79,7.79,0,0,1-.43,2.65A6.64,6.64,0,0,1,48.15,154a4.54,4.54,0,0,1-1.21,1,2.57,2.57,0,0,1-1.25.36Z"/><path d="M71.46,143.86a.61.61,0,0,1,.16-.46.54.54,0,0,1,.43-.18h5c.34,0,.51.15.51.44v.08q0,.45-.51.45H72.54v3.42h3.35c.34,0,.51.15.51.44v.07a.42.42,0,0,1-.13.33.62.62,0,0,1-.38.1H72.55v3.51a.51.51,0,0,1-.12.36.45.45,0,0,1-.35.13h-.16c-.31,0-.46-.18-.46-.55Zm7.3-.35a.59.59,0,0,1,.66-.66.68.68,0,0,1,.49.17.69.69,0,0,1,.17.49.62.62,0,0,1-.18.48.69.69,0,0,1-.49.17.69.69,0,0,1-.48-.17.65.65,0,0,1-.17-.48Zm.13,2.6c0-.34.15-.5.46-.5h.12c.3,0,.45.16.45.5v5.95c0,.33-.15.49-.45.49h-.12c-.31,0-.46-.16-.46-.49Zm5.21,9.41c-2.13,0-3.2-.62-3.2-1.87a1.55,1.55,0,0,1,.63-1.24,3.54,3.54,0,0,1,1.61-.69.77.77,0,0,1-.43-.69.86.86,0,0,1,.41-.73,2.55,2.55,0,0,1-1.26-.86,2.22,2.22,0,0,1-.47-1.39,2.41,2.41,0,0,1,.36-1.29,2.58,2.58,0,0,1,1-.92,3.06,3.06,0,0,1,1.42-.33,2.8,2.8,0,0,1,1.62.47l.51-.78a.75.75,0,0,1,.61-.41.53.53,0,0,1,.3.09,1.34,1.34,0,0,1,.21.2.23.23,0,0,1,.06.17l-1.13,1.2A2.27,2.27,0,0,1,87,148a2.33,2.33,0,0,1-.35,1.25,2.52,2.52,0,0,1-1,.88,3.07,3.07,0,0,1-1.43.33l-.37,0a.4.4,0,0,0-.17.37.43.43,0,0,0,.3.39,5.44,5.44,0,0,0,1,.3l.53.13c1.37.34,2.05,1,2.05,1.84a1.67,1.67,0,0,1-.9,1.5,4.86,4.86,0,0,1-2.54.55Zm0-.75a4.09,4.09,0,0,0,1.78-.31,1,1,0,0,0,.63-.92.8.8,0,0,0-.4-.69,4,4,0,0,0-1.11-.43l-.84-.2a3.86,3.86,0,0,0-1.63.47,1.1,1.1,0,0,0-.66.95.92.92,0,0,0,.57.84,3.66,3.66,0,0,0,1.66.29Zm0-5a1.76,1.76,0,0,0,1.27-.48,1.63,1.63,0,0,0,.49-1.24,1.67,1.67,0,0,0-.49-1.26,1.74,1.74,0,0,0-1.29-.48,1.72,1.72,0,0,0-1.26.48,1.67,1.67,0,0,0-.49,1.26,1.63,1.63,0,0,0,.5,1.24,1.74,1.74,0,0,0,1.27.48Zm9.74-4.13a.42.42,0,0,1,.46.48v6.36s0,0-.13.07a.69.69,0,0,1-.25,0c-.35,0-.55-.22-.6-.67,0-.25,0-.44,0-.56a3,3,0,0,1-1,1,2.58,2.58,0,0,1-1.38.36,2.4,2.4,0,0,1-2-.81,3.33,3.33,0,0,1-.67-2.17v-3.59a.42.42,0,0,1,.46-.48H89a.42.42,0,0,1,.46.48v3.52a2.41,2.41,0,0,0,.47,1.57,1.64,1.64,0,0,0,1.33.57,2.19,2.19,0,0,0,1.27-.38,2.29,2.29,0,0,0,.84-1v-4.26q0-.48.45-.48Zm5.08-.1a1.29,1.29,0,0,1,.74.2.65.65,0,0,1,.27.54.76.76,0,0,1-.06.32.49.49,0,0,1-.15.19c-.06,0-.09.06-.1.05a1.11,1.11,0,0,0-.82-.29,1.34,1.34,0,0,0-1.23.75,4.42,4.42,0,0,0-.4,2.08v2.71c0,.33-.15.49-.45.49h-.11a.43.43,0,0,1-.48-.49v-6.34s0,0,.12-.07a.68.68,0,0,1,.26,0c.35,0,.55.23.6.68s0,.58,0,.75a2.13,2.13,0,0,1,.66-1.15,1.65,1.65,0,0,1,1.12-.38Zm1.59,5.23a1.76,1.76,0,0,1,1.12-1.68,9,9,0,0,1,3.57-.57h.16v-.29a1.79,1.79,0,0,0-.48-1.34,1.89,1.89,0,0,0-1.37-.46,2.39,2.39,0,0,0-1.3.33,2.12,2.12,0,0,0-.8.88.35.35,0,0,1-.19,0,.61.61,0,0,1-.3-.15.47.47,0,0,1-.14-.36.85.85,0,0,1,.11-.36,1.4,1.4,0,0,1,.31-.4,2.78,2.78,0,0,1,1-.58,3.75,3.75,0,0,1,1.39-.23,2.86,2.86,0,0,1,2.08.71,2.68,2.68,0,0,1,.74,2v4.23s0,0-.13.07a.69.69,0,0,1-.25,0q-.53,0-.6-.66,0-.39,0-.63a2.54,2.54,0,0,1-1,1,3.06,3.06,0,0,1-1.52.37,2.58,2.58,0,0,1-1.7-.52,1.71,1.71,0,0,1-.62-1.39Zm4.85-1.58-.25,0a8,8,0,0,0-2.73.4,1.19,1.19,0,0,0-.84,1.13,1,1,0,0,0,.4.85,1.72,1.72,0,0,0,1.09.32,2.57,2.57,0,0,0,1.18-.28,2.23,2.23,0,0,0,.84-.74,1.87,1.87,0,0,0,.31-1Zm5,3.39a.76.76,0,0,1-.39-.13c-.11-.08-.16-.14-.14-.19l3.33-8.72a.46.46,0,0,1,.24-.27,1.61,1.61,0,0,1,1.06,0,.46.46,0,0,1,.24.27l3.35,8.72c0,.05,0,.11-.15.19a.83.83,0,0,1-.41.13c-.32,0-.54-.14-.68-.5l-1-2.53H112.1l-1,2.54a.63.63,0,0,1-.26.4.53.53,0,0,1-.38.09Zm5.19-3.92L114,144.27l-1.65,4.36Z"/><path d="M259.24,143.86a.66.66,0,0,1,.16-.46.55.55,0,0,1,.43-.18h5c.33,0,.5.15.5.44v.08c0,.3-.17.45-.5.45h-4.55v3.42h3.36c.33,0,.5.15.5.44v.07a.42.42,0,0,1-.12.33.66.66,0,0,1-.38.1h-3.35v3.51a.51.51,0,0,1-.12.36.45.45,0,0,1-.35.13h-.16c-.3,0-.46-.18-.46-.55Zm7.31-.35a.65.65,0,0,1,.17-.49.66.66,0,0,1,.49-.17.61.61,0,0,1,.66.66.62.62,0,0,1-.18.48.72.72,0,0,1-.5.17.64.64,0,0,1-.47-.17.61.61,0,0,1-.17-.48Zm.12,2.6c0-.34.16-.5.46-.5h.12c.3,0,.46.16.46.5v5.95c0,.33-.16.49-.46.49h-.12c-.3,0-.46-.16-.46-.49Zm5.21,9.41c-2.13,0-3.2-.62-3.2-1.87a1.55,1.55,0,0,1,.63-1.24,3.54,3.54,0,0,1,1.61-.69.77.77,0,0,1-.43-.69.85.85,0,0,1,.42-.73,2.54,2.54,0,0,1-1.27-.86,2.22,2.22,0,0,1-.47-1.39,2.41,2.41,0,0,1,.36-1.29,2.54,2.54,0,0,1,1-.92,3,3,0,0,1,1.41-.33,2.8,2.8,0,0,1,1.62.47l.52-.78a.73.73,0,0,1,.6-.41.53.53,0,0,1,.3.09.81.81,0,0,1,.21.2.23.23,0,0,1,.06.17l-1.13,1.2a2.28,2.28,0,0,1,.62,1.55,2.25,2.25,0,0,1-.36,1.25,2.45,2.45,0,0,1-1,.88,3,3,0,0,1-1.43.33l-.37,0a.43.43,0,0,0-.17.37.43.43,0,0,0,.3.39,5.69,5.69,0,0,0,1,.3l.53.13c1.37.34,2.06,1,2.06,1.84a1.68,1.68,0,0,1-.91,1.5,4.86,4.86,0,0,1-2.54.55Zm0-.75a4.06,4.06,0,0,0,1.78-.31,1,1,0,0,0,.63-.92.78.78,0,0,0-.4-.69,4,4,0,0,0-1.11-.43l-.84-.2a3.86,3.86,0,0,0-1.62.47,1.1,1.1,0,0,0-.66.95.93.93,0,0,0,.56.84,3.66,3.66,0,0,0,1.66.29Zm0-5a1.74,1.74,0,0,0,1.27-.48,1.63,1.63,0,0,0,.49-1.24,1.7,1.7,0,0,0-.48-1.26,1.77,1.77,0,0,0-1.29-.48,1.74,1.74,0,0,0-1.27.48,1.71,1.71,0,0,0-.49,1.26,1.63,1.63,0,0,0,.5,1.24,1.74,1.74,0,0,0,1.27.48Zm9.74-4.13c.31,0,.46.16.46.48v6.36s0,0-.12.07a.73.73,0,0,1-.25,0c-.36,0-.56-.22-.61-.67,0-.25,0-.44,0-.56a3.1,3.1,0,0,1-1,1,2.64,2.64,0,0,1-1.39.36,2.4,2.4,0,0,1-2-.81,3.33,3.33,0,0,1-.66-2.17v-3.59c0-.32.15-.48.46-.48h.11c.31,0,.46.16.46.48v3.52a2.41,2.41,0,0,0,.47,1.57,1.65,1.65,0,0,0,1.34.57,2.21,2.21,0,0,0,1.27-.38,2.29,2.29,0,0,0,.84-1v-4.26c0-.32.14-.48.44-.48Zm5.08-.1a1.27,1.27,0,0,1,.74.2.66.66,0,0,1,.28.54.63.63,0,0,1-.07.32.49.49,0,0,1-.15.19c-.05,0-.09.06-.1.05a1.11,1.11,0,0,0-.82-.29,1.31,1.31,0,0,0-1.22.75,4.41,4.41,0,0,0-.41,2.08v2.71c0,.33-.15.49-.45.49h-.11c-.32,0-.47-.16-.47-.49v-6.34s0,0,.11-.07a.71.71,0,0,1,.26,0c.35,0,.55.23.6.68s0,.58,0,.75a2.13,2.13,0,0,1,.66-1.15,1.67,1.67,0,0,1,1.12-.38Zm1.61,5.23a1.76,1.76,0,0,1,1.12-1.68,9,9,0,0,1,3.57-.57h.15v-.29a1.79,1.79,0,0,0-.48-1.34,1.88,1.88,0,0,0-1.37-.46,2.38,2.38,0,0,0-1.29.33,2.12,2.12,0,0,0-.8.88.35.35,0,0,1-.19,0,.69.69,0,0,1-.31-.15.47.47,0,0,1-.13-.36.73.73,0,0,1,.11-.36,1.55,1.55,0,0,1,.3-.4,2.83,2.83,0,0,1,1-.58,3.75,3.75,0,0,1,1.39-.23,2.88,2.88,0,0,1,2.08.71,2.67,2.67,0,0,1,.73,2v4.23s0,0-.12.07a.69.69,0,0,1-.25,0q-.53,0-.6-.66,0-.39,0-.63a2.54,2.54,0,0,1-1,1,3.08,3.08,0,0,1-1.52.37,2.56,2.56,0,0,1-1.7-.52,1.68,1.68,0,0,1-.62-1.39Zm4.84-1.58-.24,0a8,8,0,0,0-2.73.4,1.19,1.19,0,0,0-.84,1.13,1,1,0,0,0,.4.85,1.72,1.72,0,0,0,1.09.32,2.6,2.6,0,0,0,1.18-.28,2.23,2.23,0,0,0,.84-.74,1.86,1.86,0,0,0,.3-1Zm6,3.35a.54.54,0,0,1-.43-.18.61.61,0,0,1-.16-.45v-8a.61.61,0,0,1,.16-.46.54.54,0,0,1,.43-.18h2.93a3.51,3.51,0,0,1,2.23.62,2.12,2.12,0,0,1,.78,1.77,2,2,0,0,1-.43,1.29,2.45,2.45,0,0,1-1.26.74,2.87,2.87,0,0,1,1.57.81,2.18,2.18,0,0,1,.52,1.49,2.28,2.28,0,0,1-.84,1.94,4.24,4.24,0,0,1-2.55.63Zm2.85-5.14a2.15,2.15,0,0,0,1.45-.45,1.53,1.53,0,0,0,.52-1.2c0-1.07-.67-1.61-2-1.61h-2.32v3.26Zm.06,4.25a3,3,0,0,0,1.77-.41,1.57,1.57,0,0,0,.54-1.34,1.47,1.47,0,0,0-.57-1.27,3,3,0,0,0-1.72-.41h-2.44v3.43Z"/><polygon class="cls-1" points="94.39 157.94 68.61 202.58 94.39 187.7 94.39 157.94"/><polygon class="cls-8" points="94.39 157.94 68.61 202.58 94.39 187.7 94.39 157.94"/><line class="cls-2" x1="94.38" y1="157.93" x2="68.61" y2="202.58"/><polygon class="cls-1" points="68.61 202.58 120.16 202.58 94.39 187.7 68.61 202.58"/><polygon class="cls-8" points="68.61 202.58 120.16 202.58 94.39 187.7 68.61 202.58"/><line class="cls-2" x1="68.61" y1="202.58" x2="120.16" y2="202.58"/><polygon class="cls-1" points="120.16 202.58 94.39 157.94 94.39 187.7 120.16 202.58"/><polygon class="cls-8" points="120.16 202.58 94.39 157.94 94.39 187.7 120.16 202.58"/><line class="cls-2" x1="120.16" y1="202.58" x2="94.38" y2="157.93"/><polygon class="cls-2" points="94.39 202.58 107.27 180.26 81.5 180.26 94.39 202.58"/><polygon class="cls-3" points="282.13 157.94 256.36 202.58 307.91 202.58 282.13 157.94"/><line class="cls-2" x1="282.13" y1="157.93" x2="256.36" y2="202.58"/><line class="cls-2" x1="256.36" y1="202.58" x2="307.91" y2="202.58"/><line class="cls-2" x1="307.91" y1="202.58" x2="282.13" y2="157.93"/><polygon class="cls-1" points="282.13 202.58 295.02 180.26 269.25 180.26 282.13 202.58"/><polygon class="cls-2" points="282.13 202.58 295.02 180.26 269.25 180.26 282.13 202.58"/><line class="cls-2" x1="78.44" y1="231.04" x2="333.16" y2="231.04"/><path class="cls-4" d="M331.29,228.65a3.15,3.15,0,0,0,2.07,2.39,3.17,3.17,0,0,0-2.07,2.39"/><line class="cls-2" x1="120.96" y1="228.05" x2="120.96" y2="234.03"/><line class="cls-2" x1="163.48" y1="228.05" x2="163.48" y2="234.03"/><line class="cls-2" x1="206" y1="228.05" x2="206" y2="234.03"/><line class="cls-2" x1="248.52" y1="228.05" x2="248.52" y2="234.03"/><line class="cls-2" x1="291.04" y1="228.05" x2="291.04" y2="234.03"/><line class="cls-2" x1="120.96" y1="228.05" x2="120.96" y2="234.03"/><text class="cls-5" transform="translate(117.45 248.26)">0</text><line class="cls-2" x1="291.04" y1="228.05" x2="291.04" y2="234.03"/><text class="cls-5" transform="translate(287.53 248.26)">1</text><line class="cls-2" x1="163.48" y1="228.05" x2="163.48" y2="234.03"/><text class="cls-6" transform="translate(160.99 245.43)">1</text><line class="cls-7" x1="160.99" y1="247.49" x2="165.97" y2="247.49"/><text class="cls-6" transform="translate(160.99 256.03)">4</text><line class="cls-2" x1="248.52" y1="228.05" x2="248.52" y2="234.03"/><text class="cls-6" transform="translate(246.03 245.43)">3</text><line class="cls-7" x1="246.03" y1="247.49" x2="251.01" y2="247.49"/><text class="cls-6" transform="translate(246.03 256.03)">4</text><path d="M37,274.79a3.72,3.72,0,0,1,.46-1.86,3.33,3.33,0,0,1,1.29-1.29,3.61,3.61,0,0,1,1.83-.47,3.46,3.46,0,0,1,2.26.72,1.94,1.94,0,0,1,.52.6,1.27,1.27,0,0,1,.18.59.52.52,0,0,1-.19.42.93.93,0,0,1-.41.2c-.15,0-.23,0-.25,0a2.06,2.06,0,0,0-2.08-1.35,2.17,2.17,0,0,0-1.16.32,2.27,2.27,0,0,0-.81.87,2.52,2.52,0,0,0-.29,1.24,2.6,2.6,0,0,0,.29,1.26,2.27,2.27,0,0,0,.81.87,2.17,2.17,0,0,0,1.16.32,2.06,2.06,0,0,0,2.08-1.35s.1,0,.25,0a.85.85,0,0,1,.41.21.53.53,0,0,1,.19.44,1.16,1.16,0,0,1-.19.58,2.07,2.07,0,0,1-.53.59,2.9,2.9,0,0,1-1,.53,4,4,0,0,1-1.29.19,3.69,3.69,0,0,1-1.85-.47,3.28,3.28,0,0,1-1.27-1.29,3.82,3.82,0,0,1-.46-1.88Zm7.36,6.29q-.66,0-.66-.57a.79.79,0,0,1,.08-.32c.06-.1.1-.16.13-.17a3.13,3.13,0,0,0,1.63-.93,4.78,4.78,0,0,0,1-1.79,7.59,7.59,0,0,0,0-4.62,4.7,4.7,0,0,0-1-1.78,3.18,3.18,0,0,0-1.62-.93.73.73,0,0,1-.13-.2.75.75,0,0,1-.08-.31q0-.57.66-.57a2.47,2.47,0,0,1,1.22.36,4.4,4.4,0,0,1,1.19,1A6.8,6.8,0,0,1,48,272.34a7.64,7.64,0,0,1,.45,2.65,8,8,0,0,1-.43,2.64,6.83,6.83,0,0,1-1.15,2.08,4.39,4.39,0,0,1-1.21,1,2.63,2.63,0,0,1-1.24.35Z"/><path d="M71.46,269.59a.65.65,0,0,1,.16-.46.56.56,0,0,1,.43-.17h5c.34,0,.51.15.51.43v.09c0,.29-.17.44-.51.44H72.54v3.43h3.35c.34,0,.51.15.51.43v.07a.39.39,0,0,1-.13.33.56.56,0,0,1-.38.1H72.55v3.52a.52.52,0,0,1-.12.36.48.48,0,0,1-.35.13h-.16c-.31,0-.46-.18-.46-.55Zm7.3-.34a.59.59,0,0,1,.66-.66.68.68,0,0,1,.49.17.69.69,0,0,1,.17.49.62.62,0,0,1-.18.48.69.69,0,0,1-.49.16.68.68,0,0,1-.48-.16.65.65,0,0,1-.17-.48Zm.13,2.6c0-.34.15-.51.46-.51h.12q.45,0,.45.51v5.95c0,.32-.15.49-.45.49h-.12c-.31,0-.46-.17-.46-.49Zm5.21,9.41c-2.13,0-3.2-.63-3.2-1.87a1.54,1.54,0,0,1,.63-1.24,3.66,3.66,0,0,1,1.61-.7.76.76,0,0,1-.43-.68.89.89,0,0,1,.41-.74,2.47,2.47,0,0,1-1.26-.85,2.25,2.25,0,0,1-.47-1.4,2.38,2.38,0,0,1,.36-1.28,2.51,2.51,0,0,1,1-.92,3.07,3.07,0,0,1,1.42-.34,2.81,2.81,0,0,1,1.62.48l.51-.78a.73.73,0,0,1,.61-.41.53.53,0,0,1,.3.09,1.34,1.34,0,0,1,.21.2.22.22,0,0,1,.06.16l-1.13,1.21a2.27,2.27,0,0,1,.61,1.55A2.36,2.36,0,0,1,86.6,275a2.6,2.6,0,0,1-1,.88,3.2,3.2,0,0,1-1.43.32H83.8a.39.39,0,0,0-.17.37.46.46,0,0,0,.3.39,7.58,7.58,0,0,0,1,.3l.53.13c1.37.33,2.05.95,2.05,1.83a1.68,1.68,0,0,1-.9,1.51,5,5,0,0,1-2.54.55Zm0-.75a3.93,3.93,0,0,0,1.78-.32,1,1,0,0,0,.63-.91.8.8,0,0,0-.4-.69,3.67,3.67,0,0,0-1.11-.43l-.84-.2a3.86,3.86,0,0,0-1.63.46,1.11,1.11,0,0,0-.66,1,.92.92,0,0,0,.57.84,3.8,3.8,0,0,0,1.66.29Zm0-5a1.75,1.75,0,0,0,1.27-.47,1.63,1.63,0,0,0,.49-1.25,1.66,1.66,0,0,0-.49-1.25,1.74,1.74,0,0,0-1.29-.48,1.72,1.72,0,0,0-1.26.48,1.66,1.66,0,0,0-.49,1.25,1.64,1.64,0,0,0,.5,1.25,1.74,1.74,0,0,0,1.27.47Zm9.74-4.13c.3,0,.46.17.46.49v6.36s0,0-.13.07a.69.69,0,0,1-.25,0c-.35,0-.55-.22-.6-.67,0-.25,0-.44,0-.56a3,3,0,0,1-1,1,2.58,2.58,0,0,1-1.38.36,2.4,2.4,0,0,1-2-.81,3.33,3.33,0,0,1-.67-2.17v-3.59c0-.32.16-.49.46-.49H89c.3,0,.46.17.46.49v3.52a2.41,2.41,0,0,0,.47,1.57,1.66,1.66,0,0,0,1.33.56,2.18,2.18,0,0,0,1.27-.37,2.34,2.34,0,0,0,.84-1v-4.26c0-.32.15-.49.45-.49Zm5.08-.1a1.22,1.22,0,0,1,.74.21.65.65,0,0,1,.27.54.71.71,0,0,1-.06.31.46.46,0,0,1-.15.2c-.06,0-.09.06-.1.05a1.11,1.11,0,0,0-.82-.29,1.34,1.34,0,0,0-1.23.75,4.39,4.39,0,0,0-.4,2.08v2.71c0,.32-.15.49-.45.49h-.11a.43.43,0,0,1-.48-.49v-6.34s0,0,.12-.07a.67.67,0,0,1,.26-.05q.53,0,.6.69,0,.5,0,.75a2.13,2.13,0,0,1,.66-1.15,1.66,1.66,0,0,1,1.12-.39Zm1.59,5.24a1.77,1.77,0,0,1,1.12-1.69,9.08,9.08,0,0,1,3.57-.56h.16v-.29a1.79,1.79,0,0,0-.48-1.34,1.9,1.9,0,0,0-1.37-.47,2.39,2.39,0,0,0-1.3.33,2.15,2.15,0,0,0-.8.89.52.52,0,0,1-.19,0,.63.63,0,0,1-.3-.16.45.45,0,0,1-.14-.35.82.82,0,0,1,.11-.36,1.27,1.27,0,0,1,.31-.4,3,3,0,0,1,1-.59,4,4,0,0,1,1.39-.23,2.83,2.83,0,0,1,2.08.72,2.66,2.66,0,0,1,.74,2v4.24s0,0-.13.07a.69.69,0,0,1-.25,0q-.53,0-.6-.66,0-.4,0-.63a2.46,2.46,0,0,1-1,1,3.06,3.06,0,0,1-1.52.38,2.58,2.58,0,0,1-1.7-.52,1.72,1.72,0,0,1-.62-1.39Zm4.85-1.58-.25,0a7.76,7.76,0,0,0-2.73.4,1.18,1.18,0,0,0-.84,1.13,1.05,1.05,0,0,0,.4.85,1.72,1.72,0,0,0,1.09.31,2.56,2.56,0,0,0,1.18-.27,2.23,2.23,0,0,0,.84-.74,1.89,1.89,0,0,0,.31-1Zm5,3.39a.86.86,0,0,1-.39-.13c-.11-.08-.16-.14-.14-.19l3.33-8.72a.41.41,0,0,1,.24-.27,1.61,1.61,0,0,1,1.06,0,.41.41,0,0,1,.24.27l3.35,8.72s0,.11-.15.19a.94.94,0,0,1-.41.13c-.32,0-.54-.14-.68-.51l-1-2.52H112.1l-1,2.54a.66.66,0,0,1-.26.4.53.53,0,0,1-.38.09Zm5.19-3.92L114,270l-1.65,4.36Z"/><path d="M259.24,269.59a.69.69,0,0,1,.16-.46.58.58,0,0,1,.43-.17h5c.33,0,.5.15.5.43v.09c0,.29-.17.44-.5.44h-4.55v3.43h3.36c.33,0,.5.15.5.43v.07a.39.39,0,0,1-.12.33.59.59,0,0,1-.38.1h-3.35v3.52a.52.52,0,0,1-.12.36.48.48,0,0,1-.35.13h-.16c-.3,0-.46-.18-.46-.55Zm7.31-.34a.65.65,0,0,1,.17-.49.66.66,0,0,1,.49-.17.61.61,0,0,1,.66.66.62.62,0,0,1-.18.48.72.72,0,0,1-.5.16.64.64,0,0,1-.47-.16.61.61,0,0,1-.17-.48Zm.12,2.6c0-.34.16-.51.46-.51h.12c.3,0,.46.17.46.51v5.95c0,.32-.16.49-.46.49h-.12c-.3,0-.46-.17-.46-.49Zm5.21,9.41c-2.13,0-3.2-.63-3.2-1.87a1.54,1.54,0,0,1,.63-1.24,3.66,3.66,0,0,1,1.61-.7.76.76,0,0,1-.43-.68.88.88,0,0,1,.42-.74,2.46,2.46,0,0,1-1.27-.85,2.25,2.25,0,0,1-.47-1.4,2.38,2.38,0,0,1,.36-1.28,2.47,2.47,0,0,1,1-.92,3,3,0,0,1,1.41-.34,2.81,2.81,0,0,1,1.62.48l.52-.78a.71.71,0,0,1,.6-.41.53.53,0,0,1,.3.09.81.81,0,0,1,.21.2.22.22,0,0,1,.06.16l-1.13,1.21a2.29,2.29,0,0,1,.26,2.8,2.53,2.53,0,0,1-1,.88,3.17,3.17,0,0,1-1.43.32h-.37a.41.41,0,0,0-.17.37.46.46,0,0,0,.3.39,8.07,8.07,0,0,0,1,.3l.53.13c1.37.33,2.06.95,2.06,1.83a1.68,1.68,0,0,1-.91,1.51,5,5,0,0,1-2.54.55Zm0-.75a3.91,3.91,0,0,0,1.78-.32,1,1,0,0,0,.63-.91.78.78,0,0,0-.4-.69,3.67,3.67,0,0,0-1.11-.43L272,278a3.86,3.86,0,0,0-1.62.46,1.11,1.11,0,0,0-.66,1,.93.93,0,0,0,.56.84,3.8,3.8,0,0,0,1.66.29Zm0-5a1.74,1.74,0,0,0,1.27-.47,1.63,1.63,0,0,0,.49-1.25,1.7,1.7,0,0,0-.48-1.25,1.77,1.77,0,0,0-1.29-.48,1.74,1.74,0,0,0-1.27.48,1.7,1.7,0,0,0-.49,1.25,1.64,1.64,0,0,0,.5,1.25,1.74,1.74,0,0,0,1.27.47Zm9.74-4.13c.31,0,.46.17.46.49v6.36s0,0-.12.07a.73.73,0,0,1-.25,0c-.36,0-.56-.22-.61-.67,0-.25,0-.44,0-.56a3.1,3.1,0,0,1-1,1,2.64,2.64,0,0,1-1.39.36,2.4,2.4,0,0,1-2-.81,3.33,3.33,0,0,1-.66-2.17v-3.59c0-.32.15-.49.46-.49h.11c.31,0,.46.17.46.49v3.52a2.41,2.41,0,0,0,.47,1.57,1.67,1.67,0,0,0,1.34.56,2.2,2.2,0,0,0,1.27-.37,2.34,2.34,0,0,0,.84-1v-4.26c0-.32.14-.49.44-.49Zm5.08-.1a1.2,1.2,0,0,1,.74.21.66.66,0,0,1,.28.54.59.59,0,0,1-.07.31.46.46,0,0,1-.15.2c-.05,0-.09.06-.1.05a1.11,1.11,0,0,0-.82-.29,1.31,1.31,0,0,0-1.22.75,4.38,4.38,0,0,0-.41,2.08v2.71c0,.32-.15.49-.45.49h-.11c-.32,0-.47-.17-.47-.49v-6.34s0,0,.11-.07a.71.71,0,0,1,.26-.05q.52,0,.6.69,0,.5,0,.75a2.13,2.13,0,0,1,.66-1.15,1.68,1.68,0,0,1,1.12-.39Zm1.61,5.24a1.77,1.77,0,0,1,1.12-1.69,9,9,0,0,1,3.57-.56h.15v-.29a1.79,1.79,0,0,0-.48-1.34,1.88,1.88,0,0,0-1.37-.47,2.38,2.38,0,0,0-1.29.33,2.15,2.15,0,0,0-.8.89.52.52,0,0,1-.19,0,.71.71,0,0,1-.31-.16.45.45,0,0,1-.13-.35.7.7,0,0,1,.11-.36,1.4,1.4,0,0,1,.3-.4,3,3,0,0,1,1-.59,4,4,0,0,1,1.39-.23,2.84,2.84,0,0,1,2.08.72,2.65,2.65,0,0,1,.73,2v4.24s0,0-.12.07a.69.69,0,0,1-.25,0q-.53,0-.6-.66,0-.4,0-.63a2.46,2.46,0,0,1-1,1,3.09,3.09,0,0,1-1.52.38,2.56,2.56,0,0,1-1.7-.52,1.69,1.69,0,0,1-.62-1.39Zm4.84-1.58-.24,0a7.76,7.76,0,0,0-2.73.4,1.18,1.18,0,0,0-.84,1.13,1,1,0,0,0,.4.85,1.72,1.72,0,0,0,1.09.31,2.59,2.59,0,0,0,1.18-.27,2.23,2.23,0,0,0,.84-.74,1.89,1.89,0,0,0,.3-1Zm6,3.34a.53.53,0,0,1-.43-.17.63.63,0,0,1-.16-.46v-8a.65.65,0,0,1,.16-.46.56.56,0,0,1,.43-.17h2.93a3.51,3.51,0,0,1,2.23.62,2.11,2.11,0,0,1,.78,1.76,2,2,0,0,1-.43,1.3,2.45,2.45,0,0,1-1.26.74,2.75,2.75,0,0,1,1.57.81,2.17,2.17,0,0,1,.52,1.49,2.25,2.25,0,0,1-.84,1.93,4.24,4.24,0,0,1-2.55.63Zm2.85-5.13a2.15,2.15,0,0,0,1.45-.45,1.54,1.54,0,0,0,.52-1.2c0-1.07-.67-1.61-2-1.61h-2.32v3.26Zm.06,4.24a3,3,0,0,0,1.77-.4,1.59,1.59,0,0,0,.54-1.35,1.46,1.46,0,0,0-.57-1.26,2.93,2.93,0,0,0-1.72-.41h-2.44v3.42Z"/><rect class="cls-3" x="68.87" y="283.67" width="51.02" height="51.02"/><rect class="cls-2" x="68.87" y="283.67" width="51.02" height="51.02"/><rect class="cls-1" x="68.87" y="317.69" width="17.01" height="17.01"/><rect class="cls-2" x="68.87" y="317.69" width="17.01" height="17.01"/><rect class="cls-1" x="102.89" y="317.69" width="17.01" height="17.01"/><rect class="cls-2" x="102.89" y="317.69" width="17.01" height="17.01"/><rect class="cls-1" x="68.87" y="283.67" width="17.01" height="17.01"/><rect class="cls-2" x="68.87" y="283.67" width="17.01" height="17.01"/><rect class="cls-1" x="102.89" y="283.67" width="17.01" height="17.01"/><rect class="cls-2" x="102.89" y="283.67" width="17.01" height="17.01"/><rect class="cls-1" x="85.88" y="300.68" width="17.01" height="17.01"/><rect class="cls-2" x="85.88" y="300.68" width="17.01" height="17.01"/><rect class="cls-1" x="256.62" y="283.67" width="51.02" height="51.02"/><rect class="cls-2" x="256.62" y="283.67" width="51.02" height="51.02"/><line class="cls-2" x1="78.44" y1="363.16" x2="333.16" y2="363.16"/><path class="cls-4" d="M331.29,360.77a3.17,3.17,0,0,0,2.07,2.39,3.15,3.15,0,0,0-2.07,2.39"/><line class="cls-2" x1="142.22" y1="360.17" x2="142.22" y2="366.15"/><line class="cls-2" x1="156.39" y1="360.17" x2="156.39" y2="366.15"/><line class="cls-2" x1="170.56" y1="360.17" x2="170.56" y2="366.15"/><line class="cls-2" x1="184.74" y1="360.17" x2="184.74" y2="366.15"/><line class="cls-2" x1="198.91" y1="360.17" x2="198.91" y2="366.15"/><line class="cls-2" x1="213.08" y1="360.17" x2="213.08" y2="366.15"/><line class="cls-2" x1="227.25" y1="360.17" x2="227.25" y2="366.15"/><line class="cls-2" x1="241.42" y1="360.17" x2="241.42" y2="366.15"/><line class="cls-2" x1="255.59" y1="360.17" x2="255.59" y2="366.15"/><line class="cls-2" x1="269.77" y1="360.17" x2="269.77" y2="366.15"/><line class="cls-2" x1="142.22" y1="360.17" x2="142.22" y2="366.15"/><text class="cls-5" transform="translate(138.71 380.37)">0</text><line class="cls-2" x1="269.78" y1="360.17" x2="269.78" y2="366.15"/><text class="cls-5" transform="translate(266.27 380.37)">1</text><line class="cls-2" x1="198.91" y1="360.17" x2="198.91" y2="366.15"/><text class="cls-6" transform="translate(196.42 377.55)">4</text><line class="cls-7" x1="196.42" y1="379.61" x2="201.4" y2="379.61"/><text class="cls-6" transform="translate(196.42 388.14)">9</text><line class="cls-2" x1="213.08" y1="360.17" x2="213.08" y2="366.15"/><text class="cls-6" transform="translate(210.59 377.55)">5</text><line class="cls-7" x1="210.59" y1="379.61" x2="215.57" y2="379.61"/><text class="cls-6" transform="translate(210.59 388.14)">9</text><path d="M40.25,410.55a3,3,0,0,1-1.65-.46,3.11,3.11,0,0,1-1.16-1.27,4.61,4.61,0,0,1,0-3.8,3.13,3.13,0,0,1,1.16-1.28,3.25,3.25,0,0,1,1.7-.45,3,3,0,0,1,1.43.32,2.48,2.48,0,0,1,.93.81v-3.76s.06-.06.17-.1a1,1,0,0,1,.35-.06c.6,0,.91.41.91,1.22v8c0,.45-.22.68-.64.68h-.14c-.42,0-.63-.23-.63-.68v-.53a2.75,2.75,0,0,1-2.43,1.34Zm2.43-4.67a2.18,2.18,0,0,0-2.12-1.42,2,2,0,0,0-1.57.68,2.62,2.62,0,0,0-.59,1.78,2.72,2.72,0,0,0,.28,1.26,2.13,2.13,0,0,0,.75.87,2,2,0,0,0,1.1.32,2.21,2.21,0,0,0,1.07-.27,2,2,0,0,0,.79-.72,1.93,1.93,0,0,0,.29-1Zm3,7.32q-.66,0-.66-.57a.65.65,0,0,1,.09-.32c.06-.1.1-.16.13-.17a3.23,3.23,0,0,0,1.63-.93,4.86,4.86,0,0,0,1-1.79,7.54,7.54,0,0,0,.35-2.33,7.42,7.42,0,0,0-.35-2.29A4.74,4.74,0,0,0,46.87,403a3.32,3.32,0,0,0-1.62-.93.62.62,0,0,1-.13-.19.64.64,0,0,1-.09-.31q0-.57.66-.57a2.62,2.62,0,0,1,1.23.35,4.41,4.41,0,0,1,1.18,1,6.7,6.7,0,0,1,1.18,2.09,8.26,8.26,0,0,1,0,5.29,6.64,6.64,0,0,1-1.14,2.07,4.54,4.54,0,0,1-1.21,1,2.57,2.57,0,0,1-1.25.36Z"/><path d="M71.46,401.71a.63.63,0,0,1,.16-.46.56.56,0,0,1,.43-.17h5c.34,0,.51.14.51.43v.08q0,.45-.51.45H72.54v3.43h3.35c.34,0,.51.14.51.43V406a.42.42,0,0,1-.13.33.56.56,0,0,1-.38.1H72.55v3.52a.48.48,0,0,1-.12.35.45.45,0,0,1-.35.13h-.16c-.31,0-.46-.18-.46-.54Zm7.3-.35a.61.61,0,0,1,.66-.66.64.64,0,0,1,.49.18.65.65,0,0,1,.17.48.63.63,0,0,1-.18.49.69.69,0,0,1-.49.16.68.68,0,0,1-.48-.16.66.66,0,0,1-.17-.49Zm.13,2.6c0-.33.15-.5.46-.5h.12c.3,0,.45.17.45.5v6q0,.48-.45.48h-.12c-.31,0-.46-.16-.46-.48Zm5.21,9.41c-2.13,0-3.2-.62-3.2-1.86a1.54,1.54,0,0,1,.63-1.24,3.66,3.66,0,0,1,1.61-.7.77.77,0,0,1-.43-.69.87.87,0,0,1,.41-.73,2.54,2.54,0,0,1-1.26-.85,2.27,2.27,0,0,1-.47-1.4,2.41,2.41,0,0,1,.36-1.29,2.56,2.56,0,0,1,1-.91,3,3,0,0,1,1.42-.34,2.88,2.88,0,0,1,1.62.47l.51-.77a.75.75,0,0,1,.61-.42.53.53,0,0,1,.3.09,1.39,1.39,0,0,1,.21.21c0,.07.07.12.06.16l-1.13,1.21a2.24,2.24,0,0,1,.61,1.55,2.32,2.32,0,0,1-.35,1.24,2.54,2.54,0,0,1-1,.89,3.2,3.2,0,0,1-1.43.32l-.37,0a.41.41,0,0,0-.17.38.43.43,0,0,0,.3.38,6.09,6.09,0,0,0,1,.31l.53.12c1.37.34,2.05.95,2.05,1.84a1.7,1.7,0,0,1-.9,1.51,5,5,0,0,1-2.54.54Zm0-.74a4.08,4.08,0,0,0,1.78-.32,1,1,0,0,0,.63-.92.82.82,0,0,0-.4-.69,4,4,0,0,0-1.11-.43l-.84-.2a4,4,0,0,0-1.63.47,1.1,1.1,0,0,0-.66.95.9.9,0,0,0,.57.84,3.64,3.64,0,0,0,1.66.3Zm0-5a1.8,1.8,0,0,0,1.27-.47,1.65,1.65,0,0,0,.49-1.25,1.67,1.67,0,0,0-.49-1.26,1.74,1.74,0,0,0-1.29-.48,1.72,1.72,0,0,0-1.26.48,1.84,1.84,0,0,0,0,2.51,1.78,1.78,0,0,0,1.27.47Zm9.74-4.13c.3,0,.46.16.46.49v6.35s0,.05-.13.07a.7.7,0,0,1-.25.05c-.35,0-.55-.23-.6-.68,0-.25,0-.43,0-.56a2.81,2.81,0,0,1-1,1,2.5,2.5,0,0,1-1.38.37,2.4,2.4,0,0,1-2-.81,3.36,3.36,0,0,1-.67-2.18V404c0-.33.16-.49.46-.49H89c.3,0,.46.16.46.49v3.51a2.39,2.39,0,0,0,.47,1.57,1.64,1.64,0,0,0,1.33.57,2.18,2.18,0,0,0,1.27-.37,2.34,2.34,0,0,0,.84-1V404c0-.33.15-.49.45-.49Zm5.08-.1a1.22,1.22,0,0,1,.74.21.64.64,0,0,1,.27.53.76.76,0,0,1-.06.32.42.42,0,0,1-.15.19c-.06.05-.09.06-.1.05a1.1,1.1,0,0,0-.82-.28,1.34,1.34,0,0,0-1.23.74,4.42,4.42,0,0,0-.4,2.08v2.72q0,.48-.45.48h-.11a.42.42,0,0,1-.48-.48v-6.35s0,0,.12-.07a.68.68,0,0,1,.26,0q.53,0,.6.69c0,.32,0,.57,0,.74a2.1,2.1,0,0,1,.66-1.14,1.66,1.66,0,0,1,1.12-.39Zm1.59,5.24a1.77,1.77,0,0,1,1.12-1.69,9,9,0,0,1,3.57-.57h.16v-.28a1.81,1.81,0,0,0-.48-1.35,1.89,1.89,0,0,0-1.37-.46,2.39,2.39,0,0,0-1.3.33,2.09,2.09,0,0,0-.8.89.52.52,0,0,1-.19,0,.73.73,0,0,1-.3-.16.45.45,0,0,1-.14-.35.85.85,0,0,1,.11-.37,1.24,1.24,0,0,1,.31-.39,2.8,2.8,0,0,1,1-.59,4,4,0,0,1,1.39-.23,2.83,2.83,0,0,1,2.08.72,2.64,2.64,0,0,1,.74,2v4.23s0,.05-.13.07a.7.7,0,0,1-.25.05q-.53,0-.6-.66,0-.4,0-.63a2.52,2.52,0,0,1-1,1,3.06,3.06,0,0,1-1.52.37,2.63,2.63,0,0,1-1.7-.51,1.74,1.74,0,0,1-.62-1.39Zm4.85-1.58h-.25a8,8,0,0,0-2.73.4,1.2,1.2,0,0,0-.84,1.14,1,1,0,0,0,.4.84,1.72,1.72,0,0,0,1.09.32,2.56,2.56,0,0,0,1.18-.27,2.32,2.32,0,0,0,.84-.74,1.89,1.89,0,0,0,.31-1Zm5,3.38a.76.76,0,0,1-.39-.13c-.11-.07-.16-.13-.14-.18l3.33-8.73a.46.46,0,0,1,.24-.27,1.8,1.8,0,0,1,1.06,0,.46.46,0,0,1,.24.27l3.35,8.73q0,.07-.15.18a.83.83,0,0,1-.41.13c-.32,0-.54-.14-.68-.5l-1-2.52H112.1l-1,2.54a.66.66,0,0,1-.26.4.57.57,0,0,1-.38.08Zm5.19-3.91L114,402.13l-1.65,4.36Z"/><path d="M259.24,401.71a.67.67,0,0,1,.16-.46.58.58,0,0,1,.43-.17h5c.33,0,.5.14.5.43v.08c0,.3-.17.45-.5.45h-4.55v3.43h3.36c.33,0,.5.14.5.43V406a.42.42,0,0,1-.12.33.59.59,0,0,1-.38.1h-3.35v3.52a.48.48,0,0,1-.12.35.45.45,0,0,1-.35.13h-.16c-.3,0-.46-.18-.46-.54Zm7.31-.35a.61.61,0,0,1,.17-.48.63.63,0,0,1,.49-.18.62.62,0,0,1,.66.66.63.63,0,0,1-.18.49.72.72,0,0,1-.5.16.64.64,0,0,1-.47-.16.62.62,0,0,1-.17-.49Zm.12,2.6c0-.33.16-.5.46-.5h.12c.3,0,.46.17.46.5v6a.42.42,0,0,1-.46.48h-.12a.42.42,0,0,1-.46-.48Zm5.21,9.41c-2.13,0-3.2-.62-3.2-1.86a1.54,1.54,0,0,1,.63-1.24,3.66,3.66,0,0,1,1.61-.7.77.77,0,0,1-.43-.69.86.86,0,0,1,.42-.73,2.52,2.52,0,0,1-1.27-.85,2.27,2.27,0,0,1-.47-1.4,2.41,2.41,0,0,1,.36-1.29,2.52,2.52,0,0,1,1-.91,3.06,3.06,0,0,1,3,.13l.52-.77a.72.72,0,0,1,.6-.42.53.53,0,0,1,.3.09.84.84,0,0,1,.21.21c.05.07.07.12.06.16l-1.13,1.21a2.28,2.28,0,0,1,.26,2.79,2.48,2.48,0,0,1-1,.89,3.17,3.17,0,0,1-1.43.32l-.37,0a.44.44,0,0,0,.13.76,6.41,6.41,0,0,0,1,.31l.53.12c1.37.34,2.06.95,2.06,1.84a1.71,1.71,0,0,1-.91,1.51,5,5,0,0,1-2.54.54Zm0-.74a4,4,0,0,0,1.78-.32,1,1,0,0,0,.63-.92.8.8,0,0,0-.4-.69,4,4,0,0,0-1.11-.43l-.84-.2a4,4,0,0,0-1.62.47,1.1,1.1,0,0,0-.66.95.91.91,0,0,0,.56.84,3.64,3.64,0,0,0,1.66.3Zm0-5a1.78,1.78,0,0,0,1.27-.47,1.65,1.65,0,0,0,.49-1.25,1.7,1.7,0,0,0-.48-1.26,1.77,1.77,0,0,0-1.29-.48,1.74,1.74,0,0,0-1.27.48,1.71,1.71,0,0,0-.49,1.26,1.66,1.66,0,0,0,.5,1.25,1.78,1.78,0,0,0,1.27.47Zm9.74-4.13c.31,0,.46.16.46.49v6.35s0,.05-.12.07a.74.74,0,0,1-.25.05c-.36,0-.56-.23-.61-.68,0-.25,0-.43,0-.56a2.9,2.9,0,0,1-1,1,2.56,2.56,0,0,1-1.39.37,2.4,2.4,0,0,1-2-.81,3.36,3.36,0,0,1-.66-2.18V404c0-.33.15-.49.46-.49h.11c.31,0,.46.16.46.49v3.51a2.39,2.39,0,0,0,.47,1.57,1.65,1.65,0,0,0,1.34.57,2.2,2.2,0,0,0,1.27-.37,2.34,2.34,0,0,0,.84-1V404c0-.33.14-.49.44-.49Zm5.08-.1a1.2,1.2,0,0,1,.74.21.65.65,0,0,1,.28.53.63.63,0,0,1-.07.32.42.42,0,0,1-.15.19c-.05.05-.09.06-.1.05a1.1,1.1,0,0,0-.82-.28,1.32,1.32,0,0,0-1.22.74,4.41,4.41,0,0,0-.41,2.08v2.72q0,.48-.45.48h-.11a.42.42,0,0,1-.47-.48v-6.35s0,0,.11-.07a.71.71,0,0,1,.26,0q.52,0,.6.69c0,.32,0,.57,0,.74a2.1,2.1,0,0,1,.66-1.14,1.68,1.68,0,0,1,1.12-.39Zm1.61,5.24a1.77,1.77,0,0,1,1.12-1.69,9,9,0,0,1,3.57-.57h.15v-.28a1.81,1.81,0,0,0-.48-1.35,1.88,1.88,0,0,0-1.37-.46,2.38,2.38,0,0,0-1.29.33,2.09,2.09,0,0,0-.8.89.52.52,0,0,1-.19,0,.84.84,0,0,1-.31-.16.45.45,0,0,1-.13-.35.73.73,0,0,1,.11-.37,1.36,1.36,0,0,1,.3-.39,2.84,2.84,0,0,1,1-.59,4,4,0,0,1,1.39-.23,2.84,2.84,0,0,1,2.08.72,2.64,2.64,0,0,1,.73,2v4.23s0,.05-.12.07a.7.7,0,0,1-.25.05q-.53,0-.6-.66,0-.4,0-.63a2.52,2.52,0,0,1-1,1,3.08,3.08,0,0,1-1.52.37A2.61,2.61,0,0,1,289,410a1.71,1.71,0,0,1-.62-1.39Zm4.84-1.58H293a8,8,0,0,0-2.73.4,1.2,1.2,0,0,0-.84,1.14,1,1,0,0,0,.4.84,1.72,1.72,0,0,0,1.09.32,2.59,2.59,0,0,0,1.18-.27,2.32,2.32,0,0,0,.84-.74,1.89,1.89,0,0,0,.3-1Zm6,3.34a.56.56,0,0,1-.43-.17.65.65,0,0,1-.16-.46v-8a.63.63,0,0,1,.16-.46.56.56,0,0,1,.43-.17h2.93a3.51,3.51,0,0,1,2.23.61,2.13,2.13,0,0,1,.78,1.77,2,2,0,0,1-.43,1.3,2.52,2.52,0,0,1-1.26.74,2.75,2.75,0,0,1,1.57.81,2.14,2.14,0,0,1,.52,1.48,2.27,2.27,0,0,1-.84,1.94,4.24,4.24,0,0,1-2.55.63Zm2.85-5.14a2.15,2.15,0,0,0,1.45-.45,1.53,1.53,0,0,0,.52-1.2c0-1.07-.67-1.6-2-1.6h-2.32v3.25Zm.06,4.25a3,3,0,0,0,1.77-.41,1.57,1.57,0,0,0,.54-1.34,1.46,1.46,0,0,0-.57-1.26,2.93,2.93,0,0,0-1.72-.42h-2.44v3.43Z"/><polyline class="cls-1" points="94.39 445.55 94.39 415.79 68.61 430.67 68.61 460.44"/><polygon class="cls-3" points="94.39 445.55 94.39 415.79 120.16 430.67 120.16 460.44 94.39 475.32 68.61 460.44 94.39 445.55"/><line class="cls-2" x1="120.16" y1="430.67" x2="94.38" y2="415.79"/><line class="cls-2" x1="94.38" y1="445.55" x2="120.16" y2="430.67"/><line class="cls-2" x1="94.38" y1="415.79" x2="68.61" y2="430.67"/><line class="cls-2" x1="94.38" y1="445.55" x2="94.38" y2="415.79"/><line class="cls-2" x1="68.61" y1="430.67" x2="68.61" y2="460.43"/><line class="cls-2" x1="94.38" y1="445.55" x2="68.61" y2="430.67"/><line class="cls-2" x1="68.61" y1="460.43" x2="94.38" y2="475.32"/><line class="cls-2" x1="94.38" y1="445.55" x2="68.61" y2="460.43"/><line class="cls-2" x1="94.38" y1="475.32" x2="120.16" y2="460.43"/><line class="cls-2" x1="94.38" y1="445.55" x2="94.38" y2="475.32"/><line class="cls-2" x1="120.16" y1="460.43" x2="120.16" y2="430.67"/><line class="cls-2" x1="94.38" y1="445.55" x2="120.16" y2="460.43"/><polygon class="cls-1" points="307.91 430.67 282.13 415.79 282.13 445.55 307.91 430.67"/><polygon class="cls-8" points="307.91 430.67 282.13 415.79 282.13 445.55 307.91 430.67"/><line class="cls-1" x1="307.91" y1="430.67" x2="282.13" y2="415.79"/><line class="cls-2" x1="307.91" y1="430.67" x2="282.13" y2="415.79"/><polygon class="cls-1" points="282.13 415.79 256.36 430.67 282.13 445.55 282.13 415.79"/><polygon class="cls-8" points="282.13 415.79 256.36 430.67 282.13 445.55 282.13 415.79"/><line class="cls-1" x1="282.13" y1="415.79" x2="256.36" y2="430.67"/><line class="cls-2" x1="282.13" y1="415.79" x2="256.36" y2="430.67"/><polygon class="cls-1" points="256.36 430.67 256.36 460.44 282.13 445.55 256.36 430.67"/><polygon class="cls-8" points="256.36 430.67 256.36 460.44 282.13 445.55 256.36 430.67"/><line class="cls-2" x1="256.36" y1="430.67" x2="256.36" y2="460.43"/><polygon class="cls-1" points="256.36 460.44 282.13 475.32 282.13 445.55 256.36 460.44"/><polygon class="cls-8" points="256.36 460.44 282.13 475.32 282.13 445.55 256.36 460.44"/><line class="cls-1" x1="256.36" y1="460.43" x2="282.13" y2="475.32"/><line class="cls-2" x1="256.36" y1="460.43" x2="282.13" y2="475.32"/><polygon class="cls-1" points="282.13 475.32 307.91 460.44 282.13 445.55 282.13 475.32"/><polygon class="cls-8" points="282.13 475.32 307.91 460.44 282.13 445.55 282.13 475.32"/><line class="cls-1" x1="282.13" y1="475.32" x2="307.91" y2="460.43"/><line class="cls-2" x1="282.13" y1="475.32" x2="307.91" y2="460.43"/><polygon class="cls-1" points="307.91 460.44 307.91 430.67 282.13 445.55 307.91 460.44"/><polygon class="cls-8" points="307.91 460.44 307.91 430.67 282.13 445.55 307.91 460.44"/><line class="cls-2" x1="307.91" y1="460.43" x2="307.91" y2="430.67"/><line class="cls-2" x1="77.5" y1="503.78" x2="334.11" y2="503.78"/><path class="cls-4" d="M332.23,501.39a3.17,3.17,0,0,0,2.07,2.39,3.15,3.15,0,0,0-2.07,2.39"/><line class="cls-2" x1="109.62" y1="500.79" x2="109.62" y2="506.77"/><line class="cls-2" x1="141.75" y1="500.79" x2="141.75" y2="506.77"/><line class="cls-2" x1="173.89" y1="500.79" x2="173.89" y2="506.77"/><line class="cls-2" x1="206.02" y1="500.79" x2="206.02" y2="506.77"/><line class="cls-2" x1="238.15" y1="500.79" x2="238.15" y2="506.77"/><line class="cls-2" x1="270.29" y1="500.79" x2="270.29" y2="506.77"/><line class="cls-2" x1="109.62" y1="500.79" x2="109.62" y2="506.77"/><text class="cls-5" transform="translate(106.11 520.99)">0</text><line class="cls-2" x1="302.38" y1="500.79" x2="302.38" y2="506.77"/><text class="cls-5" transform="translate(298.87 520.99)">1</text><line class="cls-2" x1="173.87" y1="500.79" x2="173.87" y2="506.77"/><text class="cls-6" transform="translate(171.38 518.17)">1</text><line class="cls-7" x1="171.38" y1="520.23" x2="176.36" y2="520.23"/><text class="cls-6" transform="translate(171.38 528.76)">3</text><line class="cls-2" x1="238.12" y1="500.79" x2="238.12" y2="506.77"/><text class="cls-6" transform="translate(235.63 518.17)">2</text><line class="cls-7" x1="235.63" y1="520.23" x2="240.61" y2="520.23"/><text class="cls-6" transform="translate(235.63 528.76)">3</text><path d="M37,547.57a3.82,3.82,0,0,1,.46-1.88,3.31,3.31,0,0,1,1.26-1.31,3.44,3.44,0,0,1,1.81-.47,3.37,3.37,0,0,1,1.73.43,3.05,3.05,0,0,1,1.16,1.23,3.81,3.81,0,0,1,.42,1.81v.11a.48.48,0,0,1-.09.33.51.51,0,0,1-.34.09H38.35a1.7,1.7,0,0,0,0,.26,2.19,2.19,0,0,0,.78,1.36,2.3,2.3,0,0,0,1.54.52,2.7,2.7,0,0,0,1.35-.31,2.44,2.44,0,0,0,.82-.84s.09,0,.22,0a1,1,0,0,1,.36.22.61.61,0,0,1,.16.44.87.87,0,0,1-.2.5,2,2,0,0,1-.56.51,4,4,0,0,1-2.18.56,3.79,3.79,0,0,1-1.9-.46,3.13,3.13,0,0,1-1.28-1.27,3.7,3.7,0,0,1-.46-1.87Zm5.46-.62a2.24,2.24,0,0,0-.57-1.44,1.85,1.85,0,0,0-1.38-.53,2.07,2.07,0,0,0-1.45.56,2.3,2.3,0,0,0-.73,1.41Zm2.56,6.87q-.66,0-.66-.57a.63.63,0,0,1,.08-.32c.06-.1.1-.16.13-.17a3.19,3.19,0,0,0,1.63-.93,4.86,4.86,0,0,0,1-1.79,7.25,7.25,0,0,0,.36-2.33,7.14,7.14,0,0,0-.36-2.29,4.74,4.74,0,0,0-1.05-1.79,3.32,3.32,0,0,0-1.62-.93.8.8,0,0,1-.21-.5q0-.57.66-.57a2.56,2.56,0,0,1,1.22.35,4.45,4.45,0,0,1,1.19,1,6.69,6.69,0,0,1,1.17,2.09,7.58,7.58,0,0,1,.45,2.64,8,8,0,0,1-.43,2.65,6.66,6.66,0,0,1-1.15,2.07,4.39,4.39,0,0,1-1.21,1,2.54,2.54,0,0,1-1.24.36Z"/><path d="M71.46,542.33a.63.63,0,0,1,.16-.46.56.56,0,0,1,.43-.17h5c.34,0,.51.14.51.43v.08q0,.45-.51.45H72.54v3.43h3.35c.34,0,.51.14.51.43v.07a.42.42,0,0,1-.13.33.56.56,0,0,1-.38.1H72.55v3.52a.48.48,0,0,1-.12.35.45.45,0,0,1-.35.13h-.16c-.31,0-.46-.18-.46-.54Zm7.3-.35a.61.61,0,0,1,.66-.66.64.64,0,0,1,.49.18.65.65,0,0,1,.17.48.63.63,0,0,1-.18.49.69.69,0,0,1-.49.16.68.68,0,0,1-.48-.16.66.66,0,0,1-.17-.49Zm.13,2.6c0-.33.15-.5.46-.5h.12c.3,0,.45.17.45.5v6q0,.48-.45.48h-.12c-.31,0-.46-.16-.46-.48ZM84.1,554c-2.13,0-3.2-.62-3.2-1.86a1.54,1.54,0,0,1,.63-1.24,3.66,3.66,0,0,1,1.61-.7.77.77,0,0,1-.43-.69.87.87,0,0,1,.41-.73,2.54,2.54,0,0,1-1.26-.85,2.27,2.27,0,0,1-.47-1.4,2.41,2.41,0,0,1,.36-1.29,2.56,2.56,0,0,1,1-.91,3,3,0,0,1,1.42-.34,2.88,2.88,0,0,1,1.62.47l.51-.77a.75.75,0,0,1,.61-.42.53.53,0,0,1,.3.09,1.39,1.39,0,0,1,.21.21c0,.07.07.12.06.16l-1.13,1.21a2.24,2.24,0,0,1,.61,1.55,2.32,2.32,0,0,1-.35,1.24,2.54,2.54,0,0,1-1,.89,3.2,3.2,0,0,1-1.43.32l-.37,0a.41.41,0,0,0-.17.38.43.43,0,0,0,.3.38,6.09,6.09,0,0,0,1,.31l.53.12c1.37.34,2.05.95,2.05,1.84a1.7,1.7,0,0,1-.9,1.51,5,5,0,0,1-2.54.54Zm0-.74a4.08,4.08,0,0,0,1.78-.32,1,1,0,0,0,.63-.92.82.82,0,0,0-.4-.69,4,4,0,0,0-1.11-.43l-.84-.2a4,4,0,0,0-1.63.47,1.1,1.1,0,0,0-.66,1,.9.9,0,0,0,.57.84,3.64,3.64,0,0,0,1.66.3Zm0-5a1.8,1.8,0,0,0,1.27-.47,1.65,1.65,0,0,0,.49-1.25,1.67,1.67,0,0,0-.49-1.26,1.74,1.74,0,0,0-1.29-.48,1.72,1.72,0,0,0-1.26.48,1.84,1.84,0,0,0,0,2.51,1.78,1.78,0,0,0,1.27.47Zm9.74-4.13c.3,0,.46.16.46.49v6.35s0,.05-.13.07a.7.7,0,0,1-.25,0c-.35,0-.55-.23-.6-.68,0-.25,0-.43,0-.56a2.81,2.81,0,0,1-1,1,2.5,2.5,0,0,1-1.38.37,2.4,2.4,0,0,1-2-.81,3.36,3.36,0,0,1-.67-2.18v-3.58c0-.33.16-.49.46-.49H89c.3,0,.46.16.46.49v3.51a2.39,2.39,0,0,0,.47,1.57,1.64,1.64,0,0,0,1.33.57,2.18,2.18,0,0,0,1.27-.37,2.34,2.34,0,0,0,.84-1v-4.26c0-.33.15-.49.45-.49ZM99,544a1.22,1.22,0,0,1,.74.21.64.64,0,0,1,.27.53.76.76,0,0,1-.06.32.42.42,0,0,1-.15.19c-.06,0-.09.06-.1,0a1.1,1.1,0,0,0-.82-.28,1.34,1.34,0,0,0-1.23.74,4.42,4.42,0,0,0-.4,2.08v2.72q0,.48-.45.48h-.11a.42.42,0,0,1-.48-.48v-6.35s0,0,.12-.07a.68.68,0,0,1,.26,0q.53,0,.6.69c0,.32,0,.57,0,.74a2.1,2.1,0,0,1,.66-1.14A1.66,1.66,0,0,1,99,544Zm1.59,5.24a1.77,1.77,0,0,1,1.12-1.69,9,9,0,0,1,3.57-.57h.16v-.28a1.81,1.81,0,0,0-.48-1.35,1.89,1.89,0,0,0-1.37-.46,2.39,2.39,0,0,0-1.3.33,2.09,2.09,0,0,0-.8.89.52.52,0,0,1-.19,0,.73.73,0,0,1-.3-.16.45.45,0,0,1-.14-.35.85.85,0,0,1,.11-.37,1.24,1.24,0,0,1,.31-.39,2.8,2.8,0,0,1,1-.59,4,4,0,0,1,1.39-.23,2.83,2.83,0,0,1,2.08.72,2.64,2.64,0,0,1,.74,2v4.23s0,.05-.13.07a.7.7,0,0,1-.25,0q-.53,0-.6-.66,0-.4,0-.63a2.52,2.52,0,0,1-1,1,3.06,3.06,0,0,1-1.52.37,2.63,2.63,0,0,1-1.7-.51,1.74,1.74,0,0,1-.62-1.39Zm4.85-1.58h-.25a8,8,0,0,0-2.73.4,1.2,1.2,0,0,0-.84,1.14,1,1,0,0,0,.4.84,1.72,1.72,0,0,0,1.09.32,2.56,2.56,0,0,0,1.18-.27,2.32,2.32,0,0,0,.84-.74,1.89,1.89,0,0,0,.31-1Zm5,3.38a.76.76,0,0,1-.39-.13c-.11-.07-.16-.13-.14-.18l3.33-8.73a.46.46,0,0,1,.24-.27,1.8,1.8,0,0,1,1.06,0,.46.46,0,0,1,.24.27l3.35,8.73s0,.11-.15.18a.83.83,0,0,1-.41.13c-.32,0-.54-.14-.68-.5L116,548H112.1l-1,2.54a.66.66,0,0,1-.26.4.57.57,0,0,1-.38.08Zm5.19-3.91L114,542.75l-1.65,4.36Zm46-4.78a.67.67,0,0,1,.16-.46.58.58,0,0,1,.43-.17h5c.33,0,.5.14.5.43v.08c0,.3-.17.45-.5.45H162.7v3.43h3.36c.33,0,.5.14.5.43v.07a.42.42,0,0,1-.12.33.58.58,0,0,1-.38.1h-3.35v3.52a.48.48,0,0,1-.12.35.45.45,0,0,1-.35.13h-.16c-.3,0-.46-.18-.46-.54Zm7.31-.35a.61.61,0,0,1,.17-.48.64.64,0,0,1,.49-.18.62.62,0,0,1,.66.66.63.63,0,0,1-.18.49.72.72,0,0,1-.5.16.64.64,0,0,1-.47-.16.62.62,0,0,1-.17-.49Zm.13,2.6c0-.33.15-.5.45-.5h.12c.31,0,.46.17.46.5v6c0,.32-.15.48-.46.48h-.12q-.45,0-.45-.48Zm5.2,9.41c-2.13,0-3.2-.62-3.2-1.86a1.52,1.52,0,0,1,.64-1.24,3.62,3.62,0,0,1,1.6-.7.79.79,0,0,1-.43-.69.86.86,0,0,1,.42-.73,2.45,2.45,0,0,1-1.26-.85,2.22,2.22,0,0,1-.48-1.4,2.41,2.41,0,0,1,.36-1.29,2.52,2.52,0,0,1,1-.91,3.06,3.06,0,0,1,3,.13l.52-.77a.72.72,0,0,1,.6-.42.49.49,0,0,1,.3.09.84.84,0,0,1,.21.21c.05.07.07.12.06.16l-1.13,1.21a2.28,2.28,0,0,1,.26,2.79,2.48,2.48,0,0,1-1,.89,3.15,3.15,0,0,1-1.42.32l-.38,0a.44.44,0,0,0,.13.76,6.41,6.41,0,0,0,1,.31l.54.12c1.36.34,2.05.95,2.05,1.84a1.69,1.69,0,0,1-.91,1.51,5,5,0,0,1-2.54.54Zm0-.74a4,4,0,0,0,1.78-.32,1,1,0,0,0,.63-.92.8.8,0,0,0-.4-.69,4,4,0,0,0-1.1-.43l-.85-.2a4,4,0,0,0-1.62.47,1.1,1.1,0,0,0-.66,1,.9.9,0,0,0,.57.84,3.6,3.6,0,0,0,1.65.3Zm0-5a1.78,1.78,0,0,0,1.27-.47,1.66,1.66,0,0,0,.5-1.25,1.71,1.71,0,0,0-.49-1.26,1.77,1.77,0,0,0-1.29-.48,1.74,1.74,0,0,0-1.27.48,1.7,1.7,0,0,0-.48,1.26,1.65,1.65,0,0,0,.49,1.25,1.78,1.78,0,0,0,1.27.47Zm9.74-4.13c.31,0,.46.16.46.49v6.35s0,.05-.12.07a.74.74,0,0,1-.25,0c-.36,0-.56-.23-.6-.68,0-.25,0-.43,0-.56a2.81,2.81,0,0,1-1,1,2.56,2.56,0,0,1-1.39.37,2.37,2.37,0,0,1-1.95-.81,3.3,3.3,0,0,1-.67-2.18v-3.58c0-.33.15-.49.46-.49h.11c.31,0,.46.16.46.49v3.51a2.34,2.34,0,0,0,.48,1.57,1.63,1.63,0,0,0,1.33.57,2.2,2.2,0,0,0,1.27-.37,2.34,2.34,0,0,0,.84-1v-4.26c0-.33.15-.49.44-.49Zm5.08-.1a1.2,1.2,0,0,1,.74.21.62.62,0,0,1,.28.53.63.63,0,0,1-.07.32.42.42,0,0,1-.15.19c-.05,0-.09.06-.1,0A1.09,1.09,0,0,0,189,545a1.32,1.32,0,0,0-1.23.74,4.41,4.41,0,0,0-.41,2.08v2.72c0,.32-.15.48-.44.48h-.12a.42.42,0,0,1-.47-.48v-6.35s0,0,.11-.07a.71.71,0,0,1,.26,0c.35,0,.56.23.6.69s0,.57,0,.74a2.23,2.23,0,0,1,.66-1.14,1.68,1.68,0,0,1,1.12-.39Zm1.61,5.24a1.77,1.77,0,0,1,1.12-1.69,9,9,0,0,1,3.57-.57h.16v-.28a1.81,1.81,0,0,0-.48-1.35,1.89,1.89,0,0,0-1.37-.46,2.39,2.39,0,0,0-1.3.33,2.09,2.09,0,0,0-.8.89.52.52,0,0,1-.19,0,.73.73,0,0,1-.3-.16.45.45,0,0,1-.14-.35.85.85,0,0,1,.11-.37,1.24,1.24,0,0,1,.31-.39,2.71,2.71,0,0,1,1-.59,4,4,0,0,1,1.39-.23,2.83,2.83,0,0,1,2.08.72,2.64,2.64,0,0,1,.74,2v4.23s-.05.05-.13.07a.7.7,0,0,1-.25,0q-.53,0-.6-.66,0-.4,0-.63a2.52,2.52,0,0,1-1,1,3.06,3.06,0,0,1-1.52.37,2.61,2.61,0,0,1-1.7-.51,1.74,1.74,0,0,1-.62-1.39Zm4.85-1.58h-.25a8,8,0,0,0-2.73.4,1.2,1.2,0,0,0-.84,1.14,1,1,0,0,0,.4.84,1.72,1.72,0,0,0,1.09.32,2.59,2.59,0,0,0,1.18-.27,2.32,2.32,0,0,0,.84-.74,1.89,1.89,0,0,0,.31-1Zm6,3.34a.56.56,0,0,1-.43-.17.65.65,0,0,1-.16-.46v-8a.63.63,0,0,1,.16-.46.56.56,0,0,1,.43-.17h2.93a3.51,3.51,0,0,1,2.23.61,2.13,2.13,0,0,1,.78,1.77,1.92,1.92,0,0,1-.43,1.3,2.52,2.52,0,0,1-1.26.74,2.75,2.75,0,0,1,1.57.81,2.14,2.14,0,0,1,.52,1.48,2.27,2.27,0,0,1-.84,1.94,4.22,4.22,0,0,1-2.54.63Zm2.86-5.14a2.14,2.14,0,0,0,1.44-.45,1.5,1.5,0,0,0,.52-1.2c0-1.07-.67-1.6-2-1.6H202v3.25Zm.05,4.25a3,3,0,0,0,1.77-.41,1.57,1.57,0,0,0,.54-1.34,1.46,1.46,0,0,0-.57-1.26,2.91,2.91,0,0,0-1.72-.42H202v3.43Z"/><path d="M258.91,542.33a.67.67,0,0,1,.15-.46.58.58,0,0,1,.43-.17h5c.33,0,.5.14.5.43v.08c0,.3-.17.45-.5.45H260v3.43h3.36c.33,0,.5.14.5.43v.07a.42.42,0,0,1-.12.33.58.58,0,0,1-.38.1H260v3.52a.45.45,0,0,1-.13.35.43.43,0,0,1-.35.13h-.15c-.31,0-.46-.18-.46-.54Zm7.3-.35a.66.66,0,1,1,1.32,0,.63.63,0,0,1-.18.49.72.72,0,0,1-.5.16.58.58,0,0,1-.64-.65Zm.13,2.6c0-.33.15-.5.46-.5h.11c.31,0,.46.17.46.5v6c0,.32-.15.48-.46.48h-.11c-.31,0-.46-.16-.46-.48Zm5.21,9.41c-2.14,0-3.2-.62-3.2-1.86a1.54,1.54,0,0,1,.63-1.24,3.62,3.62,0,0,1,1.6-.7.79.79,0,0,1-.43-.69.86.86,0,0,1,.42-.73,2.45,2.45,0,0,1-1.26-.85,2.22,2.22,0,0,1-.48-1.4,2.41,2.41,0,0,1,.36-1.29,2.52,2.52,0,0,1,1-.91,2.91,2.91,0,0,1,1.41-.34,2.88,2.88,0,0,1,1.62.47l.52-.77a.72.72,0,0,1,.6-.42.49.49,0,0,1,.3.09.84.84,0,0,1,.21.21c0,.07.08.12.07.16l-1.14,1.21a2.28,2.28,0,0,1,.26,2.79,2.48,2.48,0,0,1-1,.89,3.15,3.15,0,0,1-1.42.32l-.38,0a.44.44,0,0,0,.13.76,6.28,6.28,0,0,0,1,.31l.53.12c1.36.34,2.05.95,2.05,1.84a1.69,1.69,0,0,1-.91,1.51,4.93,4.93,0,0,1-2.53.54Zm0-.74a4,4,0,0,0,1.78-.32A1,1,0,0,0,274,552a.8.8,0,0,0-.4-.69,3.87,3.87,0,0,0-1.1-.43l-.85-.2a4,4,0,0,0-1.62.47,1.1,1.1,0,0,0-.66,1,.9.9,0,0,0,.57.84,3.6,3.6,0,0,0,1.65.3Zm0-5a1.78,1.78,0,0,0,1.27-.47,1.66,1.66,0,0,0,.5-1.25,1.71,1.71,0,0,0-.49-1.26,1.77,1.77,0,0,0-1.29-.48,1.7,1.7,0,0,0-1.26.48,1.67,1.67,0,0,0-.49,1.26,1.65,1.65,0,0,0,.49,1.25,1.8,1.8,0,0,0,1.27.47Zm9.74-4.13c.31,0,.46.16.46.49v6.35s0,.05-.12.07a.7.7,0,0,1-.25,0c-.35,0-.56-.23-.6-.68,0-.25,0-.43,0-.56a2.81,2.81,0,0,1-1,1,2.55,2.55,0,0,1-1.38.37,2.38,2.38,0,0,1-2-.81,3.3,3.3,0,0,1-.67-2.18v-3.58c0-.33.15-.49.46-.49h.11c.31,0,.46.16.46.49v3.51a2.34,2.34,0,0,0,.48,1.57,1.63,1.63,0,0,0,1.33.57,2.2,2.2,0,0,0,1.27-.37,2.34,2.34,0,0,0,.84-1v-4.26c0-.33.15-.49.44-.49Zm5.08-.1a1.2,1.2,0,0,1,.74.21.62.62,0,0,1,.28.53.76.76,0,0,1-.06.32.63.63,0,0,1-.15.19c-.06,0-.1.06-.1,0a1.13,1.13,0,0,0-.82-.28,1.32,1.32,0,0,0-1.23.74,4.41,4.41,0,0,0-.41,2.08v2.72c0,.32-.15.48-.44.48h-.12a.42.42,0,0,1-.47-.48v-6.35s0,0,.11-.07a.75.75,0,0,1,.26,0q.54,0,.6.69c0,.32,0,.57,0,.74a2.23,2.23,0,0,1,.66-1.14,1.68,1.68,0,0,1,1.12-.39Zm1.61,5.24a1.76,1.76,0,0,1,1.13-1.69,9,9,0,0,1,3.56-.57h.16v-.28a1.81,1.81,0,0,0-.48-1.35,1.89,1.89,0,0,0-1.37-.46,2.39,2.39,0,0,0-1.3.33,2.09,2.09,0,0,0-.8.89.52.52,0,0,1-.19,0,.73.73,0,0,1-.3-.16.45.45,0,0,1-.14-.35.85.85,0,0,1,.11-.37,1.24,1.24,0,0,1,.31-.39,2.8,2.8,0,0,1,1-.59,4,4,0,0,1,1.39-.23,2.83,2.83,0,0,1,2.08.72,2.64,2.64,0,0,1,.74,2v4.23s0,.05-.13.07a.7.7,0,0,1-.25,0q-.52,0-.6-.66,0-.4,0-.63a2.52,2.52,0,0,1-1,1,3.06,3.06,0,0,1-1.52.37,2.63,2.63,0,0,1-1.7-.51,1.74,1.74,0,0,1-.62-1.39Zm4.85-1.58h-.25a8,8,0,0,0-2.73.4,1.2,1.2,0,0,0-.84,1.14,1,1,0,0,0,.4.84,1.72,1.72,0,0,0,1.09.32,2.56,2.56,0,0,0,1.18-.27,2.32,2.32,0,0,0,.84-.74,1.82,1.82,0,0,0,.31-1Zm5-1.28a5.33,5.33,0,0,1,.57-2.5,4.25,4.25,0,0,1,1.61-1.7,4.9,4.9,0,0,1,4-.35,3.49,3.49,0,0,1,1.17.69,2,2,0,0,1,.45.53,1.06,1.06,0,0,1,.17.49.53.53,0,0,1-.15.39.75.75,0,0,1-.32.21c-.12,0-.19,0-.21,0a2.76,2.76,0,0,0-1.1-1.2,3.15,3.15,0,0,0-1.65-.45,3.32,3.32,0,0,0-1.78.48,3.21,3.21,0,0,0-1.2,1.37,4.87,4.87,0,0,0,0,4,3.26,3.26,0,0,0,3,1.85,3,3,0,0,0,1.8-.52,2.64,2.64,0,0,0,1-1.33s.08,0,.21,0a.88.88,0,0,1,.35.2.5.5,0,0,1,.16.38,1.19,1.19,0,0,1-.19.57,2.52,2.52,0,0,1-.52.64,3.63,3.63,0,0,1-1.2.71,4.86,4.86,0,0,1-1.66.28,4.58,4.58,0,0,1-2.36-.6,4.17,4.17,0,0,1-1.6-1.7,5.24,5.24,0,0,1-.56-2.48Z"/><rect class="cls-1" x="62.49" y="556.41" width="42.52" height="51.02"/><rect class="cls-2" x="62.49" y="556.41" width="42.52" height="51.02"/><rect class="cls-3" x="105.01" y="556.41" width="21.26" height="51.02"/><rect class="cls-2" x="105.01" y="556.41" width="21.26" height="51.02"/><line class="cls-2" x1="83.75" y1="607.43" x2="83.75" y2="556.41"/><rect class="cls-3" x="152.63" y="556.41" width="21.26" height="51.02"/><rect class="cls-2" x="152.63" y="556.41" width="21.26" height="51.02"/><rect class="cls-3" x="173.89" y="556.41" width="42.52" height="51.02"/><rect class="cls-2" x="173.89" y="556.41" width="42.52" height="51.02"/><line class="cls-2" x1="199.4" y1="607.43" x2="199.4" y2="556.41"/><rect class="cls-1" x="250.24" y="556.41" width="63.78" height="51.02"/><rect class="cls-2" x="250.24" y="556.41" width="63.78" height="51.02"/><line class="cls-2" x1="271.5" y1="607.43" x2="271.5" y2="556.41"/><line class="cls-2" x1="292.76" y1="607.43" x2="292.76" y2="556.41"/><line class="cls-2" x1="76.34" y1="635.89" x2="335.26" y2="635.89"/><path class="cls-4" d="M333.39,633.5a2.41,2.41,0,0,1,0,4.78"/><line class="cls-2" x1="128.31" y1="632.9" x2="128.31" y2="638.88"/><text class="cls-5" transform="translate(124.79 653.11)">0</text><line class="cls-2" x1="284.21" y1="632.9" x2="284.21" y2="638.88"/><text class="cls-5" transform="translate(280.7 653.11)">1</text><line class="cls-2" x1="180.27" y1="632.9" x2="180.27" y2="638.88"/><text class="cls-6" transform="translate(177.78 650.28)">1</text><line class="cls-7" x1="177.78" y1="652.35" x2="182.76" y2="652.35"/><text class="cls-6" transform="translate(177.78 660.88)">3</text><line class="cls-2" x1="232.24" y1="632.9" x2="232.24" y2="638.88"/><text class="cls-6" transform="translate(229.75 650.28)">2</text><line class="cls-7" x1="229.75" y1="652.35" x2="234.73" y2="652.35"/><text class="cls-6" transform="translate(229.75 660.88)">3</text></svg>