<svg id="Camada_1" data-name="Camada 1" xmlns="http://www.w3.org/2000/svg" viewBox="0 0 324.81 289.96"><defs><style>.cls-1,.cls-3{font-size:14.35px;font-family:CMR12;}.cls-1{letter-spacing:0.22em;}.cls-2{letter-spacing:0em;}.cls-10,.cls-11,.cls-4,.cls-5,.cls-6,.cls-8{fill:none;stroke:#000;}.cls-10,.cls-11,.cls-4,.cls-5,.cls-8{stroke-miterlimit:10;}.cls-4{stroke-width:0.57px;}.cls-5,.cls-6,.cls-8{stroke-width:0.4px;}.cls-6{stroke-linecap:round;stroke-linejoin:round;}.cls-7{fill:#95d4e9;}.cls-8{stroke-dasharray:0.4 1.99;}.cls-9{font-size:7.97px;font-family:CMR8;}.cls-10{stroke-width:0.48px;}.cls-11{stroke-width:0.8px;}</style></defs><text class="cls-1" transform="translate(104.3 53.16)">2<tspan class="cls-2" x="10.54" y="0">+</tspan></text><text class="cls-3" transform="translate(129.82 43.45)">1</text><line class="cls-4" x1="129.82" y1="49.57" x2="136.84" y2="49.57"/><text class="cls-3" transform="translate(129.82 63)">3</text><text class="cls-3" transform="translate(142.02 53.16)">=</text><text class="cls-3" transform="translate(158.13 43.45)">6</text><line class="cls-4" x1="158.13" y1="49.57" x2="165.15" y2="49.57"/><text class="cls-3" transform="translate(158.13 63)">3</text><text class="cls-3" transform="translate(169.53 53.16)">+</text><text class="cls-3" transform="translate(184.84 43.45)">1</text><line class="cls-4" x1="184.84" y1="49.57" x2="191.87" y2="49.57"/><text class="cls-3" transform="translate(184.84 63)">3</text><text class="cls-3" transform="translate(197.05 53.16)">=</text><text class="cls-3" transform="translate(213.15 43.45)">7</text><line class="cls-4" x1="213.15" y1="49.57" x2="220.18" y2="49.57"/><text class="cls-3" transform="translate(213.15 63)">3</text><line class="cls-5" x1="75.73" y1="258.51" x2="75.73" y2="90.25"/><path class="cls-6" d="M73.34,92.12a3.17,3.17,0,0,0,2.39-2.07,3.17,3.17,0,0,0,2.39,2.07"/><line class="cls-5" x1="72.74" y1="246.47" x2="78.72" y2="246.47"/><path d="M66.79,250.74a3.42,3.42,0,0,1-1.27-1.5,5.41,5.41,0,0,1-.44-2.29V246a5.46,5.46,0,0,1,.44-2.3,3.35,3.35,0,0,1,1.28-1.51,3.94,3.94,0,0,1,3.91,0,3.37,3.37,0,0,1,1.28,1.5,5.46,5.46,0,0,1,.45,2.3v.93a5.45,5.45,0,0,1-.46,2.3,3.41,3.41,0,0,1-1.28,1.51"/><path d="M68.75,250.35a2.27,2.27,0,0,0,1.91-.89,4,4,0,0,0,.68-2.5v-1a4,4,0,0,0-.68-2.51,2.46,2.46,0,0,0-3.81,0,4,4,0,0,0-.68,2.49v1a4.07,4.07,0,0,0,.68,2.49,2.24,2.24,0,0,0,1.9.91Z"/><line class="cls-5" x1="72.74" y1="198.28" x2="78.72" y2="198.28"/><path d="M69.11,203c-.3,0-.45-.16-.45-.5v-7.26a1.08,1.08,0,0,1-.44.38,1.37,1.37,0,0,1-.61.14,1.16,1.16,0,0,1-.81-.29.7.7,0,0,1-.23-.54.68.68,0,0,1,.06-.29.53.53,0,0,1,.15-.2s.08-.07.1-.06a1,1,0,0,0,.82.35,1.11,1.11,0,0,0,.8-.33,1.17,1.17,0,0,0,.36-.79h.39c.32,0,.47.17.47.5v8.39c0,.34-.15.5-.47.5Z"/><line class="cls-5" x1="72.74" y1="150.09" x2="78.72" y2="150.09"/><path d="M66.35,154.81a.79.79,0,0,1-.54-.14.58.58,0,0,1-.17-.47v-.36a3,3,0,0,1,.39-1.57,3.49,3.49,0,0,1,1-1.08,13.79,13.79,0,0,1,1.48-.88c.61-.32,1.06-.56,1.33-.73a2.89,2.89,0,0,0,.71-.64,1.42,1.42,0,0,0,.3-.91,1.58,1.58,0,0,0-.54-1.25,2.22,2.22,0,0,0-1.51-.47,2.25,2.25,0,0,0-1.59.54,2.72,2.72,0,0,0-.79,1.37s-.07,0-.2,0a.67.67,0,0,1-.35-.17.48.48,0,0,1-.17-.39,1.72,1.72,0,0,1,.19-.68,2.66,2.66,0,0,1,.54-.73,3.66,3.66,0,0,1,1-.65,3.59,3.59,0,0,1,1.39-.25,3.23,3.23,0,0,1,2.23.72,2.51,2.51,0,0,1,.81,1.95,2.31,2.31,0,0,1-.34,1.28,3.2,3.2,0,0,1-.88.88,13.42,13.42,0,0,1-1.45.79,13.68,13.68,0,0,0-1.29.72,3,3,0,0,0-.84.79,2.1,2.1,0,0,0-.38,1.08l0,.28h4.87c.34,0,.51.15.51.43v.09c0,.3-.17.44-.51.44Z"/><line class="cls-5" x1="72.74" y1="101.9" x2="78.72" y2="101.9"/><path d="M68.5,106.7a4.42,4.42,0,0,1-1.51-.25,3.05,3.05,0,0,1-1.08-.63,2.33,2.33,0,0,1-.51-.6,1.26,1.26,0,0,1-.17-.56.53.53,0,0,1,.15-.39.67.67,0,0,1,.3-.18q.16,0,.18,0a2.26,2.26,0,0,0,1,1.24,3,3,0,0,0,1.69.46,2.63,2.63,0,0,0,1.7-.5,1.62,1.62,0,0,0,.63-1.35,1.66,1.66,0,0,0-.6-1.37,2.74,2.74,0,0,0-1.73-.48h-.8c-.33,0-.5-.13-.5-.39v-.08c0-.27.16-.4.47-.4h1a2.2,2.2,0,0,0,1.45-.43,1.44,1.44,0,0,0,.51-1.18A1.42,1.42,0,0,0,70,98.42,2.36,2.36,0,0,0,68.49,98a2.57,2.57,0,0,0-1.45.41,2.48,2.48,0,0,0-.9,1.06s-.08,0-.19,0a.84.84,0,0,1-.31-.19.48.48,0,0,1-.13-.35.89.89,0,0,1,.15-.44,2.16,2.16,0,0,1,.39-.48,3.11,3.11,0,0,1,1.07-.62,3.92,3.92,0,0,1,1.4-.24,3.66,3.66,0,0,1,2.3.65,2.19,2.19,0,0,1,.83,1.8,2,2,0,0,1-.43,1.3,2.24,2.24,0,0,1-1.22.72,2.75,2.75,0,0,1,1.4.88,2.3,2.3,0,0,1,.5,1.52,2.4,2.4,0,0,1-.91,2,3.83,3.83,0,0,1-2.49.74Z"/><line class="cls-5" x1="73.74" y1="134.02" x2="77.72" y2="134.02"/><line class="cls-5" x1="73.74" y1="117.96" x2="77.72" y2="117.96"/><line class="cls-5" x1="84.7" y1="149.79" x2="84.7" y2="134.32"/><line class="cls-5" x1="86.99" y1="149.89" x2="82.4" y2="149.89"/><line class="cls-5" x1="82.4" y1="134.22" x2="86.99" y2="134.22"/><text class="cls-3" transform="translate(92.14 136.91)">1</text><line class="cls-4" x1="92.14" y1="143.03" x2="99.17" y2="143.03"/><text class="cls-3" transform="translate(92.14 156.45)">3</text><line class="cls-5" x1="40.86" y1="134.02" x2="66.36" y2="134.02"/><path class="cls-6" d="M64.49,131.63A3.13,3.13,0,0,0,66.56,134a3.17,3.17,0,0,0-2.07,2.4"/><text class="cls-1" transform="translate(5.85 138.58)">2<tspan class="cls-2" x="10.54" y="0">+</tspan></text><text class="cls-3" transform="translate(31.37 128.87)">1</text><line class="cls-4" x1="31.37" y1="134.99" x2="38.39" y2="134.99"/><text class="cls-3" transform="translate(31.37 148.42)">3</text><circle class="cls-7" cx="75.73" cy="134.02" r="2.99"/><line class="cls-8" x1="84.7" y1="134.02" x2="167.29" y2="134.02"/><line class="cls-5" x1="172.11" y1="258.51" x2="172.11" y2="90.25"/><path class="cls-6" d="M169.72,92.12a3.17,3.17,0,0,0,2.39-2.07,3.15,3.15,0,0,0,2.39,2.07"/><line class="cls-5" x1="169.12" y1="246.47" x2="175.1" y2="246.47"/><path d="M163.17,250.74a3.42,3.42,0,0,1-1.27-1.5,5.41,5.41,0,0,1-.45-2.29V246a5.46,5.46,0,0,1,.45-2.3,3.35,3.35,0,0,1,1.28-1.51,3.94,3.94,0,0,1,3.91,0,3.37,3.37,0,0,1,1.28,1.5,5.46,5.46,0,0,1,.44,2.3v.93a5.46,5.46,0,0,1-.45,2.3,3.41,3.41,0,0,1-1.28,1.51"/><path d="M165.13,250.35a2.27,2.27,0,0,0,1.91-.89,4,4,0,0,0,.68-2.5v-1a4.09,4.09,0,0,0-.68-2.51,2.26,2.26,0,0,0-1.91-.91,2.23,2.23,0,0,0-1.9.9,4,4,0,0,0-.69,2.49v1a4,4,0,0,0,.69,2.49,2.24,2.24,0,0,0,1.9.91Z"/><line class="cls-5" x1="169.12" y1="198.28" x2="175.1" y2="198.28"/><path d="M165.49,203c-.3,0-.45-.16-.45-.5v-7.26a1.08,1.08,0,0,1-.44.38,1.4,1.4,0,0,1-.61.14,1.16,1.16,0,0,1-.81-.29.7.7,0,0,1-.23-.54.68.68,0,0,1,.06-.29.64.64,0,0,1,.14-.2c.06,0,.09-.07.11-.06a1,1,0,0,0,.82.35,1.11,1.11,0,0,0,.8-.33,1.17,1.17,0,0,0,.36-.79h.39c.31,0,.47.17.47.5v8.39c0,.34-.16.5-.47.5Z"/><line class="cls-5" x1="169.12" y1="150.09" x2="175.1" y2="150.09"/><path d="M162.72,154.81a.78.78,0,0,1-.53-.14.58.58,0,0,1-.17-.47v-.36a3,3,0,0,1,.39-1.57,3.49,3.49,0,0,1,1-1.08,13.79,13.79,0,0,1,1.48-.88c.61-.32,1.06-.56,1.33-.73a2.89,2.89,0,0,0,.71-.64,1.42,1.42,0,0,0,.3-.91,1.56,1.56,0,0,0-.55-1.25,2.18,2.18,0,0,0-1.5-.47,2.25,2.25,0,0,0-1.59.54,2.72,2.72,0,0,0-.79,1.37s-.07,0-.2,0a.67.67,0,0,1-.36-.17.47.47,0,0,1-.16-.39,1.56,1.56,0,0,1,.19-.68,2.66,2.66,0,0,1,.54-.73,3.66,3.66,0,0,1,1.05-.65,3.59,3.59,0,0,1,1.39-.25,3.23,3.23,0,0,1,2.23.72,2.51,2.51,0,0,1,.81,1.95,2.31,2.31,0,0,1-.34,1.28,3.2,3.2,0,0,1-.88.88,13.42,13.42,0,0,1-1.45.79,14,14,0,0,0-1.3.72,3.13,3.13,0,0,0-.83.79,2.1,2.1,0,0,0-.38,1.08l0,.28h4.87c.34,0,.51.15.51.43v.09c0,.3-.17.44-.51.44Z"/><line class="cls-5" x1="169.12" y1="101.9" x2="175.1" y2="101.9"/><path d="M164.88,106.7a4.42,4.42,0,0,1-1.51-.25,3.05,3.05,0,0,1-1.08-.63,2.33,2.33,0,0,1-.51-.6,1.26,1.26,0,0,1-.17-.56.53.53,0,0,1,.15-.39.67.67,0,0,1,.3-.18q.16,0,.18,0a2.26,2.26,0,0,0,.95,1.24,3,3,0,0,0,1.69.46,2.63,2.63,0,0,0,1.7-.5,1.62,1.62,0,0,0,.63-1.35,1.66,1.66,0,0,0-.6-1.37,2.74,2.74,0,0,0-1.73-.48h-.8c-.33,0-.5-.13-.5-.39v-.08c0-.27.16-.4.47-.4H165a2.2,2.2,0,0,0,1.45-.43,1.44,1.44,0,0,0,.51-1.18,1.42,1.42,0,0,0-.56-1.19,2.36,2.36,0,0,0-1.53-.45,2.57,2.57,0,0,0-1.45.41,2.48,2.48,0,0,0-.9,1.06s-.08,0-.19,0a.84.84,0,0,1-.31-.19.48.48,0,0,1-.13-.35.89.89,0,0,1,.15-.44,2.16,2.16,0,0,1,.39-.48,3.11,3.11,0,0,1,1.07-.62,3.92,3.92,0,0,1,1.4-.24,3.66,3.66,0,0,1,2.3.65,2.19,2.19,0,0,1,.83,1.8,2,2,0,0,1-.43,1.3,2.24,2.24,0,0,1-1.22.72,2.75,2.75,0,0,1,1.4.88,2.3,2.3,0,0,1,.5,1.52,2.4,2.4,0,0,1-.91,2,3.83,3.83,0,0,1-2.49.74Z"/><line class="cls-5" x1="170.12" y1="246.47" x2="174.1" y2="246.47"/><line class="cls-5" x1="170.12" y1="230.41" x2="174.1" y2="230.41"/><line class="cls-5" x1="170.12" y1="214.34" x2="174.1" y2="214.34"/><line class="cls-5" x1="170.12" y1="198.28" x2="174.1" y2="198.28"/><line class="cls-5" x1="170.12" y1="182.22" x2="174.1" y2="182.22"/><line class="cls-5" x1="170.12" y1="166.16" x2="174.1" y2="166.16"/><line class="cls-5" x1="170.12" y1="150.1" x2="174.1" y2="150.1"/><line class="cls-5" x1="170.12" y1="134.04" x2="174.1" y2="134.04"/><line class="cls-5" x1="170.12" y1="117.97" x2="174.1" y2="117.97"/><circle class="cls-7" cx="172.11" cy="134.02" r="2.99"/><line class="cls-5" x1="181.07" y1="229.62" x2="181.07" y2="215.12"/><line class="cls-5" x1="183.37" y1="229.72" x2="178.78" y2="229.72"/><line class="cls-5" x1="178.78" y1="215.02" x2="183.37" y2="215.02"/><text class="cls-9" transform="translate(189.92 220.53)">1</text><line class="cls-10" x1="189.92" y1="222.24" x2="194.15" y2="222.24"/><text class="cls-9" transform="translate(189.92 229.36)">3</text><line class="cls-5" x1="181.07" y1="213.56" x2="181.07" y2="199.06"/><line class="cls-5" x1="183.37" y1="213.66" x2="178.78" y2="213.66"/><line class="cls-5" x1="178.78" y1="198.96" x2="183.37" y2="198.96"/><text class="cls-9" transform="translate(189.92 204.46)">1</text><line class="cls-10" x1="189.92" y1="206.18" x2="194.15" y2="206.18"/><text class="cls-9" transform="translate(189.92 213.29)">3</text><line class="cls-5" x1="181.07" y1="197.5" x2="181.07" y2="182.99"/><line class="cls-5" x1="183.37" y1="197.6" x2="178.78" y2="197.6"/><line class="cls-5" x1="178.78" y1="182.89" x2="183.37" y2="182.89"/><text class="cls-9" transform="translate(189.92 188.4)">1</text><line class="cls-10" x1="189.92" y1="190.12" x2="194.15" y2="190.12"/><text class="cls-9" transform="translate(189.92 197.23)">3</text><line class="cls-5" x1="181.07" y1="181.43" x2="181.07" y2="166.93"/><line class="cls-5" x1="183.37" y1="181.53" x2="178.78" y2="181.53"/><line class="cls-5" x1="178.78" y1="166.83" x2="183.37" y2="166.83"/><text class="cls-9" transform="translate(189.92 172.34)">1</text><line class="cls-10" x1="189.92" y1="174.06" x2="194.15" y2="174.06"/><text class="cls-9" transform="translate(189.92 181.17)">3</text><line class="cls-5" x1="181.07" y1="165.37" x2="181.07" y2="150.87"/><line class="cls-5" x1="183.37" y1="165.47" x2="178.78" y2="165.47"/><line class="cls-5" x1="178.78" y1="150.77" x2="183.37" y2="150.77"/><text class="cls-9" transform="translate(189.92 156.27)">1</text><line class="cls-10" x1="189.92" y1="157.99" x2="194.15" y2="157.99"/><text class="cls-9" transform="translate(189.92 165.1)">3</text><line class="cls-5" x1="181.07" y1="149.31" x2="181.07" y2="134.8"/><line class="cls-5" x1="183.37" y1="149.41" x2="178.78" y2="149.41"/><line class="cls-5" x1="178.78" y1="134.71" x2="183.37" y2="134.71"/><text class="cls-9" transform="translate(189.92 140.21)">1</text><line class="cls-10" x1="189.92" y1="141.93" x2="194.15" y2="141.93"/><text class="cls-9" transform="translate(189.92 149.04)">3</text><line class="cls-5" x1="181.07" y1="246.17" x2="181.07" y2="231.18"/><line class="cls-5" x1="183.37" y1="246.27" x2="178.78" y2="246.27"/><line class="cls-5" x1="178.78" y1="231.08" x2="183.37" y2="231.08"/><text class="cls-9" transform="translate(189.92 236.59)">1</text><line class="cls-10" x1="189.92" y1="238.31" x2="194.15" y2="238.31"/><text class="cls-9" transform="translate(189.92 245.42)">3</text><line class="cls-5" x1="202.4" y1="142.06" x2="227.9" y2="142.06"/><path class="cls-6" d="M204.27,144.45a3.15,3.15,0,0,0-2.07-2.39,3.17,3.17,0,0,0,2.07-2.39"/><path d="M241.38,146.67c-.3,0-.44-.17-.44-.5v-7.26a1.27,1.27,0,0,1-.45.38,1.32,1.32,0,0,1-.6.13,1.17,1.17,0,0,1-.82-.28.78.78,0,0,1-.23-.55.53.53,0,0,1,.07-.28.7.7,0,0,1,.14-.21s.09-.06.11,0a1,1,0,0,0,.81.34,1.13,1.13,0,0,0,.8-.32,1.16,1.16,0,0,0,.37-.8h.38c.32,0,.48.17.48.5v8.4c0,.33-.16.5-.48.5Zm6.11-6h-1a.45.45,0,0,1-.34-.1.38.38,0,0,1-.1-.3v-.08a.38.38,0,0,1,.1-.3.5.5,0,0,1,.34-.09h1v-.69a2.65,2.65,0,0,1,.52-1.78,1.84,1.84,0,0,1,1.48-.6,1.71,1.71,0,0,1,1.16.34.62.62,0,0,1,.23.49.49.49,0,0,1-.06.25.83.83,0,0,1-.12.17s-.07.05-.08,0a1.17,1.17,0,0,0-.45-.29,1.33,1.33,0,0,0-.58-.13,1,1,0,0,0-.84.38,2.16,2.16,0,0,0-.27,1.22v.6h1.32c.31,0,.46.13.46.39v.08c0,.27-.15.4-.46.4h-1.29v5.53c0,.32-.15.48-.44.48H248c-.31,0-.46-.16-.46-.48Zm6.8-1a1.2,1.2,0,0,1,.74.21.64.64,0,0,1,.28.54.71.71,0,0,1-.06.31.86.86,0,0,1-.15.2c-.06,0-.1.06-.11,0a1.06,1.06,0,0,0-.81-.29,1.32,1.32,0,0,0-1.23.75,4.38,4.38,0,0,0-.41,2.08v2.71c0,.32-.15.48-.44.48H252a.42.42,0,0,1-.47-.48v-6.34s0-.05.11-.08a1.09,1.09,0,0,1,.26,0q.54,0,.6.69,0,.48,0,.75a2.26,2.26,0,0,1,.66-1.15,1.68,1.68,0,0,1,1.12-.39Zm1.61,5.24a1.77,1.77,0,0,1,1.12-1.69,9,9,0,0,1,3.57-.57h.16v-.28a1.77,1.77,0,0,0-.48-1.34,1.9,1.9,0,0,0-1.37-.47,2.39,2.39,0,0,0-1.3.33,2.15,2.15,0,0,0-.8.89.52.52,0,0,1-.19,0,.73.73,0,0,1-.3-.16.45.45,0,0,1-.14-.35.85.85,0,0,1,.11-.37,1.24,1.24,0,0,1,.31-.39,2.8,2.8,0,0,1,1-.59,4,4,0,0,1,1.39-.23,2.83,2.83,0,0,1,2.08.72,2.66,2.66,0,0,1,.74,2v4.23s0,0-.13.08a1,1,0,0,1-.25,0q-.52,0-.6-.66,0-.4,0-.63a2.52,2.52,0,0,1-1,1,3.06,3.06,0,0,1-1.52.37,2.63,2.63,0,0,1-1.7-.51,1.74,1.74,0,0,1-.62-1.39Zm4.85-1.58h-.25a8.26,8.26,0,0,0-2.73.4,1.2,1.2,0,0,0-.84,1.14,1,1,0,0,0,.4.84,1.67,1.67,0,0,0,1.09.32,2.56,2.56,0,0,0,1.18-.27,2.23,2.23,0,0,0,.84-.74,1.89,1.89,0,0,0,.31-1Zm5.42,6.5a1.67,1.67,0,0,1-.73-.15,1.37,1.37,0,0,1-.49-.38.71.71,0,0,1-.17-.43.39.39,0,0,1,.36-.45,1.18,1.18,0,0,0,.93.56.93.93,0,0,0,.61-.19.69.69,0,0,0,.24-.58,1.27,1.27,0,0,0-.42-.86,2.57,2.57,0,0,0-.9-.65,3.07,3.07,0,0,1-1.81-1.23,4.06,4.06,0,0,1-.23-4.07,3.34,3.34,0,0,1,1.23-1.27,3.45,3.45,0,0,1,1.78-.46,3.58,3.58,0,0,1,1.32.23,2.8,2.8,0,0,1,1,.6,1.88,1.88,0,0,1,.42.54,1.06,1.06,0,0,1,.14.5.39.39,0,0,1-.14.32.81.81,0,0,1-.32.16c-.11,0-.18,0-.2,0a2.12,2.12,0,0,0-2.16-1.46,2.31,2.31,0,0,0-2.14,1.3,2.91,2.91,0,0,0-.32,1.37,3.23,3.23,0,0,0,.31,1.4,2.41,2.41,0,0,0,.87,1,2.38,2.38,0,0,0,1.28.34,2.2,2.2,0,0,0,1.38-.4,2.39,2.39,0,0,0,.78-1.06s.08,0,.2,0a.69.69,0,0,1,.32.16.45.45,0,0,1,.14.35,1.08,1.08,0,0,1-.13.46,2.11,2.11,0,0,1-.4.53,2.88,2.88,0,0,1-1.59.8,3.08,3.08,0,0,1-.53,0,2.9,2.9,0,0,1,.72.72,1.66,1.66,0,0,1,.28.93,1.17,1.17,0,0,1-.47,1,1.87,1.87,0,0,1-1.12.35Zm4.16-4.92a1.78,1.78,0,0,1,1.13-1.69,9,9,0,0,1,3.56-.57h.16v-.28a1.77,1.77,0,0,0-.48-1.34,1.9,1.9,0,0,0-1.37-.47,2.39,2.39,0,0,0-1.3.33,2.12,2.12,0,0,0-.79.89.57.57,0,0,1-.2,0,.73.73,0,0,1-.3-.16.45.45,0,0,1-.14-.35.85.85,0,0,1,.11-.37,1.4,1.4,0,0,1,.31-.39,2.75,2.75,0,0,1,1-.59,3.93,3.93,0,0,1,1.39-.23,2.84,2.84,0,0,1,2.08.72,2.69,2.69,0,0,1,.73,2v4.23s0,0-.12.08a1.09,1.09,0,0,1-.25,0c-.36,0-.56-.22-.61-.66q0-.4,0-.63a2.43,2.43,0,0,1-1,1,3.08,3.08,0,0,1-1.52.37,2.59,2.59,0,0,1-1.7-.51,1.71,1.71,0,0,1-.63-1.39Zm4.85-1.58h-.24a8.28,8.28,0,0,0-2.74.4,1.2,1.2,0,0,0-.84,1.14,1,1,0,0,0,.41.84,1.65,1.65,0,0,0,1.09.32,2.52,2.52,0,0,0,1.17-.27,2.09,2.09,0,0,0,.84-.74,1.82,1.82,0,0,0,.31-1Zm-3.41-4.78a.48.48,0,0,1-.33-.13.84.84,0,0,1-.05-.36,1.66,1.66,0,0,1,.35-.89.93.93,0,0,1,.76-.35,1.14,1.14,0,0,1,.52.12,3.46,3.46,0,0,1,.51.36,4.33,4.33,0,0,0,.78.61.57.57,0,0,0,.21-.2,1.63,1.63,0,0,0,.17-.35,2.15,2.15,0,0,1,.18-.35.27.27,0,0,1,.22-.11.42.42,0,0,1,.32.12,1,1,0,0,1,.06.38,1.63,1.63,0,0,1-.35.88,1,1,0,0,1-.76.34,1.14,1.14,0,0,1-.52-.12,2.74,2.74,0,0,1-.51-.35l-.34-.3a2.1,2.1,0,0,0-.42-.3.47.47,0,0,0-.19.18,1.6,1.6,0,0,0-.18.35c-.08.16-.15.28-.2.36a.3.3,0,0,1-.23.11Zm5.78,4.69a3.82,3.82,0,0,1,.44-1.84,3.29,3.29,0,0,1,1.24-1.27,3.73,3.73,0,0,1,3.59,0,3.29,3.29,0,0,1,1.23,1.28,3.93,3.93,0,0,1,.44,1.86,3.81,3.81,0,0,1-.44,1.83,3.29,3.29,0,0,1-1.24,1.27,3.43,3.43,0,0,1-1.79.46,3.5,3.5,0,0,1-1.8-.46A3.25,3.25,0,0,1,278,145a3.86,3.86,0,0,1-.43-1.85Zm5.94,0a3.07,3.07,0,0,0-.32-1.4,2.41,2.41,0,0,0-.87-1,2.31,2.31,0,0,0-1.27-.35,2.39,2.39,0,0,0-1.27.34,2.5,2.5,0,0,0-.89,1,3.18,3.18,0,0,0,0,2.78,2.46,2.46,0,0,0,.89,1,2.31,2.31,0,0,0,1.27.35,2.39,2.39,0,0,0,1.27-.34,2.42,2.42,0,0,0,.87-1,3,3,0,0,0,.32-1.39Zm7.59,3.56a3,3,0,0,1-1.63-.45,3.09,3.09,0,0,1-1.12-1.27,4.45,4.45,0,0,1,0-3.73,3.07,3.07,0,0,1,1.13-1.26,3.24,3.24,0,0,1,3.15-.08,2.5,2.5,0,0,1,1,1v-4s0-.05.11-.08a.9.9,0,0,1,.25,0c.45,0,.67.3.67.92v8.42q0,.48-.45.48h-.1a.4.4,0,0,1-.45-.45c0-.2,0-.49,0-.89a2.92,2.92,0,0,1-1,1.07,2.73,2.73,0,0,1-1.49.39Zm2.49-4.65a2.47,2.47,0,0,0-.87-1.2,2.28,2.28,0,0,0-1.42-.43,2.1,2.1,0,0,0-1.68.74,2.89,2.89,0,0,0-.65,2,3.18,3.18,0,0,0,.3,1.41,2.27,2.27,0,0,0,.82,1,2.15,2.15,0,0,0,1.19.34,2.3,2.3,0,0,0,1.16-.29,2.16,2.16,0,0,0,.84-.8,2.12,2.12,0,0,0,.31-1.14Zm2.44,1.11a3.93,3.93,0,0,1,.44-1.86,3.25,3.25,0,0,1,1.2-1.29,3.32,3.32,0,0,1,1.75-.47,3.16,3.16,0,0,1,1.65.42,2.87,2.87,0,0,1,1.1,1.19,3.77,3.77,0,0,1,.39,1.76v.1a.35.35,0,0,1-.08.26.41.41,0,0,1-.28.07H297a.88.88,0,0,0,0,.2,2.46,2.46,0,0,0,.78,1.67,2.41,2.41,0,0,0,1.71.63,2.52,2.52,0,0,0,1.4-.35,2.4,2.4,0,0,0,.82-.91.44.44,0,0,1,.2,0,.8.8,0,0,1,.27.18.48.48,0,0,1,.12.33.78.78,0,0,1-.13.4,1.69,1.69,0,0,1-.41.45,2.94,2.94,0,0,1-.95.52,4,4,0,0,1-1.33.21,3.65,3.65,0,0,1-1.83-.45,3.06,3.06,0,0,1-1.22-1.25,3.85,3.85,0,0,1-.44-1.84Zm5.51-.56a2.41,2.41,0,0,0-.62-1.62,2,2,0,0,0-1.5-.61,2.2,2.2,0,0,0-1.58.62,2.66,2.66,0,0,0-.79,1.61Z"/><text class="cls-3" transform="translate(306.66 136.91)">1</text><line class="cls-4" x1="306.66" y1="143.03" x2="313.68" y2="143.03"/><text class="cls-3" transform="translate(306.66 156.45)">3</text><text class="cls-3" transform="translate(271.25 172.95)">+</text><path d="M238,203a3.26,3.26,0,0,1-2.64-1.13,4.71,4.71,0,0,1-.95-3.12v-1a5.68,5.68,0,0,1,.45-2.36,3.25,3.25,0,0,1,1.27-1.5,3.62,3.62,0,0,1,2-.52,4.2,4.2,0,0,1,1.34.2,2.78,2.78,0,0,1,.95.53,1.36,1.36,0,0,1,.37.44,1,1,0,0,1,.12.42.48.48,0,0,1-.1.31,1.16,1.16,0,0,1-.25.2c-.09,0-.14.06-.16,0a2.7,2.7,0,0,0-.9-.91,2.59,2.59,0,0,0-1.34-.33,2.4,2.4,0,0,0-1.84.73,3.4,3.4,0,0,0-.79,2.12c0,.18,0,.57,0,1.18a3.29,3.29,0,0,1,1.16-.91,3.43,3.43,0,0,1,1.58-.36,3.21,3.21,0,0,1,2.22.76,2.56,2.56,0,0,1,.84,2v.06a3,3,0,0,1-.42,1.59,2.89,2.89,0,0,1-1.16,1.11,3.49,3.49,0,0,1-1.69.4Zm0-.88a2.29,2.29,0,0,0,1.63-.58,2,2,0,0,0,.63-1.55v-.08a1.88,1.88,0,0,0-.58-1.48,2.35,2.35,0,0,0-1.63-.52,3,3,0,0,0-1.47.37,2.74,2.74,0,0,0-1,.95l0,.24a3.31,3.31,0,0,0,.76,2,2.22,2.22,0,0,0,1.68.68Zm7.86-5.25h-1a.47.47,0,0,1-.35-.1.41.41,0,0,1-.1-.3v-.08a.41.41,0,0,1,.1-.3.53.53,0,0,1,.35-.09h1v-.69a2.7,2.7,0,0,1,.51-1.78,1.86,1.86,0,0,1,1.48-.6,1.68,1.68,0,0,1,1.16.34.59.59,0,0,1,.23.49.62.62,0,0,1,0,.25.59.59,0,0,1-.13.17l-.07,0a1.25,1.25,0,0,0-.45-.29,1.37,1.37,0,0,0-.59-.13,1,1,0,0,0-.83.38,2.16,2.16,0,0,0-.27,1.22v.6h1.32c.3,0,.46.13.46.39v.08c0,.27-.16.4-.46.4H246.8v5.53q0,.48-.45.48h-.11c-.31,0-.46-.16-.46-.48Zm6.8-1a1.22,1.22,0,0,1,.74.21.66.66,0,0,1,.28.54.59.59,0,0,1-.07.31.53.53,0,0,1-.15.2c-.06,0-.09.06-.1,0a1.07,1.07,0,0,0-.82-.29,1.31,1.31,0,0,0-1.22.75,4.26,4.26,0,0,0-.41,2.08v2.71q0,.48-.45.48h-.11a.42.42,0,0,1-.48-.48v-6.34s0-.05.12-.08a1,1,0,0,1,.26,0q.53,0,.6.69,0,.48,0,.75a2.13,2.13,0,0,1,.66-1.15,1.66,1.66,0,0,1,1.12-.39Zm1.6,5.24a1.78,1.78,0,0,1,1.13-1.69,9,9,0,0,1,3.57-.57H259v-.28a1.77,1.77,0,0,0-.48-1.34,1.88,1.88,0,0,0-1.37-.47,2.41,2.41,0,0,0-1.3.33,2.19,2.19,0,0,0-.79.89.57.57,0,0,1-.2,0,.73.73,0,0,1-.3-.16.45.45,0,0,1-.13-.35.82.82,0,0,1,.1-.37,1.61,1.61,0,0,1,.31-.39,2.84,2.84,0,0,1,1-.59,3.93,3.93,0,0,1,1.39-.23,2.84,2.84,0,0,1,2.08.72,2.65,2.65,0,0,1,.73,2v4.23s0,0-.12.08a1,1,0,0,1-.25,0c-.35,0-.56-.22-.6-.66q0-.4,0-.63a2.52,2.52,0,0,1-1,1,3.08,3.08,0,0,1-1.52.37,2.59,2.59,0,0,1-1.7-.51,1.71,1.71,0,0,1-.63-1.39Zm4.85-1.58h-.24a8.26,8.26,0,0,0-2.73.4,1.2,1.2,0,0,0-.84,1.14,1,1,0,0,0,.4.84,1.67,1.67,0,0,0,1.09.32,2.59,2.59,0,0,0,1.18-.27,2.23,2.23,0,0,0,.84-.74,1.89,1.89,0,0,0,.3-1Zm5.43,6.5a1.67,1.67,0,0,1-.73-.15,1.21,1.21,0,0,1-.49-.38.66.66,0,0,1-.17-.43c0-.27.11-.42.35-.45a1.19,1.19,0,0,0,.94.56A1,1,0,0,0,265,205a.71.71,0,0,0,.23-.58,1.3,1.3,0,0,0-.41-.86,2.52,2.52,0,0,0-.91-.65,3,3,0,0,1-1.8-1.23,4,4,0,0,1-.23-4.07,3.2,3.2,0,0,1,1.23-1.27,3.45,3.45,0,0,1,1.78-.46,3.58,3.58,0,0,1,1.32.23,2.9,2.9,0,0,1,1,.6,2.08,2.08,0,0,1,.42.54,1.19,1.19,0,0,1,.14.5.42.42,0,0,1-.14.32.88.88,0,0,1-.32.16c-.11,0-.18,0-.2,0a2.13,2.13,0,0,0-2.17-1.46,2.33,2.33,0,0,0-1.26.34,2.38,2.38,0,0,0-.87,1,2.8,2.8,0,0,0-.32,1.37,3.09,3.09,0,0,0,.31,1.4,2.27,2.27,0,0,0,.87,1,2.34,2.34,0,0,0,1.27.34,2.21,2.21,0,0,0,1.39-.4,2.39,2.39,0,0,0,.78-1.06s.07,0,.19,0a.73.73,0,0,1,.33.16.48.48,0,0,1,.14.35,1.12,1.12,0,0,1-.14.46,2.06,2.06,0,0,1-.39.53,2.88,2.88,0,0,1-1.59.8,3.19,3.19,0,0,1-.54,0,2.74,2.74,0,0,1,.72.72,1.67,1.67,0,0,1,.29.93,1.19,1.19,0,0,1-.47,1,1.87,1.87,0,0,1-1.12.35Zm4.16-6.59a3.82,3.82,0,0,1,.44-1.84,3.29,3.29,0,0,1,1.24-1.27,3.73,3.73,0,0,1,3.59,0,3.29,3.29,0,0,1,1.23,1.28,3.93,3.93,0,0,1,.44,1.86,3.81,3.81,0,0,1-.44,1.83,3.29,3.29,0,0,1-1.24,1.27,3.43,3.43,0,0,1-1.79.46,3.5,3.5,0,0,1-1.8-.46,3.25,3.25,0,0,1-1.24-1.28,3.86,3.86,0,0,1-.43-1.85Zm5.94,0a3.07,3.07,0,0,0-.32-1.4,2.41,2.41,0,0,0-.87-1,2.31,2.31,0,0,0-1.27-.35,2.39,2.39,0,0,0-1.27.34,2.5,2.5,0,0,0-.89,1,3.18,3.18,0,0,0,0,2.78,2.46,2.46,0,0,0,.89,1,2.31,2.31,0,0,0,1.27.35,2.39,2.39,0,0,0,1.27-.34,2.42,2.42,0,0,0,.87-1,3,3,0,0,0,.32-1.39Zm-4.09-4.72a.48.48,0,0,1-.33-.13.84.84,0,0,1-.05-.36,1.59,1.59,0,0,1,.36-.89.9.9,0,0,1,.75-.35,1.11,1.11,0,0,1,.52.12,3.46,3.46,0,0,1,.51.36,4.72,4.72,0,0,0,.78.61.57.57,0,0,0,.21-.2,1.63,1.63,0,0,0,.17-.35,2.15,2.15,0,0,1,.18-.35.28.28,0,0,1,.23-.11.4.4,0,0,1,.31.12,1,1,0,0,1,.06.38,1.63,1.63,0,0,1-.35.88,1,1,0,0,1-.76.34,1.14,1.14,0,0,1-.52-.12,2.74,2.74,0,0,1-.51-.35l-.34-.3a1.85,1.85,0,0,0-.42-.3.47.47,0,0,0-.19.18,2.2,2.2,0,0,0-.18.35c-.08.16-.15.28-.2.36a.3.3,0,0,1-.23.11Zm6.08,4.74a3.93,3.93,0,0,1,.44-1.86,3.25,3.25,0,0,1,1.2-1.29,3.32,3.32,0,0,1,1.75-.47,3.16,3.16,0,0,1,1.65.42,2.87,2.87,0,0,1,1.1,1.19,3.77,3.77,0,0,1,.39,1.76v.1a.35.35,0,0,1-.08.26.41.41,0,0,1-.28.07h-5.18c0,.09,0,.16,0,.2a2.52,2.52,0,0,0,.79,1.67,2.41,2.41,0,0,0,1.71.63,2.52,2.52,0,0,0,1.4-.35,2.4,2.4,0,0,0,.82-.91.44.44,0,0,1,.2,0,.8.8,0,0,1,.27.18.48.48,0,0,1,.12.33.78.78,0,0,1-.13.4,1.69,1.69,0,0,1-.41.45,2.94,2.94,0,0,1-.95.52A4,4,0,0,1,280,203a3.65,3.65,0,0,1-1.83-.45,3.06,3.06,0,0,1-1.22-1.25,3.85,3.85,0,0,1-.44-1.84Zm5.51-.56a2.41,2.41,0,0,0-.62-1.62,2,2,0,0,0-1.5-.61,2.2,2.2,0,0,0-1.58.62,2.66,2.66,0,0,0-.79,1.61Zm2.31,3.38a1,1,0,0,1-.42-.69.39.39,0,0,1,.1-.27.67.67,0,0,1,.2-.18c.08,0,.13-.06.15,0a2.38,2.38,0,0,0,.93.78,3,3,0,0,0,1.39.3,2.25,2.25,0,0,0,1.26-.31,1,1,0,0,0,.45-.83.79.79,0,0,0-.22-.6,1.76,1.76,0,0,0-.59-.34c-.25-.08-.61-.17-1.1-.28a7.71,7.71,0,0,1-1.19-.32,2,2,0,0,1-.83-.56,1.45,1.45,0,0,1-.35-1,1.85,1.85,0,0,1,.71-1.5,3,3,0,0,1,1.89-.57,3.67,3.67,0,0,1,1.35.22,2.23,2.23,0,0,1,.89.56.83.83,0,0,1,.19.26.77.77,0,0,1,.07.28.4.4,0,0,1-.1.28.76.76,0,0,1-.21.19c-.08,0-.13.06-.14,0a2.12,2.12,0,0,0-.83-.73,2.45,2.45,0,0,0-1.2-.29,2.06,2.06,0,0,0-1.22.31,1,1,0,0,0-.43.82.77.77,0,0,0,.21.57,1.5,1.5,0,0,0,.57.33c.24.08.6.17,1.07.28a10,10,0,0,1,1.25.35,2.06,2.06,0,0,1,.85.57,1.44,1.44,0,0,1,.36,1,1.79,1.79,0,0,1-.74,1.51,3.15,3.15,0,0,1-2,.57,4.37,4.37,0,0,1-1.38-.2,3.11,3.11,0,0,1-1-.52ZM296,203a3,3,0,0,1-1.62-.45,3,3,0,0,1-1.13-1.27,4.45,4.45,0,0,1,0-3.73,3,3,0,0,1,2.78-1.71,2.93,2.93,0,0,1,1.5.37,2.5,2.5,0,0,1,1,1v-4s0,0,.11-.08a1,1,0,0,1,.25,0c.45,0,.68.3.68.92v8.42a.42.42,0,0,1-.46.48H299a.4.4,0,0,1-.45-.45c0-.2,0-.49,0-.89a3,3,0,0,1-1,1.07,2.79,2.79,0,0,1-1.5.39Zm2.49-4.65a2.52,2.52,0,0,0-.86-1.2,2.33,2.33,0,0,0-1.43-.43,2.1,2.1,0,0,0-1.68.74,2.88,2.88,0,0,0-.64,2,3.17,3.17,0,0,0,.29,1.41,2.34,2.34,0,0,0,.82,1,2.15,2.15,0,0,0,1.19.34,2.34,2.34,0,0,0,1.17-.29,2.3,2.3,0,0,0,.84-.8,2.21,2.21,0,0,0,.3-1.14Zm2.44,1.11a3.93,3.93,0,0,1,.44-1.86,3.2,3.2,0,0,1,1.21-1.29,3.29,3.29,0,0,1,1.74-.47,3.23,3.23,0,0,1,1.66.42,2.85,2.85,0,0,1,1.09,1.19,3.77,3.77,0,0,1,.39,1.76v.1a.35.35,0,0,1-.08.26.39.39,0,0,1-.28.07h-5.18a.88.88,0,0,0,0,.2,2.51,2.51,0,0,0,.78,1.67,2.42,2.42,0,0,0,1.71.63,2.5,2.5,0,0,0,1.4-.35,2.43,2.43,0,0,0,.83-.91.4.4,0,0,1,.19,0,.8.8,0,0,1,.27.18.44.44,0,0,1,.13.33.8.8,0,0,1-.14.4,1.69,1.69,0,0,1-.41.45,2.84,2.84,0,0,1-1,.52,3.91,3.91,0,0,1-1.33.21,3.59,3.59,0,0,1-1.82-.45,3,3,0,0,1-1.23-1.25,3.85,3.85,0,0,1-.44-1.84Zm5.51-.56a2.46,2.46,0,0,0-.61-1.62,2,2,0,0,0-1.51-.61,2.21,2.21,0,0,0-1.58.62,2.71,2.71,0,0,0-.79,1.61Z"/><text class="cls-3" transform="translate(311.6 193.13)">1</text><line class="cls-4" x1="311.6" y1="199.25" x2="318.63" y2="199.25"/><text class="cls-3" transform="translate(311.6 212.67)">3</text><line class="cls-8" x1="197.02" y1="246.47" x2="216.94" y2="246.47"/><line class="cls-8" x1="197.02" y1="150.09" x2="216.94" y2="150.09"/><path class="cls-11" d="M221.92,246.47a2.62,2.62,0,0,0,1.25-2.49V200.77a2.61,2.61,0,0,1,1.24-2.49,2.63,2.63,0,0,1-1.24-2.49V152.58a2.6,2.6,0,0,0-1.25-2.49"/></svg>