<svg id="Camada_1" data-name="Camada 1" xmlns="http://www.w3.org/2000/svg" viewBox="0 0 274.4 110.77"><defs><style>.cls-1{fill:#95d4e9;}.cls-1,.cls-6{opacity:0.8;}.cls-2,.cls-3,.cls-5,.cls-7{fill:none;stroke:#000;stroke-miterlimit:10;}.cls-2{stroke-width:0.4px;}.cls-3{stroke-width:1.2px;}.cls-4{font-size:14.35px;font-family:CMR12;}.cls-5{stroke-width:0.57px;}.cls-6{fill:#feeee0;}.cls-7{stroke-width:0.4px;}</style></defs><path class="cls-1" d="M60.9,64.82H32.55A28.35,28.35,0,1,0,60.9,36.47Z"/><line class="cls-2" x1="89.24" y1="64.82" x2="32.55" y2="64.82"/><line class="cls-2" x1="85.45" y1="50.65" x2="36.35" y2="78.99"/><line class="cls-2" x1="75.07" y1="40.27" x2="46.72" y2="89.37"/><line class="cls-2" x1="46.72" y1="40.27" x2="75.07" y2="89.37"/><line class="cls-2" x1="36.35" y1="50.65" x2="85.45" y2="78.99"/><line class="cls-3" x1="89.24" y1="64.82" x2="32.55" y2="64.82"/><line class="cls-3" x1="60.9" y1="36.47" x2="60.9" y2="93.17"/><path class="cls-2" d="M96.33,64.52A35.3,35.3,0,0,0,61.2,29.39"/><line class="cls-2" x1="98.62" y1="64.62" x2="94.04" y2="64.62"/><line class="cls-2" x1="61.1" y1="31.68" x2="61.1" y2="27.1"/><text class="cls-4" transform="translate(101.62 29.61)">1</text><line class="cls-5" x1="101.62" y1="35.72" x2="108.65" y2="35.72"/><text class="cls-4" transform="translate(101.62 49.15)">4</text><circle class="cls-2" cx="60.9" cy="64.82" r="28.35" transform="translate(-14.6 17.8) rotate(-14.87)"/><path class="cls-6" d="M187,61.39,162.46,75.56A28.34,28.34,0,1,0,187,33Z"/><line class="cls-2" x1="215.35" y1="61.39" x2="158.66" y2="61.39"/><line class="cls-2" x1="211.55" y1="47.22" x2="162.46" y2="75.56"/><line class="cls-2" x1="201.18" y1="36.84" x2="172.83" y2="85.94"/><line class="cls-2" x1="187" y1="33.04" x2="187" y2="89.74"/><line class="cls-2" x1="172.83" y1="36.84" x2="201.18" y2="85.94"/><line class="cls-2" x1="162.46" y1="47.22" x2="211.55" y2="75.56"/><line class="cls-3" x1="187" y1="61.39" x2="211.55" y2="75.56"/><line class="cls-3" x1="187" y1="61.39" x2="187" y2="33.04"/><line class="cls-3" x1="187" y1="61.39" x2="162.46" y2="75.56"/><path class="cls-2" d="M217.84,78.85A35.43,35.43,0,0,0,187.3,26"/><line class="cls-7" x1="219.77" y1="80.08" x2="215.81" y2="77.79"/><line class="cls-2" x1="187.2" y1="28.25" x2="187.2" y2="23.66"/><text class="cls-4" transform="translate(234.49 34.98)">1</text><line class="cls-5" x1="234.49" y1="41.1" x2="241.51" y2="41.1"/><text class="cls-4" transform="translate(234.49 54.53)">3</text><circle class="cls-2" cx="187" cy="61.39" r="28.35" transform="translate(-8.23 36.47) rotate(-10.9)"/></svg>