<svg id="Camada_1" data-name="Camada 1" xmlns="http://www.w3.org/2000/svg" viewBox="0 0 372.49 187.29"><defs><style>.cls-1{fill:#95d4e9;}.cls-1,.cls-4{opacity:0.3;}.cls-2{fill:#e6164d;}.cls-3,.cls-4,.cls-5,.cls-8{fill:none;stroke:#000;}.cls-3,.cls-4,.cls-8{stroke-miterlimit:10;}.cls-3,.cls-4,.cls-5{stroke-width:0.4px;}.cls-5{stroke-linecap:round;stroke-linejoin:round;}.cls-6{font-size:14.35px;font-family:CMR12;}.cls-7{font-size:9.96px;font-family:CMR10;}.cls-8{stroke-width:0.57px;}</style></defs><path d="M31.37,31.59h-.81a.71.71,0,0,1-.48-.14.53.53,0,0,1-.15-.41v-.1a.5.5,0,0,1,.15-.39.76.76,0,0,1,.48-.13h.81v-.51A2.83,2.83,0,0,1,31.93,28a2.08,2.08,0,0,1,1.63-.63,2.12,2.12,0,0,1,1.18.28.75.75,0,0,1,.37.65.72.72,0,0,1-.07.33.56.56,0,0,1-.17.22c-.06.06-.09.08-.1.07a1.39,1.39,0,0,0-.45-.28,1.48,1.48,0,0,0-.59-.12.87.87,0,0,0-.75.33,1.88,1.88,0,0,0-.24,1.07v.5h1.17a.76.76,0,0,1,.48.13.51.51,0,0,1,.15.4v.1a.51.51,0,0,1-.15.41.76.76,0,0,1-.48.13H32.77v5.12a.72.72,0,0,1-.15.52.65.65,0,0,1-.46.15H32c-.43,0-.64-.22-.64-.67Zm5.26,8.57q-.66,0-.66-.57a.61.61,0,0,1,.09-.31c.06-.11.1-.17.13-.18a3.16,3.16,0,0,0,1.63-.93,4.78,4.78,0,0,0,1-1.79,7.49,7.49,0,0,0,.35-2.33,7.36,7.36,0,0,0-.35-2.28,4.67,4.67,0,0,0-1-1.79,3.18,3.18,0,0,0-1.62-.93.73.73,0,0,1-.13-.2.64.64,0,0,1-.09-.31q0-.57.66-.57a2.53,2.53,0,0,1,1.23.36,4.37,4.37,0,0,1,1.18,1,6.82,6.82,0,0,1,1.18,2.09,7.64,7.64,0,0,1,.44,2.65,7.74,7.74,0,0,1-.43,2.64,6.81,6.81,0,0,1-1.14,2.08,4.54,4.54,0,0,1-1.21,1,2.55,2.55,0,0,1-1.25.35Z"/><path d="M64.71,28.67a.65.65,0,0,1,.16-.46A.56.56,0,0,1,65.3,28h5c.34,0,.51.15.51.43v.09c0,.3-.17.44-.51.44H65.79v3.43h3.35c.34,0,.5.15.5.43v.07a.39.39,0,0,1-.12.33.58.58,0,0,1-.38.1H65.8v3.52a.52.52,0,0,1-.12.36.48.48,0,0,1-.35.13h-.16c-.31,0-.46-.18-.46-.55Zm7.3-.34a.66.66,0,1,1,1.32,0,.62.62,0,0,1-.18.48.69.69,0,0,1-.49.16.68.68,0,0,1-.48-.16.65.65,0,0,1-.17-.48Zm.13,2.6c0-.34.15-.51.46-.51h.11c.31,0,.46.17.46.51v6c0,.32-.15.49-.46.49H72.6c-.31,0-.46-.17-.46-.49Zm5.21,9.41c-2.13,0-3.2-.62-3.2-1.87a1.54,1.54,0,0,1,.63-1.24,3.54,3.54,0,0,1,1.61-.69.79.79,0,0,1-.43-.69.89.89,0,0,1,.41-.74,2.47,2.47,0,0,1-1.26-.85,2.19,2.19,0,0,1-.47-1.4A2.38,2.38,0,0,1,75,31.58a2.52,2.52,0,0,1,1-.92,3.07,3.07,0,0,1,1.42-.34A2.81,2.81,0,0,1,79,30.8l.51-.78a.73.73,0,0,1,.61-.41.53.53,0,0,1,.3.09,1.34,1.34,0,0,1,.21.2.23.23,0,0,1,.06.17l-1.13,1.2a2.31,2.31,0,0,1,.25,2.8,2.5,2.5,0,0,1-1,.88,3.07,3.07,0,0,1-1.43.32h-.37a.41.41,0,0,0-.18.37.45.45,0,0,0,.31.39,6.34,6.34,0,0,0,1,.3l.53.13c1.37.33,2.05.95,2.05,1.84a1.67,1.67,0,0,1-.9,1.5,4.86,4.86,0,0,1-2.54.55Zm0-.75a4.12,4.12,0,0,0,1.78-.31,1,1,0,0,0,.63-.92.8.8,0,0,0-.4-.69,3.67,3.67,0,0,0-1.11-.43l-.85-.2a3.86,3.86,0,0,0-1.62.46,1.11,1.11,0,0,0-.66,1,.92.92,0,0,0,.57.84,3.8,3.8,0,0,0,1.66.29Zm0-5a1.76,1.76,0,0,0,1.27-.48,1.63,1.63,0,0,0,.49-1.25,1.66,1.66,0,0,0-.49-1.25,1.74,1.74,0,0,0-1.29-.48,1.7,1.7,0,0,0-1.26.48,1.66,1.66,0,0,0-.49,1.25,1.64,1.64,0,0,0,.5,1.25,1.74,1.74,0,0,0,1.27.48Zm9.74-4.14c.3,0,.46.17.46.49v6.36s0,0-.13.07a.69.69,0,0,1-.25,0c-.35,0-.55-.22-.6-.67,0-.25,0-.44,0-.56a3,3,0,0,1-1,1,2.6,2.6,0,0,1-1.38.36,2.4,2.4,0,0,1-2-.81,3.33,3.33,0,0,1-.67-2.17V30.91c0-.32.16-.49.46-.49h.12c.3,0,.46.17.46.49v3.52A2.35,2.35,0,0,0,83.13,36a1.63,1.63,0,0,0,1.33.56,2.18,2.18,0,0,0,1.27-.37,2.34,2.34,0,0,0,.84-1V30.91c0-.32.15-.49.45-.49Zm5.08-.1a1.17,1.17,0,0,1,.73.21.64.64,0,0,1,.28.54.71.71,0,0,1-.06.31.46.46,0,0,1-.15.2c-.06,0-.09.06-.1.05a1.12,1.12,0,0,0-.82-.29,1.34,1.34,0,0,0-1.23.75,4.42,4.42,0,0,0-.4,2.08v2.71c0,.32-.15.49-.45.49h-.11a.43.43,0,0,1-.48-.49V30.54s0,0,.12-.07a.67.67,0,0,1,.26,0q.53,0,.6.69,0,.5,0,.75a2.13,2.13,0,0,1,.66-1.15,1.66,1.66,0,0,1,1.12-.39Zm1.6,5.24A1.78,1.78,0,0,1,95,33.87a9.21,9.21,0,0,1,3.56-.56h.16V33a1.79,1.79,0,0,0-.48-1.34,1.9,1.9,0,0,0-1.37-.47,2.39,2.39,0,0,0-1.3.33,2.12,2.12,0,0,0-.79.89.57.57,0,0,1-.2,0,.63.63,0,0,1-.3-.16.45.45,0,0,1-.14-.35.82.82,0,0,1,.11-.36,1.6,1.6,0,0,1,.31-.4,2.9,2.9,0,0,1,1-.59,3.93,3.93,0,0,1,1.39-.23A2.84,2.84,0,0,1,99,31a2.65,2.65,0,0,1,.73,2v4.24s0,0-.12.07a.73.73,0,0,1-.25,0c-.36,0-.56-.22-.61-.66,0-.27,0-.48,0-.63a2.46,2.46,0,0,1-1,1,3.09,3.09,0,0,1-1.52.38,2.54,2.54,0,0,1-1.7-.52,1.7,1.7,0,0,1-.63-1.39ZM98.68,34l-.24,0a7.78,7.78,0,0,0-2.74.4,1.17,1.17,0,0,0-.83,1.13,1,1,0,0,0,.4.85,1.7,1.7,0,0,0,1.09.31,2.52,2.52,0,0,0,1.17-.27,2.09,2.09,0,0,0,.84-.74,1.82,1.82,0,0,0,.31-1Zm5,3.39a.9.9,0,0,1-.39-.13c-.11-.08-.16-.14-.14-.19l3.33-8.72a.46.46,0,0,1,.24-.27,1.2,1.2,0,0,1,.53-.09,1.17,1.17,0,0,1,.53.09.45.45,0,0,1,.25.27l3.34,8.72c0,.05,0,.11-.15.19a.94.94,0,0,1-.41.13.63.63,0,0,1-.67-.5l-1-2.53h-3.84l-1,2.54a.71.71,0,0,1-.27.4.53.53,0,0,1-.38.09Zm5.19-3.92-1.63-4.36-1.65,4.36Zm49-4.78a.69.69,0,0,1,.16-.46.58.58,0,0,1,.43-.17h5c.33,0,.5.15.5.43v.09c0,.3-.17.44-.5.44H159v3.43h3.36c.33,0,.5.15.5.43v.07a.39.39,0,0,1-.12.33.58.58,0,0,1-.38.1H159v3.52a.52.52,0,0,1-.12.36.48.48,0,0,1-.35.13h-.16c-.3,0-.46-.18-.46-.55Zm7.31-.34a.65.65,0,0,1,.17-.49.68.68,0,0,1,.49-.17.61.61,0,0,1,.66.66.62.62,0,0,1-.18.48.72.72,0,0,1-.5.16.64.64,0,0,1-.47-.16.61.61,0,0,1-.17-.48Zm.12,2.6c0-.34.16-.51.46-.51h.12c.3,0,.46.17.46.51v6c0,.32-.16.49-.46.49h-.12c-.3,0-.46-.17-.46-.49Zm5.21,9.41c-2.13,0-3.2-.62-3.2-1.87a1.54,1.54,0,0,1,.63-1.24,3.59,3.59,0,0,1,1.61-.69.79.79,0,0,1-.43-.69.88.88,0,0,1,.42-.74,2.46,2.46,0,0,1-1.27-.85,2.25,2.25,0,0,1-.47-1.4,2.38,2.38,0,0,1,.36-1.28,2.54,2.54,0,0,1,1-.92,3,3,0,0,1,1.41-.34,2.81,2.81,0,0,1,1.62.48l.52-.78a.71.71,0,0,1,.6-.41.51.51,0,0,1,.3.09.81.81,0,0,1,.21.2.23.23,0,0,1,.06.17l-1.13,1.2a2.29,2.29,0,0,1,.26,2.8,2.53,2.53,0,0,1-1,.88,3,3,0,0,1-1.43.32h-.37a.43.43,0,0,0-.17.37.46.46,0,0,0,.3.39,6.68,6.68,0,0,0,1,.3l.53.13c1.37.33,2.06.95,2.06,1.84a1.68,1.68,0,0,1-.91,1.5,4.86,4.86,0,0,1-2.54.55Zm0-.75a4.06,4.06,0,0,0,1.78-.31,1,1,0,0,0,.63-.92.78.78,0,0,0-.4-.69,3.71,3.71,0,0,0-1.1-.43l-.85-.2a3.86,3.86,0,0,0-1.62.46,1.11,1.11,0,0,0-.66,1,.93.93,0,0,0,.56.84,3.8,3.8,0,0,0,1.66.29Zm0-5a1.74,1.74,0,0,0,1.27-.48,1.63,1.63,0,0,0,.49-1.25,1.7,1.7,0,0,0-.48-1.25,1.77,1.77,0,0,0-1.29-.48,1.74,1.74,0,0,0-1.27.48,1.7,1.7,0,0,0-.48,1.25,1.63,1.63,0,0,0,.49,1.25,1.74,1.74,0,0,0,1.27.48Zm9.74-4.14c.31,0,.46.17.46.49v6.36s0,0-.12.07a.73.73,0,0,1-.25,0c-.36,0-.56-.22-.61-.67,0-.25,0-.44,0-.56a3.1,3.1,0,0,1-1,1,2.64,2.64,0,0,1-1.39.36,2.4,2.4,0,0,1-2-.81,3.33,3.33,0,0,1-.66-2.17V30.91c0-.32.15-.49.46-.49h.11c.31,0,.46.17.46.49v3.52a2.41,2.41,0,0,0,.47,1.57,1.64,1.64,0,0,0,1.34.56,2.2,2.2,0,0,0,1.27-.37,2.34,2.34,0,0,0,.84-1V30.91c0-.32.15-.49.44-.49Zm5.08-.1a1.2,1.2,0,0,1,.74.21.64.64,0,0,1,.28.54.59.59,0,0,1-.07.31.46.46,0,0,1-.15.2c-.05,0-.09.06-.1.05a1.11,1.11,0,0,0-.82-.29,1.31,1.31,0,0,0-1.22.75,4.41,4.41,0,0,0-.41,2.08v2.71c0,.32-.15.49-.45.49h-.11c-.32,0-.47-.17-.47-.49V30.54s0,0,.11-.07a.71.71,0,0,1,.26,0q.53,0,.6.69,0,.5,0,.75a2.13,2.13,0,0,1,.66-1.15,1.68,1.68,0,0,1,1.12-.39ZM187,35.56a1.77,1.77,0,0,1,1.12-1.69,9.23,9.23,0,0,1,3.57-.56h.16V33a1.75,1.75,0,0,0-.49-1.34,1.88,1.88,0,0,0-1.37-.47,2.38,2.38,0,0,0-1.29.33,2.15,2.15,0,0,0-.8.89.52.52,0,0,1-.19,0,.63.63,0,0,1-.3-.16.42.42,0,0,1-.14-.35.7.7,0,0,1,.11-.36,1.4,1.4,0,0,1,.31-.4,2.85,2.85,0,0,1,1-.59,4,4,0,0,1,1.39-.23,2.84,2.84,0,0,1,2.08.72,2.65,2.65,0,0,1,.73,2v4.24s0,0-.12.07a.69.69,0,0,1-.25,0q-.53,0-.6-.66,0-.4,0-.63a2.46,2.46,0,0,1-1,1,3.09,3.09,0,0,1-1.52.38,2.56,2.56,0,0,1-1.7-.52,1.69,1.69,0,0,1-.62-1.39ZM191.85,34l-.25,0a7.76,7.76,0,0,0-2.73.4,1.18,1.18,0,0,0-.84,1.13,1,1,0,0,0,.4.85,1.72,1.72,0,0,0,1.09.31,2.59,2.59,0,0,0,1.18-.27,2.23,2.23,0,0,0,.84-.74,1.89,1.89,0,0,0,.31-1Zm6,3.34a.53.53,0,0,1-.43-.17.63.63,0,0,1-.16-.46v-8a.65.65,0,0,1,.16-.46.56.56,0,0,1,.43-.17h2.93a3.51,3.51,0,0,1,2.23.62,2.11,2.11,0,0,1,.78,1.76,1.92,1.92,0,0,1-.43,1.3,2.45,2.45,0,0,1-1.26.74,2.75,2.75,0,0,1,1.57.81,2.17,2.17,0,0,1,.52,1.49,2.25,2.25,0,0,1-.84,1.93,4.24,4.24,0,0,1-2.55.63Zm2.85-5.13a2.15,2.15,0,0,0,1.45-.45,1.53,1.53,0,0,0,.52-1.2c0-1.07-.67-1.61-2-1.61h-2.32v3.26Zm.06,4.24a3,3,0,0,0,1.77-.4,1.59,1.59,0,0,0,.54-1.35,1.46,1.46,0,0,0-.57-1.26,2.93,2.93,0,0,0-1.72-.41h-2.44v3.42Z"/><path d="M252.16,28.67a.69.69,0,0,1,.15-.46.58.58,0,0,1,.43-.17h5c.33,0,.5.15.5.43v.09c0,.3-.17.44-.5.44h-4.55v3.43h3.36c.33,0,.5.15.5.43v.07a.39.39,0,0,1-.12.33.58.58,0,0,1-.38.1h-3.34v3.52a.48.48,0,0,1-.13.36.47.47,0,0,1-.35.13h-.15c-.31,0-.46-.18-.46-.55Zm7.3-.34a.66.66,0,1,1,1.32,0,.62.62,0,0,1-.18.48.72.72,0,0,1-.5.16.58.58,0,0,1-.64-.64Zm.13,2.6c0-.34.15-.51.46-.51h.11c.31,0,.46.17.46.51v6c0,.32-.15.49-.46.49h-.11c-.31,0-.46-.17-.46-.49Zm5.21,9.41c-2.14,0-3.2-.62-3.2-1.87a1.54,1.54,0,0,1,.63-1.24,3.5,3.5,0,0,1,1.6-.69.81.81,0,0,1-.43-.69.88.88,0,0,1,.42-.74,2.39,2.39,0,0,1-1.26-.85,2.2,2.2,0,0,1-.48-1.4,2.38,2.38,0,0,1,.36-1.28,2.54,2.54,0,0,1,1-.92,3.06,3.06,0,0,1,1.41-.34,2.79,2.79,0,0,1,1.62.48L267,30a.71.71,0,0,1,.6-.41.49.49,0,0,1,.3.09.81.81,0,0,1,.21.2c0,.07.08.13.07.17L267,31.27a2.29,2.29,0,0,1,.26,2.8,2.53,2.53,0,0,1-1,.88,3,3,0,0,1-1.42.32h-.38a.43.43,0,0,0-.17.37.46.46,0,0,0,.3.39,6.54,6.54,0,0,0,1,.3l.53.13c1.36.33,2.05.95,2.05,1.84a1.66,1.66,0,0,1-.91,1.5,4.82,4.82,0,0,1-2.53.55Zm0-.75a4.06,4.06,0,0,0,1.78-.31,1,1,0,0,0,.63-.92.78.78,0,0,0-.4-.69,3.6,3.6,0,0,0-1.1-.43l-.85-.2a3.86,3.86,0,0,0-1.62.46,1.11,1.11,0,0,0-.66,1,.92.92,0,0,0,.57.84,3.75,3.75,0,0,0,1.65.29Zm0-5a1.74,1.74,0,0,0,1.27-.48,1.64,1.64,0,0,0,.5-1.25,1.7,1.7,0,0,0-.49-1.25,1.77,1.77,0,0,0-1.29-.48,1.7,1.7,0,0,0-1.26.48,1.66,1.66,0,0,0-.49,1.25,1.63,1.63,0,0,0,.49,1.25,1.76,1.76,0,0,0,1.27.48Zm9.74-4.14c.31,0,.46.17.46.49v6.36s0,0-.12.07a.69.69,0,0,1-.25,0c-.35,0-.55-.22-.6-.67,0-.25,0-.44,0-.56a3,3,0,0,1-1,1,2.63,2.63,0,0,1-1.38.36,2.39,2.39,0,0,1-2-.81,3.27,3.27,0,0,1-.67-2.17V30.91c0-.32.15-.49.46-.49h.11c.31,0,.46.17.46.49v3.52a2.36,2.36,0,0,0,.48,1.57,1.62,1.62,0,0,0,1.33.56,2.2,2.2,0,0,0,1.27-.37,2.34,2.34,0,0,0,.84-1V30.91c0-.32.15-.49.44-.49Zm5.08-.1a1.2,1.2,0,0,1,.74.21.64.64,0,0,1,.28.54.71.71,0,0,1-.06.31.69.69,0,0,1-.15.2c-.06,0-.1.06-.1.05a1.14,1.14,0,0,0-.82-.29,1.32,1.32,0,0,0-1.23.75,4.41,4.41,0,0,0-.41,2.08v2.71c0,.32-.15.49-.44.49h-.12a.43.43,0,0,1-.47-.49V30.54s0,0,.11-.07a.75.75,0,0,1,.26,0q.54,0,.6.69,0,.5,0,.75a2.26,2.26,0,0,1,.66-1.15,1.68,1.68,0,0,1,1.12-.39Zm1.59,5.24a1.78,1.78,0,0,1,1.13-1.69,9.23,9.23,0,0,1,3.57-.56h.15V33a1.79,1.79,0,0,0-.48-1.34,1.88,1.88,0,0,0-1.37-.47,2.41,2.41,0,0,0-1.3.33,2.19,2.19,0,0,0-.79.89.51.51,0,0,1-.19,0,.66.66,0,0,1-.31-.16.45.45,0,0,1-.13-.35.7.7,0,0,1,.11-.36,1.55,1.55,0,0,1,.3-.4,3,3,0,0,1,1-.59,3.93,3.93,0,0,1,1.39-.23,2.84,2.84,0,0,1,2.08.72,2.65,2.65,0,0,1,.73,2v4.24s0,0-.12.07a.69.69,0,0,1-.25,0c-.35,0-.56-.22-.6-.66q0-.4,0-.63a2.46,2.46,0,0,1-1,1,3.09,3.09,0,0,1-1.52.38,2.56,2.56,0,0,1-1.7-.52,1.7,1.7,0,0,1-.63-1.39ZM286.11,34l-.24,0a7.76,7.76,0,0,0-2.73.4,1.18,1.18,0,0,0-.84,1.13,1,1,0,0,0,.4.85,1.72,1.72,0,0,0,1.09.31,2.59,2.59,0,0,0,1.18-.27,2.23,2.23,0,0,0,.84-.74,1.89,1.89,0,0,0,.3-1Zm5-1.28a5.2,5.2,0,0,1,.58-2.49,4.19,4.19,0,0,1,1.6-1.71,4.55,4.55,0,0,1,2.37-.62,4.6,4.6,0,0,1,1.63.28,3.7,3.7,0,0,1,1.17.69,2,2,0,0,1,.45.53,1,1,0,0,1,.16.48.53.53,0,0,1-.14.4.64.64,0,0,1-.32.2c-.12,0-.19,0-.21,0a2.82,2.82,0,0,0-1.1-1.2,3.15,3.15,0,0,0-1.65-.45,3.22,3.22,0,0,0-1.78.49,3.27,3.27,0,0,0-1.21,1.36,4.47,4.47,0,0,0-.43,2,4.38,4.38,0,0,0,.44,2,3.25,3.25,0,0,0,3,1.86,3,3,0,0,0,1.8-.53,2.66,2.66,0,0,0,1-1.33s.08,0,.2,0a.79.79,0,0,1,.36.19.51.51,0,0,1,.15.39,1.24,1.24,0,0,1-.18.56,2.57,2.57,0,0,1-.52.64,3.5,3.5,0,0,1-1.2.71,4.68,4.68,0,0,1-1.67.28,4.58,4.58,0,0,1-2.36-.6,4.18,4.18,0,0,1-1.59-1.69,5.31,5.31,0,0,1-.57-2.49Z"/><rect class="cls-1" x="57.02" y="42.75" width="61.23" height="61.23"/><rect class="cls-2" x="57.02" y="42.75" width="45.92" height="15.31"/><path class="cls-2" d="M118.25,104V42.75M102.94,104V42.75M87.63,104V42.75M72.33,104V42.75M57,104V42.75m0,0h61.23M57,58.06h61.23M57,73.37h61.23M57,88.68h61.23M57,104h61.23"/><path class="cls-3" d="M118.25,104V42.75M102.94,104V42.75M87.63,104V42.75M72.33,104V42.75M57,104V42.75m0,0h61.23M57,58.06h61.23M57,73.37h61.23M57,88.68h61.23M57,104h61.23"/><rect class="cls-2" x="150.15" y="42.75" width="61.23" height="61.23"/><rect class="cls-3" x="150.15" y="42.75" width="61.23" height="61.23"/><rect class="cls-1" x="244.77" y="42.75" width="61.23" height="61.23"/><rect class="cls-4" x="244.77" y="42.75" width="61.23" height="61.23"/><rect class="cls-2" x="244.77" y="58.06" width="45.92" height="45.92"/><rect class="cls-3" x="244.77" y="58.06" width="45.92" height="45.92"/><path class="cls-3" d="M306,104V42.75M290.69,104V42.75M275.38,104V42.75M260.08,104V42.75M244.77,104V42.75m0,0H306M244.77,58.06H306M244.77,73.37H306M244.77,88.68H306M244.77,104H306"/><line class="cls-3" x1="55.74" y1="132.44" x2="342.36" y2="132.44"/><path class="cls-5" d="M340.48,130.05a3.16,3.16,0,0,0,2.08,2.39,3.18,3.18,0,0,0-2.08,2.39"/><line class="cls-3" x1="71.69" y1="129.45" x2="71.69" y2="135.43"/><line class="cls-3" x1="87.63" y1="129.45" x2="87.63" y2="135.43"/><line class="cls-3" x1="103.58" y1="129.45" x2="103.58" y2="135.43"/><line class="cls-3" x1="119.53" y1="129.45" x2="119.53" y2="135.43"/><line class="cls-3" x1="135.47" y1="129.45" x2="135.47" y2="135.43"/><line class="cls-3" x1="151.42" y1="129.45" x2="151.42" y2="135.43"/><line class="cls-3" x1="167.36" y1="129.45" x2="167.36" y2="135.43"/><line class="cls-3" x1="183.31" y1="129.45" x2="183.31" y2="135.43"/><line class="cls-3" x1="199.25" y1="129.45" x2="199.25" y2="135.43"/><line class="cls-3" x1="215.2" y1="129.45" x2="215.2" y2="135.43"/><line class="cls-3" x1="231.14" y1="129.45" x2="231.14" y2="135.43"/><line class="cls-3" x1="247.09" y1="129.45" x2="247.09" y2="135.43"/><line class="cls-3" x1="263.03" y1="129.45" x2="263.03" y2="135.43"/><line class="cls-3" x1="278.98" y1="129.45" x2="278.98" y2="135.43"/><line class="cls-3" x1="294.92" y1="129.45" x2="294.92" y2="135.43"/><line class="cls-3" x1="310.87" y1="129.45" x2="310.87" y2="135.43"/><line class="cls-3" x1="326.81" y1="129.45" x2="326.81" y2="135.43"/><line class="cls-3" x1="71.69" y1="129.45" x2="71.69" y2="135.43"/><text class="cls-6" transform="translate(68.18 149.66)">0</text><line class="cls-3" x1="326.81" y1="129.45" x2="326.81" y2="135.43"/><text class="cls-6" transform="translate(323.3 149.66)">1</text><line class="cls-3" x1="119.53" y1="129.45" x2="119.53" y2="135.43"/><text class="cls-7" transform="translate(117.03 146.83)">3</text><line class="cls-8" x1="114.54" y1="148.89" x2="124.51" y2="148.89"/><text class="cls-7" transform="translate(114.54 157.43)">16</text><line class="cls-3" x1="183.31" y1="129.45" x2="183.31" y2="135.43"/><text class="cls-7" transform="translate(180.81 146.83)">7</text><line class="cls-8" x1="178.32" y1="148.89" x2="188.29" y2="148.89"/><text class="cls-7" transform="translate(178.32 157.43)">16</text><line class="cls-3" x1="215.2" y1="129.45" x2="215.2" y2="135.43"/><text class="cls-7" transform="translate(212.7 146.83)">9</text><line class="cls-8" x1="210.21" y1="148.89" x2="220.18" y2="148.89"/><text class="cls-7" transform="translate(210.21 157.43)">16</text><line class="cls-3" x1="278.98" y1="129.45" x2="278.98" y2="135.43"/><text class="cls-7" transform="translate(273.99 146.83)">13</text><line class="cls-8" x1="273.99" y1="148.89" x2="283.96" y2="148.89"/><text class="cls-7" transform="translate(273.99 157.43)">16</text></svg>