<svg id="Camada_1" data-name="Camada 1" xmlns="http://www.w3.org/2000/svg" viewBox="0 0 273.99 102.94"><defs><style>.cls-1,.cls-2{fill:none;stroke:#000;stroke-width:0.4px;}.cls-1{stroke-miterlimit:10;}.cls-2{stroke-linecap:round;stroke-linejoin:round;}.cls-3{fill:#e6164d;}</style></defs><path d="M152.34,43.67a4.6,4.6,0,0,1-2.36-.6,4.18,4.18,0,0,1-1.59-1.69,5.26,5.26,0,0,1-.57-2.49,5.17,5.17,0,0,1,.58-2.49,4.19,4.19,0,0,1,1.6-1.71,4.84,4.84,0,0,1,4.72,0,4.21,4.21,0,0,1,1.59,1.7,5.24,5.24,0,0,1,.56,2.48,5.33,5.33,0,0,1-.57,2.5,4.17,4.17,0,0,1-1.6,1.7,4.49,4.49,0,0,1-2.36.61Zm0-.93a3.18,3.18,0,0,0,1.77-.49,3.27,3.27,0,0,0,1.21-1.36,4.5,4.5,0,0,0,.43-2,4.44,4.44,0,0,0-.43-2,3.36,3.36,0,0,0-1.21-1.37,3.27,3.27,0,0,0-1.79-.49,3.32,3.32,0,0,0-1.78.48,3.27,3.27,0,0,0-1.2,1.37,4.45,4.45,0,0,0-.43,2,4.5,4.5,0,0,0,.43,2,3.36,3.36,0,0,0,1.22,1.36,3.22,3.22,0,0,0,1.78.49Zm8.86-6.23a1.2,1.2,0,0,1,.74.21.64.64,0,0,1,.28.54.71.71,0,0,1-.06.31.67.67,0,0,1-.16.2c-.05,0-.09.06-.1,0a1.1,1.1,0,0,0-.81-.29,1.32,1.32,0,0,0-1.23.75,4.38,4.38,0,0,0-.41,2.08v2.71c0,.32-.15.49-.44.49h-.12a.43.43,0,0,1-.47-.49V36.73s0,0,.11-.07a.75.75,0,0,1,.26,0q.54,0,.6.69c0,.33,0,.57,0,.75a2.26,2.26,0,0,1,.66-1.15,1.68,1.68,0,0,1,1.12-.39Zm4.64,7.16a3,3,0,0,1-1.63-.45A3.12,3.12,0,0,1,163.11,42a4.16,4.16,0,0,1-.41-1.88,4.09,4.09,0,0,1,.41-1.85A3.1,3.1,0,0,1,164.24,37a3.24,3.24,0,0,1,3.15-.08,2.5,2.5,0,0,1,1,.95v-4s0-.05.11-.08a.9.9,0,0,1,.25,0c.45,0,.67.3.67.92v8.42c0,.32-.15.49-.45.49h-.11a.4.4,0,0,1-.44-.46c0-.19,0-.49,0-.89a2.92,2.92,0,0,1-1,1.07,2.73,2.73,0,0,1-1.49.39ZM168.35,39a2.52,2.52,0,0,0-.87-1.2,2.28,2.28,0,0,0-1.42-.43,2.13,2.13,0,0,0-1.68.74,2.89,2.89,0,0,0-.65,1.95,3.18,3.18,0,0,0,.3,1.41,2.27,2.27,0,0,0,.82,1,2.13,2.13,0,0,0,1.19.35,2.31,2.31,0,0,0,1.16-.3,2.09,2.09,0,0,0,.84-.8,2.12,2.12,0,0,0,.31-1.14Zm2.44,1.11a3.93,3.93,0,0,1,.44-1.86,3.25,3.25,0,0,1,1.2-1.29,3.32,3.32,0,0,1,1.75-.47,3.16,3.16,0,0,1,1.65.42,2.87,2.87,0,0,1,1.1,1.19,3.8,3.8,0,0,1,.39,1.76V40a.35.35,0,0,1-.08.26.41.41,0,0,1-.28.07h-5.18a1,1,0,0,0,0,.2,2.52,2.52,0,0,0,.79,1.67,2.41,2.41,0,0,0,1.71.63,2.61,2.61,0,0,0,1.4-.34,2.43,2.43,0,0,0,.82-.92.44.44,0,0,1,.2,0,.8.8,0,0,1,.27.18.48.48,0,0,1,.12.33.78.78,0,0,1-.13.4,1.55,1.55,0,0,1-.41.45,2.94,2.94,0,0,1-.95.52,4,4,0,0,1-1.33.21,3.75,3.75,0,0,1-1.83-.44A3.15,3.15,0,0,1,171.23,42a3.82,3.82,0,0,1-.44-1.84Zm5.51-.56a2.46,2.46,0,0,0-.62-1.62,2,2,0,0,0-1.5-.61,2.2,2.2,0,0,0-1.58.62,2.66,2.66,0,0,0-.79,1.61Zm10.24-3.06a2.38,2.38,0,0,1,1.9.75,3.22,3.22,0,0,1,.64,2.14v3.67c0,.32-.15.49-.46.49h-.11c-.31,0-.46-.17-.46-.49V39.48a2.33,2.33,0,0,0-.44-1.52,1.57,1.57,0,0,0-1.28-.53,1.92,1.92,0,0,0-1.14.37,2.06,2.06,0,0,0-.77,1v4.28c0,.32-.15.49-.46.49h-.11c-.31,0-.46-.17-.46-.49V39.4a2.18,2.18,0,0,0-.44-1.46,1.6,1.6,0,0,0-1.29-.51,1.88,1.88,0,0,0-1.12.37,2.25,2.25,0,0,0-.8,1v4.28c0,.32-.15.49-.44.49h-.13c-.31,0-.46-.17-.46-.49V36.73s0,0,.12-.07a.74.74,0,0,1,.25,0c.4,0,.61.28.63.85l0,.34a2.73,2.73,0,0,1,.91-.94,2.38,2.38,0,0,1,1.25-.35,2.51,2.51,0,0,1,1.43.4,2.22,2.22,0,0,1,.84,1.12,2.74,2.74,0,0,1,1-1.1,2.48,2.48,0,0,1,1.43-.42Zm6.33,3.56a3.81,3.81,0,0,1,.44-1.83A3.29,3.29,0,0,1,194.55,37a3.42,3.42,0,0,1,1.78-.46,3.65,3.65,0,0,1,1.32.23,3.08,3.08,0,0,1,1,.6,2.14,2.14,0,0,1,.41.54,1.08,1.08,0,0,1,.15.5.39.39,0,0,1-.15.32.66.66,0,0,1-.31.16c-.12,0-.18,0-.2,0a2.14,2.14,0,0,0-2.17-1.46,2.34,2.34,0,0,0-1.26.35,2.31,2.31,0,0,0-.88,1,2.94,2.94,0,0,0-.31,1.37,3.06,3.06,0,0,0,.31,1.4,2.32,2.32,0,0,0,.86,1,2.4,2.4,0,0,0,1.28.34,2.23,2.23,0,0,0,1.39-.4,2.47,2.47,0,0,0,.78-1.06s.07,0,.19,0a.59.59,0,0,1,.32.17.42.42,0,0,1,.15.34,1.09,1.09,0,0,1-.15.47,2,2,0,0,1-.41.53,2.45,2.45,0,0,1-.94.62,3.76,3.76,0,0,1-1.36.23,3.39,3.39,0,0,1-1.77-.46,3.23,3.23,0,0,1-1.23-1.28,3.93,3.93,0,0,1-.44-1.86Zm10.44-3.56a1.18,1.18,0,0,1,.74.21.64.64,0,0,1,.28.54.71.71,0,0,1-.06.31.86.86,0,0,1-.15.2c-.06,0-.09.06-.1,0a1.14,1.14,0,0,0-.82-.29,1.32,1.32,0,0,0-1.23.75,4.38,4.38,0,0,0-.41,2.08v2.71c0,.32-.15.49-.44.49H201a.43.43,0,0,1-.47-.49V36.73s0,0,.11-.07a.75.75,0,0,1,.26,0c.36,0,.56.23.61.69s0,.57,0,.75a2.26,2.26,0,0,1,.66-1.15,1.68,1.68,0,0,1,1.12-.39Zm1.39,3.62a3.93,3.93,0,0,1,.44-1.86,3.27,3.27,0,0,1,3-1.76,3.23,3.23,0,0,1,1.66.42,2.85,2.85,0,0,1,1.09,1.19,3.8,3.8,0,0,1,.39,1.76V40a.31.31,0,0,1-.08.26.39.39,0,0,1-.28.07h-5.18a.88.88,0,0,0,0,.2,2.55,2.55,0,0,0,.78,1.67,2.45,2.45,0,0,0,1.72.63,2.57,2.57,0,0,0,1.39-.34,2.46,2.46,0,0,0,.83-.92.4.4,0,0,1,.19,0,1,1,0,0,1,.28.18.48.48,0,0,1,.12.33.8.8,0,0,1-.14.4,1.55,1.55,0,0,1-.41.45,2.89,2.89,0,0,1-.94.52,4,4,0,0,1-1.34.21,3.69,3.69,0,0,1-1.82-.44A3.11,3.11,0,0,1,205.14,42a3.82,3.82,0,0,1-.44-1.84Zm5.51-.56A2.46,2.46,0,0,0,209.6,38a2,2,0,0,0-1.51-.61,2.21,2.21,0,0,0-1.58.62,2.71,2.71,0,0,0-.79,1.61ZM212.52,43a1,1,0,0,1-.41-.69.44.44,0,0,1,.09-.27.91.91,0,0,1,.21-.18c.08,0,.12-.06.14-.05a2.38,2.38,0,0,0,.93.78,3.07,3.07,0,0,0,1.4.3,2.16,2.16,0,0,0,1.25-.31,1,1,0,0,0,.45-.83.81.81,0,0,0-.22-.6,1.52,1.52,0,0,0-.59-.33,8.24,8.24,0,0,0-1.09-.28,9.11,9.11,0,0,1-1.2-.33,2,2,0,0,1-.83-.56,1.45,1.45,0,0,1-.34-1,1.83,1.83,0,0,1,.71-1.49,2.85,2.85,0,0,1,1.88-.58,3.67,3.67,0,0,1,1.35.22,2.16,2.16,0,0,1,.89.56.83.83,0,0,1,.19.26.64.64,0,0,1,.07.28.45.45,0,0,1-.09.28.79.79,0,0,1-.22.19c-.08,0-.12.06-.13.05a2.09,2.09,0,0,0-.84-.73,2.53,2.53,0,0,0-1.2-.29,2,2,0,0,0-1.21.31,1,1,0,0,0-.44.82.77.77,0,0,0,.21.57,1.55,1.55,0,0,0,.58.33c.24.08.59.17,1.06.28a9.78,9.78,0,0,1,1.26.35,2.13,2.13,0,0,1,.85.57,1.45,1.45,0,0,1,.36,1,1.8,1.8,0,0,1-.74,1.51,3.18,3.18,0,0,1-2,.57,4.46,4.46,0,0,1-1.38-.2,2.92,2.92,0,0,1-1-.52Zm6.06-2.88a3.81,3.81,0,0,1,.44-1.83A3.29,3.29,0,0,1,220.26,37a3.42,3.42,0,0,1,1.78-.46,3.56,3.56,0,0,1,1.31.23,3,3,0,0,1,1,.6,2.14,2.14,0,0,1,.41.54,1.08,1.08,0,0,1,.15.5.39.39,0,0,1-.15.32.66.66,0,0,1-.31.16c-.12,0-.19,0-.2,0a2.14,2.14,0,0,0-2.17-1.46,2.34,2.34,0,0,0-1.26.35,2.25,2.25,0,0,0-.88,1,2.94,2.94,0,0,0-.31,1.37,3.19,3.19,0,0,0,.3,1.4,2.3,2.3,0,0,0,2.15,1.31,2.2,2.2,0,0,0,1.38-.4,2.49,2.49,0,0,0,.79-1.06s.07,0,.19,0a.59.59,0,0,1,.32.17.42.42,0,0,1,.15.34,1.09,1.09,0,0,1-.15.47,2,2,0,0,1-.41.53,2.53,2.53,0,0,1-.94.62,3.76,3.76,0,0,1-1.36.23,3.39,3.39,0,0,1-1.77-.46A3.23,3.23,0,0,1,219,41.93a3.93,3.93,0,0,1-.44-1.86Zm7.23.06a3.81,3.81,0,0,1,.44-1.86,3.25,3.25,0,0,1,1.2-1.29,3.29,3.29,0,0,1,1.74-.47,3.17,3.17,0,0,1,1.66.42,2.94,2.94,0,0,1,1.1,1.19,3.8,3.8,0,0,1,.39,1.76V40a.35.35,0,0,1-.08.26.43.43,0,0,1-.28.07H226.8a1,1,0,0,0,0,.2,2.55,2.55,0,0,0,.78,1.67,2.45,2.45,0,0,0,1.72.63,2.61,2.61,0,0,0,1.4-.34,2.43,2.43,0,0,0,.82-.92.44.44,0,0,1,.2,0,.8.8,0,0,1,.27.18.48.48,0,0,1,.12.33.8.8,0,0,1-.14.4,1.51,1.51,0,0,1-.4.45,2.94,2.94,0,0,1-1,.52,4,4,0,0,1-1.34.21,3.74,3.74,0,0,1-1.82-.44A3.15,3.15,0,0,1,226.25,42a3.71,3.71,0,0,1-.44-1.84Zm5.51-.56A2.46,2.46,0,0,0,230.7,38a2,2,0,0,0-1.51-.61,2.19,2.19,0,0,0-1.57.62,2.66,2.66,0,0,0-.79,1.61Zm5.76-3.06a2.38,2.38,0,0,1,2,.81,3.23,3.23,0,0,1,.67,2.16v3.59c0,.32-.15.49-.45.49h-.12c-.31,0-.46-.17-.46-.49v-3.5a2.39,2.39,0,0,0-.47-1.57,1.61,1.61,0,0,0-1.33-.57,2.24,2.24,0,0,0-1.28.37,2.37,2.37,0,0,0-.84,1v4.26c0,.32-.15.49-.44.49h-.13c-.31,0-.46-.17-.46-.49V36.73s0,0,.12-.07a.7.7,0,0,1,.25,0c.4,0,.61.29.63.86v.4a2.68,2.68,0,0,1,1-1,2.58,2.58,0,0,1,1.39-.37Zm6.73,7.16a1.79,1.79,0,0,1-1.41-.53,2.39,2.39,0,0,1-.47-1.62v-4h-.67c-.3,0-.45-.12-.45-.38v-.1q0-.39.45-.39h.67V35.46c0-.33.16-.5.46-.5h.12c.29,0,.44.17.44.5v1.21h1.74c.29,0,.44.13.44.39v.08c0,.27-.15.4-.46.4h-1.73v3.82a2,2,0,0,0,.24,1.1.9.9,0,0,0,.78.34,1.13,1.13,0,0,0,1-.54.24.24,0,0,1,.11,0,.39.39,0,0,1,.12.17.54.54,0,0,1,.06.27.69.69,0,0,1-.26.53,1.65,1.65,0,0,1-1.19.4ZM246,40.13a3.81,3.81,0,0,1,.44-1.86,3.25,3.25,0,0,1,1.2-1.29,3.29,3.29,0,0,1,1.74-.47,3.17,3.17,0,0,1,1.66.42,2.87,2.87,0,0,1,1.1,1.19,3.8,3.8,0,0,1,.39,1.76V40a.35.35,0,0,1-.08.26.43.43,0,0,1-.28.07H247a1,1,0,0,0,0,.2,2.52,2.52,0,0,0,.79,1.67,2.41,2.41,0,0,0,1.71.63,2.61,2.61,0,0,0,1.4-.34,2.43,2.43,0,0,0,.82-.92.44.44,0,0,1,.2,0,.8.8,0,0,1,.27.18.48.48,0,0,1,.12.33.72.72,0,0,1-.14.4,1.51,1.51,0,0,1-.4.45,2.94,2.94,0,0,1-.95.52,4,4,0,0,1-1.33.21,3.75,3.75,0,0,1-1.83-.44A3.15,3.15,0,0,1,246.42,42a3.71,3.71,0,0,1-.44-1.84Zm5.51-.56a2.46,2.46,0,0,0-.62-1.62,2,2,0,0,0-1.51-.61,2.19,2.19,0,0,0-1.57.62,2.66,2.66,0,0,0-.79,1.61Z"/><line class="cls-1" x1="21.49" y1="51.64" x2="225.19" y2="51.64"/><path class="cls-2" d="M223.31,49.25a3.17,3.17,0,0,0,2.07,2.39A3.17,3.17,0,0,0,223.31,54"/><path d="M47,69.21A3.56,3.56,0,0,1,45,68.68a3.36,3.36,0,0,1-1.27-1.5,5.57,5.57,0,0,1-.44-2.29v-1a5.62,5.62,0,0,1,.44-2.3A3.41,3.41,0,0,1,45,60.13a4,4,0,0,1,3.92,0,3.35,3.35,0,0,1,1.27,1.5,5.46,5.46,0,0,1,.45,2.3v.93a5.46,5.46,0,0,1-.45,2.3,3.45,3.45,0,0,1-1.29,1.52,3.59,3.59,0,0,1-2,.53Zm0-.92a2.3,2.3,0,0,0,1.92-.89,4.06,4.06,0,0,0,.68-2.5v-1a4,4,0,0,0-.69-2.51,2.46,2.46,0,0,0-3.81,0,4.07,4.07,0,0,0-.68,2.49v1a4.06,4.06,0,0,0,.69,2.5,2.25,2.25,0,0,0,1.89.9Z"/><path d="M98.37,69c-.29,0-.44-.17-.44-.51V61.24a1.08,1.08,0,0,1-.44.38,1.27,1.27,0,0,1-.61.14,1.12,1.12,0,0,1-.81-.29.7.7,0,0,1-.23-.54.68.68,0,0,1,.06-.29.78.78,0,0,1,.14-.2c.06,0,.09-.07.11-.06a1,1,0,0,0,.82.35,1.16,1.16,0,0,0,.8-.32,1.21,1.21,0,0,0,.36-.8h.39c.31,0,.47.17.47.5V68.5c0,.34-.16.51-.47.51Z"/><circle class="cls-3" cx="47" cy="51.64" r="2.99" transform="translate(-8.92 9.82) rotate(-10.9)"/><circle class="cls-3" cx="98.02" cy="51.64" r="2.99" transform="translate(-7.01 16.37) rotate(-9.22)"/></svg>