<svg id="Camada_1" data-name="Camada 1" xmlns="http://www.w3.org/2000/svg" viewBox="0 0 463.72 463.52"><defs><style>.cls-1,.cls-3{fill:none;stroke:#000;stroke-miterlimit:10;}.cls-1{stroke-width:0.4px;}.cls-2{font-size:9.96px;font-family:CMR10;}.cls-3{stroke-width:0.57px;}.cls-4{fill:#95d4e9;}.cls-5{fill:#7c2a79;}.cls-6{fill:#feede0;}</style></defs><line class="cls-1" x1="14.94" y1="29.81" x2="448.78" y2="29.81"/><line class="cls-1" x1="14.94" y1="29.81" x2="448.78" y2="29.81"/><line class="cls-1" x1="15.14" y1="122.16" x2="15.14" y2="30.01"/><path d="M66.64,77.12c-.26,0-.39-.14-.39-.41V69.87a.54.54,0,0,1,.14-.38.42.42,0,0,1,.35-.14h2a3.16,3.16,0,0,1,2.11.62,2.15,2.15,0,0,1,.74,1.77,2.19,2.19,0,0,1-.74,1.8,3.24,3.24,0,0,1-2.16.62H67.15v2.55a.39.39,0,0,1-.1.29.37.37,0,0,1-.29.12Zm2-3.7A2.17,2.17,0,0,0,70.15,73a1.5,1.5,0,0,0,.5-1.23,1.52,1.52,0,0,0-.49-1.23,2.22,2.22,0,0,0-1.47-.42H67.15v3.31Zm3.66.84a3.31,3.31,0,0,1,.36-1.55,2.73,2.73,0,0,1,2.46-1.46,2.67,2.67,0,0,1,1.38.35,2.38,2.38,0,0,1,.92,1,3.25,3.25,0,0,1,.32,1.47v.08a.28.28,0,0,1-.07.22.33.33,0,0,1-.23.06H73.16a.63.63,0,0,0,0,.16A2.05,2.05,0,0,0,73.83,76a2,2,0,0,0,1.43.53,2.1,2.1,0,0,0,1.16-.29,2.06,2.06,0,0,0,.69-.77l.16,0a.57.57,0,0,1,.23.15.39.39,0,0,1,.1.28.71.71,0,0,1-.11.33,1.45,1.45,0,0,1-.34.37,2.47,2.47,0,0,1-.79.44,3.23,3.23,0,0,1-1.11.17,3,3,0,0,1-1.52-.37,2.58,2.58,0,0,1-1-1,3.24,3.24,0,0,1-.36-1.54Zm4.59-.47a2,2,0,0,0-.51-1.34,1.65,1.65,0,0,0-1.26-.51,1.81,1.81,0,0,0-1.31.51,2.25,2.25,0,0,0-.66,1.34Zm4.2,5.92a1.44,1.44,0,0,1-.61-.12,1.23,1.23,0,0,1-.41-.31.66.66,0,0,1-.14-.37c0-.22.1-.35.3-.37A1,1,0,0,0,81,79a.82.82,0,0,0,.51-.16.59.59,0,0,0,.2-.49,1.1,1.1,0,0,0-.35-.72,2.2,2.2,0,0,0-.75-.53,2.58,2.58,0,0,1-1.51-1,3.14,3.14,0,0,1-.56-1.87A3.08,3.08,0,0,1,79,72.69a2.76,2.76,0,0,1,1-1.06,2.84,2.84,0,0,1,1.48-.38,2.88,2.88,0,0,1,1.1.19,2.37,2.37,0,0,1,.8.5,1.61,1.61,0,0,1,.35.45.9.9,0,0,1,.12.41.34.34,0,0,1-.12.27.73.73,0,0,1-.26.14c-.1,0-.16,0-.17,0A1.77,1.77,0,0,0,81.47,72a1.89,1.89,0,0,0-1,.29,2,2,0,0,0-.73.79,2.7,2.7,0,0,0,0,2.31,1.93,1.93,0,0,0,1.78,1.09,1.88,1.88,0,0,0,1.16-.33,2,2,0,0,0,.65-.89s.06,0,.16,0a.57.57,0,0,1,.27.13.38.38,0,0,1,.12.29,1,1,0,0,1-.11.38,2.15,2.15,0,0,1-.33.45,2.49,2.49,0,0,1-1.33.67,3.15,3.15,0,0,1-.44,0,2,2,0,0,1,.59.6,1.38,1.38,0,0,1,.24.78,1,1,0,0,1-.39.84,1.47,1.47,0,0,1-.93.29Zm3.46-4.1a1.48,1.48,0,0,1,.94-1.4,7.58,7.58,0,0,1,3-.48h.13v-.24a1.47,1.47,0,0,0-.4-1.11A1.54,1.54,0,0,0,87.09,72a2,2,0,0,0-1.08.27,1.81,1.81,0,0,0-.66.74.3.3,0,0,1-.16,0,.64.64,0,0,1-.26-.13.41.41,0,0,1-.11-.3.64.64,0,0,1,.09-.3,1.15,1.15,0,0,1,.26-.33,2.46,2.46,0,0,1,.81-.49,3.21,3.21,0,0,1,1.16-.19,2.35,2.35,0,0,1,1.73.6,2.19,2.19,0,0,1,.61,1.66V77s0,0-.1.06a.52.52,0,0,1-.21,0c-.29,0-.46-.18-.5-.55,0-.22,0-.4,0-.53a2.15,2.15,0,0,1-.85.84,2.57,2.57,0,0,1-1.27.31,2.15,2.15,0,0,1-1.42-.43,1.45,1.45,0,0,1-.52-1.16Zm4-1.31h-.2a6.61,6.61,0,0,0-2.28.33,1,1,0,0,0-.7,1,.85.85,0,0,0,.34.7,1.41,1.41,0,0,0,.91.27,2.14,2.14,0,0,0,1-.23,1.83,1.83,0,0,0,.7-.62,1.54,1.54,0,0,0,.25-.86Z"/><line class="cls-1" x1="140.44" y1="122.16" x2="140.44" y2="30.01"/><path d="M162.3,42a.21.21,0,0,1-.06.12.62.62,0,0,1-.18.18.51.51,0,0,1-.28.07.67.67,0,0,1-.46-.25l-.52-.52a3.52,3.52,0,0,1-2.27.77,3.77,3.77,0,0,1-2-.5,3.37,3.37,0,0,1-1.32-1.4,4.75,4.75,0,0,1,0-4.16,3.59,3.59,0,0,1,1.34-1.42,3.78,3.78,0,0,1,2-.51,3.71,3.71,0,0,1,2,.5,3.54,3.54,0,0,1,1.33,1.41,4.52,4.52,0,0,1,.47,2.08,4.16,4.16,0,0,1-.25,1.47,3.92,3.92,0,0,1-.68,1.22Zm-6.62-3.62a3.7,3.7,0,0,0,.37,1.67,2.69,2.69,0,0,0,2.49,1.55,2.57,2.57,0,0,0,1.74-.57l-1.48-1.5a.46.46,0,0,1-.14-.31.36.36,0,0,1,.12-.27l0,0a.31.31,0,0,1,.22-.11.45.45,0,0,1,.33.17l1.42,1.45a3.34,3.34,0,0,0,.61-2.06,3.76,3.76,0,0,0-.36-1.67,2.83,2.83,0,0,0-1-1.15,2.77,2.77,0,0,0-4,1.14,3.77,3.77,0,0,0-.36,1.68Zm12.49-1.89c.25,0,.38.14.38.41v5.29s0,0-.1.06a.52.52,0,0,1-.21,0c-.3,0-.46-.19-.5-.56,0-.21,0-.37,0-.47a2.51,2.51,0,0,1-.81.81,2.17,2.17,0,0,1-1.15.3,2,2,0,0,1-1.63-.67,2.78,2.78,0,0,1-.56-1.81v-3c0-.27.13-.41.39-.41H164c.26,0,.38.14.38.41V39.8a2,2,0,0,0,.4,1.31,1.37,1.37,0,0,0,1.11.47,1.91,1.91,0,0,0,1.06-.31,2,2,0,0,0,.7-.85V36.87c0-.27.12-.41.37-.41Zm1.32,4.28a1.48,1.48,0,0,1,.94-1.4,7.58,7.58,0,0,1,3-.48h.13v-.24a1.47,1.47,0,0,0-.4-1.11,1.54,1.54,0,0,0-1.14-.39,2,2,0,0,0-1.08.27,1.81,1.81,0,0,0-.66.74.34.34,0,0,1-.17,0,.67.67,0,0,1-.25-.13.41.41,0,0,1-.11-.3.64.64,0,0,1,.09-.3,1,1,0,0,1,.26-.33,2.27,2.27,0,0,1,.81-.49,3.17,3.17,0,0,1,1.16-.19,2.35,2.35,0,0,1,1.73.6,2.19,2.19,0,0,1,.61,1.66v3.52s0,0-.1.06a.52.52,0,0,1-.21,0c-.29,0-.46-.18-.5-.55s0-.4,0-.53a2.21,2.21,0,0,1-.85.84,2.57,2.57,0,0,1-1.27.31A2.15,2.15,0,0,1,170,41.9a1.45,1.45,0,0,1-.52-1.16Zm4-1.31h-.2a6.61,6.61,0,0,0-2.28.33,1,1,0,0,0-.7.95.83.83,0,0,0,.34.7,1.39,1.39,0,0,0,.91.27,2.14,2.14,0,0,0,1-.23,1.83,1.83,0,0,0,.7-.62,1.54,1.54,0,0,0,.25-.86Zm5.13-3a2,2,0,0,1,1.63.67,2.73,2.73,0,0,1,.56,1.8v3c0,.27-.12.41-.37.41h-.11c-.25,0-.38-.14-.38-.41V38.92a2,2,0,0,0-.39-1.31,1.36,1.36,0,0,0-1.1-.47,1.9,1.9,0,0,0-1.07.31,2,2,0,0,0-.7.84v3.55c0,.27-.13.41-.37.41h-.11c-.26,0-.39-.14-.39-.41V36.56s0,0,.11-.06a.46.46,0,0,1,.21,0c.33,0,.51.24.52.72v.33a2.36,2.36,0,0,1,.8-.83,2.23,2.23,0,0,1,1.16-.3Zm5.61,6a1.47,1.47,0,0,1-1.18-.44,2,2,0,0,1-.39-1.35V37.24h-.56c-.25,0-.37-.11-.37-.32v-.09c0-.21.12-.32.37-.32h.56v-1c0-.27.13-.41.39-.41h.09c.25,0,.37.14.37.41v1H185c.25,0,.37.11.37.32v.07c0,.23-.13.34-.38.34h-1.45v3.18a1.61,1.61,0,0,0,.2.91.74.74,0,0,0,.65.28,1,1,0,0,0,.85-.44s0,0,.08,0a.4.4,0,0,1,.11.14.52.52,0,0,1,0,.23.59.59,0,0,1-.22.44,1.41,1.41,0,0,1-1,.33Zm1.8-1.6a1.48,1.48,0,0,1,.94-1.4,7.58,7.58,0,0,1,3-.48h.14v-.24a1.51,1.51,0,0,0-.4-1.11,1.59,1.59,0,0,0-1.15-.39,2,2,0,0,0-1.08.27,1.81,1.81,0,0,0-.66.74.3.3,0,0,1-.16,0,.55.55,0,0,1-.25-.13.38.38,0,0,1-.12-.3.64.64,0,0,1,.09-.3,1.15,1.15,0,0,1,.26-.33,2.46,2.46,0,0,1,.81-.49,3.21,3.21,0,0,1,1.16-.19,2.35,2.35,0,0,1,1.73.6,2.19,2.19,0,0,1,.61,1.66v3.52s0,0-.1.06a.49.49,0,0,1-.21,0c-.29,0-.46-.18-.5-.55s0-.4,0-.53a2.15,2.15,0,0,1-.85.84,2.57,2.57,0,0,1-1.27.31,2.15,2.15,0,0,1-1.42-.43,1.45,1.45,0,0,1-.52-1.16Zm4.05-1.31h-.21a6.61,6.61,0,0,0-2.28.33,1,1,0,0,0-.69.95.84.84,0,0,0,.33.7,1.41,1.41,0,0,0,.91.27,2.14,2.14,0,0,0,1-.23,1.83,1.83,0,0,0,.7-.62,1.55,1.55,0,0,0,.26-.86Zm2.24,2.32a.82.82,0,0,1-.34-.58.37.37,0,0,1,.07-.23.84.84,0,0,1,.18-.15l.12,0a2,2,0,0,0,.77.65,2.51,2.51,0,0,0,1.16.25,1.85,1.85,0,0,0,1.05-.26.79.79,0,0,0,.38-.68.69.69,0,0,0-.19-.51,1.29,1.29,0,0,0-.49-.28c-.2-.07-.51-.14-.91-.23a7.42,7.42,0,0,1-1-.27,1.64,1.64,0,0,1-.69-.47,1.22,1.22,0,0,1-.29-.85,1.5,1.5,0,0,1,.6-1.24,2.39,2.39,0,0,1,1.57-.48,3.17,3.17,0,0,1,1.12.18,1.84,1.84,0,0,1,.74.46.82.82,0,0,1,.16.22.6.6,0,0,1,.06.24.38.38,0,0,1-.08.23.55.55,0,0,1-.18.16c-.07,0-.1.05-.11,0a1.76,1.76,0,0,0-.7-.61,2.08,2.08,0,0,0-1-.24,1.73,1.73,0,0,0-1,.26A.82.82,0,0,0,193,38a.65.65,0,0,0,.18.48,1.37,1.37,0,0,0,.48.27,7.28,7.28,0,0,0,.89.23,9.31,9.31,0,0,1,1,.3,1.64,1.64,0,0,1,.71.47,1.2,1.2,0,0,1,.3.86,1.49,1.49,0,0,1-.61,1.26,2.62,2.62,0,0,1-1.66.47,3.63,3.63,0,0,1-1.15-.16,2.87,2.87,0,0,1-.8-.43Zm10.38-5.37a2.54,2.54,0,0,1,1.35.37,2.57,2.57,0,0,1,.94,1,3.37,3.37,0,0,1,.34,1.55A3.44,3.44,0,0,1,205,40.9a2.59,2.59,0,0,1-.94,1.07,2.56,2.56,0,0,1-1.37.37,2.36,2.36,0,0,1-1.28-.34,2,2,0,0,1-.78-.85v3c0,.27-.12.41-.37.41h-.1c-.25,0-.38-.14-.38-.41V36.56s0,0,.1-.06a.45.45,0,0,1,.2,0c.32,0,.49.22.53.65v.49a2.38,2.38,0,0,1,.85-.9,2.27,2.27,0,0,1,1.24-.32Zm-.18,5.23A1.75,1.75,0,0,0,204,41a2.4,2.4,0,0,0,.54-1.64,2.57,2.57,0,0,0-.25-1.16,2,2,0,0,0-.69-.8,1.82,1.82,0,0,0-1-.28,1.94,1.94,0,0,0-1.18.36,2.16,2.16,0,0,0-.75,1v1.27a1.71,1.71,0,0,0,.26.94,1.8,1.8,0,0,0,.69.68,2,2,0,0,0,1,.24Zm3.62-2.22a3.2,3.2,0,0,1,.37-1.55,2.83,2.83,0,0,1,3.84-1.11,2.36,2.36,0,0,1,.91,1,3.12,3.12,0,0,1,.32,1.47v.08a.32.32,0,0,1-.06.22.37.37,0,0,1-.24.06H207a.71.71,0,0,0,0,.16,2.1,2.1,0,0,0,.65,1.39,2,2,0,0,0,1.43.53,2.11,2.11,0,0,0,1.17-.29,2,2,0,0,0,.68-.77l.16,0a.57.57,0,0,1,.23.15.39.39,0,0,1,.1.28.61.61,0,0,1-.11.33,1.45,1.45,0,0,1-.34.37,2.37,2.37,0,0,1-.79.44,3.23,3.23,0,0,1-1.11.17,3,3,0,0,1-1.52-.37,2.49,2.49,0,0,1-1-1,3.13,3.13,0,0,1-.37-1.54Zm4.59-.47a2,2,0,0,0-.51-1.34,1.65,1.65,0,0,0-1.26-.51,1.84,1.84,0,0,0-1.31.51,2.25,2.25,0,0,0-.66,1.34Zm4.2,5.92a1.48,1.48,0,0,1-.61-.12,1.34,1.34,0,0,1-.41-.31.66.66,0,0,1-.14-.37c0-.22.1-.35.3-.37a1,1,0,0,0,.78.47.81.81,0,0,0,.5-.16.56.56,0,0,0,.2-.49,1.09,1.09,0,0,0-.34-.72,2.33,2.33,0,0,0-.76-.53,2.53,2.53,0,0,1-1.5-1,3.08,3.08,0,0,1-.57-1.87,3.19,3.19,0,0,1,.37-1.52,2.76,2.76,0,0,1,1-1.06,2.87,2.87,0,0,1,1.49-.38,2.92,2.92,0,0,1,1.1.19,2.59,2.59,0,0,1,.8.5,1.57,1.57,0,0,1,.34.45.9.9,0,0,1,.12.41.34.34,0,0,1-.12.27.66.66,0,0,1-.26.14c-.1,0-.15,0-.17,0a1.77,1.77,0,0,0-1.8-1.22,1.89,1.89,0,0,0-1,.29,1.86,1.86,0,0,0-.73.79,2.4,2.4,0,0,0-.27,1.14,2.64,2.64,0,0,0,.26,1.17,1.93,1.93,0,0,0,1.79,1.09,1.85,1.85,0,0,0,1.15-.33,2,2,0,0,0,.65-.89s.06,0,.16,0a.57.57,0,0,1,.27.13.38.38,0,0,1,.12.29,1,1,0,0,1-.11.38,2.15,2.15,0,0,1-.33.45,2.45,2.45,0,0,1-1.33.67,3.15,3.15,0,0,1-.44,0,2.14,2.14,0,0,1,.6.6,1.38,1.38,0,0,1,.24.78,1,1,0,0,1-.4.84,1.47,1.47,0,0,1-.93.29Zm3.47-4.1a1.46,1.46,0,0,1,.94-1.4,7.5,7.5,0,0,1,3-.48h.13v-.24a1.51,1.51,0,0,0-.4-1.11,1.58,1.58,0,0,0-1.14-.39,2.07,2.07,0,0,0-1.09.27,1.81,1.81,0,0,0-.66.74.3.3,0,0,1-.16,0,.6.6,0,0,1-.25-.13.38.38,0,0,1-.12-.3.64.64,0,0,1,.09-.3,1.15,1.15,0,0,1,.26-.33,2.46,2.46,0,0,1,.81-.49,3.25,3.25,0,0,1,1.16-.19,2.39,2.39,0,0,1,1.74.6,2.23,2.23,0,0,1,.61,1.66v3.52s0,0-.1.06a.52.52,0,0,1-.21,0c-.3,0-.47-.18-.51-.55s0-.4,0-.53a2.08,2.08,0,0,1-.85.84,2.54,2.54,0,0,1-1.27.31A2.12,2.12,0,0,1,219,41.9a1.42,1.42,0,0,1-.52-1.16Zm4-1.31h-.2a6.52,6.52,0,0,0-2.28.33,1,1,0,0,0-.7.95.84.84,0,0,0,.33.7,1.43,1.43,0,0,0,.91.27,2.11,2.11,0,0,0,1-.23,1.76,1.76,0,0,0,.7-.62,1.55,1.55,0,0,0,.26-.86Zm2.25,2.32a.8.8,0,0,1-.35-.58.38.38,0,0,1,.08-.23.8.8,0,0,1,.17-.15l.12,0a2,2,0,0,0,.78.65,2.45,2.45,0,0,0,1.16.25,1.84,1.84,0,0,0,1-.26.79.79,0,0,0,.38-.68.66.66,0,0,0-.19-.51,1.22,1.22,0,0,0-.49-.28,8.91,8.91,0,0,0-.91-.23,6.86,6.86,0,0,1-1-.27,1.67,1.67,0,0,1-.7-.47,1.21,1.21,0,0,1-.28-.85,1.49,1.49,0,0,1,.59-1.24,2.41,2.41,0,0,1,1.57-.48,3.13,3.13,0,0,1,1.12.18,2,2,0,0,1,.75.46,1.07,1.07,0,0,1,.15.22.6.6,0,0,1,.06.24.38.38,0,0,1-.08.23.55.55,0,0,1-.18.16c-.06,0-.1.05-.11,0a1.79,1.79,0,0,0-.69-.61,2.15,2.15,0,0,0-1-.24,1.75,1.75,0,0,0-1,.26.81.81,0,0,0-.36.68.65.65,0,0,0,.18.48,1.37,1.37,0,0,0,.48.27,6.57,6.57,0,0,0,.88.23,10.25,10.25,0,0,1,1.05.3,1.77,1.77,0,0,1,.71.47,1.2,1.2,0,0,1,.3.86,1.5,1.5,0,0,1-.62,1.26,2.62,2.62,0,0,1-1.66.47,3.57,3.57,0,0,1-1.14-.16,2.61,2.61,0,0,1-.8-.43Z"/><path d="M155.06,59.27a3.09,3.09,0,0,1,.37-1.53,2.6,2.6,0,0,1,1-1.05,2.82,2.82,0,0,1,1.48-.39,3.13,3.13,0,0,1,1.1.19,2.5,2.5,0,0,1,.8.51,1.61,1.61,0,0,1,.35.45,1,1,0,0,1,.11.41.37.37,0,0,1-.11.27.68.68,0,0,1-.27.13c-.09,0-.15,0-.17,0A1.77,1.77,0,0,0,158,57a2,2,0,0,0-1,.29,2,2,0,0,0-.73.8,2.39,2.39,0,0,0-.26,1.14,2.57,2.57,0,0,0,.25,1.16,1.85,1.85,0,0,0,.73.81,2,2,0,0,0,1.06.29,1.79,1.79,0,0,0,1.15-.34,1.94,1.94,0,0,0,.65-.88s.07,0,.17,0a.59.59,0,0,1,.27.14.4.4,0,0,1,.11.29,1.06,1.06,0,0,1-.11.39,1.73,1.73,0,0,1-.35.44,2.09,2.09,0,0,1-.78.52,3,3,0,0,1-1.13.19,2.91,2.91,0,0,1-1.48-.38,2.69,2.69,0,0,1-1-1.07,3.2,3.2,0,0,1-.37-1.55Zm6,0a3.25,3.25,0,0,1,.37-1.54,2.67,2.67,0,0,1,1-1.05,3.08,3.08,0,0,1,3,0,2.7,2.7,0,0,1,1,1.07,3.25,3.25,0,0,1,.37,1.54,3.21,3.21,0,0,1-.37,1.53,2.76,2.76,0,0,1-1,1.06,3,3,0,0,1-1.5.38,3,3,0,0,1-1.5-.38,2.63,2.63,0,0,1-1-1.07,3.13,3.13,0,0,1-.37-1.54Zm4.95,0a2.6,2.6,0,0,0-.26-1.16,2,2,0,0,0-.73-.81,1.89,1.89,0,0,0-1-.3,2,2,0,0,0-1.06.29,2,2,0,0,0-.74.8,2.63,2.63,0,0,0,0,2.32,2.07,2.07,0,0,0,.74.81,2,2,0,0,0,1.06.29,2,2,0,0,0,1.78-1.08A2.57,2.57,0,0,0,166,59.3Zm8.55-3a2,2,0,0,1,1.58.63,2.65,2.65,0,0,1,.54,1.78v3.06a.35.35,0,0,1-.39.4h-.09a.35.35,0,0,1-.39-.4v-3a2,2,0,0,0-.36-1.27,1.32,1.32,0,0,0-1.07-.44,1.65,1.65,0,0,0-1,.3,1.83,1.83,0,0,0-.64.83v3.57c0,.27-.13.4-.38.4h-.1c-.25,0-.38-.13-.38-.4V58.71a1.8,1.8,0,0,0-.37-1.22,1.34,1.34,0,0,0-1.07-.42,1.61,1.61,0,0,0-.93.3,1.89,1.89,0,0,0-.67.83v3.57c0,.27-.12.4-.37.4h-.11c-.25,0-.38-.13-.38-.4V56.48l.1-.06a.76.76,0,0,1,.21,0c.34,0,.51.23.53.7v.29a2.11,2.11,0,0,1,.76-.78,1.89,1.89,0,0,1,1.05-.3,2.09,2.09,0,0,1,1.19.34,1.82,1.82,0,0,1,.69.93,2.36,2.36,0,0,1,.79-.92,2.12,2.12,0,0,1,1.2-.35Zm3.24,3a3.13,3.13,0,0,1,.37-1.54,2.67,2.67,0,0,1,1-1.05,2.89,2.89,0,0,1,1.5-.39,2.83,2.83,0,0,1,1.49.39,2.57,2.57,0,0,1,1,1.07,3.14,3.14,0,0,1,.38,1.54,3.1,3.1,0,0,1-.38,1.53,2.74,2.74,0,0,1-1,1.06,3.15,3.15,0,0,1-3,0,2.72,2.72,0,0,1-1-1.07,3.24,3.24,0,0,1-.36-1.54Zm5,0a2.6,2.6,0,0,0-.26-1.16,2,2,0,0,0-.73-.81,1.93,1.93,0,0,0-1.06-.3,2,2,0,0,0-1.05.29,2,2,0,0,0-.75.8,2.72,2.72,0,0,0,0,2.32,2.09,2.09,0,0,0,.75.81,2,2,0,0,0,1.05.29,2,2,0,0,0,1.79-1.08,2.57,2.57,0,0,0,.26-1.16Zm3.7,0a3.29,3.29,0,0,1,.37-1.55,2.69,2.69,0,0,1,2.46-1.47,2.63,2.63,0,0,1,1.38.36,2.33,2.33,0,0,1,.91,1,3.15,3.15,0,0,1,.32,1.47v.09a.29.29,0,0,1-.06.21.35.35,0,0,1-.23.06H187.3a.81.81,0,0,0,0,.17A2.12,2.12,0,0,0,188,61a2.34,2.34,0,0,0,2.6.23,1.92,1.92,0,0,0,.68-.76.32.32,0,0,1,.17,0,.54.54,0,0,1,.22.15.36.36,0,0,1,.1.27.64.64,0,0,1-.11.34,1.29,1.29,0,0,1-.34.37,2.56,2.56,0,0,1-.79.44,3.5,3.5,0,0,1-1.11.17,3,3,0,0,1-1.52-.37,2.58,2.58,0,0,1-1-1,3.21,3.21,0,0,1-.37-1.53Zm4.6-.47a2.06,2.06,0,0,0-.52-1.35,1.67,1.67,0,0,0-1.25-.5,1.85,1.85,0,0,0-1.32.51,2.22,2.22,0,0,0-.66,1.34ZM193,61.67a.82.82,0,0,1-.35-.57.36.36,0,0,1,.08-.23.8.8,0,0,1,.17-.15c.07,0,.11,0,.12,0a2.08,2.08,0,0,0,.78.65,2.61,2.61,0,0,0,1.16.25,1.85,1.85,0,0,0,1.05-.26.79.79,0,0,0,.37-.69.68.68,0,0,0-.18-.5,1.37,1.37,0,0,0-.49-.28,9.45,9.45,0,0,0-.92-.24,5.84,5.84,0,0,1-1-.26,1.73,1.73,0,0,1-.69-.47,1.24,1.24,0,0,1-.29-.86,1.53,1.53,0,0,1,.59-1.24A2.43,2.43,0,0,1,195,56.3a3.19,3.19,0,0,1,1.13.18,1.93,1.93,0,0,1,.74.47.89.89,0,0,1,.16.22.68.68,0,0,1,.05.23.4.4,0,0,1-.07.24.52.52,0,0,1-.18.15c-.07,0-.11.05-.12,0a1.88,1.88,0,0,0-.69-.61,2.11,2.11,0,0,0-1-.24,1.66,1.66,0,0,0-1,.27.78.78,0,0,0-.37.68.61.61,0,0,0,.18.47,1.24,1.24,0,0,0,.48.28c.2.06.49.14.88.23a9.19,9.19,0,0,1,1,.29,1.8,1.8,0,0,1,.71.47,1.24,1.24,0,0,1,.3.87,1.5,1.5,0,0,1-.62,1.26,2.67,2.67,0,0,1-1.65.47,3.62,3.62,0,0,1-1.15-.17,2.34,2.34,0,0,1-.8-.43Zm5.32,0a.82.82,0,0,1-.35-.57.36.36,0,0,1,.08-.23.8.8,0,0,1,.17-.15c.07,0,.11,0,.12,0a2.08,2.08,0,0,0,.78.65,2.61,2.61,0,0,0,1.16.25,1.85,1.85,0,0,0,1-.26.79.79,0,0,0,.37-.69.68.68,0,0,0-.18-.5,1.37,1.37,0,0,0-.49-.28,9.45,9.45,0,0,0-.92-.24,5.84,5.84,0,0,1-1-.26,1.73,1.73,0,0,1-.69-.47,1.24,1.24,0,0,1-.29-.86,1.53,1.53,0,0,1,.59-1.24,2.43,2.43,0,0,1,1.57-.48,3.19,3.19,0,0,1,1.13.18,1.93,1.93,0,0,1,.74.47.89.89,0,0,1,.16.22.53.53,0,0,1,.06.23.41.41,0,0,1-.08.24.52.52,0,0,1-.18.15c-.07,0-.11.05-.12,0a1.88,1.88,0,0,0-.69-.61,2.11,2.11,0,0,0-1-.24,1.66,1.66,0,0,0-1,.27.78.78,0,0,0-.37.68.61.61,0,0,0,.18.47,1.24,1.24,0,0,0,.48.28c.2.06.49.14.88.23a9.19,9.19,0,0,1,1.05.29,1.8,1.8,0,0,1,.71.47,1.24,1.24,0,0,1,.3.87,1.5,1.5,0,0,1-.62,1.26,2.67,2.67,0,0,1-1.65.47,3.62,3.62,0,0,1-1.15-.17,2.34,2.34,0,0,1-.8-.43Zm5.05-1a1.48,1.48,0,0,1,.93-1.41,7.61,7.61,0,0,1,3-.47h.14v-.24a1.51,1.51,0,0,0-.4-1.12,1.59,1.59,0,0,0-1.15-.39,2,2,0,0,0-1.08.28,1.75,1.75,0,0,0-.66.74.37.37,0,0,1-.16,0,.5.5,0,0,1-.25-.13.36.36,0,0,1-.12-.29.71.71,0,0,1,.09-.31,1.5,1.5,0,0,1,.26-.33,2.65,2.65,0,0,1,.81-.49,3.44,3.44,0,0,1,1.16-.19,2.39,2.39,0,0,1,1.74.6,2.24,2.24,0,0,1,.61,1.66v3.53s0,0-.11.06a.65.65,0,0,1-.21,0c-.29,0-.46-.19-.5-.55s0-.4,0-.53a2.15,2.15,0,0,1-.85.84,2.68,2.68,0,0,1-1.27.31,2.16,2.16,0,0,1-1.41-.43,1.43,1.43,0,0,1-.52-1.16Zm4-1.32h-.21a6.7,6.7,0,0,0-2.27.34,1,1,0,0,0-.7.94.86.86,0,0,0,.33.71,1.47,1.47,0,0,0,.91.26,2,2,0,0,0,1-.23,1.81,1.81,0,0,0,.7-.61,1.56,1.56,0,0,0,.26-.87Zm4.29,2.32a.82.82,0,0,1-.35-.57.36.36,0,0,1,.08-.23.8.8,0,0,1,.17-.15c.07,0,.11,0,.12,0a2,2,0,0,0,.78.65,2.61,2.61,0,0,0,1.16.25,1.87,1.87,0,0,0,1-.26.79.79,0,0,0,.37-.69.68.68,0,0,0-.18-.5,1.37,1.37,0,0,0-.49-.28,9.45,9.45,0,0,0-.92-.24,5.84,5.84,0,0,1-1-.26,1.73,1.73,0,0,1-.69-.47,1.2,1.2,0,0,1-.29-.86,1.53,1.53,0,0,1,.59-1.24,2.43,2.43,0,0,1,1.57-.48,3.23,3.23,0,0,1,1.13.18,1.93,1.93,0,0,1,.74.47.86.86,0,0,1,.15.22.53.53,0,0,1,.06.23.4.4,0,0,1-.07.24.8.8,0,0,1-.18.15c-.07,0-.11.05-.12,0a1.88,1.88,0,0,0-.69-.61,2.12,2.12,0,0,0-1-.24,1.68,1.68,0,0,0-1,.27.8.8,0,0,0-.36.68.61.61,0,0,0,.18.47,1.24,1.24,0,0,0,.48.28c.2.06.49.14.88.23a10.53,10.53,0,0,1,1.05.29,1.88,1.88,0,0,1,.71.47,1.24,1.24,0,0,1,.3.87,1.53,1.53,0,0,1-.62,1.26,2.67,2.67,0,0,1-1.65.47,3.62,3.62,0,0,1-1.15-.17,2.34,2.34,0,0,1-.8-.43Zm5-1a1.49,1.49,0,0,1,.94-1.41,7.61,7.61,0,0,1,3-.47h.13v-.24a1.48,1.48,0,0,0-.4-1.12,1.54,1.54,0,0,0-1.14-.39,2,2,0,0,0-1.08.28,1.75,1.75,0,0,0-.66.74.37.37,0,0,1-.16,0,.53.53,0,0,1-.26-.13.38.38,0,0,1-.11-.29.71.71,0,0,1,.09-.31,1.5,1.5,0,0,1,.26-.33,2.53,2.53,0,0,1,.81-.49,3.44,3.44,0,0,1,1.16-.19,2.35,2.35,0,0,1,1.73.6,2.2,2.2,0,0,1,.61,1.66v3.53s0,0-.1.06a.78.78,0,0,1-.21,0c-.29,0-.46-.19-.5-.55s0-.4,0-.53a2.15,2.15,0,0,1-.85.84,2.68,2.68,0,0,1-1.27.31,2.21,2.21,0,0,1-1.42-.43,1.46,1.46,0,0,1-.52-1.16Zm4-1.32h-.2a6.81,6.81,0,0,0-2.28.34,1,1,0,0,0-.7.94.87.87,0,0,0,.34.71,1.47,1.47,0,0,0,.91.26,2,2,0,0,0,1-.23,1.81,1.81,0,0,0,.7-.61,1.55,1.55,0,0,0,.25-.87Zm-2.84-4a.4.4,0,0,1-.28-.11.88.88,0,0,1,0-.3,1.33,1.33,0,0,1,.29-.74.77.77,0,0,1,.63-.3A1,1,0,0,1,219,54a2.38,2.38,0,0,1,.42.3,3.13,3.13,0,0,0,.65.5.33.33,0,0,0,.17-.16,1.54,1.54,0,0,0,.15-.29,1,1,0,0,1,.15-.29.2.2,0,0,1,.18-.09.4.4,0,0,1,.27.09,1,1,0,0,1,0,.32,1.3,1.3,0,0,1-.29.73.76.76,0,0,1-.63.29.88.88,0,0,1-.43-.1,3,3,0,0,1-.43-.29l-.28-.25a2.08,2.08,0,0,0-.35-.26.46.46,0,0,0-.16.15,1.38,1.38,0,0,0-.15.3,3.2,3.2,0,0,1-.17.3.23.23,0,0,1-.19.09Zm4.82,3.91a3.13,3.13,0,0,1,.37-1.54,2.6,2.6,0,0,1,1-1.05,2.87,2.87,0,0,1,1.5-.39,2.83,2.83,0,0,1,1.49.39,2.57,2.57,0,0,1,1,1.07,3.13,3.13,0,0,1,.37,1.54,3.09,3.09,0,0,1-.37,1.53,2.69,2.69,0,0,1-1,1.06,2.92,2.92,0,0,1-1.49.38,3,3,0,0,1-1.5-.38,2.65,2.65,0,0,1-1-1.07,3.24,3.24,0,0,1-.36-1.54Zm4.95,0a2.48,2.48,0,0,0-.27-1.16,1.85,1.85,0,0,0-.73-.81,1.89,1.89,0,0,0-1-.3,2,2,0,0,0-1.8,1.09,2.63,2.63,0,0,0,0,2.32,2.14,2.14,0,0,0,.74.81,2,2,0,0,0,1.06.29,2,2,0,0,0,1-.29,1.86,1.86,0,0,0,.73-.79,2.45,2.45,0,0,0,.27-1.16Z"/><path d="M153.17,73.74a2,2,0,0,1,1.63.67,2.71,2.71,0,0,1,.56,1.8v3c0,.27-.13.41-.38.41h-.1c-.26,0-.39-.14-.39-.41V76.28a2.08,2.08,0,0,0-.38-1.31A1.37,1.37,0,0,0,153,74.5a1.92,1.92,0,0,0-1.07.31,2,2,0,0,0-.7.84V79.2c0,.27-.12.41-.37.41h-.11c-.25,0-.38-.14-.38-.41V73.92s0,0,.1-.06a.52.52,0,0,1,.21,0c.34,0,.51.24.53.72v.33A2.27,2.27,0,0,1,152,74a2.2,2.2,0,0,1,1.16-.3Zm3.31,3a3.31,3.31,0,0,1,.36-1.55,2.73,2.73,0,0,1,2.46-1.46,2.67,2.67,0,0,1,1.38.35,2.38,2.38,0,0,1,.92,1,3.25,3.25,0,0,1,.32,1.47v.08a.28.28,0,0,1-.07.22.33.33,0,0,1-.23.06H157.3a.63.63,0,0,0,0,.16,2.05,2.05,0,0,0,.65,1.39,2,2,0,0,0,1.43.53,2.1,2.1,0,0,0,1.16-.29,2.06,2.06,0,0,0,.69-.77l.16,0a.65.65,0,0,1,.23.15.39.39,0,0,1,.1.28.71.71,0,0,1-.11.33,1.45,1.45,0,0,1-.34.37,2.47,2.47,0,0,1-.79.44,3.25,3.25,0,0,1-1.12.17,3,3,0,0,1-1.51-.37,2.58,2.58,0,0,1-1-1,3.24,3.24,0,0,1-.36-1.54Zm4.59-.47a2,2,0,0,0-.51-1.34,1.65,1.65,0,0,0-1.26-.51,1.81,1.81,0,0,0-1.31.51,2.25,2.25,0,0,0-.66,1.34Zm1.65.42a3.08,3.08,0,0,1,.37-1.52,2.76,2.76,0,0,1,1-1.06,2.84,2.84,0,0,1,1.48-.38,2.88,2.88,0,0,1,1.1.19,2.37,2.37,0,0,1,.8.5,1.61,1.61,0,0,1,.35.45.9.9,0,0,1,.12.41.34.34,0,0,1-.12.27.73.73,0,0,1-.26.14c-.1,0-.16,0-.17,0a1.77,1.77,0,0,0-1.81-1.22,1.89,1.89,0,0,0-1.05.29,2,2,0,0,0-.73.79,2.7,2.7,0,0,0,0,2.31,1.93,1.93,0,0,0,.72.8,1.9,1.9,0,0,0,1.06.29,1.88,1.88,0,0,0,1.16-.33,2.11,2.11,0,0,0,.65-.89s.06,0,.16,0a.57.57,0,0,1,.27.13.38.38,0,0,1,.12.29.93.93,0,0,1-.12.39,2,2,0,0,1-.35.45,2.2,2.2,0,0,1-.78.51,3,3,0,0,1-1.13.19,2.84,2.84,0,0,1-1.48-.38,2.7,2.7,0,0,1-1-1.07,3.17,3.17,0,0,1-.37-1.55Zm6,0a3.31,3.31,0,0,1,.36-1.55,2.72,2.72,0,0,1,1-1.07,2.75,2.75,0,0,1,1.46-.39,2.72,2.72,0,0,1,1.38.35,2.36,2.36,0,0,1,.91,1,3.12,3.12,0,0,1,.32,1.47v.08a.32.32,0,0,1-.06.22.33.33,0,0,1-.23.06h-4.32a.71.71,0,0,0,0,.16,2.14,2.14,0,0,0,.65,1.39,2,2,0,0,0,1.43.53,2.11,2.11,0,0,0,1.17-.29,2.06,2.06,0,0,0,.69-.77l.16,0a.54.54,0,0,1,.22.15.39.39,0,0,1,.11.28.64.64,0,0,1-.12.33,1.29,1.29,0,0,1-.34.37,2.37,2.37,0,0,1-.79.44,3.2,3.2,0,0,1-1.11.17,3,3,0,0,1-1.52-.37,2.49,2.49,0,0,1-1-1,3.24,3.24,0,0,1-.36-1.54Zm4.59-.47a2,2,0,0,0-.52-1.34,1.64,1.64,0,0,0-1.25-.51,1.85,1.85,0,0,0-1.32.51,2.25,2.25,0,0,0-.66,1.34Zm1.92,2.83a.84.84,0,0,1-.35-.58.38.38,0,0,1,.08-.23.65.65,0,0,1,.18-.15l.11,0a2.08,2.08,0,0,0,.78.65,2.51,2.51,0,0,0,1.16.25,1.85,1.85,0,0,0,1.05-.26.78.78,0,0,0,.37-.68.69.69,0,0,0-.18-.51,1.29,1.29,0,0,0-.49-.28,9.25,9.25,0,0,0-.92-.23,6.86,6.86,0,0,1-1-.27,1.64,1.64,0,0,1-.69-.47,1.22,1.22,0,0,1-.29-.85,1.52,1.52,0,0,1,.59-1.24,2.44,2.44,0,0,1,1.58-.48,3.17,3.17,0,0,1,1.12.18,1.84,1.84,0,0,1,.74.46,1.12,1.12,0,0,1,.16.22.6.6,0,0,1,.06.24.38.38,0,0,1-.08.23.55.55,0,0,1-.18.16c-.07,0-.11,0-.11,0a1.83,1.83,0,0,0-.7-.61,2.11,2.11,0,0,0-1-.24,1.73,1.73,0,0,0-1,.26.8.8,0,0,0-.37.68.65.65,0,0,0,.18.48,1.37,1.37,0,0,0,.48.27,7,7,0,0,0,.88.23,9,9,0,0,1,1.05.3,1.7,1.7,0,0,1,.71.47,1.2,1.2,0,0,1,.3.86,1.49,1.49,0,0,1-.61,1.26,2.66,2.66,0,0,1-1.66.47,3.63,3.63,0,0,1-1.15-.16,2.73,2.73,0,0,1-.8-.43Zm5.32,0a.84.84,0,0,1-.35-.58.38.38,0,0,1,.08-.23.65.65,0,0,1,.18-.15l.11,0a2.16,2.16,0,0,0,.78.65,2.51,2.51,0,0,0,1.16.25,1.85,1.85,0,0,0,1.05-.26.78.78,0,0,0,.37-.68.69.69,0,0,0-.18-.51,1.29,1.29,0,0,0-.49-.28,9.25,9.25,0,0,0-.92-.23,6.86,6.86,0,0,1-1-.27,1.64,1.64,0,0,1-.69-.47,1.22,1.22,0,0,1-.29-.85,1.52,1.52,0,0,1,.59-1.24,2.44,2.44,0,0,1,1.58-.48,3.17,3.17,0,0,1,1.12.18,1.84,1.84,0,0,1,.74.46,1.12,1.12,0,0,1,.16.22.6.6,0,0,1,.06.24.38.38,0,0,1-.08.23.55.55,0,0,1-.18.16c-.07,0-.11,0-.11,0a1.83,1.83,0,0,0-.7-.61,2.11,2.11,0,0,0-1-.24,1.73,1.73,0,0,0-1,.26.8.8,0,0,0-.37.68.65.65,0,0,0,.18.48,1.37,1.37,0,0,0,.48.27,7,7,0,0,0,.88.23,9,9,0,0,1,1,.3,1.7,1.7,0,0,1,.71.47,1.2,1.2,0,0,1,.3.86,1.49,1.49,0,0,1-.61,1.26,2.66,2.66,0,0,1-1.66.47,3.63,3.63,0,0,1-1.15-.16,2.87,2.87,0,0,1-.8-.43Zm5-1a1.47,1.47,0,0,1,.93-1.4,7.6,7.6,0,0,1,3-.48h.13V76a1.51,1.51,0,0,0-.4-1.11,1.59,1.59,0,0,0-1.15-.39,2,2,0,0,0-1.08.27,1.81,1.81,0,0,0-.66.74.3.3,0,0,1-.16,0,.6.6,0,0,1-.25-.13.38.38,0,0,1-.12-.3.64.64,0,0,1,.09-.3,1.15,1.15,0,0,1,.26-.33,2.46,2.46,0,0,1,.81-.49,3.21,3.21,0,0,1,1.16-.19,2.39,2.39,0,0,1,1.74.6,2.23,2.23,0,0,1,.61,1.66v3.52s0,0-.11.06a.45.45,0,0,1-.2,0c-.3,0-.47-.18-.51-.55,0-.22,0-.4,0-.53a2.15,2.15,0,0,1-.85.84,2.54,2.54,0,0,1-1.27.31,2.12,2.12,0,0,1-1.41-.43,1.42,1.42,0,0,1-.52-1.16Zm4-1.31h-.21a6.5,6.5,0,0,0-2.27.33,1,1,0,0,0-.7,1,.84.84,0,0,0,.33.7,1.41,1.41,0,0,0,.91.27,2.11,2.11,0,0,0,1-.23,1.76,1.76,0,0,0,.7-.62,1.55,1.55,0,0,0,.26-.86ZM187.35,73c-.07,0-.11,0-.11-.05a2.21,2.21,0,0,1,.34-.59,7.51,7.51,0,0,1,.75-.92,1.17,1.17,0,0,1,.73-.41.35.35,0,0,1,.26.1.39.39,0,0,1,.11.28c0,.21-.15.43-.45.67a5.9,5.9,0,0,1-1,.64,3.87,3.87,0,0,1-.63.28Zm7,.73a1,1,0,0,1,.61.17.54.54,0,0,1,.24.45.53.53,0,0,1-.06.26.34.34,0,0,1-.12.16.2.2,0,0,1-.09,0,.91.91,0,0,0-.68-.24,1.09,1.09,0,0,0-1,.62,3.59,3.59,0,0,0-.34,1.73V79.2c0,.27-.12.41-.37.41h-.1c-.26,0-.39-.14-.39-.41V73.92s0,0,.09-.06a.54.54,0,0,1,.22,0c.29,0,.46.19.5.57s0,.48,0,.63a1.77,1.77,0,0,1,.55-1,1.35,1.35,0,0,1,.93-.32Zm1.73-1.66a.56.56,0,0,1,.14-.41.55.55,0,0,1,.41-.14.54.54,0,0,1,.41.14.56.56,0,0,1,.14.41.54.54,0,0,1-.15.4.59.59,0,0,1-.41.13.48.48,0,0,1-.54-.53Zm.11,2.16c0-.28.13-.42.38-.42h.1c.25,0,.38.14.38.42v5c0,.27-.13.41-.38.41h-.1c-.25,0-.38-.14-.38-.41Zm2.09,3.86a1.46,1.46,0,0,1,.94-1.4,7.58,7.58,0,0,1,3-.48h.13V76a1.47,1.47,0,0,0-.4-1.11,1.58,1.58,0,0,0-1.14-.39,2,2,0,0,0-1.08.27,1.91,1.91,0,0,0-.67.74.3.3,0,0,1-.16,0,.67.67,0,0,1-.25-.13.41.41,0,0,1-.11-.3.64.64,0,0,1,.09-.3,1.11,1.11,0,0,1,.25-.33,2.41,2.41,0,0,1,.82-.49,3.17,3.17,0,0,1,1.16-.19,2.36,2.36,0,0,1,1.73.6,2.19,2.19,0,0,1,.61,1.66v3.52s0,0-.1.06a.52.52,0,0,1-.21,0c-.3,0-.46-.18-.5-.55,0-.22,0-.4,0-.53a2.12,2.12,0,0,1-.84.84,2.57,2.57,0,0,1-1.27.31,2.15,2.15,0,0,1-1.42-.43,1.42,1.42,0,0,1-.52-1.16Zm4-1.31h-.2a6.61,6.61,0,0,0-2.28.33,1,1,0,0,0-.7,1,.83.83,0,0,0,.34.7,1.39,1.39,0,0,0,.91.27,2.17,2.17,0,0,0,1-.23,1.8,1.8,0,0,0,.69-.62,1.48,1.48,0,0,0,.26-.86Zm2.25,2.32a.84.84,0,0,1-.35-.58.38.38,0,0,1,.08-.23.8.8,0,0,1,.17-.15l.12,0a2,2,0,0,0,.78.65,2.48,2.48,0,0,0,1.16.25,1.85,1.85,0,0,0,1.05-.26.78.78,0,0,0,.37-.68.69.69,0,0,0-.18-.51,1.37,1.37,0,0,0-.49-.28c-.21-.07-.51-.14-.92-.23a6.86,6.86,0,0,1-1-.27,1.64,1.64,0,0,1-.69-.47,1.22,1.22,0,0,1-.29-.85,1.52,1.52,0,0,1,.59-1.24,2.43,2.43,0,0,1,1.57-.48,3.23,3.23,0,0,1,1.13.18,1.91,1.91,0,0,1,.74.46,1.07,1.07,0,0,1,.15.22.6.6,0,0,1,.06.24.37.37,0,0,1-.07.23.86.86,0,0,1-.18.16c-.07,0-.11,0-.12,0a1.79,1.79,0,0,0-.69-.61,2.11,2.11,0,0,0-1-.24,1.73,1.73,0,0,0-1,.26.8.8,0,0,0-.37.68.65.65,0,0,0,.18.48,1.37,1.37,0,0,0,.48.27,7,7,0,0,0,.88.23,9.56,9.56,0,0,1,1.05.3,1.77,1.77,0,0,1,.71.47,1.2,1.2,0,0,1,.3.86,1.5,1.5,0,0,1-.62,1.26,2.61,2.61,0,0,1-1.65.47,3.63,3.63,0,0,1-1.15-.16,2.73,2.73,0,0,1-.8-.43Zm10.39-5.37a2.48,2.48,0,0,1,1.34.37,2.52,2.52,0,0,1,.95,1,3.37,3.37,0,0,1,.34,1.55,3.44,3.44,0,0,1-.34,1.56,2.49,2.49,0,0,1-2.32,1.44,2.32,2.32,0,0,1-1.27-.34,2,2,0,0,1-.78-.85v3c0,.27-.13.41-.37.41h-.1c-.25,0-.38-.14-.38-.41V73.92s0,0,.1-.06a.45.45,0,0,1,.2,0c.32,0,.49.22.52.65l0,.49a2.3,2.3,0,0,1,.85-.9,2.27,2.27,0,0,1,1.24-.32ZM214.75,79a1.77,1.77,0,0,0,1.42-.62,2.4,2.4,0,0,0,.54-1.64,2.57,2.57,0,0,0-.25-1.16,2,2,0,0,0-.69-.8,1.82,1.82,0,0,0-1-.28,2,2,0,0,0-1.19.36,2.14,2.14,0,0,0-.74,1v1.27a1.79,1.79,0,0,0,.25.94,1.83,1.83,0,0,0,.7.68,2,2,0,0,0,1,.24Zm3.62-.87a1.46,1.46,0,0,1,.94-1.4,7.58,7.58,0,0,1,3-.48h.13V76a1.47,1.47,0,0,0-.4-1.11,1.56,1.56,0,0,0-1.14-.39,2,2,0,0,0-1.08.27,1.91,1.91,0,0,0-.67.74s-.06,0-.16,0a.67.67,0,0,1-.25-.13.41.41,0,0,1-.11-.3.64.64,0,0,1,.09-.3,1,1,0,0,1,.26-.33,2.27,2.27,0,0,1,.81-.49,3.17,3.17,0,0,1,1.16-.19,2.35,2.35,0,0,1,1.73.6,2.19,2.19,0,0,1,.61,1.66v3.52s0,0-.1.06a.52.52,0,0,1-.21,0c-.29,0-.46-.18-.5-.55,0-.22,0-.4,0-.53a2.12,2.12,0,0,1-.84.84,2.57,2.57,0,0,1-1.27.31,2.15,2.15,0,0,1-1.42-.43,1.45,1.45,0,0,1-.52-1.16Zm4-1.31h-.2a6.61,6.61,0,0,0-2.28.33,1,1,0,0,0-.7,1,.83.83,0,0,0,.34.7,1.39,1.39,0,0,0,.91.27,2.17,2.17,0,0,0,1-.23,1.91,1.91,0,0,0,.7-.62,1.54,1.54,0,0,0,.25-.86Zm4.65-3.05a1.06,1.06,0,0,1,.62.17.56.56,0,0,1,.23.45.67.67,0,0,1,0,.26.43.43,0,0,1-.13.16l-.08,0a.92.92,0,0,0-.68-.24,1.07,1.07,0,0,0-1,.62,3.58,3.58,0,0,0-.35,1.73V79.2c0,.27-.12.41-.37.41h-.09a.36.36,0,0,1-.4-.41V73.92s0,0,.1-.06a.49.49,0,0,1,.21,0q.45,0,.51.57c0,.28,0,.48,0,.63a1.84,1.84,0,0,1,.55-1,1.39,1.39,0,0,1,.93-.32Zm1.34,4.36a1.46,1.46,0,0,1,.94-1.4,7.58,7.58,0,0,1,3-.48h.13V76a1.47,1.47,0,0,0-.4-1.11,1.54,1.54,0,0,0-1.14-.39,2,2,0,0,0-1.08.27,1.81,1.81,0,0,0-.66.74.34.34,0,0,1-.17,0,.67.67,0,0,1-.25-.13.41.41,0,0,1-.11-.3.64.64,0,0,1,.09-.3,1,1,0,0,1,.26-.33,2.27,2.27,0,0,1,.81-.49,3.17,3.17,0,0,1,1.16-.19,2.35,2.35,0,0,1,1.73.6,2.19,2.19,0,0,1,.61,1.66v3.52s0,0-.1.06a.52.52,0,0,1-.21,0c-.29,0-.46-.18-.5-.55,0-.22,0-.4,0-.53a2.21,2.21,0,0,1-.85.84,2.57,2.57,0,0,1-1.27.31,2.15,2.15,0,0,1-1.42-.43,1.45,1.45,0,0,1-.52-1.16Zm4-1.31h-.2a6.61,6.61,0,0,0-2.28.33,1,1,0,0,0-.7,1,.83.83,0,0,0,.34.7,1.39,1.39,0,0,0,.91.27,2.14,2.14,0,0,0,1-.23,1.91,1.91,0,0,0,.7-.62,1.54,1.54,0,0,0,.25-.86Z"/><path d="M147.42,99a.42.42,0,0,1-.15-.32.46.46,0,0,1,0-.21.5.5,0,0,1,.11-.16s.06-.06.07,0a1,1,0,0,0,.77.32.68.68,0,0,0,.59-.25,1.38,1.38,0,0,0,.18-.79V91.67c0-.27.13-.41.39-.41h.09c.26,0,.38.14.38.41v5.91a1.88,1.88,0,0,1-.39,1.29,1.45,1.45,0,0,1-1.16.44,1.65,1.65,0,0,1-.56-.08.84.84,0,0,1-.37-.23Zm1.52-9.49a.55.55,0,0,1,.14-.41.56.56,0,0,1,.41-.14.5.5,0,0,1,.55.55.51.51,0,0,1-.15.4.57.57,0,0,1-.42.14.55.55,0,0,1-.39-.14.5.5,0,0,1-.14-.4Zm7.11,1.75c.25,0,.38.13.38.4V97s0,0-.1.06a.76.76,0,0,1-.21,0c-.29,0-.46-.18-.5-.56,0-.2,0-.36,0-.46a2.36,2.36,0,0,1-.8.8,2.12,2.12,0,0,1-1.16.31,2,2,0,0,1-1.63-.68,2.75,2.75,0,0,1-.55-1.81v-3c0-.27.12-.4.38-.4h.09a.35.35,0,0,1,.39.4v2.93a2,2,0,0,0,.39,1.31,1.34,1.34,0,0,0,1.11.47,1.83,1.83,0,0,0,1.06-.31,2,2,0,0,0,.7-.85V91.66c0-.27.12-.4.37-.4Zm4.71-.09a2,2,0,0,1,1.63.67,2.76,2.76,0,0,1,.56,1.81v3c0,.27-.13.4-.37.4h-.11c-.26,0-.38-.13-.38-.4V93.72a2,2,0,0,0-.39-1.31,1.34,1.34,0,0,0-1.11-.47,1.87,1.87,0,0,0-1.07.31,1.93,1.93,0,0,0-.7.84v3.55c0,.27-.12.4-.37.4h-.11c-.25,0-.38-.13-.38-.4V91.35l.1-.06a.76.76,0,0,1,.21,0c.34,0,.51.24.53.71v.34a2.2,2.2,0,0,1,.8-.83,2.12,2.12,0,0,1,1.16-.31Zm5.61,6a1.5,1.5,0,0,1-1.18-.44,2,2,0,0,1-.39-1.36V92h-.56c-.25,0-.37-.1-.37-.32v-.08c0-.22.12-.33.37-.33h.56v-1c0-.28.13-.42.38-.42h.1c.25,0,.37.14.37.42v1h1.45c.24,0,.37.11.37.33v.07q0,.33-.39.33h-1.44v3.18a1.57,1.57,0,0,0,.2.92.74.74,0,0,0,.65.28,1,1,0,0,0,.84-.44s0,0,.09,0a.37.37,0,0,1,.11.13.56.56,0,0,1,0,.23.59.59,0,0,1-.21.44,1.37,1.37,0,0,1-1,.34Zm1.8-1.6a1.48,1.48,0,0,1,.94-1.41,7.61,7.61,0,0,1,3-.47h.13v-.24a1.48,1.48,0,0,0-.4-1.12,1.58,1.58,0,0,0-1.14-.39,2,2,0,0,0-1.08.28,1.84,1.84,0,0,0-.67.74.38.38,0,0,1-.16,0,.55.55,0,0,1-.25-.13.38.38,0,0,1-.11-.29.71.71,0,0,1,.09-.31,1.25,1.25,0,0,1,.26-.33,2.27,2.27,0,0,1,.81-.49,3.4,3.4,0,0,1,1.16-.19,2.36,2.36,0,0,1,1.73.6,2.2,2.2,0,0,1,.61,1.66V97s0,0-.1.06a.76.76,0,0,1-.21,0c-.29,0-.46-.18-.5-.55,0-.22,0-.39,0-.52a2.12,2.12,0,0,1-.84.84,2.68,2.68,0,0,1-1.27.31,2.21,2.21,0,0,1-1.42-.43,1.43,1.43,0,0,1-.52-1.16Zm4-1.32H172a6.81,6.81,0,0,0-2.28.34,1,1,0,0,0-.7.94.85.85,0,0,0,.34.71,1.45,1.45,0,0,0,.91.26,2.17,2.17,0,0,0,1-.23,1.88,1.88,0,0,0,.7-.61,1.55,1.55,0,0,0,.25-.87Zm2.25,2.32a.82.82,0,0,1-.35-.57.36.36,0,0,1,.08-.23.8.8,0,0,1,.17-.15c.07,0,.11,0,.12,0a2,2,0,0,0,.78.65,2.61,2.61,0,0,0,1.16.24,1.85,1.85,0,0,0,1.05-.25.79.79,0,0,0,.37-.69.67.67,0,0,0-.18-.5,1.24,1.24,0,0,0-.49-.28,9.45,9.45,0,0,0-.92-.24,6.86,6.86,0,0,1-1-.27,1.62,1.62,0,0,1-.69-.46,1.24,1.24,0,0,1-.29-.86,1.53,1.53,0,0,1,.59-1.24,2.43,2.43,0,0,1,1.57-.48,3.23,3.23,0,0,1,1.13.18,1.93,1.93,0,0,1,.74.47.86.86,0,0,1,.15.22.53.53,0,0,1,.06.23.4.4,0,0,1-.07.24.84.84,0,0,1-.18.15c-.07,0-.11,0-.12,0a1.88,1.88,0,0,0-.69-.61,2.11,2.11,0,0,0-1-.24,1.66,1.66,0,0,0-1,.27.78.78,0,0,0-.37.68.61.61,0,0,0,.18.47,1.24,1.24,0,0,0,.48.28c.2.06.49.14.88.23a7.91,7.91,0,0,1,1,.29,1.88,1.88,0,0,1,.71.47,1.23,1.23,0,0,1,.3.86,1.53,1.53,0,0,1-.62,1.27,2.67,2.67,0,0,1-1.65.47,3.62,3.62,0,0,1-1.15-.17,2.34,2.34,0,0,1-.8-.43Zm7.09-2.4a3.09,3.09,0,0,1,.37-1.53,2.76,2.76,0,0,1,1-1.06,2.94,2.94,0,0,1,1.48-.38,3.13,3.13,0,0,1,1.1.19,2.39,2.39,0,0,1,.8.51,1.73,1.73,0,0,1,.35.44,1,1,0,0,1,.12.42.34.34,0,0,1-.12.27.71.71,0,0,1-.26.13c-.1,0-.16,0-.17,0a1.77,1.77,0,0,0-1.81-1.22,2,2,0,0,0-1.05.29,2,2,0,0,0-.73.8,2.67,2.67,0,0,0,0,2.3,1.89,1.89,0,0,0,.72.81,2,2,0,0,0,1.06.29,1.82,1.82,0,0,0,1.16-.34,2.07,2.07,0,0,0,.65-.88s.06,0,.16,0a.59.59,0,0,1,.27.14.37.37,0,0,1,.12.29.86.86,0,0,1-.12.38,1.61,1.61,0,0,1-.35.45,2.09,2.09,0,0,1-.78.52,3.22,3.22,0,0,1-1.13.19,2.94,2.94,0,0,1-1.48-.38,2.84,2.84,0,0,1-1-1.07,3.2,3.2,0,0,1-.37-1.55Zm6,0a3.14,3.14,0,0,1,.38-1.54,2.74,2.74,0,0,1,1-1.06,3,3,0,0,1,1.51-.38,3,3,0,0,1,1.49.38,2.84,2.84,0,0,1,1,1.07,3.2,3.2,0,0,1,.37,1.55A3.09,3.09,0,0,1,193,95.7a2.76,2.76,0,0,1-1,1.06,3,3,0,0,1-1.49.38,3,3,0,0,1-1.5-.38,2.65,2.65,0,0,1-1-1.07,3.25,3.25,0,0,1-.37-1.54Zm5,0a2.45,2.45,0,0,0-.26-1.16,2,2,0,0,0-.73-.82,2,2,0,0,0-1.05-.29,2,2,0,0,0-1.8,1.09,2.63,2.63,0,0,0,0,2.32,2.14,2.14,0,0,0,.74.81,2,2,0,0,0,1.06.29,2,2,0,0,0,1.05-.29,1.92,1.92,0,0,0,.73-.79,2.45,2.45,0,0,0,.26-1.16Zm2.87,2.5A.32.32,0,0,1,195,97h-.09a.41.41,0,0,1-.28-.09.46.46,0,0,1-.1-.34V89s0,0,.09-.07a.66.66,0,0,1,.21,0c.36,0,.55.26.55.77v2.74a2.32,2.32,0,0,1,2.1-1.19,2.54,2.54,0,0,1,1.33.37,2.57,2.57,0,0,1,.93,1,3.37,3.37,0,0,1,.35,1.55,3.44,3.44,0,0,1-.35,1.56,2.49,2.49,0,0,1-.94,1.06,2.54,2.54,0,0,1-1.37.38,2.34,2.34,0,0,1-1.29-.34,1.93,1.93,0,0,1-.78-.85Zm3.88-2.52A2.72,2.72,0,0,0,199,93a2,2,0,0,0-.69-.79,1.77,1.77,0,0,0-1-.29,1.93,1.93,0,0,0-1.2.37,2.23,2.23,0,0,0-.75,1v1.29a1.68,1.68,0,0,0,.27.93,1.78,1.78,0,0,0,.7.66,1.86,1.86,0,0,0,1,.25,1.79,1.79,0,0,0,1.41-.62,2.42,2.42,0,0,0,.54-1.64Zm4.34-3a1,1,0,0,1,.61.18.51.51,0,0,1,.24.44.54.54,0,0,1-.06.27.52.52,0,0,1-.12.16c-.05,0-.08,0-.09,0a.91.91,0,0,0-.68-.24,1.11,1.11,0,0,0-1,.62,3.66,3.66,0,0,0-.34,1.74v2.26c0,.27-.13.4-.37.4h-.1a.35.35,0,0,1-.39-.4V91.35s0,0,.09-.06a.78.78,0,0,1,.22,0c.29,0,.46.19.5.57s0,.48,0,.62a1.87,1.87,0,0,1,.55-1,1.4,1.4,0,0,1,.94-.33Zm1.73-1.66a.6.6,0,0,1,.14-.41.67.67,0,0,1,.82,0,.6.6,0,0,1,.14.41.51.51,0,0,1-.15.4.6.6,0,0,1-.41.14.57.57,0,0,1-.4-.14.54.54,0,0,1-.14-.4Zm.11,2.16c0-.27.13-.41.38-.41h.1c.25,0,.38.14.38.41v5c0,.27-.13.4-.38.4h-.1c-.25,0-.38-.13-.38-.4Zm4.77-.5a1,1,0,0,1,.61.18.51.51,0,0,1,.24.44.54.54,0,0,1-.06.27.4.4,0,0,1-.12.16s-.08,0-.09,0a.91.91,0,0,0-.68-.24,1.11,1.11,0,0,0-1,.62,3.66,3.66,0,0,0-.34,1.74v2.26c0,.27-.12.4-.37.4h-.1a.35.35,0,0,1-.39-.4V91.35s0,0,.09-.06a.78.78,0,0,1,.22,0c.29,0,.46.19.5.57s0,.48,0,.62a1.74,1.74,0,0,1,.55-1,1.36,1.36,0,0,1,.93-.33Zm1.16,3a3.28,3.28,0,0,1,.36-1.55,2.77,2.77,0,0,1,1-1.08,2.71,2.71,0,0,1,1.45-.39,2.58,2.58,0,0,1,1.38.36,2.33,2.33,0,0,1,.91,1,3.12,3.12,0,0,1,.33,1.47v.09a.25.25,0,0,1-.07.21.33.33,0,0,1-.23.06H212.2c0,.07,0,.13,0,.17a2.1,2.1,0,0,0,.66,1.38,2,2,0,0,0,1.42.53,1.92,1.92,0,0,0,1.86-1,.29.29,0,0,1,.16,0,.65.65,0,0,1,.23.15.41.41,0,0,1,.1.27.67.67,0,0,1-.12.34,1.29,1.29,0,0,1-.34.37,2.36,2.36,0,0,1-.79.43,3.39,3.39,0,0,1-2.63-.19,2.71,2.71,0,0,1-1-1,3.2,3.2,0,0,1-.36-1.53Zm4.59-.47a2.06,2.06,0,0,0-.52-1.35,1.64,1.64,0,0,0-1.25-.5,1.85,1.85,0,0,0-1.32.51,2.27,2.27,0,0,0-.65,1.34Zm8.53-2.55a2,2,0,0,1,1.58.63,2.65,2.65,0,0,1,.54,1.78v3.06c0,.27-.13.4-.38.4h-.1c-.25,0-.38-.13-.38-.4v-3a2,2,0,0,0-.36-1.27,1.33,1.33,0,0,0-1.07-.44,1.68,1.68,0,0,0-1,.3,1.75,1.75,0,0,0-.63.83v3.57a.35.35,0,0,1-.39.4h-.09a.35.35,0,0,1-.39-.4V93.58a1.83,1.83,0,0,0-.36-1.22,1.34,1.34,0,0,0-1.07-.42,1.62,1.62,0,0,0-.94.3,1.94,1.94,0,0,0-.66.83v3.57c0,.27-.13.4-.37.4h-.11c-.26,0-.38-.13-.38-.4V91.35s0,0,.1-.06a.76.76,0,0,1,.21,0c.33,0,.51.23.52.7l0,.29a2.16,2.16,0,0,1,.75-.78,1.94,1.94,0,0,1,1-.3,2,2,0,0,1,1.19.34,1.84,1.84,0,0,1,.7.93,2.28,2.28,0,0,1,.79-.92,2.08,2.08,0,0,1,1.19-.35Zm5.28,4.37a1.48,1.48,0,0,1,.94-1.41,7.54,7.54,0,0,1,3-.47h.13v-.24a1.51,1.51,0,0,0-.4-1.12,1.58,1.58,0,0,0-1.14-.39,2,2,0,0,0-1.09.28,1.75,1.75,0,0,0-.66.74.37.37,0,0,1-.16,0,.5.5,0,0,1-.25-.13.36.36,0,0,1-.12-.29.71.71,0,0,1,.09-.31,1.5,1.5,0,0,1,.26-.33,2.46,2.46,0,0,1,.81-.49,3.44,3.44,0,0,1,1.16-.19,2.39,2.39,0,0,1,1.74.6,2.24,2.24,0,0,1,.61,1.66V97s0,0-.11.06a.64.64,0,0,1-.2,0c-.3,0-.47-.18-.51-.55,0-.22,0-.39,0-.52a2.08,2.08,0,0,1-.85.84,2.65,2.65,0,0,1-1.27.31,2.18,2.18,0,0,1-1.41-.43,1.43,1.43,0,0,1-.52-1.16Zm4-1.32h-.21a6.7,6.7,0,0,0-2.27.34,1,1,0,0,0-.7.94.86.86,0,0,0,.33.71,1.49,1.49,0,0,0,.91.26,2.11,2.11,0,0,0,1-.23,1.74,1.74,0,0,0,.7-.61,1.56,1.56,0,0,0,.26-.87Z"/><path d="M156.55,108.61a1,1,0,0,1,.62.17.55.55,0,0,1,.23.45.67.67,0,0,1-.05.26.43.43,0,0,1-.13.16c-.05,0-.07,0-.08,0a.92.92,0,0,0-.68-.23,1.1,1.1,0,0,0-1,.62,3.71,3.71,0,0,0-.34,1.73v2.26c0,.27-.12.41-.37.41h-.09a.36.36,0,0,1-.4-.41v-5.28s0,0,.1-.06a.46.46,0,0,1,.21,0q.45,0,.51.57c0,.27,0,.48,0,.63a1.74,1.74,0,0,1,.55-1,1.35,1.35,0,0,1,.93-.32Zm1.15,3a3.31,3.31,0,0,1,.36-1.55,2.77,2.77,0,0,1,1-1.08,2.8,2.8,0,0,1,1.45-.38,2.58,2.58,0,0,1,1.38.35,2.32,2.32,0,0,1,.92,1,3.25,3.25,0,0,1,.32,1.47v.08a.25.25,0,0,1-.07.21.33.33,0,0,1-.23.06h-4.32a.65.65,0,0,0,0,.17,2.05,2.05,0,0,0,.65,1.39,2,2,0,0,0,1.43.52,2.1,2.1,0,0,0,1.16-.28,2.06,2.06,0,0,0,.69-.77.29.29,0,0,1,.16,0,.65.65,0,0,1,.23.15.39.39,0,0,1,.1.28.75.75,0,0,1-.11.33,1.45,1.45,0,0,1-.34.37,2.47,2.47,0,0,1-.79.44,3.51,3.51,0,0,1-1.12.17,3,3,0,0,1-1.51-.37,2.64,2.64,0,0,1-1-1,3.24,3.24,0,0,1-.36-1.54Zm4.59-.47a2,2,0,0,0-.51-1.34,1.65,1.65,0,0,0-1.26-.51,1.81,1.81,0,0,0-1.31.51,2.25,2.25,0,0,0-.66,1.34Zm3.9,5.8c-1.78,0-2.67-.52-2.67-1.55a1.31,1.31,0,0,1,.53-1,3.05,3.05,0,0,1,1.34-.58.64.64,0,0,1-.36-.57.71.71,0,0,1,.34-.61,2.15,2.15,0,0,1-1.05-.71,1.87,1.87,0,0,1-.39-1.17,2,2,0,0,1,.3-1.07,2,2,0,0,1,.83-.76,2.42,2.42,0,0,1,1.18-.28,2.38,2.38,0,0,1,1.35.39l.43-.64a.59.59,0,0,1,.5-.35.38.38,0,0,1,.25.08.66.66,0,0,1,.17.16.22.22,0,0,1,.06.14l-.95,1a1.85,1.85,0,0,1,.52,1.29,1.89,1.89,0,0,1-.3,1,2.11,2.11,0,0,1-.83.73,2.6,2.6,0,0,1-1.19.27h-.31a.34.34,0,0,0-.15.31.37.37,0,0,0,.25.32,5.07,5.07,0,0,0,.86.25l.45.11q1.71.42,1.71,1.53a1.4,1.4,0,0,1-.76,1.26,4.11,4.11,0,0,1-2.11.45Zm0-.62a3.44,3.44,0,0,0,1.48-.26.84.84,0,0,0,.53-.77.65.65,0,0,0-.33-.57,2.91,2.91,0,0,0-.93-.36l-.7-.17a3.3,3.3,0,0,0-1.35.39.92.92,0,0,0-.55.79.76.76,0,0,0,.47.7,3,3,0,0,0,1.38.25Zm0-4.2a1.45,1.45,0,0,0,1-.39,1.36,1.36,0,0,0,.42-1,1.42,1.42,0,0,0-.41-1,1.5,1.5,0,0,0-1.08-.4,1.46,1.46,0,0,0-1.05.4,1.42,1.42,0,0,0-.41,1,1.36,1.36,0,0,0,.42,1,1.46,1.46,0,0,0,1.06.39Zm3.51-5.19a.56.56,0,0,1,.14-.4.64.64,0,0,1,.82,0,.56.56,0,0,1,.14.4.54.54,0,0,1-.15.41.59.59,0,0,1-.41.13.57.57,0,0,1-.4-.13.58.58,0,0,1-.14-.41Zm.11,2.17c0-.28.13-.42.38-.42h.1c.25,0,.38.14.38.42v5c0,.27-.13.41-.38.41h-.1c-.25,0-.38-.14-.38-.41ZM172,113a1.45,1.45,0,0,1,.94-1.4,7.5,7.5,0,0,1,3-.48H176v-.24a1.47,1.47,0,0,0-.4-1.11,1.58,1.58,0,0,0-1.14-.39,2,2,0,0,0-1.08.27,1.84,1.84,0,0,0-.67.74.3.3,0,0,1-.16,0,.57.57,0,0,1-.25-.14.34.34,0,0,1-.11-.29.64.64,0,0,1,.09-.3,1.11,1.11,0,0,1,.25-.33,2.41,2.41,0,0,1,.82-.49,3.17,3.17,0,0,1,1.16-.19,2.4,2.4,0,0,1,1.73.59,2.23,2.23,0,0,1,.61,1.67v3.52s0,0-.1.06a.52.52,0,0,1-.21,0c-.3,0-.46-.18-.5-.55,0-.22,0-.4,0-.53a2.08,2.08,0,0,1-.85.84,2.5,2.5,0,0,1-1.26.31,2.15,2.15,0,0,1-1.42-.43A1.42,1.42,0,0,1,172,113Zm4-1.32-.2,0a6.61,6.61,0,0,0-2.28.33,1,1,0,0,0-.7,1,.83.83,0,0,0,.34.7,1.38,1.38,0,0,0,.9.26,2.11,2.11,0,0,0,1-.22,1.76,1.76,0,0,0,.7-.62,1.48,1.48,0,0,0,.26-.87Zm-2.84-4a.44.44,0,0,1-.28-.1.88.88,0,0,1,0-.3,1.37,1.37,0,0,1,.3-.75.76.76,0,0,1,.63-.29.91.91,0,0,1,.43.1c.13.08.27.18.43.3a3.28,3.28,0,0,0,.64.51.48.48,0,0,0,.18-.17,1.12,1.12,0,0,0,.14-.29,2.4,2.4,0,0,1,.15-.29.23.23,0,0,1,.19-.09.36.36,0,0,1,.26.09,1,1,0,0,1,0,.33,1.33,1.33,0,0,1-.29.73.81.81,0,0,1-.63.28.92.92,0,0,1-.44-.1,2.28,2.28,0,0,1-.42-.29l-.29-.25a1.65,1.65,0,0,0-.35-.25.45.45,0,0,0-.16.15,2.4,2.4,0,0,0-.15.29c-.06.13-.12.23-.16.3a.23.23,0,0,1-.19.09Zm4.81,3.91a3.21,3.21,0,0,1,.37-1.53,2.69,2.69,0,0,1,1-1.06,2.9,2.9,0,0,1,1.51-.38,2.85,2.85,0,0,1,1.49.38,2.7,2.7,0,0,1,1,1.07,3.17,3.17,0,0,1,.37,1.55,3.08,3.08,0,0,1-.37,1.52,2.76,2.76,0,0,1-1,1.06,3.13,3.13,0,0,1-3,0,2.63,2.63,0,0,1-1-1.06,3.17,3.17,0,0,1-.37-1.55Zm4.95,0a2.51,2.51,0,0,0-.26-1.17,2,2,0,0,0-.73-.81,1.89,1.89,0,0,0-1-.29,2,2,0,0,0-1.8,1.08,2.48,2.48,0,0,0-.27,1.16,2.45,2.45,0,0,0,.27,1.16,2.07,2.07,0,0,0,.74.81,1.94,1.94,0,0,0,1.06.29,2,2,0,0,0,1-.28,2.09,2.09,0,0,0,.73-.8,2.41,2.41,0,0,0,.26-1.15Zm7-3a2.48,2.48,0,0,1,1.34.37,2.52,2.52,0,0,1,.95,1,3.5,3.5,0,0,1,.34,1.55,3.57,3.57,0,0,1-.34,1.56,2.67,2.67,0,0,1-.95,1.07,2.54,2.54,0,0,1-1.37.37,2.32,2.32,0,0,1-1.27-.34,2,2,0,0,1-.78-.85v3c0,.27-.13.41-.37.41h-.1c-.25,0-.38-.14-.38-.41v-7.55s0,0,.09-.06a.49.49,0,0,1,.21,0c.32,0,.49.22.52.65v.49a2.38,2.38,0,0,1,.85-.9,2.3,2.3,0,0,1,1.25-.32Zm-.18,5.23a1.77,1.77,0,0,0,1.42-.62,2.4,2.4,0,0,0,.54-1.64,2.67,2.67,0,0,0-.25-1.16,2,2,0,0,0-.7-.8,1.76,1.76,0,0,0-1-.28,2,2,0,0,0-1.19.36,2.23,2.23,0,0,0-.75,1V112a1.8,1.8,0,0,0,.26.94,1.9,1.9,0,0,0,.7.68,2,2,0,0,0,1,.24Zm3.93-6.9a.5.5,0,0,1,.55-.55.54.54,0,0,1,.41.15.56.56,0,0,1,.14.4.54.54,0,0,1-.15.41.59.59,0,0,1-.41.13.57.57,0,0,1-.4-.13.58.58,0,0,1-.14-.41Zm.11,2.17c0-.28.13-.42.38-.42h.1c.25,0,.38.14.38.42v5c0,.27-.13.41-.38.41h-.1c-.25,0-.38-.14-.38-.41Zm5.25-.5a2,2,0,0,1,1.63.67,2.71,2.71,0,0,1,.55,1.8v3c0,.27-.12.41-.37.41h-.1c-.26,0-.39-.14-.39-.41v-2.92a2.08,2.08,0,0,0-.38-1.31,1.37,1.37,0,0,0-1.11-.47,1.92,1.92,0,0,0-1.07.31,2,2,0,0,0-.7.84v3.55c0,.27-.12.41-.37.41h-.11c-.25,0-.38-.14-.38-.41v-5.28s0,0,.1-.06a.52.52,0,0,1,.21,0c.33,0,.51.24.53.72v.33a2.16,2.16,0,0,1,2-1.13Zm5.6,6a1.48,1.48,0,0,1-1.17-.44,2,2,0,0,1-.39-1.35v-3.31h-.56c-.25,0-.38-.11-.38-.33v-.08c0-.21.13-.32.38-.32h.56v-1c0-.28.12-.41.38-.41h.1c.24,0,.37.13.37.41v1h1.44c.25,0,.37.11.37.32v.07c0,.23-.12.34-.38.34h-1.45v3.18a1.55,1.55,0,0,0,.21.91.72.72,0,0,0,.64.28,1,1,0,0,0,.85-.44s0,0,.09,0a.32.32,0,0,1,.1.14.51.51,0,0,1,.05.22.63.63,0,0,1-.21.45,1.42,1.42,0,0,1-1,.33Zm1.81-1.6a1.45,1.45,0,0,1,.94-1.4,7.5,7.5,0,0,1,3-.48h.13v-.24a1.47,1.47,0,0,0-.4-1.11,1.58,1.58,0,0,0-1.14-.39,2,2,0,0,0-1.08.27,1.77,1.77,0,0,0-.67.74.3.3,0,0,1-.16,0,.57.57,0,0,1-.25-.14.34.34,0,0,1-.11-.29.64.64,0,0,1,.09-.3,1.11,1.11,0,0,1,.25-.33,2.41,2.41,0,0,1,.82-.49,3.17,3.17,0,0,1,1.16-.19,2.42,2.42,0,0,1,1.73.59,2.23,2.23,0,0,1,.61,1.67v3.52s0,0-.1.06a.52.52,0,0,1-.21,0c-.3,0-.46-.18-.5-.55,0-.22,0-.4,0-.53a2.08,2.08,0,0,1-.85.84,2.5,2.5,0,0,1-1.26.31,2.15,2.15,0,0,1-1.42-.43,1.42,1.42,0,0,1-.52-1.16Zm4-1.32-.2,0A6.57,6.57,0,0,0,208,112a1,1,0,0,0-.7,1,.84.84,0,0,0,.33.7,1.43,1.43,0,0,0,.91.26,2.11,2.11,0,0,0,1-.22,1.76,1.76,0,0,0,.7-.62,1.56,1.56,0,0,0,.26-.87Zm4.6,2.92a2.49,2.49,0,0,1-1.35-.37,2.69,2.69,0,0,1-.94-1.06,3.51,3.51,0,0,1-.34-1.56,3.45,3.45,0,0,1,.34-1.54,2.5,2.5,0,0,1,2.32-1.43,2.44,2.44,0,0,1,1.25.31,2,2,0,0,1,.8.79v-3.33s0,0,.09-.06a.66.66,0,0,1,.21,0c.38,0,.56.25.56.76v7c0,.27-.12.41-.38.41h-.08c-.25,0-.37-.13-.37-.39s0-.4,0-.74a2.24,2.24,0,0,1-2.09,1.22Zm2.08-3.87a2.17,2.17,0,0,0-.72-1,2,2,0,0,0-1.19-.35,1.75,1.75,0,0,0-1.4.62,2.37,2.37,0,0,0-.54,1.62,2.58,2.58,0,0,0,.25,1.17,1.89,1.89,0,0,0,.69.81,1.76,1.76,0,0,0,1,.28,2,2,0,0,0,1-.24,2,2,0,0,0,.7-.67,1.8,1.8,0,0,0,.25-1Zm2,2.27a1.47,1.47,0,0,1,.94-1.4,7.58,7.58,0,0,1,3-.48h.14v-.24a1.51,1.51,0,0,0-.4-1.11,1.59,1.59,0,0,0-1.15-.39,2,2,0,0,0-1.08.27,1.81,1.81,0,0,0-.66.74.3.3,0,0,1-.16,0,.52.52,0,0,1-.25-.14.34.34,0,0,1-.12-.29.64.64,0,0,1,.09-.3,1.15,1.15,0,0,1,.26-.33,2.46,2.46,0,0,1,.81-.49,3.21,3.21,0,0,1,1.16-.19,2.39,2.39,0,0,1,1.73.59,2.23,2.23,0,0,1,.61,1.67v3.52s0,0-.1.06a.46.46,0,0,1-.21,0c-.29,0-.46-.18-.5-.55,0-.22,0-.4,0-.53a2.15,2.15,0,0,1-.85.84,2.57,2.57,0,0,1-1.27.31,2.1,2.1,0,0,1-1.41-.43,1.43,1.43,0,0,1-.53-1.16Zm4-1.32-.21,0a6.5,6.5,0,0,0-2.27.33,1,1,0,0,0-.7,1,.84.84,0,0,0,.33.7,1.41,1.41,0,0,0,.91.26,2.14,2.14,0,0,0,1-.22,1.83,1.83,0,0,0,.7-.62,1.56,1.56,0,0,0,.26-.87Zm3.83.65c-.24,0-.37-.1-.37-.31a2.5,2.5,0,0,1,.19-1,2.1,2.1,0,0,1,.43-.64,4.32,4.32,0,0,1,.63-.49l.56-.4a1.55,1.55,0,0,0,.31-.36,1,1,0,0,0,.13-.52,1.14,1.14,0,0,0-.41-.92,1.58,1.58,0,0,0-1.1-.35,1.7,1.7,0,0,0-1.28.46,2.18,2.18,0,0,0-.55,1.14s-.07,0-.18,0a.61.61,0,0,1-.3-.15.44.44,0,0,1-.14-.34,1.5,1.5,0,0,1,.15-.58,1.86,1.86,0,0,1,.44-.61,2.59,2.59,0,0,1,1.89-.69,2.86,2.86,0,0,1,1.24.26,2,2,0,0,1,.83.69,1.85,1.85,0,0,1,.28,1,1.67,1.67,0,0,1-.16.78,1.88,1.88,0,0,1-.39.54,5.49,5.49,0,0,1-.62.47,7.1,7.1,0,0,0-.65.47,1.59,1.59,0,0,0-.4.51,1.81,1.81,0,0,0-.18.79c0,.14-.12.21-.35.21Zm-.06,2.19a.47.47,0,0,1-.36-.12.5.5,0,0,1-.11-.37v-.16a.52.52,0,0,1,.11-.38.47.47,0,0,1,.36-.12h.17a.51.51,0,0,1,.38.12.57.57,0,0,1,.11.38V114a.54.54,0,0,1-.11.37.51.51,0,0,1-.38.12Z"/><line class="cls-1" x1="243.16" y1="122.16" x2="243.16" y2="30.01"/><path d="M261.58,58.56a.48.48,0,0,1,.1-.28.6.6,0,0,1,.21-.18c.07-.05.12-.06.12,0a1.59,1.59,0,0,0,.59.67,1.61,1.61,0,0,0,.9.26,1.31,1.31,0,0,0,1.09-.44,2.28,2.28,0,0,0,.34-1.41V52.28a.35.35,0,0,1,.4-.4h.12c.25,0,.38.13.38.4v4.86a3,3,0,0,1-.56,2,2.18,2.18,0,0,1-1.73.65,2.47,2.47,0,0,1-1-.2,1.84,1.84,0,0,1-.69-.48.88.88,0,0,1-.25-.54Zm10.33-4.66a.35.35,0,0,1,.39.4v5.3l-.11.06a.66.66,0,0,1-.21,0c-.29,0-.46-.18-.5-.56,0-.2,0-.36,0-.46a2.48,2.48,0,0,1-.81.8,2.08,2.08,0,0,1-1.15.31,2,2,0,0,1-1.63-.68,2.76,2.76,0,0,1-.56-1.81v-3c0-.27.13-.4.38-.4h.1c.25,0,.38.13.38.4v2.93a1.94,1.94,0,0,0,.4,1.31,1.34,1.34,0,0,0,1.11.47,1.83,1.83,0,0,0,1.06-.31,2,2,0,0,0,.7-.85V54.3c0-.27.12-.4.37-.4Zm4.71-.09a2,2,0,0,1,1.64.67,2.75,2.75,0,0,1,.55,1.81v3c0,.27-.12.4-.37.4h-.11c-.25,0-.38-.13-.38-.4V56.36a2,2,0,0,0-.39-1.31,1.33,1.33,0,0,0-1.1-.47,1.82,1.82,0,0,0-1.07.31,1.93,1.93,0,0,0-.7.84v3.55c0,.27-.13.4-.37.4h-.11c-.26,0-.38-.13-.38-.4V54s0,0,.1-.06a.76.76,0,0,1,.21,0c.33,0,.51.24.52.71V55a2.28,2.28,0,0,1,.8-.83,2.17,2.17,0,0,1,1.16-.31Zm5.61,6a1.5,1.5,0,0,1-1.18-.44,2,2,0,0,1-.39-1.36V54.67h-.56c-.24,0-.37-.1-.37-.32v-.08c0-.22.13-.33.37-.33h.56v-1q0-.42.39-.42h.09c.25,0,.37.14.37.42v1H283c.25,0,.37.11.37.33v.07c0,.22-.13.33-.38.33H281.5v3.18a1.65,1.65,0,0,0,.2.92.76.76,0,0,0,.65.28,1,1,0,0,0,.85-.44s0,0,.08,0a.29.29,0,0,1,.11.13.56.56,0,0,1,.05.23.57.57,0,0,1-.22.44,1.37,1.37,0,0,1-1,.34Zm1.81-1.6a1.48,1.48,0,0,1,.93-1.41,7.63,7.63,0,0,1,3-.47h.13v-.24a1.51,1.51,0,0,0-.4-1.12,1.59,1.59,0,0,0-1.15-.39,2,2,0,0,0-1.08.28,1.75,1.75,0,0,0-.66.74.37.37,0,0,1-.16,0,.5.5,0,0,1-.25-.13.36.36,0,0,1-.12-.29.71.71,0,0,1,.09-.31,1.5,1.5,0,0,1,.26-.33,2.46,2.46,0,0,1,.81-.49,3.44,3.44,0,0,1,1.16-.19,2.39,2.39,0,0,1,1.74.6,2.24,2.24,0,0,1,.61,1.66V59.6l-.11.06a.66.66,0,0,1-.21,0c-.29,0-.46-.18-.5-.55s0-.39,0-.52a2.15,2.15,0,0,1-.85.84,2.65,2.65,0,0,1-1.27.31,2.16,2.16,0,0,1-1.41-.43,1.43,1.43,0,0,1-.52-1.16Zm4-1.32h-.21a6.7,6.7,0,0,0-2.27.34,1,1,0,0,0-.7.94.86.86,0,0,0,.33.71,1.47,1.47,0,0,0,.91.26,2.11,2.11,0,0,0,1-.23,1.74,1.74,0,0,0,.7-.61,1.56,1.56,0,0,0,.26-.87Zm2.24,2.32a.8.8,0,0,1-.34-.57.31.31,0,0,1,.08-.23.61.61,0,0,1,.17-.15c.06,0,.1,0,.12,0a2,2,0,0,0,.78.65,2.57,2.57,0,0,0,1.15.24,1.85,1.85,0,0,0,1.05-.25.8.8,0,0,0,.38-.69.63.63,0,0,0-.19-.5,1.11,1.11,0,0,0-.49-.28,9.1,9.1,0,0,0-.91-.24,6.86,6.86,0,0,1-1-.27,1.59,1.59,0,0,1-.7-.46,1.24,1.24,0,0,1-.28-.86,1.5,1.5,0,0,1,.59-1.24,2.41,2.41,0,0,1,1.57-.48,3.17,3.17,0,0,1,1.12.18,1.85,1.85,0,0,1,.74.47.69.69,0,0,1,.16.22.53.53,0,0,1,.06.23.41.41,0,0,1-.08.24.65.65,0,0,1-.18.15c-.07,0-.1.05-.11,0a1.88,1.88,0,0,0-.69-.61,2.15,2.15,0,0,0-1-.24,1.66,1.66,0,0,0-1,.27.8.8,0,0,0-.36.68.61.61,0,0,0,.18.47,1.13,1.13,0,0,0,.47.28c.2.06.5.14.89.23a7.72,7.72,0,0,1,1,.29,1.84,1.84,0,0,1,.72.47,1.28,1.28,0,0,1,.29.86,1.52,1.52,0,0,1-.61,1.27,2.68,2.68,0,0,1-1.66.47,3.51,3.51,0,0,1-1.14-.17,2.39,2.39,0,0,1-.81-.43Zm5.54-.25a1,1,0,0,1,.17-.35.38.38,0,0,1,.3-.11h.08a.34.34,0,0,1,.27.12.45.45,0,0,1,.1.33v0a1.12,1.12,0,0,1-.2.57l-.92,1.59a.21.21,0,0,1-.18.07.32.32,0,0,1-.21-.08.17.17,0,0,1-.06-.19Zm4-2.1a3.17,3.17,0,0,1,.37-1.55,2.67,2.67,0,0,1,1-1.08,2.74,2.74,0,0,1,1.45-.39,2.58,2.58,0,0,1,1.38.36,2.35,2.35,0,0,1,.92,1,3.25,3.25,0,0,1,.32,1.47v.09a.25.25,0,0,1-.07.21A.33.33,0,0,1,305,57h-4.31a.81.81,0,0,0,0,.17,2,2,0,0,0,.65,1.38,2,2,0,0,0,1.43.53A1.92,1.92,0,0,0,304.67,58a.29.29,0,0,1,.16,0,.57.57,0,0,1,.23.15.36.36,0,0,1,.1.27.74.74,0,0,1-.11.34,1.45,1.45,0,0,1-.34.37,2.46,2.46,0,0,1-.79.43,3.23,3.23,0,0,1-1.11.18,3.11,3.11,0,0,1-1.52-.37,2.58,2.58,0,0,1-1-1,3.09,3.09,0,0,1-.37-1.53Zm4.59-.47A2,2,0,0,0,304,55a1.68,1.68,0,0,0-1.26-.5,1.83,1.83,0,0,0-1.31.51,2.22,2.22,0,0,0-.66,1.34Zm1.94,2.82a.82.82,0,0,1-.35-.57.36.36,0,0,1,.08-.23.8.8,0,0,1,.17-.15c.07,0,.11,0,.12,0a2,2,0,0,0,.78.65,2.61,2.61,0,0,0,1.16.24,1.82,1.82,0,0,0,1-.25.78.78,0,0,0,.38-.69.67.67,0,0,0-.18-.5,1.24,1.24,0,0,0-.49-.28,9.45,9.45,0,0,0-.92-.24,6.86,6.86,0,0,1-1-.27,1.62,1.62,0,0,1-.69-.46,1.2,1.2,0,0,1-.29-.86,1.53,1.53,0,0,1,.59-1.24,2.43,2.43,0,0,1,1.57-.48,3.23,3.23,0,0,1,1.13.18,1.93,1.93,0,0,1,.74.47.86.86,0,0,1,.15.22.53.53,0,0,1,.06.23.4.4,0,0,1-.07.24,1.19,1.19,0,0,1-.18.15c-.07,0-.11.05-.12,0a1.88,1.88,0,0,0-.69-.61,2.12,2.12,0,0,0-1-.24,1.68,1.68,0,0,0-1,.27.8.8,0,0,0-.36.68.61.61,0,0,0,.18.47,1.24,1.24,0,0,0,.48.28c.2.06.49.14.88.23a8.37,8.37,0,0,1,1.05.29,1.88,1.88,0,0,1,.71.47,1.23,1.23,0,0,1,.3.86,1.53,1.53,0,0,1-.62,1.27,2.67,2.67,0,0,1-1.65.47,3.62,3.62,0,0,1-1.15-.17,2.34,2.34,0,0,1-.8-.43Zm5.32,0a.82.82,0,0,1-.35-.57.36.36,0,0,1,.08-.23.8.8,0,0,1,.17-.15c.07,0,.11,0,.12,0a2,2,0,0,0,.78.65,2.61,2.61,0,0,0,1.16.24,1.88,1.88,0,0,0,1.05-.25.79.79,0,0,0,.37-.69.67.67,0,0,0-.18-.5,1.24,1.24,0,0,0-.49-.28,9.45,9.45,0,0,0-.92-.24,6.86,6.86,0,0,1-1-.27,1.62,1.62,0,0,1-.69-.46,1.2,1.2,0,0,1-.29-.86,1.53,1.53,0,0,1,.59-1.24,2.43,2.43,0,0,1,1.57-.48,3.23,3.23,0,0,1,1.13.18,1.93,1.93,0,0,1,.74.47.86.86,0,0,1,.15.22.53.53,0,0,1,.06.23.4.4,0,0,1-.07.24,1.19,1.19,0,0,1-.18.15c-.07,0-.11.05-.12,0a1.88,1.88,0,0,0-.69-.61,2.12,2.12,0,0,0-1-.24,1.68,1.68,0,0,0-1,.27.8.8,0,0,0-.36.68.61.61,0,0,0,.18.47,1.24,1.24,0,0,0,.48.28c.2.06.49.14.88.23a8.37,8.37,0,0,1,1,.29,1.88,1.88,0,0,1,.71.47,1.23,1.23,0,0,1,.3.86,1.53,1.53,0,0,1-.62,1.27,2.67,2.67,0,0,1-1.65.47,3.62,3.62,0,0,1-1.15-.17,2.34,2.34,0,0,1-.8-.43Zm5-1a1.49,1.49,0,0,1,.94-1.41,7.61,7.61,0,0,1,3-.47h.13v-.24a1.48,1.48,0,0,0-.4-1.12,1.54,1.54,0,0,0-1.14-.39,2,2,0,0,0-1.08.28,1.75,1.75,0,0,0-.66.74.37.37,0,0,1-.16,0,.53.53,0,0,1-.26-.13.38.38,0,0,1-.11-.29.71.71,0,0,1,.09-.31,1.5,1.5,0,0,1,.26-.33,2.36,2.36,0,0,1,.81-.49,3.44,3.44,0,0,1,1.16-.19,2.35,2.35,0,0,1,1.73.6,2.2,2.2,0,0,1,.61,1.66V59.6s0,0-.1.06a.76.76,0,0,1-.21,0c-.29,0-.46-.18-.5-.55s0-.39,0-.52a2.15,2.15,0,0,1-.85.84,2.68,2.68,0,0,1-1.27.31,2.21,2.21,0,0,1-1.42-.43,1.46,1.46,0,0,1-.52-1.16Zm4-1.32h-.2a6.81,6.81,0,0,0-2.28.34,1,1,0,0,0-.7.94.87.87,0,0,0,.34.71,1.47,1.47,0,0,0,.91.26,2.14,2.14,0,0,0,1-.23,1.81,1.81,0,0,0,.7-.61,1.55,1.55,0,0,0,.25-.87Zm2.25,2.32a.8.8,0,0,1-.34-.57.35.35,0,0,1,.07-.23.65.65,0,0,1,.18-.15c.06,0,.1,0,.12,0a2,2,0,0,0,.77.65,2.64,2.64,0,0,0,1.16.24,1.85,1.85,0,0,0,1-.25.8.8,0,0,0,.38-.69.67.67,0,0,0-.19-.5,1.17,1.17,0,0,0-.49-.28,9.1,9.1,0,0,0-.91-.24,6.68,6.68,0,0,1-1-.27,1.62,1.62,0,0,1-.69-.46,1.24,1.24,0,0,1-.29-.86,1.53,1.53,0,0,1,.59-1.24,2.44,2.44,0,0,1,1.58-.48,3.17,3.17,0,0,1,1.12.18,1.85,1.85,0,0,1,.74.47.69.69,0,0,1,.16.22.53.53,0,0,1,.06.23.41.41,0,0,1-.08.24.65.65,0,0,1-.18.15c-.07,0-.11.05-.11,0a1.83,1.83,0,0,0-.7-.61,2.08,2.08,0,0,0-1-.24,1.66,1.66,0,0,0-1,.27.81.81,0,0,0-.37.68.61.61,0,0,0,.18.47,1.24,1.24,0,0,0,.48.28c.2.06.5.14.89.23a7.72,7.72,0,0,1,1,.29,1.8,1.8,0,0,1,.71.47,1.23,1.23,0,0,1,.3.86,1.52,1.52,0,0,1-.61,1.27,2.7,2.7,0,0,1-1.66.47,3.62,3.62,0,0,1-1.15-.17,2.43,2.43,0,0,1-.8-.43Z"/><path d="M262.37,73.74a2.5,2.5,0,0,1,2.29,1.41A3.37,3.37,0,0,1,265,76.7a3.44,3.44,0,0,1-.34,1.56,2.46,2.46,0,0,1-2.31,1.44,2.3,2.3,0,0,1-1.27-.34,2,2,0,0,1-.79-.85v3c0,.27-.12.41-.37.41h-.09c-.26,0-.39-.14-.39-.41V73.92s0,0,.1-.06a.45.45,0,0,1,.2,0c.32,0,.5.22.53.65V75a2.46,2.46,0,0,1,.85-.9,2.27,2.27,0,0,1,1.24-.32ZM262.19,79a1.79,1.79,0,0,0,1.43-.62,2.4,2.4,0,0,0,.53-1.64,2.57,2.57,0,0,0-.25-1.16,1.93,1.93,0,0,0-.69-.8,1.81,1.81,0,0,0-1-.28,2,2,0,0,0-1.19.36,2.23,2.23,0,0,0-.75,1v1.27a1.8,1.8,0,0,0,.26.94,1.76,1.76,0,0,0,.7.68,1.94,1.94,0,0,0,.95.24Zm3.63-2.22a3.31,3.31,0,0,1,.36-1.55,2.72,2.72,0,0,1,1-1.07,2.77,2.77,0,0,1,1.46-.39,2.72,2.72,0,0,1,1.38.35,2.36,2.36,0,0,1,.91,1,3.12,3.12,0,0,1,.33,1.47v.08a.32.32,0,0,1-.07.22.33.33,0,0,1-.23.06h-4.32a.71.71,0,0,0,0,.16,2.14,2.14,0,0,0,.65,1.39,2,2,0,0,0,1.43.53,2.11,2.11,0,0,0,1.17-.29,2.06,2.06,0,0,0,.69-.77l.16,0a.54.54,0,0,1,.22.15.39.39,0,0,1,.11.28.64.64,0,0,1-.12.33,1.29,1.29,0,0,1-.34.37,2.37,2.37,0,0,1-.79.44,3.16,3.16,0,0,1-1.11.17,3,3,0,0,1-1.52-.37,2.49,2.49,0,0,1-1-1,3.24,3.24,0,0,1-.36-1.54Zm4.59-.47a2,2,0,0,0-.52-1.34,1.63,1.63,0,0,0-1.25-.51,1.85,1.85,0,0,0-1.32.51,2.25,2.25,0,0,0-.66,1.34Zm4.19,5.92a1.48,1.48,0,0,1-.61-.12,1.18,1.18,0,0,1-.4-.31.61.61,0,0,1-.15-.37c0-.22.1-.35.3-.37a1,1,0,0,0,.78.47.82.82,0,0,0,.51-.16.59.59,0,0,0,.19-.49,1.09,1.09,0,0,0-.34-.72,2.2,2.2,0,0,0-.75-.53,2.55,2.55,0,0,1-1.51-1,3.36,3.36,0,0,1-.19-3.39,2.69,2.69,0,0,1,1-1.06,2.81,2.81,0,0,1,1.48-.38,2.92,2.92,0,0,1,1.1.19,2.47,2.47,0,0,1,.8.5,1.61,1.61,0,0,1,.35.45.9.9,0,0,1,.12.41.34.34,0,0,1-.12.27.7.7,0,0,1-.27.14c-.09,0-.15,0-.16,0A1.79,1.79,0,0,0,275,74.48a1.89,1.89,0,0,0-1.05.29,1.92,1.92,0,0,0-.73.79,2.39,2.39,0,0,0-.26,1.14,2.64,2.64,0,0,0,.25,1.17,2,2,0,0,0,.73.8A1.9,1.9,0,0,0,275,79a1.85,1.85,0,0,0,1.15-.33,2.13,2.13,0,0,0,.66-.89s.06,0,.16,0a.57.57,0,0,1,.27.13.38.38,0,0,1,.12.29.86.86,0,0,1-.12.38,1.61,1.61,0,0,1-.33.45,2.46,2.46,0,0,1-1.32.67,3.4,3.4,0,0,1-.45,0,2.14,2.14,0,0,1,.6.6,1.38,1.38,0,0,1,.24.78,1,1,0,0,1-.39.84,1.52,1.52,0,0,1-.94.29Zm3.47-4.1a1.46,1.46,0,0,1,.94-1.4,7.5,7.5,0,0,1,3-.48h.13V76a1.47,1.47,0,0,0-.4-1.11,1.58,1.58,0,0,0-1.14-.39,2,2,0,0,0-1.08.27,1.84,1.84,0,0,0-.67.74.3.3,0,0,1-.16,0,.67.67,0,0,1-.25-.13.41.41,0,0,1-.11-.3.64.64,0,0,1,.09-.3,1.11,1.11,0,0,1,.25-.33,2.41,2.41,0,0,1,.82-.49,3.17,3.17,0,0,1,1.16-.19,2.36,2.36,0,0,1,1.73.6A2.19,2.19,0,0,1,283,76v3.52s0,0-.1.06a.52.52,0,0,1-.21,0c-.3,0-.46-.18-.5-.55,0-.22,0-.4,0-.53a2.08,2.08,0,0,1-.85.84,2.5,2.5,0,0,1-1.26.31,2.15,2.15,0,0,1-1.42-.43,1.42,1.42,0,0,1-.52-1.16Zm4-1.31h-.2a6.61,6.61,0,0,0-2.28.33,1,1,0,0,0-.7,1,.83.83,0,0,0,.34.7,1.38,1.38,0,0,0,.9.27,2.11,2.11,0,0,0,1-.23,1.76,1.76,0,0,0,.7-.62,1.48,1.48,0,0,0,.26-.86Zm2.25,2.32a.84.84,0,0,1-.35-.58.38.38,0,0,1,.08-.23.8.8,0,0,1,.17-.15l.12,0a2,2,0,0,0,.78.65,2.48,2.48,0,0,0,1.16.25,1.87,1.87,0,0,0,1.05-.26.78.78,0,0,0,.37-.68.69.69,0,0,0-.18-.51,1.37,1.37,0,0,0-.49-.28c-.21-.07-.51-.14-.92-.23a6.86,6.86,0,0,1-1-.27,1.64,1.64,0,0,1-.69-.47,1.22,1.22,0,0,1-.29-.85,1.52,1.52,0,0,1,.59-1.24,2.43,2.43,0,0,1,1.57-.48,3.23,3.23,0,0,1,1.13.18,1.91,1.91,0,0,1,.74.46,1.07,1.07,0,0,1,.15.22.6.6,0,0,1,.06.24.37.37,0,0,1-.07.23.86.86,0,0,1-.18.16c-.07,0-.11,0-.12,0a1.79,1.79,0,0,0-.69-.61,2.11,2.11,0,0,0-1-.24,1.71,1.71,0,0,0-1,.26.8.8,0,0,0-.37.68.65.65,0,0,0,.18.48,1.37,1.37,0,0,0,.48.27,7,7,0,0,0,.88.23,9.56,9.56,0,0,1,1.05.3,1.77,1.77,0,0,1,.71.47,1.2,1.2,0,0,1,.3.86,1.5,1.5,0,0,1-.62,1.26,2.61,2.61,0,0,1-1.65.47,3.63,3.63,0,0,1-1.15-.16,2.73,2.73,0,0,1-.8-.43Zm7.35,0a.84.84,0,0,1-.35-.58.38.38,0,0,1,.08-.23.65.65,0,0,1,.18-.15l.12,0a2,2,0,0,0,.77.65,2.51,2.51,0,0,0,1.16.25,1.85,1.85,0,0,0,1.05-.26.78.78,0,0,0,.37-.68.69.69,0,0,0-.18-.51,1.29,1.29,0,0,0-.49-.28,9.25,9.25,0,0,0-.92-.23,6.86,6.86,0,0,1-1-.27,1.64,1.64,0,0,1-.69-.47,1.22,1.22,0,0,1-.29-.85,1.52,1.52,0,0,1,.59-1.24,2.44,2.44,0,0,1,1.58-.48,3.17,3.17,0,0,1,1.12.18,1.84,1.84,0,0,1,.74.46,1.12,1.12,0,0,1,.16.22.6.6,0,0,1,.06.24.38.38,0,0,1-.08.23.55.55,0,0,1-.18.16c-.07,0-.11,0-.11,0a1.83,1.83,0,0,0-.7-.61,2.11,2.11,0,0,0-1-.24,1.73,1.73,0,0,0-1,.26.8.8,0,0,0-.37.68.65.65,0,0,0,.18.48,1.37,1.37,0,0,0,.48.27,6.81,6.81,0,0,0,.89.23,9.31,9.31,0,0,1,1,.3,1.7,1.7,0,0,1,.71.47,1.2,1.2,0,0,1,.3.86,1.49,1.49,0,0,1-.61,1.26,2.64,2.64,0,0,1-1.66.47,3.63,3.63,0,0,1-1.15-.16,2.87,2.87,0,0,1-.8-.43Zm5.05-1a1.46,1.46,0,0,1,.94-1.4,7.5,7.5,0,0,1,3-.48h.13V76a1.51,1.51,0,0,0-.4-1.11,1.58,1.58,0,0,0-1.14-.39,2,2,0,0,0-1.09.27,1.81,1.81,0,0,0-.66.74.3.3,0,0,1-.16,0,.6.6,0,0,1-.25-.13.38.38,0,0,1-.12-.3.64.64,0,0,1,.09-.3,1.15,1.15,0,0,1,.26-.33,2.46,2.46,0,0,1,.81-.49,3.21,3.21,0,0,1,1.16-.19,2.39,2.39,0,0,1,1.74.6,2.23,2.23,0,0,1,.61,1.66v3.52s0,0-.11.06a.45.45,0,0,1-.2,0c-.3,0-.47-.18-.51-.55,0-.22,0-.4,0-.53a2.08,2.08,0,0,1-.85.84,2.54,2.54,0,0,1-1.27.31,2.12,2.12,0,0,1-1.41-.43,1.42,1.42,0,0,1-.52-1.16Zm4-1.31h-.21a6.5,6.5,0,0,0-2.27.33,1,1,0,0,0-.7,1,.84.84,0,0,0,.33.7,1.43,1.43,0,0,0,.91.27,2.11,2.11,0,0,0,1-.23,1.76,1.76,0,0,0,.7-.62,1.55,1.55,0,0,0,.26-.86Zm-2.85-4a.41.41,0,0,1-.27-.1.68.68,0,0,1,0-.3,1.4,1.4,0,0,1,.29-.75.87.87,0,0,1,1.07-.18,2.91,2.91,0,0,1,.42.29,3.58,3.58,0,0,0,.65.51.46.46,0,0,0,.18-.16,2.15,2.15,0,0,0,.14-.3,2.4,2.4,0,0,1,.15-.29.22.22,0,0,1,.19-.09.34.34,0,0,1,.26.1.93.93,0,0,1,.05.32,1.34,1.34,0,0,1-.3.73.77.77,0,0,1-.62.28.92.92,0,0,1-.44-.1,1.87,1.87,0,0,1-.42-.29l-.29-.25a1.65,1.65,0,0,0-.35-.25.38.38,0,0,0-.16.15c0,.07-.09.16-.15.29a1.26,1.26,0,0,1-.17.3.22.22,0,0,1-.19.09Zm4.82,3.91a3.09,3.09,0,0,1,.37-1.53,2.76,2.76,0,0,1,1-1.06,2.9,2.9,0,0,1,1.51-.38,2.81,2.81,0,0,1,1.48.38,2.72,2.72,0,0,1,1,1.07,3.29,3.29,0,0,1,.37,1.55,3.19,3.19,0,0,1-.37,1.52,2.69,2.69,0,0,1-1,1.06,2.89,2.89,0,0,1-1.5.38,2.94,2.94,0,0,1-1.5-.38,2.69,2.69,0,0,1-1-1.06,3.28,3.28,0,0,1-.36-1.55Zm5,0a2.64,2.64,0,0,0-.26-1.17,2,2,0,0,0-.73-.81,1.89,1.89,0,0,0-1.05-.29,2,2,0,0,0-1.8,1.08,2.48,2.48,0,0,0-.27,1.16,2.45,2.45,0,0,0,.27,1.16,1.94,1.94,0,0,0,.74.81,1.9,1.9,0,0,0,1.06.29,2,2,0,0,0,1.05-.28,2,2,0,0,0,.73-.8,2.53,2.53,0,0,0,.26-1.15Zm9-2.92a.52.52,0,0,1,.21,0c.06,0,.1,0,.1.06v7.55a.36.36,0,0,1-.4.41h-.08c-.26,0-.38-.14-.38-.41v-3a2.42,2.42,0,0,1-.84.87,2.29,2.29,0,0,1-1.24.32,2.5,2.5,0,0,1-1.36-.37,2.6,2.6,0,0,1-.93-1.06,3.38,3.38,0,0,1-.34-1.56,3.32,3.32,0,0,1,.34-1.54,2.57,2.57,0,0,1,1-1.06,2.54,2.54,0,0,1,1.37-.37,2.36,2.36,0,0,1,1.26.32,2,2,0,0,1,.8.83v-.36c0-.47.21-.71.54-.71Zm-.55,2a2.12,2.12,0,0,0-.73-1,1.93,1.93,0,0,0-1.19-.36,1.75,1.75,0,0,0-1.4.62,2.41,2.41,0,0,0-.53,1.62,2.8,2.8,0,0,0,.24,1.18,1.86,1.86,0,0,0,.69.8,1.76,1.76,0,0,0,1,.28,2,2,0,0,0,1-.24,1.83,1.83,0,0,0,.7-.68,1.81,1.81,0,0,0,.26-1Zm6.94-2c.26,0,.38.14.38.41v5.29s0,0-.1.06a.46.46,0,0,1-.21,0c-.29,0-.46-.19-.5-.56,0-.21,0-.37,0-.47a2.51,2.51,0,0,1-.81.81,2.17,2.17,0,0,1-1.15.3A2,2,0,0,1,319,79a2.72,2.72,0,0,1-.56-1.81v-3c0-.27.13-.41.38-.41h.1c.25,0,.38.14.38.41v2.93a2,2,0,0,0,.39,1.31,1.41,1.41,0,0,0,1.12.47,1.88,1.88,0,0,0,1-.31,2,2,0,0,0,.7-.85V74.23c0-.27.13-.41.37-.41Zm1.45,2.93a3.31,3.31,0,0,1,.36-1.55,2.73,2.73,0,0,1,2.46-1.46,2.67,2.67,0,0,1,1.38.35,2.38,2.38,0,0,1,.92,1,3.25,3.25,0,0,1,.32,1.47v.08a.28.28,0,0,1-.07.22.33.33,0,0,1-.23.06h-4.32a.63.63,0,0,0,0,.16,2.05,2.05,0,0,0,.65,1.39,2,2,0,0,0,1.43.53,2.1,2.1,0,0,0,1.16-.29,2.06,2.06,0,0,0,.69-.77l.16,0a.65.65,0,0,1,.23.15.43.43,0,0,1,.1.28.71.71,0,0,1-.11.33,1.34,1.34,0,0,1-.35.37,2.31,2.31,0,0,1-.78.44,3.25,3.25,0,0,1-1.12.17,3,3,0,0,1-1.51-.37,2.58,2.58,0,0,1-1-1,3.24,3.24,0,0,1-.36-1.54Zm4.59-.47a2,2,0,0,0-.51-1.34,1.65,1.65,0,0,0-1.26-.51,1.85,1.85,0,0,0-1.32.51,2.3,2.3,0,0,0-.65,1.34Z"/><path d="M251.06,92h-.8A.36.36,0,0,1,250,92a.33.33,0,0,1-.09-.25v-.07a.32.32,0,0,1,.09-.25.41.41,0,0,1,.28-.08h.8v-.57a2.25,2.25,0,0,1,.43-1.48,1.52,1.52,0,0,1,1.23-.5,1.41,1.41,0,0,1,1,.28.5.5,0,0,1,.19.41.46.46,0,0,1,0,.21l-.1.14s-.06,0-.07,0a1,1,0,0,0-.37-.24,1.21,1.21,0,0,0-.49-.11.79.79,0,0,0-.69.32,1.69,1.69,0,0,0-.23,1v.5H253c.25,0,.38.11.38.33v.07c0,.22-.13.33-.38.33h-1.08v4.61c0,.27-.12.4-.37.4h-.09a.35.35,0,0,1-.39-.4Zm5.67-.86a1,1,0,0,1,.62.18.53.53,0,0,1,.23.44.54.54,0,0,1-.06.27.4.4,0,0,1-.12.16l-.08,0a.93.93,0,0,0-.69-.24,1.11,1.11,0,0,0-1,.62,3.66,3.66,0,0,0-.34,1.74v2.26c0,.27-.12.4-.37.4h-.09a.35.35,0,0,1-.4-.4V91.35s0,0,.1-.06a.66.66,0,0,1,.21,0c.3,0,.46.19.5.57s0,.48,0,.62a1.74,1.74,0,0,1,.55-1,1.36,1.36,0,0,1,.93-.33Zm1.34,4.37a1.48,1.48,0,0,1,.94-1.41,7.54,7.54,0,0,1,3-.47h.13v-.24a1.48,1.48,0,0,0-.4-1.12,1.58,1.58,0,0,0-1.14-.39,2,2,0,0,0-1.08.28,1.71,1.71,0,0,0-.67.74.38.38,0,0,1-.16,0,.55.55,0,0,1-.25-.13.35.35,0,0,1-.11-.29.71.71,0,0,1,.09-.31,1.44,1.44,0,0,1,.25-.33,2.41,2.41,0,0,1,.82-.49,3.4,3.4,0,0,1,1.16-.19,2.38,2.38,0,0,1,1.73.6,2.2,2.2,0,0,1,.61,1.66V97s0,0-.1.06a.76.76,0,0,1-.21,0c-.3,0-.46-.18-.5-.55,0-.22,0-.39,0-.52a2.08,2.08,0,0,1-.85.84,2.61,2.61,0,0,1-1.26.31,2.21,2.21,0,0,1-1.42-.43,1.43,1.43,0,0,1-.52-1.16Zm4-1.32h-.2a6.76,6.76,0,0,0-2.28.34,1,1,0,0,0-.7.94.86.86,0,0,0,.33.71,1.49,1.49,0,0,0,.91.26,2.11,2.11,0,0,0,1-.23,1.74,1.74,0,0,0,.7-.61,1.56,1.56,0,0,0,.26-.87Zm4.52,5.42a1.44,1.44,0,0,1-.61-.13,1.11,1.11,0,0,1-.41-.31.61.61,0,0,1-.14-.36c0-.23.1-.35.3-.37a1,1,0,0,0,.78.46.8.8,0,0,0,.5-.15.6.6,0,0,0,.2-.49,1.08,1.08,0,0,0-.35-.72,2.1,2.1,0,0,0-.75-.54,2.61,2.61,0,0,1-1.51-1,3.16,3.16,0,0,1-.56-1.87,3.21,3.21,0,0,1,.37-1.53,2.76,2.76,0,0,1,1-1.06,2.94,2.94,0,0,1,1.48-.38,3.09,3.09,0,0,1,1.1.19,2.39,2.39,0,0,1,.8.51,1.54,1.54,0,0,1,.35.44,1,1,0,0,1,.12.42.34.34,0,0,1-.12.27.71.71,0,0,1-.26.13c-.1,0-.15,0-.17,0a1.77,1.77,0,0,0-1.8-1.22,2,2,0,0,0-1.06.29,2,2,0,0,0-.73.8,2.46,2.46,0,0,0-.26,1.14,2.57,2.57,0,0,0,.26,1.16,1.89,1.89,0,0,0,.72.81,2,2,0,0,0,1.07.29,1.81,1.81,0,0,0,1.15-.34,2,2,0,0,0,.65-.88s.06,0,.16,0a.59.59,0,0,1,.27.14.37.37,0,0,1,.12.29,1,1,0,0,1-.11.38,1.87,1.87,0,0,1-.33.44,2.45,2.45,0,0,1-1.33.67,3.13,3.13,0,0,1-.44,0,2.11,2.11,0,0,1,.6.59,1.38,1.38,0,0,1,.24.78,1,1,0,0,1-.4.85,1.54,1.54,0,0,1-.93.29Zm3.47-4.1a1.48,1.48,0,0,1,.93-1.41,7.63,7.63,0,0,1,3-.47h.13v-.24a1.51,1.51,0,0,0-.4-1.12,1.59,1.59,0,0,0-1.15-.39,2,2,0,0,0-1.08.28,1.75,1.75,0,0,0-.66.74.37.37,0,0,1-.16,0,.5.5,0,0,1-.25-.13.36.36,0,0,1-.12-.29.71.71,0,0,1,.09-.31,1.5,1.5,0,0,1,.26-.33,2.46,2.46,0,0,1,.81-.49,3.44,3.44,0,0,1,1.16-.19,2.39,2.39,0,0,1,1.74.6,2.24,2.24,0,0,1,.61,1.66V97s0,0-.11.06a.66.66,0,0,1-.21,0c-.29,0-.46-.18-.5-.55,0-.22,0-.39,0-.52a2.15,2.15,0,0,1-.85.84,2.65,2.65,0,0,1-1.27.31,2.16,2.16,0,0,1-1.41-.43,1.43,1.43,0,0,1-.52-1.16Zm4-1.32h-.21a6.7,6.7,0,0,0-2.27.34,1,1,0,0,0-.7.94.86.86,0,0,0,.33.71,1.47,1.47,0,0,0,.91.26,2.11,2.11,0,0,0,1-.23,1.74,1.74,0,0,0,.7-.61,1.56,1.56,0,0,0,.26-.87Zm-2.85-4a.43.43,0,0,1-.27-.11.68.68,0,0,1,0-.3,1.33,1.33,0,0,1,.29-.74.8.8,0,0,1,.63-.3.93.93,0,0,1,.44.11,2.38,2.38,0,0,1,.42.3,3.91,3.91,0,0,0,.65.5.39.39,0,0,0,.18-.16c0-.08.09-.17.14-.29a2,2,0,0,1,.15-.3.21.21,0,0,1,.19-.08.37.37,0,0,1,.26.09,1,1,0,0,1,.05.32,1.31,1.31,0,0,1-.3.73.78.78,0,0,1-.62.29.92.92,0,0,1-.44-.1,3.62,3.62,0,0,1-.43-.29l-.28-.26a2.63,2.63,0,0,0-.35-.25.38.38,0,0,0-.16.15q-.06.11-.15.3a1.38,1.38,0,0,1-.17.29.22.22,0,0,1-.19.1Zm4.82,3.91a3.13,3.13,0,0,1,.37-1.54,2.76,2.76,0,0,1,1-1.06,3,3,0,0,1,1.5-.38,2.92,2.92,0,0,1,1.49.38,2.79,2.79,0,0,1,1,1.07,3.32,3.32,0,0,1,.37,1.55,3.21,3.21,0,0,1-.37,1.53,2.76,2.76,0,0,1-1,1.06,3.15,3.15,0,0,1-3,0,2.72,2.72,0,0,1-1-1.07,3.24,3.24,0,0,1-.36-1.54Zm4.95,0A2.57,2.57,0,0,0,280.8,93a2.08,2.08,0,0,0-.73-.82,2.06,2.06,0,0,0-2.11,0,1.91,1.91,0,0,0-.74.8,2.63,2.63,0,0,0,0,2.32,2,2,0,0,0,.74.81,2,2,0,0,0,2.84-.79,2.57,2.57,0,0,0,.26-1.16Zm6.32,3a2.5,2.5,0,0,1-1.35-.38,2.59,2.59,0,0,1-.94-1.05,3.73,3.73,0,0,1,0-3.11,2.62,2.62,0,0,1,1-1,2.67,2.67,0,0,1,2.62-.07,2,2,0,0,1,.8.79V89s0,0,.09-.07a.66.66,0,0,1,.21,0c.38,0,.56.26.56.77v7c0,.27-.12.4-.38.4h-.08a.33.33,0,0,1-.37-.38c0-.16,0-.41,0-.74a2.54,2.54,0,0,1-.85.9,2.34,2.34,0,0,1-1.25.32Zm2.08-3.88a2.14,2.14,0,0,0-.72-1,1.93,1.93,0,0,0-1.19-.36,1.79,1.79,0,0,0-1.4.62,2.41,2.41,0,0,0-.54,1.63,2.72,2.72,0,0,0,.25,1.17,1.86,1.86,0,0,0,.69.8,1.77,1.77,0,0,0,1,.29,1.92,1.92,0,0,0,1-.25,1.87,1.87,0,0,0,.7-.67,1.8,1.8,0,0,0,.25-.95Zm2,.89a3.13,3.13,0,0,1,.37-1.54,2.74,2.74,0,0,1,1-1.06,3,3,0,0,1,1.51-.38,3,3,0,0,1,1.49.38,2.84,2.84,0,0,1,1,1.07,3.2,3.2,0,0,1,.37,1.55,3.09,3.09,0,0,1-.37,1.53,2.76,2.76,0,0,1-1,1.06,3,3,0,0,1-1.49.38,3,3,0,0,1-1.5-.38,2.65,2.65,0,0,1-1-1.07,3.24,3.24,0,0,1-.36-1.54Zm4.95,0a2.45,2.45,0,0,0-.27-1.16,2,2,0,0,0-.73-.82,2,2,0,0,0-1.05-.29A2,2,0,0,0,292.6,93a2.63,2.63,0,0,0,0,2.32,2.14,2.14,0,0,0,.74.81,2,2,0,0,0,1.06.29,2,2,0,0,0,1.05-.29,1.92,1.92,0,0,0,.73-.79,2.45,2.45,0,0,0,.27-1.16Zm3.7,0a3.09,3.09,0,0,1,.37-1.53,2.76,2.76,0,0,1,1-1.06,2.94,2.94,0,0,1,1.48-.38,3.09,3.09,0,0,1,1.1.19,2.39,2.39,0,0,1,.8.51,1.73,1.73,0,0,1,.35.44,1,1,0,0,1,.12.42.34.34,0,0,1-.12.27.71.71,0,0,1-.26.13c-.1,0-.15,0-.17,0A1.77,1.77,0,0,0,303,91.91a2,2,0,0,0-1.05.29,2,2,0,0,0-.73.8,2.46,2.46,0,0,0-.26,1.14,2.57,2.57,0,0,0,.26,1.16,1.89,1.89,0,0,0,.72.81,2,2,0,0,0,1.06.29,1.82,1.82,0,0,0,1.16-.34,2,2,0,0,0,.65-.88s.06,0,.16,0a.59.59,0,0,1,.27.14.37.37,0,0,1,.12.29.86.86,0,0,1-.12.38,1.61,1.61,0,0,1-.35.45,2.09,2.09,0,0,1-.78.52,3.22,3.22,0,0,1-1.13.19,2.94,2.94,0,0,1-1.48-.38,2.84,2.84,0,0,1-1-1.07,3.2,3.2,0,0,1-.37-1.55Zm6.05-3.7c-.07,0-.11,0-.11,0a2.39,2.39,0,0,1,.34-.59,6.2,6.2,0,0,1,.76-.92,1.1,1.1,0,0,1,.72-.42.36.36,0,0,1,.26.11.37.37,0,0,1,.11.27c0,.21-.15.43-.45.67a5.9,5.9,0,0,1-1,.64,2.63,2.63,0,0,1-.63.28ZM307,97c-.26,0-.38-.13-.38-.4v-5c0-.27.12-.41.38-.41h.09c.26,0,.39.14.39.41v5a.35.35,0,0,1-.39.4Zm4.39-5.87a1,1,0,0,1,.61.18.5.5,0,0,1,.23.44.54.54,0,0,1,0,.27.53.53,0,0,1-.13.16s-.07,0-.08,0a.92.92,0,0,0-.68-.24,1.1,1.1,0,0,0-1,.62,3.66,3.66,0,0,0-.34,1.74v2.26c0,.27-.13.4-.37.4h-.1a.35.35,0,0,1-.39-.4V91.35s0,0,.09-.06a.78.78,0,0,1,.22,0c.29,0,.46.19.5.57s0,.48,0,.62a1.81,1.81,0,0,1,.55-1,1.4,1.4,0,0,1,.94-.33Zm1.15,3a3.1,3.1,0,0,1,.38-1.53,2.74,2.74,0,0,1,1-1.06,3,3,0,0,1,1.49-.38,3.13,3.13,0,0,1,1.1.19,2.61,2.61,0,0,1,.8.51,1.68,1.68,0,0,1,.34.44,1,1,0,0,1,.12.42.34.34,0,0,1-.12.27.64.64,0,0,1-.26.13c-.09,0-.15,0-.17,0a1.77,1.77,0,0,0-1.8-1.22,2,2,0,0,0-1.05.29,2,2,0,0,0-.73.8,2.34,2.34,0,0,0-.27,1.14,2.57,2.57,0,0,0,.26,1.16,1.89,1.89,0,0,0,.72.81,2,2,0,0,0,1.07.29,1.79,1.79,0,0,0,1.15-.34,2,2,0,0,0,.65-.88s.06,0,.16,0a.59.59,0,0,1,.27.14.37.37,0,0,1,.12.29.86.86,0,0,1-.12.38,1.57,1.57,0,0,1-.34.45,2.06,2.06,0,0,1-.79.52,3.22,3.22,0,0,1-1.13.19,2.87,2.87,0,0,1-1.47-.38,2.69,2.69,0,0,1-1-1.07,3.2,3.2,0,0,1-.38-1.55Zm10.94-2.88a.35.35,0,0,1,.39.4V97s0,0-.11.06a.64.64,0,0,1-.2,0c-.3,0-.47-.18-.51-.56,0-.2,0-.36,0-.46a2.48,2.48,0,0,1-.81.8,2.08,2.08,0,0,1-1.15.31,2,2,0,0,1-1.63-.68,2.76,2.76,0,0,1-.56-1.81v-3c0-.27.13-.4.38-.4h.1c.25,0,.38.13.38.4v2.93a1.94,1.94,0,0,0,.4,1.31,1.34,1.34,0,0,0,1.11.47,1.83,1.83,0,0,0,1.06-.31,2,2,0,0,0,.7-.85V91.66c0-.27.12-.4.37-.4ZM325.82,97c-.26,0-.38-.13-.38-.4V89s0,0,.09-.06a.78.78,0,0,1,.22,0c.36,0,.55.26.55.77v7a.35.35,0,0,1-.39.4Zm1.71-2.89a3.13,3.13,0,0,1,.37-1.54,2.76,2.76,0,0,1,1-1.06,3,3,0,0,1,1.5-.38,2.92,2.92,0,0,1,1.49.38,2.69,2.69,0,0,1,1,1.07,3.2,3.2,0,0,1,.38,1.55,3.1,3.1,0,0,1-.38,1.53,2.74,2.74,0,0,1-1,1.06,3.15,3.15,0,0,1-3,0,2.72,2.72,0,0,1-1-1.07,3.24,3.24,0,0,1-.36-1.54Zm5,0a2.57,2.57,0,0,0-.26-1.16,2.08,2.08,0,0,0-.73-.82,2,2,0,0,0-1.06-.29,2,2,0,0,0-1.05.29,2,2,0,0,0-.75.8,2.72,2.72,0,0,0,0,2.32,2.09,2.09,0,0,0,.75.81,2,2,0,0,0,1.05.29,2,2,0,0,0,1.79-1.08,2.57,2.57,0,0,0,.26-1.16Zm3.7.7c-.24,0-.37-.11-.37-.31a2.75,2.75,0,0,1,.19-1,2,2,0,0,1,.44-.64,4.33,4.33,0,0,1,.62-.49l.56-.4a1.23,1.23,0,0,0,.31-.36,1,1,0,0,0,.13-.52,1.13,1.13,0,0,0-.41-.92,1.63,1.63,0,0,0-1.1-.34,1.66,1.66,0,0,0-1.27.46,2,2,0,0,0-.55,1.14.42.42,0,0,1-.19,0,.61.61,0,0,1-.3-.15.42.42,0,0,1-.14-.33,1.46,1.46,0,0,1,.15-.58,1.9,1.9,0,0,1,.44-.62,2.62,2.62,0,0,1,1.89-.68,2.86,2.86,0,0,1,1.24.25,1.92,1.92,0,0,1,.83.7,1.85,1.85,0,0,1,.28,1,1.73,1.73,0,0,1-.16.78,2.2,2.2,0,0,1-.39.54,5.55,5.55,0,0,1-.62.46c-.28.19-.49.34-.65.47a1.94,1.94,0,0,0-.4.52,1.8,1.8,0,0,0-.18.78c0,.14-.12.22-.35.22Zm-.06,2.18a.49.49,0,0,1-.36-.12.48.48,0,0,1-.11-.37v-.15a.51.51,0,0,1,.11-.38.49.49,0,0,1,.36-.12h.17a.51.51,0,0,1,.38.12.56.56,0,0,1,.11.38v.15a.53.53,0,0,1-.11.37.51.51,0,0,1-.38.12Z"/><line class="cls-1" x1="345.87" y1="122.16" x2="345.87" y2="30.01"/><path d="M369.71,59.41s0,.05,0,.12a.64.64,0,0,1-.19.17.5.5,0,0,1-.27.08.75.75,0,0,1-.47-.25l-.51-.53a3.5,3.5,0,0,1-2.27.78,3.87,3.87,0,0,1-2-.5,3.54,3.54,0,0,1-1.33-1.41,4.45,4.45,0,0,1-.47-2.07,4.37,4.37,0,0,1,.48-2.08A3.55,3.55,0,0,1,364,52.29a3.78,3.78,0,0,1,2-.51,3.72,3.72,0,0,1,2,.51,3.45,3.45,0,0,1,1.32,1.41,4.33,4.33,0,0,1,.47,2.07,4.46,4.46,0,0,1-.24,1.48,3.7,3.7,0,0,1-.69,1.21Zm-6.61-3.63a3.64,3.64,0,0,0,.37,1.68,2.77,2.77,0,0,0,1,1.13A2.64,2.64,0,0,0,366,59a2.59,2.59,0,0,0,1.73-.56l-1.47-1.51a.44.44,0,0,1-.14-.31.34.34,0,0,1,.12-.26l0,0a.34.34,0,0,1,.23-.1.4.4,0,0,1,.32.16l1.43,1.45a3.38,3.38,0,0,0,.61-2.06,3.71,3.71,0,0,0-.36-1.66,2.76,2.76,0,0,0-1-1.15,2.69,2.69,0,0,0-1.49-.41,2.65,2.65,0,0,0-2.5,1.55,3.76,3.76,0,0,0-.36,1.67Zm12.48-1.88a.35.35,0,0,1,.39.4v5.3l-.11.06a.66.66,0,0,1-.21,0c-.29,0-.46-.18-.5-.56,0-.2,0-.36,0-.46a2.48,2.48,0,0,1-.81.8,2.08,2.08,0,0,1-1.15.31,2,2,0,0,1-1.63-.68,2.76,2.76,0,0,1-.56-1.81v-3c0-.27.13-.4.38-.4h.1c.25,0,.38.13.38.4v2.93a1.94,1.94,0,0,0,.4,1.31,1.34,1.34,0,0,0,1.11.47,1.83,1.83,0,0,0,1.06-.31,2,2,0,0,0,.69-.85V54.3c0-.27.13-.4.38-.4ZM377,56.83a3.28,3.28,0,0,1,.36-1.55,2.77,2.77,0,0,1,1-1.08,2.71,2.71,0,0,1,1.45-.39,2.58,2.58,0,0,1,1.38.36,2.35,2.35,0,0,1,.92,1,3.25,3.25,0,0,1,.32,1.47v.09a.25.25,0,0,1-.07.21.33.33,0,0,1-.23.06h-4.32a.72.72,0,0,0,0,.17,2,2,0,0,0,.65,1.38,2,2,0,0,0,1.43.53A1.92,1.92,0,0,0,381.8,58a.29.29,0,0,1,.16,0,.65.65,0,0,1,.23.15.36.36,0,0,1,.1.27.74.74,0,0,1-.11.34,1.45,1.45,0,0,1-.34.37,2.46,2.46,0,0,1-.79.43,3.25,3.25,0,0,1-1.12.18,3.07,3.07,0,0,1-1.51-.37,2.67,2.67,0,0,1-1-1,3.2,3.2,0,0,1-.36-1.53Zm4.59-.47a2,2,0,0,0-.51-1.35,1.68,1.68,0,0,0-1.26-.5,1.81,1.81,0,0,0-1.31.51,2.22,2.22,0,0,0-.66,1.34Zm4.55-1.69h-.8a.36.36,0,0,1-.28-.08.33.33,0,0,1-.09-.25v-.07a.32.32,0,0,1,.09-.25.41.41,0,0,1,.28-.08h.8v-.57a2.2,2.2,0,0,1,.44-1.48,1.5,1.5,0,0,1,1.23-.5,1.44,1.44,0,0,1,1,.28.53.53,0,0,1,.19.41.46.46,0,0,1-.05.21.85.85,0,0,1-.1.14s-.06,0-.07,0a1,1,0,0,0-.37-.24,1.21,1.21,0,0,0-.49-.11.79.79,0,0,0-.69.32,1.77,1.77,0,0,0-.23,1v.5h1.1c.25,0,.38.11.38.33v.07c0,.22-.13.33-.38.33H387v4.61c0,.27-.12.4-.37.4h-.09a.35.35,0,0,1-.39-.4Zm5.67-.86a1,1,0,0,1,.62.18.53.53,0,0,1,.23.44.68.68,0,0,1-.05.27.53.53,0,0,1-.13.16c-.05,0-.07,0-.08,0a.92.92,0,0,0-.68-.24,1.11,1.11,0,0,0-1,.62,3.78,3.78,0,0,0-.34,1.74v2.26c0,.27-.12.4-.37.4h-.09a.35.35,0,0,1-.4-.4V54s0,0,.1-.06a.66.66,0,0,1,.21,0q.45,0,.51.57c0,.27,0,.48,0,.62a1.74,1.74,0,0,1,.55-1,1.36,1.36,0,0,1,.93-.33Zm1.34,4.37a1.48,1.48,0,0,1,.94-1.41,7.54,7.54,0,0,1,3-.47h.13v-.24a1.48,1.48,0,0,0-.4-1.12,1.58,1.58,0,0,0-1.14-.39,2,2,0,0,0-1.08.28,1.84,1.84,0,0,0-.67.74.38.38,0,0,1-.16,0,.55.55,0,0,1-.25-.13.38.38,0,0,1-.11-.29.71.71,0,0,1,.09-.31,1.44,1.44,0,0,1,.25-.33,2.41,2.41,0,0,1,.82-.49,3.4,3.4,0,0,1,1.16-.19,2.36,2.36,0,0,1,1.73.6,2.2,2.2,0,0,1,.61,1.66V59.6s0,0-.1.06l-.21,0c-.3,0-.46-.18-.5-.55s0-.39,0-.52a2.08,2.08,0,0,1-.85.84,2.61,2.61,0,0,1-1.26.31,2.21,2.21,0,0,1-1.42-.43,1.43,1.43,0,0,1-.52-1.16Zm4-1.32H397a6.81,6.81,0,0,0-2.28.34,1,1,0,0,0-.7.94.85.85,0,0,0,.34.71,1.44,1.44,0,0,0,.9.26,2.19,2.19,0,0,0,1-.23,1.78,1.78,0,0,0,.69-.61,1.48,1.48,0,0,0,.26-.87Zm4.52,5.42a1.48,1.48,0,0,1-.61-.13,1.2,1.2,0,0,1-.41-.31.61.61,0,0,1-.14-.36c0-.23.1-.35.3-.37a1,1,0,0,0,.78.46.85.85,0,0,0,.51-.15.6.6,0,0,0,.19-.49,1.07,1.07,0,0,0-.34-.72,2.22,2.22,0,0,0-.76-.54,2.55,2.55,0,0,1-1.5-1,3.1,3.1,0,0,1-.57-1.87,3.21,3.21,0,0,1,.37-1.53,2.76,2.76,0,0,1,1-1.06,3,3,0,0,1,1.49-.38,3.13,3.13,0,0,1,1.1.19,2.61,2.61,0,0,1,.8.51,1.68,1.68,0,0,1,.34.44,1,1,0,0,1,.12.42.34.34,0,0,1-.12.27.64.64,0,0,1-.26.13c-.1,0-.15,0-.17,0a1.77,1.77,0,0,0-1.8-1.22,2,2,0,0,0-1,.29,1.88,1.88,0,0,0-.73.8,2.34,2.34,0,0,0-.27,1.14,2.57,2.57,0,0,0,.26,1.16,1.89,1.89,0,0,0,.72.81,2,2,0,0,0,1.07.29,1.79,1.79,0,0,0,1.15-.34,2,2,0,0,0,.65-.88s.06,0,.16,0a.59.59,0,0,1,.27.14.37.37,0,0,1,.12.29,1,1,0,0,1-.11.38,1.87,1.87,0,0,1-.33.44,2.45,2.45,0,0,1-1.33.67,3.13,3.13,0,0,1-.44,0,2.11,2.11,0,0,1,.6.59,1.38,1.38,0,0,1,.24.78,1,1,0,0,1-.4.85,1.54,1.54,0,0,1-.93.29Zm3.47-4.1a1.48,1.48,0,0,1,.94-1.41,7.54,7.54,0,0,1,3-.47h.13v-.24a1.51,1.51,0,0,0-.4-1.12,1.58,1.58,0,0,0-1.14-.39,2.08,2.08,0,0,0-1.09.28,1.75,1.75,0,0,0-.66.74.37.37,0,0,1-.16,0,.5.5,0,0,1-.25-.13.36.36,0,0,1-.12-.29.71.71,0,0,1,.09-.31,1.5,1.5,0,0,1,.26-.33,2.46,2.46,0,0,1,.81-.49,3.48,3.48,0,0,1,1.16-.19,2.39,2.39,0,0,1,1.74.6,2.24,2.24,0,0,1,.61,1.66V59.6l-.1.06a.76.76,0,0,1-.21,0c-.3,0-.47-.18-.51-.55s0-.39,0-.52a2.08,2.08,0,0,1-.85.84,2.65,2.65,0,0,1-1.27.31,2.18,2.18,0,0,1-1.41-.43,1.43,1.43,0,0,1-.52-1.16Zm4-1.32h-.2a6.72,6.72,0,0,0-2.28.34,1,1,0,0,0-.7.94.86.86,0,0,0,.33.71,1.49,1.49,0,0,0,.91.26,2.11,2.11,0,0,0,1-.23,1.74,1.74,0,0,0,.7-.61,1.56,1.56,0,0,0,.26-.87Zm-2.85-4a.45.45,0,0,1-.27-.11.68.68,0,0,1,0-.3,1.27,1.27,0,0,1,.3-.74.76.76,0,0,1,.62-.3.93.93,0,0,1,.44.11,2.38,2.38,0,0,1,.42.3,3.91,3.91,0,0,0,.65.5.39.39,0,0,0,.18-.16,2,2,0,0,0,.14-.29,2,2,0,0,1,.15-.3.22.22,0,0,1,.19-.08.36.36,0,0,1,.26.09,1,1,0,0,1,.05.32,1.24,1.24,0,0,1-.3.73.78.78,0,0,1-.62.29.92.92,0,0,1-.44-.1,2.91,2.91,0,0,1-.42-.29l-.29-.26a2.11,2.11,0,0,0-.35-.25.45.45,0,0,0-.16.15q-.06.11-.15.3a1.38,1.38,0,0,1-.17.29.21.21,0,0,1-.19.1Zm4.82,3.91a3.13,3.13,0,0,1,.37-1.54,2.76,2.76,0,0,1,1-1.06,3,3,0,0,1,1.51-.38,2.91,2.91,0,0,1,1.48.38,2.79,2.79,0,0,1,1,1.07,3.32,3.32,0,0,1,.37,1.55,3.21,3.21,0,0,1-.37,1.53,2.76,2.76,0,0,1-1,1.06,3,3,0,0,1-1.5.38,3,3,0,0,1-1.5-.38,2.63,2.63,0,0,1-1-1.07,3.13,3.13,0,0,1-.37-1.54Zm4.95,0a2.57,2.57,0,0,0-.26-1.16,2.08,2.08,0,0,0-.73-.82,2,2,0,0,0-1.05-.29,2,2,0,0,0-1.06.29,2,2,0,0,0-.74.8,2.63,2.63,0,0,0,0,2.32,2.07,2.07,0,0,0,.74.81,2,2,0,0,0,1.06.29A2,2,0,0,0,415.91,58a2.57,2.57,0,0,0,.26-1.16Zm6.32,3a2.5,2.5,0,0,1-1.35-.38,2.57,2.57,0,0,1-.93-1,3.63,3.63,0,0,1,0-3.11,2.52,2.52,0,0,1,2.31-1.43,2.49,2.49,0,0,1,1.25.31,2.12,2.12,0,0,1,.81.79V51.59s0-.05.08-.07a.66.66,0,0,1,.21,0c.38,0,.57.26.57.77v7a.35.35,0,0,1-.39.4H425c-.25,0-.37-.12-.37-.38s0-.41,0-.74a2.54,2.54,0,0,1-.85.9,2.34,2.34,0,0,1-1.25.32Zm2.09-3.88a2.16,2.16,0,0,0-.73-1,1.93,1.93,0,0,0-1.19-.36,1.79,1.79,0,0,0-1.4.62,2.41,2.41,0,0,0-.53,1.63A2.72,2.72,0,0,0,421,58a1.86,1.86,0,0,0,.69.8,1.77,1.77,0,0,0,1,.29,1.92,1.92,0,0,0,1-.25,1.83,1.83,0,0,0,1-1.62Zm2,.89a3.13,3.13,0,0,1,.37-1.54,2.76,2.76,0,0,1,1-1.06,3,3,0,0,1,1.5-.38,2.92,2.92,0,0,1,1.49.38,2.69,2.69,0,0,1,1,1.07,3.2,3.2,0,0,1,.37,1.55,3.09,3.09,0,0,1-.37,1.53,2.69,2.69,0,0,1-1,1.06,2.92,2.92,0,0,1-1.49.38,3,3,0,0,1-1.5-.38,2.72,2.72,0,0,1-1-1.07,3.24,3.24,0,0,1-.36-1.54Zm4.95,0a2.45,2.45,0,0,0-.27-1.16,1.94,1.94,0,0,0-.73-.82,2,2,0,0,0-1.05-.29,2,2,0,0,0-1.8,1.09,2.63,2.63,0,0,0,0,2.32,2.14,2.14,0,0,0,.74.81,2,2,0,0,0,1.06.29,2,2,0,0,0,1.05-.29,1.86,1.86,0,0,0,.73-.79,2.45,2.45,0,0,0,.27-1.16Z"/><path d="M358.23,76.7a3.08,3.08,0,0,1,.37-1.52,2.76,2.76,0,0,1,1-1.06,2.84,2.84,0,0,1,1.48-.38,2.88,2.88,0,0,1,1.1.19,2.37,2.37,0,0,1,.8.5,1.61,1.61,0,0,1,.35.45.9.9,0,0,1,.12.41.34.34,0,0,1-.12.27.73.73,0,0,1-.26.14c-.1,0-.16,0-.17,0a1.77,1.77,0,0,0-1.81-1.22,1.89,1.89,0,0,0-1.05.29,2,2,0,0,0-.73.79,2.7,2.7,0,0,0,0,2.31,1.93,1.93,0,0,0,.72.8,1.9,1.9,0,0,0,1.06.29,1.88,1.88,0,0,0,1.16-.33,2,2,0,0,0,.65-.89s.06,0,.16,0a.57.57,0,0,1,.27.13.38.38,0,0,1,.12.29.93.93,0,0,1-.12.39A2,2,0,0,1,363,79a2.2,2.2,0,0,1-.78.51,3,3,0,0,1-1.13.19,2.84,2.84,0,0,1-1.48-.38,2.7,2.7,0,0,1-1-1.07,3.17,3.17,0,0,1-.37-1.55Zm6-3.69c-.07,0-.11,0-.11-.05a2.6,2.6,0,0,1,.34-.59,6.76,6.76,0,0,1,.76-.92A1.13,1.13,0,0,1,366,71a.35.35,0,0,1,.26.1.39.39,0,0,1,.11.28c0,.21-.15.43-.45.67a5.9,5.9,0,0,1-1,.64,3.2,3.2,0,0,1-.63.28Zm.78,6.6c-.26,0-.39-.14-.39-.41v-5q0-.42.39-.42h.09c.26,0,.38.14.38.42v5c0,.27-.12.41-.38.41Zm4.38-5.87a1.06,1.06,0,0,1,.62.17.53.53,0,0,1,.23.45.53.53,0,0,1-.05.26.43.43,0,0,1-.13.16.15.15,0,0,1-.08,0,.92.92,0,0,0-.68-.24,1.07,1.07,0,0,0-1,.62,3.59,3.59,0,0,0-.34,1.73V79.2c0,.27-.13.41-.37.41h-.1c-.26,0-.39-.14-.39-.41V73.92s0,0,.09-.06a.51.51,0,0,1,.22,0c.29,0,.46.19.5.57s0,.48,0,.63a1.84,1.84,0,0,1,.55-1,1.39,1.39,0,0,1,.93-.32Zm1.15,3a3.19,3.19,0,0,1,.37-1.52,2.76,2.76,0,0,1,1-1.06,2.84,2.84,0,0,1,1.48-.38,2.88,2.88,0,0,1,1.1.19,2.37,2.37,0,0,1,.8.5,1.45,1.45,0,0,1,.35.45.9.9,0,0,1,.12.41.34.34,0,0,1-.12.27.73.73,0,0,1-.26.14c-.1,0-.15,0-.17,0a1.77,1.77,0,0,0-1.8-1.22,1.9,1.9,0,0,0-1.06.29,2,2,0,0,0-.73.79,2.52,2.52,0,0,0-.26,1.14,2.64,2.64,0,0,0,.26,1.17A1.93,1.93,0,0,0,373.49,79a1.87,1.87,0,0,0,1.15-.33,2,2,0,0,0,.65-.89s.06,0,.16,0a.57.57,0,0,1,.27.13.38.38,0,0,1,.12.29.93.93,0,0,1-.12.39,1.72,1.72,0,0,1-.35.45,2.2,2.2,0,0,1-.78.51,3,3,0,0,1-1.13.19,2.78,2.78,0,0,1-1.47-.38,2.66,2.66,0,0,1-1-1.07,3.29,3.29,0,0,1-.37-1.55Zm10.94-2.88c.26,0,.38.14.38.41v5.29s0,0-.1.06a.52.52,0,0,1-.21,0c-.29,0-.46-.19-.5-.56a4.67,4.67,0,0,1,0-.47,2.51,2.51,0,0,1-.81.81,2.19,2.19,0,0,1-1.15.3,2,2,0,0,1-1.64-.67,2.77,2.77,0,0,1-.55-1.81v-3c0-.27.13-.41.38-.41h.1c.25,0,.38.14.38.41v2.93a2,2,0,0,0,.39,1.31,1.41,1.41,0,0,0,1.12.47,1.88,1.88,0,0,0,1.05-.31,2,2,0,0,0,.7-.85V74.23c0-.27.13-.41.37-.41Zm2.36,5.79c-.26,0-.39-.14-.39-.41V71.51s0,0,.1-.06a.66.66,0,0,1,.21,0c.37,0,.55.25.55.76v7c0,.27-.12.41-.38.41Zm1.71-2.9a3.09,3.09,0,0,1,.37-1.53,2.74,2.74,0,0,1,1-1.06,2.92,2.92,0,0,1,1.51-.38,2.83,2.83,0,0,1,1.49.38,2.77,2.77,0,0,1,1,1.07,3.17,3.17,0,0,1,.37,1.55,3.08,3.08,0,0,1-.37,1.52,2.69,2.69,0,0,1-1,1.06,2.83,2.83,0,0,1-1.49.38,2.89,2.89,0,0,1-1.5-.38,2.63,2.63,0,0,1-1-1.06,3.28,3.28,0,0,1-.36-1.55Zm4.95,0a2.52,2.52,0,0,0-.27-1.17,2,2,0,0,0-.73-.81,1.89,1.89,0,0,0-1.05-.29,2,2,0,0,0-1.8,1.08,2.48,2.48,0,0,0-.27,1.16,2.45,2.45,0,0,0,.27,1.16,2,2,0,0,0,.74.81,1.94,1.94,0,0,0,1.06.29,1.93,1.93,0,0,0,1.78-1.08,2.41,2.41,0,0,0,.27-1.15Zm6.85-3a2,2,0,0,1,1.63.67,2.71,2.71,0,0,1,.55,1.8v3c0,.27-.12.41-.37.41h-.1c-.26,0-.39-.14-.39-.41V76.28a2,2,0,0,0-.39-1.31,1.34,1.34,0,0,0-1.1-.47,1.92,1.92,0,0,0-1.07.31,2,2,0,0,0-.7.84V79.2c0,.27-.12.41-.37.41H395c-.25,0-.38-.14-.38-.41V73.92s0,0,.1-.06a.52.52,0,0,1,.21,0c.33,0,.51.24.53.72v.33a2.16,2.16,0,0,1,2-1.13Zm3.31,4.36a1.46,1.46,0,0,1,.94-1.4,7.5,7.5,0,0,1,3-.48h.13V76a1.51,1.51,0,0,0-.4-1.11,1.58,1.58,0,0,0-1.14-.39,2,2,0,0,0-1.09.27,1.81,1.81,0,0,0-.66.74.3.3,0,0,1-.16,0,.6.6,0,0,1-.25-.13.38.38,0,0,1-.12-.3.64.64,0,0,1,.09-.3,1.15,1.15,0,0,1,.26-.33,2.46,2.46,0,0,1,.81-.49,3.25,3.25,0,0,1,1.16-.19,2.39,2.39,0,0,1,1.74.6A2.23,2.23,0,0,1,405.6,76v3.52s0,0-.1.06a.52.52,0,0,1-.21,0c-.3,0-.47-.18-.51-.55,0-.22,0-.4,0-.53a2.08,2.08,0,0,1-.85.84,2.54,2.54,0,0,1-1.27.31,2.12,2.12,0,0,1-1.41-.43,1.42,1.42,0,0,1-.52-1.16Zm4-1.31h-.21a6.5,6.5,0,0,0-2.27.33,1,1,0,0,0-.7,1,.84.84,0,0,0,.33.7,1.43,1.43,0,0,0,.91.27,2.11,2.11,0,0,0,1-.23,1.76,1.76,0,0,0,.7-.62,1.55,1.55,0,0,0,.26-.86Zm-2.85-4a.43.43,0,0,1-.27-.1.68.68,0,0,1,0-.3,1.4,1.4,0,0,1,.29-.75.87.87,0,0,1,1.07-.18,2.91,2.91,0,0,1,.42.29,3.58,3.58,0,0,0,.65.51.46.46,0,0,0,.18-.16,2.15,2.15,0,0,0,.14-.3,2.4,2.4,0,0,1,.15-.29.22.22,0,0,1,.19-.09.33.33,0,0,1,.26.1.93.93,0,0,1,.05.32,1.27,1.27,0,0,1-.3.73.77.77,0,0,1-.62.28.92.92,0,0,1-.44-.1,1.87,1.87,0,0,1-.42-.29l-.29-.25a1.65,1.65,0,0,0-.35-.25.38.38,0,0,0-.16.15c0,.07-.09.16-.15.29a1.26,1.26,0,0,1-.17.3.22.22,0,0,1-.19.09Zm4.82,3.91a3.09,3.09,0,0,1,.37-1.53,2.76,2.76,0,0,1,1-1.06,2.9,2.9,0,0,1,1.51-.38,2.81,2.81,0,0,1,1.48.38,2.72,2.72,0,0,1,1,1.07,3.29,3.29,0,0,1,.37,1.55,3.19,3.19,0,0,1-.37,1.52,2.69,2.69,0,0,1-1,1.06,2.89,2.89,0,0,1-1.5.38,2.94,2.94,0,0,1-1.5-.38,2.6,2.6,0,0,1-1-1.06,3.17,3.17,0,0,1-.37-1.55Zm4.95,0a2.64,2.64,0,0,0-.26-1.17,2,2,0,0,0-.73-.81,1.89,1.89,0,0,0-1.05-.29,2,2,0,0,0-1.06.28,2,2,0,0,0-.74.8,2.48,2.48,0,0,0-.27,1.16,2.45,2.45,0,0,0,.27,1.16,2,2,0,0,0,1.8,1.1,2,2,0,0,0,1.05-.28,2,2,0,0,0,.73-.8,2.53,2.53,0,0,0,.26-1.15Zm3.71,0a3.31,3.31,0,0,1,.36-1.55,2.67,2.67,0,0,1,1-1.07,2.89,2.89,0,0,1,2.83,0,2.36,2.36,0,0,1,.91,1,3.12,3.12,0,0,1,.33,1.47v.08a.32.32,0,0,1-.07.22.33.33,0,0,1-.23.06H416.2c0,.07,0,.12,0,.16a2.14,2.14,0,0,0,.65,1.39,2,2,0,0,0,1.43.53,2.11,2.11,0,0,0,1.17-.29,2.06,2.06,0,0,0,.69-.77l.16,0a.65.65,0,0,1,.23.15.43.43,0,0,1,.1.28.64.64,0,0,1-.12.33,1.29,1.29,0,0,1-.34.37,2.37,2.37,0,0,1-.79.44,3.16,3.16,0,0,1-1.11.17,3,3,0,0,1-1.52-.37,2.49,2.49,0,0,1-1-1,3.24,3.24,0,0,1-.36-1.54Zm4.59-.47a2,2,0,0,0-.52-1.34,1.63,1.63,0,0,0-1.25-.51,1.85,1.85,0,0,0-1.32.51,2.19,2.19,0,0,0-.65,1.34Zm1.92,2.83a.82.82,0,0,1-.34-.58.37.37,0,0,1,.07-.23.65.65,0,0,1,.18-.15l.12,0a2,2,0,0,0,.77.65,2.51,2.51,0,0,0,1.16.25,1.85,1.85,0,0,0,1-.26.79.79,0,0,0,.38-.68.69.69,0,0,0-.19-.51,1.29,1.29,0,0,0-.49-.28c-.2-.07-.51-.14-.91-.23a6.68,6.68,0,0,1-1-.27,1.64,1.64,0,0,1-.69-.47,1.22,1.22,0,0,1-.29-.85,1.52,1.52,0,0,1,.59-1.24,2.44,2.44,0,0,1,1.58-.48,3.17,3.17,0,0,1,1.12.18,1.84,1.84,0,0,1,.74.46.82.82,0,0,1,.16.22.6.6,0,0,1,.06.24.38.38,0,0,1-.08.23.55.55,0,0,1-.18.16c-.07,0-.11,0-.11,0a1.76,1.76,0,0,0-.7-.61,2.08,2.08,0,0,0-1-.24,1.73,1.73,0,0,0-1,.26.82.82,0,0,0-.37.68.65.65,0,0,0,.18.48,1.37,1.37,0,0,0,.48.27,7.28,7.28,0,0,0,.89.23,9.31,9.31,0,0,1,1,.3,1.7,1.7,0,0,1,.71.47,1.2,1.2,0,0,1,.3.86,1.49,1.49,0,0,1-.61,1.26,2.64,2.64,0,0,1-1.66.47,3.63,3.63,0,0,1-1.15-.16,2.87,2.87,0,0,1-.8-.43Zm7.33.59a1.47,1.47,0,0,1-1.18-.44,2,2,0,0,1-.39-1.35V74.6h-.56c-.24,0-.37-.11-.37-.32v-.09c0-.21.13-.32.37-.32h.56v-1c0-.27.13-.41.39-.41h.09c.25,0,.37.14.37.41v1H430c.25,0,.37.11.37.32v.07c0,.23-.13.34-.38.34h-1.45v3.18a1.61,1.61,0,0,0,.2.91.76.76,0,0,0,.65.28,1,1,0,0,0,.85-.44s0,0,.08,0a.4.4,0,0,1,.11.14.52.52,0,0,1,.05.23.59.59,0,0,1-.22.44,1.41,1.41,0,0,1-1,.33ZM431,78.1a1.47,1.47,0,0,1,.93-1.4,7.6,7.6,0,0,1,3-.48h.13V76a1.51,1.51,0,0,0-.4-1.11,1.59,1.59,0,0,0-1.15-.39,2,2,0,0,0-1.08.27,1.81,1.81,0,0,0-.66.74.3.3,0,0,1-.16,0,.6.6,0,0,1-.25-.13.38.38,0,0,1-.12-.3.64.64,0,0,1,.09-.3,1.15,1.15,0,0,1,.26-.33,2.46,2.46,0,0,1,.81-.49,3.21,3.21,0,0,1,1.16-.19,2.39,2.39,0,0,1,1.74.6,2.23,2.23,0,0,1,.61,1.66v3.52s0,0-.11.06a.46.46,0,0,1-.21,0c-.29,0-.46-.18-.5-.55,0-.22,0-.4,0-.53a2.15,2.15,0,0,1-.85.84,2.54,2.54,0,0,1-1.27.31,2.1,2.1,0,0,1-1.41-.43A1.42,1.42,0,0,1,431,78.1Zm4-1.31h-.21a6.5,6.5,0,0,0-2.27.33,1,1,0,0,0-.7,1,.84.84,0,0,0,.33.7,1.41,1.41,0,0,0,.91.27,2.11,2.11,0,0,0,1-.23,1.76,1.76,0,0,0,.7-.62,1.55,1.55,0,0,0,.26-.86ZM432.75,73c-.07,0-.11,0-.11-.05a2.21,2.21,0,0,1,.34-.59,7.51,7.51,0,0,1,.75-.92,1.17,1.17,0,0,1,.73-.41.35.35,0,0,1,.26.1.39.39,0,0,1,.11.28c0,.21-.15.43-.45.67a5.9,5.9,0,0,1-1,.64,3.87,3.87,0,0,1-.63.28Z"/><path d="M379,91.17a2.48,2.48,0,0,1,2.29,1.42,3.37,3.37,0,0,1,.34,1.55,3.44,3.44,0,0,1-.34,1.56A2.5,2.5,0,0,1,379,97.14a2.44,2.44,0,0,1-1.28-.34,2,2,0,0,1-.78-.86v3c0,.27-.12.4-.37.4h-.09a.35.35,0,0,1-.39-.4V91.35s0,0,.1-.06a.64.64,0,0,1,.2,0c.32,0,.5.21.53.64v.49a2.43,2.43,0,0,1,.85-.89,2.27,2.27,0,0,1,1.24-.33Zm-.18,5.24a1.82,1.82,0,0,0,1.43-.62,2.47,2.47,0,0,0,.53-1.64A2.58,2.58,0,0,0,380.5,93a2,2,0,0,0-.69-.79,1.82,1.82,0,0,0-1-.29,1.9,1.9,0,0,0-1.19.37,2.23,2.23,0,0,0-.75,1v1.26a1.83,1.83,0,0,0,.26.95,1.74,1.74,0,0,0,.7.67,1.85,1.85,0,0,0,1,.25Zm3.94-6.9a.55.55,0,0,1,.14-.41.58.58,0,0,1,.41-.14.5.5,0,0,1,.55.55.51.51,0,0,1-.15.4.61.61,0,0,1-.42.14.56.56,0,0,1-.39-.14.5.5,0,0,1-.14-.4Zm.1,2.16c0-.27.13-.41.39-.41h.09c.26,0,.38.14.38.41v5c0,.27-.12.4-.38.4h-.09a.35.35,0,0,1-.39-.4Zm5.25-.5a2,2,0,0,1,1.63.67,2.76,2.76,0,0,1,.56,1.81v3c0,.27-.12.4-.37.4h-.11c-.25,0-.38-.13-.38-.4V93.72a2,2,0,0,0-.39-1.31,1.34,1.34,0,0,0-1.11-.47,1.87,1.87,0,0,0-1.07.31,1.9,1.9,0,0,0-.69.84v3.55c0,.27-.13.4-.38.4h-.1a.35.35,0,0,1-.39-.4V91.35l.11-.06a.66.66,0,0,1,.21,0c.33,0,.51.24.52.71v.34a2.28,2.28,0,0,1,.8-.83,2.14,2.14,0,0,1,1.16-.31Zm5.61,6a1.5,1.5,0,0,1-1.18-.44,2,2,0,0,1-.39-1.36V92h-.56c-.25,0-.37-.1-.37-.32v-.08c0-.22.12-.33.37-.33h.56v-1q0-.42.39-.42h.09c.25,0,.37.14.37.42v1h1.45c.25,0,.37.11.37.33v.07c0,.22-.13.33-.38.33H393v3.18a1.65,1.65,0,0,0,.2.92.74.74,0,0,0,.65.28,1,1,0,0,0,.85-.44s0,0,.08,0a.29.29,0,0,1,.11.13.56.56,0,0,1,0,.23.61.61,0,0,1-.22.44,1.37,1.37,0,0,1-1,.34Zm1.8-1.6a1.49,1.49,0,0,1,.94-1.41,7.61,7.61,0,0,1,3-.47h.14v-.24a1.48,1.48,0,0,0-.41-1.12,1.54,1.54,0,0,0-1.14-.39,2,2,0,0,0-1.08.28,1.75,1.75,0,0,0-.66.74.37.37,0,0,1-.16,0,.53.53,0,0,1-.26-.13.38.38,0,0,1-.11-.29.71.71,0,0,1,.09-.31,1.5,1.5,0,0,1,.26-.33,2.46,2.46,0,0,1,.81-.49,3.44,3.44,0,0,1,1.16-.19,2.35,2.35,0,0,1,1.73.6,2.2,2.2,0,0,1,.61,1.66V97s0,0-.1.06a.76.76,0,0,1-.21,0c-.29,0-.46-.18-.5-.55,0-.22,0-.39,0-.52a2.15,2.15,0,0,1-.85.84,2.68,2.68,0,0,1-1.27.31A2.21,2.21,0,0,1,396,96.7a1.46,1.46,0,0,1-.52-1.16Zm4.05-1.32h-.21a6.81,6.81,0,0,0-2.28.34,1,1,0,0,0-.7.94.87.87,0,0,0,.34.71,1.47,1.47,0,0,0,.91.26,2.14,2.14,0,0,0,1-.23,1.81,1.81,0,0,0,.7-.61,1.56,1.56,0,0,0,.26-.87Zm4.6,2.92a2.5,2.5,0,0,1-1.35-.38,2.59,2.59,0,0,1-.94-1.05,3.73,3.73,0,0,1,0-3.11,2.59,2.59,0,0,1,.94-1,2.69,2.69,0,0,1,2.63-.07,2.09,2.09,0,0,1,.8.79V89s0,0,.09-.07a.66.66,0,0,1,.21,0c.37,0,.56.26.56.77v7c0,.27-.13.4-.38.4h-.09a.34.34,0,0,1-.37-.38c0-.16,0-.41,0-.74a2.6,2.6,0,0,1-.84.9,2.39,2.39,0,0,1-1.25.32Zm2.08-3.88a2.09,2.09,0,0,0-.73-1,1.9,1.9,0,0,0-1.18-.36,1.77,1.77,0,0,0-1.4.62,2.41,2.41,0,0,0-.54,1.63,2.72,2.72,0,0,0,.24,1.17,2,2,0,0,0,.69.8,1.82,1.82,0,0,0,1,.29,1.9,1.9,0,0,0,1-.25,1.74,1.74,0,0,0,.7-.67,1.81,1.81,0,0,0,.26-.95Zm2,2.28a1.48,1.48,0,0,1,.94-1.41,7.54,7.54,0,0,1,3-.47h.13v-.24a1.48,1.48,0,0,0-.4-1.12,1.58,1.58,0,0,0-1.14-.39,2,2,0,0,0-1.08.28,1.77,1.77,0,0,0-.67.74.38.38,0,0,1-.16,0,.55.55,0,0,1-.25-.13.38.38,0,0,1-.11-.29.71.71,0,0,1,.09-.31,1.44,1.44,0,0,1,.25-.33,2.41,2.41,0,0,1,.82-.49,3.4,3.4,0,0,1,1.16-.19,2.36,2.36,0,0,1,1.73.6,2.2,2.2,0,0,1,.61,1.66V97s0,0-.1.06a.76.76,0,0,1-.21,0c-.3,0-.46-.18-.5-.55,0-.22,0-.39,0-.52a2.08,2.08,0,0,1-.85.84,2.61,2.61,0,0,1-1.26.31,2.21,2.21,0,0,1-1.42-.43,1.43,1.43,0,0,1-.52-1.16Zm4-1.32h-.2a6.81,6.81,0,0,0-2.28.34,1,1,0,0,0-.7.94.85.85,0,0,0,.34.71,1.44,1.44,0,0,0,.9.26,2.11,2.11,0,0,0,1-.23,1.74,1.74,0,0,0,.7-.61,1.48,1.48,0,0,0,.26-.87Zm3.84.65c-.25,0-.37-.11-.37-.31a2.55,2.55,0,0,1,.19-1,1.94,1.94,0,0,1,.43-.64,5,5,0,0,1,.62-.49c.26-.17.44-.31.56-.4a1.1,1.1,0,0,0,.31-.36,1,1,0,0,0,.14-.52,1.16,1.16,0,0,0-.41-.92,1.65,1.65,0,0,0-1.1-.34,1.69,1.69,0,0,0-1.28.46,2,2,0,0,0-.55,1.14.38.38,0,0,1-.18,0,.61.61,0,0,1-.3-.15.39.39,0,0,1-.14-.33,1.46,1.46,0,0,1,.15-.58,1.87,1.87,0,0,1,.43-.62,2.62,2.62,0,0,1,1.89-.68,2.91,2.91,0,0,1,1.25.25,1.89,1.89,0,0,1,.82.7,1.94,1.94,0,0,1,.13,1.79,2,2,0,0,1-.4.54,5.32,5.32,0,0,1-.61.46,7.66,7.66,0,0,0-.65.47,2,2,0,0,0-.41.52,1.67,1.67,0,0,0-.17.78c0,.14-.13.22-.35.22Zm-.06,2.18a.5.5,0,0,1-.37-.12.53.53,0,0,1-.11-.37v-.15a.56.56,0,0,1,.11-.38.5.5,0,0,1,.37-.12h.17a.48.48,0,0,1,.37.12.51.51,0,0,1,.12.38v.15a.43.43,0,0,1-.49.49Z"/><line class="cls-1" x1="448.58" y1="122.16" x2="448.58" y2="30.01"/><line class="cls-1" x1="14.94" y1="122.36" x2="448.78" y2="122.36"/><line class="cls-1" x1="14.94" y1="124.75" x2="448.78" y2="124.75"/><line class="cls-1" x1="15.14" y1="237.12" x2="15.14" y2="124.95"/><text class="cls-2" transform="translate(75.3 135.94)">1</text><line class="cls-3" x1="75.3" y1="138" x2="80.28" y2="138"/><text class="cls-2" transform="translate(75.3 146.54)">3</text><path class="cls-4" d="M111.81,211.77a45.35,45.35,0,0,0-68-39.28l22.67,39.28Z"/><path class="cls-1" d="M111.81,211.77a45.35,45.35,0,0,0-68-39.28l22.67,39.28Z"/><line class="cls-1" x1="140.44" y1="237.12" x2="140.44" y2="124.95"/><line class="cls-1" x1="243.16" y1="237.12" x2="243.16" y2="124.95"/><line class="cls-1" x1="345.87" y1="237.12" x2="345.87" y2="124.95"/><line class="cls-1" x1="448.58" y1="237.12" x2="448.58" y2="124.95"/><line class="cls-1" x1="14.94" y1="237.32" x2="448.78" y2="237.32"/><line class="cls-1" x1="14.94" y1="237.32" x2="448.78" y2="237.32"/><line class="cls-1" x1="15.14" y1="343.62" x2="15.14" y2="237.52"/><text class="cls-2" transform="translate(75.3 248.51)">1</text><line class="cls-3" x1="75.3" y1="250.57" x2="80.28" y2="250.57"/><text class="cls-2" transform="translate(75.3 259.11)">6</text><path class="cls-5" d="M100.47,318.26A45.37,45.37,0,0,0,77.79,279L55.11,318.26Z"/><path class="cls-1" d="M100.47,318.26A45.37,45.37,0,0,0,77.79,279L55.11,318.26Z"/><line class="cls-1" x1="140.44" y1="343.62" x2="140.44" y2="237.52"/><line class="cls-1" x1="243.16" y1="343.62" x2="243.16" y2="237.52"/><line class="cls-1" x1="345.87" y1="343.62" x2="345.87" y2="237.52"/><line class="cls-1" x1="448.58" y1="343.62" x2="448.58" y2="237.52"/><line class="cls-1" x1="14.94" y1="343.82" x2="448.78" y2="343.82"/><line class="cls-1" x1="14.94" y1="343.82" x2="448.78" y2="343.82"/><line class="cls-1" x1="15.14" y1="433.51" x2="15.14" y2="344.01"/><text class="cls-2" transform="translate(75.3 355)">1</text><line class="cls-3" x1="72.81" y1="357.06" x2="82.77" y2="357.06"/><text class="cls-2" transform="translate(72.81 365.6)">12</text><path class="cls-6" d="M100.47,408.15a45.33,45.33,0,0,0-6.08-22.67L55.11,408.15Z"/><path class="cls-1" d="M100.47,408.15a45.33,45.33,0,0,0-6.08-22.67L55.11,408.15Z"/><line class="cls-1" x1="140.44" y1="433.51" x2="140.44" y2="344.01"/><line class="cls-1" x1="243.16" y1="433.51" x2="243.16" y2="344.01"/><line class="cls-1" x1="345.87" y1="433.51" x2="345.87" y2="344.01"/><line class="cls-1" x1="448.58" y1="433.51" x2="448.58" y2="344.01"/><line class="cls-1" x1="14.94" y1="433.71" x2="448.78" y2="433.71"/><line class="cls-1" x1="14.94" y1="433.71" x2="448.78" y2="433.71"/></svg>