<svg id="Camada_1" data-name="Camada 1" xmlns="http://www.w3.org/2000/svg" viewBox="0 0 426.4 83.76"><defs><style>.cls-1{font-size:14.35px;font-family:CMR12;}.cls-2{fill:none;stroke:#000;stroke-miterlimit:10;stroke-width:0.57px;}</style></defs><text class="cls-1" transform="translate(31.66 38.09)">2</text><line class="cls-2" x1="31.66" y1="44.21" x2="38.69" y2="44.21"/><text class="cls-1" transform="translate(31.66 57.64)">4</text><path d="M11.22,46a1.81,1.81,0,0,1,1.13-1.73,8.54,8.54,0,0,1,3.5-.61H16v-.14a1.6,1.6,0,0,0-.44-1.21,1.81,1.81,0,0,0-1.27-.41,2.25,2.25,0,0,0-1.23.32,2.12,2.12,0,0,0-.75.85s-.08,0-.24,0a.9.9,0,0,1-.44-.21.54.54,0,0,1-.2-.45,1.18,1.18,0,0,1,.48-.86A3.09,3.09,0,0,1,13,41a4.35,4.35,0,0,1,1.46-.22,3.22,3.22,0,0,1,2.24.71,2.67,2.67,0,0,1,.77,2v4.23s-.05.08-.16.11a1.34,1.34,0,0,1-.35,0,.76.76,0,0,1-.82-.63,2.09,2.09,0,0,1-.06-.47,2.79,2.79,0,0,1-1.05.87,3.26,3.26,0,0,1-1.43.32,2.55,2.55,0,0,1-1.72-.54A1.79,1.79,0,0,1,11.22,46ZM16,44.54l-.39,0a6.78,6.78,0,0,0-2.3.37,1.05,1.05,0,0,0-.74,1,.9.9,0,0,0,.34.74,1.52,1.52,0,0,0,1,.27,2.22,2.22,0,0,0,1.53-.53,1.68,1.68,0,0,0,.6-1.34Zm2.62,6.1q-.66,0-.66-.57a.62.62,0,0,1,.09-.32c.06-.11.1-.16.13-.17a3.31,3.31,0,0,0,1.63-.93,4.86,4.86,0,0,0,1-1.79,7.54,7.54,0,0,0,.35-2.33,7.37,7.37,0,0,0-.35-2.29,4.74,4.74,0,0,0-1.05-1.79,3.25,3.25,0,0,0-1.62-.93.62.62,0,0,1-.13-.19A.67.67,0,0,1,18,39c0-.38.22-.58.66-.58a2.53,2.53,0,0,1,1.23.36,4.41,4.41,0,0,1,1.18,1,6.7,6.7,0,0,1,1.18,2.09,8.26,8.26,0,0,1,0,5.29,6.64,6.64,0,0,1-1.14,2.07,4.54,4.54,0,0,1-1.21,1,2.57,2.57,0,0,1-1.25.36Z"/><text class="cls-1" transform="translate(122.02 38.09)">6</text><line class="cls-2" x1="122.02" y1="44.21" x2="129.05" y2="44.21"/><text class="cls-1" transform="translate(122.02 57.64)">9</text><path d="M103.38,47.18c0,.45-.2.68-.61.68h-.16c-.42,0-.63-.23-.63-.68V38.1s0-.06.16-.1a1,1,0,0,1,.36-.06.83.83,0,0,1,.64.28,1.35,1.35,0,0,1,.26.94V42a2.78,2.78,0,0,1,2.41-1.24,3.15,3.15,0,0,1,1.66.44,3.08,3.08,0,0,1,1.15,1.27,4.49,4.49,0,0,1,0,3.79,3.12,3.12,0,0,1-1.16,1.3,3.22,3.22,0,0,1-1.69.46,3,3,0,0,1-1.46-.35,2.38,2.38,0,0,1-.93-.87Zm4.28-2.82a2.92,2.92,0,0,0-.27-1.27,2.15,2.15,0,0,0-.76-.87,1.94,1.94,0,0,0-1.09-.32,2.31,2.31,0,0,0-1.33.38,2.38,2.38,0,0,0-.83,1.06v1.53a1.87,1.87,0,0,0,.31,1,2.1,2.1,0,0,0,.78.7,2.19,2.19,0,0,0,1,.25,2,2,0,0,0,1.55-.68,2.55,2.55,0,0,0,.6-1.77Zm2.57,6.28q-.66,0-.66-.57a.72.72,0,0,1,.08-.32c.06-.11.1-.16.13-.17a3.27,3.27,0,0,0,1.63-.93,4.72,4.72,0,0,0,1-1.79,7.25,7.25,0,0,0,.36-2.33,7.09,7.09,0,0,0-.36-2.29,4.74,4.74,0,0,0-1-1.79,3.17,3.17,0,0,0-1.62-.93.62.62,0,0,1-.13-.19.79.79,0,0,1-.08-.31c0-.38.22-.58.66-.58a2.47,2.47,0,0,1,1.22.36,4.45,4.45,0,0,1,1.19,1,6.49,6.49,0,0,1,1.17,2.09,7.58,7.58,0,0,1,.45,2.64,7.79,7.79,0,0,1-.43,2.65,6.66,6.66,0,0,1-1.15,2.07,4.35,4.35,0,0,1-1.2,1,2.57,2.57,0,0,1-1.25.36Z"/><text class="cls-1" transform="translate(212.39 38.09)">4</text><line class="cls-2" x1="212.39" y1="44.21" x2="219.41" y2="44.21"/><text class="cls-1" transform="translate(212.39 57.64)">2</text><path d="M191.93,44.34a3.72,3.72,0,0,1,.46-1.86,3.33,3.33,0,0,1,1.29-1.29,3.61,3.61,0,0,1,1.83-.46,3.46,3.46,0,0,1,2.25.71,2.13,2.13,0,0,1,.53.61,1.24,1.24,0,0,1,.18.58.54.54,0,0,1-.19.42,1,1,0,0,1-.41.21c-.15,0-.23,0-.25,0a2.06,2.06,0,0,0-2.08-1.35,2.17,2.17,0,0,0-1.16.31,2.13,2.13,0,0,0-.81.87,2.56,2.56,0,0,0-.3,1.24,2.61,2.61,0,0,0,.3,1.26,2.09,2.09,0,0,0,.81.88,2.17,2.17,0,0,0,1.16.31,2.06,2.06,0,0,0,2.08-1.34s.1,0,.25,0a.75.75,0,0,1,.41.2.58.58,0,0,1,.19.44,1.23,1.23,0,0,1-.19.58,2,2,0,0,1-.53.6,3,3,0,0,1-.95.52,4,4,0,0,1-1.29.2,3.69,3.69,0,0,1-1.85-.47,3.33,3.33,0,0,1-1.28-1.3,3.87,3.87,0,0,1-.45-1.88Zm7.34,6.3q-.66,0-.66-.57a.62.62,0,0,1,.09-.32c.05-.11.1-.16.13-.17a3.24,3.24,0,0,0,1.62-.93,4.72,4.72,0,0,0,1-1.79,7.25,7.25,0,0,0,.36-2.33,7.09,7.09,0,0,0-.36-2.29,4.72,4.72,0,0,0-1-1.79,3.25,3.25,0,0,0-1.62-.93.48.48,0,0,1-.13-.19.67.67,0,0,1-.09-.31c0-.38.22-.58.66-.58a2.53,2.53,0,0,1,1.23.36,4.41,4.41,0,0,1,1.18,1,6.7,6.7,0,0,1,1.18,2.09,8.26,8.26,0,0,1,0,5.29,6.66,6.66,0,0,1-1.15,2.07,4.35,4.35,0,0,1-1.2,1,2.57,2.57,0,0,1-1.25.36Z"/><text class="cls-1" transform="translate(306.26 38.09)">5</text><line class="cls-2" x1="302.75" y1="44.21" x2="316.79" y2="44.21"/><text class="cls-1" transform="translate(302.75 57.64)">35</text><path d="M285.51,48a3.1,3.1,0,0,1-1.65-.46,3,3,0,0,1-1.16-1.27,4.63,4.63,0,0,1,0-3.81,3.11,3.11,0,0,1,1.16-1.27,3.25,3.25,0,0,1,1.7-.45,3,3,0,0,1,1.42.32,2.29,2.29,0,0,1,.94.81V38.1s.06-.06.17-.1a1,1,0,0,1,.35-.06c.6,0,.9.41.9,1.22v8c0,.45-.21.68-.63.68h-.14c-.42,0-.63-.23-.63-.68v-.53A2.76,2.76,0,0,1,285.51,48Zm2.43-4.67a2.19,2.19,0,0,0-.81-1,2.25,2.25,0,0,0-1.31-.38,2,2,0,0,0-1.57.68,2.62,2.62,0,0,0-.59,1.78,2.75,2.75,0,0,0,.28,1.26,2.13,2.13,0,0,0,.75.87,2,2,0,0,0,1.1.32,2.21,2.21,0,0,0,1.07-.27,1.94,1.94,0,0,0,.78-.72,1.85,1.85,0,0,0,.3-1Zm3,7.32q-.66,0-.66-.57a.62.62,0,0,1,.09-.32c.05-.11.1-.16.13-.17a3.24,3.24,0,0,0,1.62-.93,4.6,4.6,0,0,0,1-1.79,7.25,7.25,0,0,0,.36-2.33,7.09,7.09,0,0,0-.36-2.29,4.6,4.6,0,0,0-1-1.79,3.25,3.25,0,0,0-1.62-.93.48.48,0,0,1-.13-.19.67.67,0,0,1-.09-.31c0-.38.22-.58.66-.58a2.53,2.53,0,0,1,1.23.36,4.41,4.41,0,0,1,1.18,1,6.7,6.7,0,0,1,1.18,2.09,8.26,8.26,0,0,1,0,5.29,6.46,6.46,0,0,1-1.15,2.07,4.35,4.35,0,0,1-1.2,1,2.57,2.57,0,0,1-1.25.36Z"/><text class="cls-1" transform="translate(396.62 38.09)">50</text><line class="cls-2" x1="393.11" y1="44.21" x2="414.18" y2="44.21"/><text class="cls-1" transform="translate(393.11 57.64)">100</text><path d="M372.65,44.38a3.81,3.81,0,0,1,.46-1.87,3.31,3.31,0,0,1,1.26-1.31,3.44,3.44,0,0,1,1.81-.47,3.37,3.37,0,0,1,1.73.43,3,3,0,0,1,1.16,1.23,3.81,3.81,0,0,1,.42,1.81v.11a.48.48,0,0,1-.09.33.51.51,0,0,1-.34.09H374a1.7,1.7,0,0,0,0,.26,2.19,2.19,0,0,0,.78,1.36,2.35,2.35,0,0,0,1.54.52,2.7,2.7,0,0,0,1.35-.31,2.36,2.36,0,0,0,.82-.84s.09,0,.22,0a1,1,0,0,1,.36.23.6.6,0,0,1,.16.44.89.89,0,0,1-.2.5,2,2,0,0,1-.56.51,4,4,0,0,1-2.18.56,3.9,3.9,0,0,1-1.9-.46,3.13,3.13,0,0,1-1.28-1.27,3.72,3.72,0,0,1-.46-1.88Zm5.46-.61a2.22,2.22,0,0,0-.57-1.44,1.85,1.85,0,0,0-1.38-.53,2.11,2.11,0,0,0-1.45.55,2.35,2.35,0,0,0-.73,1.42Zm2.56,6.87q-.66,0-.66-.57a.72.72,0,0,1,.08-.32c.06-.11.1-.16.13-.17a3.27,3.27,0,0,0,1.63-.93,4.86,4.86,0,0,0,1-1.79,7.25,7.25,0,0,0,.36-2.33,7.09,7.09,0,0,0-.36-2.29,4.74,4.74,0,0,0-1.05-1.79,3.25,3.25,0,0,0-1.62-.93.62.62,0,0,1-.13-.19A.79.79,0,0,1,380,39c0-.38.22-.58.66-.58a2.47,2.47,0,0,1,1.22.36,4.45,4.45,0,0,1,1.19,1,6.69,6.69,0,0,1,1.17,2.09,7.58,7.58,0,0,1,.45,2.64,8,8,0,0,1-.43,2.65,6.66,6.66,0,0,1-1.15,2.07,4.39,4.39,0,0,1-1.21,1,2.54,2.54,0,0,1-1.24.36Z"/></svg>