<svg id="Camada_1" data-name="Camada 1" xmlns="http://www.w3.org/2000/svg" viewBox="0 0 447.67 211.59"><defs><style>.cls-1{fill:#933c4c;}.cls-2{fill:#f28c5e;}.cls-3{fill:#feede0;}.cls-4{fill:#557333;}.cls-5{fill:#f8c175;}.cls-6{fill:none;stroke:#f8c175;stroke-miterlimit:10;stroke-width:0.4px;}.cls-7{fill:#d74d49;}</style></defs><polygon class="cls-1" points="98.3 31.95 41.6 31.95 13.26 81.05 126.64 81.05 154.99 31.95 98.3 31.95"/><rect class="cls-2" x="209.66" y="31.95" width="56.69" height="49.1"/><polygon class="cls-3" points="434.42 81.05 406.07 31.95 349.38 31.95 321.03 81.05 434.42 81.05"/><polygon class="cls-4" points="140.82 143.62 112.47 94.52 55.78 94.52 27.43 143.62 55.78 192.72 112.47 192.72 140.82 143.62"/><polygon class="cls-5" points="223.84 94.32 280.53 94.32 308.88 143.42 195.49 143.42 167.14 94.32 223.84 94.32"/><polygon class="cls-6" points="223.84 94.32 280.53 94.32 308.88 143.42 195.49 143.42 167.14 94.32 223.84 94.32"/><polygon class="cls-5" points="223.84 192.52 280.53 192.52 308.88 143.42 195.49 143.42 167.14 192.52 223.84 192.52"/><polygon class="cls-6" points="223.84 192.52 280.53 192.52 308.88 143.42 195.49 143.42 167.14 192.52 223.84 192.52"/><polygon class="cls-7" points="434.42 192.72 377.72 94.52 321.03 192.72 434.42 192.72"/></svg>