<svg id="Camada_1" data-name="Camada 1" xmlns="http://www.w3.org/2000/svg" viewBox="0 0 85.1 89.14"><defs><style>.cls-1{fill:#95d4e9;opacity:0.3;}.cls-2,.cls-5{fill:none;stroke:#000;stroke-miterlimit:10;}.cls-2{stroke-width:0.4px;}.cls-3{fill:#e6164d;}.cls-4{font-size:9.96px;font-family:CMR10;}.cls-5{stroke-width:0.57px;}</style></defs><circle class="cls-1" cx="43.79" cy="33.4" r="28.35" transform="translate(-11.02 28.01) rotate(-31.72)"/><circle class="cls-2" cx="43.79" cy="33.4" r="28.35" transform="translate(-11.02 28.01) rotate(-31.72)"/><path class="cls-3" d="M43.79,33.4,19.24,19.23a28.35,28.35,0,1,0,49.1,0Z"/><path class="cls-2" d="M43.79,33.4,19.24,19.23a28.35,28.35,0,1,0,49.1,0Z"/><circle class="cls-2" cx="43.79" cy="33.4" r="28.35" transform="translate(-11.02 28.01) rotate(-31.72)"/><line class="cls-2" x1="43.79" y1="33.4" x2="43.79" y2="61.75"/><line class="cls-2" x1="43.79" y1="33.4" x2="68.34" y2="19.23"/><line class="cls-2" x1="43.79" y1="33.4" x2="19.24" y2="19.23"/><text class="cls-4" transform="translate(16.22 71)">2</text><line class="cls-5" x1="16.22" y1="73.06" x2="21.2" y2="73.06"/><text class="cls-4" transform="translate(16.22 81.6)">3</text><path d="M28.49,76.81a2.92,2.92,0,0,1-1.62-.46,3.07,3.07,0,0,1-1.13-1.26,4.45,4.45,0,0,1,0-3.73,3,3,0,0,1,2.78-1.71A2.93,2.93,0,0,1,30,70a2.46,2.46,0,0,1,1,1V67s0-.06.1-.08a1,1,0,0,1,.25,0c.45,0,.68.31.68.92V76.2c0,.33-.15.49-.46.49h-.1a.4.4,0,0,1-.45-.46c0-.19,0-.49,0-.89a3,3,0,0,1-1,1.08,2.79,2.79,0,0,1-1.5.39ZM31,72.16A2.62,2.62,0,0,0,30.12,71a2.4,2.4,0,0,0-1.43-.43,2.11,2.11,0,0,0-1.68.75,2.88,2.88,0,0,0-.64,2,3.2,3.2,0,0,0,.29,1.41,2.29,2.29,0,0,0,.83,1,2.12,2.12,0,0,0,1.19.34,2.43,2.43,0,0,0,1.16-.29,2.33,2.33,0,0,0,.84-.81A2.21,2.21,0,0,0,31,73.69Zm2.43,2.72a1.77,1.77,0,0,1,1.13-1.68,9,9,0,0,1,3.57-.57h.15v-.29A1.79,1.79,0,0,0,37.79,71a1.88,1.88,0,0,0-1.37-.46,2.41,2.41,0,0,0-1.3.33,2.13,2.13,0,0,0-.79.89.57.57,0,0,1-.2,0,.73.73,0,0,1-.3-.16.45.45,0,0,1-.13-.35.82.82,0,0,1,.1-.37,1.61,1.61,0,0,1,.31-.39,2.84,2.84,0,0,1,1-.59,3.72,3.72,0,0,1,1.39-.23,2.84,2.84,0,0,1,2.08.72,2.64,2.64,0,0,1,.73,2v4.23s0,0-.12.07a.7.7,0,0,1-.25,0c-.35,0-.56-.22-.6-.66q0-.4,0-.63a2.52,2.52,0,0,1-1,1,3.08,3.08,0,0,1-1.52.37,2.59,2.59,0,0,1-1.7-.51,1.72,1.72,0,0,1-.63-1.4Zm4.85-1.57H38a8,8,0,0,0-2.73.4,1.2,1.2,0,0,0-.84,1.14,1,1,0,0,0,.4.84A1.72,1.72,0,0,0,36,76a2.48,2.48,0,0,0,1.18-.28A2.21,2.21,0,0,0,38,75a1.89,1.89,0,0,0,.3-1Zm7.58,3.5a1.79,1.79,0,0,1-1.41-.53A2.39,2.39,0,0,1,44,74.65v-4H43.3q-.45,0-.45-.39v-.1c0-.26.15-.38.45-.38H44V68.6c0-.33.15-.5.46-.5h.11c.3,0,.45.17.45.5v1.21h1.73c.3,0,.45.12.45.38v.09c0,.27-.15.4-.46.4H45V74.5a1.83,1.83,0,0,0,.25,1.09.87.87,0,0,0,.77.34,1.17,1.17,0,0,0,1-.53s.05,0,.1,0a.43.43,0,0,1,.13.16.6.6,0,0,1,.06.27.71.71,0,0,1-.26.53,1.67,1.67,0,0,1-1.19.41ZM48,73.22a3.72,3.72,0,0,1,.45-1.84,3.27,3.27,0,0,1,1.23-1.27,3.51,3.51,0,0,1,1.81-.46,3.43,3.43,0,0,1,1.79.46,3.14,3.14,0,0,1,1.22,1.28A3.82,3.82,0,0,1,55,73.25a3.7,3.7,0,0,1-.45,1.83,3.2,3.2,0,0,1-1.23,1.27,3.56,3.56,0,0,1-1.79.46,3.6,3.6,0,0,1-1.8-.46,3.18,3.18,0,0,1-1.24-1.28A3.86,3.86,0,0,1,48,73.22Zm5.94,0a3.06,3.06,0,0,0-.31-1.4,2.39,2.39,0,0,0-.88-1,2.34,2.34,0,0,0-1.26-.35,2.4,2.4,0,0,0-1.27.35,2.43,2.43,0,0,0-.89,1,3.18,3.18,0,0,0,0,2.78,2.46,2.46,0,0,0,.89,1,2.4,2.4,0,0,0,1.27.35,2.34,2.34,0,0,0,2.14-1.3A2.92,2.92,0,0,0,54,73.25Zm5.21-3.6a1.2,1.2,0,0,1,.74.21.61.61,0,0,1,.28.53.76.76,0,0,1-.06.32.63.63,0,0,1-.15.19c-.06,0-.1.06-.11,0a1.09,1.09,0,0,0-.81-.28,1.32,1.32,0,0,0-1.23.74,4.41,4.41,0,0,0-.41,2.08V76.2c0,.33-.15.49-.44.49h-.12c-.31,0-.47-.16-.47-.49V69.86s0,0,.11-.07a.75.75,0,0,1,.26,0q.54,0,.6.69c0,.32,0,.57,0,.74A2.23,2.23,0,0,1,58,70a1.68,1.68,0,0,1,1.12-.39Zm4.51,7.16a1.81,1.81,0,0,1-1.42-.53,2.44,2.44,0,0,1-.46-1.63v-4h-.68c-.29,0-.44-.13-.44-.39v-.1c0-.26.15-.38.44-.38h.68V68.6c0-.33.15-.5.46-.5h.11c.3,0,.45.17.45.5v1.21h1.73c.3,0,.45.12.45.38v.09c0,.27-.16.4-.46.4H62.79V74.5A1.83,1.83,0,0,0,63,75.59a.87.87,0,0,0,.77.34,1.17,1.17,0,0,0,1-.53s0,0,.1,0a.43.43,0,0,1,.13.16.6.6,0,0,1,.06.27.71.71,0,0,1-.26.53,1.69,1.69,0,0,1-1.19.41Zm2.16-1.93A1.77,1.77,0,0,1,67,73.2a9,9,0,0,1,3.56-.57h.16v-.29A1.79,1.79,0,0,0,70.2,71a1.89,1.89,0,0,0-1.37-.46,2.39,2.39,0,0,0-1.3.33,2.07,2.07,0,0,0-.79.89.57.57,0,0,1-.2,0,.73.73,0,0,1-.3-.16.45.45,0,0,1-.13-.35.82.82,0,0,1,.1-.37,1.4,1.4,0,0,1,.31-.39,2.84,2.84,0,0,1,1-.59,3.72,3.72,0,0,1,1.39-.23,2.84,2.84,0,0,1,2.08.72,2.64,2.64,0,0,1,.73,2v4.23s0,0-.12.07a.74.74,0,0,1-.25,0q-.54,0-.6-.66,0-.4,0-.63a2.52,2.52,0,0,1-1,1,3.08,3.08,0,0,1-1.52.37,2.59,2.59,0,0,1-1.7-.51,1.72,1.72,0,0,1-.63-1.4Zm4.85-1.57h-.24a8,8,0,0,0-2.73.4,1.2,1.2,0,0,0-.84,1.14,1,1,0,0,0,.4.84,1.72,1.72,0,0,0,1.09.32,2.41,2.41,0,0,0,1.17-.28,2.07,2.07,0,0,0,.84-.73,1.82,1.82,0,0,0,.31-1Z"/></svg>