<svg id="Camada_1" data-name="Camada 1" xmlns="http://www.w3.org/2000/svg" viewBox="0 0 420.66 354.12"><defs><style>.cls-1,.cls-3{font-size:14.35px;}.cls-1{font-family:CMR12;}.cls-2{fill:none;stroke:#000;stroke-miterlimit:10;stroke-width:0.57px;}.cls-3{font-family:CMMI12;}</style></defs><text class="cls-1" transform="translate(43.07 32.17)">5</text><line class="cls-2" x1="43.07" y1="38.29" x2="50.09" y2="38.29"/><text class="cls-1" transform="translate(43.07 51.72)">6</text><text class="cls-1" transform="translate(55.27 41.88)">=</text><text class="cls-1" transform="translate(71.38 32.17)">25</text><line class="cls-2" x1="71.38" y1="38.29" x2="85.42" y2="38.29"/><text class="cls-1" transform="translate(71.38 51.72)">30</text><text class="cls-3" transform="translate(103.42 41.88)">&gt;</text><text class="cls-1" transform="translate(132.34 32.17)">24</text><line class="cls-2" x1="132.34" y1="38.29" x2="146.39" y2="38.29"/><text class="cls-1" transform="translate(132.34 51.72)">30</text><text class="cls-1" transform="translate(151.57 41.88)">=</text><text class="cls-1" transform="translate(167.67 32.17)">4</text><line class="cls-2" x1="167.67" y1="38.29" x2="174.7" y2="38.29"/><text class="cls-1" transform="translate(167.67 51.72)">5</text><path d="M15.78,40.07a1.84,1.84,0,0,1,1.13-1.74,8.74,8.74,0,0,1,3.5-.6h.19v-.14a1.6,1.6,0,0,0-.44-1.21A1.81,1.81,0,0,0,18.89,36a2.17,2.17,0,0,0-1.23.32,2.05,2.05,0,0,0-.75.85s-.08,0-.24,0a.9.9,0,0,1-.44-.21.54.54,0,0,1-.2-.46,1.21,1.21,0,0,1,.48-.86,3.08,3.08,0,0,1,1-.56A4.3,4.3,0,0,1,19,34.8a3.17,3.17,0,0,1,2.24.72,2.67,2.67,0,0,1,.77,2v4.23s-.05.08-.16.11a1.34,1.34,0,0,1-.35.05.76.76,0,0,1-.82-.63,2.1,2.1,0,0,1-.06-.48,2.73,2.73,0,0,1-1.05.88,3.26,3.26,0,0,1-1.43.32,2.55,2.55,0,0,1-1.72-.54,1.79,1.79,0,0,1-.63-1.43Zm4.82-1.45-.39,0a6.78,6.78,0,0,0-2.3.37,1.05,1.05,0,0,0-.74,1,.87.87,0,0,0,.34.73,1.46,1.46,0,0,0,1,.28A2.24,2.24,0,0,0,20,40.49a1.69,1.69,0,0,0,.6-1.34Zm2.62,6.1c-.44,0-.66-.19-.66-.58a.61.61,0,0,1,.09-.31c.06-.11.1-.16.13-.17a3.25,3.25,0,0,0,1.63-.94,4.74,4.74,0,0,0,1-1.78,7.54,7.54,0,0,0,.35-2.33,7.37,7.37,0,0,0-.35-2.29,4.74,4.74,0,0,0-1.05-1.79,3.18,3.18,0,0,0-1.62-.93.62.62,0,0,1-.13-.19.67.67,0,0,1-.09-.31c0-.38.22-.58.66-.58a2.53,2.53,0,0,1,1.23.36,4.41,4.41,0,0,1,1.18,1A6.76,6.76,0,0,1,26.81,36a7.88,7.88,0,0,1,.44,2.65,7.79,7.79,0,0,1-.43,2.65,6.64,6.64,0,0,1-1.14,2.07,4.54,4.54,0,0,1-1.21,1,2.57,2.57,0,0,1-1.25.36Z"/><text class="cls-1" transform="translate(268.97 32.17)">3</text><line class="cls-2" x1="268.97" y1="38.29" x2="275.99" y2="38.29"/><text class="cls-1" transform="translate(268.97 51.72)">4</text><text class="cls-1" transform="translate(281.17 41.88)">=</text><path d="M307.62,31.67c0,.46,0,.5-.52.5h-8.5c-.47,0-.52-.06-.52-.51V22.82c0-.46.06-.5.51-.5h8.53c.46,0,.5.05.5.5Zm-9-.07h8.39V22.89h-8.39Z"/><line class="cls-2" x1="297.28" y1="38.29" x2="308.44" y2="38.29"/><path d="M307.62,51.22c0,.45,0,.5-.52.5h-8.5c-.47,0-.52-.06-.52-.52V42.37c0-.46.06-.51.51-.51h8.53c.46,0,.5.06.5.51Zm-9-.08h8.39v-8.7h-8.39Z"/><path d="M338.88,41.15c0,.67-.07.73-.75.73H325.88c-.68,0-.74-.09-.74-.75V28.41c0-.66.08-.73.72-.73h12.29c.66,0,.73.09.73.73ZM326,41.05h12.09V28.51H326Z"/><path d="M368.39,31.67c0,.46-.05.5-.52.5h-8.5c-.48,0-.52-.06-.52-.51V22.82c0-.46.06-.5.5-.5h8.54c.45,0,.5.05.5.5Zm-9-.07h8.39V22.89h-8.39Z"/><line class="cls-2" x1="358.05" y1="38.29" x2="369.2" y2="38.29"/><path d="M368.39,51.22c0,.45-.05.5-.52.5h-8.5c-.48,0-.52-.06-.52-.52V42.37c0-.46.06-.51.5-.51h8.54c.45,0,.5.06.5.51Zm-9-.08h8.39v-8.7h-8.39Z"/><text class="cls-1" transform="translate(374.38 41.88)">=</text><text class="cls-1" transform="translate(390.49 32.17)">2</text><line class="cls-2" x1="390.49" y1="38.29" x2="397.51" y2="38.29"/><text class="cls-1" transform="translate(390.49 51.72)">3</text><path d="M243.49,41.26c0,.45-.21.67-.62.67h-.16c-.42,0-.63-.22-.63-.67V32.18s0-.06.16-.1a1,1,0,0,1,.36-.06.84.84,0,0,1,.64.27,1.35,1.35,0,0,1,.26,1v2.81a2.79,2.79,0,0,1,2.41-1.25,3.13,3.13,0,0,1,1.66.45,3,3,0,0,1,1.15,1.27,4.49,4.49,0,0,1,0,3.79,3,3,0,0,1-1.16,1.29,3.13,3.13,0,0,1-1.69.46,3,3,0,0,1-1.46-.34,2.3,2.3,0,0,1-.92-.88Zm4.27-2.83a2.87,2.87,0,0,0-.27-1.26,2.13,2.13,0,0,0-.75-.87,2,2,0,0,0-1.1-.32,2.31,2.31,0,0,0-1.33.38,2.25,2.25,0,0,0-.82,1.06V39a1.84,1.84,0,0,0,.31,1,2,2,0,0,0,.77.7,2.31,2.31,0,0,0,1,.25,2,2,0,0,0,1.56-.68,2.62,2.62,0,0,0,.59-1.78Zm2.57,6.29c-.44,0-.66-.19-.66-.58a.61.61,0,0,1,.09-.31c.05-.11.1-.16.13-.17a3.18,3.18,0,0,0,1.62-.94,4.61,4.61,0,0,0,1-1.78,7.25,7.25,0,0,0,.36-2.33,7.09,7.09,0,0,0-.36-2.29,4.72,4.72,0,0,0-1-1.79,3.18,3.18,0,0,0-1.62-.93.48.48,0,0,1-.13-.19.67.67,0,0,1-.09-.31c0-.38.22-.58.66-.58a2.53,2.53,0,0,1,1.23.36,4.41,4.41,0,0,1,1.18,1A6.76,6.76,0,0,1,253.92,36a7.88,7.88,0,0,1,.44,2.65,7.79,7.79,0,0,1-.43,2.65,6.66,6.66,0,0,1-1.15,2.07,4.35,4.35,0,0,1-1.2,1,2.57,2.57,0,0,1-1.25.36Z"/><text class="cls-1" transform="translate(39.74 101.84)">2</text><line class="cls-2" x1="36.22" y1="107.95" x2="50.27" y2="107.95"/><text class="cls-1" transform="translate(36.22 121.38)">10</text><text class="cls-1" transform="translate(55.45 111.54)">=</text><path d="M81.9,101.33c0,.46,0,.51-.52.51h-8.5c-.48,0-.52-.06-.52-.52V92.48c0-.46.06-.5.5-.5H81.4c.46,0,.5.06.5.5Zm-9-.07h8.4v-8.7h-8.4Z"/><line class="cls-2" x1="71.56" y1="107.95" x2="82.72" y2="107.95"/><path d="M81.9,120.88c0,.46,0,.5-.52.5h-8.5c-.48,0-.52-.06-.52-.51V112c0-.46.06-.5.5-.5H81.4c.46,0,.5,0,.5.5Zm-9-.07h8.4V112.1h-8.4Z"/><path d="M113.15,110.82c0,.66-.06.72-.74.72H100.16c-.68,0-.75-.08-.75-.74V98.07c0-.66.09-.72.73-.72h12.29c.66,0,.72.08.72.72Zm-12.91-.11h12.09V98.17H100.24Z"/><path d="M142.67,101.33c0,.46,0,.51-.52.51h-8.51c-.47,0-.51-.06-.51-.52V92.48c0-.46.05-.5.5-.5h8.53c.46,0,.51.06.51.5Zm-9-.07h8.39v-8.7H133.7Z"/><line class="cls-2" x1="132.32" y1="107.95" x2="143.48" y2="107.95"/><path d="M142.67,120.88c0,.46,0,.5-.52.5h-8.51c-.47,0-.51-.06-.51-.51V112c0-.46.05-.5.5-.5h8.53c.46,0,.51,0,.51.5Zm-9-.07h8.39V112.1H133.7Z"/><text class="cls-1" transform="translate(148.66 111.54)">=</text><text class="cls-1" transform="translate(168.28 101.84)">3</text><line class="cls-2" x1="164.77" y1="107.95" x2="178.82" y2="107.95"/><text class="cls-1" transform="translate(164.77 121.38)">15</text><path d="M15.76,108.08a3.69,3.69,0,0,1,.47-1.85,3.4,3.4,0,0,1,1.28-1.3,3.67,3.67,0,0,1,1.84-.46,3.41,3.41,0,0,1,2.25.72,1.94,1.94,0,0,1,.52.6,1.24,1.24,0,0,1,.18.59.51.51,0,0,1-.18.41.89.89,0,0,1-.41.21c-.15,0-.23,0-.25,0a2.07,2.07,0,0,0-2.08-1.35,2.17,2.17,0,0,0-1.16.31,2.22,2.22,0,0,0-.82.87,2.67,2.67,0,0,0-.29,1.24,2.79,2.79,0,0,0,.29,1.27,2.22,2.22,0,0,0,.82.87,2.17,2.17,0,0,0,1.16.32,2.07,2.07,0,0,0,2.08-1.35s.1,0,.25,0a.89.89,0,0,1,.41.21.55.55,0,0,1,.18.43,1.18,1.18,0,0,1-.18.58,2.12,2.12,0,0,1-.53.6,2.94,2.94,0,0,1-1,.52,3.91,3.91,0,0,1-1.28.2,3.66,3.66,0,0,1-1.85-.47,3.27,3.27,0,0,1-1.28-1.3,3.77,3.77,0,0,1-.46-1.88Zm7.36,6.3q-.66,0-.66-.57a.65.65,0,0,1,.09-.32c.06-.1.1-.16.13-.17a3.23,3.23,0,0,0,1.63-.93,4.86,4.86,0,0,0,1-1.79,7.54,7.54,0,0,0,.35-2.33,7.42,7.42,0,0,0-.35-2.29,4.62,4.62,0,0,0-1.05-1.78,3.27,3.27,0,0,0-1.62-.94.62.62,0,0,1-.13-.19.64.64,0,0,1-.09-.31q0-.57.66-.57a2.53,2.53,0,0,1,1.23.36,4.2,4.2,0,0,1,1.18,1,6.7,6.7,0,0,1,1.18,2.09,8.26,8.26,0,0,1,0,5.29A6.46,6.46,0,0,1,25.57,113a4.35,4.35,0,0,1-1.2,1,2.57,2.57,0,0,1-1.25.36Z"/><text class="cls-1" transform="translate(268.97 101.84)">1</text><line class="cls-2" x1="268.97" y1="107.95" x2="275.99" y2="107.95"/><text class="cls-1" transform="translate(268.97 121.38)">4</text><text class="cls-1" transform="translate(281.17 111.54)">=</text><path d="M307.62,101.33c0,.46,0,.51-.52.51h-8.5c-.47,0-.52-.06-.52-.52V92.48c0-.46.06-.5.51-.5h8.53c.46,0,.5.06.5.5Zm-9-.07h8.39v-8.7h-8.39Z"/><line class="cls-2" x1="297.28" y1="107.95" x2="308.44" y2="107.95"/><path d="M307.62,120.88c0,.46,0,.5-.52.5h-8.5c-.47,0-.52-.06-.52-.51V112c0-.46.06-.5.51-.5h8.53c.46,0,.5,0,.5.5Zm-9-.07h8.39V112.1h-8.39Z"/><path d="M338.88,110.82c0,.66-.07.72-.75.72H325.88c-.68,0-.74-.08-.74-.74V98.07c0-.66.08-.72.72-.72h12.29c.66,0,.73.08.73.72ZM326,110.71h12.09V98.17H326Z"/><path d="M368.39,101.33c0,.46-.05.51-.52.51h-8.5c-.48,0-.52-.06-.52-.52V92.48c0-.46.06-.5.5-.5h8.54c.45,0,.5.06.5.5Zm-9-.07h8.39v-8.7h-8.39Z"/><line class="cls-2" x1="358.05" y1="107.95" x2="369.2" y2="107.95"/><path d="M368.39,120.88c0,.46-.05.5-.52.5h-8.5c-.48,0-.52-.06-.52-.51V112c0-.46.06-.5.5-.5h8.54c.45,0,.5,0,.5.5Zm-9-.07h8.39V112.1h-8.39Z"/><text class="cls-1" transform="translate(374.38 111.54)">=</text><text class="cls-1" transform="translate(394 101.84)">6</text><line class="cls-2" x1="390.49" y1="107.95" x2="404.54" y2="107.95"/><text class="cls-1" transform="translate(390.49 121.38)">25</text><path d="M244.89,111.73a3.11,3.11,0,0,1-2.81-1.73,4.51,4.51,0,0,1,0-3.8,3.13,3.13,0,0,1,1.16-1.28,3.22,3.22,0,0,1,1.7-.45,3.09,3.09,0,0,1,1.42.32,2.44,2.44,0,0,1,.94.81v-3.76s.06-.06.17-.1a1,1,0,0,1,.35-.06c.6,0,.9.41.9,1.22v8c0,.45-.21.68-.63.68H248c-.42,0-.63-.23-.63-.68v-.53a2.76,2.76,0,0,1-2.43,1.34Zm2.43-4.67a2.23,2.23,0,0,0-.81-1,2.26,2.26,0,0,0-1.32-.38,2,2,0,0,0-1.56.68,2.62,2.62,0,0,0-.59,1.78,2.84,2.84,0,0,0,.27,1.26,2.23,2.23,0,0,0,.76.87,1.87,1.87,0,0,0,1.1.32,2.28,2.28,0,0,0,1.06-.26,2.06,2.06,0,0,0,.79-.73,1.85,1.85,0,0,0,.3-1Zm3,7.32q-.66,0-.66-.57a.65.65,0,0,1,.09-.32.37.37,0,0,1,.13-.17,3.17,3.17,0,0,0,1.62-.93,4.72,4.72,0,0,0,1-1.79,7.25,7.25,0,0,0,.36-2.33,7.14,7.14,0,0,0-.36-2.29,4.61,4.61,0,0,0-1-1.78,3.27,3.27,0,0,0-1.62-.94.48.48,0,0,1-.13-.19.64.64,0,0,1-.09-.31q0-.57.66-.57a2.53,2.53,0,0,1,1.23.36,4.2,4.2,0,0,1,1.18,1,6.7,6.7,0,0,1,1.18,2.09,8.26,8.26,0,0,1,0,5.29,6.66,6.66,0,0,1-1.15,2.07,4.35,4.35,0,0,1-1.2,1,2.57,2.57,0,0,1-1.25.36Z"/><text class="cls-1" transform="translate(36.22 171.5)">22</text><line class="cls-2" x1="36.22" y1="177.62" x2="50.27" y2="177.62"/><text class="cls-1" transform="translate(39.74 191.05)">7</text><text class="cls-1" transform="translate(55.45 181.2)">=</text><path d="M81.9,171c0,.46,0,.5-.52.5h-8.5c-.48,0-.52-.06-.52-.52v-8.83c0-.46.06-.5.5-.5H81.4c.46,0,.5,0,.5.5Zm-9-.07h8.4v-8.71h-8.4Z"/><line class="cls-2" x1="71.56" y1="177.62" x2="82.72" y2="177.62"/><path d="M81.9,190.54c0,.46,0,.51-.52.51h-8.5c-.48,0-.52-.06-.52-.52v-8.84c0-.46.06-.5.5-.5H81.4c.46,0,.5.06.5.5Zm-9-.07h8.4v-8.7h-8.4Z"/><path d="M113.15,180.48c0,.66-.06.72-.74.72H100.16c-.68,0-.75-.08-.75-.74V167.73c0-.66.09-.72.73-.72h12.29c.66,0,.72.08.72.72Zm-12.91-.1h12.09V167.84H100.24Z"/><path d="M142.67,171c0,.46,0,.5-.52.5h-8.51c-.47,0-.51-.06-.51-.52v-8.83c0-.46.05-.5.5-.5h8.53c.46,0,.51,0,.51.5Zm-9-.07h8.39v-8.71H133.7Z"/><line class="cls-2" x1="132.32" y1="177.62" x2="143.48" y2="177.62"/><path d="M142.67,190.54c0,.46,0,.51-.52.51h-8.51c-.47,0-.51-.06-.51-.52v-8.84c0-.46.05-.5.5-.5h8.53c.46,0,.51.06.51.5Zm-9-.07h8.39v-8.7H133.7Z"/><text class="cls-1" transform="translate(148.66 181.2)">=</text><text class="cls-1" transform="translate(164.77 171.5)">31</text><line class="cls-2" x1="164.77" y1="177.62" x2="178.82" y2="177.62"/><text class="cls-1" transform="translate(164.77 191.05)">10</text><path d="M15.76,177.79a3.78,3.78,0,0,1,.46-1.87,3.38,3.38,0,0,1,1.26-1.31,3.47,3.47,0,0,1,1.81-.48,3.41,3.41,0,0,1,1.74.44,3.06,3.06,0,0,1,1.16,1.23,3.74,3.74,0,0,1,.42,1.8v.12a.45.45,0,0,1-.1.32.48.48,0,0,1-.34.09H17.08a1.58,1.58,0,0,0,0,.26,2.31,2.31,0,0,0,.78,1.37,2.36,2.36,0,0,0,1.54.51,2.55,2.55,0,0,0,1.35-.31,2.14,2.14,0,0,0,.82-.84.48.48,0,0,1,.22,0,.88.88,0,0,1,.36.23.6.6,0,0,1,.17.44.89.89,0,0,1-.2.5,2.12,2.12,0,0,1-.56.5,4.06,4.06,0,0,1-2.18.56,3.93,3.93,0,0,1-1.91-.45,3.26,3.26,0,0,1-1.28-1.27,3.74,3.74,0,0,1-.46-1.88Zm5.47-.62a2.15,2.15,0,0,0-.58-1.43,1.79,1.79,0,0,0-1.37-.53,2,2,0,0,0-1.45.55,2.3,2.3,0,0,0-.73,1.41ZM23.78,184q-.66,0-.66-.57a.61.61,0,0,1,.09-.31c.05-.11.1-.17.13-.18a3.1,3.1,0,0,0,1.62-.93,4.53,4.53,0,0,0,1-1.79,7.21,7.21,0,0,0,.36-2.33,7.07,7.07,0,0,0-.36-2.28,4.53,4.53,0,0,0-1-1.79,3.18,3.18,0,0,0-1.62-.93.55.55,0,0,1-.13-.2.64.64,0,0,1-.09-.31q0-.57.66-.57a2.53,2.53,0,0,1,1.23.36,4.37,4.37,0,0,1,1.18,1,6.82,6.82,0,0,1,1.18,2.09,7.88,7.88,0,0,1,.44,2.65,7.74,7.74,0,0,1-.43,2.64,6.62,6.62,0,0,1-1.15,2.08,4.35,4.35,0,0,1-1.2,1,2.55,2.55,0,0,1-1.25.35Z"/><text class="cls-1" transform="translate(262.13 171.5)">22</text><line class="cls-2" x1="262.13" y1="177.62" x2="276.17" y2="177.62"/><text class="cls-1" transform="translate(262.13 191.05)">33</text><text class="cls-1" transform="translate(281.35 181.2)">=</text><path d="M307.8,171c0,.46,0,.5-.51.5h-8.51c-.47,0-.52-.06-.52-.52v-8.83c0-.46.06-.5.51-.5h8.53c.46,0,.5,0,.5.5Zm-9-.07h8.39v-8.71h-8.39Z"/><line class="cls-2" x1="297.46" y1="177.62" x2="308.62" y2="177.62"/><path d="M307.8,190.54c0,.46,0,.51-.51.51h-8.51c-.47,0-.52-.06-.52-.52v-8.84c0-.46.06-.5.51-.5h8.53c.46,0,.5.06.5.5Zm-9-.07h8.39v-8.7h-8.39Z"/><path d="M339.06,180.48c0,.66-.06.72-.75.72H326.06c-.68,0-.74-.08-.74-.74V167.73c0-.66.08-.72.72-.72h12.29c.67,0,.73.08.73.72Zm-12.92-.1h12.09V167.84H326.14Z"/><path d="M368.57,171c0,.46,0,.5-.52.5h-8.5c-.48,0-.52-.06-.52-.52v-8.83c0-.46.06-.5.5-.5h8.54c.46,0,.5,0,.5.5Zm-9-.07H368v-8.71H359.6Z"/><line class="cls-2" x1="358.23" y1="177.62" x2="369.38" y2="177.62"/><path d="M368.57,190.54c0,.46,0,.51-.52.51h-8.5c-.48,0-.52-.06-.52-.52v-8.84c0-.46.06-.5.5-.5h8.54c.46,0,.5.06.5.5Zm-9-.07H368v-8.7H359.6Z"/><text class="cls-1" transform="translate(374.56 181.2)">=</text><text class="cls-1" transform="translate(390.67 171.5)">24</text><line class="cls-2" x1="390.67" y1="177.62" x2="404.72" y2="177.62"/><text class="cls-1" transform="translate(390.67 191.05)">36</text><path d="M242.76,175.47H242a.71.71,0,0,1-.48-.14.53.53,0,0,1-.15-.41v-.1a.5.5,0,0,1,.15-.39.76.76,0,0,1,.48-.13h.81v-.51a2.78,2.78,0,0,1,.56-1.91,2.08,2.08,0,0,1,1.63-.63,2,2,0,0,1,1.18.29.72.72,0,0,1,.37.64.69.69,0,0,1-.24.55c-.06.06-.1.08-.1.07a1.39,1.39,0,0,0-.45-.28,1.52,1.52,0,0,0-.59-.12.87.87,0,0,0-.75.33,1.88,1.88,0,0,0-.24,1.07v.5h1.16a.82.82,0,0,1,.49.13.51.51,0,0,1,.15.4v.11a.51.51,0,0,1-.15.4.82.82,0,0,1-.49.13h-1.13v5.12a.67.67,0,0,1-.16.52.62.62,0,0,1-.46.15h-.14c-.43,0-.64-.22-.64-.67ZM248,184q-.66,0-.66-.57a.61.61,0,0,1,.09-.31c.06-.11.1-.17.13-.18a3.16,3.16,0,0,0,1.63-.93,4.78,4.78,0,0,0,1-1.79,7.21,7.21,0,0,0,.36-2.33,7.07,7.07,0,0,0-.36-2.28,4.67,4.67,0,0,0-1-1.79,3.18,3.18,0,0,0-1.62-.93.73.73,0,0,1-.13-.2.64.64,0,0,1-.09-.31q0-.57.66-.57a2.47,2.47,0,0,1,1.23.36,4.22,4.22,0,0,1,1.18,1,6.82,6.82,0,0,1,1.18,2.09,7.64,7.64,0,0,1,.45,2.65,8,8,0,0,1-.43,2.64,6.83,6.83,0,0,1-1.15,2.08,4.54,4.54,0,0,1-1.21,1A2.53,2.53,0,0,1,248,184Z"/><text class="cls-1" transform="translate(39.74 241.16)">5</text><line class="cls-2" x1="36.22" y1="247.28" x2="50.27" y2="247.28"/><text class="cls-1" transform="translate(36.22 260.71)">10</text><text class="cls-1" transform="translate(55.45 250.87)">=</text><path d="M81.9,240.66c0,.46,0,.5-.52.5h-8.5c-.48,0-.52,0-.52-.51v-8.84c0-.46.06-.5.5-.5H81.4c.46,0,.5.06.5.5Zm-9-.07h8.4v-8.71h-8.4Z"/><line class="cls-2" x1="71.56" y1="247.28" x2="82.72" y2="247.28"/><path d="M81.9,260.21c0,.46,0,.5-.52.5h-8.5c-.48,0-.52-.06-.52-.52v-8.83c0-.46.06-.5.5-.5H81.4c.46,0,.5,0,.5.5Zm-9-.07h8.4v-8.71h-8.4Z"/><path d="M113.15,250.15c0,.66-.06.72-.74.72H100.16c-.68,0-.75-.08-.75-.75V237.4c0-.66.09-.73.73-.73h12.29c.66,0,.72.09.72.73ZM100.24,250h12.09V237.5H100.24Z"/><path d="M142.67,240.66c0,.46,0,.5-.52.5h-8.51c-.47,0-.51,0-.51-.51v-8.84c0-.46.05-.5.5-.5h8.53c.46,0,.51.06.51.5Zm-9-.07h8.39v-8.71H133.7Z"/><line class="cls-2" x1="132.32" y1="247.28" x2="143.48" y2="247.28"/><path d="M142.67,260.21c0,.46,0,.5-.52.5h-8.51c-.47,0-.51-.06-.51-.52v-8.83c0-.46.05-.5.5-.5h8.53c.46,0,.51,0,.51.5Zm-9-.07h8.39v-8.71H133.7Z"/><text class="cls-1" transform="translate(148.66 250.87)">=</text><text class="cls-1" transform="translate(168.28 241.16)">50</text><line class="cls-2" x1="164.77" y1="247.28" x2="185.84" y2="247.28"/><text class="cls-1" transform="translate(164.77 260.71)">100</text><path d="M18.67,253.9a5.42,5.42,0,0,1-2.56-.47,1.6,1.6,0,0,1-.23-2.67,3.5,3.5,0,0,1,1.59-.67.78.78,0,0,1-.27-.64,1,1,0,0,1,.38-.75,2.65,2.65,0,0,1-1.32-.87,2.26,2.26,0,0,1-.48-1.42,2.36,2.36,0,0,1,.38-1.32,2.63,2.63,0,0,1,1.06-.94,3.17,3.17,0,0,1,1.51-.35,3.37,3.37,0,0,1,1.65.41l.37-.66a1.26,1.26,0,0,1,.37-.41.77.77,0,0,1,.45-.13.68.68,0,0,1,.42.13.89.89,0,0,1,.26.29c.05.11.07.17.05.18l-1.17,1.22a2.31,2.31,0,0,1,.22,2.82,2.47,2.47,0,0,1-1.06.9,3.51,3.51,0,0,1-1.54.32h-.26a.41.41,0,0,0-.07.25.38.38,0,0,0,.26.36,8.5,8.5,0,0,0,1,.27l.64.16a3.89,3.89,0,0,1,1.45.66,1.48,1.48,0,0,1,.56,1.22,1.74,1.74,0,0,1-.95,1.55,5.36,5.36,0,0,1-2.67.56Zm0-1a4,4,0,0,0,1.63-.28.88.88,0,0,0,.58-.8.62.62,0,0,0-.35-.57,4.32,4.32,0,0,0-1-.36l-.72-.18a3.87,3.87,0,0,0-1.54.38.94.94,0,0,0-.61.84.76.76,0,0,0,.52.71,3.62,3.62,0,0,0,1.54.26Zm.05-5a1.6,1.6,0,0,0,1.16-.43,1.52,1.52,0,0,0,.44-1.13,1.51,1.51,0,0,0-.45-1.13,1.64,1.64,0,0,0-1.18-.44,1.62,1.62,0,0,0-1.15.43,1.51,1.51,0,0,0-.45,1.14,1.5,1.5,0,0,0,.46,1.13,1.61,1.61,0,0,0,1.17.43Zm4.3,5.77q-.66,0-.66-.57a.62.62,0,0,1,.09-.32c.05-.11.1-.16.13-.17a3.18,3.18,0,0,0,1.62-.94,4.61,4.61,0,0,0,1-1.78,7.25,7.25,0,0,0,.36-2.33,7.09,7.09,0,0,0-.36-2.29,4.72,4.72,0,0,0-1-1.79,3.25,3.25,0,0,0-1.62-.93.48.48,0,0,1-.13-.19.67.67,0,0,1-.09-.31c0-.38.22-.58.66-.58a2.53,2.53,0,0,1,1.23.36,4.41,4.41,0,0,1,1.18,1A6.76,6.76,0,0,1,26.64,245a7.88,7.88,0,0,1,.44,2.65,7.79,7.79,0,0,1-.43,2.65,6.66,6.66,0,0,1-1.15,2.07,4.35,4.35,0,0,1-1.2,1,2.57,2.57,0,0,1-1.25.36Z"/><text class="cls-1" transform="translate(268.97 241.16)">7</text><line class="cls-2" x1="268.97" y1="247.28" x2="275.99" y2="247.28"/><text class="cls-1" transform="translate(268.97 260.71)">5</text><text class="cls-1" transform="translate(281.17 250.87)">=</text><path d="M307.62,240.66c0,.46,0,.5-.52.5h-8.5c-.47,0-.52,0-.52-.51v-8.84c0-.46.06-.5.51-.5h8.53c.46,0,.5.06.5.5Zm-9-.07h8.39v-8.71h-8.39Z"/><line class="cls-2" x1="297.28" y1="247.28" x2="308.44" y2="247.28"/><path d="M307.62,260.21c0,.46,0,.5-.52.5h-8.5c-.47,0-.52-.06-.52-.52v-8.83c0-.46.06-.5.51-.5h8.53c.46,0,.5,0,.5.5Zm-9-.07h8.39v-8.71h-8.39Z"/><path d="M338.88,250.15c0,.66-.07.72-.75.72H325.88c-.68,0-.74-.08-.74-.75V237.4c0-.66.08-.73.72-.73h12.29c.66,0,.73.09.73.73ZM326,250h12.09V237.5H326Z"/><path d="M368.39,240.66c0,.46-.05.5-.52.5h-8.5c-.48,0-.52,0-.52-.51v-8.84c0-.46.06-.5.5-.5h8.54c.45,0,.5.06.5.5Zm-9-.07h8.39v-8.71h-8.39Z"/><line class="cls-2" x1="358.05" y1="247.28" x2="369.2" y2="247.28"/><path d="M368.39,260.21c0,.46-.05.5-.52.5h-8.5c-.48,0-.52-.06-.52-.52v-8.83c0-.46.06-.5.5-.5h8.54c.45,0,.5,0,.5.5Zm-9-.07h8.39v-8.71h-8.39Z"/><text class="cls-1" transform="translate(374.38 250.87)">=</text><text class="cls-1" transform="translate(390.49 241.16)">17</text><line class="cls-2" x1="390.49" y1="247.28" x2="404.54" y2="247.28"/><text class="cls-1" transform="translate(390.49 260.71)">12</text><path d="M245.78,243.8a2.46,2.46,0,0,1,2,.81,3.31,3.31,0,0,1,.67,2.17v3.47c0,.45-.21.68-.63.68h-.16c-.42,0-.63-.23-.63-.68v-3.31a2.08,2.08,0,0,0-.42-1.39,1.45,1.45,0,0,0-1.17-.51,1.89,1.89,0,0,0-1.42.55,2.08,2.08,0,0,0-.52,1.48v3.18c0,.45-.21.68-.63.68h-.16c-.42,0-.63-.23-.63-.68v-9.08s0-.06.16-.1a1,1,0,0,1,.36-.06.81.81,0,0,1,.64.28,1.31,1.31,0,0,1,.26.94v2.83a2.61,2.61,0,0,1,2.28-1.26Zm4.21,9.91q-.66,0-.66-.57a.61.61,0,0,1,.08-.32c.06-.11.1-.16.13-.17a3.25,3.25,0,0,0,1.63-.94,4.74,4.74,0,0,0,1-1.78,7.25,7.25,0,0,0,.36-2.33,7.09,7.09,0,0,0-.36-2.29,4.74,4.74,0,0,0-1.05-1.79,3.25,3.25,0,0,0-1.62-.93.62.62,0,0,1-.13-.19.65.65,0,0,1-.08-.31c0-.38.22-.58.66-.58a2.47,2.47,0,0,1,1.22.36,4.45,4.45,0,0,1,1.19,1,6.75,6.75,0,0,1,1.17,2.08,7.64,7.64,0,0,1,.45,2.65,8,8,0,0,1-.43,2.65,6.66,6.66,0,0,1-1.15,2.07,4.39,4.39,0,0,1-1.21,1,2.54,2.54,0,0,1-1.24.36Z"/><text class="cls-1" transform="translate(39.74 310.83)">7</text><line class="cls-2" x1="36.22" y1="316.95" x2="50.27" y2="316.95"/><text class="cls-1" transform="translate(36.22 330.37)">12</text><text class="cls-1" transform="translate(55.45 320.53)">=</text><path d="M81.9,310.32c0,.46,0,.51-.52.51h-8.5c-.48,0-.52-.06-.52-.52v-8.84c0-.45.06-.5.5-.5H81.4c.46,0,.5.06.5.5Zm-9-.07h8.4v-8.7h-8.4Z"/><line class="cls-2" x1="71.56" y1="316.95" x2="82.72" y2="316.95"/><path d="M81.9,329.87c0,.46,0,.5-.52.5h-8.5c-.48,0-.52-.05-.52-.51V321c0-.46.06-.5.5-.5H81.4c.46,0,.5.06.5.5Zm-9-.07h8.4v-8.71h-8.4Z"/><path d="M113.15,319.81c0,.66-.06.72-.74.72H100.16c-.68,0-.75-.08-.75-.74V307.06c0-.66.09-.72.73-.72h12.29c.66,0,.72.08.72.72Zm-12.91-.1h12.09V307.17H100.24Z"/><path d="M142.67,310.32c0,.46,0,.51-.52.51h-8.51c-.47,0-.51-.06-.51-.52v-8.84c0-.45.05-.5.5-.5h8.53c.46,0,.51.06.51.5Zm-9-.07h8.39v-8.7H133.7Z"/><line class="cls-2" x1="132.32" y1="316.95" x2="143.48" y2="316.95"/><path d="M142.67,329.87c0,.46,0,.5-.52.5h-8.51c-.47,0-.51-.05-.51-.51V321c0-.46.05-.5.5-.5h8.53c.46,0,.51.06.51.5Zm-9-.07h8.39v-8.71H133.7Z"/><text class="cls-1" transform="translate(148.66 320.53)">=</text><text class="cls-1" transform="translate(168.28 310.83)">9</text><line class="cls-2" x1="164.77" y1="316.95" x2="178.82" y2="316.95"/><text class="cls-1" transform="translate(164.77 330.37)">20</text><path d="M16.12,311.42a.82.82,0,0,1,.23-.61.85.85,0,0,1,.63-.22.83.83,0,0,1,.62.22.85.85,0,0,1,.21.61.82.82,0,0,1-.22.61.88.88,0,0,1-.62.21.85.85,0,0,1-.63-.22.81.81,0,0,1-.22-.6Zm.12,2.83c0-.46.21-.69.64-.69H17a.62.62,0,0,1,.47.16.7.7,0,0,1,.17.53v5.67c0,.45-.21.67-.64.67h-.14c-.43,0-.64-.22-.64-.67Zm3.09,9.12q-.66,0-.66-.57a.65.65,0,0,1,.09-.32c.06-.1.1-.16.13-.17a3.16,3.16,0,0,0,1.63-.93,4.78,4.78,0,0,0,1-1.79,7.59,7.59,0,0,0,0-4.62,4.7,4.7,0,0,0-1-1.78,3.27,3.27,0,0,0-1.62-.94s-.07-.08-.13-.19a.64.64,0,0,1-.09-.31q0-.57.66-.57a2.5,2.5,0,0,1,1.23.36,4.22,4.22,0,0,1,1.18,1,6.82,6.82,0,0,1,1.18,2.09,7.64,7.64,0,0,1,.45,2.65,7.78,7.78,0,0,1-.44,2.64A6.61,6.61,0,0,1,21.79,322a4.31,4.31,0,0,1-1.21,1,2.54,2.54,0,0,1-1.25.36Z"/></svg>