<svg id="Camada_1" data-name="Camada 1" xmlns="http://www.w3.org/2000/svg" viewBox="0 0 459.43 522.12"><defs><style>.cls-1{fill:none;stroke:#000;stroke-miterlimit:10;stroke-width:0.4px;}.cls-2{fill:#94d4e9;opacity:0.3;}</style></defs><line class="cls-1" x1="9.39" y1="13.06" x2="450.04" y2="13.06"/><line class="cls-1" x1="9.39" y1="13.06" x2="450.04" y2="13.06"/><line class="cls-1" x1="9.59" y1="30.7" x2="9.59" y2="13.26"/><path d="M23.18,16.82a.66.66,0,0,1,.16-.46.55.55,0,0,1,.43-.18h5c.33,0,.5.15.5.43v.09c0,.3-.17.45-.5.45H24.26v3.42h3.36c.33,0,.5.15.5.43v.08a.42.42,0,0,1-.12.33.66.66,0,0,1-.38.1H24.27V25a.52.52,0,0,1-.12.36.45.45,0,0,1-.35.13h-.16c-.3,0-.46-.18-.46-.55Zm10.15,1.65a1.17,1.17,0,0,1,.73.2.64.64,0,0,1,.28.54.76.76,0,0,1-.06.32.49.49,0,0,1-.15.19c-.06,0-.09.06-.1.05a1.12,1.12,0,0,0-.82-.29,1.34,1.34,0,0,0-1.23.75,4.42,4.42,0,0,0-.4,2.08V25c0,.33-.15.49-.45.49H31a.43.43,0,0,1-.48-.49V18.68s0,0,.12-.07a.68.68,0,0,1,.26,0c.35,0,.55.23.6.68s0,.58,0,.75a2.13,2.13,0,0,1,.66-1.15,1.65,1.65,0,0,1,1.12-.38Zm1.59,5.23A1.75,1.75,0,0,1,36,22a9,9,0,0,1,3.57-.57h.16v-.29a1.79,1.79,0,0,0-.48-1.34,1.9,1.9,0,0,0-1.37-.47,2.39,2.39,0,0,0-1.3.33,2.15,2.15,0,0,0-.8.89.35.35,0,0,1-.19,0,.55.55,0,0,1-.3-.16.44.44,0,0,1-.14-.35.85.85,0,0,1,.11-.36,1.4,1.4,0,0,1,.31-.4,3,3,0,0,1,1-.59A4,4,0,0,1,38,18.47a2.82,2.82,0,0,1,2.08.71,2.68,2.68,0,0,1,.74,2v4.23s0,0-.13.07a.69.69,0,0,1-.25,0q-.52,0-.6-.66,0-.39,0-.63a2.54,2.54,0,0,1-1,1,3.06,3.06,0,0,1-1.52.37,2.56,2.56,0,0,1-1.7-.52,1.72,1.72,0,0,1-.62-1.39Zm4.85-1.58-.25,0a8,8,0,0,0-2.73.4A1.19,1.19,0,0,0,36,23.67a1,1,0,0,0,.4.85,1.72,1.72,0,0,0,1.09.31,2.56,2.56,0,0,0,1.18-.27,2.23,2.23,0,0,0,.84-.74,1.87,1.87,0,0,0,.31-1Zm5.42,6.5a1.67,1.67,0,0,1-.73-.15A1.35,1.35,0,0,1,44,28.1a.76.76,0,0,1-.17-.44.38.38,0,0,1,.36-.44,1.17,1.17,0,0,0,.93.56,1,1,0,0,0,.61-.19.71.71,0,0,0,.24-.59,1.29,1.29,0,0,0-.42-.86,2.71,2.71,0,0,0-.9-.65,3.1,3.1,0,0,1-1.81-1.22A3.77,3.77,0,0,1,42.13,22a3.7,3.7,0,0,1,.45-1.83,3.34,3.34,0,0,1,1.23-1.27,3.54,3.54,0,0,1,1.78-.45,3.58,3.58,0,0,1,1.32.22,3.1,3.1,0,0,1,1,.61,2.08,2.08,0,0,1,.42.54,1.15,1.15,0,0,1,.14.49.42.42,0,0,1-.14.32.83.83,0,0,1-.32.17c-.11,0-.18,0-.2,0a2.12,2.12,0,0,0-2.16-1.47,2.36,2.36,0,0,0-2.14,1.3A3,3,0,0,0,43.15,22a3.17,3.17,0,0,0,.31,1.4,2.35,2.35,0,0,0,.87,1,2.38,2.38,0,0,0,1.28.34,2.2,2.2,0,0,0,1.38-.4,2.34,2.34,0,0,0,.78-1.06s.08,0,.2,0a.71.71,0,0,1,.32.17.44.44,0,0,1,.14.34,1,1,0,0,1-.13.46,2.38,2.38,0,0,1-.4.53,3,3,0,0,1-1.59.81,3.08,3.08,0,0,1-.53,0,2.74,2.74,0,0,1,.72.72,1.62,1.62,0,0,1,.28.93,1.19,1.19,0,0,1-.47,1,1.86,1.86,0,0,1-1.12.34Zm4.16-4.92A1.76,1.76,0,0,1,50.48,22,9,9,0,0,1,54,21.45h.16v-.29a1.79,1.79,0,0,0-.48-1.34,1.9,1.9,0,0,0-1.37-.47,2.39,2.39,0,0,0-1.3.33,2.22,2.22,0,0,0-.8.89.35.35,0,0,1-.19,0,.55.55,0,0,1-.3-.16.44.44,0,0,1-.14-.35.85.85,0,0,1,.11-.36,1.4,1.4,0,0,1,.31-.4,3,3,0,0,1,1-.59,4,4,0,0,1,1.4-.22,2.85,2.85,0,0,1,2.08.71,2.71,2.71,0,0,1,.73,2v4.23s0,0-.12.07a.78.78,0,0,1-.26,0q-.53,0-.6-.66,0-.39,0-.63a2.58,2.58,0,0,1-1,1,3.09,3.09,0,0,1-1.53.37,2.58,2.58,0,0,1-1.7-.52,1.72,1.72,0,0,1-.62-1.39Zm4.85-1.58-.24,0a8,8,0,0,0-2.74.4,1.19,1.19,0,0,0-.84,1.13,1,1,0,0,0,.4.85,1.75,1.75,0,0,0,1.1.31,2.52,2.52,0,0,0,1.17-.27,2.09,2.09,0,0,0,.84-.74,1.79,1.79,0,0,0,.31-1Zm-3.42-4.77a.58.58,0,0,1-.33-.13,1.25,1.25,0,0,1,0-.36,1.69,1.69,0,0,1,.35-.9,1,1,0,0,1,.76-.35,1,1,0,0,1,.52.13,3.46,3.46,0,0,1,.51.36,4.18,4.18,0,0,0,.77.6.5.5,0,0,0,.22-.19,2.3,2.3,0,0,0,.17-.35,2.35,2.35,0,0,1,.18-.36.26.26,0,0,1,.22-.1.42.42,0,0,1,.32.11,1.14,1.14,0,0,1,.06.39,1.56,1.56,0,0,1-.36.87.93.93,0,0,1-.75.35,1.14,1.14,0,0,1-.52-.12,2.84,2.84,0,0,1-.51-.36l-.35-.3a2.79,2.79,0,0,0-.41-.3.57.57,0,0,0-.2.18,2.3,2.3,0,0,0-.17.35,2,2,0,0,1-.21.36.26.26,0,0,1-.23.12ZM56.57,22A3.75,3.75,0,0,1,57,20.19a3.29,3.29,0,0,1,1.24-1.27,3.81,3.81,0,0,1,3.59,0,3.32,3.32,0,0,1,1.23,1.29,3.93,3.93,0,0,1,.44,1.86,3.84,3.84,0,0,1-.44,1.83,3.2,3.2,0,0,1-1.24,1.26,3.43,3.43,0,0,1-1.79.46,3.5,3.5,0,0,1-1.8-.46A3.22,3.22,0,0,1,57,23.89,3.88,3.88,0,0,1,56.57,22Zm5.94,0a3,3,0,0,0-.32-1.4,2.44,2.44,0,0,0-.87-1,2.51,2.51,0,0,0-2.54,0,2.46,2.46,0,0,0-.89,1,3.18,3.18,0,0,0,0,2.78,2.6,2.6,0,0,0,.89,1,2.48,2.48,0,0,0,2.54,0,2.35,2.35,0,0,0,.87-.95,3,3,0,0,0,.32-1.38Zm7.58,3.55a3,3,0,0,1-1.62-.45,3.12,3.12,0,0,1-1.12-1.26,4.45,4.45,0,0,1,0-3.73,3.07,3.07,0,0,1,1.13-1.26,3,3,0,0,1,1.64-.45,2.94,2.94,0,0,1,1.51.37,2.48,2.48,0,0,1,1,.94v-4s0-.06.11-.08a.62.62,0,0,1,.25,0c.45,0,.67.31.67.92V25c0,.33-.15.49-.45.49h-.11c-.29,0-.44-.15-.44-.46s0-.49,0-.89a3,3,0,0,1-1,1.08,2.83,2.83,0,0,1-1.5.38ZM72.59,21a2.55,2.55,0,0,0-.87-1.21,2.28,2.28,0,0,0-1.42-.43,2.11,2.11,0,0,0-1.68.75A2.85,2.85,0,0,0,68,22a3.16,3.16,0,0,0,.3,1.4,2.27,2.27,0,0,0,.82,1,2.13,2.13,0,0,0,1.19.35,2.31,2.31,0,0,0,1.16-.3,2.09,2.09,0,0,0,.84-.8,2.12,2.12,0,0,0,.31-1.14ZM75,23.7A1.76,1.76,0,0,1,76.16,22a9,9,0,0,1,3.56-.57h.16v-.29a1.79,1.79,0,0,0-.48-1.34A1.9,1.9,0,0,0,78,19.35a2.39,2.39,0,0,0-1.3.33,2.22,2.22,0,0,0-.8.89.35.35,0,0,1-.19,0,.55.55,0,0,1-.3-.16A.44.44,0,0,1,75.3,20a.85.85,0,0,1,.11-.36,1.4,1.4,0,0,1,.31-.4,3,3,0,0,1,1-.59,4,4,0,0,1,1.4-.22,2.85,2.85,0,0,1,2.08.71,2.71,2.71,0,0,1,.73,2v4.23s0,0-.12.07a.78.78,0,0,1-.26,0q-.52,0-.6-.66,0-.39,0-.63a2.54,2.54,0,0,1-1,1,3,3,0,0,1-1.52.37,2.58,2.58,0,0,1-1.7-.52A1.72,1.72,0,0,1,75,23.7Zm4.85-1.58-.24,0a8,8,0,0,0-2.74.4,1.19,1.19,0,0,0-.84,1.13,1,1,0,0,0,.4.85,1.74,1.74,0,0,0,1.09.31,2.53,2.53,0,0,0,1.18-.27,2.23,2.23,0,0,0,.84-.74,1.79,1.79,0,0,0,.31-1ZM90.6,18.57q.45,0,.45.48v6.36s0,0-.12.07a.69.69,0,0,1-.25,0c-.35,0-.55-.22-.6-.67,0-.25,0-.44,0-.56a3,3,0,0,1-1,1,2.6,2.6,0,0,1-1.38.36,2.39,2.39,0,0,1-2-.81,3.27,3.27,0,0,1-.67-2.17V19.05a.42.42,0,0,1,.46-.48h.12a.42.42,0,0,1,.46.48v3.52a2.35,2.35,0,0,0,.47,1.57,1.63,1.63,0,0,0,1.33.57,2.21,2.21,0,0,0,1.27-.38,2.34,2.34,0,0,0,.84-1V19.05q0-.48.45-.48Zm5.65-.1a2.4,2.4,0,0,1,2,.8,3.3,3.3,0,0,1,.66,2.16V25c0,.33-.14.49-.44.49H98.3c-.31,0-.46-.16-.46-.49v-3.5A2.41,2.41,0,0,0,97.37,20a1.61,1.61,0,0,0-1.32-.57,2.25,2.25,0,0,0-1.29.38,2.49,2.49,0,0,0-.84,1V25c0,.33-.14.49-.44.49h-.13c-.31,0-.46-.16-.46-.49V18.68s0,0,.12-.07a.73.73,0,0,1,.25,0c.41,0,.62.28.64.86v.4a2.56,2.56,0,0,1,1-1,2.64,2.64,0,0,1,1.39-.36Zm4.35-2a.59.59,0,0,1,.65-.66.66.66,0,0,1,.49.17.65.65,0,0,1,.17.49.61.61,0,0,1-.17.48.72.72,0,0,1-.5.17.64.64,0,0,1-.47-.17.61.61,0,0,1-.17-.48Zm.12,2.6c0-.34.16-.5.46-.5h.12c.3,0,.46.16.46.5V25c0,.33-.16.49-.46.49h-.12c-.3,0-.46-.16-.46-.49Zm5.67,6.55a3,3,0,0,1-1.62-.45,3.15,3.15,0,0,1-1.13-1.26,4.45,4.45,0,0,1,0-3.73,3.1,3.1,0,0,1,1.14-1.26,3,3,0,0,1,1.64-.45,3,3,0,0,1,1.51.37,2.48,2.48,0,0,1,1,.94v-4s0-.06.1-.08a.71.71,0,0,1,.26,0c.45,0,.67.31.67.92V25c0,.33-.15.49-.46.49h-.1c-.3,0-.44-.15-.44-.46s0-.49,0-.89a2.92,2.92,0,0,1-1,1.08,2.88,2.88,0,0,1-1.5.38Zm2.5-4.64a2.55,2.55,0,0,0-.87-1.21,2.31,2.31,0,0,0-1.43-.43,2.11,2.11,0,0,0-1.68.75,2.85,2.85,0,0,0-.64,1.95,3.3,3.3,0,0,0,.29,1.4,2.29,2.29,0,0,0,.83,1,2.13,2.13,0,0,0,1.19.35,2.31,2.31,0,0,0,1.16-.3,2.18,2.18,0,0,0,1.15-1.94Zm2.44,2.72A1.75,1.75,0,0,1,112.45,22a9,9,0,0,1,3.57-.57h.16v-.29a1.79,1.79,0,0,0-.49-1.34,1.88,1.88,0,0,0-1.37-.47,2.38,2.38,0,0,0-1.29.33,2.15,2.15,0,0,0-.8.89.35.35,0,0,1-.19,0,.62.62,0,0,1-.31-.16.43.43,0,0,1-.13-.35.73.73,0,0,1,.11-.36,1.55,1.55,0,0,1,.3-.4,3,3,0,0,1,1-.59,4,4,0,0,1,1.39-.22,2.84,2.84,0,0,1,2.08.71,2.67,2.67,0,0,1,.73,2v4.23s0,0-.12.07a.69.69,0,0,1-.25,0q-.52,0-.6-.66,0-.39,0-.63a2.54,2.54,0,0,1-1,1,3.08,3.08,0,0,1-1.52.37,2.56,2.56,0,0,1-1.7-.52,1.69,1.69,0,0,1-.62-1.39Zm4.85-1.58-.25,0a8,8,0,0,0-2.73.4,1.19,1.19,0,0,0-.84,1.13,1,1,0,0,0,.4.85,1.72,1.72,0,0,0,1.09.31,2.59,2.59,0,0,0,1.18-.27,2.23,2.23,0,0,0,.84-.74,1.87,1.87,0,0,0,.31-1Zm5.52,3.5a3,3,0,0,1-1.62-.45A3.07,3.07,0,0,1,119,23.91a4.45,4.45,0,0,1,0-3.73,3,3,0,0,1,2.78-1.71,2.93,2.93,0,0,1,1.5.37,2.48,2.48,0,0,1,1,.94v-4s0-.06.11-.08a.66.66,0,0,1,.25,0c.45,0,.68.31.68.92V25c0,.33-.16.49-.46.49h-.1a.4.4,0,0,1-.45-.46c0-.19,0-.49,0-.89a3,3,0,0,1-1,1.08,2.88,2.88,0,0,1-1.5.38ZM124.19,21a2.6,2.6,0,0,0-.86-1.21,2.33,2.33,0,0,0-1.43-.43,2.11,2.11,0,0,0-1.68.75,2.85,2.85,0,0,0-.64,1.95,3.16,3.16,0,0,0,.29,1.4,2.34,2.34,0,0,0,.82,1,2.15,2.15,0,0,0,1.19.35,2.34,2.34,0,0,0,1.17-.3,2.14,2.14,0,0,0,1.14-1.94Zm2.44,1.1a3.93,3.93,0,0,1,.44-1.86,3.2,3.2,0,0,1,1.21-1.29,3.28,3.28,0,0,1,1.74-.46,3.23,3.23,0,0,1,1.66.42,2.83,2.83,0,0,1,1.09,1.18,3.85,3.85,0,0,1,.39,1.77v.1a.37.37,0,0,1-.08.26.45.45,0,0,1-.28.07h-5.18a1,1,0,0,0,0,.2,2.48,2.48,0,0,0,.78,1.66,2.42,2.42,0,0,0,1.71.63,2.5,2.5,0,0,0,1.4-.34,2.46,2.46,0,0,0,.83-.92.34.34,0,0,1,.19,0,.59.59,0,0,1,.27.18.45.45,0,0,1,.13.33.87.87,0,0,1-.14.4,1.67,1.67,0,0,1-.41.44,2.85,2.85,0,0,1-1,.53,4.18,4.18,0,0,1-1.33.2,3.58,3.58,0,0,1-1.82-.44,3.11,3.11,0,0,1-1.23-1.26,3.82,3.82,0,0,1-.44-1.84Zm5.51-.56a2.41,2.41,0,0,0-.61-1.61A2,2,0,0,0,130,19.3a2.2,2.2,0,0,0-1.58.61,2.74,2.74,0,0,0-.79,1.61Z"/><line class="cls-1" x1="146.18" y1="30.7" x2="146.18" y2="13.26"/><path d="M153.84,25.51c-.29,0-.43-.16-.43-.49V16.79a.78.78,0,0,1,.13-.48.5.5,0,0,1,.4-.17h.2a.66.66,0,0,1,.38.11,1.39,1.39,0,0,1,.31.35l5,7.16V16.63a.51.51,0,0,1,.11-.37.42.42,0,0,1,.33-.12h.13c.3,0,.45.16.45.49v8.25a.74.74,0,0,1-.14.46.47.47,0,0,1-.38.17h-.08a.65.65,0,0,1-.36-.07,1,1,0,0,1-.26-.29l-5.24-7.45V25c0,.33-.15.49-.44.49ZM162.4,22a3.75,3.75,0,0,1,.45-1.85,3.26,3.26,0,0,1,1.23-1.27,3.6,3.6,0,0,1,1.81-.45,3.49,3.49,0,0,1,1.78.45,3.25,3.25,0,0,1,1.23,1.29,3.82,3.82,0,0,1,.45,1.86,3.73,3.73,0,0,1-.45,1.83,3.24,3.24,0,0,1-1.23,1.26,3.75,3.75,0,0,1-3.6,0,3.13,3.13,0,0,1-1.23-1.27A3.89,3.89,0,0,1,162.4,22Zm5.94,0a3,3,0,0,0-.31-1.4,2.46,2.46,0,0,0-.88-1,2.34,2.34,0,0,0-1.26-.35,2.39,2.39,0,0,0-1.27.34,2.32,2.32,0,0,0-.89,1,3.18,3.18,0,0,0,0,2.78,2.45,2.45,0,0,0,.89,1,2.4,2.4,0,0,0,1.27.35,2.34,2.34,0,0,0,1.26-.35,2.38,2.38,0,0,0,.88-.95,3,3,0,0,0,.31-1.38Zm10.26-3.6a2.36,2.36,0,0,1,1.89.75,3.17,3.17,0,0,1,.65,2.13V25c0,.33-.15.49-.46.49h-.12c-.3,0-.45-.16-.45-.49V21.43a2.35,2.35,0,0,0-.44-1.52,1.58,1.58,0,0,0-1.29-.53,2,2,0,0,0-1.14.37,2.07,2.07,0,0,0-.76,1V25c0,.33-.16.49-.46.49h-.12c-.3,0-.46-.16-.46-.49V21.35a2.19,2.19,0,0,0-.43-1.46,1.62,1.62,0,0,0-1.29-.51,1.93,1.93,0,0,0-1.12.37,2.27,2.27,0,0,0-.8,1V25c0,.33-.15.49-.45.49h-.12c-.31,0-.46-.16-.46-.49V18.68s0,0,.12-.07a.69.69,0,0,1,.25,0q.6,0,.63.84v.35a2.59,2.59,0,0,1,.92-.94,2.25,2.25,0,0,1,1.25-.35,2.43,2.43,0,0,1,1.43.4,2.18,2.18,0,0,1,.84,1.12,2.75,2.75,0,0,1,.94-1.11,2.51,2.51,0,0,1,1.44-.41Zm3.89,3.61a3.92,3.92,0,0,1,.43-1.86,3.34,3.34,0,0,1,1.21-1.29,3.28,3.28,0,0,1,1.74-.46,3.2,3.2,0,0,1,1.66.42,2.91,2.91,0,0,1,1.1,1.18,3.84,3.84,0,0,1,.38,1.77v.1a.37.37,0,0,1-.07.26.5.5,0,0,1-.28.07h-5.18a1.15,1.15,0,0,0,0,.2,2.53,2.53,0,0,0,.78,1.66,2.45,2.45,0,0,0,1.72.63,2.52,2.52,0,0,0,1.4-.34,2.43,2.43,0,0,0,.82-.92.38.38,0,0,1,.2,0,.59.59,0,0,1,.27.18.45.45,0,0,1,.12.33.87.87,0,0,1-.14.4,1.51,1.51,0,0,1-.41.44,2.79,2.79,0,0,1-.94.53,4.24,4.24,0,0,1-1.34.2,3.61,3.61,0,0,1-1.82-.44,3.24,3.24,0,0,1-1.23-1.26,3.82,3.82,0,0,1-.43-1.84Zm5.51-.56a2.41,2.41,0,0,0-.62-1.61,2,2,0,0,0-1.51-.61,2.22,2.22,0,0,0-1.58.61,2.67,2.67,0,0,0-.78,1.61Zm7.59,4.1a3,3,0,0,1-1.63-.45,3.12,3.12,0,0,1-1.12-1.26,4.45,4.45,0,0,1,0-3.73A3.07,3.07,0,0,1,194,18.92a3,3,0,0,1,1.64-.45,2.94,2.94,0,0,1,1.51.37,2.48,2.48,0,0,1,1,.94v-4s0-.06.11-.08a.62.62,0,0,1,.25,0c.45,0,.67.31.67.92V25c0,.33-.15.49-.45.49h-.1a.4.4,0,0,1-.45-.46c0-.19,0-.49,0-.89a3,3,0,0,1-1,1.08,2.82,2.82,0,0,1-1.49.38ZM198.08,21a2.55,2.55,0,0,0-.87-1.21,2.28,2.28,0,0,0-1.42-.43,2.11,2.11,0,0,0-1.68.75,2.85,2.85,0,0,0-.65,1.95,3.16,3.16,0,0,0,.3,1.4,2.27,2.27,0,0,0,.82,1,2.13,2.13,0,0,0,1.19.35,2.31,2.31,0,0,0,1.16-.3,2.09,2.09,0,0,0,.84-.8,2.12,2.12,0,0,0,.31-1.14Zm2.44,2.72A1.76,1.76,0,0,1,201.65,22a9,9,0,0,1,3.56-.57h.16v-.29a1.79,1.79,0,0,0-.48-1.34,1.9,1.9,0,0,0-1.37-.47,2.39,2.39,0,0,0-1.3.33,2.22,2.22,0,0,0-.8.89.35.35,0,0,1-.19,0,.55.55,0,0,1-.3-.16.44.44,0,0,1-.14-.35.85.85,0,0,1,.11-.36,1.6,1.6,0,0,1,.31-.4,3,3,0,0,1,1-.59,4,4,0,0,1,1.4-.22,2.84,2.84,0,0,1,2.08.71,2.71,2.71,0,0,1,.73,2v4.23s0,0-.12.07a.77.77,0,0,1-.25,0c-.36,0-.56-.22-.61-.66q0-.39,0-.63a2.58,2.58,0,0,1-1,1,3.09,3.09,0,0,1-1.53.37,2.58,2.58,0,0,1-1.7-.52,1.72,1.72,0,0,1-.62-1.39Zm4.85-1.58-.24,0a8,8,0,0,0-2.74.4,1.19,1.19,0,0,0-.84,1.13,1,1,0,0,0,.41.85,1.7,1.7,0,0,0,1.09.31,2.52,2.52,0,0,0,1.17-.27,2.09,2.09,0,0,0,.84-.74,1.79,1.79,0,0,0,.31-1Zm5.87-2.62h-1a.52.52,0,0,1-.35-.1.4.4,0,0,1-.1-.3V19a.37.37,0,0,1,.1-.29.47.47,0,0,1,.35-.1h1v-.69a2.67,2.67,0,0,1,.51-1.77,1.83,1.83,0,0,1,1.48-.61,1.68,1.68,0,0,1,1.16.35.56.56,0,0,1,.23.48.71.71,0,0,1-.05.26.53.53,0,0,1-.13.16s-.07.05-.08,0a1.25,1.25,0,0,0-.44-.29,1.52,1.52,0,0,0-.59-.12.94.94,0,0,0-.83.38,2.12,2.12,0,0,0-.27,1.21v.6h1.32c.3,0,.46.13.46.39v.09c0,.26-.16.4-.46.4h-1.29V25c0,.33-.15.49-.45.49h-.11c-.31,0-.46-.16-.46-.49Zm6.8-1a1.22,1.22,0,0,1,.74.2.66.66,0,0,1,.28.54.76.76,0,0,1-.07.32.49.49,0,0,1-.15.19c-.06,0-.09.06-.1.05a1.11,1.11,0,0,0-.82-.29,1.31,1.31,0,0,0-1.22.75,4.29,4.29,0,0,0-.41,2.08V25c0,.33-.15.49-.45.49h-.11a.43.43,0,0,1-.48-.49V18.68s0,0,.12-.07a.71.71,0,0,1,.26,0c.35,0,.55.23.6.68s0,.58,0,.75a2.13,2.13,0,0,1,.66-1.15,1.65,1.65,0,0,1,1.12-.38Zm1.6,5.23A1.76,1.76,0,0,1,220.77,22a9,9,0,0,1,3.57-.57h.15v-.29a1.79,1.79,0,0,0-.48-1.34,1.88,1.88,0,0,0-1.37-.47,2.41,2.41,0,0,0-1.3.33,2.12,2.12,0,0,0-.79.89.39.39,0,0,1-.2,0,.55.55,0,0,1-.3-.16.43.43,0,0,1-.13-.35.82.82,0,0,1,.1-.36,1.88,1.88,0,0,1,.31-.4,3,3,0,0,1,1-.59,3.94,3.94,0,0,1,1.39-.22,2.84,2.84,0,0,1,2.08.71,2.67,2.67,0,0,1,.73,2v4.23s0,0-.12.07a.73.73,0,0,1-.25,0q-.54,0-.6-.66,0-.39,0-.63a2.54,2.54,0,0,1-1,1,3.08,3.08,0,0,1-1.52.37,2.54,2.54,0,0,1-1.7-.52,1.7,1.7,0,0,1-.63-1.39Zm4.85-1.58-.24,0a8,8,0,0,0-2.73.4,1.19,1.19,0,0,0-.84,1.13,1,1,0,0,0,.4.85,1.72,1.72,0,0,0,1.09.31,2.59,2.59,0,0,0,1.18-.27,2.13,2.13,0,0,0,.83-.74,1.79,1.79,0,0,0,.31-1Zm5.43,6.5a1.72,1.72,0,0,1-.74-.15,1.23,1.23,0,0,1-.48-.37.72.72,0,0,1-.18-.44.38.38,0,0,1,.36-.44,1.19,1.19,0,0,0,.94.56,1,1,0,0,0,.61-.19.73.73,0,0,0,.23-.59,1.32,1.32,0,0,0-.41-.86,2.64,2.64,0,0,0-.91-.65,3.13,3.13,0,0,1-1.81-1.22,3.77,3.77,0,0,1-.67-2.25,3.7,3.7,0,0,1,.45-1.83,3.2,3.2,0,0,1,1.23-1.27,3.51,3.51,0,0,1,1.78-.45,3.66,3.66,0,0,1,1.32.22,3.1,3.1,0,0,1,1,.61,1.84,1.84,0,0,1,.41.54,1,1,0,0,1,.15.49.39.39,0,0,1-.15.32.79.79,0,0,1-.31.17c-.12,0-.18,0-.2,0a2.13,2.13,0,0,0-2.17-1.47,2.34,2.34,0,0,0-1.26.35,2.44,2.44,0,0,0-.88.95,3,3,0,0,0-.31,1.37,3,3,0,0,0,.31,1.4,2.22,2.22,0,0,0,.87,1,2.34,2.34,0,0,0,1.27.34,2.21,2.21,0,0,0,1.39-.4,2.34,2.34,0,0,0,.78-1.06s.07,0,.19,0a.67.67,0,0,1,.32.17.42.42,0,0,1,.15.34,1.08,1.08,0,0,1-.14.46,2.06,2.06,0,0,1-.39.53,3,3,0,0,1-1.59.81,3.19,3.19,0,0,1-.54,0,2.47,2.47,0,0,1,.72.72,1.63,1.63,0,0,1,.29.93,1.19,1.19,0,0,1-.47,1,1.86,1.86,0,0,1-1.12.34Zm4.16-4.92A1.75,1.75,0,0,1,235.2,22a9,9,0,0,1,3.57-.57h.16v-.29a1.75,1.75,0,0,0-.49-1.34,1.88,1.88,0,0,0-1.37-.47,2.38,2.38,0,0,0-1.29.33,2.15,2.15,0,0,0-.8.89.35.35,0,0,1-.19,0,.55.55,0,0,1-.3-.16.41.41,0,0,1-.14-.35.73.73,0,0,1,.11-.36,1.4,1.4,0,0,1,.31-.4,2.85,2.85,0,0,1,1-.59,4,4,0,0,1,1.39-.22,2.84,2.84,0,0,1,2.08.71,2.67,2.67,0,0,1,.73,2v4.23s0,0-.12.07a.69.69,0,0,1-.25,0q-.52,0-.6-.66,0-.39,0-.63a2.54,2.54,0,0,1-1,1,3.08,3.08,0,0,1-1.52.37,2.56,2.56,0,0,1-1.7-.52,1.69,1.69,0,0,1-.62-1.39Zm4.85-1.58-.25,0a8,8,0,0,0-2.73.4,1.19,1.19,0,0,0-.84,1.13,1,1,0,0,0,.4.85,1.72,1.72,0,0,0,1.09.31,2.59,2.59,0,0,0,1.18-.27,2.23,2.23,0,0,0,.84-.74,1.87,1.87,0,0,0,.31-1Zm-3.42-4.77a.58.58,0,0,1-.33-.13,1,1,0,0,1,0-.36,1.62,1.62,0,0,1,.35-.9,1,1,0,0,1,.75-.35,1.07,1.07,0,0,1,.53.13,5,5,0,0,1,.51.36,4.18,4.18,0,0,0,.77.6.5.5,0,0,0,.22-.19c0-.09.11-.21.17-.35a1.32,1.32,0,0,1,.18-.36.25.25,0,0,1,.22-.1.43.43,0,0,1,.32.11,1.48,1.48,0,0,1,.05.39,1.55,1.55,0,0,1-.35.87,1,1,0,0,1-.75.35,1.18,1.18,0,0,1-.53-.12,3.78,3.78,0,0,1-.51-.36l-.34-.3a2.38,2.38,0,0,0-.42-.3.54.54,0,0,0-.19.18,3.56,3.56,0,0,0-.18.35,2.11,2.11,0,0,1-.2.36.27.27,0,0,1-.23.12ZM241.29,22a3.75,3.75,0,0,1,.45-1.85A3.26,3.26,0,0,1,243,18.92a3.6,3.6,0,0,1,1.81-.45,3.49,3.49,0,0,1,1.78.45,3.25,3.25,0,0,1,1.23,1.29,3.82,3.82,0,0,1,.45,1.86,3.73,3.73,0,0,1-.45,1.83,3.24,3.24,0,0,1-1.23,1.26,3.75,3.75,0,0,1-3.6,0,3.13,3.13,0,0,1-1.23-1.27,3.89,3.89,0,0,1-.44-1.85Zm5.94,0a3,3,0,0,0-.31-1.4,2.46,2.46,0,0,0-.88-1,2.34,2.34,0,0,0-1.26-.35,2.39,2.39,0,0,0-1.27.34,2.32,2.32,0,0,0-.89,1,3.18,3.18,0,0,0,0,2.78,2.45,2.45,0,0,0,.89,1,2.4,2.4,0,0,0,1.27.35A2.34,2.34,0,0,0,246,24.4a2.38,2.38,0,0,0,.88-.95,3,3,0,0,0,.31-1.38Zm7.59,3.55a3,3,0,0,1-1.62-.45,3.15,3.15,0,0,1-1.13-1.26,4.45,4.45,0,0,1,0-3.73,3.1,3.1,0,0,1,1.14-1.26,3,3,0,0,1,1.64-.45,3,3,0,0,1,1.51.37,2.48,2.48,0,0,1,1,.94v-4s0-.06.1-.08a.71.71,0,0,1,.26,0c.45,0,.67.31.67.92V25c0,.33-.15.49-.46.49h-.1c-.3,0-.44-.15-.44-.46s0-.49,0-.89a2.92,2.92,0,0,1-1,1.08,2.88,2.88,0,0,1-1.5.38Zm2.5-4.64a2.55,2.55,0,0,0-.87-1.21,2.31,2.31,0,0,0-1.43-.43,2.11,2.11,0,0,0-1.68.75A2.85,2.85,0,0,0,252.7,22a3.3,3.3,0,0,0,.29,1.4,2.29,2.29,0,0,0,.83,1,2.13,2.13,0,0,0,1.19.35,2.31,2.31,0,0,0,1.16-.3,2.18,2.18,0,0,0,1.15-1.94Zm2.44,2.72A1.75,1.75,0,0,1,260.88,22a9,9,0,0,1,3.57-.57h.16v-.29a1.79,1.79,0,0,0-.49-1.34,1.88,1.88,0,0,0-1.37-.47,2.38,2.38,0,0,0-1.29.33,2.15,2.15,0,0,0-.8.89.35.35,0,0,1-.19,0,.62.62,0,0,1-.31-.16A.43.43,0,0,1,260,20a.73.73,0,0,1,.11-.36,1.55,1.55,0,0,1,.3-.4,3,3,0,0,1,1-.59,4,4,0,0,1,1.39-.22,2.84,2.84,0,0,1,2.08.71,2.67,2.67,0,0,1,.73,2v4.23s0,0-.12.07a.69.69,0,0,1-.25,0q-.53,0-.6-.66,0-.39,0-.63a2.54,2.54,0,0,1-1,1,3.08,3.08,0,0,1-1.52.37,2.56,2.56,0,0,1-1.7-.52,1.69,1.69,0,0,1-.62-1.39Zm4.85-1.58-.25,0a8,8,0,0,0-2.73.4,1.19,1.19,0,0,0-.84,1.13,1,1,0,0,0,.4.85,1.72,1.72,0,0,0,1.09.31,2.59,2.59,0,0,0,1.18-.27,2.23,2.23,0,0,0,.84-.74,1.87,1.87,0,0,0,.31-1Zm10.71-3.55c.31,0,.46.16.46.48v6.36s0,0-.12.07a.73.73,0,0,1-.25,0c-.36,0-.56-.22-.6-.67,0-.25,0-.44,0-.56a3,3,0,0,1-1,1,2.64,2.64,0,0,1-1.39.36,2.37,2.37,0,0,1-1.95-.81,3.27,3.27,0,0,1-.67-2.17V19.05c0-.32.15-.48.46-.48h.11c.31,0,.46.16.46.48v3.52a2.41,2.41,0,0,0,.47,1.57,1.66,1.66,0,0,0,1.34.57,2.21,2.21,0,0,0,1.27-.38,2.34,2.34,0,0,0,.84-1V19.05c0-.32.15-.48.44-.48Zm5.65-.1a2.37,2.37,0,0,1,2,.8,3.25,3.25,0,0,1,.67,2.16V25c0,.33-.15.49-.45.49H283c-.31,0-.46-.16-.46-.49v-3.5A2.41,2.41,0,0,0,282.1,20a1.61,1.61,0,0,0-1.33-.57,2.24,2.24,0,0,0-1.28.38,2.35,2.35,0,0,0-.84,1V25c0,.33-.15.49-.44.49h-.13c-.31,0-.46-.16-.46-.49V18.68s0,0,.12-.07a.69.69,0,0,1,.25,0c.4,0,.61.28.63.86v.4a2.71,2.71,0,0,1,1-1,2.67,2.67,0,0,1,1.39-.36Zm4.35-2a.66.66,0,1,1,1.32,0,.62.62,0,0,1-.18.48.69.69,0,0,1-.49.17.69.69,0,0,1-.48-.17.65.65,0,0,1-.17-.48Zm.13,2.6c0-.34.15-.5.46-.5H286c.31,0,.46.16.46.5V25c0,.33-.15.49-.46.49h-.11c-.31,0-.46-.16-.46-.49Zm5.67,6.55a3,3,0,0,1-1.62-.45,3.07,3.07,0,0,1-1.13-1.26,4.45,4.45,0,0,1,0-3.73,3,3,0,0,1,2.78-1.71,2.93,2.93,0,0,1,1.5.37,2.48,2.48,0,0,1,1,.94v-4s0-.06.11-.08a.66.66,0,0,1,.25,0c.45,0,.68.31.68.92V25c0,.33-.16.49-.46.49h-.1a.4.4,0,0,1-.45-.46c0-.19,0-.49,0-.89a3,3,0,0,1-1,1.08,2.88,2.88,0,0,1-1.5.38ZM293.61,21a2.6,2.6,0,0,0-.86-1.21,2.33,2.33,0,0,0-1.43-.43,2.11,2.11,0,0,0-1.68.75A2.85,2.85,0,0,0,289,22a3.16,3.16,0,0,0,.3,1.4,2.27,2.27,0,0,0,.82,1,2.15,2.15,0,0,0,1.19.35,2.37,2.37,0,0,0,1.17-.3,2.19,2.19,0,0,0,1.14-1.94Zm2.44,2.72A1.76,1.76,0,0,1,297.18,22a9,9,0,0,1,3.56-.57h.16v-.29a1.79,1.79,0,0,0-.48-1.34,1.9,1.9,0,0,0-1.37-.47,2.39,2.39,0,0,0-1.3.33,2.12,2.12,0,0,0-.79.89.39.39,0,0,1-.2,0,.55.55,0,0,1-.3-.16.44.44,0,0,1-.14-.35.85.85,0,0,1,.11-.36,1.6,1.6,0,0,1,.31-.4,2.9,2.9,0,0,1,1-.59,3.94,3.94,0,0,1,1.39-.22,2.84,2.84,0,0,1,2.08.71,2.67,2.67,0,0,1,.73,2v4.23s0,0-.12.07a.73.73,0,0,1-.25,0c-.36,0-.56-.22-.61-.66,0-.26,0-.47,0-.63a2.54,2.54,0,0,1-1,1,3.08,3.08,0,0,1-1.52.37,2.54,2.54,0,0,1-1.7-.52,1.7,1.7,0,0,1-.63-1.39Zm4.85-1.58-.24,0a8,8,0,0,0-2.74.4,1.18,1.18,0,0,0-.83,1.13,1,1,0,0,0,.4.85,1.7,1.7,0,0,0,1.09.31,2.52,2.52,0,0,0,1.17-.27,2.09,2.09,0,0,0,.84-.74,1.79,1.79,0,0,0,.31-1Zm5.52,3.5a3,3,0,0,1-1.62-.45,3.12,3.12,0,0,1-1.12-1.26,4.45,4.45,0,0,1,0-3.73,3.07,3.07,0,0,1,1.13-1.26,3,3,0,0,1,1.64-.45,2.94,2.94,0,0,1,1.51.37,2.48,2.48,0,0,1,1,.94v-4s0-.06.11-.08a.62.62,0,0,1,.25,0c.45,0,.67.31.67.92V25c0,.33-.15.49-.46.49h-.1c-.29,0-.44-.15-.44-.46s0-.49,0-.89a3,3,0,0,1-1,1.08,2.83,2.83,0,0,1-1.5.38Zm2.5-4.64a2.55,2.55,0,0,0-.87-1.21,2.28,2.28,0,0,0-1.42-.43,2.11,2.11,0,0,0-1.68.75A2.85,2.85,0,0,0,304.3,22a3.16,3.16,0,0,0,.3,1.4,2.27,2.27,0,0,0,.82,1,2.13,2.13,0,0,0,1.19.35,2.31,2.31,0,0,0,1.16-.3,2.09,2.09,0,0,0,.84-.8,2.12,2.12,0,0,0,.31-1.14Zm2.44,1.1a3.93,3.93,0,0,1,.44-1.86,3.25,3.25,0,0,1,1.2-1.29,3.29,3.29,0,0,1,1.75-.46,3.16,3.16,0,0,1,1.65.42,2.85,2.85,0,0,1,1.1,1.18,3.85,3.85,0,0,1,.39,1.77v.1a.37.37,0,0,1-.08.26.47.47,0,0,1-.28.07h-5.18a1.15,1.15,0,0,0,0,.2,2.49,2.49,0,0,0,.79,1.66,2.41,2.41,0,0,0,1.71.63,2.52,2.52,0,0,0,1.4-.34,2.43,2.43,0,0,0,.82-.92.37.37,0,0,1,.2,0,.59.59,0,0,1,.27.18.45.45,0,0,1,.12.33.84.84,0,0,1-.13.4,1.85,1.85,0,0,1-.41.44,3,3,0,0,1-.95.53,4.22,4.22,0,0,1-1.33.2,3.65,3.65,0,0,1-1.83-.44,3.15,3.15,0,0,1-1.22-1.26,3.82,3.82,0,0,1-.44-1.84Zm5.51-.56a2.41,2.41,0,0,0-.62-1.61,2,2,0,0,0-1.5-.61,2.19,2.19,0,0,0-1.58.61,2.68,2.68,0,0,0-.79,1.61Z"/><line class="cls-1" x1="324.54" y1="30.7" x2="324.54" y2="13.26"/><path d="M362.77,16.63c0-.33.16-.49.46-.49h.16c.31,0,.47.16.47.49v5.16c0,1.91.84,2.86,2.51,2.86a2.37,2.37,0,0,0,1.88-.71,3.24,3.24,0,0,0,.62-2.16V16.63c0-.33.15-.49.46-.49h.19a.42.42,0,0,1,.33.12.58.58,0,0,1,.1.37v5.15a4,4,0,0,1-.92,2.86,4.17,4.17,0,0,1-5.35,0,4.06,4.06,0,0,1-.91-2.85Zm12.37,1.84a2.4,2.4,0,0,1,2,.8,3.3,3.3,0,0,1,.66,2.16V25c0,.33-.14.49-.44.49h-.13c-.31,0-.46-.16-.46-.49v-3.5a2.41,2.41,0,0,0-.46-1.57,1.64,1.64,0,0,0-1.33-.57,2.25,2.25,0,0,0-1.29.38,2.49,2.49,0,0,0-.84,1V25c0,.33-.14.49-.44.49h-.13c-.31,0-.46-.16-.46-.49V18.68s0,0,.12-.07a.77.77,0,0,1,.25,0c.41,0,.62.28.64.86v.4a2.71,2.71,0,0,1,1-1,2.64,2.64,0,0,1,1.39-.36Zm4.35-2a.65.65,0,0,1,.17-.49.68.68,0,0,1,.49-.17.61.61,0,0,1,.66.66.62.62,0,0,1-.18.48.72.72,0,0,1-.5.17.64.64,0,0,1-.47-.17.61.61,0,0,1-.17-.48Zm.12,2.6c0-.34.16-.5.46-.5h.12c.3,0,.46.16.46.5V25c0,.33-.16.49-.46.49h-.12c-.3,0-.46-.16-.46-.49Zm5.67,6.55a3,3,0,0,1-1.62-.45,3.15,3.15,0,0,1-1.13-1.26,4.55,4.55,0,0,1,0-3.73,3.1,3.1,0,0,1,1.14-1.26,3,3,0,0,1,1.64-.45,3,3,0,0,1,1.51.37,2.48,2.48,0,0,1,1,.94v-4s0-.06.11-.08a.62.62,0,0,1,.25,0c.45,0,.67.31.67.92V25c0,.33-.15.49-.46.49h-.1c-.3,0-.44-.15-.44-.46s0-.49,0-.89a2.92,2.92,0,0,1-1,1.08,2.86,2.86,0,0,1-1.5.38Zm2.5-4.64a2.55,2.55,0,0,0-.87-1.21,2.31,2.31,0,0,0-1.43-.43,2.11,2.11,0,0,0-1.68.75,2.85,2.85,0,0,0-.64,1.95,3.3,3.3,0,0,0,.29,1.4,2.29,2.29,0,0,0,.83,1,2.13,2.13,0,0,0,1.19.35,2.31,2.31,0,0,0,1.16-.3,2.22,2.22,0,0,0,.84-.8,2.12,2.12,0,0,0,.31-1.14Zm2.44,2.72A1.75,1.75,0,0,1,391.34,22a9,9,0,0,1,3.57-.57h.16v-.29a1.79,1.79,0,0,0-.48-1.34,1.91,1.91,0,0,0-1.37-.47,2.39,2.39,0,0,0-1.3.33,2.15,2.15,0,0,0-.8.89.35.35,0,0,1-.19,0,.55.55,0,0,1-.3-.16.41.41,0,0,1-.14-.35.85.85,0,0,1,.11-.36,1.4,1.4,0,0,1,.31-.4,2.85,2.85,0,0,1,1-.59,4,4,0,0,1,1.39-.22,2.84,2.84,0,0,1,2.08.71,2.67,2.67,0,0,1,.73,2v4.23s0,0-.12.07a.69.69,0,0,1-.25,0q-.52,0-.6-.66,0-.39,0-.63a2.54,2.54,0,0,1-1,1,3.06,3.06,0,0,1-1.52.37,2.56,2.56,0,0,1-1.7-.52,1.69,1.69,0,0,1-.62-1.39Zm4.85-1.58-.25,0a8,8,0,0,0-2.73.4,1.19,1.19,0,0,0-.84,1.13,1,1,0,0,0,.4.85,1.72,1.72,0,0,0,1.09.31,2.59,2.59,0,0,0,1.18-.27,2.23,2.23,0,0,0,.84-.74,1.87,1.87,0,0,0,.31-1Zm5.52,3.5a3,3,0,0,1-1.62-.45,3.07,3.07,0,0,1-1.13-1.26,4.45,4.45,0,0,1,0-3.73,3,3,0,0,1,2.78-1.71,2.93,2.93,0,0,1,1.5.37,2.58,2.58,0,0,1,1,.94v-4s0-.06.1-.08a.66.66,0,0,1,.25,0c.45,0,.68.31.68.92V25c0,.33-.15.49-.46.49h-.1a.4.4,0,0,1-.45-.46c0-.19,0-.49,0-.89a3,3,0,0,1-1,1.08,2.88,2.88,0,0,1-1.5.38Zm2.5-4.64a2.69,2.69,0,0,0-.87-1.21,2.33,2.33,0,0,0-1.43-.43,2.11,2.11,0,0,0-1.68.75,2.85,2.85,0,0,0-.64,1.95,3.16,3.16,0,0,0,.29,1.4,2.34,2.34,0,0,0,.82,1,2.19,2.19,0,0,0,1.2.35,2.33,2.33,0,0,0,1.16-.3,2.18,2.18,0,0,0,1.15-1.94Zm2.43,1.1a3.93,3.93,0,0,1,.44-1.86,3.23,3.23,0,0,1,3-1.75,3.23,3.23,0,0,1,1.66.42,2.83,2.83,0,0,1,1.09,1.18,3.85,3.85,0,0,1,.39,1.77v.1a.33.33,0,0,1-.08.26.45.45,0,0,1-.28.07h-5.18a1,1,0,0,0,0,.2,2.53,2.53,0,0,0,.78,1.66,2.42,2.42,0,0,0,1.71.63,2.5,2.5,0,0,0,1.4-.34,2.46,2.46,0,0,0,.83-.92.34.34,0,0,1,.19,0,.59.59,0,0,1,.27.18.42.42,0,0,1,.13.33.87.87,0,0,1-.14.4,1.67,1.67,0,0,1-.41.44,2.85,2.85,0,0,1-1,.53,4.18,4.18,0,0,1-1.33.2,3.58,3.58,0,0,1-1.82-.44A3.11,3.11,0,0,1,406,23.92a3.82,3.82,0,0,1-.44-1.84Zm5.51-.56a2.41,2.41,0,0,0-.61-1.61,2,2,0,0,0-1.51-.61,2.2,2.2,0,0,0-1.58.61,2.74,2.74,0,0,0-.79,1.61Z"/><line class="cls-1" x1="449.84" y1="30.7" x2="449.84" y2="13.26"/><line class="cls-1" x1="9.39" y1="30.9" x2="450.04" y2="30.9"/><line class="cls-1" x1="9.39" y1="30.9" x2="450.04" y2="30.9"/><line class="cls-1" x1="9.59" y1="70.78" x2="9.59" y2="31.1"/><path class="cls-2" d="M86.39,56.93a17,17,0,0,0-17-17v17Z"/><path class="cls-1" d="M86.39,56.93a17,17,0,0,0-17-17v17Z"/><line class="cls-1" x1="146.18" y1="70.78" x2="146.18" y2="31.1"/><path d="M221.67,47.52a2.33,2.33,0,0,1,1.89.76,3.17,3.17,0,0,1,.65,2.13v3.67c0,.32-.16.49-.46.49h-.12c-.3,0-.46-.17-.46-.49V50.49a2.35,2.35,0,0,0-.43-1.52,1.6,1.6,0,0,0-1.29-.53,1.92,1.92,0,0,0-1.14.37,2.12,2.12,0,0,0-.77,1v4.28c0,.32-.15.49-.46.49H219c-.31,0-.46-.17-.46-.49V50.41a2.19,2.19,0,0,0-.44-1.46,1.59,1.59,0,0,0-1.28-.51,1.91,1.91,0,0,0-1.13.37,2.23,2.23,0,0,0-.79,1v4.28c0,.32-.15.49-.45.49h-.13c-.3,0-.46-.17-.46-.49V47.74s0,0,.13-.07a.7.7,0,0,1,.25-.05c.4,0,.61.29.63.85v.34a2.82,2.82,0,0,1,.91-.94,2.39,2.39,0,0,1,1.26-.35,2.53,2.53,0,0,1,1.43.4,2.38,2.38,0,0,1,.84,1.12,2.64,2.64,0,0,1,.94-1.1,2.49,2.49,0,0,1,1.44-.42Zm3.88,3.62a3.93,3.93,0,0,1,.44-1.86,3.27,3.27,0,0,1,2.95-1.76,3.14,3.14,0,0,1,1.66.43,2.77,2.77,0,0,1,1.09,1.18,3.83,3.83,0,0,1,.39,1.76V51c0,.13,0,.22-.08.26a.39.39,0,0,1-.28.07h-5.18a1.06,1.06,0,0,0,0,.21,2.55,2.55,0,0,0,.78,1.66,2.42,2.42,0,0,0,1.71.63,2.5,2.5,0,0,0,1.4-.34,2.46,2.46,0,0,0,.83-.92.4.4,0,0,1,.19,0,.8.8,0,0,1,.27.18.44.44,0,0,1,.13.33.87.87,0,0,1-.14.41,1.67,1.67,0,0,1-.41.44,2.67,2.67,0,0,1-.95.52,3.91,3.91,0,0,1-1.33.21,3.69,3.69,0,0,1-1.82-.44A3.11,3.11,0,0,1,226,53a3.82,3.82,0,0,1-.44-1.84Zm5.51-.56a2.46,2.46,0,0,0-.61-1.62,2,2,0,0,0-1.51-.6,2.2,2.2,0,0,0-1.58.61,2.71,2.71,0,0,0-.79,1.61Zm4.74,4.1a1.79,1.79,0,0,1-1.42-.53,2.39,2.39,0,0,1-.46-1.62v-4h-.68c-.29,0-.44-.13-.44-.39v-.1c0-.26.15-.39.44-.39h.68v-1.2c0-.34.15-.51.46-.51h.11q.45,0,.45.51v1.2h1.73q.45,0,.45.39v.08c0,.27-.16.41-.46.41h-1.74v3.81a1.84,1.84,0,0,0,.25,1.1.9.9,0,0,0,.77.34,1.17,1.17,0,0,0,1-.53s0,0,.1,0a.48.48,0,0,1,.13.17.54.54,0,0,1,.06.27.73.73,0,0,1-.26.53,1.68,1.68,0,0,1-1.19.4ZM238,52.76a1.78,1.78,0,0,1,1.13-1.69,9.23,9.23,0,0,1,3.57-.56h.15v-.29a1.79,1.79,0,0,0-.48-1.34,1.88,1.88,0,0,0-1.37-.47,2.41,2.41,0,0,0-1.3.33,2.12,2.12,0,0,0-.79.89.57.57,0,0,1-.2,0,.63.63,0,0,1-.3-.16.45.45,0,0,1-.13-.35.79.79,0,0,1,.1-.36,1.88,1.88,0,0,1,.31-.4,3,3,0,0,1,1-.59,3.93,3.93,0,0,1,1.39-.23,2.84,2.84,0,0,1,2.08.72,2.65,2.65,0,0,1,.73,2v4.24s0,0-.12.07a.73.73,0,0,1-.25,0q-.54,0-.6-.66,0-.41,0-.63a2.46,2.46,0,0,1-1,1,3.09,3.09,0,0,1-1.52.38,2.54,2.54,0,0,1-1.7-.52,1.7,1.7,0,0,1-.63-1.39Zm4.85-1.58-.24,0a7.76,7.76,0,0,0-2.73.4,1.18,1.18,0,0,0-.84,1.13,1,1,0,0,0,.4.85,1.72,1.72,0,0,0,1.09.31,2.59,2.59,0,0,0,1.18-.27,2.13,2.13,0,0,0,.83-.74,1.82,1.82,0,0,0,.31-1Zm5.53,3.5a3,3,0,0,1-1.62-.45A3.07,3.07,0,0,1,245.59,53a4.15,4.15,0,0,1-.41-1.87,4.11,4.11,0,0,1,.41-1.86A3.07,3.07,0,0,1,246.72,48a3,3,0,0,1,1.64-.46,2.94,2.94,0,0,1,1.51.38,2.41,2.41,0,0,1,1,.94v-4s0-.05.11-.07a.66.66,0,0,1,.25,0c.45,0,.68.31.68.92v8.42c0,.32-.16.49-.46.49h-.1a.4.4,0,0,1-.45-.46c0-.19,0-.49,0-.89a2.9,2.9,0,0,1-1,1.07,2.79,2.79,0,0,1-1.5.39ZM250.83,50a2.57,2.57,0,0,0-.87-1.2,2.28,2.28,0,0,0-1.42-.43,2.13,2.13,0,0,0-1.68.74,2.9,2.9,0,0,0-.65,2,3.16,3.16,0,0,0,.3,1.4,2.27,2.27,0,0,0,.82,1,2.15,2.15,0,0,0,1.19.35,2.31,2.31,0,0,0,1.16-.3,2.09,2.09,0,0,0,.84-.8,2.12,2.12,0,0,0,.31-1.14Zm2.44,1.11a3.93,3.93,0,0,1,.44-1.86,3.25,3.25,0,0,1,1.2-1.29,3.35,3.35,0,0,1,1.75-.47,3.08,3.08,0,0,1,1.65.43,2.79,2.79,0,0,1,1.1,1.18,3.83,3.83,0,0,1,.39,1.76V51a.33.33,0,0,1-.08.26.41.41,0,0,1-.28.07h-5.18a1.06,1.06,0,0,0,0,.21,2.46,2.46,0,0,0,.78,1.66,2.41,2.41,0,0,0,1.71.63A2.27,2.27,0,0,0,259,52.56a.41.41,0,0,1,.19,0,.8.8,0,0,1,.27.18.48.48,0,0,1,.12.33.84.84,0,0,1-.13.41A1.67,1.67,0,0,1,259,54a2.76,2.76,0,0,1-1,.52,4,4,0,0,1-1.33.21,3.69,3.69,0,0,1-1.82-.44A3.11,3.11,0,0,1,253.71,53a3.82,3.82,0,0,1-.44-1.84Zm5.51-.56a2.41,2.41,0,0,0-.62-1.62,2,2,0,0,0-1.5-.6,2.2,2.2,0,0,0-1.58.61,2.71,2.71,0,0,0-.79,1.61Z"/><line class="cls-1" x1="324.54" y1="70.78" x2="324.54" y2="31.1"/><line class="cls-1" x1="449.84" y1="70.78" x2="449.84" y2="31.1"/><line class="cls-1" x1="9.39" y1="70.98" x2="450.04" y2="70.98"/><line class="cls-1" x1="9.39" y1="70.98" x2="450.04" y2="70.98"/><line class="cls-1" x1="9.59" y1="110.86" x2="9.59" y2="71.18"/><path class="cls-2" d="M86.39,97a17,17,0,0,0-17-17V97Z"/><path class="cls-1" d="M86.39,97a17,17,0,0,0-17-17V97Z"/><line class="cls-1" x1="146.18" y1="110.86" x2="146.18" y2="71.18"/><path d="M215.71,87.71c.31,0,.46.16.46.48v6.36s0,0-.12.07a.69.69,0,0,1-.25,0c-.35,0-.56-.22-.6-.67,0-.25,0-.43,0-.56a2.9,2.9,0,0,1-1,1,2.63,2.63,0,0,1-1.38.36,2.38,2.38,0,0,1-2-.81,3.27,3.27,0,0,1-.67-2.17V88.19c0-.32.15-.48.46-.48h.11c.31,0,.46.16.46.48v3.52a2.36,2.36,0,0,0,.48,1.57,1.63,1.63,0,0,0,1.33.57,2.21,2.21,0,0,0,1.27-.38,2.26,2.26,0,0,0,.84-1V88.19c0-.32.15-.48.44-.48Zm10.13-.1a2.38,2.38,0,0,1,1.9.75,3.17,3.17,0,0,1,.64,2.13v3.67c0,.33-.15.49-.46.49h-.11c-.31,0-.46-.16-.46-.49V90.58a2.33,2.33,0,0,0-.44-1.52,1.55,1.55,0,0,0-1.28-.54,2,2,0,0,0-1.14.37,2.09,2.09,0,0,0-.77,1v4.27c0,.33-.15.49-.46.49h-.12c-.3,0-.45-.16-.45-.49V90.49a2.19,2.19,0,0,0-.44-1.46,1.6,1.6,0,0,0-1.29-.51,2,2,0,0,0-1.12.37,2.27,2.27,0,0,0-.8,1v4.27c0,.33-.15.49-.44.49h-.13c-.31,0-.46-.16-.46-.49V87.82s0,0,.12-.07a.73.73,0,0,1,.25,0q.6,0,.63.84l0,.35a2.65,2.65,0,0,1,.91-.94,2.27,2.27,0,0,1,1.25-.35,2.43,2.43,0,0,1,1.43.4,2.22,2.22,0,0,1,.84,1.12,2.77,2.77,0,0,1,.95-1.11,2.47,2.47,0,0,1,1.43-.41Zm9.08,7.15a1.76,1.76,0,0,1-1.41-.53,2.39,2.39,0,0,1-.47-1.62v-4h-.67q-.45,0-.45-.39v-.1q0-.39.45-.39H233v-1.2c0-.34.16-.5.46-.5h.12c.29,0,.44.16.44.5v1.2h1.74c.29,0,.44.13.44.39v.09c0,.27-.15.4-.46.4h-1.73v3.82a1.91,1.91,0,0,0,.24,1.09.88.88,0,0,0,.78.34,1.14,1.14,0,0,0,1-.53s.06,0,.11,0a.46.46,0,0,1,.12.17.6.6,0,0,1,.06.27.69.69,0,0,1-.26.53,1.65,1.65,0,0,1-1.19.4Zm2.17-3.54a3.81,3.81,0,0,1,.44-1.86,3.2,3.2,0,0,1,2.94-1.75,3.17,3.17,0,0,1,1.66.42,2.85,2.85,0,0,1,1.1,1.18,3.85,3.85,0,0,1,.39,1.77v.1a.37.37,0,0,1-.08.26.47.47,0,0,1-.28.07h-5.18a1.15,1.15,0,0,0,0,.2,2.49,2.49,0,0,0,.79,1.66,2.41,2.41,0,0,0,1.71.63,2.52,2.52,0,0,0,1.4-.34,2.43,2.43,0,0,0,.82-.92.37.37,0,0,1,.2,0,.59.59,0,0,1,.27.18.45.45,0,0,1,.12.33.81.81,0,0,1-.13.4,1.85,1.85,0,0,1-.41.44,3,3,0,0,1-1,.53,4,4,0,0,1-1.33.2,3.65,3.65,0,0,1-1.83-.44,3.09,3.09,0,0,1-1.22-1.26,3.71,3.71,0,0,1-.44-1.84Zm5.51-.56a2.41,2.41,0,0,0-.62-1.61,2,2,0,0,0-1.51-.61,2.15,2.15,0,0,0-1.57.62,2.63,2.63,0,0,0-.79,1.6Zm5.19-3a1.27,1.27,0,0,1,.74.2.64.64,0,0,1,.28.54.76.76,0,0,1-.06.32.62.62,0,0,1-.16.19c-.05,0-.09.06-.1,0a1.1,1.1,0,0,0-.81-.29,1.32,1.32,0,0,0-1.23.75,4.41,4.41,0,0,0-.41,2.08v2.71c0,.33-.15.49-.44.49h-.12c-.31,0-.47-.16-.47-.49V87.82s0,0,.11-.07a.75.75,0,0,1,.26,0q.54,0,.6.69c0,.32,0,.57,0,.74a2.26,2.26,0,0,1,.66-1.15,1.73,1.73,0,0,1,1.12-.38Zm4.45,10.15a1.67,1.67,0,0,1-.73-.15,1.27,1.27,0,0,1-.49-.37.68.68,0,0,1-.17-.44.38.38,0,0,1,.36-.44,1.16,1.16,0,0,0,.93.56,1,1,0,0,0,.61-.19.69.69,0,0,0,.23-.59,1.27,1.27,0,0,0-.41-.86,2.49,2.49,0,0,0-.91-.64,3.12,3.12,0,0,1-1.8-1.23,3.77,3.77,0,0,1-.68-2.25,3.73,3.73,0,0,1,.45-1.83,3.17,3.17,0,0,1,1.23-1.26,3.45,3.45,0,0,1,1.78-.46,3.38,3.38,0,0,1,1.32.23,2.9,2.9,0,0,1,1,.6,2.08,2.08,0,0,1,.42.54,1.15,1.15,0,0,1,.14.49.4.4,0,0,1-.14.32A.71.71,0,0,1,255,90c-.11,0-.18,0-.2,0a2.11,2.11,0,0,0-2.17-1.46,2.38,2.38,0,0,0-1.26.34,2.42,2.42,0,0,0-.87,1,3,3,0,0,0-.32,1.37,3,3,0,0,0,.31,1.4,2.35,2.35,0,0,0,.87,1,2.38,2.38,0,0,0,1.27.35,2.21,2.21,0,0,0,1.39-.41,2.34,2.34,0,0,0,.78-1.06s.08,0,.19,0a.75.75,0,0,1,.33.17.46.46,0,0,1,.14.34,1,1,0,0,1-.14.46,1.9,1.9,0,0,1-.39.53,2.89,2.89,0,0,1-1.59.81,3.08,3.08,0,0,1-.53,0,2.56,2.56,0,0,1,.71.72,1.58,1.58,0,0,1,.29.93,1.19,1.19,0,0,1-.47,1,1.86,1.86,0,0,1-1.12.34Zm4.16-6.58a3.89,3.89,0,0,1,.44-1.85,3.2,3.2,0,0,1,1.24-1.26,3.48,3.48,0,0,1,1.81-.46,3.42,3.42,0,0,1,1.78.46,3.23,3.23,0,0,1,1.23,1.28,3.93,3.93,0,0,1,.44,1.86A3.81,3.81,0,0,1,262.9,93a3.29,3.29,0,0,1-1.24,1.27,3.53,3.53,0,0,1-1.79.45,3.59,3.59,0,0,1-1.8-.45A3.22,3.22,0,0,1,256.84,93a3.89,3.89,0,0,1-.44-1.85Zm5.94,0a3,3,0,0,0-.32-1.4,2.44,2.44,0,0,0-.87-1,2.46,2.46,0,0,0-2.53,0,2.36,2.36,0,0,0-.89,1,3.09,3.09,0,0,0,0,2.78,2.45,2.45,0,0,0,.89,1,2.38,2.38,0,0,0,1.27.35,2.48,2.48,0,0,0,1.26-.34,2.38,2.38,0,0,0,.87-1,3,3,0,0,0,.32-1.38Z"/><line class="cls-1" x1="324.54" y1="110.86" x2="324.54" y2="71.18"/><line class="cls-1" x1="449.84" y1="110.86" x2="449.84" y2="71.18"/><line class="cls-1" x1="9.39" y1="111.06" x2="450.04" y2="111.06"/><line class="cls-1" x1="9.39" y1="111.06" x2="450.04" y2="111.06"/><line class="cls-1" x1="9.59" y1="150.95" x2="9.59" y2="111.26"/><path class="cls-2" d="M86.39,137.09a17,17,0,0,0-17-17v17Z"/><path class="cls-1" d="M86.39,137.09a17,17,0,0,0-17-17v17Z"/><line class="cls-1" x1="146.18" y1="150.95" x2="146.18" y2="111.26"/><path d="M211.48,127.79c.31,0,.46.16.46.49v6.35s0,.05-.12.07a.74.74,0,0,1-.25.05c-.36,0-.56-.23-.61-.68,0-.25,0-.43,0-.56a2.9,2.9,0,0,1-1,1,2.56,2.56,0,0,1-1.39.37,2.37,2.37,0,0,1-2-.81,3.3,3.3,0,0,1-.67-2.18v-3.58c0-.33.15-.49.46-.49h.11c.31,0,.46.16.46.49v3.51a2.39,2.39,0,0,0,.47,1.57,1.65,1.65,0,0,0,1.34.57,2.2,2.2,0,0,0,1.27-.37,2.34,2.34,0,0,0,.84-1v-4.26c0-.33.15-.49.44-.49Zm10.13-.1a2.36,2.36,0,0,1,1.89.75,3.17,3.17,0,0,1,.65,2.13v3.68c0,.32-.15.48-.46.48h-.11c-.31,0-.46-.16-.46-.48v-3.59a2.33,2.33,0,0,0-.44-1.52,1.55,1.55,0,0,0-1.29-.53,2,2,0,0,0-1.14.36,2.12,2.12,0,0,0-.76,1v4.28a.42.42,0,0,1-.46.48h-.12a.42.42,0,0,1-.46-.48v-3.68a2.16,2.16,0,0,0-.43-1.45,1.62,1.62,0,0,0-1.29-.51,1.91,1.91,0,0,0-1.12.36,2.33,2.33,0,0,0-.8,1v4.28q0,.48-.45.48h-.12c-.31,0-.46-.16-.46-.48V127.9s0,0,.12-.07a.69.69,0,0,1,.25,0c.4,0,.61.28.63.85l0,.34a2.64,2.64,0,0,1,.91-.94,2.33,2.33,0,0,1,1.25-.35,2.43,2.43,0,0,1,1.43.4,2.22,2.22,0,0,1,.84,1.12,2.61,2.61,0,0,1,1-1.1,2.46,2.46,0,0,1,1.43-.42Zm12.64.1a.73.73,0,0,1,.25,0c.08,0,.12.06.12.07V137c0,.33-.16.49-.47.49h-.1c-.31,0-.46-.16-.46-.49v-3.56a2.83,2.83,0,0,1-1,1.05,2.76,2.76,0,0,1-1.49.39,3,3,0,0,1-1.62-.45,3.14,3.14,0,0,1-1.12-1.27,4.45,4.45,0,0,1,0-3.73,3,3,0,0,1,2.79-1.71,2.9,2.9,0,0,1,1.51.39,2.32,2.32,0,0,1,.95,1v-.43c0-.57.26-.85.65-.85Zm-.66,2.42a2.6,2.6,0,0,0-.87-1.21,2.32,2.32,0,0,0-1.43-.44,2.12,2.12,0,0,0-1.68.75,2.88,2.88,0,0,0-.64,1.95,3.32,3.32,0,0,0,.29,1.41,2.29,2.29,0,0,0,.83,1,2.12,2.12,0,0,0,1.19.34,2.4,2.4,0,0,0,1.16-.29,2.33,2.33,0,0,0,.84-.81,2.18,2.18,0,0,0,.31-1.15Zm8.33-2.42c.31,0,.46.16.46.49v6.35s0,.05-.12.07a.7.7,0,0,1-.25.05c-.35,0-.55-.23-.6-.68,0-.25,0-.43,0-.56a2.81,2.81,0,0,1-1,1,2.55,2.55,0,0,1-1.38.37,2.39,2.39,0,0,1-2-.81,3.3,3.3,0,0,1-.67-2.18v-3.58c0-.33.15-.49.46-.49H237c.31,0,.46.16.46.49v3.51a2.34,2.34,0,0,0,.48,1.57,1.63,1.63,0,0,0,1.33.57,2.2,2.2,0,0,0,1.27-.37,2.34,2.34,0,0,0,.84-1v-4.26c0-.33.15-.49.44-.49Zm1.61,5.14a1.78,1.78,0,0,1,1.13-1.69,9,9,0,0,1,3.56-.57h.16v-.28a1.81,1.81,0,0,0-.48-1.35,1.89,1.89,0,0,0-1.37-.46,2.39,2.39,0,0,0-1.3.33,2.22,2.22,0,0,0-.8.89.53.53,0,0,1-.19,0,.73.73,0,0,1-.3-.16.45.45,0,0,1-.14-.35.85.85,0,0,1,.11-.37,1.4,1.4,0,0,1,.31-.39,2.8,2.8,0,0,1,1-.59,4,4,0,0,1,1.4-.23,2.84,2.84,0,0,1,2.08.72,2.67,2.67,0,0,1,.73,2v4.23s0,.05-.12.07a.79.79,0,0,1-.25.05c-.36,0-.56-.22-.61-.66q0-.41,0-.63a2.56,2.56,0,0,1-1,1,3.09,3.09,0,0,1-1.53.37,2.63,2.63,0,0,1-1.7-.51,1.74,1.74,0,0,1-.62-1.39Zm4.85-1.58h-.24a8,8,0,0,0-2.74.4,1.2,1.2,0,0,0-.84,1.14,1,1,0,0,0,.41.84,1.7,1.7,0,0,0,1.09.32,2.52,2.52,0,0,0,1.17-.27,2.17,2.17,0,0,0,.84-.74,1.82,1.82,0,0,0,.31-1Zm5.58-3.66a1.2,1.2,0,0,1,.74.21.64.64,0,0,1,.28.54.62.62,0,0,1-.07.31.42.42,0,0,1-.15.19c0,.05-.09.06-.1.05a1.09,1.09,0,0,0-.81-.28,1.32,1.32,0,0,0-1.23.74,4.41,4.41,0,0,0-.41,2.08v2.72c0,.32-.15.48-.44.48h-.12a.42.42,0,0,1-.47-.48V127.9s0,0,.11-.07a.71.71,0,0,1,.26,0q.52,0,.6.69c0,.32,0,.57,0,.74a2.23,2.23,0,0,1,.66-1.14,1.68,1.68,0,0,1,1.12-.39Zm4.49,7.16a1.79,1.79,0,0,1-1.41-.53,2.43,2.43,0,0,1-.47-1.62v-4h-.67q-.45,0-.45-.39v-.1c0-.25.15-.38.45-.38h.67v-1.21c0-.33.15-.5.46-.5h.12c.29,0,.44.17.44.5v1.21h1.74c.29,0,.44.13.44.38v.09c0,.27-.15.4-.46.4h-1.73v3.82a2,2,0,0,0,.24,1.1.89.89,0,0,0,.77.33,1.15,1.15,0,0,0,1-.53s.06,0,.1,0a.43.43,0,0,1,.13.16.61.61,0,0,1,.06.28.75.75,0,0,1-.26.53,1.71,1.71,0,0,1-1.19.4Zm2.17-3.59a3.82,3.82,0,0,1,.44-1.84,3.22,3.22,0,0,1,1.24-1.27,3.73,3.73,0,0,1,3.59,0,3.23,3.23,0,0,1,1.23,1.28,3.93,3.93,0,0,1,.44,1.86,3.81,3.81,0,0,1-.44,1.83,3.29,3.29,0,0,1-1.24,1.27,3.53,3.53,0,0,1-1.79.46,3.6,3.6,0,0,1-1.8-.46,3.25,3.25,0,0,1-1.24-1.28,3.86,3.86,0,0,1-.43-1.85Zm5.94,0a3.07,3.07,0,0,0-.32-1.4,2.41,2.41,0,0,0-.87-1,2.32,2.32,0,0,0-1.27-.36,2.4,2.4,0,0,0-1.27.35,2.5,2.5,0,0,0-.89,1,3.18,3.18,0,0,0,0,2.78,2.53,2.53,0,0,0,.89,1,2.31,2.31,0,0,0,1.27.35,2.31,2.31,0,0,0,2.14-1.3,2.93,2.93,0,0,0,.32-1.38Z"/><line class="cls-1" x1="324.54" y1="150.95" x2="324.54" y2="111.26"/><line class="cls-1" x1="449.84" y1="150.95" x2="449.84" y2="111.26"/><line class="cls-1" x1="9.39" y1="151.15" x2="450.04" y2="151.15"/><line class="cls-1" x1="9.39" y1="151.15" x2="450.04" y2="151.15"/><line class="cls-1" x1="9.59" y1="191.03" x2="9.59" y2="151.35"/><rect class="cls-2" x="69.38" y="160.17" width="17.01" height="17.01"/><rect class="cls-1" x="69.38" y="160.17" width="17.01" height="17.01"/><line class="cls-1" x1="146.18" y1="191.03" x2="146.18" y2="151.35"/><path d="M221.67,167.77a2.33,2.33,0,0,1,1.89.76,3.17,3.17,0,0,1,.65,2.13v3.67c0,.32-.16.49-.46.49h-.12c-.3,0-.46-.17-.46-.49v-3.59a2.35,2.35,0,0,0-.43-1.52,1.6,1.6,0,0,0-1.29-.53,1.92,1.92,0,0,0-1.14.37,2.12,2.12,0,0,0-.77,1v4.28c0,.32-.15.49-.46.49H219c-.31,0-.46-.17-.46-.49v-3.67a2.19,2.19,0,0,0-.44-1.46,1.59,1.59,0,0,0-1.28-.51,1.91,1.91,0,0,0-1.13.37,2.23,2.23,0,0,0-.79,1v4.28c0,.32-.15.49-.45.49h-.13c-.3,0-.46-.17-.46-.49V168s0,0,.13-.07a.7.7,0,0,1,.25,0c.4,0,.61.29.63.85v.34a2.82,2.82,0,0,1,.91-.94,2.39,2.39,0,0,1,1.26-.35,2.53,2.53,0,0,1,1.43.4,2.38,2.38,0,0,1,.84,1.12,2.64,2.64,0,0,1,.94-1.1,2.49,2.49,0,0,1,1.44-.42Zm3.88,3.62a3.93,3.93,0,0,1,.44-1.86,3.27,3.27,0,0,1,2.95-1.76,3.14,3.14,0,0,1,1.66.43,2.77,2.77,0,0,1,1.09,1.18,3.83,3.83,0,0,1,.39,1.76v.1c0,.13,0,.22-.08.26a.39.39,0,0,1-.28.07h-5.18a1.06,1.06,0,0,0,0,.21,2.55,2.55,0,0,0,.78,1.66,2.42,2.42,0,0,0,1.71.63,2.5,2.5,0,0,0,1.4-.34,2.46,2.46,0,0,0,.83-.92.4.4,0,0,1,.19,0,.8.8,0,0,1,.27.18.44.44,0,0,1,.13.33.87.87,0,0,1-.14.41,1.67,1.67,0,0,1-.41.44,2.67,2.67,0,0,1-.95.52,3.91,3.91,0,0,1-1.33.21,3.69,3.69,0,0,1-1.82-.44,3.11,3.11,0,0,1-1.23-1.26,3.82,3.82,0,0,1-.44-1.84Zm5.51-.56a2.46,2.46,0,0,0-.61-1.62,2,2,0,0,0-1.51-.6,2.2,2.2,0,0,0-1.58.61,2.71,2.71,0,0,0-.79,1.61Zm4.74,4.1a1.79,1.79,0,0,1-1.42-.53,2.39,2.39,0,0,1-.46-1.62v-4h-.68c-.29,0-.44-.13-.44-.39v-.1c0-.26.15-.39.44-.39h.68v-1.2c0-.34.15-.51.46-.51h.11q.45,0,.45.51v1.2h1.73q.45,0,.45.39v.08c0,.27-.16.41-.46.41h-1.74v3.81a1.84,1.84,0,0,0,.25,1.1.9.9,0,0,0,.77.34,1.17,1.17,0,0,0,1-.53s0,0,.1,0a.48.48,0,0,1,.13.17.54.54,0,0,1,.06.27.73.73,0,0,1-.26.53,1.68,1.68,0,0,1-1.19.4ZM238,173a1.78,1.78,0,0,1,1.13-1.69,9.23,9.23,0,0,1,3.57-.56h.15v-.29a1.79,1.79,0,0,0-.48-1.34,1.88,1.88,0,0,0-1.37-.47,2.41,2.41,0,0,0-1.3.33,2.12,2.12,0,0,0-.79.89.57.57,0,0,1-.2,0,.63.63,0,0,1-.3-.16.45.45,0,0,1-.13-.35.79.79,0,0,1,.1-.36,1.88,1.88,0,0,1,.31-.4,3,3,0,0,1,1-.59,3.93,3.93,0,0,1,1.39-.23,2.84,2.84,0,0,1,2.08.72,2.65,2.65,0,0,1,.73,2v4.24s0,0-.12.07a.73.73,0,0,1-.25,0q-.54,0-.6-.66,0-.4,0-.63a2.46,2.46,0,0,1-1,1,3.09,3.09,0,0,1-1.52.38,2.54,2.54,0,0,1-1.7-.52A1.7,1.7,0,0,1,238,173Zm4.85-1.58-.24,0a7.76,7.76,0,0,0-2.73.4A1.18,1.18,0,0,0,239,173a1,1,0,0,0,.4.85,1.72,1.72,0,0,0,1.09.31,2.59,2.59,0,0,0,1.18-.27,2.13,2.13,0,0,0,.83-.74,1.82,1.82,0,0,0,.31-1Zm5.53,3.5a3,3,0,0,1-1.62-.45,3.07,3.07,0,0,1-1.13-1.26,4.15,4.15,0,0,1-.41-1.87,4.11,4.11,0,0,1,.41-1.86,3.07,3.07,0,0,1,1.13-1.26,3,3,0,0,1,1.64-.46,2.94,2.94,0,0,1,1.51.38,2.41,2.41,0,0,1,1,.94v-4s0,0,.11-.07a.66.66,0,0,1,.25,0c.45,0,.68.31.68.92v8.42c0,.32-.16.49-.46.49h-.1a.4.4,0,0,1-.45-.46c0-.19,0-.49,0-.89a2.9,2.9,0,0,1-1,1.07,2.79,2.79,0,0,1-1.5.39Zm2.49-4.65a2.57,2.57,0,0,0-.87-1.2,2.28,2.28,0,0,0-1.42-.43,2.13,2.13,0,0,0-1.68.74,2.9,2.9,0,0,0-.65,2,3.16,3.16,0,0,0,.3,1.4,2.27,2.27,0,0,0,.82,1,2.15,2.15,0,0,0,1.19.35,2.31,2.31,0,0,0,1.16-.3,2.09,2.09,0,0,0,.84-.8,2.12,2.12,0,0,0,.31-1.14Zm2.44,1.11a3.93,3.93,0,0,1,.44-1.86,3.25,3.25,0,0,1,1.2-1.29,3.35,3.35,0,0,1,1.75-.47,3.08,3.08,0,0,1,1.65.43,2.79,2.79,0,0,1,1.1,1.18,3.83,3.83,0,0,1,.39,1.76v.1a.33.33,0,0,1-.08.26.41.41,0,0,1-.28.07h-5.18a1.06,1.06,0,0,0,0,.21,2.46,2.46,0,0,0,.78,1.66,2.41,2.41,0,0,0,1.71.63,2.27,2.27,0,0,0,2.23-1.26.41.41,0,0,1,.19,0,.8.8,0,0,1,.27.18.48.48,0,0,1,.12.33.84.84,0,0,1-.13.41,1.67,1.67,0,0,1-.41.44,2.76,2.76,0,0,1-1,.52,4,4,0,0,1-1.33.21,3.69,3.69,0,0,1-1.82-.44,3.11,3.11,0,0,1-1.23-1.26,3.82,3.82,0,0,1-.44-1.84Zm5.51-.56a2.41,2.41,0,0,0-.62-1.62,2,2,0,0,0-1.5-.6,2.2,2.2,0,0,0-1.58.61,2.71,2.71,0,0,0-.79,1.61Z"/><line class="cls-1" x1="324.54" y1="191.03" x2="324.54" y2="151.35"/><line class="cls-1" x1="449.84" y1="191.03" x2="449.84" y2="151.35"/><line class="cls-1" x1="9.39" y1="191.23" x2="450.04" y2="191.23"/><line class="cls-1" x1="9.39" y1="191.23" x2="450.04" y2="191.23"/><line class="cls-1" x1="9.59" y1="231.11" x2="9.59" y2="191.43"/><rect class="cls-2" x="69.38" y="200.25" width="17.01" height="17.01"/><rect class="cls-1" x="69.38" y="200.25" width="17.01" height="17.01"/><line class="cls-1" x1="146.18" y1="231.11" x2="146.18" y2="191.43"/><path d="M215.71,208c.31,0,.46.16.46.48v6.36s0,0-.12.07a.69.69,0,0,1-.25,0c-.35,0-.56-.22-.6-.67,0-.25,0-.43,0-.56a2.9,2.9,0,0,1-1,1,2.63,2.63,0,0,1-1.38.36,2.38,2.38,0,0,1-2-.81,3.27,3.27,0,0,1-.67-2.17v-3.59c0-.32.15-.48.46-.48h.11c.31,0,.46.16.46.48V212a2.36,2.36,0,0,0,.48,1.57,1.63,1.63,0,0,0,1.33.57,2.21,2.21,0,0,0,1.27-.38,2.26,2.26,0,0,0,.84-1v-4.27c0-.32.15-.48.44-.48Zm10.13-.1a2.38,2.38,0,0,1,1.9.75,3.17,3.17,0,0,1,.64,2.13v3.67c0,.33-.15.49-.46.49h-.11c-.31,0-.46-.16-.46-.49v-3.58a2.33,2.33,0,0,0-.44-1.52,1.55,1.55,0,0,0-1.28-.54,2,2,0,0,0-1.14.37,2.09,2.09,0,0,0-.77,1v4.27c0,.33-.15.49-.46.49h-.12c-.3,0-.45-.16-.45-.49v-3.67a2.19,2.19,0,0,0-.44-1.46,1.6,1.6,0,0,0-1.29-.51,2,2,0,0,0-1.12.37,2.27,2.27,0,0,0-.8,1v4.27c0,.33-.15.49-.44.49h-.13c-.31,0-.46-.16-.46-.49v-6.34s0,0,.12-.07a.73.73,0,0,1,.25,0q.6,0,.63.84l0,.35a2.65,2.65,0,0,1,.91-.94,2.27,2.27,0,0,1,1.25-.35,2.43,2.43,0,0,1,1.43.4,2.22,2.22,0,0,1,.84,1.12,2.77,2.77,0,0,1,.95-1.11,2.47,2.47,0,0,1,1.43-.41Zm9.08,7.15a1.76,1.76,0,0,1-1.41-.53,2.39,2.39,0,0,1-.47-1.62v-4h-.67q-.45,0-.45-.39v-.1q0-.39.45-.39H233v-1.2c0-.34.16-.5.46-.5h.12c.29,0,.44.16.44.5V208h1.74c.29,0,.44.13.44.39v.09c0,.27-.15.4-.46.4h-1.73v3.82a1.91,1.91,0,0,0,.24,1.09.88.88,0,0,0,.78.34,1.14,1.14,0,0,0,1-.53s.06,0,.11,0a.46.46,0,0,1,.12.17.6.6,0,0,1,.06.27.69.69,0,0,1-.26.53,1.65,1.65,0,0,1-1.19.4Zm2.17-3.54a3.81,3.81,0,0,1,.44-1.86,3.2,3.2,0,0,1,2.94-1.75,3.17,3.17,0,0,1,1.66.42,2.85,2.85,0,0,1,1.1,1.18,3.85,3.85,0,0,1,.39,1.77v.1a.37.37,0,0,1-.08.26.47.47,0,0,1-.28.07h-5.18a1.15,1.15,0,0,0,0,.2,2.49,2.49,0,0,0,.79,1.66,2.41,2.41,0,0,0,1.71.63,2.52,2.52,0,0,0,1.4-.34,2.43,2.43,0,0,0,.82-.92.37.37,0,0,1,.2,0,.59.59,0,0,1,.27.18.45.45,0,0,1,.12.33.81.81,0,0,1-.13.4,1.85,1.85,0,0,1-.41.44,3,3,0,0,1-1,.53,4,4,0,0,1-1.33.2,3.65,3.65,0,0,1-1.83-.44,3.09,3.09,0,0,1-1.22-1.26,3.71,3.71,0,0,1-.44-1.84Zm5.51-.56a2.41,2.41,0,0,0-.62-1.61,2,2,0,0,0-1.51-.61,2.15,2.15,0,0,0-1.57.62,2.63,2.63,0,0,0-.79,1.6Zm5.19-3a1.27,1.27,0,0,1,.74.2.64.64,0,0,1,.28.54.76.76,0,0,1-.06.32.62.62,0,0,1-.16.19c-.05,0-.09.06-.1,0a1.1,1.1,0,0,0-.81-.29,1.32,1.32,0,0,0-1.23.75,4.41,4.41,0,0,0-.41,2.08v2.71c0,.33-.15.49-.44.49h-.12c-.31,0-.47-.16-.47-.49v-6.34s0,0,.11-.07a.75.75,0,0,1,.26,0q.54,0,.6.69c0,.32,0,.57,0,.74a2.26,2.26,0,0,1,.66-1.15,1.73,1.73,0,0,1,1.12-.38ZM252.24,218a1.67,1.67,0,0,1-.73-.15,1.27,1.27,0,0,1-.49-.37.68.68,0,0,1-.17-.44.38.38,0,0,1,.36-.44,1.16,1.16,0,0,0,.93.56,1,1,0,0,0,.61-.19.69.69,0,0,0,.23-.59,1.27,1.27,0,0,0-.41-.86,2.49,2.49,0,0,0-.91-.64,3.12,3.12,0,0,1-1.8-1.23,3.77,3.77,0,0,1-.68-2.25,3.73,3.73,0,0,1,.45-1.83,3.17,3.17,0,0,1,1.23-1.26,3.45,3.45,0,0,1,1.78-.46,3.38,3.38,0,0,1,1.32.23,2.9,2.9,0,0,1,1,.6,2.08,2.08,0,0,1,.42.54,1.15,1.15,0,0,1,.14.49.4.4,0,0,1-.14.32.71.71,0,0,1-.32.17c-.11,0-.18,0-.2,0a2.11,2.11,0,0,0-2.17-1.46,2.38,2.38,0,0,0-1.26.34,2.42,2.42,0,0,0-.87.95,3,3,0,0,0-.32,1.37,3,3,0,0,0,.31,1.4,2.35,2.35,0,0,0,.87,1,2.38,2.38,0,0,0,1.27.35,2.21,2.21,0,0,0,1.39-.41,2.34,2.34,0,0,0,.78-1.06s.08,0,.19,0a.75.75,0,0,1,.33.17.46.46,0,0,1,.14.34,1,1,0,0,1-.14.46,1.9,1.9,0,0,1-.39.53,2.89,2.89,0,0,1-1.59.81,3.08,3.08,0,0,1-.53,0,2.56,2.56,0,0,1,.71.72,1.58,1.58,0,0,1,.29.93,1.19,1.19,0,0,1-.47,1,1.86,1.86,0,0,1-1.12.34Zm4.16-6.58a3.89,3.89,0,0,1,.44-1.85,3.2,3.2,0,0,1,1.24-1.26,3.48,3.48,0,0,1,1.81-.46,3.42,3.42,0,0,1,1.78.46,3.23,3.23,0,0,1,1.23,1.28,3.93,3.93,0,0,1,.44,1.86,3.81,3.81,0,0,1-.44,1.83,3.29,3.29,0,0,1-1.24,1.27,3.53,3.53,0,0,1-1.79.45,3.59,3.59,0,0,1-1.8-.45,3.22,3.22,0,0,1-1.23-1.28,3.89,3.89,0,0,1-.44-1.85Zm5.94,0a3,3,0,0,0-.32-1.4,2.44,2.44,0,0,0-.87-1,2.46,2.46,0,0,0-2.53,0,2.36,2.36,0,0,0-.89,1,3.09,3.09,0,0,0,0,2.78,2.45,2.45,0,0,0,.89,1,2.38,2.38,0,0,0,1.27.35,2.48,2.48,0,0,0,1.26-.34,2.38,2.38,0,0,0,.87-1,3,3,0,0,0,.32-1.38Z"/><line class="cls-1" x1="324.54" y1="231.11" x2="324.54" y2="191.43"/><line class="cls-1" x1="449.84" y1="231.11" x2="449.84" y2="191.43"/><line class="cls-1" x1="9.39" y1="231.31" x2="450.04" y2="231.31"/><line class="cls-1" x1="9.39" y1="231.31" x2="450.04" y2="231.31"/><line class="cls-1" x1="9.59" y1="271.2" x2="9.59" y2="231.51"/><rect class="cls-2" x="69.38" y="240.33" width="17.01" height="17.01"/><rect class="cls-1" x="69.38" y="240.33" width="17.01" height="17.01"/><line class="cls-1" x1="146.18" y1="271.2" x2="146.18" y2="231.51"/><path d="M211.48,248c.31,0,.46.16.46.49v6.35s0,.05-.12.08a1.09,1.09,0,0,1-.25,0c-.36,0-.56-.23-.61-.68,0-.24,0-.43,0-.56a2.9,2.9,0,0,1-1,1,2.56,2.56,0,0,1-1.39.37,2.37,2.37,0,0,1-2-.81,3.3,3.3,0,0,1-.67-2.18v-3.58c0-.33.15-.49.46-.49h.11c.31,0,.46.16.46.49V252a2.39,2.39,0,0,0,.47,1.57,1.65,1.65,0,0,0,1.34.57,2.2,2.2,0,0,0,1.27-.37,2.34,2.34,0,0,0,.84-1v-4.26c0-.33.15-.49.44-.49Zm10.13-.1a2.36,2.36,0,0,1,1.89.75,3.21,3.21,0,0,1,.65,2.13v3.68c0,.32-.15.48-.46.48h-.11c-.31,0-.46-.16-.46-.48v-3.59a2.33,2.33,0,0,0-.44-1.52,1.58,1.58,0,0,0-1.29-.53,2,2,0,0,0-1.14.36,2.12,2.12,0,0,0-.76,1v4.28a.42.42,0,0,1-.46.48h-.12a.42.42,0,0,1-.46-.48v-3.68a2.16,2.16,0,0,0-.43-1.45,1.62,1.62,0,0,0-1.29-.51,1.91,1.91,0,0,0-1.12.36,2.33,2.33,0,0,0-.8,1v4.28q0,.48-.45.48h-.12c-.31,0-.46-.16-.46-.48v-6.34s0,0,.12-.08a.69.69,0,0,1,.25,0c.4,0,.61.28.63.85l0,.34a2.64,2.64,0,0,1,.91-.94,2.33,2.33,0,0,1,1.25-.35,2.43,2.43,0,0,1,1.43.4,2.22,2.22,0,0,1,.84,1.12,2.61,2.61,0,0,1,1-1.1,2.46,2.46,0,0,1,1.43-.42Zm12.64.1a.73.73,0,0,1,.25,0c.08,0,.12.06.12.08v9.06c0,.33-.16.49-.47.49h-.1c-.31,0-.46-.16-.46-.49v-3.56a2.83,2.83,0,0,1-1,1.05,2.76,2.76,0,0,1-1.49.39,3,3,0,0,1-1.62-.45,3.08,3.08,0,0,1-1.12-1.27,4.45,4.45,0,0,1,0-3.73,3,3,0,0,1,2.79-1.71,2.9,2.9,0,0,1,1.51.39,2.43,2.43,0,0,1,.95,1v-.43c0-.57.26-.85.65-.85Zm-.66,2.43a2.58,2.58,0,0,0-.87-1.22,2.31,2.31,0,0,0-1.43-.43,2.12,2.12,0,0,0-1.68.74,2.88,2.88,0,0,0-.64,1.95,3.32,3.32,0,0,0,.29,1.41,2.29,2.29,0,0,0,.83,1,2.12,2.12,0,0,0,1.19.34,2.3,2.3,0,0,0,1.16-.29,2.33,2.33,0,0,0,.84-.81,2.18,2.18,0,0,0,.31-1.15Zm8.33-2.43c.31,0,.46.16.46.49v6.35s0,.05-.12.08a1,1,0,0,1-.25,0c-.35,0-.55-.23-.6-.68,0-.24,0-.43,0-.56a2.81,2.81,0,0,1-1,1,2.55,2.55,0,0,1-1.38.37,2.39,2.39,0,0,1-2-.81,3.3,3.3,0,0,1-.67-2.18v-3.58c0-.33.15-.49.46-.49H237c.31,0,.46.16.46.49V252a2.34,2.34,0,0,0,.48,1.57,1.63,1.63,0,0,0,1.33.57,2.2,2.2,0,0,0,1.27-.37,2.34,2.34,0,0,0,.84-1v-4.26c0-.33.15-.49.44-.49Zm1.61,5.14a1.78,1.78,0,0,1,1.13-1.69,9,9,0,0,1,3.56-.57h.16v-.28a1.77,1.77,0,0,0-.48-1.34,1.9,1.9,0,0,0-1.37-.47,2.39,2.39,0,0,0-1.3.33,2.22,2.22,0,0,0-.8.89.53.53,0,0,1-.19,0,.73.73,0,0,1-.3-.16.45.45,0,0,1-.14-.35.85.85,0,0,1,.11-.37,1.4,1.4,0,0,1,.31-.39,2.8,2.8,0,0,1,1-.59,4,4,0,0,1,1.4-.23,2.84,2.84,0,0,1,2.08.72,2.69,2.69,0,0,1,.73,2v4.23s0,.05-.12.08a1.18,1.18,0,0,1-.25,0c-.36,0-.56-.22-.61-.66q0-.41,0-.63a2.56,2.56,0,0,1-1,1,3.09,3.09,0,0,1-1.53.37,2.63,2.63,0,0,1-1.7-.51,1.74,1.74,0,0,1-.62-1.39Zm4.85-1.58h-.24a8.28,8.28,0,0,0-2.74.4,1.2,1.2,0,0,0-.84,1.14,1,1,0,0,0,.41.84,1.7,1.7,0,0,0,1.09.32,2.52,2.52,0,0,0,1.17-.27,2.09,2.09,0,0,0,.84-.74,1.82,1.82,0,0,0,.31-1Zm5.58-3.66a1.2,1.2,0,0,1,.74.21.64.64,0,0,1,.28.54.59.59,0,0,1-.07.31.53.53,0,0,1-.15.2s-.09.06-.1.05a1.06,1.06,0,0,0-.81-.29,1.32,1.32,0,0,0-1.23.74,4.44,4.44,0,0,0-.41,2.08v2.72c0,.32-.15.48-.44.48h-.12a.42.42,0,0,1-.47-.48v-6.34s0,0,.11-.08a.71.71,0,0,1,.26,0q.52,0,.6.69,0,.48,0,.75a2.26,2.26,0,0,1,.66-1.15,1.68,1.68,0,0,1,1.12-.39Zm4.49,7.16a1.79,1.79,0,0,1-1.41-.53,2.43,2.43,0,0,1-.47-1.62v-4h-.67c-.3,0-.45-.13-.45-.38v-.1q0-.39.45-.39h.67v-1.21c0-.33.15-.5.46-.5h.12c.29,0,.44.17.44.5v1.21h1.74c.29,0,.44.13.44.39v.08c0,.27-.15.4-.46.4h-1.73v3.82a2,2,0,0,0,.24,1.1.89.89,0,0,0,.77.33,1.15,1.15,0,0,0,1-.53s.06,0,.1,0a.43.43,0,0,1,.13.16.61.61,0,0,1,.06.28.75.75,0,0,1-.26.53,1.71,1.71,0,0,1-1.19.4Zm2.17-3.59a3.82,3.82,0,0,1,.44-1.84,3.29,3.29,0,0,1,1.24-1.27,3.73,3.73,0,0,1,3.59,0,3.29,3.29,0,0,1,1.23,1.28,3.93,3.93,0,0,1,.44,1.86,3.81,3.81,0,0,1-.44,1.83,3.29,3.29,0,0,1-1.24,1.27,3.43,3.43,0,0,1-1.79.46,3.5,3.5,0,0,1-1.8-.46,3.25,3.25,0,0,1-1.24-1.28,3.86,3.86,0,0,1-.43-1.85Zm5.94,0a3.07,3.07,0,0,0-.32-1.4,2.41,2.41,0,0,0-.87-1,2.31,2.31,0,0,0-1.27-.35,2.39,2.39,0,0,0-1.27.34,2.5,2.5,0,0,0-.89,1,3.18,3.18,0,0,0,0,2.78,2.46,2.46,0,0,0,.89,1,2.31,2.31,0,0,0,1.27.35,2.39,2.39,0,0,0,1.27-.34,2.42,2.42,0,0,0,.87-.95,3,3,0,0,0,.32-1.39Z"/><line class="cls-1" x1="324.54" y1="271.2" x2="324.54" y2="231.51"/><line class="cls-1" x1="449.84" y1="271.2" x2="449.84" y2="231.51"/><line class="cls-1" x1="9.39" y1="271.4" x2="450.04" y2="271.4"/><line class="cls-1" x1="9.39" y1="271.4" x2="450.04" y2="271.4"/><line class="cls-1" x1="9.59" y1="311.28" x2="9.59" y2="271.6"/><line class="cls-1" x1="69.38" y1="297.43" x2="86.39" y2="280.42"/><line class="cls-1" x1="146.18" y1="311.28" x2="146.18" y2="271.6"/><path d="M221.67,288a2.33,2.33,0,0,1,1.89.76,3.17,3.17,0,0,1,.65,2.13v3.67c0,.32-.16.49-.46.49h-.12c-.3,0-.46-.17-.46-.49V291a2.35,2.35,0,0,0-.43-1.52,1.6,1.6,0,0,0-1.29-.53,1.92,1.92,0,0,0-1.14.37,2.12,2.12,0,0,0-.77,1v4.28c0,.32-.15.49-.46.49H219c-.31,0-.46-.17-.46-.49v-3.67a2.19,2.19,0,0,0-.44-1.46,1.59,1.59,0,0,0-1.28-.51,1.91,1.91,0,0,0-1.13.37,2.23,2.23,0,0,0-.79,1v4.28c0,.32-.15.49-.45.49h-.13c-.3,0-.46-.17-.46-.49v-6.34s0,0,.13-.07a.7.7,0,0,1,.25-.05c.4,0,.61.29.63.85v.34a2.82,2.82,0,0,1,.91-.94A2.39,2.39,0,0,1,217,288a2.53,2.53,0,0,1,1.43.4,2.38,2.38,0,0,1,.84,1.12,2.64,2.64,0,0,1,.94-1.1,2.49,2.49,0,0,1,1.44-.42Zm3.88,3.62a3.93,3.93,0,0,1,.44-1.86,3.27,3.27,0,0,1,2.95-1.76,3.14,3.14,0,0,1,1.66.43,2.77,2.77,0,0,1,1.09,1.18,3.83,3.83,0,0,1,.39,1.76v.1c0,.13,0,.22-.08.26a.39.39,0,0,1-.28.07h-5.18a1.06,1.06,0,0,0,0,.21,2.55,2.55,0,0,0,.78,1.66,2.42,2.42,0,0,0,1.71.63,2.5,2.5,0,0,0,1.4-.34,2.46,2.46,0,0,0,.83-.92.4.4,0,0,1,.19,0,.8.8,0,0,1,.27.18.44.44,0,0,1,.13.33.87.87,0,0,1-.14.41,1.67,1.67,0,0,1-.41.44,2.67,2.67,0,0,1-.95.52,3.91,3.91,0,0,1-1.33.21,3.69,3.69,0,0,1-1.82-.44,3.11,3.11,0,0,1-1.23-1.26,3.82,3.82,0,0,1-.44-1.84Zm5.51-.56a2.46,2.46,0,0,0-.61-1.62,2,2,0,0,0-1.51-.6,2.2,2.2,0,0,0-1.58.61,2.71,2.71,0,0,0-.79,1.61Zm4.74,4.1a1.79,1.79,0,0,1-1.42-.53,2.39,2.39,0,0,1-.46-1.62v-4h-.68c-.29,0-.44-.13-.44-.39v-.1c0-.26.15-.39.44-.39h.68V287c0-.34.15-.51.46-.51h.11q.45,0,.45.51v1.2h1.73q.45,0,.45.39v.08c0,.27-.16.41-.46.41h-1.74v3.81a1.84,1.84,0,0,0,.25,1.1.9.9,0,0,0,.77.34,1.17,1.17,0,0,0,1-.53s0,0,.1,0a.48.48,0,0,1,.13.17.54.54,0,0,1,.06.27.73.73,0,0,1-.26.53,1.68,1.68,0,0,1-1.19.4Zm2.16-1.92a1.78,1.78,0,0,1,1.13-1.69,9.23,9.23,0,0,1,3.57-.56h.15v-.29a1.79,1.79,0,0,0-.48-1.34,1.88,1.88,0,0,0-1.37-.47,2.41,2.41,0,0,0-1.3.33,2.12,2.12,0,0,0-.79.89.57.57,0,0,1-.2,0,.63.63,0,0,1-.3-.16.45.45,0,0,1-.13-.35.79.79,0,0,1,.1-.36,1.88,1.88,0,0,1,.31-.4,3,3,0,0,1,1-.59A3.93,3.93,0,0,1,241,288a2.84,2.84,0,0,1,2.08.72,2.65,2.65,0,0,1,.73,2V295s0,0-.12.07a.73.73,0,0,1-.25,0q-.54,0-.6-.66,0-.41,0-.63a2.46,2.46,0,0,1-1,1,3.09,3.09,0,0,1-1.52.38,2.54,2.54,0,0,1-1.7-.52,1.7,1.7,0,0,1-.63-1.39Zm4.85-1.58-.24,0a7.76,7.76,0,0,0-2.73.4,1.18,1.18,0,0,0-.84,1.13,1,1,0,0,0,.4.85,1.72,1.72,0,0,0,1.09.31,2.59,2.59,0,0,0,1.18-.27,2.13,2.13,0,0,0,.83-.74,1.82,1.82,0,0,0,.31-1Zm5.53,3.5a3,3,0,0,1-1.62-.45,3.07,3.07,0,0,1-1.13-1.26,4.15,4.15,0,0,1-.41-1.87,4.11,4.11,0,0,1,.41-1.86,3.07,3.07,0,0,1,1.13-1.26,3,3,0,0,1,1.64-.46,2.94,2.94,0,0,1,1.51.38,2.41,2.41,0,0,1,1,.94v-4s0-.05.11-.07a.66.66,0,0,1,.25,0c.45,0,.68.31.68.92v8.42c0,.32-.16.49-.46.49h-.1a.4.4,0,0,1-.45-.46c0-.19,0-.49,0-.89a2.9,2.9,0,0,1-1,1.07,2.79,2.79,0,0,1-1.5.39Zm2.49-4.65a2.57,2.57,0,0,0-.87-1.2,2.28,2.28,0,0,0-1.42-.43,2.13,2.13,0,0,0-1.68.74,2.9,2.9,0,0,0-.65,2,3.16,3.16,0,0,0,.3,1.4,2.27,2.27,0,0,0,.82,1,2.15,2.15,0,0,0,1.19.35,2.31,2.31,0,0,0,1.16-.3,2.09,2.09,0,0,0,.84-.8,2.12,2.12,0,0,0,.31-1.14Zm2.44,1.11a3.93,3.93,0,0,1,.44-1.86,3.25,3.25,0,0,1,1.2-1.29,3.35,3.35,0,0,1,1.75-.47,3.08,3.08,0,0,1,1.65.43,2.79,2.79,0,0,1,1.1,1.18,3.83,3.83,0,0,1,.39,1.76v.1a.33.33,0,0,1-.08.26.41.41,0,0,1-.28.07h-5.18a1.06,1.06,0,0,0,0,.21,2.46,2.46,0,0,0,.78,1.66,2.41,2.41,0,0,0,1.71.63,2.27,2.27,0,0,0,2.23-1.26.41.41,0,0,1,.19,0,.8.8,0,0,1,.27.18.48.48,0,0,1,.12.33.84.84,0,0,1-.13.41,1.67,1.67,0,0,1-.41.44,2.76,2.76,0,0,1-1,.52,4,4,0,0,1-1.33.21,3.69,3.69,0,0,1-1.82-.44,3.11,3.11,0,0,1-1.23-1.26,3.82,3.82,0,0,1-.44-1.84Zm5.51-.56a2.41,2.41,0,0,0-.62-1.62,2,2,0,0,0-1.5-.6,2.2,2.2,0,0,0-1.58.61,2.71,2.71,0,0,0-.79,1.61Z"/><line class="cls-1" x1="324.54" y1="311.28" x2="324.54" y2="271.6"/><line class="cls-1" x1="449.84" y1="311.28" x2="449.84" y2="271.6"/><line class="cls-1" x1="9.39" y1="311.48" x2="450.04" y2="311.48"/><line class="cls-1" x1="9.39" y1="311.48" x2="450.04" y2="311.48"/><line class="cls-1" x1="9.59" y1="351.36" x2="9.59" y2="311.68"/><line class="cls-1" x1="69.38" y1="337.51" x2="86.39" y2="320.5"/><line class="cls-1" x1="146.18" y1="351.36" x2="146.18" y2="311.68"/><path d="M215.71,328.21c.31,0,.46.16.46.48v6.36s0,0-.12.07a.69.69,0,0,1-.25,0c-.35,0-.56-.22-.6-.67,0-.25,0-.43,0-.56a2.9,2.9,0,0,1-1,1,2.63,2.63,0,0,1-1.38.36,2.38,2.38,0,0,1-2-.81,3.27,3.27,0,0,1-.67-2.17v-3.59c0-.32.15-.48.46-.48h.11c.31,0,.46.16.46.48v3.52a2.36,2.36,0,0,0,.48,1.57,1.63,1.63,0,0,0,1.33.57,2.21,2.21,0,0,0,1.27-.38,2.26,2.26,0,0,0,.84-1v-4.27c0-.32.15-.48.44-.48Zm10.13-.1a2.38,2.38,0,0,1,1.9.75,3.17,3.17,0,0,1,.64,2.13v3.67c0,.33-.15.49-.46.49h-.11c-.31,0-.46-.16-.46-.49v-3.58a2.33,2.33,0,0,0-.44-1.52,1.55,1.55,0,0,0-1.28-.54,2,2,0,0,0-1.14.37,2.09,2.09,0,0,0-.77,1v4.27c0,.33-.15.49-.46.49h-.12c-.3,0-.45-.16-.45-.49V331a2.19,2.19,0,0,0-.44-1.46A1.6,1.6,0,0,0,221,329a2,2,0,0,0-1.12.37,2.27,2.27,0,0,0-.8,1v4.27c0,.33-.15.49-.44.49h-.13c-.31,0-.46-.16-.46-.49v-6.34s0,0,.12-.07a.73.73,0,0,1,.25,0q.6,0,.63.84l0,.35a2.65,2.65,0,0,1,.91-.94,2.27,2.27,0,0,1,1.25-.35,2.43,2.43,0,0,1,1.43.4,2.22,2.22,0,0,1,.84,1.12,2.77,2.77,0,0,1,.95-1.11,2.47,2.47,0,0,1,1.43-.41Zm9.08,7.15a1.76,1.76,0,0,1-1.41-.53,2.39,2.39,0,0,1-.47-1.62v-4h-.67q-.45,0-.45-.39v-.1q0-.39.45-.39H233v-1.2c0-.34.16-.5.46-.5h.12c.29,0,.44.16.44.5v1.2h1.74c.29,0,.44.13.44.39v.09c0,.27-.15.4-.46.4h-1.73V333a1.91,1.91,0,0,0,.24,1.09.88.88,0,0,0,.78.34,1.14,1.14,0,0,0,1-.53s.06,0,.11,0a.46.46,0,0,1,.12.17.6.6,0,0,1,.06.27.69.69,0,0,1-.26.53,1.65,1.65,0,0,1-1.19.4Zm2.17-3.54a3.81,3.81,0,0,1,.44-1.86,3.2,3.2,0,0,1,2.94-1.75,3.17,3.17,0,0,1,1.66.42,2.85,2.85,0,0,1,1.1,1.18,3.85,3.85,0,0,1,.39,1.77v.1a.37.37,0,0,1-.08.26.47.47,0,0,1-.28.07h-5.18a1.15,1.15,0,0,0,0,.2,2.49,2.49,0,0,0,.79,1.66,2.41,2.41,0,0,0,1.71.63,2.52,2.52,0,0,0,1.4-.34,2.43,2.43,0,0,0,.82-.92.37.37,0,0,1,.2,0,.59.59,0,0,1,.27.18.45.45,0,0,1,.12.33.81.81,0,0,1-.13.4,1.85,1.85,0,0,1-.41.44,3,3,0,0,1-1,.53,4,4,0,0,1-1.33.2,3.65,3.65,0,0,1-1.83-.44,3.09,3.09,0,0,1-1.22-1.26,3.71,3.71,0,0,1-.44-1.84Zm5.51-.56a2.41,2.41,0,0,0-.62-1.61,2,2,0,0,0-1.51-.61,2.15,2.15,0,0,0-1.57.62,2.63,2.63,0,0,0-.79,1.6Zm5.19-3.05a1.27,1.27,0,0,1,.74.2.64.64,0,0,1,.28.54.76.76,0,0,1-.06.32.62.62,0,0,1-.16.19c-.05,0-.09.06-.1.05a1.1,1.1,0,0,0-.81-.29,1.32,1.32,0,0,0-1.23.75A4.41,4.41,0,0,0,246,332v2.71c0,.33-.15.49-.44.49h-.12c-.31,0-.47-.16-.47-.49v-6.34s0,0,.11-.07a.75.75,0,0,1,.26,0q.54,0,.6.69c0,.32,0,.57,0,.74a2.26,2.26,0,0,1,.66-1.15,1.73,1.73,0,0,1,1.12-.38Zm4.45,10.15a1.67,1.67,0,0,1-.73-.15,1.27,1.27,0,0,1-.49-.37.68.68,0,0,1-.17-.44.38.38,0,0,1,.36-.44,1.16,1.16,0,0,0,.93.56,1,1,0,0,0,.61-.19.69.69,0,0,0,.23-.59,1.27,1.27,0,0,0-.41-.86,2.49,2.49,0,0,0-.91-.64,3.12,3.12,0,0,1-1.8-1.23,3.77,3.77,0,0,1-.68-2.25,3.73,3.73,0,0,1,.45-1.83,3.17,3.17,0,0,1,1.23-1.26,3.45,3.45,0,0,1,1.78-.46,3.38,3.38,0,0,1,1.32.23,2.9,2.9,0,0,1,1,.6,2.08,2.08,0,0,1,.42.54,1.15,1.15,0,0,1,.14.49.4.4,0,0,1-.14.32.71.71,0,0,1-.32.17c-.11,0-.18,0-.2,0a2.11,2.11,0,0,0-2.17-1.46,2.38,2.38,0,0,0-1.26.34,2.42,2.42,0,0,0-.87,1,3,3,0,0,0-.32,1.37,3,3,0,0,0,.31,1.4,2.35,2.35,0,0,0,.87,1,2.38,2.38,0,0,0,1.27.35A2.21,2.21,0,0,0,254,334a2.34,2.34,0,0,0,.78-1.06s.08,0,.19,0a.75.75,0,0,1,.33.17.46.46,0,0,1,.14.34,1,1,0,0,1-.14.46,1.9,1.9,0,0,1-.39.53,2.89,2.89,0,0,1-1.59.81,3.08,3.08,0,0,1-.53,0,2.56,2.56,0,0,1,.71.72,1.58,1.58,0,0,1,.29.93,1.19,1.19,0,0,1-.47,1,1.86,1.86,0,0,1-1.12.34Zm4.16-6.58a3.89,3.89,0,0,1,.44-1.85,3.2,3.2,0,0,1,1.24-1.26,3.48,3.48,0,0,1,1.81-.46,3.42,3.42,0,0,1,1.78.46,3.23,3.23,0,0,1,1.23,1.28,3.93,3.93,0,0,1,.44,1.86,3.81,3.81,0,0,1-.44,1.83,3.29,3.29,0,0,1-1.24,1.27,3.53,3.53,0,0,1-1.79.45,3.59,3.59,0,0,1-1.8-.45,3.22,3.22,0,0,1-1.23-1.28,3.89,3.89,0,0,1-.44-1.85Zm5.94,0a3,3,0,0,0-.32-1.4,2.44,2.44,0,0,0-.87-1,2.46,2.46,0,0,0-2.53,0,2.36,2.36,0,0,0-.89,1,3.09,3.09,0,0,0,0,2.78,2.45,2.45,0,0,0,.89,1,2.38,2.38,0,0,0,1.27.35,2.48,2.48,0,0,0,1.26-.34,2.38,2.38,0,0,0,.87-1,3,3,0,0,0,.32-1.38Z"/><line class="cls-1" x1="324.54" y1="351.36" x2="324.54" y2="311.68"/><line class="cls-1" x1="449.84" y1="351.36" x2="449.84" y2="311.68"/><line class="cls-1" x1="9.39" y1="351.56" x2="450.04" y2="351.56"/><line class="cls-1" x1="9.39" y1="351.56" x2="450.04" y2="351.56"/><line class="cls-1" x1="9.59" y1="391.45" x2="9.59" y2="351.76"/><line class="cls-1" x1="69.38" y1="377.59" x2="86.39" y2="360.58"/><line class="cls-1" x1="146.18" y1="391.45" x2="146.18" y2="351.76"/><path d="M211.48,368.29c.31,0,.46.16.46.49v6.35s0,.05-.12.08a1.09,1.09,0,0,1-.25,0c-.36,0-.56-.23-.61-.68,0-.24,0-.43,0-.56a2.9,2.9,0,0,1-1,1,2.56,2.56,0,0,1-1.39.37,2.37,2.37,0,0,1-2-.81,3.3,3.3,0,0,1-.67-2.18v-3.58c0-.33.15-.49.46-.49h.11c.31,0,.46.16.46.49v3.51a2.39,2.39,0,0,0,.47,1.57,1.65,1.65,0,0,0,1.34.57,2.2,2.2,0,0,0,1.27-.37,2.34,2.34,0,0,0,.84-1v-4.26c0-.33.15-.49.44-.49Zm10.13-.1a2.36,2.36,0,0,1,1.89.75,3.21,3.21,0,0,1,.65,2.13v3.68c0,.32-.15.48-.46.48h-.11c-.31,0-.46-.16-.46-.48v-3.59a2.33,2.33,0,0,0-.44-1.52,1.58,1.58,0,0,0-1.29-.53,2,2,0,0,0-1.14.36,2.12,2.12,0,0,0-.76,1v4.28a.42.42,0,0,1-.46.48h-.12a.42.42,0,0,1-.46-.48v-3.68a2.16,2.16,0,0,0-.43-1.45,1.62,1.62,0,0,0-1.29-.51,1.91,1.91,0,0,0-1.12.36,2.33,2.33,0,0,0-.8,1v4.28q0,.48-.45.48h-.12c-.31,0-.46-.16-.46-.48v-6.34s0-.05.12-.08a.69.69,0,0,1,.25,0c.4,0,.61.28.63.85l0,.34a2.64,2.64,0,0,1,.91-.94,2.33,2.33,0,0,1,1.25-.35,2.43,2.43,0,0,1,1.43.4,2.22,2.22,0,0,1,.84,1.12,2.61,2.61,0,0,1,1-1.1,2.46,2.46,0,0,1,1.43-.42Zm12.64.1a.73.73,0,0,1,.25,0c.08,0,.12.06.12.08v9.06c0,.33-.16.49-.47.49h-.1c-.31,0-.46-.16-.46-.49v-3.56a2.83,2.83,0,0,1-1,1,2.76,2.76,0,0,1-1.49.39,3,3,0,0,1-1.62-.45,3.08,3.08,0,0,1-1.12-1.27,4.45,4.45,0,0,1,0-3.73,3,3,0,0,1,2.79-1.71,2.9,2.9,0,0,1,1.51.39,2.43,2.43,0,0,1,.95,1v-.43c0-.57.26-.85.65-.85Zm-.66,2.43a2.58,2.58,0,0,0-.87-1.22,2.31,2.31,0,0,0-1.43-.43,2.12,2.12,0,0,0-1.68.74,2.88,2.88,0,0,0-.64,1.95,3.32,3.32,0,0,0,.29,1.41,2.29,2.29,0,0,0,.83,1,2.12,2.12,0,0,0,1.19.34,2.3,2.3,0,0,0,1.16-.29,2.33,2.33,0,0,0,.84-.81,2.18,2.18,0,0,0,.31-1.15Zm8.33-2.43c.31,0,.46.16.46.49v6.35s0,.05-.12.08a1,1,0,0,1-.25,0c-.35,0-.55-.23-.6-.68,0-.24,0-.43,0-.56a2.81,2.81,0,0,1-1,1,2.55,2.55,0,0,1-1.38.37,2.39,2.39,0,0,1-2-.81,3.3,3.3,0,0,1-.67-2.18v-3.58c0-.33.15-.49.46-.49H237c.31,0,.46.16.46.49v3.51a2.34,2.34,0,0,0,.48,1.57,1.63,1.63,0,0,0,1.33.57,2.2,2.2,0,0,0,1.27-.37,2.34,2.34,0,0,0,.84-1v-4.26c0-.33.15-.49.44-.49Zm1.61,5.14a1.78,1.78,0,0,1,1.13-1.69,9,9,0,0,1,3.56-.57h.16v-.28a1.77,1.77,0,0,0-.48-1.34,1.9,1.9,0,0,0-1.37-.47,2.39,2.39,0,0,0-1.3.33,2.22,2.22,0,0,0-.8.89.53.53,0,0,1-.19,0,.73.73,0,0,1-.3-.16.45.45,0,0,1-.14-.35.85.85,0,0,1,.11-.37,1.4,1.4,0,0,1,.31-.39,2.8,2.8,0,0,1,1-.59,4,4,0,0,1,1.4-.23,2.84,2.84,0,0,1,2.08.72,2.69,2.69,0,0,1,.73,2v4.23s0,.05-.12.08a1.18,1.18,0,0,1-.25,0c-.36,0-.56-.22-.61-.66q0-.4,0-.63a2.56,2.56,0,0,1-1,1,3.09,3.09,0,0,1-1.53.37,2.63,2.63,0,0,1-1.7-.51,1.74,1.74,0,0,1-.62-1.39Zm4.85-1.58h-.24a8.28,8.28,0,0,0-2.74.4,1.2,1.2,0,0,0-.84,1.14,1,1,0,0,0,.41.84,1.7,1.7,0,0,0,1.09.32,2.52,2.52,0,0,0,1.17-.27,2.09,2.09,0,0,0,.84-.74,1.82,1.82,0,0,0,.31-1Zm5.58-3.66a1.2,1.2,0,0,1,.74.21.64.64,0,0,1,.28.54.59.59,0,0,1-.07.31.53.53,0,0,1-.15.2s-.09.06-.1.05a1.06,1.06,0,0,0-.81-.29,1.32,1.32,0,0,0-1.23.74,4.44,4.44,0,0,0-.41,2.08v2.72c0,.32-.15.48-.44.48h-.12a.42.42,0,0,1-.47-.48v-6.34s0-.05.11-.08a.71.71,0,0,1,.26,0q.52,0,.6.69,0,.48,0,.75a2.26,2.26,0,0,1,.66-1.15,1.68,1.68,0,0,1,1.12-.39Zm4.49,7.16a1.79,1.79,0,0,1-1.41-.53,2.43,2.43,0,0,1-.47-1.62v-4h-.67c-.3,0-.45-.13-.45-.38v-.1q0-.39.45-.39h.67v-1.21c0-.33.15-.5.46-.5h.12c.29,0,.44.17.44.5v1.21h1.74c.29,0,.44.13.44.39v.08c0,.27-.15.4-.46.4h-1.73V373a2,2,0,0,0,.24,1.1.89.89,0,0,0,.77.33,1.15,1.15,0,0,0,1-.53s.06,0,.1,0a.43.43,0,0,1,.13.16.61.61,0,0,1,.06.28.75.75,0,0,1-.26.53,1.71,1.71,0,0,1-1.19.4Zm2.17-3.59a3.82,3.82,0,0,1,.44-1.84,3.29,3.29,0,0,1,1.24-1.27,3.73,3.73,0,0,1,3.59,0,3.29,3.29,0,0,1,1.23,1.28,3.93,3.93,0,0,1,.44,1.86,3.81,3.81,0,0,1-.44,1.83,3.29,3.29,0,0,1-1.24,1.27,3.43,3.43,0,0,1-1.79.46,3.5,3.5,0,0,1-1.8-.46,3.25,3.25,0,0,1-1.24-1.28,3.86,3.86,0,0,1-.43-1.85Zm5.94,0a3.07,3.07,0,0,0-.32-1.4,2.41,2.41,0,0,0-.87-1,2.31,2.31,0,0,0-1.27-.35,2.39,2.39,0,0,0-1.27.34,2.5,2.5,0,0,0-.89,1,3.18,3.18,0,0,0,0,2.78,2.46,2.46,0,0,0,.89,1,2.31,2.31,0,0,0,1.27.35,2.39,2.39,0,0,0,1.27-.34,2.42,2.42,0,0,0,.87-.95,3,3,0,0,0,.32-1.39Z"/><line class="cls-1" x1="324.54" y1="391.45" x2="324.54" y2="351.76"/><line class="cls-1" x1="449.84" y1="391.45" x2="449.84" y2="351.76"/><line class="cls-1" x1="9.39" y1="391.65" x2="450.04" y2="391.65"/><line class="cls-1" x1="9.39" y1="391.65" x2="450.04" y2="391.65"/><line class="cls-1" x1="9.59" y1="431.53" x2="9.59" y2="391.85"/><polygon class="cls-2" points="77.89 400.67 68.07 417.68 87.7 417.68 77.89 400.67"/><polygon class="cls-1" points="77.89 400.67 68.07 417.68 87.7 417.68 77.89 400.67"/><line class="cls-1" x1="146.18" y1="431.53" x2="146.18" y2="391.85"/><path d="M221.67,408.27a2.33,2.33,0,0,1,1.89.76,3.17,3.17,0,0,1,.65,2.13v3.67c0,.32-.16.49-.46.49h-.12c-.3,0-.46-.17-.46-.49v-3.59a2.35,2.35,0,0,0-.43-1.52,1.6,1.6,0,0,0-1.29-.53,1.92,1.92,0,0,0-1.14.37,2.12,2.12,0,0,0-.77,1v4.28c0,.32-.15.49-.46.49H219c-.31,0-.46-.17-.46-.49v-3.67a2.19,2.19,0,0,0-.44-1.46,1.59,1.59,0,0,0-1.28-.51,1.91,1.91,0,0,0-1.13.37,2.23,2.23,0,0,0-.79,1v4.28c0,.32-.15.49-.45.49h-.13c-.3,0-.46-.17-.46-.49v-6.34s0,0,.13-.07a.7.7,0,0,1,.25-.05c.4,0,.61.29.63.85v.34a2.82,2.82,0,0,1,.91-.94,2.39,2.39,0,0,1,1.26-.35,2.53,2.53,0,0,1,1.43.4,2.38,2.38,0,0,1,.84,1.12,2.64,2.64,0,0,1,.94-1.1,2.49,2.49,0,0,1,1.44-.42Zm3.88,3.62A3.93,3.93,0,0,1,226,410a3.27,3.27,0,0,1,2.95-1.76,3.14,3.14,0,0,1,1.66.43,2.77,2.77,0,0,1,1.09,1.18,3.83,3.83,0,0,1,.39,1.76v.1c0,.13,0,.22-.08.26a.39.39,0,0,1-.28.07h-5.18a1.06,1.06,0,0,0,0,.21,2.55,2.55,0,0,0,.78,1.66,2.42,2.42,0,0,0,1.71.63,2.5,2.5,0,0,0,1.4-.34,2.46,2.46,0,0,0,.83-.92.4.4,0,0,1,.19,0,.8.8,0,0,1,.27.18.44.44,0,0,1,.13.33.87.87,0,0,1-.14.41,1.67,1.67,0,0,1-.41.44,2.67,2.67,0,0,1-.95.52,3.91,3.91,0,0,1-1.33.21,3.69,3.69,0,0,1-1.82-.44,3.11,3.11,0,0,1-1.23-1.26,3.82,3.82,0,0,1-.44-1.84Zm5.51-.56a2.46,2.46,0,0,0-.61-1.62,2,2,0,0,0-1.51-.6,2.2,2.2,0,0,0-1.58.61,2.71,2.71,0,0,0-.79,1.61Zm4.74,4.1a1.79,1.79,0,0,1-1.42-.53,2.39,2.39,0,0,1-.46-1.62v-4h-.68c-.29,0-.44-.13-.44-.39v-.1c0-.26.15-.39.44-.39h.68v-1.2c0-.34.15-.51.46-.51h.11q.45,0,.45.51v1.2h1.73q.45,0,.45.39v.08c0,.27-.16.41-.46.41h-1.74v3.81a1.84,1.84,0,0,0,.25,1.1.9.9,0,0,0,.77.34,1.17,1.17,0,0,0,1-.53s0,0,.1,0a.48.48,0,0,1,.13.17.54.54,0,0,1,.06.27.73.73,0,0,1-.26.53,1.68,1.68,0,0,1-1.19.4Zm2.16-1.92a1.78,1.78,0,0,1,1.13-1.69,9.23,9.23,0,0,1,3.57-.56h.15V411a1.79,1.79,0,0,0-.48-1.34,1.88,1.88,0,0,0-1.37-.47,2.41,2.41,0,0,0-1.3.33,2.12,2.12,0,0,0-.79.89.57.57,0,0,1-.2,0,.63.63,0,0,1-.3-.16.45.45,0,0,1-.13-.35.79.79,0,0,1,.1-.36,1.88,1.88,0,0,1,.31-.4,3,3,0,0,1,1-.59,3.93,3.93,0,0,1,1.39-.23,2.84,2.84,0,0,1,2.08.72,2.65,2.65,0,0,1,.73,2v4.24s0,0-.12.07a.73.73,0,0,1-.25,0q-.54,0-.6-.66,0-.41,0-.63a2.46,2.46,0,0,1-1,1,3.09,3.09,0,0,1-1.52.38,2.54,2.54,0,0,1-1.7-.52,1.7,1.7,0,0,1-.63-1.39Zm4.85-1.58-.24,0a7.76,7.76,0,0,0-2.73.4,1.18,1.18,0,0,0-.84,1.13,1,1,0,0,0,.4.85,1.72,1.72,0,0,0,1.09.31,2.59,2.59,0,0,0,1.18-.27,2.13,2.13,0,0,0,.83-.74,1.82,1.82,0,0,0,.31-1Zm5.53,3.5a3,3,0,0,1-1.62-.45,3.07,3.07,0,0,1-1.13-1.26,4.15,4.15,0,0,1-.41-1.87,4.11,4.11,0,0,1,.41-1.86,3.07,3.07,0,0,1,1.13-1.26,3,3,0,0,1,1.64-.46,2.94,2.94,0,0,1,1.51.38,2.41,2.41,0,0,1,1,.94v-4s0-.05.11-.07a.66.66,0,0,1,.25,0c.45,0,.68.31.68.92v8.42c0,.32-.16.49-.46.49h-.1a.4.4,0,0,1-.45-.46c0-.19,0-.49,0-.89a2.9,2.9,0,0,1-1,1.07,2.79,2.79,0,0,1-1.5.39Zm2.49-4.65a2.57,2.57,0,0,0-.87-1.2,2.28,2.28,0,0,0-1.42-.43,2.13,2.13,0,0,0-1.68.74,2.9,2.9,0,0,0-.65,2,3.16,3.16,0,0,0,.3,1.4,2.27,2.27,0,0,0,.82,1,2.15,2.15,0,0,0,1.19.35,2.31,2.31,0,0,0,1.16-.3,2.09,2.09,0,0,0,.84-.8,2.12,2.12,0,0,0,.31-1.14Zm2.44,1.11a3.93,3.93,0,0,1,.44-1.86,3.25,3.25,0,0,1,1.2-1.29,3.35,3.35,0,0,1,1.75-.47,3.08,3.08,0,0,1,1.65.43,2.79,2.79,0,0,1,1.1,1.18,3.83,3.83,0,0,1,.39,1.76v.1a.33.33,0,0,1-.08.26.41.41,0,0,1-.28.07h-5.18a1.06,1.06,0,0,0,0,.21,2.46,2.46,0,0,0,.78,1.66,2.41,2.41,0,0,0,1.71.63,2.27,2.27,0,0,0,2.23-1.26.41.41,0,0,1,.19,0,.8.8,0,0,1,.27.18.48.48,0,0,1,.12.33.84.84,0,0,1-.13.41,1.67,1.67,0,0,1-.41.44,2.76,2.76,0,0,1-1,.52,4,4,0,0,1-1.33.21,3.69,3.69,0,0,1-1.82-.44,3.11,3.11,0,0,1-1.23-1.26,3.82,3.82,0,0,1-.44-1.84Zm5.51-.56a2.41,2.41,0,0,0-.62-1.62,2,2,0,0,0-1.5-.6,2.2,2.2,0,0,0-1.58.61,2.71,2.71,0,0,0-.79,1.61Z"/><line class="cls-1" x1="324.54" y1="431.53" x2="324.54" y2="391.85"/><line class="cls-1" x1="449.84" y1="431.53" x2="449.84" y2="391.85"/><line class="cls-1" x1="9.39" y1="431.73" x2="450.04" y2="431.73"/><line class="cls-1" x1="9.39" y1="431.73" x2="450.04" y2="431.73"/><line class="cls-1" x1="9.59" y1="471.61" x2="9.59" y2="431.93"/><polygon class="cls-2" points="77.89 440.75 68.07 457.76 87.7 457.76 77.89 440.75"/><polygon class="cls-1" points="77.89 440.75 68.07 457.76 87.7 457.76 77.89 440.75"/><line class="cls-1" x1="146.18" y1="471.61" x2="146.18" y2="431.93"/><path d="M215.71,448.46c.31,0,.46.16.46.48v6.36s0,0-.12.07a.69.69,0,0,1-.25,0c-.35,0-.56-.22-.6-.67,0-.25,0-.43,0-.56a2.9,2.9,0,0,1-1,1,2.63,2.63,0,0,1-1.38.36,2.38,2.38,0,0,1-2-.81,3.27,3.27,0,0,1-.67-2.17v-3.59c0-.32.15-.48.46-.48h.11c.31,0,.46.16.46.48v3.52a2.36,2.36,0,0,0,.48,1.57,1.63,1.63,0,0,0,1.33.57,2.21,2.21,0,0,0,1.27-.38,2.26,2.26,0,0,0,.84-1v-4.27c0-.32.15-.48.44-.48Zm10.13-.1a2.38,2.38,0,0,1,1.9.75,3.17,3.17,0,0,1,.64,2.13v3.67c0,.33-.15.49-.46.49h-.11c-.31,0-.46-.16-.46-.49v-3.58a2.33,2.33,0,0,0-.44-1.52,1.55,1.55,0,0,0-1.28-.54,2,2,0,0,0-1.14.37,2.09,2.09,0,0,0-.77,1v4.27c0,.33-.15.49-.46.49h-.12c-.3,0-.45-.16-.45-.49v-3.67a2.19,2.19,0,0,0-.44-1.46,1.6,1.6,0,0,0-1.29-.51,2,2,0,0,0-1.12.37,2.27,2.27,0,0,0-.8,1v4.27c0,.33-.15.49-.44.49h-.13c-.31,0-.46-.16-.46-.49v-6.34s0,0,.12-.07a.73.73,0,0,1,.25,0q.6,0,.63.84l0,.35a2.65,2.65,0,0,1,.91-.94,2.27,2.27,0,0,1,1.25-.35,2.43,2.43,0,0,1,1.43.4,2.22,2.22,0,0,1,.84,1.12,2.77,2.77,0,0,1,.95-1.11,2.47,2.47,0,0,1,1.43-.41Zm9.08,7.15a1.76,1.76,0,0,1-1.41-.53,2.39,2.39,0,0,1-.47-1.62v-4h-.67q-.45,0-.45-.39v-.1q0-.39.45-.39H233v-1.2c0-.34.16-.5.46-.5h.12c.29,0,.44.16.44.5v1.2h1.74c.29,0,.44.13.44.39V449c0,.27-.15.4-.46.4h-1.73v3.82a1.91,1.91,0,0,0,.24,1.09.88.88,0,0,0,.78.34,1.14,1.14,0,0,0,1-.53s.06,0,.11,0a.46.46,0,0,1,.12.17.6.6,0,0,1,.06.27.69.69,0,0,1-.26.53,1.65,1.65,0,0,1-1.19.4Zm2.17-3.54a3.81,3.81,0,0,1,.44-1.86,3.2,3.2,0,0,1,2.94-1.75,3.17,3.17,0,0,1,1.66.42,2.85,2.85,0,0,1,1.1,1.18,3.85,3.85,0,0,1,.39,1.77v.1a.37.37,0,0,1-.08.26.47.47,0,0,1-.28.07h-5.18a1.15,1.15,0,0,0,0,.2,2.49,2.49,0,0,0,.79,1.66,2.41,2.41,0,0,0,1.71.63,2.52,2.52,0,0,0,1.4-.34,2.43,2.43,0,0,0,.82-.92.37.37,0,0,1,.2,0,.59.59,0,0,1,.27.18.45.45,0,0,1,.12.33.81.81,0,0,1-.13.4,1.85,1.85,0,0,1-.41.44,3,3,0,0,1-1,.53,4,4,0,0,1-1.33.2,3.65,3.65,0,0,1-1.83-.44,3.09,3.09,0,0,1-1.22-1.26,3.71,3.71,0,0,1-.44-1.84Zm5.51-.56a2.41,2.41,0,0,0-.62-1.61,2,2,0,0,0-1.51-.61,2.15,2.15,0,0,0-1.57.62,2.63,2.63,0,0,0-.79,1.6Zm5.19-3.05a1.27,1.27,0,0,1,.74.2.64.64,0,0,1,.28.54.76.76,0,0,1-.06.32.62.62,0,0,1-.16.19c-.05,0-.09.06-.1.05a1.1,1.1,0,0,0-.81-.29,1.32,1.32,0,0,0-1.23.75,4.41,4.41,0,0,0-.41,2.08v2.71c0,.33-.15.49-.44.49h-.12c-.31,0-.47-.16-.47-.49v-6.34s0,0,.11-.07a.75.75,0,0,1,.26,0q.54,0,.6.69c0,.32,0,.57,0,.74a2.26,2.26,0,0,1,.66-1.15,1.73,1.73,0,0,1,1.12-.38Zm4.45,10.15a1.67,1.67,0,0,1-.73-.15A1.27,1.27,0,0,1,251,458a.68.68,0,0,1-.17-.44.38.38,0,0,1,.36-.44,1.16,1.16,0,0,0,.93.56,1,1,0,0,0,.61-.19.69.69,0,0,0,.23-.59,1.27,1.27,0,0,0-.41-.86,2.49,2.49,0,0,0-.91-.64,3.12,3.12,0,0,1-1.8-1.23,4,4,0,0,1-.23-4.08,3.17,3.17,0,0,1,1.23-1.26,3.45,3.45,0,0,1,1.78-.46,3.38,3.38,0,0,1,1.32.23,2.9,2.9,0,0,1,1,.6,2.08,2.08,0,0,1,.42.54,1.15,1.15,0,0,1,.14.49.4.4,0,0,1-.14.32.71.71,0,0,1-.32.17c-.11,0-.18,0-.2,0a2.11,2.11,0,0,0-2.17-1.46,2.38,2.38,0,0,0-1.26.34,2.42,2.42,0,0,0-.87,1,3,3,0,0,0-.32,1.37,3,3,0,0,0,.31,1.4,2.35,2.35,0,0,0,.87,1,2.38,2.38,0,0,0,1.27.35,2.21,2.21,0,0,0,1.39-.41,2.34,2.34,0,0,0,.78-1.06s.08,0,.19,0a.75.75,0,0,1,.33.17.46.46,0,0,1,.14.34,1,1,0,0,1-.14.46,1.9,1.9,0,0,1-.39.53,2.89,2.89,0,0,1-1.59.81,3.08,3.08,0,0,1-.53,0,2.56,2.56,0,0,1,.71.72,1.58,1.58,0,0,1,.29.93,1.19,1.19,0,0,1-.47,1,1.86,1.86,0,0,1-1.12.34Zm4.16-6.58a3.89,3.89,0,0,1,.44-1.85,3.2,3.2,0,0,1,1.24-1.26,3.48,3.48,0,0,1,1.81-.46,3.42,3.42,0,0,1,1.78.46,3.23,3.23,0,0,1,1.23,1.28,3.93,3.93,0,0,1,.44,1.86,3.81,3.81,0,0,1-.44,1.83,3.29,3.29,0,0,1-1.24,1.27,3.53,3.53,0,0,1-1.79.45,3.59,3.59,0,0,1-1.8-.45,3.22,3.22,0,0,1-1.23-1.28,3.89,3.89,0,0,1-.44-1.85Zm5.94,0a3,3,0,0,0-.32-1.4,2.44,2.44,0,0,0-.87-1,2.46,2.46,0,0,0-2.53,0,2.36,2.36,0,0,0-.89,1,3.09,3.09,0,0,0,0,2.78,2.45,2.45,0,0,0,.89,1,2.37,2.37,0,0,0,3.4-1,3,3,0,0,0,.32-1.38Z"/><line class="cls-1" x1="324.54" y1="471.61" x2="324.54" y2="431.93"/><line class="cls-1" x1="449.84" y1="471.61" x2="449.84" y2="431.93"/><line class="cls-1" x1="9.39" y1="471.81" x2="450.04" y2="471.81"/><line class="cls-1" x1="9.39" y1="471.81" x2="450.04" y2="471.81"/><line class="cls-1" x1="9.59" y1="511.7" x2="9.59" y2="472.01"/><polygon class="cls-2" points="77.89 480.83 68.07 497.84 87.7 497.84 77.89 480.83"/><polygon class="cls-1" points="77.89 480.83 68.07 497.84 87.7 497.84 77.89 480.83"/><line class="cls-1" x1="146.18" y1="511.7" x2="146.18" y2="472.01"/><path d="M211.48,488.54c.31,0,.46.16.46.49v6.35s0,.05-.12.08a1.09,1.09,0,0,1-.25,0c-.36,0-.56-.23-.61-.68,0-.24,0-.43,0-.56a2.9,2.9,0,0,1-1,1,2.56,2.56,0,0,1-1.39.37,2.37,2.37,0,0,1-2-.81,3.3,3.3,0,0,1-.67-2.18V489c0-.33.15-.49.46-.49h.11c.31,0,.46.16.46.49v3.51a2.39,2.39,0,0,0,.47,1.57,1.65,1.65,0,0,0,1.34.57,2.2,2.2,0,0,0,1.27-.37,2.34,2.34,0,0,0,.84-1V489c0-.33.15-.49.44-.49Zm10.13-.1a2.36,2.36,0,0,1,1.89.75,3.21,3.21,0,0,1,.65,2.13V495c0,.32-.15.48-.46.48h-.11c-.31,0-.46-.16-.46-.48v-3.59a2.33,2.33,0,0,0-.44-1.52,1.58,1.58,0,0,0-1.29-.53,2,2,0,0,0-1.14.36,2.12,2.12,0,0,0-.76,1V495a.42.42,0,0,1-.46.48h-.12a.42.42,0,0,1-.46-.48v-3.68a2.16,2.16,0,0,0-.43-1.45,1.62,1.62,0,0,0-1.29-.51,1.91,1.91,0,0,0-1.12.36,2.33,2.33,0,0,0-.8,1V495q0,.48-.45.48h-.12c-.31,0-.46-.16-.46-.48v-6.34s0-.05.12-.08a.69.69,0,0,1,.25,0c.4,0,.61.28.63.85l0,.34a2.64,2.64,0,0,1,.91-.94,2.33,2.33,0,0,1,1.25-.35,2.43,2.43,0,0,1,1.43.4,2.22,2.22,0,0,1,.84,1.12,2.61,2.61,0,0,1,1-1.1,2.46,2.46,0,0,1,1.43-.42Zm12.64.1a.73.73,0,0,1,.25,0c.08,0,.12.06.12.08v9.06c0,.33-.16.49-.47.49h-.1c-.31,0-.46-.16-.46-.49v-3.56a2.83,2.83,0,0,1-1,1,2.76,2.76,0,0,1-1.49.39,3,3,0,0,1-1.62-.45,3.08,3.08,0,0,1-1.12-1.27,4.45,4.45,0,0,1,0-3.73,3,3,0,0,1,2.79-1.71,2.9,2.9,0,0,1,1.51.39,2.43,2.43,0,0,1,.95,1v-.43c0-.57.26-.85.65-.85Zm-.66,2.43a2.58,2.58,0,0,0-.87-1.22,2.31,2.31,0,0,0-1.43-.43,2.12,2.12,0,0,0-1.68.74A2.88,2.88,0,0,0,229,492a3.32,3.32,0,0,0,.29,1.41,2.29,2.29,0,0,0,.83,1,2.12,2.12,0,0,0,1.19.34,2.3,2.3,0,0,0,1.16-.29,2.33,2.33,0,0,0,.84-.81,2.18,2.18,0,0,0,.31-1.15Zm8.33-2.43c.31,0,.46.16.46.49v6.35s0,.05-.12.08a1,1,0,0,1-.25,0c-.35,0-.55-.23-.6-.68,0-.24,0-.43,0-.56a2.81,2.81,0,0,1-1,1,2.55,2.55,0,0,1-1.38.37,2.39,2.39,0,0,1-2-.81,3.3,3.3,0,0,1-.67-2.18V489c0-.33.15-.49.46-.49H237c.31,0,.46.16.46.49v3.51a2.34,2.34,0,0,0,.48,1.57,1.63,1.63,0,0,0,1.33.57,2.2,2.2,0,0,0,1.27-.37,2.34,2.34,0,0,0,.84-1V489c0-.33.15-.49.44-.49Zm1.61,5.14a1.78,1.78,0,0,1,1.13-1.69,9,9,0,0,1,3.56-.57h.16v-.28a1.77,1.77,0,0,0-.48-1.34,1.9,1.9,0,0,0-1.37-.47,2.39,2.39,0,0,0-1.3.33,2.22,2.22,0,0,0-.8.89.53.53,0,0,1-.19,0,.73.73,0,0,1-.3-.16.45.45,0,0,1-.14-.35.85.85,0,0,1,.11-.37,1.4,1.4,0,0,1,.31-.39,2.8,2.8,0,0,1,1-.59,4,4,0,0,1,1.4-.23,2.84,2.84,0,0,1,2.08.72,2.69,2.69,0,0,1,.73,2v4.23s0,.05-.12.08a1.18,1.18,0,0,1-.25,0c-.36,0-.56-.22-.61-.66q0-.4,0-.63a2.56,2.56,0,0,1-1,1,3.09,3.09,0,0,1-1.53.37,2.63,2.63,0,0,1-1.7-.51,1.74,1.74,0,0,1-.62-1.39Zm4.85-1.58h-.24a8.28,8.28,0,0,0-2.74.4,1.2,1.2,0,0,0-.84,1.14,1,1,0,0,0,.41.84,1.7,1.7,0,0,0,1.09.32,2.52,2.52,0,0,0,1.17-.27,2.09,2.09,0,0,0,.84-.74,1.82,1.82,0,0,0,.31-1Zm5.58-3.66a1.2,1.2,0,0,1,.74.21.64.64,0,0,1,.28.54.59.59,0,0,1-.07.31.53.53,0,0,1-.15.2s-.09.06-.1.05a1.06,1.06,0,0,0-.81-.29,1.32,1.32,0,0,0-1.23.74,4.44,4.44,0,0,0-.41,2.08V495c0,.32-.15.48-.44.48h-.12a.42.42,0,0,1-.47-.48v-6.34s0-.05.11-.08a.71.71,0,0,1,.26,0q.52,0,.6.69,0,.48,0,.75a2.26,2.26,0,0,1,.66-1.15,1.68,1.68,0,0,1,1.12-.39Zm4.49,7.16a1.79,1.79,0,0,1-1.41-.53,2.43,2.43,0,0,1-.47-1.62v-4h-.67c-.3,0-.45-.13-.45-.38V489q0-.39.45-.39h.67v-1.21c0-.33.15-.5.46-.5h.12c.29,0,.44.17.44.5v1.21h1.74c.29,0,.44.13.44.39v.08c0,.27-.15.4-.46.4h-1.73v3.82a2,2,0,0,0,.24,1.1.89.89,0,0,0,.77.33,1.15,1.15,0,0,0,1-.53s.06,0,.1,0a.43.43,0,0,1,.13.16.61.61,0,0,1,.06.28.75.75,0,0,1-.26.53,1.71,1.71,0,0,1-1.19.4Zm2.17-3.59a3.82,3.82,0,0,1,.44-1.84,3.29,3.29,0,0,1,1.24-1.27,3.73,3.73,0,0,1,3.59,0,3.29,3.29,0,0,1,1.23,1.28,3.93,3.93,0,0,1,.44,1.86,3.81,3.81,0,0,1-.44,1.83,3.29,3.29,0,0,1-1.24,1.27,3.43,3.43,0,0,1-1.79.46,3.5,3.5,0,0,1-1.8-.46,3.25,3.25,0,0,1-1.24-1.28,3.86,3.86,0,0,1-.43-1.85Zm5.94,0a3.07,3.07,0,0,0-.32-1.4,2.41,2.41,0,0,0-.87-1,2.31,2.31,0,0,0-1.27-.35,2.39,2.39,0,0,0-1.27.34,2.5,2.5,0,0,0-.89,1,3.18,3.18,0,0,0,0,2.78,2.46,2.46,0,0,0,.89,1,2.31,2.31,0,0,0,1.27.35,2.39,2.39,0,0,0,1.27-.34,2.42,2.42,0,0,0,.87-.95,3,3,0,0,0,.32-1.39Z"/><line class="cls-1" x1="324.54" y1="511.7" x2="324.54" y2="472.01"/><line class="cls-1" x1="449.84" y1="511.7" x2="449.84" y2="472.01"/><line class="cls-1" x1="9.39" y1="511.9" x2="450.04" y2="511.9"/><line class="cls-1" x1="9.39" y1="511.9" x2="450.04" y2="511.9"/></svg>