<?xml version="1.0" encoding="utf-8"?>
<!-- Generator: Adobe Illustrator 16.0.0, SVG Export Plug-In . SVG Version: 6.00 Build 0)  -->
<!DOCTYPE svg PUBLIC "-//W3C//DTD SVG 1.1//EN" "http://www.w3.org/Graphics/SVG/1.1/DTD/svg11.dtd">
<svg version="1.1" id="Layer_1" xmlns="http://www.w3.org/2000/svg" xmlns:xlink="http://www.w3.org/1999/xlink" x="0px" y="0px"
	 width="255.12px" height="184.25px" viewBox="0 0 255.12 184.25" enable-background="new 0 0 255.12 184.25" xml:space="preserve">
<polygon fill="#FFF100" points="216.597,148.053 39.795,148.053 39.795,129.486 39.795,114.887 216.597,114.887 "/>
<polygon fill="none" stroke="#231F20" stroke-width="1.5" stroke-miterlimit="10" points="216.638,148.053 39.754,148.053 
	39.754,86.167 39.754,37.5 216.638,37.5 "/>
<path fill="#FFFFFF" stroke="#231F20" stroke-miterlimit="10" d="M216.638,86.778"/>
<g>
	<line fill="#FFFFFF" x1="40" y1="49" x2="217" y2="49"/>
	<g>
		<line fill="none" stroke="#231F20" stroke-linecap="round" stroke-linejoin="round" x1="40" y1="48.5" x2="42" y2="48.5"/>
		
			<line fill="none" stroke="#231F20" stroke-linecap="round" stroke-linejoin="round" stroke-dasharray="4,4" x1="46" y1="48.5" x2="213" y2="48.5"/>
		<line fill="none" stroke="#231F20" stroke-linecap="round" stroke-linejoin="round" x1="215" y1="48.5" x2="217" y2="48.5"/>
	</g>
</g>
<g>
	<line fill="#FFFFFF" x1="40" y1="71" x2="217" y2="71"/>
	<g>
		<line fill="none" stroke="#231F20" stroke-linecap="round" stroke-linejoin="round" x1="40" y1="70.5" x2="42" y2="70.5"/>
		
			<line fill="none" stroke="#231F20" stroke-linecap="round" stroke-linejoin="round" stroke-dasharray="4,4" x1="46" y1="70.5" x2="213" y2="70.5"/>
		<line fill="none" stroke="#231F20" stroke-linecap="round" stroke-linejoin="round" x1="215" y1="70.5" x2="217" y2="70.5"/>
	</g>
</g>
<g>
	<line fill="#FFFFFF" x1="40" y1="60" x2="217" y2="60"/>
	<g>
		<line fill="none" stroke="#231F20" stroke-linecap="round" stroke-linejoin="round" x1="40" y1="59.5" x2="42" y2="59.5"/>
		
			<line fill="none" stroke="#231F20" stroke-linecap="round" stroke-linejoin="round" stroke-dasharray="4,4" x1="46" y1="59.5" x2="213" y2="59.5"/>
		<line fill="none" stroke="#231F20" stroke-linecap="round" stroke-linejoin="round" x1="215" y1="59.5" x2="217" y2="59.5"/>
	</g>
</g>
<g>
	<line fill="#FFFFFF" x1="40" y1="82" x2="217" y2="82"/>
	<g>
		<line fill="none" stroke="#231F20" stroke-linecap="round" stroke-linejoin="round" x1="40" y1="81.5" x2="42" y2="81.5"/>
		
			<line fill="none" stroke="#231F20" stroke-linecap="round" stroke-linejoin="round" stroke-dasharray="4,4" x1="46" y1="81.5" x2="213" y2="81.5"/>
		<line fill="none" stroke="#231F20" stroke-linecap="round" stroke-linejoin="round" x1="215" y1="81.5" x2="217" y2="81.5"/>
	</g>
</g>
<g>
	<line fill="#FFFFFF" x1="40" y1="93" x2="217" y2="93"/>
	<g>
		<line fill="none" stroke="#231F20" stroke-linecap="round" stroke-linejoin="round" x1="40" y1="92.5" x2="42" y2="92.5"/>
		
			<line fill="none" stroke="#231F20" stroke-linecap="round" stroke-linejoin="round" stroke-dasharray="4,4" x1="46" y1="92.5" x2="213" y2="92.5"/>
		<line fill="none" stroke="#231F20" stroke-linecap="round" stroke-linejoin="round" x1="215" y1="92.5" x2="217" y2="92.5"/>
	</g>
</g>
<g>
	<line fill="#FFFFFF" x1="40" y1="115" x2="217" y2="115"/>
	<g>
		<line fill="none" stroke="#231F20" stroke-linecap="round" stroke-linejoin="round" x1="40" y1="114.5" x2="42" y2="114.5"/>
		
			<line fill="none" stroke="#231F20" stroke-linecap="round" stroke-linejoin="round" stroke-dasharray="4,4" x1="46" y1="114.5" x2="213" y2="114.5"/>
		<line fill="none" stroke="#231F20" stroke-linecap="round" stroke-linejoin="round" x1="215" y1="114.5" x2="217" y2="114.5"/>
	</g>
</g>
<g>
	<line fill="#FFFFFF" x1="40" y1="104" x2="217" y2="104"/>
	<g>
		<line fill="none" stroke="#231F20" stroke-linecap="round" stroke-linejoin="round" x1="40" y1="103.5" x2="42" y2="103.5"/>
		
			<line fill="none" stroke="#231F20" stroke-linecap="round" stroke-linejoin="round" stroke-dasharray="4,4" x1="46" y1="103.5" x2="213" y2="103.5"/>
		<line fill="none" stroke="#231F20" stroke-linecap="round" stroke-linejoin="round" x1="215" y1="103.5" x2="217" y2="103.5"/>
	</g>
</g>
<g>
	<line fill="#FFFFFF" x1="40" y1="126" x2="217" y2="126"/>
	<g>
		<line fill="none" stroke="#231F20" stroke-linecap="round" stroke-linejoin="round" x1="40" y1="125.5" x2="42" y2="125.5"/>
		
			<line fill="none" stroke="#231F20" stroke-linecap="round" stroke-linejoin="round" stroke-dasharray="4,4" x1="46" y1="125.5" x2="213" y2="125.5"/>
		<line fill="none" stroke="#231F20" stroke-linecap="round" stroke-linejoin="round" x1="215" y1="125.5" x2="217" y2="125.5"/>
	</g>
</g>
<g>
	<line fill="#FFFFFF" x1="40" y1="137" x2="217" y2="137"/>
	<g>
		<line fill="none" stroke="#231F20" stroke-linecap="round" stroke-linejoin="round" x1="40" y1="136.5" x2="42" y2="136.5"/>
		
			<line fill="none" stroke="#231F20" stroke-linecap="round" stroke-linejoin="round" stroke-dasharray="4,4" x1="46" y1="136.5" x2="213" y2="136.5"/>
		<line fill="none" stroke="#231F20" stroke-linecap="round" stroke-linejoin="round" x1="215" y1="136.5" x2="217" y2="136.5"/>
	</g>
</g>
</svg>
