<?xml version="1.0" encoding="utf-8"?>
<!-- Generator: Adobe Illustrator 16.0.0, SVG Export Plug-In . SVG Version: 6.00 Build 0)  -->
<!DOCTYPE svg PUBLIC "-//W3C//DTD SVG 1.1//EN" "http://www.w3.org/Graphics/SVG/1.1/DTD/svg11.dtd">
<svg version="1.1" id="Layer_1" xmlns="http://www.w3.org/2000/svg" xmlns:xlink="http://www.w3.org/1999/xlink" x="0px" y="0px"
	 width="538.58px" height="226.77px" viewBox="0 0 538.58 226.77" enable-background="new 0 0 538.58 226.77" xml:space="preserve">
<path fill="#A87D50" stroke="#231F20" stroke-linecap="round" stroke-linejoin="round" stroke-miterlimit="10" d="M86.283,71.229"/>
<circle fill="#F6C434" stroke="#000000" stroke-width="1.5" stroke-miterlimit="10" cx="61.126" cy="117.492" r="35.434"/>
<path fill="#F9BF76" d="M61.125,160.004c-23.354,0-42.355-19-42.355-42.354s19.001-42.354,42.355-42.354s42.355,19,42.355,42.354
	C103.481,141.004,84.479,160.004,61.125,160.004z M61.125,82.431c-19.42,0-35.22,15.799-35.22,35.22s15.8,35.22,35.22,35.22
	s35.22-15.799,35.22-35.22S80.545,82.431,61.125,82.431z"/>
<circle fill="#D1323E" cx="60.345" cy="93.862" r="2.564"/>
<circle fill="#D1323E" cx="45.504" cy="99.148" r="3.368"/>
<circle fill="#D1323E" cx="53.656" cy="108.423" r="3.368"/>
<circle fill="#D1323E" cx="79.917" cy="129.389" r="3.368"/>
<circle fill="#D1323E" cx="36.027" cy="115.031" r="4.17"/>
<circle fill="#D1323E" cx="71.487" cy="136.541" r="2.417"/>
<circle fill="#D1323E" cx="82.683" cy="117.823" r="2.161"/>
<circle fill="#D1323E" cx="49.946" cy="123.737" r="2.553"/>
<circle fill="#D1323E" cx="68.114" cy="110.719" r="3.476"/>
<circle fill="#D1323E" cx="73.904" cy="97.338" r="3.475"/>
<circle fill="#D1323E" cx="82.276" cy="107.829" r="2.972"/>
<circle fill="#D1323E" cx="41.338" cy="130.901" r="3.222"/>
<circle fill="#D1323E" cx="57.322" cy="141.557" r="4.59"/>
<circle fill="#D1323E" cx="64.817" cy="125.441" r="4.59"/>
<path fill="none" stroke="#231F20" stroke-linecap="round" stroke-linejoin="round" stroke-miterlimit="10" d="M64.817,75.457
	c0,0,34.645,4.607,38.664,37.936c2.498,20.72-9.602,35.818-23.564,42.207c-26.26,12.017-46.548-3.9-51.254-10.779"/>
<path fill="#A87D50" stroke="#231F20" stroke-linecap="round" stroke-linejoin="round" stroke-miterlimit="10" d="M290.283,71.229"
	/>
<circle fill="#F6C434" stroke="#000000" stroke-width="1.5" stroke-miterlimit="10" cx="265.126" cy="117.492" r="35.434"/>
<path fill="#F9BF76" d="M265.125,160.004c-23.354,0-42.355-19-42.355-42.354s19.001-42.354,42.355-42.354
	c23.354,0,42.354,19,42.354,42.354C307.481,141.004,288.479,160.004,265.125,160.004z M265.125,82.431
	c-19.42,0-35.22,15.799-35.22,35.22s15.8,35.22,35.22,35.22s35.22-15.799,35.22-35.22S284.545,82.431,265.125,82.431z"/>
<circle fill="#D1323E" cx="264.345" cy="93.862" r="2.564"/>
<circle fill="#D1323E" cx="249.504" cy="99.148" r="3.368"/>
<circle fill="#D1323E" cx="257.656" cy="108.423" r="3.368"/>
<circle fill="#D1323E" cx="283.917" cy="129.389" r="3.368"/>
<circle fill="#D1323E" cx="240.027" cy="115.031" r="4.17"/>
<circle fill="#D1323E" cx="275.487" cy="136.541" r="2.417"/>
<circle fill="#D1323E" cx="286.683" cy="117.823" r="2.161"/>
<circle fill="#D1323E" cx="253.946" cy="123.737" r="2.553"/>
<circle fill="#D1323E" cx="272.114" cy="110.719" r="3.476"/>
<circle fill="#D1323E" cx="277.904" cy="97.338" r="3.475"/>
<circle fill="#D1323E" cx="286.276" cy="107.829" r="2.972"/>
<circle fill="#D1323E" cx="245.338" cy="130.901" r="3.222"/>
<circle fill="#D1323E" cx="261.322" cy="141.557" r="4.59"/>
<circle fill="#D1323E" cx="268.817" cy="125.441" r="4.59"/>
<path fill="none" stroke="#231F20" stroke-linecap="round" stroke-linejoin="round" stroke-miterlimit="10" d="M268.817,75.457
	c0,0,34.645,4.607,38.665,37.936c2.498,20.72-9.603,35.818-23.564,42.207c-26.26,12.017-46.548-3.9-51.254-10.779"/>
<path fill="#A87D50" stroke="#231F20" stroke-linecap="round" stroke-linejoin="round" stroke-miterlimit="10" d="M198.283,71.229"
	/>
<circle fill="#F6C434" stroke="#000000" stroke-width="1.5" stroke-miterlimit="10" cx="173.126" cy="117.492" r="35.434"/>
<path fill="#F9BF76" d="M173.125,160.004c-23.354,0-42.355-19-42.355-42.354s19.001-42.354,42.355-42.354
	c23.354,0,42.354,19,42.354,42.354C215.481,141.004,196.479,160.004,173.125,160.004z M173.125,82.431
	c-19.42,0-35.22,15.799-35.22,35.22s15.8,35.22,35.22,35.22s35.22-15.799,35.22-35.22S192.545,82.431,173.125,82.431z"/>
<circle fill="#D1323E" cx="172.345" cy="93.862" r="2.564"/>
<circle fill="#D1323E" cx="157.504" cy="99.148" r="3.368"/>
<circle fill="#D1323E" cx="165.656" cy="108.423" r="3.368"/>
<circle fill="#D1323E" cx="191.917" cy="129.389" r="3.368"/>
<circle fill="#D1323E" cx="148.027" cy="115.031" r="4.17"/>
<circle fill="#D1323E" cx="183.487" cy="136.541" r="2.417"/>
<circle fill="#D1323E" cx="194.683" cy="117.823" r="2.161"/>
<circle fill="#D1323E" cx="161.946" cy="123.737" r="2.553"/>
<circle fill="#D1323E" cx="180.114" cy="110.719" r="3.476"/>
<circle fill="#D1323E" cx="185.904" cy="97.338" r="3.475"/>
<circle fill="#D1323E" cx="194.276" cy="107.829" r="2.972"/>
<circle fill="#D1323E" cx="153.338" cy="130.901" r="3.222"/>
<circle fill="#D1323E" cx="169.322" cy="141.557" r="4.59"/>
<circle fill="#D1323E" cx="176.817" cy="125.441" r="4.59"/>
<path fill="none" stroke="#231F20" stroke-linecap="round" stroke-linejoin="round" stroke-miterlimit="10" d="M176.817,75.457
	c0,0,34.645,4.607,38.665,37.936c2.498,20.72-9.603,35.818-23.564,42.207c-26.26,12.017-46.548-3.9-51.254-10.779"/>
<path fill="#A87D50" stroke="#231F20" stroke-linecap="round" stroke-linejoin="round" stroke-miterlimit="10" d="M495.283,20.229"
	/>
<circle fill="#F6C434" stroke="#000000" stroke-width="1.5" stroke-miterlimit="10" cx="470.126" cy="66.492" r="35.434"/>
<path fill="#F9BF76" d="M470.125,109.004c-23.354,0-42.354-19-42.354-42.354s19-42.354,42.354-42.354s42.354,19,42.354,42.354
	C512.481,90.004,493.479,109.004,470.125,109.004z M470.125,31.431c-19.42,0-35.22,15.799-35.22,35.22s15.8,35.22,35.22,35.22
	s35.22-15.799,35.22-35.22S489.545,31.431,470.125,31.431z"/>
<circle fill="#D1323E" cx="469.345" cy="42.862" r="2.564"/>
<circle fill="#D1323E" cx="454.504" cy="48.148" r="3.368"/>
<circle fill="#D1323E" cx="462.656" cy="57.423" r="3.368"/>
<circle fill="#D1323E" cx="488.917" cy="78.389" r="3.368"/>
<circle fill="#D1323E" cx="445.027" cy="64.031" r="4.17"/>
<circle fill="#D1323E" cx="480.487" cy="85.541" r="2.417"/>
<circle fill="#D1323E" cx="491.683" cy="66.823" r="2.161"/>
<circle fill="#D1323E" cx="458.946" cy="72.737" r="2.553"/>
<circle fill="#D1323E" cx="477.114" cy="59.719" r="3.476"/>
<circle fill="#D1323E" cx="482.904" cy="46.338" r="3.475"/>
<circle fill="#D1323E" cx="491.276" cy="56.829" r="2.972"/>
<circle fill="#D1323E" cx="450.338" cy="79.901" r="3.222"/>
<circle fill="#D1323E" cx="466.322" cy="90.557" r="4.59"/>
<circle fill="#D1323E" cx="473.817" cy="74.441" r="4.59"/>
<path fill="none" stroke="#231F20" stroke-linecap="round" stroke-linejoin="round" stroke-miterlimit="10" d="M473.817,24.457
	c0,0,34.645,4.607,38.664,37.936c2.498,20.72-9.603,35.818-23.564,42.207c-26.26,12.017-46.548-3.9-51.254-10.779"/>
<path fill="#A87D50" stroke="#231F20" stroke-linecap="round" stroke-linejoin="round" stroke-miterlimit="10" d="M403.283,20.229"
	/>
<circle fill="#F6C434" stroke="#000000" stroke-width="1.5" stroke-miterlimit="10" cx="378.126" cy="66.492" r="35.434"/>
<path fill="#F9BF76" d="M378.125,109.004c-23.354,0-42.354-19-42.354-42.354s19-42.354,42.354-42.354s42.354,19,42.354,42.354
	C420.481,90.004,401.479,109.004,378.125,109.004z M378.125,31.431c-19.42,0-35.22,15.799-35.22,35.22s15.8,35.22,35.22,35.22
	s35.22-15.799,35.22-35.22S397.545,31.431,378.125,31.431z"/>
<circle fill="#D1323E" cx="377.345" cy="42.862" r="2.564"/>
<circle fill="#D1323E" cx="362.504" cy="48.148" r="3.368"/>
<circle fill="#D1323E" cx="370.656" cy="57.423" r="3.368"/>
<circle fill="#D1323E" cx="396.917" cy="78.389" r="3.368"/>
<circle fill="#D1323E" cx="353.027" cy="64.031" r="4.17"/>
<circle fill="#D1323E" cx="388.487" cy="85.541" r="2.417"/>
<circle fill="#D1323E" cx="399.683" cy="66.823" r="2.161"/>
<circle fill="#D1323E" cx="366.946" cy="72.737" r="2.553"/>
<circle fill="#D1323E" cx="385.114" cy="59.719" r="3.476"/>
<circle fill="#D1323E" cx="390.904" cy="46.338" r="3.475"/>
<circle fill="#D1323E" cx="399.276" cy="56.829" r="2.972"/>
<circle fill="#D1323E" cx="358.338" cy="79.901" r="3.222"/>
<circle fill="#D1323E" cx="374.322" cy="90.557" r="4.59"/>
<circle fill="#D1323E" cx="381.817" cy="74.441" r="4.59"/>
<path fill="none" stroke="#231F20" stroke-linecap="round" stroke-linejoin="round" stroke-miterlimit="10" d="M381.817,24.457
	c0,0,34.645,4.607,38.664,37.936c2.498,20.72-9.603,35.818-23.564,42.207c-26.26,12.017-46.548-3.9-51.254-10.779"/>
<path fill="#A87D50" stroke="#231F20" stroke-linecap="round" stroke-linejoin="round" stroke-miterlimit="10" d="M495.283,116.229"
	/>
<circle fill="#F6C434" stroke="#000000" stroke-width="1.5" stroke-miterlimit="10" cx="470.126" cy="162.492" r="35.434"/>
<path fill="#F9BF76" d="M470.125,205.004c-23.354,0-42.354-19-42.354-42.354s19-42.354,42.354-42.354s42.354,19,42.354,42.354
	C512.481,186.004,493.479,205.004,470.125,205.004z M470.125,127.431c-19.42,0-35.22,15.799-35.22,35.22s15.8,35.22,35.22,35.22
	s35.22-15.799,35.22-35.22S489.545,127.431,470.125,127.431z"/>
<circle fill="#D1323E" cx="469.345" cy="138.862" r="2.564"/>
<circle fill="#D1323E" cx="454.504" cy="144.148" r="3.368"/>
<circle fill="#D1323E" cx="462.656" cy="153.423" r="3.368"/>
<circle fill="#D1323E" cx="488.917" cy="174.389" r="3.368"/>
<circle fill="#D1323E" cx="445.027" cy="160.031" r="4.17"/>
<circle fill="#D1323E" cx="480.487" cy="181.541" r="2.417"/>
<circle fill="#D1323E" cx="491.683" cy="162.823" r="2.161"/>
<circle fill="#D1323E" cx="458.946" cy="168.737" r="2.553"/>
<circle fill="#D1323E" cx="477.114" cy="155.719" r="3.476"/>
<circle fill="#D1323E" cx="482.904" cy="142.338" r="3.475"/>
<circle fill="#D1323E" cx="491.276" cy="152.829" r="2.972"/>
<circle fill="#D1323E" cx="450.338" cy="175.901" r="3.222"/>
<circle fill="#D1323E" cx="466.322" cy="186.557" r="4.59"/>
<circle fill="#D1323E" cx="473.817" cy="170.441" r="4.59"/>
<path fill="none" stroke="#231F20" stroke-linecap="round" stroke-linejoin="round" stroke-miterlimit="10" d="M473.817,120.457
	c0,0,34.645,4.607,38.664,37.936c2.498,20.72-9.603,35.818-23.564,42.207c-26.26,12.017-46.548-3.9-51.254-10.779"/>
<path fill="#A87D50" stroke="#231F20" stroke-linecap="round" stroke-linejoin="round" stroke-miterlimit="10" d="M403.283,116.229"
	/>
<circle fill="#F6C434" stroke="#000000" stroke-width="1.5" stroke-miterlimit="10" cx="378.126" cy="162.492" r="35.434"/>
<path fill="#F9BF76" d="M378.125,205.004c-23.354,0-42.354-19-42.354-42.354s19-42.354,42.354-42.354s42.354,19,42.354,42.354
	C420.481,186.004,401.479,205.004,378.125,205.004z M378.125,127.431c-19.42,0-35.22,15.799-35.22,35.22s15.8,35.22,35.22,35.22
	s35.22-15.799,35.22-35.22S397.545,127.431,378.125,127.431z"/>
<circle fill="#D1323E" cx="377.345" cy="138.862" r="2.564"/>
<circle fill="#D1323E" cx="362.504" cy="144.148" r="3.368"/>
<circle fill="#D1323E" cx="370.656" cy="153.423" r="3.368"/>
<circle fill="#D1323E" cx="396.917" cy="174.389" r="3.368"/>
<circle fill="#D1323E" cx="353.027" cy="160.031" r="4.17"/>
<circle fill="#D1323E" cx="388.487" cy="181.541" r="2.417"/>
<circle fill="#D1323E" cx="399.683" cy="162.823" r="2.161"/>
<circle fill="#D1323E" cx="366.946" cy="168.737" r="2.553"/>
<circle fill="#D1323E" cx="385.114" cy="155.719" r="3.476"/>
<circle fill="#D1323E" cx="390.904" cy="142.338" r="3.475"/>
<circle fill="#D1323E" cx="399.276" cy="152.829" r="2.972"/>
<circle fill="#D1323E" cx="358.338" cy="175.901" r="3.222"/>
<circle fill="#D1323E" cx="374.322" cy="186.557" r="4.59"/>
<circle fill="#D1323E" cx="381.817" cy="170.441" r="4.59"/>
<path fill="none" stroke="#231F20" stroke-linecap="round" stroke-linejoin="round" stroke-miterlimit="10" d="M381.817,120.457
	c0,0,34.645,4.607,38.664,37.936c2.498,20.72-9.603,35.818-23.564,42.207c-26.26,12.017-46.548-3.9-51.254-10.779"/>
</svg>
