<?xml version="1.0" encoding="utf-8"?>
<!-- Generator: Adobe Illustrator 16.0.0, SVG Export Plug-In . SVG Version: 6.00 Build 0)  -->
<!DOCTYPE svg PUBLIC "-//W3C//DTD SVG 1.1//EN" "http://www.w3.org/Graphics/SVG/1.1/DTD/svg11.dtd">
<svg version="1.1" id="Layer_1" xmlns="http://www.w3.org/2000/svg" xmlns:xlink="http://www.w3.org/1999/xlink" x="0px" y="0px"
	 width="255.12px" height="184.25px" viewBox="0 0 255.12 184.25" enable-background="new 0 0 255.12 184.25" xml:space="preserve">
<polygon fill="#FFF100" points="184.083,90 110.189,90 35.008,96.401 34.753,129.814 109.546,124.617 184.337,122.884 "/>
<polygon fill="none" stroke="#231F20" stroke-width="1.5" stroke-miterlimit="10" points="184.337,123.654 109.577,123.654 
	34.753,129.895 34.753,68.009 34.753,19.342 110.393,13.102 184.337,13.102 "/>
<path fill="#FFFFFF" stroke="#231F20" stroke-miterlimit="10" d="M184.337,59.38"/>
<g>
	<g>
		
			<line fill="none" stroke="#231F20" stroke-linecap="round" stroke-linejoin="round" x1="35.008" y1="30.262" x2="37.001" y2="30.096"/>
		<polyline fill="none" stroke="#231F20" stroke-linecap="round" stroke-linejoin="round" stroke-dasharray="3.928,3.928" points="
			40.855,30.247 109.781,24.5 180,24.5 		"/>
		<line fill="none" stroke="#231F20" stroke-linecap="round" stroke-linejoin="round" x1="182" y1="24.5" x2="184" y2="24.5"/>
	</g>
</g>
<g>
	<g>
		
			<line fill="none" stroke="#231F20" stroke-linecap="round" stroke-linejoin="round" x1="35.008" y1="52.882" x2="37.001" y2="52.716"/>
		<polyline fill="none" stroke="#231F20" stroke-linecap="round" stroke-linejoin="round" stroke-dasharray="3.928,3.928" points="
			40.856,52.248 109.985,46.5 180,46.5 		"/>
		<line fill="none" stroke="#231F20" stroke-linecap="round" stroke-linejoin="round" x1="182" y1="46.5" x2="184" y2="46.5"/>
	</g>
</g>
<g>
	<g>
		
			<line fill="none" stroke="#231F20" stroke-linecap="round" stroke-linejoin="round" x1="35.008" y1="42.182" x2="37.001" y2="42.016"/>
		<polyline fill="none" stroke="#231F20" stroke-linecap="round" stroke-linejoin="round" stroke-dasharray="3.928,3.928" points="
			40.856,41.248 109.985,35.5 180,35.5 		"/>
		<line fill="none" stroke="#231F20" stroke-linecap="round" stroke-linejoin="round" x1="182" y1="35.5" x2="184" y2="35.5"/>
	</g>
</g>
<g>
	<g>
		
			<line fill="none" stroke="#231F20" stroke-linecap="round" stroke-linejoin="round" x1="35.008" y1="63.803" x2="37.001" y2="63.636"/>
		<polyline fill="none" stroke="#231F20" stroke-linecap="round" stroke-linejoin="round" stroke-dasharray="3.928,3.928" points="
			40.855,63.247 109.781,57.5 180,57.5 		"/>
		<line fill="none" stroke="#231F20" stroke-linecap="round" stroke-linejoin="round" x1="182" y1="57.5" x2="184" y2="57.5"/>
	</g>
</g>
<g>
	<g>
		
			<line fill="none" stroke="#231F20" stroke-linecap="round" stroke-linejoin="round" x1="35.008" y1="74.723" x2="37.001" y2="74.556"/>
		<polyline fill="none" stroke="#231F20" stroke-linecap="round" stroke-linejoin="round" stroke-dasharray="3.928,3.928" points="
			40.855,74.247 109.781,68.5 180,68.5 		"/>
		<line fill="none" stroke="#231F20" stroke-linecap="round" stroke-linejoin="round" x1="182" y1="68.5" x2="184" y2="68.5"/>
	</g>
</g>
<g>
	<g>
		
			<line fill="none" stroke="#231F20" stroke-linecap="round" stroke-linejoin="round" x1="35.008" y1="85.643" x2="37.001" y2="85.477"/>
		<polyline fill="none" stroke="#231F20" stroke-linecap="round" stroke-linejoin="round" stroke-dasharray="3.928,3.928" points="
			40.855,85.247 109.781,79.5 180,79.5 		"/>
		<line fill="none" stroke="#231F20" stroke-linecap="round" stroke-linejoin="round" x1="182" y1="79.5" x2="184" y2="79.5"/>
	</g>
</g>
<g>
	<g>
		
			<line fill="none" stroke="#231F20" stroke-linecap="round" stroke-linejoin="round" x1="35.008" y1="96.643" x2="37.001" y2="96.477"/>
		<polyline fill="none" stroke="#231F20" stroke-linecap="round" stroke-linejoin="round" stroke-dasharray="3.928,3.928" points="
			40.855,96.246 109.781,90.5 180,90.5 		"/>
		<line fill="none" stroke="#231F20" stroke-linecap="round" stroke-linejoin="round" x1="182" y1="90.5" x2="184" y2="90.5"/>
	</g>
</g>
<g>
	<g>
		
			<line fill="none" stroke="#231F20" stroke-linecap="round" stroke-linejoin="round" x1="35.008" y1="107.483" x2="37.001" y2="107.316"/>
		<polyline fill="none" stroke="#231F20" stroke-linecap="round" stroke-linejoin="round" stroke-dasharray="3.928,3.928" points="
			40.855,107.244 109.375,101.5 180,101.5 		"/>
		<line fill="none" stroke="#231F20" stroke-linecap="round" stroke-linejoin="round" x1="182" y1="101.5" x2="184" y2="101.5"/>
	</g>
</g>
<g>
	<g>
		
			<line fill="none" stroke="#231F20" stroke-linecap="round" stroke-linejoin="round" x1="35.008" y1="119.184" x2="37.001" y2="119.017"/>
		<polyline fill="none" stroke="#231F20" stroke-linecap="round" stroke-linejoin="round" stroke-dasharray="3.928,3.928" points="
			40.855,118.246 109.578,112.5 180,112.5 		"/>
		<line fill="none" stroke="#231F20" stroke-linecap="round" stroke-linejoin="round" x1="182" y1="112.5" x2="184" y2="112.5"/>
	</g>
</g>
<g>
	<g>
		<line fill="none" stroke="#231F20" stroke-miterlimit="10" x1="109.5" y1="13" x2="109.5" y2="15"/>
		<line fill="none" stroke="#231F20" stroke-miterlimit="10" stroke-dasharray="4,4" x1="109.5" y1="19" x2="109.5" y2="120"/>
		<line fill="none" stroke="#231F20" stroke-miterlimit="10" x1="109.5" y1="121" x2="109.5" y2="123"/>
	</g>
</g>
<rect x="156" y="53" fill="#FFFFFF" stroke="#231F20" stroke-width="2" stroke-miterlimit="10" width="64" height="110"/>
<polygon fill="#FFFFFF" stroke="#231F20" stroke-width="2" stroke-miterlimit="10" points="212,174.294 156,163.374 156,52.612 
	212,63.533 "/>
</svg>
