<svg id="Camada_1" data-name="Camada 1" xmlns="http://www.w3.org/2000/svg" viewBox="0 0 457.39 79.22"><defs><style>.cls-1{fill:none;stroke:#000;stroke-miterlimit:10;stroke-width:0.4px;}</style></defs><circle class="cls-1" cx="34.24" cy="39.61" r="23.81" transform="translate(-9.02 10.12) rotate(-14.87)"/><circle class="cls-1" cx="89.8" cy="39.61" r="23.81" transform="translate(-5.87 17.7) rotate(-10.9)"/><circle class="cls-1" cx="145.36" cy="39.61" r="23.81" transform="translate(-4.87 28.2) rotate(-10.9)"/><circle class="cls-1" cx="200.92" cy="39.61" r="23.81" transform="translate(-3.75 32.69) rotate(-9.22)"/><circle class="cls-1" cx="256.48" cy="39.61" r="23.81" transform="translate(-2.24 59.99) rotate(-13.28)"/><circle class="cls-1" cx="312.04" cy="39.61" r="23.81" transform="translate(-2.38 30.94) rotate(-5.65)"/><circle class="cls-1" cx="367.59" cy="39.61" r="23.81" transform="translate(0.73 85.52) rotate(-13.28)"/><circle class="cls-1" cx="423.15" cy="39.61" r="23.81" transform="translate(-1.84 41.89) rotate(-5.65)"/><line class="cls-1" x1="34.24" y1="39.61" x2="58.05" y2="39.61"/><line class="cls-1" x1="34.24" y1="39.61" x2="57.24" y2="33.45"/><line class="cls-1" x1="34.24" y1="39.61" x2="54.86" y2="27.7"/><line class="cls-1" x1="34.24" y1="39.61" x2="51.08" y2="22.77"/><line class="cls-1" x1="34.24" y1="39.61" x2="46.15" y2="18.99"/><line class="cls-1" x1="34.24" y1="39.61" x2="40.4" y2="16.61"/><line class="cls-1" x1="34.24" y1="39.61" x2="34.24" y2="15.8"/><line class="cls-1" x1="34.24" y1="39.61" x2="28.08" y2="16.61"/><line class="cls-1" x1="34.24" y1="39.61" x2="22.34" y2="18.99"/><line class="cls-1" x1="34.24" y1="39.61" x2="17.41" y2="22.77"/><line class="cls-1" x1="34.24" y1="39.61" x2="13.62" y2="27.7"/><line class="cls-1" x1="34.24" y1="39.61" x2="11.24" y2="33.45"/><line class="cls-1" x1="34.24" y1="39.61" x2="10.43" y2="39.61"/><line class="cls-1" x1="34.24" y1="39.61" x2="11.24" y2="45.77"/><line class="cls-1" x1="34.24" y1="39.61" x2="13.62" y2="51.51"/><line class="cls-1" x1="34.24" y1="39.61" x2="17.41" y2="56.44"/><line class="cls-1" x1="34.24" y1="39.61" x2="22.34" y2="60.23"/><line class="cls-1" x1="34.24" y1="39.61" x2="28.08" y2="62.61"/><line class="cls-1" x1="34.24" y1="39.61" x2="34.24" y2="63.42"/><line class="cls-1" x1="34.24" y1="39.61" x2="40.4" y2="62.61"/><line class="cls-1" x1="34.24" y1="39.61" x2="46.15" y2="60.23"/><line class="cls-1" x1="34.24" y1="39.61" x2="51.08" y2="56.44"/><line class="cls-1" x1="34.24" y1="39.61" x2="54.86" y2="51.51"/><line class="cls-1" x1="34.24" y1="39.61" x2="57.24" y2="45.77"/><line class="cls-1" x1="65.99" y1="39.61" x2="89.8" y2="39.61"/><line class="cls-1" x1="66.8" y1="33.45" x2="89.8" y2="39.61"/><line class="cls-1" x1="69.18" y1="27.7" x2="89.8" y2="39.61"/><line class="cls-1" x1="72.96" y1="22.77" x2="89.8" y2="39.61"/><line class="cls-1" x1="77.9" y1="18.99" x2="89.8" y2="39.61"/><line class="cls-1" x1="89.8" y1="39.61" x2="83.64" y2="16.61"/><line class="cls-1" x1="89.8" y1="39.61" x2="89.8" y2="15.8"/><line class="cls-1" x1="89.8" y1="39.61" x2="95.96" y2="16.61"/><line class="cls-1" x1="89.8" y1="39.61" x2="101.71" y2="18.99"/><line class="cls-1" x1="89.8" y1="39.61" x2="106.64" y2="22.77"/><line class="cls-1" x1="89.8" y1="39.61" x2="110.42" y2="27.7"/><line class="cls-1" x1="89.8" y1="39.61" x2="112.8" y2="33.45"/><line class="cls-1" x1="89.8" y1="39.61" x2="113.61" y2="39.61"/><line class="cls-1" x1="89.8" y1="39.61" x2="112.8" y2="45.77"/><line class="cls-1" x1="89.8" y1="39.61" x2="110.42" y2="51.51"/><line class="cls-1" x1="89.8" y1="39.61" x2="106.64" y2="56.44"/><line class="cls-1" x1="89.8" y1="39.61" x2="101.71" y2="60.23"/><line class="cls-1" x1="89.8" y1="39.61" x2="95.96" y2="62.61"/><line class="cls-1" x1="89.8" y1="39.61" x2="89.8" y2="63.42"/><line class="cls-1" x1="89.8" y1="39.61" x2="83.64" y2="62.61"/><line class="cls-1" x1="89.8" y1="39.61" x2="77.9" y2="60.23"/><line class="cls-1" x1="89.8" y1="39.61" x2="72.96" y2="56.44"/><line class="cls-1" x1="89.8" y1="39.61" x2="69.18" y2="51.51"/><line class="cls-1" x1="89.8" y1="39.61" x2="66.8" y2="45.77"/><line class="cls-1" x1="145.36" y1="39.61" x2="121.55" y2="39.61"/><line class="cls-1" x1="145.36" y1="39.61" x2="122.36" y2="45.77"/><line class="cls-1" x1="145.36" y1="39.61" x2="124.74" y2="51.51"/><line class="cls-1" x1="145.36" y1="39.61" x2="128.52" y2="56.44"/><line class="cls-1" x1="145.36" y1="39.61" x2="133.45" y2="60.23"/><line class="cls-1" x1="145.36" y1="39.61" x2="139.2" y2="62.61"/><line class="cls-1" x1="145.36" y1="39.61" x2="145.36" y2="63.42"/><line class="cls-1" x1="145.36" y1="39.61" x2="151.52" y2="62.61"/><line class="cls-1" x1="145.36" y1="39.61" x2="157.26" y2="60.23"/><line class="cls-1" x1="145.36" y1="39.61" x2="162.2" y2="56.44"/><line class="cls-1" x1="145.36" y1="39.61" x2="165.98" y2="51.51"/><line class="cls-1" x1="145.36" y1="39.61" x2="168.36" y2="45.77"/><line class="cls-1" x1="145.36" y1="39.61" x2="169.17" y2="39.61"/><line class="cls-1" x1="145.36" y1="39.61" x2="168.36" y2="33.45"/><line class="cls-1" x1="145.36" y1="39.61" x2="165.98" y2="27.7"/><line class="cls-1" x1="145.36" y1="39.61" x2="162.2" y2="22.77"/><line class="cls-1" x1="145.36" y1="39.61" x2="157.26" y2="18.99"/><line class="cls-1" x1="145.36" y1="39.61" x2="151.52" y2="16.61"/><line class="cls-1" x1="145.36" y1="39.61" x2="145.36" y2="15.8"/><line class="cls-1" x1="145.36" y1="39.61" x2="139.2" y2="16.61"/><line class="cls-1" x1="145.36" y1="39.61" x2="133.45" y2="18.99"/><line class="cls-1" x1="145.36" y1="39.61" x2="128.52" y2="22.77"/><line class="cls-1" x1="145.36" y1="39.61" x2="124.74" y2="27.7"/><line class="cls-1" x1="145.36" y1="39.61" x2="122.36" y2="33.45"/><line class="cls-1" x1="177.11" y1="39.61" x2="224.73" y2="39.61"/><line class="cls-1" x1="177.92" y1="45.77" x2="223.92" y2="33.45"/><line class="cls-1" x1="180.3" y1="51.51" x2="221.54" y2="27.7"/><line class="cls-1" x1="184.08" y1="56.44" x2="217.75" y2="22.77"/><line class="cls-1" x1="189.01" y1="60.23" x2="212.82" y2="18.99"/><line class="cls-1" x1="194.76" y1="62.61" x2="207.08" y2="16.61"/><line class="cls-1" x1="200.92" y1="63.42" x2="200.92" y2="15.8"/><line class="cls-1" x1="207.08" y1="62.61" x2="194.76" y2="16.61"/><line class="cls-1" x1="212.82" y1="60.23" x2="189.01" y2="18.99"/><line class="cls-1" x1="217.75" y1="56.44" x2="184.08" y2="22.77"/><line class="cls-1" x1="221.54" y1="51.51" x2="180.3" y2="27.7"/><line class="cls-1" x1="223.92" y1="45.77" x2="177.92" y2="33.45"/><line class="cls-1" x1="232.67" y1="39.61" x2="280.29" y2="39.61"/><line class="cls-1" x1="233.48" y1="45.77" x2="279.48" y2="33.45"/><line class="cls-1" x1="235.86" y1="51.51" x2="277.1" y2="27.7"/><line class="cls-1" x1="239.64" y1="56.44" x2="273.31" y2="22.77"/><line class="cls-1" x1="244.57" y1="60.23" x2="268.38" y2="18.99"/><line class="cls-1" x1="250.31" y1="62.61" x2="262.64" y2="16.61"/><line class="cls-1" x1="256.48" y1="63.42" x2="256.48" y2="15.8"/><line class="cls-1" x1="262.64" y1="62.61" x2="250.31" y2="16.61"/><line class="cls-1" x1="268.38" y1="60.23" x2="244.57" y2="18.99"/><line class="cls-1" x1="273.31" y1="56.44" x2="239.64" y2="22.77"/><line class="cls-1" x1="277.1" y1="51.51" x2="235.86" y2="27.7"/><line class="cls-1" x1="233.48" y1="33.45" x2="279.48" y2="45.77"/><line class="cls-1" x1="288.22" y1="39.61" x2="335.85" y2="39.61"/><line class="cls-1" x1="289.04" y1="45.77" x2="335.03" y2="33.45"/><line class="cls-1" x1="291.41" y1="51.51" x2="332.66" y2="27.7"/><line class="cls-1" x1="295.2" y1="56.44" x2="328.87" y2="22.77"/><line class="cls-1" x1="300.13" y1="60.23" x2="323.94" y2="18.99"/><line class="cls-1" x1="305.87" y1="62.61" x2="318.2" y2="16.61"/><line class="cls-1" x1="312.04" y1="63.42" x2="312.04" y2="15.8"/><line class="cls-1" x1="318.2" y1="62.61" x2="305.87" y2="16.61"/><line class="cls-1" x1="323.94" y1="60.23" x2="300.13" y2="18.99"/><line class="cls-1" x1="328.87" y1="56.44" x2="295.2" y2="22.77"/><line class="cls-1" x1="332.66" y1="51.51" x2="291.41" y2="27.7"/><line class="cls-1" x1="335.03" y1="45.77" x2="289.04" y2="33.45"/><line class="cls-1" x1="343.78" y1="39.61" x2="391.4" y2="39.61"/><line class="cls-1" x1="344.59" y1="45.77" x2="390.59" y2="33.45"/><line class="cls-1" x1="346.97" y1="51.51" x2="388.21" y2="27.7"/><line class="cls-1" x1="350.76" y1="56.44" x2="384.43" y2="22.77"/><line class="cls-1" x1="355.69" y1="60.23" x2="379.5" y2="18.99"/><line class="cls-1" x1="361.43" y1="62.61" x2="373.76" y2="16.61"/><line class="cls-1" x1="367.59" y1="63.42" x2="367.59" y2="15.8"/><line class="cls-1" x1="373.76" y1="62.61" x2="361.43" y2="16.61"/><line class="cls-1" x1="379.5" y1="60.23" x2="355.69" y2="18.99"/><line class="cls-1" x1="384.43" y1="56.44" x2="350.76" y2="22.77"/><line class="cls-1" x1="388.21" y1="51.51" x2="346.97" y2="27.7"/><line class="cls-1" x1="390.59" y1="45.77" x2="344.59" y2="33.45"/><line class="cls-1" x1="399.34" y1="39.61" x2="446.96" y2="39.61"/><line class="cls-1" x1="400.15" y1="45.77" x2="446.15" y2="33.45"/><line class="cls-1" x1="402.53" y1="51.51" x2="443.77" y2="27.7"/><line class="cls-1" x1="406.32" y1="56.44" x2="439.99" y2="22.77"/><line class="cls-1" x1="411.25" y1="60.23" x2="435.06" y2="18.99"/><line class="cls-1" x1="416.99" y1="62.61" x2="429.32" y2="16.61"/><line class="cls-1" x1="423.15" y1="63.42" x2="423.15" y2="15.8"/><line class="cls-1" x1="429.32" y1="62.61" x2="416.99" y2="16.61"/><line class="cls-1" x1="435.06" y1="60.23" x2="411.25" y2="18.99"/><line class="cls-1" x1="439.99" y1="56.44" x2="406.32" y2="22.77"/><line class="cls-1" x1="443.77" y1="51.51" x2="402.53" y2="27.7"/><line class="cls-1" x1="446.15" y1="45.77" x2="400.15" y2="33.45"/></svg>