<svg id="Camada_1" data-name="Camada 1" xmlns="http://www.w3.org/2000/svg" viewBox="0 0 241.65 102.94"><defs><style>.cls-1,.cls-2,.cls-4{fill:none;stroke:#000;}.cls-1,.cls-4{stroke-miterlimit:10;}.cls-1,.cls-2{stroke-width:0.4px;}.cls-2{stroke-linecap:round;stroke-linejoin:round;}.cls-3{fill:#e6164d;}.cls-4{stroke-width:0.57px;}.cls-5{font-size:9.96px;font-family:CMR10;}</style></defs><line class="cls-1" x1="13.77" y1="39.07" x2="227.68" y2="39.07"/><path class="cls-2" d="M225.8,36.68a3.15,3.15,0,0,0,2.07,2.39,3.17,3.17,0,0,0-2.07,2.39"/><line class="cls-1" x1="39.28" y1="37.08" x2="39.28" y2="41.06"/><line class="cls-1" x1="47.79" y1="37.08" x2="47.79" y2="41.06"/><line class="cls-1" x1="56.29" y1="37.08" x2="56.29" y2="41.06"/><line class="cls-1" x1="64.8" y1="37.08" x2="64.8" y2="41.06"/><line class="cls-1" x1="73.3" y1="37.08" x2="73.3" y2="41.06"/><line class="cls-1" x1="81.8" y1="37.08" x2="81.8" y2="41.06"/><line class="cls-1" x1="90.31" y1="37.08" x2="90.31" y2="41.06"/><line class="cls-1" x1="98.81" y1="37.08" x2="98.81" y2="41.06"/><line class="cls-1" x1="107.32" y1="37.08" x2="107.32" y2="41.06"/><line class="cls-1" x1="115.82" y1="37.08" x2="115.82" y2="41.06"/><line class="cls-1" x1="124.32" y1="37.08" x2="124.32" y2="41.06"/><line class="cls-1" x1="132.83" y1="37.08" x2="132.83" y2="41.06"/><line class="cls-1" x1="141.33" y1="37.08" x2="141.33" y2="41.06"/><line class="cls-1" x1="149.84" y1="37.08" x2="149.84" y2="41.06"/><line class="cls-1" x1="158.34" y1="37.08" x2="158.34" y2="41.06"/><line class="cls-1" x1="166.84" y1="37.08" x2="166.84" y2="41.06"/><line class="cls-1" x1="175.35" y1="37.08" x2="175.35" y2="41.06"/><line class="cls-1" x1="183.85" y1="37.08" x2="183.85" y2="41.06"/><line class="cls-1" x1="192.36" y1="37.08" x2="192.36" y2="41.06"/><line class="cls-1" x1="200.86" y1="37.08" x2="200.86" y2="41.06"/><line class="cls-1" x1="209.36" y1="37.08" x2="209.36" y2="41.06"/><line class="cls-1" x1="39.28" y1="36.08" x2="39.28" y2="42.06"/><path d="M39.26,56.64a3.54,3.54,0,0,1-1.94-.52,3.42,3.42,0,0,1-1.27-1.5,5.46,5.46,0,0,1-.45-2.3v-1a5.49,5.49,0,0,1,.45-2.3,3.37,3.37,0,0,1,1.28-1.5,3.87,3.87,0,0,1,3.91,0,3.32,3.32,0,0,1,1.28,1.5A5.41,5.41,0,0,1,43,51.36v.93a5.54,5.54,0,0,1-.45,2.31,3.47,3.47,0,0,1-1.28,1.51,3.63,3.63,0,0,1-2,.53Zm0-.92a2.24,2.24,0,0,0,1.91-.89,4,4,0,0,0,.68-2.49v-1a4.11,4.11,0,0,0-.68-2.51,2.28,2.28,0,0,0-1.91-.9,2.25,2.25,0,0,0-1.9.89,4,4,0,0,0-.69,2.49v1a4,4,0,0,0,.69,2.5,2.26,2.26,0,0,0,1.9.9Z"/><line class="cls-1" x1="90.31" y1="36.08" x2="90.31" y2="42.06"/><path d="M90.66,56.44c-.3,0-.44-.17-.44-.5V48.68a1.27,1.27,0,0,1-.45.38,1.32,1.32,0,0,1-.6.13,1.17,1.17,0,0,1-.82-.28.78.78,0,0,1-.23-.55.59.59,0,0,1,.07-.29.78.78,0,0,1,.14-.2s.09-.06.11,0a1,1,0,0,0,.81.34,1.13,1.13,0,0,0,.8-.32,1.16,1.16,0,0,0,.37-.8h.38c.32,0,.48.17.48.5v8.4c0,.33-.16.5-.48.5Z"/><line class="cls-1" x1="141.33" y1="36.08" x2="141.33" y2="42.06"/><path d="M138.92,56.5a.79.79,0,0,1-.54-.15.58.58,0,0,1-.16-.47v-.36a3,3,0,0,1,.39-1.57,3.6,3.6,0,0,1,1-1.08,12.86,12.86,0,0,1,1.48-.88c.61-.31,1.05-.56,1.33-.73a2.89,2.89,0,0,0,.71-.64,1.42,1.42,0,0,0,.3-.91,1.56,1.56,0,0,0-.55-1.25,2.23,2.23,0,0,0-1.5-.47,2.25,2.25,0,0,0-1.59.54A2.69,2.69,0,0,0,139,49.9s-.07,0-.2,0a.73.73,0,0,1-.36-.16.49.49,0,0,1-.16-.4,1.56,1.56,0,0,1,.19-.68A2.61,2.61,0,0,1,139,48a3.48,3.48,0,0,1,1.05-.66,3.78,3.78,0,0,1,1.39-.25,3.19,3.19,0,0,1,2.23.73,2.47,2.47,0,0,1,.81,1.94,2.31,2.31,0,0,1-.34,1.28,3,3,0,0,1-.89.88,14.83,14.83,0,0,1-1.44.8,12.12,12.12,0,0,0-1.3.71,3.18,3.18,0,0,0-.84.79,2.09,2.09,0,0,0-.37,1.08l0,.28h4.87c.34,0,.51.15.51.44v.08q0,.45-.51.45Z"/><line class="cls-1" x1="192.36" y1="36.08" x2="192.36" y2="42.06"/><path d="M192.11,56.64a4.49,4.49,0,0,1-1.52-.24,3.32,3.32,0,0,1-1.08-.64,2.1,2.1,0,0,1-.5-.6,1.14,1.14,0,0,1-.18-.56.49.49,0,0,1,.15-.38.55.55,0,0,1,.31-.18c.11,0,.17,0,.18,0a2.25,2.25,0,0,0,.94,1.25,3.11,3.11,0,0,0,1.7.46,2.62,2.62,0,0,0,1.69-.51,1.62,1.62,0,0,0,.63-1.34,1.64,1.64,0,0,0-.6-1.37,2.65,2.65,0,0,0-1.72-.49h-.81c-.33,0-.5-.12-.5-.38v-.09c0-.27.16-.4.47-.4h.95a2.24,2.24,0,0,0,1.45-.42,1.48,1.48,0,0,0,.52-1.19,1.46,1.46,0,0,0-.56-1.19,2.47,2.47,0,0,0-1.54-.44,2.52,2.52,0,0,0-1.45.41,2.4,2.4,0,0,0-.9,1.05s-.07,0-.19,0a.87.87,0,0,1-.31-.2.48.48,0,0,1-.13-.35.92.92,0,0,1,.15-.44,2.74,2.74,0,0,1,.39-.48,3.38,3.38,0,0,1,1.07-.62,4,4,0,0,1,1.4-.24,3.66,3.66,0,0,1,2.3.65,2.19,2.19,0,0,1,.83,1.81,2,2,0,0,1-.43,1.29,2.31,2.31,0,0,1-1.22.73,2.67,2.67,0,0,1,1.4.87,2.31,2.31,0,0,1,.51,1.52,2.42,2.42,0,0,1-.92,2,3.82,3.82,0,0,1-2.48.73Z"/><path class="cls-3" d="M76.29,39.07a3,3,0,1,0-3,3A3,3,0,0,0,76.29,39.07Z"/><path d="M76.61,53.42c0,.32,0,.35-.36.35H70.34c-.33,0-.36,0-.36-.36V47.27c0-.32,0-.35.35-.35h5.93c.32,0,.35,0,.35.35Zm-6.23-.05h5.83v-6H70.38Z"/><line class="cls-4" x1="69.43" y1="55.83" x2="77.17" y2="55.83"/><text class="cls-5" transform="translate(70.81 64.36)">6</text><path class="cls-3" d="M169.83,39.07a3,3,0,1,0-3,3A3,3,0,0,0,169.83,39.07Z"/><path d="M170.15,53.42c0,.32,0,.35-.35.35h-5.91c-.33,0-.36,0-.36-.36V47.27c0-.32,0-.35.35-.35h5.93c.31,0,.34,0,.34.35Zm-6.22-.05h5.83v-6h-5.83Z"/><line class="cls-4" x1="162.97" y1="55.83" x2="170.72" y2="55.83"/><text class="cls-5" transform="translate(164.35 64.36)">6</text><path class="cls-3" d="M212.35,39.07a3,3,0,1,0-3,3A3,3,0,0,0,212.35,39.07Z"/><path d="M212.67,53.42c0,.32,0,.35-.35.35h-5.91c-.33,0-.36,0-.36-.36V47.27c0-.32,0-.35.35-.35h5.93c.31,0,.34,0,.34.35Zm-6.22-.05h5.83v-6h-5.83Z"/><line class="cls-4" x1="205.49" y1="55.83" x2="213.24" y2="55.83"/><text class="cls-5" transform="translate(206.87 64.36)">6</text><text class="cls-5" transform="translate(53.8 53.46)">2</text><line class="cls-4" x1="53.8" y1="55.52" x2="58.78" y2="55.52"/><text class="cls-5" transform="translate(53.8 64.06)">6</text><text class="cls-5" transform="translate(113.33 53.46)">9</text><line class="cls-4" x1="113.33" y1="55.52" x2="118.31" y2="55.52"/><text class="cls-5" transform="translate(113.33 64.06)">6</text></svg>