<svg id="Camada_1" data-name="Camada 1" xmlns="http://www.w3.org/2000/svg" viewBox="0 0 57.54 25.54"><defs><style>.cls-1{fill:#e6164d;}.cls-2{fill:none;stroke:#000;stroke-miterlimit:10;stroke-width:0.4px;}.cls-3{fill:#95d4e9;opacity:0.3;}</style></defs><polygon class="cls-1" points="17.52 1.43 17.52 24.11 27.34 18.44 27.34 7.1 17.52 1.43"/><polygon class="cls-2" points="17.52 1.43 17.52 24.11 27.34 18.44 27.34 7.1 17.52 1.43"/><line class="cls-2" x1="17.52" y1="12.77" x2="27.34" y2="7.1"/><line class="cls-2" x1="17.52" y1="12.77" x2="17.52" y2="1.43"/><line class="cls-2" x1="17.52" y1="12.77" x2="7.7" y2="7.1"/><line class="cls-2" x1="17.52" y1="12.77" x2="7.7" y2="18.44"/><line class="cls-2" x1="17.52" y1="12.77" x2="17.52" y2="24.11"/><line class="cls-2" x1="17.52" y1="12.77" x2="27.34" y2="18.44"/><polygon class="cls-3" points="17.52 1.43 7.7 7.1 7.7 18.44 17.52 24.11 17.52 1.43"/><polygon class="cls-2" points="17.52 1.43 7.7 7.1 7.7 18.44 17.52 24.11 17.52 1.43"/><polygon class="cls-1" points="49.83 7.1 40.02 1.43 30.2 7.1 30.2 18.44 40.02 24.11 49.83 18.44 40.02 12.77 49.83 7.1"/><line class="cls-2" x1="40.01" y1="12.77" x2="49.83" y2="7.1"/><line class="cls-2" x1="49.83" y1="7.1" x2="40.01" y2="1.43"/><line class="cls-2" x1="40.01" y1="12.77" x2="40.01" y2="1.43"/><line class="cls-2" x1="40.01" y1="1.43" x2="30.2" y2="7.1"/><line class="cls-2" x1="40.01" y1="12.77" x2="30.2" y2="7.1"/><line class="cls-2" x1="30.2" y1="7.1" x2="30.2" y2="18.44"/><line class="cls-2" x1="40.01" y1="12.77" x2="30.2" y2="18.44"/><line class="cls-2" x1="30.2" y1="18.44" x2="40.01" y2="24.11"/><line class="cls-2" x1="40.01" y1="12.77" x2="40.01" y2="24.11"/><line class="cls-2" x1="40.01" y1="24.11" x2="49.83" y2="18.44"/><line class="cls-2" x1="40.01" y1="12.77" x2="49.83" y2="18.44"/><line class="cls-2" x1="49.83" y1="18.44" x2="49.83" y2="7.1"/><polygon class="cls-3" points="40.02 12.77 49.83 7.1 49.83 18.44 40.02 12.77"/></svg>