<svg id="Camada_1" data-name="Camada 1" xmlns="http://www.w3.org/2000/svg" viewBox="0 0 407.27 121.96"><defs><style>.cls-1{fill:#f28c5e;}.cls-1,.cls-7{opacity:0.8;}.cls-2,.cls-3,.cls-4,.cls-6{fill:none;stroke:#000;stroke-miterlimit:10;}.cls-2{stroke-width:1.2px;}.cls-3{stroke-width:0.4px;}.cls-4{stroke-width:0.4px;}.cls-5{font-size:14.35px;font-family:CMR12;}.cls-6{stroke-width:0.57px;}.cls-7{fill:#95d4e9;}</style></defs><path class="cls-1" d="M45.79,72,70.33,57.77A28.33,28.33,0,0,0,45.79,43.6Z"/><line class="cls-2" x1="70.33" y1="57.77" x2="21.24" y2="86.12"/><line class="cls-2" x1="45.79" y1="43.6" x2="45.79" y2="100.29"/><line class="cls-2" x1="21.24" y1="57.77" x2="70.33" y2="86.12"/><path class="cls-3" d="M76.32,54A35.21,35.21,0,0,0,46.08,36.51"/><line class="cls-4" x1="78.36" y1="52.91" x2="74.39" y2="55.2"/><line class="cls-3" x1="45.98" y1="38.8" x2="45.98" y2="34.22"/><text class="cls-5" transform="translate(70.19 26.59)">1</text><line class="cls-6" x1="70.19" y1="32.71" x2="77.22" y2="32.71"/><text class="cls-5" transform="translate(70.19 46.13)">6</text><text class="cls-5" transform="translate(82.4 36.29)">=</text><text class="cls-5" transform="translate(102.01 26.59)">2</text><line class="cls-6" x1="98.5" y1="32.71" x2="112.55" y2="32.71"/><text class="cls-5" transform="translate(98.5 46.13)">12</text><circle class="cls-3" cx="45.79" cy="71.95" r="28.35" transform="translate(-16.93 14.16) rotate(-14.87)"/><line class="cls-3" x1="45.79" y1="71.95" x2="74.13" y2="71.95"/><line class="cls-3" x1="45.79" y1="71.95" x2="70.33" y2="57.77"/><line class="cls-3" x1="45.79" y1="71.95" x2="59.96" y2="47.4"/><line class="cls-3" x1="45.79" y1="71.95" x2="45.79" y2="43.6"/><line class="cls-3" x1="45.79" y1="71.95" x2="31.61" y2="47.4"/><line class="cls-3" x1="45.79" y1="71.95" x2="21.24" y2="57.77"/><line class="cls-3" x1="45.79" y1="71.95" x2="17.44" y2="71.95"/><line class="cls-3" x1="45.79" y1="71.95" x2="21.24" y2="86.12"/><line class="cls-3" x1="45.79" y1="71.95" x2="31.61" y2="96.49"/><line class="cls-3" x1="45.79" y1="71.95" x2="45.79" y2="100.29"/><line class="cls-3" x1="45.79" y1="71.95" x2="59.96" y2="96.49"/><line class="cls-3" x1="45.79" y1="71.95" x2="70.33" y2="86.12"/><path class="cls-7" d="M163.11,72H134.77A28.35,28.35,0,1,0,163.11,43.6Z"/><line class="cls-2" x1="191.46" y1="71.95" x2="134.77" y2="71.95"/><line class="cls-2" x1="163.11" y1="43.6" x2="163.11" y2="100.29"/><path class="cls-3" d="M163.41,36.51a35.44,35.44,0,1,1-35.73,35.73"/><line class="cls-3" x1="163.31" y1="38.8" x2="163.31" y2="34.22"/><line class="cls-3" x1="125.39" y1="72.14" x2="129.97" y2="72.14"/><text class="cls-5" transform="translate(187.52 26.59)">3</text><line class="cls-6" x1="187.52" y1="32.71" x2="194.54" y2="32.71"/><text class="cls-5" transform="translate(187.52 46.13)">4</text><text class="cls-5" transform="translate(199.72 36.29)">=</text><text class="cls-5" transform="translate(219.34 26.59)">9</text><line class="cls-6" x1="215.83" y1="32.71" x2="229.88" y2="32.71"/><text class="cls-5" transform="translate(215.83 46.13)">12</text><circle class="cls-3" cx="163.11" cy="71.95" r="28.35" transform="translate(-13 44.28) rotate(-14.87)"/><line class="cls-3" x1="163.11" y1="71.95" x2="191.46" y2="71.95"/><line class="cls-3" x1="163.11" y1="71.95" x2="187.66" y2="57.77"/><line class="cls-3" x1="163.11" y1="71.95" x2="177.29" y2="47.4"/><line class="cls-3" x1="163.11" y1="71.95" x2="163.11" y2="43.6"/><line class="cls-3" x1="163.11" y1="71.95" x2="148.94" y2="47.4"/><line class="cls-3" x1="163.11" y1="71.95" x2="138.56" y2="57.77"/><line class="cls-3" x1="163.11" y1="71.95" x2="134.77" y2="71.95"/><line class="cls-3" x1="163.11" y1="71.95" x2="138.56" y2="86.12"/><line class="cls-3" x1="163.11" y1="71.95" x2="148.94" y2="96.49"/><line class="cls-3" x1="163.11" y1="71.95" x2="163.11" y2="100.29"/><line class="cls-3" x1="163.11" y1="71.95" x2="177.29" y2="96.49"/><line class="cls-3" x1="163.11" y1="71.95" x2="187.66" y2="86.12"/><path class="cls-7" d="M280.84,72H252.49A28.35,28.35,0,1,0,280.84,43.6Z"/><path class="cls-1" d="M280.84,72,266.67,47.4A28.35,28.35,0,0,0,252.49,72Z"/><line class="cls-2" x1="309.19" y1="71.95" x2="252.49" y2="71.95"/><line class="cls-2" x1="280.84" y1="43.6" x2="280.84" y2="100.29"/><path class="cls-3" d="M281.14,36.51a35.44,35.44,0,1,1-35.73,35.73"/><line class="cls-3" x1="281.04" y1="38.8" x2="281.04" y2="34.22"/><line class="cls-3" x1="243.11" y1="72.14" x2="247.7" y2="72.14"/><path class="cls-3" d="M262.86,41.41a35.2,35.2,0,0,0-17.45,30.24"/><line class="cls-4" x1="261.8" y1="39.37" x2="264.1" y2="43.34"/><line class="cls-3" x1="247.7" y1="71.75" x2="243.11" y2="71.75"/><text class="cls-5" transform="translate(309.64 26.59)">2</text><line class="cls-6" x1="306.13" y1="32.71" x2="320.17" y2="32.71"/><text class="cls-5" transform="translate(306.13 46.13)">12</text><text class="cls-5" transform="translate(324.56 36.29)">+</text><text class="cls-5" transform="translate(343.38 26.59)">9</text><line class="cls-6" x1="339.87" y1="32.71" x2="353.91" y2="32.71"/><text class="cls-5" transform="translate(339.87 46.13)">12</text><text class="cls-5" transform="translate(359.09 36.29)">=</text><text class="cls-5" transform="translate(375.2 26.59)">11</text><line class="cls-6" x1="375.2" y1="32.71" x2="389.25" y2="32.71"/><text class="cls-5" transform="translate(375.2 46.13)">12</text><circle class="cls-3" cx="280.84" cy="71.95" r="28.35" transform="translate(-8.54 54.41) rotate(-10.9)"/><line class="cls-2" x1="280.84" y1="71.95" x2="266.67" y2="47.4"/><line class="cls-3" x1="280.84" y1="71.95" x2="309.19" y2="71.95"/><line class="cls-3" x1="280.84" y1="71.95" x2="305.39" y2="57.77"/><line class="cls-3" x1="280.84" y1="71.95" x2="295.01" y2="47.4"/><line class="cls-3" x1="280.84" y1="71.95" x2="280.84" y2="43.6"/><line class="cls-3" x1="280.84" y1="71.95" x2="266.67" y2="47.4"/><line class="cls-3" x1="280.84" y1="71.95" x2="256.29" y2="57.77"/><line class="cls-3" x1="280.84" y1="71.95" x2="252.49" y2="71.95"/><line class="cls-3" x1="280.84" y1="71.95" x2="256.29" y2="86.12"/><line class="cls-3" x1="280.84" y1="71.95" x2="266.67" y2="96.49"/><line class="cls-3" x1="280.84" y1="71.95" x2="280.84" y2="100.29"/><line class="cls-3" x1="280.84" y1="71.95" x2="295.01" y2="96.49"/><line class="cls-3" x1="280.84" y1="71.95" x2="305.39" y2="86.12"/></svg>