<?xml version="1.0" encoding="utf-8"?>
<!-- Generator: Adobe Illustrator 16.0.0, SVG Export Plug-In . SVG Version: 6.00 Build 0)  -->
<!DOCTYPE svg PUBLIC "-//W3C//DTD SVG 1.1//EN" "http://www.w3.org/Graphics/SVG/1.1/DTD/svg11.dtd">
<svg version="1.1" id="Layer_1" xmlns="http://www.w3.org/2000/svg" xmlns:xlink="http://www.w3.org/1999/xlink" x="0px" y="0px"
	 width="538.582px" height="170.079px" viewBox="0 0 538.582 170.079" enable-background="new 0 0 538.582 170.079"
	 xml:space="preserve">
<g>
	<g>
		<path fill="none" stroke="#231F20" stroke-width="3" stroke-miterlimit="10" d="M88.606,148.989
			c-35.485,0-64.357-28.869-64.357-64.355c0-35.488,28.872-64.359,64.357-64.359c35.484,0,64.356,28.871,64.356,64.359
			C152.963,120.12,124.091,148.989,88.606,148.989z"/>
	</g>
	
		<ellipse fill="#F7C434" stroke="#000000" stroke-width="1.5" stroke-miterlimit="10" cx="88.578" cy="84.625" rx="53.49" ry="53.508"/>
	<g>
		<path fill="#F9BF76" d="M88.606,148.989c-35.485,0-64.357-28.869-64.357-64.355c0-35.488,28.872-64.359,64.357-64.359
			c35.484,0,64.356,28.871,64.356,64.359C152.963,120.12,124.091,148.989,88.606,148.989z M88.606,31.117
			c-29.509,0-53.518,24.006-53.518,53.517c0,29.508,24.009,53.514,53.518,53.514c29.51,0,53.517-24.006,53.517-53.514
			C142.121,55.123,118.115,31.117,88.606,31.117z"/>
	</g>
	<g>
		<circle fill="#D1313D" cx="87.419" cy="48.487" r="3.896"/>
		<circle fill="#D1313D" cx="64.868" cy="56.519" r="5.117"/>
		<circle fill="#D1313D" cx="77.256" cy="70.612" r="5.117"/>
		<circle fill="#D1313D" cx="117.159" cy="102.469" r="5.117"/>
		<circle fill="#D1313D" cx="50.469" cy="80.651" r="6.336"/>
		<circle fill="#D1313D" cx="104.35" cy="113.337" r="3.673"/>
		<circle fill="#D1313D" cx="121.362" cy="84.895" r="3.283"/>
		<circle fill="#D1313D" cx="71.618" cy="93.881" r="3.879"/>
		<circle fill="#D1313D" cx="99.225" cy="74.101" r="5.281"/>
		<circle fill="#D1313D" cx="108.023" cy="53.768" r="5.281"/>
		<circle fill="#D1313D" cx="120.743" cy="69.708" r="4.515"/>
		<circle fill="#D1313D" cx="58.539" cy="104.767" r="4.897"/>
		<circle fill="#D1313D" cx="82.826" cy="120.958" r="6.975"/>
		<circle fill="#D1313D" cx="94.214" cy="96.47" r="6.974"/>
	</g>
	<line fill="none" stroke="#FFFFFF" stroke-width="6" stroke-miterlimit="10" x1="88.541" y1="17.539" x2="88.541" y2="152.54"/>
	<line fill="none" stroke="#FFFFFF" stroke-width="6" stroke-miterlimit="10" x1="20.541" y1="84.539" x2="155.541" y2="84.539"/>
	<path fill="none" stroke="#9B8579" stroke-width="2" stroke-linecap="round" stroke-linejoin="round" stroke-miterlimit="10" d="
		M185.541,96.495c6,0.045,33-17.008,61-11.729c6.443,1.218,46.079,9.648,66,7.871c29.5-2.637,48.5-13.15,79-7.871
		c18.219,3.156,38.24,9.131,67.5,11.426c20,1.568,59-11.153,59-11.153"/>
	<rect x="265.541" y="52.539" fill="#FFFFFF" width="7" height="58"/>
	<rect x="349.541" y="45.539" fill="#FFFFFF" width="7" height="58"/>
	<rect x="432.541" y="52.539" fill="#FFFFFF" width="7" height="58"/>
</g>
</svg>
