<svg id="Camada_1" data-name="Camada 1" xmlns="http://www.w3.org/2000/svg" viewBox="0 0 273.99 102.94"><defs><style>.cls-1,.cls-2,.cls-3,.cls-5{fill:none;}.cls-1,.cls-2,.cls-5{stroke:#000;}.cls-1,.cls-3,.cls-5{stroke-miterlimit:10;}.cls-1,.cls-2{stroke-width:0.4px;}.cls-2{stroke-linecap:round;stroke-linejoin:round;}.cls-3{stroke:#e6164d;stroke-width:1.59px;}.cls-4{font-size:9.96px;font-family:CMR10;}.cls-5{stroke-width:0.57px;}.cls-6{fill:#e6164d;}</style></defs><line class="cls-1" x1="9.54" y1="46.51" x2="264.26" y2="46.51"/><path class="cls-2" d="M262.39,44.12a3.13,3.13,0,0,0,2.07,2.39,3.15,3.15,0,0,0-2.07,2.39"/><line class="cls-3" x1="35.05" y1="46.51" x2="137.1" y2="46.51"/><text class="cls-4" transform="translate(32.56 60.9)">0</text><line class="cls-5" x1="32.56" y1="62.97" x2="37.54" y2="62.97"/><text class="cls-4" transform="translate(32.56 71.5)">3</text><text class="cls-4" transform="translate(49.57 60.9)">1</text><line class="cls-5" x1="49.56" y1="62.97" x2="54.55" y2="62.97"/><text class="cls-4" transform="translate(49.57 71.5)">3</text><text class="cls-4" transform="translate(66.57 60.9)">2</text><line class="cls-5" x1="66.57" y1="62.97" x2="71.55" y2="62.97"/><text class="cls-4" transform="translate(66.57 71.5)">3</text><text class="cls-4" transform="translate(83.58 60.9)">3</text><line class="cls-5" x1="83.58" y1="62.97" x2="88.56" y2="62.97"/><text class="cls-4" transform="translate(83.58 71.5)">3</text><text class="cls-4" transform="translate(100.59 60.9)">4</text><line class="cls-5" x1="100.59" y1="62.97" x2="105.57" y2="62.97"/><text class="cls-4" transform="translate(100.59 71.5)">3</text><text class="cls-4" transform="translate(117.6 60.9)">5</text><line class="cls-5" x1="117.6" y1="62.97" x2="122.58" y2="62.97"/><text class="cls-4" transform="translate(117.6 71.5)">3</text><text class="cls-4" transform="translate(134.61 60.9)">6</text><line class="cls-5" x1="134.6" y1="62.97" x2="139.59" y2="62.97"/><text class="cls-4" transform="translate(134.61 71.5)">3</text><line class="cls-1" x1="52.06" y1="49.5" x2="52.06" y2="43.52"/><line class="cls-1" x1="69.06" y1="49.5" x2="69.06" y2="43.52"/><line class="cls-1" x1="86.07" y1="49.5" x2="86.07" y2="43.52"/><line class="cls-1" x1="103.08" y1="49.5" x2="103.08" y2="43.52"/><line class="cls-1" x1="120.09" y1="49.5" x2="120.09" y2="43.52"/><circle class="cls-6" cx="35.05" cy="46.51" r="2.99"/><path d="M35,38.54a3.55,3.55,0,0,1-2-.52,3.42,3.42,0,0,1-1.27-1.5,5.57,5.57,0,0,1-.44-2.29v-.95a5.62,5.62,0,0,1,.44-2.3,3.35,3.35,0,0,1,1.28-1.51A3.55,3.55,0,0,1,35,29a3.62,3.62,0,0,1,2,.52A3.35,3.35,0,0,1,38.28,31a5.41,5.41,0,0,1,.45,2.29v.94a5.49,5.49,0,0,1-.45,2.3,3.4,3.4,0,0,1-3.25,2Zm0-.91A2.3,2.3,0,0,0,37,36.74a4.08,4.08,0,0,0,.68-2.5v-1A4.07,4.07,0,0,0,37,30.75a2.28,2.28,0,0,0-1.91-.9,2.25,2.25,0,0,0-1.9.9,4,4,0,0,0-.68,2.49v1a4,4,0,0,0,.69,2.49,2.26,2.26,0,0,0,1.89.91Z"/><circle class="cls-6" cx="137.1" cy="46.51" r="2.99"/><path d="M134.69,38.54a.79.79,0,0,1-.54-.14.6.6,0,0,1-.17-.47v-.36a3,3,0,0,1,.39-1.57,3.4,3.4,0,0,1,1-1.08,11.38,11.38,0,0,1,1.47-.88c.62-.32,1.06-.56,1.33-.73a3.1,3.1,0,0,0,.71-.64,1.42,1.42,0,0,0,.3-.91,1.57,1.57,0,0,0-.54-1.25,2.22,2.22,0,0,0-1.51-.47,2.25,2.25,0,0,0-1.58.53,2.75,2.75,0,0,0-.8,1.37s-.07,0-.19,0a.75.75,0,0,1-.36-.17.48.48,0,0,1-.17-.39,1.6,1.6,0,0,1,.2-.68,2.31,2.31,0,0,1,.53-.73,3.66,3.66,0,0,1,1-.65,3.62,3.62,0,0,1,1.39-.25,3.23,3.23,0,0,1,2.23.72,2.49,2.49,0,0,1,.81,2,2.27,2.27,0,0,1-.34,1.27,3,3,0,0,1-.88.89,14.15,14.15,0,0,1-1.44.79,12.8,12.8,0,0,0-1.3.72,3,3,0,0,0-.84.79,2,2,0,0,0-.37,1.08l0,.28h4.86c.34,0,.52.15.52.43v.09c0,.29-.18.44-.52.44Z"/><path d="M86.42,38.54c-.29,0-.44-.16-.44-.5V30.78a1.19,1.19,0,0,1-.45.38,1.33,1.33,0,0,1-.6.14,1.19,1.19,0,0,1-.82-.29.74.74,0,0,1-.23-.54.69.69,0,0,1,.07-.29.64.64,0,0,1,.14-.2c.06-.05.09-.07.11-.06a1,1,0,0,0,.82.35,1.09,1.09,0,0,0,.79-.33,1.13,1.13,0,0,0,.37-.79h.39c.31,0,.47.16.47.5V38c0,.34-.16.5-.47.5Z"/><path d="M187.87,38.54a4.39,4.39,0,0,1-1.51-.24,3.1,3.1,0,0,1-1.09-.63,2.28,2.28,0,0,1-.5-.6,1.26,1.26,0,0,1-.17-.56.55.55,0,0,1,.14-.39.59.59,0,0,1,.31-.18c.11,0,.17,0,.18,0a2.2,2.2,0,0,0,1,1.25,3,3,0,0,0,1.69.46,2.66,2.66,0,0,0,1.69-.5,1.81,1.81,0,0,0,0-2.72,2.69,2.69,0,0,0-1.72-.48h-.8q-.51,0-.51-.39v-.08c0-.27.16-.41.48-.41H188a2.22,2.22,0,0,0,1.45-.42,1.57,1.57,0,0,0,0-2.37,2.37,2.37,0,0,0-1.54-.45,2.56,2.56,0,0,0-1.44.41,2.36,2.36,0,0,0-.91,1.05s-.07,0-.18,0a.77.77,0,0,1-.31-.19.48.48,0,0,1-.14-.35.89.89,0,0,1,.15-.44,2,2,0,0,1,.4-.48,3.24,3.24,0,0,1,1.06-.63,4.24,4.24,0,0,1,1.4-.23,3.61,3.61,0,0,1,2.31.65,2.15,2.15,0,0,1,.82,1.8,2,2,0,0,1-.43,1.3,2.2,2.2,0,0,1-1.22.72,2.76,2.76,0,0,1,1.41.88,2.36,2.36,0,0,1,.5,1.52,2.41,2.41,0,0,1-.91,2,3.87,3.87,0,0,1-2.49.73Z"/><path d="M240.67,38.54a.39.39,0,0,1-.32-.14.56.56,0,0,1-.12-.36V35.85h-4a.76.76,0,0,1-.5-.15.43.43,0,0,1-.19-.37v-.26a.84.84,0,0,1,.08-.34,3,3,0,0,1,.25-.4l3.62-4.67a1.48,1.48,0,0,1,.4-.42,1,1,0,0,1,.54-.11.93.93,0,0,1,.63.17.67.67,0,0,1,.19.54v5.1h1.18c.32,0,.49.14.49.42v.07c0,.28-.17.42-.49.42h-1.18V38c0,.34-.15.5-.46.5Zm-.4-3.6V30.06l-3.76,4.88Z"/><line class="cls-1" x1="188.12" y1="49.5" x2="188.12" y2="43.52"/><line class="cls-1" x1="239.14" y1="49.5" x2="239.14" y2="43.52"/></svg>