<?xml version="1.0" encoding="utf-8"?>
<!-- Generator: Adobe Illustrator 16.0.0, SVG Export Plug-In . SVG Version: 6.00 Build 0)  -->
<!DOCTYPE svg PUBLIC "-//W3C//DTD SVG 1.1//EN" "http://www.w3.org/Graphics/SVG/1.1/DTD/svg11.dtd">
<svg version="1.1" id="Layer_1" xmlns="http://www.w3.org/2000/svg" xmlns:xlink="http://www.w3.org/1999/xlink" x="0px" y="0px"
	 width="255.12px" height="184.25px" viewBox="0 0 255.12 184.25" enable-background="new 0 0 255.12 184.25" xml:space="preserve">
<polygon fill="#FFFFFF" stroke="#231F20" stroke-width="1.5" stroke-miterlimit="10" points="141.159,137.316 85.159,121.716 
	85.159,10.955 141.159,26.555 "/>
<polygon fill="#FFFFFF" stroke="#231F20" stroke-width="1.5" stroke-miterlimit="10" points="28.159,137.316 84.159,121.716 
	84.159,10.955 28.159,26.555 "/>
<polygon fill="#FFFFFF" stroke="#231F20" stroke-width="1.5" stroke-miterlimit="10" points="142.159,137.316 198.159,121.716 
	198.159,10.955 142.159,26.555 "/>
<polygon fill="#FFFFFF" stroke="#231F20" stroke-width="1.5" stroke-miterlimit="10" points="227.159,160.718 176.159,145.117 
	176.159,34.355 227.159,49.956 "/>
<rect x="171.159" y="51" fill="#FFFFFF" stroke="#231F20" stroke-width="1.5" stroke-miterlimit="10" width="56" height="110"/>
<polygon fill="#FFFFFF" stroke="#231F20" stroke-width="1.5" stroke-miterlimit="10" points="220.159,177.098 169.159,161.497 
	169.159,50.735 220.159,66.336 "/>
<polygon fill="#FFFFFF" points="80.159,13 84.635,12 89,13 89,121.464 84.58,120.646 80.402,121.464 "/>
<g>
	<g>
		<line fill="none" stroke="#231F20" stroke-miterlimit="10" x1="84.5" y1="14" x2="84.5" y2="16"/>
		<line fill="none" stroke="#231F20" stroke-miterlimit="10" stroke-dasharray="4,4" x1="84.5" y1="20" x2="84.5" y2="115"/>
		<line fill="none" stroke="#231F20" stroke-miterlimit="10" x1="84.5" y1="117" x2="84.5" y2="119"/>
	</g>
</g>
<polygon fill="#FFFFFF" points="137.475,26.585 141.744,27.518 146,26.62 146,134.464 142.08,136.29 137.402,134.464 "/>
<g>
	<g>
		<line fill="none" stroke="#231F20" stroke-miterlimit="10" x1="141.5" y1="29" x2="141.5" y2="31"/>
		<line fill="none" stroke="#231F20" stroke-miterlimit="10" stroke-dasharray="4,4" x1="141.5" y1="35" x2="141.5" y2="130"/>
		<line fill="none" stroke="#231F20" stroke-miterlimit="10" x1="141.5" y1="132" x2="141.5" y2="134"/>
	</g>
</g>
</svg>
