<svg id="Camada_1" data-name="Camada 1" xmlns="http://www.w3.org/2000/svg" viewBox="0 0 295.35 99.25"><defs><style>.cls-1,.cls-2,.cls-5{fill:none;stroke:#000;}.cls-1,.cls-5{stroke-miterlimit:10;}.cls-1,.cls-2{stroke-width:0.4px;}.cls-2{stroke-linecap:round;stroke-linejoin:round;}.cls-3{font-size:14.35px;font-family:CMR12;}.cls-4{font-size:9.96px;font-family:CMR10;}.cls-5{stroke-width:0.57px;}</style></defs><line class="cls-1" x1="12.47" y1="37.38" x2="267.19" y2="37.38"/><path class="cls-2" d="M265.32,35a3.17,3.17,0,0,0,2.07,2.39,3.17,3.17,0,0,0-2.07,2.39"/><line class="cls-1" x1="60.3" y1="34.39" x2="60.3" y2="40.37"/><text class="cls-3" transform="translate(56.79 54.6)">0</text><line class="cls-1" x1="219.75" y1="34.39" x2="219.75" y2="40.37"/><text class="cls-3" transform="translate(216.24 54.6)">1</text><line class="cls-1" x1="80.23" y1="34.39" x2="80.23" y2="40.37"/><line class="cls-1" x1="100.16" y1="34.39" x2="100.16" y2="40.37"/><line class="cls-1" x1="120.1" y1="34.39" x2="120.1" y2="40.37"/><line class="cls-1" x1="140.03" y1="34.39" x2="140.03" y2="40.37"/><line class="cls-1" x1="159.96" y1="34.39" x2="159.96" y2="40.37"/><line class="cls-1" x1="179.89" y1="34.39" x2="179.89" y2="40.37"/><line class="cls-1" x1="199.82" y1="34.39" x2="199.82" y2="40.37"/><text class="cls-4" transform="translate(77.74 51.77)">1</text><line class="cls-5" x1="77.74" y1="53.83" x2="82.72" y2="53.83"/><text class="cls-4" transform="translate(77.74 62.37)">8</text><text class="cls-4" transform="translate(117.6 51.77)">3</text><line class="cls-5" x1="117.61" y1="53.83" x2="122.59" y2="53.83"/><text class="cls-4" transform="translate(117.6 62.37)">8</text><text class="cls-4" transform="translate(157.47 51.77)">5</text><line class="cls-5" x1="157.47" y1="53.83" x2="162.45" y2="53.83"/><text class="cls-4" transform="translate(157.47 62.37)">8</text><text class="cls-4" transform="translate(197.33 51.77)">7</text><line class="cls-5" x1="197.33" y1="53.83" x2="202.31" y2="53.83"/><text class="cls-4" transform="translate(197.33 62.37)">8</text></svg>