<svg id="Camada_1" data-name="Camada 1" xmlns="http://www.w3.org/2000/svg" viewBox="0 0 294.54 99.25"><defs><style>.cls-1,.cls-2,.cls-5{fill:none;stroke:#000;}.cls-1,.cls-5{stroke-miterlimit:10;}.cls-1,.cls-2{stroke-width:0.4px;}.cls-2{stroke-linecap:round;stroke-linejoin:round;}.cls-3{font-size:14.35px;font-family:CMR12;}.cls-4{font-size:9.96px;font-family:CMR10;}.cls-5{stroke-width:0.57px;}</style></defs><line class="cls-1" x1="12.72" y1="37.38" x2="244.08" y2="37.38"/><path class="cls-2" d="M242.2,35a3.18,3.18,0,0,0,2.08,2.39,3.18,3.18,0,0,0-2.08,2.39"/><line class="cls-1" x1="32.03" y1="34.39" x2="32.03" y2="40.37"/><line class="cls-1" x1="64.22" y1="34.39" x2="64.22" y2="40.37"/><line class="cls-1" x1="96.41" y1="34.39" x2="96.41" y2="40.37"/><line class="cls-1" x1="128.6" y1="34.39" x2="128.6" y2="40.37"/><line class="cls-1" x1="160.79" y1="34.39" x2="160.79" y2="40.37"/><line class="cls-1" x1="192.97" y1="34.39" x2="192.97" y2="40.37"/><line class="cls-1" x1="225.16" y1="34.39" x2="225.16" y2="40.37"/><line class="cls-1" x1="32.03" y1="34.39" x2="32.03" y2="40.37"/><text class="cls-3" transform="translate(28.52 54.6)">0</text><line class="cls-1" x1="96.41" y1="34.39" x2="96.41" y2="40.37"/><text class="cls-3" transform="translate(92.9 54.6)">1</text><line class="cls-1" x1="160.79" y1="34.39" x2="160.79" y2="40.37"/><text class="cls-3" transform="translate(157.27 54.6)">2</text><line class="cls-1" x1="225.16" y1="34.39" x2="225.16" y2="40.37"/><text class="cls-3" transform="translate(221.65 54.6)">3</text><line class="cls-1" x1="64.22" y1="34.39" x2="64.22" y2="40.37"/><text class="cls-4" transform="translate(61.73 51.77)">1</text><line class="cls-5" x1="61.73" y1="53.83" x2="66.71" y2="53.83"/><text class="cls-4" transform="translate(61.73 62.37)">2</text><line class="cls-1" x1="128.6" y1="34.39" x2="128.6" y2="40.37"/><text class="cls-4" transform="translate(126.11 51.77)">3</text><line class="cls-5" x1="126.11" y1="53.83" x2="131.09" y2="53.83"/><text class="cls-4" transform="translate(126.11 62.37)">2</text><line class="cls-1" x1="192.97" y1="34.39" x2="192.97" y2="40.37"/><text class="cls-4" transform="translate(190.48 51.77)">5</text><line class="cls-5" x1="190.48" y1="53.83" x2="195.46" y2="53.83"/><text class="cls-4" transform="translate(190.48 62.37)">2</text></svg>