<svg id="Camada_1" data-name="Camada 1" xmlns="http://www.w3.org/2000/svg" viewBox="0 0 243.76 132.97"><defs><style>.cls-1{fill:gray;}.cls-2,.cls-5{fill:none;stroke:#000;stroke-miterlimit:10;}.cls-2{stroke-width:0.4px;}.cls-3{fill:#f28c5e;}.cls-4{font-size:7.97px;font-family:CMR8;}.cls-5{stroke-width:0.48px;}.cls-6{fill:#feede0;}.cls-7{fill:#e6164d;}.cls-8{fill:#95d4e9;}.cls-9{fill:#056d97;}.cls-10{fill:#933c4c;}.cls-11{fill:#7c2a79;}.cls-12{fill:#01517e;}.cls-13{fill:#f8c175;}</style></defs><rect class="cls-1" x="13.75" y="23.97" width="17.01" height="85.04"/><rect class="cls-2" x="13.75" y="23.97" width="17.01" height="85.04"/><rect class="cls-3" x="33.67" y="23.97" width="17.01" height="85.04"/><rect class="cls-2" x="33.67" y="23.97" width="17.01" height="85.04"/><line class="cls-2" x1="50.68" y1="66.49" x2="33.67" y2="66.49"/><text class="cls-4" transform="translate(40.06 85.9)">1</text><line class="cls-5" x1="40.06" y1="87.62" x2="44.3" y2="87.62"/><text class="cls-4" transform="translate(40.06 94.73)">2</text><text class="cls-4" transform="translate(40.06 43.38)">1</text><line class="cls-5" x1="40.06" y1="45.1" x2="44.3" y2="45.1"/><text class="cls-4" transform="translate(40.06 52.21)">2</text><rect class="cls-6" x="53.6" y="23.97" width="17.01" height="85.04"/><rect class="cls-2" x="53.6" y="23.97" width="17.01" height="85.04"/><line class="cls-2" x1="70.61" y1="80.66" x2="53.6" y2="80.66"/><line class="cls-2" x1="70.61" y1="52.31" x2="53.6" y2="52.31"/><rect class="cls-6" x="73.53" y="23.97" width="17.01" height="85.04"/><rect class="cls-2" x="73.53" y="23.97" width="17.01" height="85.04"/><line class="cls-2" x1="90.53" y1="87.75" x2="73.53" y2="87.75"/><line class="cls-2" x1="90.53" y1="66.49" x2="73.53" y2="66.49"/><line class="cls-2" x1="90.53" y1="45.23" x2="73.53" y2="45.23"/><rect class="cls-7" x="93.45" y="23.97" width="17.01" height="85.04"/><rect class="cls-2" x="93.45" y="23.97" width="17.01" height="85.04"/><line class="cls-2" x1="110.46" y1="92" x2="93.45" y2="92"/><line class="cls-2" x1="110.46" y1="74.99" x2="93.45" y2="74.99"/><line class="cls-2" x1="110.46" y1="57.98" x2="93.45" y2="57.98"/><line class="cls-2" x1="110.46" y1="40.97" x2="93.45" y2="40.97"/><rect class="cls-8" x="113.38" y="23.97" width="17.01" height="85.04"/><rect class="cls-2" x="113.38" y="23.97" width="17.01" height="85.04"/><line class="cls-2" x1="130.38" y1="94.83" x2="113.38" y2="94.83"/><line class="cls-2" x1="130.38" y1="80.66" x2="113.38" y2="80.66"/><line class="cls-2" x1="130.38" y1="66.49" x2="113.38" y2="66.49"/><line class="cls-2" x1="130.38" y1="52.31" x2="113.38" y2="52.31"/><line class="cls-2" x1="130.38" y1="38.14" x2="113.38" y2="38.14"/><rect class="cls-9" x="133.3" y="23.97" width="17.01" height="85.04"/><rect class="cls-2" x="133.3" y="23.97" width="17.01" height="85.04"/><line class="cls-2" x1="150.31" y1="96.86" x2="133.3" y2="96.86"/><line class="cls-2" x1="150.31" y1="84.71" x2="133.3" y2="84.71"/><line class="cls-2" x1="150.31" y1="72.56" x2="133.3" y2="72.56"/><line class="cls-2" x1="150.31" y1="60.41" x2="133.3" y2="60.41"/><line class="cls-2" x1="150.31" y1="48.26" x2="133.3" y2="48.26"/><line class="cls-2" x1="150.31" y1="36.12" x2="133.3" y2="36.12"/><rect class="cls-10" x="153.23" y="23.97" width="17.01" height="85.04"/><rect class="cls-2" x="153.23" y="23.97" width="17.01" height="85.04"/><line class="cls-2" x1="170.24" y1="98.38" x2="153.23" y2="98.38"/><line class="cls-2" x1="170.24" y1="87.75" x2="153.23" y2="87.75"/><line class="cls-2" x1="170.24" y1="77.12" x2="153.23" y2="77.12"/><line class="cls-2" x1="170.24" y1="66.49" x2="153.23" y2="66.49"/><line class="cls-2" x1="170.24" y1="55.86" x2="153.23" y2="55.86"/><line class="cls-2" x1="170.24" y1="45.23" x2="153.23" y2="45.23"/><line class="cls-2" x1="170.24" y1="34.6" x2="153.23" y2="34.6"/><rect class="cls-11" x="173.15" y="23.97" width="17.01" height="85.04"/><rect class="cls-2" x="173.15" y="23.97" width="17.01" height="85.04"/><line class="cls-2" x1="190.16" y1="99.56" x2="173.15" y2="99.56"/><line class="cls-2" x1="190.16" y1="90.11" x2="173.15" y2="90.11"/><line class="cls-2" x1="190.16" y1="80.66" x2="173.15" y2="80.66"/><line class="cls-2" x1="190.16" y1="71.21" x2="173.15" y2="71.21"/><line class="cls-2" x1="190.16" y1="61.76" x2="173.15" y2="61.76"/><line class="cls-2" x1="190.16" y1="52.31" x2="173.15" y2="52.31"/><line class="cls-2" x1="190.16" y1="42.86" x2="173.15" y2="42.86"/><line class="cls-2" x1="190.16" y1="33.42" x2="173.15" y2="33.42"/><rect class="cls-12" x="193.08" y="23.97" width="17.01" height="85.04"/><rect class="cls-2" x="193.08" y="23.97" width="17.01" height="85.04"/><line class="cls-2" x1="210.09" y1="100.5" x2="193.08" y2="100.5"/><line class="cls-2" x1="210.09" y1="92" x2="193.08" y2="92"/><line class="cls-2" x1="210.09" y1="83.49" x2="193.08" y2="83.49"/><line class="cls-2" x1="210.09" y1="74.99" x2="193.08" y2="74.99"/><line class="cls-2" x1="210.09" y1="66.49" x2="193.08" y2="66.49"/><line class="cls-2" x1="210.09" y1="57.98" x2="193.08" y2="57.98"/><line class="cls-2" x1="210.09" y1="49.48" x2="193.08" y2="49.48"/><line class="cls-2" x1="210.09" y1="40.97" x2="193.08" y2="40.97"/><line class="cls-2" x1="210.09" y1="32.47" x2="193.08" y2="32.47"/><rect class="cls-13" x="213" y="23.97" width="17.01" height="85.04"/><rect class="cls-2" x="213" y="23.97" width="17.01" height="85.04"/><line class="cls-2" x1="230.01" y1="103.69" x2="213" y2="103.69"/><line class="cls-2" x1="230.01" y1="98.38" x2="213" y2="98.38"/><line class="cls-2" x1="230.01" y1="93.06" x2="213" y2="93.06"/><line class="cls-2" x1="230.01" y1="87.75" x2="213" y2="87.75"/><line class="cls-2" x1="230.01" y1="82.43" x2="213" y2="82.43"/><line class="cls-2" x1="230.01" y1="77.12" x2="213" y2="77.12"/><line class="cls-2" x1="230.01" y1="71.8" x2="213" y2="71.8"/><line class="cls-2" x1="230.01" y1="66.49" x2="213" y2="66.49"/><line class="cls-2" x1="230.01" y1="61.17" x2="213" y2="61.17"/><line class="cls-2" x1="230.01" y1="55.86" x2="213" y2="55.86"/><line class="cls-2" x1="230.01" y1="50.54" x2="213" y2="50.54"/><line class="cls-2" x1="230.01" y1="45.23" x2="213" y2="45.23"/><line class="cls-2" x1="230.01" y1="39.91" x2="213" y2="39.91"/><line class="cls-2" x1="230.01" y1="34.6" x2="213" y2="34.6"/><line class="cls-2" x1="230.01" y1="29.28" x2="213" y2="29.28"/></svg>