<svg id="Camada_1" data-name="Camada 1" xmlns="http://www.w3.org/2000/svg" viewBox="0 0 434.35 356.57"><defs><style>.cls-1,.cls-9{fill:#94d4e9;}.cls-1{opacity:0.3;}.cls-2,.cls-4,.cls-5,.cls-8{fill:none;stroke-miterlimit:10;}.cls-2,.cls-5,.cls-8{stroke:#000;stroke-width:0.4px;}.cls-3,.cls-6,.cls-7{fill:#e5114c;}.cls-4{stroke:#e5114c;stroke-width:1.59px;}.cls-5{stroke-dasharray:0.4 1.99;}.cls-6{opacity:0.8;}.cls-7,.cls-8,.cls-9{opacity:0;}.cls-8{stroke-dasharray:2.99 1.99;}</style></defs><rect class="cls-1" x="60.32" y="20.17" width="56.69" height="28.35"/><rect class="cls-2" x="60.32" y="20.17" width="56.69" height="28.35"/><polygon class="cls-3" points="60.32 48.51 117.01 20.17 117.01 48.51 60.32 48.51"/><polygon class="cls-2" points="60.32 48.51 117.01 20.17 117.01 48.51 60.32 48.51"/><path d="M10.69,16.39a1.85,1.85,0,0,1,1.14-1.74,8.71,8.71,0,0,1,3.5-.6h.18v-.14a1.6,1.6,0,0,0-.43-1.21,1.81,1.81,0,0,0-1.27-.41,2.17,2.17,0,0,0-1.23.32,2.05,2.05,0,0,0-.75.85s-.08,0-.25,0a.91.91,0,0,1-.43-.21.54.54,0,0,1-.2-.46,1.21,1.21,0,0,1,.48-.86,2.93,2.93,0,0,1,1-.56,4.4,4.4,0,0,1,1.47-.23,3.19,3.19,0,0,1,2.24.72,2.67,2.67,0,0,1,.77,2v4.23s-.05.08-.16.11a1.36,1.36,0,0,1-.36.05.75.75,0,0,1-.81-.63,2.1,2.1,0,0,1-.06-.48,2.69,2.69,0,0,1-1.06.88,3.22,3.22,0,0,1-1.42.32,2.55,2.55,0,0,1-1.72-.54,1.77,1.77,0,0,1-.64-1.43Zm4.82-1.45-.38,0a6.74,6.74,0,0,0-2.3.37,1,1,0,0,0-.74,1,.87.87,0,0,0,.34.73,1.46,1.46,0,0,0,1,.28,2.24,2.24,0,0,0,1.53-.53,1.68,1.68,0,0,0,.59-1.34ZM18.13,21c-.44,0-.66-.19-.66-.58a.6.6,0,0,1,.08-.31c.06-.11.1-.16.13-.17A3.25,3.25,0,0,0,19.31,19a4.74,4.74,0,0,0,1-1.78,7.25,7.25,0,0,0,.36-2.33,7.09,7.09,0,0,0-.36-2.29,4.74,4.74,0,0,0-1.05-1.79,3.18,3.18,0,0,0-1.62-.93.62.62,0,0,1-.13-.19.65.65,0,0,1-.08-.31c0-.38.22-.58.66-.58a2.47,2.47,0,0,1,1.22.36,4.45,4.45,0,0,1,1.19,1,6.75,6.75,0,0,1,1.17,2.08,7.64,7.64,0,0,1,.45,2.65,8,8,0,0,1-.43,2.65,6.66,6.66,0,0,1-1.15,2.07,4.39,4.39,0,0,1-1.21,1,2.54,2.54,0,0,1-1.24.36Z"/><rect class="cls-1" x="210.92" y="20.17" width="56.69" height="28.35"/><rect class="cls-2" x="210.92" y="20.17" width="56.69" height="28.35"/><line class="cls-2" x1="216.59" y1="48.51" x2="216.59" y2="20.17"/><line class="cls-2" x1="222.26" y1="48.51" x2="222.26" y2="20.17"/><line class="cls-2" x1="227.93" y1="48.51" x2="227.93" y2="20.17"/><line class="cls-2" x1="233.6" y1="48.51" x2="233.6" y2="20.17"/><line class="cls-2" x1="239.27" y1="48.51" x2="239.27" y2="20.17"/><line class="cls-2" x1="244.94" y1="48.51" x2="244.94" y2="20.17"/><line class="cls-2" x1="250.61" y1="48.51" x2="250.61" y2="20.17"/><line class="cls-2" x1="256.28" y1="48.51" x2="256.28" y2="20.17"/><line class="cls-2" x1="261.95" y1="48.51" x2="261.95" y2="20.17"/><rect class="cls-3" x="222.26" y="20.17" width="5.67" height="28.35"/><rect class="cls-2" x="222.26" y="20.17" width="5.67" height="28.35"/><path d="M163.1,17.58c0,.45-.2.68-.61.68h-.16c-.42,0-.63-.23-.63-.68V8.5s.05-.06.16-.1a1,1,0,0,1,.35-.06.86.86,0,0,1,.65.27,1.4,1.4,0,0,1,.26,1v2.81a2.78,2.78,0,0,1,2.41-1.25,3.16,3.16,0,0,1,1.66.45,3.08,3.08,0,0,1,1.15,1.27,4.12,4.12,0,0,1,.42,1.9,4.11,4.11,0,0,1-.42,1.89,3.12,3.12,0,0,1-1.16,1.3,3.21,3.21,0,0,1-1.69.45A3,3,0,0,1,164,18a2.27,2.27,0,0,1-.93-.88Zm4.28-2.83a2.91,2.91,0,0,0-.27-1.26,2.23,2.23,0,0,0-.76-.87,1.94,1.94,0,0,0-1.09-.32,2.31,2.31,0,0,0-1.33.38,2.38,2.38,0,0,0-.83,1.06v1.53a1.93,1.93,0,0,0,.31,1,2.1,2.1,0,0,0,.78.7,2.28,2.28,0,0,0,1,.25,2,2,0,0,0,1.55-.68,2.57,2.57,0,0,0,.6-1.78ZM170,21c-.44,0-.66-.19-.66-.58a.71.71,0,0,1,.08-.31c.06-.11.1-.16.13-.17a3.21,3.21,0,0,0,1.63-.94,4.74,4.74,0,0,0,1-1.78,7.25,7.25,0,0,0,.36-2.33,7.09,7.09,0,0,0-.36-2.29,4.74,4.74,0,0,0-1-1.79,3.18,3.18,0,0,0-1.62-.93.62.62,0,0,1-.13-.19.79.79,0,0,1-.08-.31c0-.38.22-.58.66-.58a2.47,2.47,0,0,1,1.22.36,4.45,4.45,0,0,1,1.19,1,6.75,6.75,0,0,1,1.17,2.08,7.64,7.64,0,0,1,.45,2.65,8,8,0,0,1-.43,2.65,6.66,6.66,0,0,1-1.15,2.07,4.35,4.35,0,0,1-1.2,1A2.6,2.6,0,0,1,170,21Z"/><rect class="cls-1" x="361.52" y="20.17" width="56.69" height="28.35"/><rect class="cls-2" x="361.52" y="20.17" width="56.69" height="28.35"/><rect class="cls-3" x="389.87" y="20.17" width="28.35" height="14.17"/><rect class="cls-2" x="389.87" y="20.17" width="28.35" height="14.17"/><line class="cls-2" x1="361.52" y1="34.34" x2="418.22" y2="34.34"/><line class="cls-2" x1="389.87" y1="48.51" x2="389.87" y2="20.17"/><path d="M311.88,14.74a3.72,3.72,0,0,1,.47-1.86,3.37,3.37,0,0,1,1.28-1.29,3.68,3.68,0,0,1,1.84-.47,3.41,3.41,0,0,1,2.25.72,2,2,0,0,1,.53.6,1.27,1.27,0,0,1,.18.59.54.54,0,0,1-.19.42,1.14,1.14,0,0,1-.41.21c-.15,0-.23,0-.25,0a2.07,2.07,0,0,0-2.08-1.34,2.17,2.17,0,0,0-1.16.31,2.13,2.13,0,0,0-.81.87,2.56,2.56,0,0,0-.3,1.24,2.61,2.61,0,0,0,.3,1.26,2.09,2.09,0,0,0,.81.88,2.17,2.17,0,0,0,1.16.31,2.06,2.06,0,0,0,2.08-1.35s.1,0,.25,0a.89.89,0,0,1,.41.21.58.58,0,0,1,.19.44,1.23,1.23,0,0,1-.19.58,2.12,2.12,0,0,1-.53.6,2.94,2.94,0,0,1-1,.52,3.87,3.87,0,0,1-1.28.19,3.65,3.65,0,0,1-1.85-.46,3.33,3.33,0,0,1-1.28-1.3,3.9,3.9,0,0,1-.46-1.88Zm7.35,6.3c-.44,0-.66-.19-.66-.58a.61.61,0,0,1,.09-.31.39.39,0,0,1,.12-.17,3.17,3.17,0,0,0,1.63-.94,4.61,4.61,0,0,0,1-1.78,7.25,7.25,0,0,0,.36-2.33,7.09,7.09,0,0,0-.36-2.29,4.86,4.86,0,0,0-1-1.79,3.16,3.16,0,0,0-1.63-.93,1,1,0,0,1-.21-.5c0-.38.22-.58.66-.58a2.53,2.53,0,0,1,1.23.36,4.41,4.41,0,0,1,1.18,1,6.76,6.76,0,0,1,1.18,2.08,7.88,7.88,0,0,1,.44,2.65,7.79,7.79,0,0,1-.43,2.65,6.66,6.66,0,0,1-1.15,2.07,4.35,4.35,0,0,1-1.2,1,2.57,2.57,0,0,1-1.25.36Z"/><path class="cls-1" d="M68.62,109.48a28.34,28.34,0,1,0,40.09,0l-20,20Z"/><path class="cls-2" d="M68.62,109.48a28.34,28.34,0,1,0,40.09,0l-20,20Z"/><path class="cls-3" d="M108.71,109.48a28.35,28.35,0,0,0-40.09,0l20,20Z"/><path class="cls-2" d="M108.71,109.48a28.35,28.35,0,0,0-40.09,0l20,20Z"/><path d="M13.91,113.57a3.14,3.14,0,0,1-1.66-.46,3,3,0,0,1-1.15-1.27,4.53,4.53,0,0,1,0-3.81,3,3,0,0,1,1.16-1.27,3.21,3.21,0,0,1,1.69-.45,3,3,0,0,1,1.43.32,2.35,2.35,0,0,1,.94.81v-3.76s.05-.06.16-.1a1,1,0,0,1,.35-.06c.61,0,.91.41.91,1.22v8c0,.45-.21.68-.63.68H17c-.42,0-.63-.23-.63-.68v-.53a2.75,2.75,0,0,1-2.42,1.34Zm2.42-4.67a2.19,2.19,0,0,0-.81-1,2.23,2.23,0,0,0-1.31-.38,2,2,0,0,0-1.56.68,2.57,2.57,0,0,0-.59,1.78,2.87,2.87,0,0,0,.27,1.26,2.13,2.13,0,0,0,.75.87,2,2,0,0,0,1.1.32,2.21,2.21,0,0,0,1.07-.27,2,2,0,0,0,.79-.72,1.93,1.93,0,0,0,.29-1Zm3,7.32c-.44,0-.65-.19-.65-.57a.61.61,0,0,1,.08-.32c.06-.11.1-.16.13-.17a3.31,3.31,0,0,0,1.63-.93,4.86,4.86,0,0,0,1-1.79,7.25,7.25,0,0,0,.36-2.33,7.09,7.09,0,0,0-.36-2.29A4.74,4.74,0,0,0,20.52,106a3.25,3.25,0,0,0-1.62-.93.62.62,0,0,1-.13-.19.65.65,0,0,1-.08-.31c0-.38.21-.58.65-.58a2.47,2.47,0,0,1,1.23.36,4.45,4.45,0,0,1,1.19,1,6.89,6.89,0,0,1,1.17,2.09,7.58,7.58,0,0,1,.45,2.64,8,8,0,0,1-.43,2.65,6.66,6.66,0,0,1-1.15,2.07,4.39,4.39,0,0,1-1.21,1,2.54,2.54,0,0,1-1.25.36Z"/><polygon class="cls-1" points="267.62 129.52 253.44 104.97 239.27 105 239.27 129.52 210.92 129.52 225.09 154.07 253.44 154.07 267.62 129.52"/><polygon class="cls-2" points="267.62 129.52 253.44 104.97 239.27 105 239.27 129.52 210.92 129.52 225.09 154.07 253.44 154.07 267.62 129.52"/><polygon class="cls-3" points="210.92 129.52 239.27 129.52 239.27 105 225.09 104.97 210.92 129.52"/><polygon class="cls-2" points="210.92 129.52 239.27 129.52 239.27 105 225.09 104.97 210.92 129.52"/><path d="M161.28,110a3.81,3.81,0,0,1,.46-1.87,3.39,3.39,0,0,1,3.07-1.78,3.4,3.4,0,0,1,1.74.43,3.13,3.13,0,0,1,1.16,1.23,3.8,3.8,0,0,1,.41,1.81v.11a.35.35,0,0,1-.43.42H162.6a1.7,1.7,0,0,0,0,.26,2.28,2.28,0,0,0,.78,1.36,2.37,2.37,0,0,0,1.54.52,2.64,2.64,0,0,0,1.35-.31,2.28,2.28,0,0,0,.82-.84s.09,0,.22,0a1,1,0,0,1,.36.23.6.6,0,0,1,.17.44.89.89,0,0,1-.2.5,2.15,2.15,0,0,1-.56.51,4.06,4.06,0,0,1-2.18.56,3.94,3.94,0,0,1-1.91-.46,3.19,3.19,0,0,1-1.28-1.27,3.72,3.72,0,0,1-.46-1.88Zm5.47-.61a2.17,2.17,0,0,0-.58-1.44,1.83,1.83,0,0,0-1.37-.53,2.09,2.09,0,0,0-1.45.55,2.3,2.3,0,0,0-.73,1.42Zm2.55,6.87q-.66,0-.66-.57a.62.62,0,0,1,.09-.32c.05-.11.1-.16.13-.17a3.24,3.24,0,0,0,1.62-.93,4.6,4.6,0,0,0,1-1.79,7.25,7.25,0,0,0,.36-2.33,7.09,7.09,0,0,0-.36-2.29,4.6,4.6,0,0,0-1-1.79,3.25,3.25,0,0,0-1.62-.93.48.48,0,0,1-.13-.19.67.67,0,0,1-.09-.31c0-.38.22-.58.66-.58a2.53,2.53,0,0,1,1.23.36,4.41,4.41,0,0,1,1.18,1,6.7,6.7,0,0,1,1.18,2.09,8.26,8.26,0,0,1,0,5.29,6.46,6.46,0,0,1-1.15,2.07,4.35,4.35,0,0,1-1.2,1,2.57,2.57,0,0,1-1.25.36Z"/><rect class="cls-1" x="354.44" y="129.52" width="70.87" height="14.17"/><rect class="cls-2" x="354.44" y="129.52" width="70.87" height="14.17"/><rect class="cls-3" x="354.44" y="115.35" width="70.87" height="14.17"/><rect class="cls-2" x="354.44" y="115.35" width="70.87" height="14.17"/><path d="M313,107.64h-.8a.71.71,0,0,1-.48-.14.51.51,0,0,1-.15-.4V107a.46.46,0,0,1,.15-.38.71.71,0,0,1,.48-.13h.8V106a2.78,2.78,0,0,1,.57-1.91,2.08,2.08,0,0,1,1.63-.63,2.12,2.12,0,0,1,1.18.29.75.75,0,0,1,.37.64.81.81,0,0,1-.07.33.86.86,0,0,1-.17.23c-.06,0-.1.07-.11.06a1.39,1.39,0,0,0-.44-.28,1.52,1.52,0,0,0-.59-.12.85.85,0,0,0-.75.34,1.86,1.86,0,0,0-.24,1.07v.5h1.16a.71.71,0,0,1,.48.13.49.49,0,0,1,.15.4v.1a.51.51,0,0,1-.15.4.71.71,0,0,1-.48.13h-1.13v5.12a.72.72,0,0,1-.16.53.64.64,0,0,1-.46.15h-.14c-.43,0-.65-.23-.65-.68Zm5.27,8.58q-.66,0-.66-.57a.62.62,0,0,1,.09-.32.39.39,0,0,1,.12-.17,3.22,3.22,0,0,0,1.63-.93,4.72,4.72,0,0,0,1-1.79,7.25,7.25,0,0,0,.36-2.33,7.09,7.09,0,0,0-.36-2.29,4.86,4.86,0,0,0-1-1.79,3.23,3.23,0,0,0-1.63-.93,1,1,0,0,1-.21-.5c0-.38.22-.58.66-.58a2.53,2.53,0,0,1,1.23.36,4.41,4.41,0,0,1,1.18,1,6.7,6.7,0,0,1,1.18,2.09,8.26,8.26,0,0,1,0,5.29,6.66,6.66,0,0,1-1.15,2.07,4.35,4.35,0,0,1-1.2,1,2.57,2.57,0,0,1-1.25.36Z"/><rect class="cls-1" x="74.49" y="203.44" width="28.35" height="31.89"/><rect class="cls-2" x="74.49" y="203.44" width="28.35" height="31.89"/><rect class="cls-3" x="74.49" y="235.33" width="28.35" height="10.63"/><rect class="cls-2" x="74.49" y="235.33" width="28.35" height="10.63"/><path d="M13.59,211.59a5.46,5.46,0,0,1-2.57-.47,1.61,1.61,0,0,1-.22-2.67,3.5,3.5,0,0,1,1.59-.67.79.79,0,0,1-.28-.64,1,1,0,0,1,.39-.75,2.65,2.65,0,0,1-1.32-.87,2.27,2.27,0,0,1-.49-1.42,2.39,2.39,0,0,1,.38-1.31,2.67,2.67,0,0,1,1.07-.95,3.14,3.14,0,0,1,1.51-.35,3.48,3.48,0,0,1,1.65.41l.37-.66a1.26,1.26,0,0,1,.37-.41.77.77,0,0,1,.45-.13.68.68,0,0,1,.42.13.76.76,0,0,1,.25.29q.09.16.06.18l-1.17,1.22a2.28,2.28,0,0,1,.6,1.53,2.36,2.36,0,0,1-.38,1.3,2.58,2.58,0,0,1-1.06.89,3.53,3.53,0,0,1-1.55.33h-.25a.36.36,0,0,0-.08.24.39.39,0,0,0,.27.36,6.52,6.52,0,0,0,1,.27l.65.16a3.82,3.82,0,0,1,1.45.67,1.45,1.45,0,0,1,.56,1.21,1.73,1.73,0,0,1-1,1.55,5.29,5.29,0,0,1-2.66.56Zm0-1a4,4,0,0,0,1.63-.28.87.87,0,0,0,.58-.8.62.62,0,0,0-.35-.57,4.92,4.92,0,0,0-1.06-.36l-.71-.17a3.8,3.8,0,0,0-1.55.37,1,1,0,0,0-.61.85.79.79,0,0,0,.53.71,3.81,3.81,0,0,0,1.54.25Zm0-5a1.61,1.61,0,0,0,1.17-.43,1.66,1.66,0,0,0,0-2.26,1.63,1.63,0,0,0-1.18-.43,1.56,1.56,0,0,0-1.15.43,1.64,1.64,0,0,0,0,2.26,1.64,1.64,0,0,0,1.17.43ZM18,211.4q-.66,0-.66-.57a.76.76,0,0,1,.08-.32c.06-.1.1-.16.13-.17a3.19,3.19,0,0,0,1.63-.93,4.72,4.72,0,0,0,1-1.79,7.25,7.25,0,0,0,.36-2.33,7.14,7.14,0,0,0-.36-2.29,4.74,4.74,0,0,0-1.05-1.79,3.32,3.32,0,0,0-1.62-.93.62.62,0,0,1-.13-.19.75.75,0,0,1-.08-.31q0-.57.66-.57a2.56,2.56,0,0,1,1.22.35,4.45,4.45,0,0,1,1.19,1,6.49,6.49,0,0,1,1.17,2.09A7.58,7.58,0,0,1,22,205.3a7.79,7.79,0,0,1-.43,2.65A6.66,6.66,0,0,1,20.42,210a4.35,4.35,0,0,1-1.2,1,2.57,2.57,0,0,1-1.25.36Z"/><path class="cls-1" d="M222.16,248.2a28.33,28.33,0,1,0-10.79-13.8"/><path class="cls-2" d="M222.16,248.2a28.33,28.33,0,1,0-10.79-13.8"/><path class="cls-3" d="M211.37,234.4a28.36,28.36,0,0,0,10.79,13.8L238,224.7Z"/><path class="cls-2" d="M211.37,234.4a28.36,28.36,0,0,0,10.79,13.8L238,224.7Z"/><path d="M165.4,201.49a2.44,2.44,0,0,1,2,.81,3.31,3.31,0,0,1,.68,2.17v3.47c0,.45-.21.68-.63.68h-.16c-.42,0-.63-.23-.63-.68v-3.31a2,2,0,0,0-.43-1.39,1.42,1.42,0,0,0-1.17-.5,1.88,1.88,0,0,0-1.41.54,2,2,0,0,0-.52,1.48v3.18c0,.45-.21.68-.63.68h-.16c-.42,0-.63-.23-.63-.68v-9.08s.05-.06.16-.1a1,1,0,0,1,.35-.06.83.83,0,0,1,.65.28,1.35,1.35,0,0,1,.26.94v2.83a2.59,2.59,0,0,1,2.28-1.26Zm4.2,9.91q-.66,0-.66-.57a.65.65,0,0,1,.09-.32c.06-.1.1-.16.13-.17a3.23,3.23,0,0,0,1.63-.93,4.86,4.86,0,0,0,1-1.79,7.25,7.25,0,0,0,.35-2.33,7.13,7.13,0,0,0-.35-2.29,4.74,4.74,0,0,0-1.05-1.79,3.32,3.32,0,0,0-1.62-.93.62.62,0,0,1-.13-.19.64.64,0,0,1-.09-.31q0-.57.66-.57a2.62,2.62,0,0,1,1.23.35,4.41,4.41,0,0,1,1.18,1,6.7,6.7,0,0,1,1.18,2.09,7.58,7.58,0,0,1,.44,2.64,7.79,7.79,0,0,1-.43,2.65,6.64,6.64,0,0,1-1.14,2.07,4.54,4.54,0,0,1-1.21,1,2.57,2.57,0,0,1-1.25.36Z"/><path class="cls-4" d="M361.82,224.4A14.18,14.18,0,0,0,376,238.58"/><path class="cls-2" d="M376,238.58a14.18,14.18,0,0,0,14.17-14.18,14.18,14.18,0,0,1,28.35,0"/><path d="M312.24,199.45a.82.82,0,0,1,.23-.61.86.86,0,0,1,.63-.22.81.81,0,0,1,.62.22.86.86,0,0,1,.22.61.78.78,0,0,1-.23.6.83.83,0,0,1-.62.22.89.89,0,0,1-.63-.22.85.85,0,0,1-.22-.6Zm.12,2.83c0-.46.21-.69.64-.69h.15a.61.61,0,0,1,.46.16.7.7,0,0,1,.17.53v5.66c0,.45-.21.68-.63.68H313c-.43,0-.64-.23-.64-.68Zm3.1,9.12q-.66,0-.66-.57a.63.63,0,0,1,.08-.32c.06-.1.1-.16.13-.17a3.19,3.19,0,0,0,1.63-.93,4.86,4.86,0,0,0,1-1.79,7.25,7.25,0,0,0,.36-2.33,7.14,7.14,0,0,0-.36-2.29,4.74,4.74,0,0,0-1.05-1.79,3.32,3.32,0,0,0-1.62-.93.8.8,0,0,1-.21-.5q0-.57.66-.57a2.56,2.56,0,0,1,1.22.35,4.45,4.45,0,0,1,1.19,1,6.69,6.69,0,0,1,1.17,2.09,7.58,7.58,0,0,1,.45,2.64,8,8,0,0,1-.43,2.65,6.66,6.66,0,0,1-1.15,2.07,4.39,4.39,0,0,1-1.21,1,2.54,2.54,0,0,1-1.24.36Z"/><line class="cls-5" x1="64.32" y1="322.55" x2="128.24" y2="322.55"/><path class="cls-6" d="M56,317.16H48.87l8.73-8.73h7.09Zm0,0,8.73-8.73V322.6L56,331.34Zm0,0H48.87v14.18H56Z"/><path class="cls-2" d="M56,317.16H48.87l8.73-8.73h7.09Zm0,0,8.73-8.73V322.6L56,331.34Zm0,0H48.87v14.18H56Z"/><line class="cls-7" x1="48.87" y1="331.34" x2="57.6" y2="322.6"/><line class="cls-8" x1="48.87" y1="331.34" x2="57.6" y2="322.6"/><line class="cls-8" x1="64.69" y1="322.6" x2="57.6" y2="322.6"/><line class="cls-8" x1="57.6" y1="308.43" x2="57.6" y2="322.6"/><path class="cls-1" d="M119.74,317.16H56l8.73-8.73h63.79Zm0,0,8.73-8.73V322.6l-8.73,8.74Zm0,0H56v14.18h63.79Z"/><path class="cls-2" d="M119.74,317.16H56l8.73-8.73h63.79Zm0,0,8.73-8.73V322.6l-8.73,8.74Zm0,0H56v14.18h63.79Z"/><line class="cls-9" x1="55.95" y1="331.34" x2="64.68" y2="322.6"/><line class="cls-8" x1="55.95" y1="331.34" x2="64.68" y2="322.6"/><line class="cls-8" x1="128.47" y1="322.6" x2="64.68" y2="322.6"/><line class="cls-8" x1="64.68" y1="308.43" x2="64.68" y2="322.6"/><path d="M9.26,306.21a.73.73,0,0,1-.22-.52.8.8,0,0,1,.08-.33,1,1,0,0,1,.15-.25c.06-.06.09-.09.1-.08a1.27,1.27,0,0,0,.92.4.78.78,0,0,0,.66-.25,1.38,1.38,0,0,0,.2-.85v-6.87c0-.46.22-.69.65-.69h.14a.64.64,0,0,1,.47.16.7.7,0,0,1,.16.53v7A2.24,2.24,0,0,1,12,306a2,2,0,0,1-1.53.57,1.69,1.69,0,0,1-1.25-.4ZM11,294.63a.78.78,0,0,1,.23-.61.85.85,0,0,1,.63-.22.83.83,0,0,1,.62.22.85.85,0,0,1,.21.61.78.78,0,0,1-.22.6.85.85,0,0,1-.63.22.84.84,0,0,1-.62-.22.81.81,0,0,1-.22-.6Zm3.21,11.95q-.66,0-.66-.57a.65.65,0,0,1,.09-.32c.06-.1.1-.16.13-.17a3.16,3.16,0,0,0,1.63-.93,4.86,4.86,0,0,0,1-1.79,7.8,7.8,0,0,0,0-4.62,4.62,4.62,0,0,0-1.05-1.78,3.27,3.27,0,0,0-1.62-.94.62.62,0,0,1-.13-.19.64.64,0,0,1-.09-.31q0-.57.66-.57a2.53,2.53,0,0,1,1.23.36,4.37,4.37,0,0,1,1.18,1,6.7,6.7,0,0,1,1.18,2.09,7.88,7.88,0,0,1,.44,2.65,7.78,7.78,0,0,1-.43,2.64,6.64,6.64,0,0,1-1.14,2.07,4.54,4.54,0,0,1-1.21,1,2.57,2.57,0,0,1-1.25.36Z"/><rect class="cls-1" x="210.92" y="291.54" width="28.35" height="28.35"/><rect class="cls-2" x="210.92" y="291.54" width="28.35" height="28.35"/><rect class="cls-1" x="210.92" y="319.88" width="28.35" height="28.35"/><rect class="cls-2" x="210.92" y="319.88" width="28.35" height="28.35"/><rect class="cls-1" x="239.27" y="319.88" width="28.35" height="28.35"/><rect class="cls-2" x="239.27" y="319.88" width="28.35" height="28.35"/><rect class="cls-1" x="239.27" y="291.54" width="28.35" height="28.35"/><rect class="cls-2" x="239.27" y="291.54" width="28.35" height="28.35"/><rect class="cls-3" x="225.1" y="305.71" width="28.35" height="28.35"/><rect class="cls-2" x="225.1" y="305.71" width="28.35" height="28.35"/><line class="cls-2" x1="239.27" y1="334.06" x2="239.27" y2="305.71"/><line class="cls-2" x1="225.1" y1="319.88" x2="253.44" y2="319.88"/><path d="M162.4,303.8c-.43,0-.64-.23-.64-.68V294s.05-.06.16-.1a1.34,1.34,0,0,1,.35-.05c.6,0,.91.4.91,1.22v8c0,.45-.22.68-.64.68Zm2.45,2.78q-.66,0-.66-.57a.65.65,0,0,1,.09-.32c.06-.1.1-.16.13-.17a3.16,3.16,0,0,0,1.63-.93,4.86,4.86,0,0,0,1-1.79,7.59,7.59,0,0,0,0-4.62A4.62,4.62,0,0,0,166,296.4a3.27,3.27,0,0,0-1.62-.94.62.62,0,0,1-.13-.19.64.64,0,0,1-.09-.31q0-.57.66-.57a2.5,2.5,0,0,1,1.23.36,4.22,4.22,0,0,1,1.18,1,6.7,6.7,0,0,1,1.18,2.09,7.64,7.64,0,0,1,.45,2.65,7.78,7.78,0,0,1-.44,2.64,6.44,6.44,0,0,1-1.14,2.07,4.54,4.54,0,0,1-1.21,1,2.54,2.54,0,0,1-1.25.36Z"/><rect class="cls-1" x="361.52" y="291.54" width="56.69" height="56.69"/><rect class="cls-2" x="361.52" y="291.54" width="56.69" height="56.69"/><rect class="cls-3" x="375.7" y="334.06" width="14.17" height="14.17"/><rect class="cls-2" x="375.7" y="334.06" width="14.17" height="14.17"/><rect class="cls-3" x="404.04" y="334.06" width="14.17" height="14.17"/><rect class="cls-2" x="404.04" y="334.06" width="14.17" height="14.17"/><rect class="cls-3" x="361.52" y="319.88" width="14.17" height="14.17"/><rect class="cls-2" x="361.52" y="319.88" width="14.17" height="14.17"/><rect class="cls-3" x="389.87" y="319.88" width="14.17" height="14.17"/><rect class="cls-2" x="389.87" y="319.88" width="14.17" height="14.17"/><rect class="cls-3" x="375.7" y="305.71" width="14.17" height="14.17"/><rect class="cls-2" x="375.7" y="305.71" width="14.17" height="14.17"/><rect class="cls-3" x="404.04" y="305.71" width="14.17" height="14.17"/><rect class="cls-2" x="404.04" y="305.71" width="14.17" height="14.17"/><rect class="cls-3" x="361.52" y="291.54" width="14.17" height="14.17"/><rect class="cls-2" x="361.52" y="291.54" width="14.17" height="14.17"/><rect class="cls-3" x="389.87" y="291.54" width="14.17" height="14.17"/><rect class="cls-2" x="389.87" y="291.54" width="14.17" height="14.17"/><path d="M320.49,296.67a2.49,2.49,0,0,1,1.95.74,3.09,3.09,0,0,1,.65,2.1v3.61c0,.45-.21.68-.63.68h-.15a.69.69,0,0,1-.48-.15.7.7,0,0,1-.16-.53v-3.44c0-1.17-.51-1.76-1.52-1.76a1.74,1.74,0,0,0-1,.31,2.06,2.06,0,0,0-.74.83v4.06c0,.45-.21.68-.63.68h-.15c-.43,0-.64-.23-.64-.68v-3.38c0-1.22-.51-1.82-1.52-1.82a1.79,1.79,0,0,0-1,.31,2.17,2.17,0,0,0-.73.83v4.06c0,.45-.21.68-.63.68h-.16c-.42,0-.63-.23-.63-.68v-6.19s.05-.06.16-.1a1,1,0,0,1,.36-.06c.54,0,.84.35.89,1.06a3,3,0,0,1,.91-.85,2.41,2.41,0,0,1,1.22-.31,2.51,2.51,0,0,1,1.41.37,2.26,2.26,0,0,1,.85,1.08,3.05,3.05,0,0,1,1-1.06,2.52,2.52,0,0,1,1.4-.39Zm4.13,9.91q-.66,0-.66-.57a.65.65,0,0,1,.09-.32c.06-.1.1-.16.13-.17a3.16,3.16,0,0,0,1.63-.93,4.86,4.86,0,0,0,1-1.79,7.59,7.59,0,0,0,0-4.62,4.62,4.62,0,0,0-1.05-1.78,3.27,3.27,0,0,0-1.62-.94.62.62,0,0,1-.13-.19A.64.64,0,0,1,324,295q0-.57.66-.57a2.5,2.5,0,0,1,1.23.36,4.22,4.22,0,0,1,1.18,1,6.7,6.7,0,0,1,1.18,2.09,7.64,7.64,0,0,1,.44,2.65,7.78,7.78,0,0,1-.43,2.64,6.64,6.64,0,0,1-1.14,2.07,4.54,4.54,0,0,1-1.21,1,2.57,2.57,0,0,1-1.25.36Z"/></svg>