<svg id="Camada_1" data-name="Camada 1" xmlns="http://www.w3.org/2000/svg" xmlns:xlink="http://www.w3.org/1999/xlink" viewBox="0 0 174.7 176.45"><defs><style>.cls-1,.cls-3,.cls-4,.cls-5{fill:none;}.cls-2{clip-path:url(#clip-path);}.cls-3{stroke:#95d4e9;}.cls-3,.cls-4,.cls-5{stroke-miterlimit:10;}.cls-3,.cls-5{stroke-width:0.34px;}.cls-4{stroke:#e6164d;stroke-width:1.02px;}.cls-5{stroke:#000;}.cls-6{font-size:12.22px;font-family:CMR12;}</style><clipPath id="clip-path"><rect class="cls-1" x="16.02" y="16.89" width="142.66" height="142.66"/></clipPath></defs><g class="cls-2"><line class="cls-3" x1="4.77" y1="170.81" x2="4.77" y2="34.94"/><line class="cls-3" x1="4.77" y1="170.81" x2="4.77" y2="306.68"/><line class="cls-3" x1="14.38" y1="161.2" x2="14.38" y2="25.33"/><line class="cls-3" x1="14.38" y1="161.2" x2="14.38" y2="297.07"/><line class="cls-3" x1="23.98" y1="151.59" x2="23.98" y2="15.72"/><line class="cls-3" x1="23.98" y1="151.59" x2="23.98" y2="287.46"/><line class="cls-3" x1="33.59" y1="141.98" x2="33.59" y2="6.12"/><line class="cls-3" x1="33.59" y1="141.98" x2="33.59" y2="277.85"/><line class="cls-3" x1="43.2" y1="132.38" x2="43.2" y2="-3.49"/><line class="cls-3" x1="43.2" y1="132.38" x2="43.2" y2="268.24"/><line class="cls-3" x1="52.81" y1="122.77" x2="52.81" y2="-13.1"/><line class="cls-3" x1="52.81" y1="122.77" x2="52.81" y2="258.64"/><line class="cls-3" x1="62.41" y1="113.16" x2="62.42" y2="-22.71"/><line class="cls-3" x1="62.41" y1="113.16" x2="62.42" y2="249.03"/><line class="cls-3" x1="72.02" y1="103.55" x2="72.02" y2="-32.32"/><line class="cls-3" x1="72.02" y1="103.55" x2="72.02" y2="239.42"/><line class="cls-3" x1="81.63" y1="93.94" x2="81.63" y2="-41.92"/><line class="cls-3" x1="81.63" y1="93.94" x2="81.63" y2="229.81"/><line class="cls-3" x1="91.24" y1="84.34" x2="91.24" y2="-51.53"/><line class="cls-3" x1="91.24" y1="84.34" x2="91.24" y2="220.2"/><line class="cls-3" x1="100.85" y1="74.73" x2="100.85" y2="-61.14"/><line class="cls-3" x1="100.85" y1="74.73" x2="100.85" y2="210.6"/><line class="cls-3" x1="110.45" y1="65.12" x2="110.45" y2="-70.75"/><line class="cls-3" x1="110.45" y1="65.12" x2="110.45" y2="200.99"/><line class="cls-3" x1="120.06" y1="55.51" x2="120.06" y2="-80.36"/><line class="cls-3" x1="120.06" y1="55.51" x2="120.06" y2="191.38"/><line class="cls-3" x1="129.67" y1="45.9" x2="129.67" y2="-89.96"/><line class="cls-3" x1="129.67" y1="45.9" x2="129.67" y2="181.77"/><line class="cls-3" x1="139.28" y1="36.3" x2="139.28" y2="-99.57"/><line class="cls-3" x1="139.28" y1="36.3" x2="139.28" y2="172.17"/><line class="cls-3" x1="148.89" y1="26.69" x2="148.89" y2="-109.18"/><line class="cls-3" x1="148.89" y1="26.69" x2="148.89" y2="162.56"/><line class="cls-3" x1="158.49" y1="17.08" x2="158.49" y2="-118.79"/><line class="cls-3" x1="158.49" y1="17.08" x2="158.49" y2="152.95"/><line class="cls-3" x1="168.1" y1="7.47" x2="168.1" y2="-128.4"/><line class="cls-3" x1="168.1" y1="7.47" x2="168.1" y2="143.34"/><line class="cls-4" x1="23.98" y1="151.6" x2="158.48" y2="17.09"/><line class="cls-5" x1="41.39" y1="130.58" x2="44.99" y2="134.18"/><text class="cls-6" transform="translate(42 146.31)">0</text><line class="cls-5" x1="137.47" y1="34.51" x2="141.07" y2="38.11"/><text class="cls-6" transform="translate(138.08 50.23)">1</text><line class="cls-5" x1="51" y1="120.97" x2="54.6" y2="124.57"/><line class="cls-5" x1="60.61" y1="111.37" x2="64.21" y2="114.97"/><line class="cls-5" x1="70.21" y1="101.76" x2="73.81" y2="105.36"/><line class="cls-5" x1="79.82" y1="92.15" x2="83.42" y2="95.76"/><line class="cls-5" x1="89.43" y1="82.55" x2="93.03" y2="86.15"/><line class="cls-5" x1="99.03" y1="72.94" x2="102.63" y2="76.54"/><line class="cls-5" x1="108.64" y1="63.33" x2="112.24" y2="66.94"/><line class="cls-5" x1="118.25" y1="53.73" x2="121.85" y2="57.33"/><line class="cls-5" x1="127.85" y1="44.12" x2="131.45" y2="47.72"/></g></svg>