<svg id="Camada_1" data-name="Camada 1" xmlns="http://www.w3.org/2000/svg" xmlns:xlink="http://www.w3.org/1999/xlink" viewBox="0 0 88.9 40.41"><defs><style>.cls-1,.cls-2{fill:none;}.cls-2{stroke:#000;stroke-miterlimit:10;stroke-width:0.4px;}.cls-3{clip-path:url(#clip-path);}.cls-4{fill:#e6164d;}.cls-5{fill:#95d4e9;opacity:0.3;}</style><clipPath id="clip-path"><polygon class="cls-1" points="31.84 12.81 19.07 5.44 6.3 12.81 6.3 27.55 19.07 34.92 31.84 27.55 44.6 34.92 57.37 27.55 70.13 34.92 82.9 27.55 82.9 12.81 70.13 5.44 57.37 12.81 44.6 5.44 31.84 12.81"/></clipPath></defs><polygon class="cls-2" points="31.84 12.81 19.07 5.44 6.3 12.81 6.3 27.55 19.07 34.92 31.84 27.55 44.6 34.92 57.37 27.55 70.13 34.92 82.9 27.55 82.9 12.81 70.13 5.44 57.37 12.81 44.6 5.44 31.84 12.81"/><g class="cls-3"><rect class="cls-4" x="4.33" y="5.44" width="14.74" height="29.48"/><rect class="cls-2" x="4.33" y="5.44" width="14.74" height="29.48"/><rect class="cls-5" x="19.07" y="5.44" width="73.7" height="29.48"/><rect class="cls-2" x="19.07" y="5.44" width="73.7" height="29.48"/></g></svg>